<?xml version="1.0" encoding="UTF-8"?>
<svg id="CharacterFront" xmlns="http://www.w3.org/2000/svg" viewBox="0 0 640 640">
  <defs>
    <style>
      .cls-1 {
        stroke-dasharray: 0 0 3.03 4.54;
      }

      .cls-1, .cls-2, .cls-3, .cls-4, .cls-5, .cls-6, .cls-7, .cls-8, .cls-9, .cls-10, .cls-11, .cls-12, .cls-13, .cls-14, .cls-15, .cls-16, .cls-17, .cls-18, .cls-19, .cls-20, .cls-21, .cls-22 {
        fill: none;
      }

      .cls-1, .cls-2, .cls-4, .cls-23, .cls-5, .cls-24, .cls-6, .cls-7, .cls-8, .cls-9, .cls-25, .cls-10, .cls-11, .cls-12, .cls-14, .cls-15, .cls-26, .cls-16, .cls-17, .cls-18, .cls-19, .cls-20, .cls-27, .cls-28, .cls-21, .cls-29, .cls-22, .cls-30 {
        stroke-linecap: round;
        stroke-linejoin: round;
      }

      .cls-1, .cls-2, .cls-8, .cls-9, .cls-13, .cls-31, .cls-20, .cls-27, .cls-32 {
        stroke-width: 2px;
      }

      .cls-1, .cls-2, .cls-8, .cls-9, .cls-31, .cls-20 {
        stroke: #bc695c;
      }

      .cls-2 {
        stroke-dasharray: 0 0 2.67 3.57;
      }

      .cls-3, .cls-23, .cls-24, .cls-7, .cls-33, .cls-34, .cls-25, .cls-10, .cls-35, .cls-11, .cls-13, .cls-26, .cls-16, .cls-17, .cls-19, .cls-27, .cls-28, .cls-21, .cls-32, .cls-36, .cls-29, .cls-22, .cls-30 {
        stroke: #000;
      }

      .cls-3, .cls-33, .cls-34, .cls-35, .cls-13, .cls-31, .cls-32, .cls-36 {
        stroke-miterlimit: 10;
      }

      .cls-3, .cls-22 {
        stroke-width: 2.64px;
      }

      .cls-4 {
        stroke-dasharray: 0 0 3.82 5.74;
      }

      .cls-4, .cls-23, .cls-5, .cls-6, .cls-7, .cls-33, .cls-34, .cls-25, .cls-10, .cls-35, .cls-11, .cls-12, .cls-14, .cls-15, .cls-26, .cls-16, .cls-17, .cls-18, .cls-19, .cls-28, .cls-21, .cls-29, .cls-30 {
        stroke-width: 2.5px;
      }

      .cls-4, .cls-5, .cls-6, .cls-12, .cls-14, .cls-15, .cls-18 {
        stroke: #7a94dd;
      }

      .cls-37 {
        opacity: .5;
      }

      .cls-23 {
        fill: #cfe1f9;
      }

      .cls-5 {
        stroke-dasharray: 0 0 3.45 5.18;
      }

      .cls-24, .cls-34, .cls-36, .cls-29 {
        fill: #fef495;
      }

      .cls-6 {
        stroke-dasharray: 0 0 3.48 5.22;
      }

      .cls-7 {
        stroke-dasharray: 0 0 3.83 5.74;
      }

      .cls-38 {
        fill: #ddc7bc;
      }

      .cls-33 {
        fill: #91a6ba;
      }

      .cls-9 {
        stroke-dasharray: 0 0 3.25 4.88;
      }

      .cls-25 {
        fill: #0d141e;
      }

      .cls-10 {
        stroke-dasharray: 0 0 3.57 5.36;
      }

      .cls-35, .cls-30 {
        fill: #f5e3d9;
      }

      .cls-11 {
        stroke-dasharray: 0 0 3.18 4.77;
      }

      .cls-12 {
        stroke-dasharray: 0 0 3.25 4.88;
      }

      .cls-14 {
        stroke-dasharray: 0 0 3.59 5.38;
      }

      .cls-26 {
        fill: #66a1e2;
      }

      .cls-39 {
        fill: #7a94dd;
      }

      .cls-40 {
        fill: #efe8e6;
      }

      .cls-17, .cls-18 {
        stroke-dasharray: 0 0 3.52 5.29;
      }

      .cls-31 {
        fill: #f1a791;
      }

      .cls-19 {
        stroke-dasharray: 0 0 3.11 4.67;
      }

      .cls-20 {
        stroke-dasharray: 0 0 2.81 3.75;
      }

      .cls-27 {
        fill: #3f3f3f;
      }

      .cls-28, .cls-32 {
        fill: #f4f3e7;
      }

      .cls-21 {
        stroke-dasharray: 0 0 3.87 5.8;
      }

      .cls-36 {
        stroke-width: 3px;
      }
    </style>
  </defs>
  <path class="cls-33" d="M440.15,204.05c2.51,.62,6.04,1.43,10.3,2.2,6.84,1.24,17.69,2.89,33.95,2.68,16.86-.21,25.29-.32,30.18-1.99,21.52-7.36,30.15-31.33,31.3-34.66,11.35-33.01-7.86-85.98-50.55-93.24-32.33-5.5-63.4,17.72-75.52,43.1-10.64,22.28-8.16,52.9,8.43,71.84,4.26,4.87,8.71,8.07,11.92,10.07Z"/>
  <g>
    <path class="cls-23" d="M483.2,406.78c-3.93,8.8-8.86,23.71-4.19,39.24,.28,.93,.61,1.94,1.09,3.1,7.76,18.64,26.99,30.71,36.31,36.64,24.68,15.71,37.59,23.93,48.52,38,6.96,8.96,19.74,25.41,17.46,46.45-2.34,21.5-20.21,46.11-46.47,48.05-21.9,1.62-41.35-13.14-48.32-29.03-4.37-9.97-4.44-21.12-2.22-21.85,3.85-1.26,9.41,30.34,30.41,37.23,10.54,3.46,25.91,.53,32.82-8.73,16.27-21.78-8.22-86.86-46.22-111.53-7.19-4.67-28.37-16.69-41.28-41.53-1.62-3.12-2.77-5.79-3.48-7.55,3.86-2,9.65-5.58,15.17-11.67,5.75-6.33,8.79-12.7,10.39-16.82Z"/>
    <path class="cls-18" d="M540.4,509.12c5.59,4.44,20.96,17.87,27.13,41.19,4.52,17.1,1.97,31.52,.19,38.66"/>
  </g>
  <g>
    <path class="cls-23" d="M598.68,214.17c3.93,8.8,8.86,23.71,4.19,39.24-.28,.93-.61,1.94-1.09,3.1-7.76,18.64-26.99,30.71-36.31,36.64-24.68,15.71-37.59,23.93-48.52,38-6.96,8.96-19.74,25.41-17.46,46.45,2.34,21.5,20.21,46.11,46.47,48.05,21.9,1.62,41.35-13.14,48.32-29.03,4.37-9.97,4.44-21.12,2.22-21.85-3.85-1.26-9.41,30.34-30.41,37.23-10.54,3.46-25.91,.53-32.82-8.73-16.27-21.78,8.22-86.86,46.22-111.53,7.19-4.67,28.37-16.69,41.28-41.53,1.62-3.12,2.77-5.79,3.48-7.55-3.86-2-9.65-5.58-15.17-11.67-5.75-6.33-8.79-12.7-10.39-16.82Z"/>
    <path class="cls-18" d="M541.48,316.51c-5.59,4.44-20.96,17.87-27.13,41.19-4.52,17.1-1.97,31.52-.19,38.66"/>
  </g>
  <path class="cls-35" d="M324.27,510.75c.46,2.77,1.33,6.83,3.08,11.52,1.45,3.87,2.71,6.07,3.72,8.22,3.05,6.49,3.51,11.95,4.31,18.79,1.08,9.19,2.73,20.55,5.07,35.27,1.43-.4,3.7-.84,6.48-.6,3.06,.26,5.4,1.24,6.78,1.94,.15-.4,.87-2.14,2.65-2.81,.52-.19,1-.25,1.39-.26,.62-11.14,.52-20.4,.26-27.14-.45-11.99-1.4-16.66-2.02-19.31-1.89-8-4.81-14.2-7.04-18.25-.48-.82-.96-1.78-1.38-2.88-.91-2.36-1.21-4.51-1.3-6.14,.14-7.29,.28-14.58,.42-21.87-1.02-6.36-6.76-10.84-12.89-10.37-6.54,.5-11.69,6.48-11.11,13.33,.52,6.86,1.05,13.72,1.57,20.57Z"/>
  <path class="cls-28" d="M272.24,591.62c1.2-2.35,2.39-4.69,3.59-7.04,1.67-3.75,7.5-6.48,14.3-6.77,7.41-.31,14.41,2.36,16.58,6.41,.96,2.47,1.93,4.94,2.89,7.41-.49,.39-7.19,5.55-19.14,5.41-11.39-.13-17.63-4.96-18.22-5.43Z"/>
  <path class="cls-35" d="M275.48,508.63c1.45,6.16,2.58,10.99,3.33,14.1,.18,.73,.54,2.26,.88,4.34,.26,1.6,.44,3.12,.55,4.53-.56,7.81-.78,16.52-.39,25.97,.46,10.99,1.66,20.94,3.17,29.66,1.06,4.59,5.22,7.64,9.49,7.27,3.53-.31,6.64-2.92,7.73-6.56,.76-4.53,1.78-11.02,2.84-18.89,.92-6.83,1.31-10.24,1.62-13.82,.49-5.73,.58-14.1-1.56-24.68,.02-1.54,0-3.13-.06-4.76-.2-5.66-.87-10.87-1.77-15.54-.84-7.02-1.67-14.04-2.51-21.06-.5-10.11-8.76-16.58-15.56-15.5-4.74,.75-8.86,5.18-10.35,10.93,.86,8,1.72,16.01,2.58,24.01Z"/>
  <path class="cls-23" d="M309.6,595.26c-5.2-8.62-15.92-8.77-18.8-8.81-2.92-.04-12.94-.18-18.78,7.92-6.05,8.4-2.42,18.45-2.09,19.31,1.68,1.51,8.87,7.62,19.84,7.61,11.65-.01,19.11-6.93,20.62-8.39,.46-1.1,3.93-9.83-.79-17.64Z"/>
  <path class="cls-36" d="M277.66,592.25c.14,.82,.45,2.72-.66,3.8-.92,.9-2.32,.8-2.9,.76-1.92-.14-3.3-1.28-5.44-3.11-1.13-.96-1.74-1.48-2.44-2.33-1.7-2.05-4.02-6.08-2.78-7.56,1.05-1.25,4.28-.23,6.78,.56,1.58,.5,2.67,.84,3.89,1.78,.31,.24,2.92,2.43,3.56,6.11Z"/>
  <path class="cls-36" d="M303.13,592.25c-.14,.82-.45,2.72,.66,3.8,.92,.9,2.32,.8,2.9,.76,1.92-.14,3.3-1.28,5.44-3.11,1.13-.96,1.74-1.48,2.44-2.33,1.7-2.05,4.02-6.08,2.78-7.56-1.05-1.25-4.28-.23-6.78,.56-1.58,.5-2.67,.84-3.89,1.78-.31,.24-2.92,2.43-3.56,6.11Z"/>
  <g>
    <path class="cls-15" d="M290.55,591.17v1.76"/>
    <path class="cls-12" d="M290.55,597.82v13.82"/>
    <path class="cls-15" d="M290.55,614.08v1.76"/>
  </g>
  <path class="cls-23" d="M360.57,592.73c-.81-1.55-1.91-3.6-4.16-5.42-4.05-3.27-8.81-3.36-10.43-3.39-1.56-.03-5.74-.1-9.66,2.5-2.72,1.81-4.1,4.07-4.9,5.42-4.7,7.89-3.29,17.5-2.7,20.67,1.88,1.73,6.13,5.14,12.46,6.25,11.17,1.96,19.57-4.83,20.87-5.92,3.29-4.62,6.58-9.25,9.87-13.87-.08-1.88-.16-3.76-.24-5.64-.47-.87-1.63-2.74-3.92-4.11-1.9-1.14-3.7-1.4-4.67-1.48,.21,.64,.8,2.76-.2,4.98-.41,.91-.98,1.57-1.42,1.99,.46,1.15,.95,2.67,1.27,4.48,.33,1.88,.33,3.83,.33,3.75-.02-2.28-.37-6.14-2.51-10.21Z"/>
  <g>
    <path class="cls-8" d="M283.7,534.74c.08,.44,.19,.87,.32,1.28"/>
    <path class="cls-20" d="M285.86,539.26c.74,.77,1.58,1.25,2.44,1.35,2.1,.24,4.83-1.76,5.86-5.19"/>
    <path class="cls-8" d="M294.52,533.58c.04-.43,.06-.87,.05-1.32"/>
  </g>
  <g>
    <path class="cls-8" d="M333.69,529.52c.13,.43,.27,.85,.44,1.25"/>
    <path class="cls-2" d="M336.09,533.72c.76,.71,1.59,1.12,2.38,1.13,1.9,.01,4.08-2.31,4.55-5.87"/>
    <path class="cls-8" d="M343.1,527.19c-.01-.43-.05-.87-.12-1.32"/>
  </g>
  <g>
    <path class="cls-15" d="M344.19,587.94c-.3,.47-.61,.97-.92,1.5"/>
    <path class="cls-14" d="M340.89,594.26c-.29,.7-.56,1.43-.81,2.2-1.6,4.77-2.02,9.17-1.97,12.69"/>
    <path class="cls-15" d="M338.23,611.84c.05,.63,.11,1.22,.18,1.75"/>
  </g>
  <path class="cls-36" d="M335.92,586.37c.11,.78,.34,2.58-.5,3.6-.7,.85-1.77,.76-2.21,.72-1.47-.13-2.52-1.22-4.15-2.95-.86-.91-1.32-1.4-1.86-2.21-1.3-1.94-3.06-5.77-2.12-7.17,.8-1.19,3.26-.22,5.17,.53,1.2,.47,2.03,.8,2.97,1.69,.23,.22,2.22,2.31,2.71,5.8Z"/>
  <path class="cls-36" d="M353.6,589.28c-.15,.89-.48,2.94,.71,4.11,.99,.97,2.49,.87,3.12,.82,2.07-.15,3.55-1.39,5.85-3.36,1.21-1.04,1.87-1.6,2.63-2.52,1.83-2.21,4.32-6.57,2.99-8.17-1.13-1.35-4.6-.25-7.29,.6-1.7,.54-2.87,.91-4.18,1.92-.33,.25-3.14,2.63-3.82,6.61Z"/>
  <g>
    <path class="cls-25" d="M433.34,401.35c1.81-2.43,4.94-5.98,9.77-8.99,6.25-3.9,12.24-4.93,15.52-5.26,.63,2.8,1.27,5.59,1.9,8.39-4.24,2.85-8.02,5.12-11.08,6.87-5.56,3.18-8.99,4.74-11.43,3.6-1.75-.82-3.13-2.35-3.13-2.35-.76-.85-1.25-1.67-1.55-2.27Z"/>
    <path class="cls-34" d="M403.12,273.54c-2.13,4.07-4.61,9.91-5.91,17.26-2,11.26-.28,20.6,1.15,25.98-.25,5.65-.18,12.19,.58,19.41,.9,8.53,2.54,15.98,4.31,22.15-5.8,8.72-5.79,12.69-4.44,14.67,2.39,3.5,9.63,1.71,11.11,5.33,1.09,2.67-2.32,4.95-1.56,7.78,.56,2.09,3.43,4.6,14.71,5.62-.07,.2-.28,.87,0,1.66,.23,.66,.68,1.03,.87,1.16,1.05,2.13,2.09,4.26,3.14,6.39,2.19,.14,4.38,.28,6.56,.42,.21,.56,.83,1.96,2.34,3.05,1.5,1.09,3.03,1.24,3.62,1.27,3.09-.6,5.6-1.43,7.44-2.15,2.44-.96,7.02-2.81,11.45-6.95,.63-.59,1.13-1.1,1.47-1.47,.08-1.23,.07-2.77-.2-4.5-.2-1.34-.51-2.52-.84-3.5,.27-.45,.64-1.14,.96-2.03,.52-1.48,.61-2.75,.71-4.3,.04-.63,.07-1.44,.05-2.4,6.19-5.07,7.04-8.38,6.61-10.48-.81-3.96-6.4-4.88-6.44-8.44-.04-3.38,4.95-4.36,5.64-7.85,.5-2.52-1.23-6.44-10.75-12.59-.82-3.02-1.78-6.13-2.89-9.33-3.59-10.35-8.01-19.23-12.44-26.67-1.6-5.01-3.33-8.87-4.54-11.37,0,0-.43-.89-.91-1.79-2.43-4.67-13.3-18.38-28.75-36.13"/>
    <path class="cls-32" d="M423.07,393.38c2.74-2.86,6.84-6.46,12.5-9.44,10.33-5.43,20.09-5.77,25.07-5.58,.1,1.12,.12,2.68-.24,4.51s-.97,3.24-1.48,4.23c.48,1.45,.94,3.08,1.31,4.87,.26,1.24,.45,2.42,.59,3.52-2.96,2.12-6.35,4.32-10.18,6.46-3.37,1.88-6.59,3.45-9.58,4.75-.44,.07-3.02,.41-5.28-1.38-1.85-1.46-2.33-3.42-2.44-3.98-2.09-.14-4.18-.28-6.27-.42-1.33-2.52-2.67-5.03-4-7.55Z"/>
    <path class="cls-15" d="M428.59,399.44c2.29-2.44,5.93-5.74,11.11-8.44,7.04-3.67,13.55-4.49,17.33-4.67"/>
    <g>
      <path class="cls-16" d="M403.25,358.33c.33-.42,.69-.88,1.1-1.37"/>
      <path class="cls-7" d="M408.27,352.76c3.45-3.28,8.24-6.86,14.54-9.4,2.88-1.16,5.61-1.91,8.09-2.4"/>
      <path class="cls-16" d="M433.73,340.49c.61-.08,1.19-.15,1.75-.2"/>
    </g>
    <path class="cls-17" d="M461.96,361.98c-2.81-.45-6.36-.71-10.41-.24-9.64,1.11-16.5,5.68-19.85,8.3"/>
  </g>
  <path class="cls-15" d="M436.59,400.55c2.2-1.74,5.3-3.83,9.33-5.56,4.71-2.02,8.96-2.8,12-3.11"/>
  <path class="cls-34" d="M211.82,255.97c-2.7,1.53-5.6,3.38-8.6,5.61-5.05,3.76-9.06,7.65-12.18,11.13-2.88,1.25-7.01,3.21-11.74,6.05-5.02,3.02-10.86,6.59-16.74,12.89-2.26,2.43-5.3,6.09-8.22,11.11-1.85,1.48-4.64,3.91-7.56,7.33-3.9,4.58-10.91,13.09-9.82,22.55,.11,.92,.26,1.67,.45,2.31,.7,2.47,1.25,3.13,1.44,4.19,.41,2.22-1.61,3.25-3.7,7.02-1.29,2.32-3.61,6.48-2.07,8.89,.98,1.54,3.33,1.82,6.81,2.24,3.92,.47,4.9-.26,5.99,.67,2.26,1.92-.46,6.29,1.27,8.65,1.21,1.65,4.82,2.59,15.66-1,.26,.11,.68,.26,1.21,.26,.93,0,1.58-.44,1.82-.62,2.02-.47,4.04-.93,6.06-1.4,1.28,.52,2.55,1.04,3.83,1.55,2.12-1.36,5.49-3.9,8.38-8.12,2.48-3.62,3.65-7.08,4.23-9.38-.85-1.01-1.7-2.02-2.54-3.03,.85-1.83,1.7-3.65,2.54-5.48,2-2.07,4.75-5.44,6.88-10.19,2.57-5.73,3.06-10.9,3.11-14,1.59-3.03,3.19-6.44,4.67-10.22,2.3-5.9,3.81-11.39,4.8-16.19"/>
  <path class="cls-32" d="M162.81,365.61c-.21-1.36-1.51-10.77,5.23-18.56,7.8-9.02,19.37-7.78,20.3-7.66-.85,1.83-1.7,3.65-2.54,5.48,.85,1.01,1.7,2.02,2.54,3.03-.58,2.3-1.75,5.76-4.23,9.38-2.89,4.21-6.26,6.75-8.38,8.12-.96-.39-1.92-.78-2.88-1.17-3.35,.46-6.7,.91-10.04,1.37Z"/>
  <path class="cls-15" d="M174.12,362.46c.33-1.73,1.25-5.2,4-8.59,2.97-3.67,6.5-5.29,8.15-5.93"/>
  <path class="cls-15" d="M167.97,362.53c.33-2.14,1.15-5.43,3.34-8.81,4.22-6.52,10.61-8.82,12.74-9.48"/>
  <path class="cls-17" d="M146.69,359.24c.39-2.96,1.31-7.06,3.58-11.45,4.25-8.25,10.69-12.65,13.93-14.52,6.15-3.55,11.97-4.48,15.41-4.74"/>
  <path class="cls-17" d="M138.84,340.29c1.23-2.59,3.06-5.7,5.8-8.8,.75-.84,2.16-2.2,3.26-3.26,1.56-1.5,2.9-2.71,3.85-3.56"/>
  <g>
    <g>
      <path class="cls-32" d="M254.56,402.45c-.94,2.95-1.94,5.79-2.97,8.52,1.73,1.1,4.18,2.39,7.29,3.32,3.85,1.15,7.21,1.28,9.5,1.2,1.35,.7,3.72,1.7,6.81,1.92,3.61,.26,6.44-.66,7.91-1.25,2.22,.58,4.95,1.1,8.11,1.28,2.49,.15,4.73,.06,6.64-.13,2.26,.4,5.04,.7,8.21,.63,2.56-.05,4.84-.34,6.76-.7,4.06,.79,9.26,1.42,15.29,1.25,5.59-.16,10.41-.96,14.23-1.87,2.64,.49,6.65,.9,11.4,.14,3.99-.63,7.18-1.87,9.4-2.94-3.13-13.45-6.27-26.9-9.4-40.35-2.65,.04-5.66,.23-8.94,.7-3.27,.47-6.2,1.12-8.74,1.83-3.77-.37-8.32-.51-13.44,0-3.35,.33-6.38,.89-9.04,1.52-1.46-.2-3.26-.33-5.32-.22-2.22,.13-4.12,.51-5.61,.91-1.84-.81-4.26-1.68-7.18-2.22-2.33-.43-4.41-.54-6.13-.52-1.5-.44-3.25-.82-5.22-1.04-3.97-.44-7.37-.05-9.85,.46-4.31-1-8.61-2-12.92-2.99-1.21,9.33-3.31,19.64-6.79,30.54Z"/>
      <path class="cls-15" d="M255.47,406.78c2.72,2.1,5.19,2.93,7.11,3.26,2.7,.46,3.29-.24,6.94,.14,4.13,.44,4.3,1.44,7.58,1.49,3.2,.05,3.25-.91,6.63-.93,3.15-.02,3.3,.8,7.59,1.21,3.33,.31,3.41-.17,7.16,.15,3.41,.29,3.77,.73,6.47,.91,3.26,.22,4.14-.33,7.72-.56,4.94-.33,4.92,.6,11.41,.66,4.07,.04,7.41-.29,9.91-.54,5.19-.51,4.9-.85,7.71-.92,5.32-.14,6.47,1.06,10.36,.62,1.83-.2,4.52-.8,7.7-2.67"/>
      <g class="cls-37">
        <g>
          <path class="cls-16" d="M269.07,411.94c.15-.56,.29-1.13,.44-1.71"/>
          <path class="cls-10" d="M270.71,405.01c.42-1.95,.81-3.98,1.17-6.09,.53-3.09,.94-6.07,1.26-8.89"/>
          <path class="cls-16" d="M273.42,387.37c.06-.59,.11-1.18,.16-1.75"/>
        </g>
      </g>
      <g class="cls-37">
        <g>
          <path class="cls-16" d="M283.11,414.28c.1-.58,.2-1.16,.31-1.73"/>
          <path class="cls-11" d="M284.21,407.84c.11-.67,.22-1.33,.33-2,1.06-6.54,1.97-12.96,2.76-19.24"/>
          <path class="cls-16" d="M287.6,384.23c.07-.58,.14-1.17,.21-1.75"/>
        </g>
      </g>
      <g class="cls-37">
        <g>
          <path class="cls-16" d="M297.85,415.43c.11-.57,.22-1.15,.33-1.73"/>
          <path class="cls-19" d="M298.98,409.1c.15-.99,.3-1.99,.44-3,.48-3.52,.83-6.9,1.06-10.13"/>
          <path class="cls-16" d="M300.63,393.63c.03-.59,.06-1.18,.09-1.76"/>
        </g>
      </g>
      <g class="cls-37">
        <g>
          <path class="cls-16" d="M342.34,414.75c-.12-.57-.24-1.15-.36-1.72"/>
          <path class="cls-21" d="M340.84,407.34c-.38-1.95-.74-3.93-1.1-5.93-.62-3.49-1.18-6.91-1.68-10.26"/>
          <path class="cls-16" d="M337.64,388.27c-.08-.58-.17-1.16-.25-1.74"/>
        </g>
      </g>
      <g class="cls-37">
        <g>
          <path class="cls-16" d="M312.82,415.37c0-.58-.01-1.17-.02-1.76"/>
          <path class="cls-16" d="M312.58,407.6c-.03-.59-.07-1.18-.11-1.76"/>
        </g>
      </g>
    </g>
    <path class="cls-34" d="M301.79,401.22c23.33,5.26,40.56,3.19,43.98,2.74,7.26-.95,13.54-2.54,18.66-4.18-.16-3.73-.32-7.47-.48-11.2,.74-1.05,1.96-3,2.68-5.66,1.46-5.42-.16-10.19-.59-11.56-6.84-21.71-5.14-45.25-8.52-67.76-1.78-11.86-4.06-28.69-6-49.33-1.99-2.57-5.2-6.15-9.92-9.4-2.65-1.82-8.62-5.93-16.18-6.79-4.58-.52-8.92,.26-21.76,6.12-6.62,3.03-15.5,7.41-25.74,13.45-2.88,21.76-9.29,49.81-23.89,79.68-5.44,11.12-11.28,21-17.08,29.68-.47,.56-1.22,1.63-1.5,3.13-.29,1.58,.09,2.83,.29,3.52,1.34,4.45,7.67,10.43,8.09,10.82v12.57c1.98,.7,5.27,1.72,9.43,2.25,12.48,1.6,18.76-2.96,29.85-2.8,6.62,.1,5.63,1.74,18.7,4.69Z"/>
    <path class="cls-32" d="M307.09,292.85c2.49,2.59,5.74,6.68,7.73,12.4,4.34,12.43,.83,27.01-2.79,27.42-3.21,.36-7.1-10.35-8.55-16.69-1.95-8.54-1.02-15.89-.06-20.43"/>
    <path class="cls-16" d="M300.62,390.52c3.78,.94,8.82,2,14.82,2.73,7.86,.96,13.54,.88,20.81,.79,12.19-.16,16.22-1.19,17.94-1.68,4.21-1.19,7.52-2.78,9.76-4"/>
    <path class="cls-16" d="M300.62,390.52c-5.42-1.94-15.9-5.29-22.2-4.06-.36,.07-4.07,.81-8.89,2-2.96,.73-3.02,.81-4.35,1.09-4.09,.85-7.33,.87-10.18,.88-2.93,0-6.75-.18-11.19-.91"/>
    <path class="cls-17" d="M359.43,395.61c-6.6,1.56-14.62,2.91-23.78,3.33-11.58,.53-21.6-.57-29.45-2.02-1.15-.21-4.84-1.57-10.09-2.98-7.91-2.13-10.8-2.42-12.73-2.52-.96-.05-4.44-.2-8.93,.44-5.37,.77-5.81,1.77-10.92,2.44-3.81,.5-6.86,.37-9.54,.26-3.48-.14-6.45-.53-8.75-.91"/>
    <path class="cls-30" d="M301.73,245.33c-.21,2.49-.18,6.77,1.96,11.28,1.17,2.46,3.03,6.37,6.62,7.34,2.9,.78,5.81-.68,9.48-3.31,4.42-3.17,11.03-8.81,17.48-18.5-4.15-1.24-7.8-1.8-10.63-2.06-4.06-.37-9.27-.8-15.5,.97-4.09,1.16-7.25,2.88-9.42,4.28Z"/>
    <path class="cls-32" d="M301.73,245.33c-1.34-.96-3.3-2.01-5.38-1.62-2.02,.38-2.18,1.76-5.15,3.48-3.26,1.89-4.89,1.29-6.28,3.13-.93,1.24-1.07,2.67-1.08,3.94-.13,9.29,3.18,16.04,3.18,16.04,8.57,17.44,12.85,26.16,15.41,26.67,4.81,.94,8.91-3.27,36.44-34.22,3.74-4.21,7.19-8.09,10.3-11.59,.21-.3,.52-.83,.66-1.55,.16-.79,.07-1.59-.14-2.11-.73-1.86-3.29-1.09-5.42-3.19-1.49-1.47-1.06-2.67-2.36-3.41-1.48-.83-3.48-.1-4.96,.67-.8,1.23-1.93,2.96-3.26,5.04-20.78,32.48-25.48,46.92-29.19,46.22-2.86-.54-5.05-10.08-2.77-47.49Z"/>
    <path class="cls-32" d="M301.67,246.42c0,7.76-.41,14.08-.82,18.55-.33,3.6-1.4,14.19,1.28,24.07,.36,1.32,1.03,3.51,2.38,3.78,1.9,.37,4.12-3.51,6.06-6.92,4.78-8.35,9.87-16.52,14.53-24.93,1.72-3.11,4.32-7.65,7.76-13.06-6.17,3.09-10.54,6.34-13.53,8.91-2.4,2.07-4.72,4.39-7.26,3.85-1.48-.31-2.39-1.45-4.3-4.3-1.67-2.49-3.79-5.83-6.1-9.96Z"/>
    <path class="cls-15" d="M303.39,257.79c2.56,2.82,4.17,5.23,5.19,6.96,.58,1,1.17,2.1,2.3,2.37,1.48,.35,2.91-.97,4.15-2,1.77-1.47,4.43-3.41,8.3-5.33"/>
    <path class="cls-15" d="M288.25,248.5c.05,3.09,.3,6.43,.85,9.95,2.27,14.57,8.64,25.66,13.77,32.75"/>
    <path class="cls-15" d="M308.23,289.78c5.96-6.51,14.02-15.33,19.97-21.84,5.05-5.53,12.96-14.19,18.01-19.72"/>
    <path class="cls-13" d="M301.73,245.33c-1.34-.96-3.3-2.01-5.38-1.62-2.02,.38-2.18,1.76-5.15,3.48-3.26,1.89-4.89,1.29-6.28,3.13-.93,1.24-1.07,2.67-1.08,3.94-.13,9.29,3.18,16.04,3.18,16.04,8.57,17.44,12.85,26.16,15.41,26.67,4.81,.94,8.91-3.27,36.44-34.22,3.74-4.21,7.19-8.09,10.3-11.59,.21-.3,.52-.83,.66-1.55,.16-.79,.07-1.59-.14-2.11-.73-1.86-3.29-1.09-5.42-3.19-1.49-1.47-1.06-2.67-2.36-3.41-1.48-.83-3.48-.1-4.96,.67-.8,1.23-1.93,2.96-3.26,5.04-20.78,32.48-25.48,46.92-29.19,46.22-2.86-.54-5.05-10.08-2.77-47.49Z"/>
    <path class="cls-15" d="M306.62,297.35c-.08,5.46,.29,12.12,1.75,19.5,.9,4.54,2.06,8.58,3.27,12.07"/>
    <path class="cls-32" d="M306.61,293.2c1.74,7.68-.07,13.44-.07,13.44-3.27,10.38-12.53,21.48-15.64,19.96-2.88-1.4,.42-13.17,1.55-17.18,0,0,2.19-7.82,9.48-16.44,.81-.95,2.17-2.44,3.28-2.11,.86,.26,1.22,1.51,1.41,2.34Z"/>
    <path class="cls-15" d="M304.04,296.47c-2.74,4.21-5.73,9.57-8.22,16.03-1.53,3.98-2.61,7.68-3.39,10.99"/>
    <path class="cls-29" d="M262.43,341.42c-1.42,4.04-3.89,9.62-8.23,15.42-3.85,5.15-7.92,8.8-11.11,11.25-.31,.5-.78,1.43-.67,2.56,.06,.62,.33,1.62,1.75,2.93,3.17,2.92,10.29,5.66,11.36,6.07"/>
    <path class="cls-29" d="M325.24,340.23c-.65,9.87,1.56,16.45,3.85,20.74,2.11,3.95,4.94,7.18,4.15,11.26-.68,3.5-3.7,5.9-6.22,7.41"/>
    <path class="cls-17" d="M268.06,373.12c5.27-2.23,9.58-2.66,12.44-2.67,2.86,0,5.01,.41,16.3,3.11,3.6,.86,6.72,1.62,9.19,2.22"/>
  </g>
  <g>
    <path class="cls-38" d="M140.44,209.97c2.77-.01,5.58-.04,8.42-.09,2.51-.04,4.99-.1,7.45-.17,.02,.76,.1,1.72,.37,2.8,.26,1.05,.62,1.92,.95,2.59-1.06,.7-3.99,2.44-8.12,2.4-4.08-.04-6.95-1.8-8-2.52-.02-.51-.06-1.06-.15-1.66-.2-1.33-.56-2.46-.93-3.35Z"/>
    <g>
      <g>
        <path class="cls-35" d="M91.82,166.11c1.37,11.3,3.2,14.34,4.7,16.18,1.38,1.7,3.29,3.39,4.7,6.79,1.56,3.78,.81,5.62,1.57,8.09,1.81,5.93,10.11,8.43,16.18,10.18,7.06,2.03,13.84,2.76,24.79,2.61,16.82-.22,25.22-.33,32.62-3.65,11.89-5.33,18.32-14.7,20.88-18.53,11.85-17.74,12.35-41.17,5.22-59.51-7.71-19.83-28.92-45.45-58.46-43.59-31.73,2-50.05,34.25-52.98,52.98-1.5,9.61,.02,22.19,.78,28.45Z"/>
        <path class="cls-40" d="M126.74,164.57c1.01,.97,2.54,2.7,3.63,5.32,2.04,4.91,2.15,12.08-1.5,16.44-2.35,2.82-5.34,3.35-8.53,3.91-1.68,.3-8.98,1.37-15.55-3.65-1.09-.83-3.05-2.36-4.74-5.21-2.12-3.57-2.59-7.13-2.71-8.96,3.12-3.9,6.22-5.74,8.16-6.65,4.54-2.12,8.81-1.99,14.38-1.82,2.88,.09,5.25,.37,6.85,.61Z"/>
        <path class="cls-40" d="M164.77,163.37c-.73,1.6-1.91,4.81-1.57,8.87,.12,1.42,.64,7.55,5.87,11.61,4.08,3.17,9.37,3.83,13.57,2.61,8.83-2.55,11.86-12.8,12.79-15.92,.98-3.3,1.17-6.17,1.17-8.09-3.9-1.12-9.73-2.3-16.84-1.98-6.28,.28-11.41,1.64-15,2.9Z"/>
        <path class="cls-31" d="M101.46,189.72c1.69-1.13,5.09-3.08,9.73-3.45,1.69-.13,10.22-.81,15.46,5.68,3.8,4.7,4.47,11.44,1.87,17.36-4.11-.63-7.52-1.43-10.07-2.11-.72-.19-5.04-1.37-9.7-3.65-1.09-.54-2.49-1.27-3.81-2.73-.55-.61-1.62-1.82-2.18-3.65-.46-1.52-.16-2.13-.56-4.44-.23-1.32-.54-2.37-.76-3.01Z"/>
        <g>
          <path class="cls-8" d="M104.92,191.36c.45-.22,.99-.46,1.61-.7"/>
          <path class="cls-9" d="M111.25,189.44c2.17-.33,5.11-.42,8.16,.94,1.11,.5,4.44,1.98,6.26,5.77,.81,1.69,1.09,3.34,1.12,4.77"/>
          <path class="cls-8" d="M126.59,203.35c-.15,.82-.34,1.42-.43,1.71"/>
        </g>
        <path class="cls-31" d="M174.22,207.16c-.88-.83-3.99-3.94-4.5-8.95-.04-.35-.63-7.43,4.89-12.14,4.86-4.14,11.84-4.23,16.64-1.37,2.51,1.5,3.99,3.54,4.77,4.87-1.78,2.63-4.32,5.83-7.85,8.97-5.14,4.57-10.3,7.16-13.95,8.63Z"/>
        <g>
          <path class="cls-8" d="M175.98,202.42c-.29-.33-.68-.8-1.06-1.41"/>
          <path class="cls-1" d="M173.62,196.71c-.11-3.79,2.36-6.6,2.59-6.85,2.74-3.03,6.42-3.25,7.57-3.26,1.71-.02,3.18,.38,4.37,.9"/>
          <path class="cls-8" d="M190.12,188.61c.71,.5,1.17,.94,1.36,1.12"/>
        </g>
        <path class="cls-26" d="M115.21,163.96c-1.57,.45-3.87,1.37-5.61,3.45-4.91,5.85-3.07,18.05,4.05,21.14,3.63,1.58,8.66,.79,11.75-2.22,2.85-2.78,3.13-6.41,3.28-8.37,.35-4.66-1.54-8.19-2.41-9.59-1.11-1.78-2.37-3.02-3.28-3.8-2.59-.2-5.18-.41-7.76-.61Z"/>
        <path class="cls-26" d="M171.34,161.53c-1.24,1.81-2.67,4.5-3.18,7.96-.3,2.01-.95,8.67,3.52,13.7,1.12,1.26,3.09,3.48,6.14,3.81,5.73,.63,9.8-6.01,10.05-6.42,3.46-5.84,1.18-12.23,.65-13.7-1.1-3.06-2.8-5.19-3.92-6.39-1.88-.05-3.93-.02-6.13,.13-2.61,.18-5,.51-7.13,.91Z"/>
        <path class="cls-3" d="M91.82,166.11c1.37,11.3,3.2,14.34,4.7,16.18,1.38,1.7,3.29,3.39,4.7,6.79,1.56,3.78,.81,5.62,1.57,8.09,1.81,5.93,10.11,8.43,16.18,10.18,7.06,2.03,13.84,2.76,24.79,2.61,16.82-.22,25.22-.33,32.62-3.65,11.89-5.33,18.32-14.7,20.88-18.53,11.85-17.74,12.35-41.17,5.22-59.51-7.71-19.83-28.92-45.45-58.46-43.59-31.73,2-50.05,34.25-52.98,52.98-1.5,9.61,.02,22.19,.78,28.45Z"/>
        <path class="cls-16" d="M148.67,199.56c-3.99,.14-7.33-7-7.35-6.99,0,0,.87,1.92,2.58,2.28,1.5,.32,3.01-.69,4.1-1.67,.91,1.25,2.43,1.9,3.95,1.67,2.29-.35,3.17-2.48,3.21-2.57"/>
        <path class="cls-27" d="M163.2,162.84c-.31-.68,4.27-3.59,7.05-4.96,4.12-2.02,12.67-4.76,27.27,0-.3,1.52-.61,3.04-.91,4.57-4.9-1.36-9.04-1.81-12.01-1.96-7.82-.38-14.52,1.01-15.27,1.17-3.56,.76-5.92,1.64-6.13,1.17Z"/>
        <path class="cls-27" d="M96.3,165.52c1.79-1.37,3.9-2.64,6.37-3.61,12.57-4.92,25.06,1.71,28.01,3.37-6.59-1.29-12.1-1.34-15.99-1.12-8.19,.46-11.41,2.25-12.88,3.2-2.17,1.4-3.66,3.02-4.6,4.2-.3-2.01-.6-4.03-.9-6.04Z"/>
        <path class="cls-8" d="M117.38,155.34c1.48,.03,3.37,.21,5.48,.78,1.45,.39,2.69,.89,3.72,1.37"/>
        <path class="cls-8" d="M165.77,155.34c1.06-.76,2.36-1.58,3.92-2.35,1.42-.7,2.75-1.2,3.92-1.57"/>
        <path class="cls-24" d="M125.59,177.96c-.04,.78-.16,2.63-1.49,4.33-1.34,1.7-3.14,2.29-4.1,2.6-.65,.21-1.35,.44-2.28,.41-1.85-.04-3.19-1.02-3.75-1.49,2.8-.77,4.43-3.41,4.01-5.64-.49-2.62-3.8-4.67-7.09-3.46,.17-.59,.47-1.41,1.04-2.29,.59-.91,1.26-1.53,1.74-1.91,.57-.42,2.02-1.35,4.05-1.4,2.7-.06,4.52,1.51,5.12,2.04,2.92,2.6,2.79,6.32,2.76,6.8Z"/>
        <path class="cls-24" d="M185.81,176.19c-.22,.74-.78,2.52-2.48,3.86-1.7,1.34-3.6,1.48-4.6,1.55-.68,.05-1.41,.11-2.32-.14-1.79-.48-2.86-1.75-3.29-2.33,2.91-.08,5.11-2.26,5.23-4.53,.15-2.66-2.58-5.43-6.07-5.04,.3-.53,.79-1.26,1.56-1.98,.79-.74,1.58-1.19,2.14-1.45,.66-.27,2.28-.83,4.26-.4,2.64,.58,4.03,2.54,4.49,3.19,2.22,3.22,1.21,6.8,1.08,7.26Z"/>
      </g>
      <path class="cls-23" d="M114.91,124.26c-.06,5.96,.7,14.66,4.98,23.8,3.58,7.62,9.72,15.81,11.78,14.89,.95-.43,1.73-3.13-2.22-17.33,5.16,10.17,10.84,17.22,15.11,21.78,4.06,4.34,5.75,5.25,7.11,4.89,3.97-1.06,4.37-12.68,4-23.11,2.59,7.02,4.6,7.3,5.23,7.28,3.61-.15,5.61-12.58,5.89-14.39,1.64,2.7,4.33,6.48,8.52,10.07,3.99,3.41,7.95,6.81,11.04,5.49,2.71-1.16,3.98-5.61,3.56-10.67,3.04,7.19,5.86,16.92,1.33,23.11-3.66,5.01-10.43,5.39-10.13,7.34,.34,2.2,9.31,4.34,15.24,.82,2.19-1.3,3.52-3.09,4-2.78,.47,.31-.61,4.13-3.33,7.22-4.94,5.61-12.32,5.48-12.22,6.56,.1,1.14,7.34,3.1,14.78,.67,9.44-3.09,13.93-11.56,14.6-11.07,.68,.49-3.22,9.75-11.82,19.24-15.13,16.71-32.32,20.36-31.5,22.93,.7,2.21,14.1,1.8,25.68-4.34,11.64-6.17,17.48-16.02,19.87-20.76-.8,3.26-2.19,7.8-4.72,12.84-3.94,7.83-7.99,11.58-7.56,12,.48,.46,13.91-10.72,21.33-21.78,19.35-28.83,17.56-86.17-20.5-117.42-23.48-19.28-57.37-25.85-86.11-15.03-53.99,20.34-72.5,95.62-50.87,127.85,6.72,10,20.7,20.92,20.82,20.81,.07-.07-3.19-2.99-6.34-7.99-1.74-2.77-2.91-5.31-3.69-7.28,1.35,1.78,3.39,4.19,6.24,6.61,7.59,6.45,17.32,9.95,18.23,8.53,.64-1-3.28-4.09-7.12-8.09-5.78-6.01-12.62-15.34-17.63-30.02,9.98,5.68,12.51,6.32,12.89,5.78,.41-.58-1.8-2.38-4.59-6.67-2.47-3.79-3.83-7.33-4.59-9.78,.98,2.54,2.8,6.06,6.22,9.04,9.51,8.25,23.89,5.7,24.15,4.1,.21-1.3-9.04-1.48-13.33-8.44-2.23-3.62-2.23-7.63-1.99-10.13,3.09-2.29,7.3-6.02,10.87-11.65,6.49-10.22,6.89-20.44,6.79-24.91Z"/>
      <g>
        <g>
          <path class="cls-15" d="M190.29,147.11c-.12-.56-.26-1.13-.4-1.71"/>
          <path class="cls-4" d="M188.35,139.87c-1.08-3.44-2.48-7.18-4.3-11.1-2.18-4.67-4.54-8.7-6.82-12.1"/>
          <path class="cls-15" d="M175.59,114.3c-.35-.49-.7-.96-1.04-1.42"/>
        </g>
        <g>
          <path class="cls-15" d="M200.34,175.45c.37-.33,.81-.73,1.27-1.22"/>
          <path class="cls-5" d="M204.67,170.07c.19-.34,.38-.7,.55-1.07,.78-1.62,1.26-3.18,1.56-4.57"/>
          <path class="cls-15" d="M207.16,161.87c.06-.68,.07-1.27,.07-1.76"/>
        </g>
        <path class="cls-18" d="M213.27,178.25c.75-2.44,1.39-5.27,1.72-8.44,1.07-10.48-1.94-19.01-4.15-23.85"/>
        <path class="cls-18" d="M129.45,145.62c-.95-2.42-1.96-5.63-2.52-9.48-.56-3.84-.51-7.19-.3-9.78"/>
        <path class="cls-18" d="M155.67,149.17c-.49-4.05-.99-8.1-1.48-12.15"/>
        <path class="cls-18" d="M97.24,160.82c.19-3.38,.75-7.58,2.13-12.24,.88-2.94,1.92-5.52,2.96-7.7"/>
        <path class="cls-18" d="M82.5,167.01c-.86-4.7-1.46-11.7,.34-19.77,3.98-17.82,16.82-27.88,20.89-30.81"/>
        <path class="cls-18" d="M154.79,107.6c1.29,1.11,2.7,2.5,4.04,4.23,3.59,4.62,5.01,9.39,5.63,12.44"/>
        <path class="cls-18" d="M69.65,173.17c.41,3.55,1.19,7.79,2.67,12.44,1.87,5.9,4.28,10.68,6.44,14.27"/>
      </g>
    </g>
    <path class="cls-22" d="M139.98,209.97c.51,.76,1.11,1.9,1.39,3.36,.11,.61,.15,1.17,.15,1.66"/>
    <path class="cls-22" d="M156.31,209.71c.02,.76,.1,1.72,.37,2.8,.26,1.05,.62,1.92,.95,2.59"/>
  </g>
  <path class="cls-29" d="M220.47,161.91c.56,2.32,1.04,5.11,1.19,8.3,.24,5.46-.59,10.04-1.48,13.33,1.2-.69,3.42-2.19,5.22-4.93,1.86-2.82,2.33-5.55,2.48-6.93,.32-3.39,.47-7.39,.19-11.85-.29-4.67-.99-8.78-1.78-12.22-.9,2.92-1.44,5.31-1.78,7-.41,2.06-.64,3.74-1.95,5.42-.72,.92-1.51,1.51-2.08,1.88Z"/>
  <g>
    <path class="cls-29" d="M102.48,95.67c5.89-4.55,15.25-11.62,29.33-14.44,22.52-4.51,40.56,5.14,46.28,8.32,12.26,6.8,19.58,15.56,22.83,19.91,6.89,9.21,10.16,18.19,11.78,24,.05-2.45,.45-6.15,2.22-10.22,.96-2.2,2.09-3.97,3.11-5.33-1.77-4.29-4.6-10.19-9.07-16.55-4.57-6.5-17.98-25.6-43.38-32.12-2.22-.57-21.15-5.17-41.56,2-6.53,2.29-12,5.37-14.87,7-4.58,2.6-13.07,7.5-21.8,16.33-8.49,8.61-13.94,17.63-17.42,24.98,1.04-.02,2.47,.08,4.08,.57,2.62,.8,4.4,2.23,5.33,3.11,3.54-6.69,10.54-17.84,23.11-27.56Z"/>
    <path class="cls-18" d="M78.03,115.23c3.58-5.21,9.05-12.23,16.89-19.33,7.01-6.35,16.1-14.59,30-19.11,19.36-6.3,36.3-1.57,40.89-.22,29.14,8.55,42.52,33.21,45.11,38.22"/>
  </g>
  <g>
    <path class="cls-34" d="M183.41,80.36c.62-3.59,1.58-8.88,2.91-15.28,3.51-16.99,5.27-21.06,7.45-24.48,2.99-4.68,5.8-9.08,11.18-11.18,11.24-4.38,23.66,5.21,25.75,6.9,7.44,5.98,4.61,8.64,14.16,18.11,7.33,7.27,12.84,12.74,20.22,13.84,.47,.07,5.27,.76,10.64,3.46,2.63,1.32,3.66,2.25,4.26,3.46,1.64,3.33-.7,7.41-1.33,8.51-2.58,4.5-6.82,6.35-11.18,8.25-3.18,1.39-8.05,3.51-14.63,3.46-1.81-.02-7.36-.23-15.97-4.52-11.23-5.61-18.89-13.8-23.68-20.22-2.75,3.87-5.5,7.77-8.25,11.71-2,2.87-3.99,5.73-5.97,8.58-.95,.61-2.83,1.63-5.38,1.81-.83,.06-4.82,.24-7.56-2.26-3.96-3.61-2.69-9.88-2.63-10.15Z"/>
    <path class="cls-28" d="M213.19,70.66c-2.19-3.53-4.79-7.33-7.89-11.27-2.72-3.45-5.42-6.51-8-9.19"/>
    <path class="cls-39" d="M197.4,52.29c-.98,3.66-2.4,9.05-4.06,15.58-4.5,17.69-5.02,21.1-3.89,21.67,1.49,.74,5.24-3.84,10.56-10.33,4.08-4.99,7.13-9.33,9.11-12.3-1.82-2.39-3.71-4.81-5.67-7.26-2.03-2.53-4.05-4.99-6.05-7.36Z"/>
    <g>
      <path class="cls-15" d="M201.44,44.58c.34,.4,.72,.85,1.13,1.34"/>
      <path class="cls-6" d="M205.94,49.91c2.55,3.04,5.77,6.87,9.43,11.26,10.55,12.65,12.79,15.51,17.78,18.96,4.62,3.19,12.14,8.4,22.22,7.7,4.18-.29,7.71-1.52,10.44-2.85"/>
      <path class="cls-15" d="M268.11,83.74c.55-.33,1.05-.65,1.49-.94"/>
    </g>
  </g>
  <g>
    <path class="cls-34" d="M107.57,80.2c-1.9-3.98-6.18-11.5-14.67-17.56-2.46-1.76-9.96-6.73-20.67-8-4.79-.57-9.75-1.15-14.44,1.56-3.86,2.23-5.16,5.32-8.36,11.22,0,0-5.55,10.26-14.53,23.22-7.07,10.21-10.6,15.31-13.33,17.11-.78,.51-4.69,3.03-6.89,7.56-.83,1.71-1.13,3.11-1.11,4.44,0,.81,.16,3.89,2.44,6,1.3,1.2,2.93,1.76,5.33,2,6.13,.6,11.39-1.52,13.56-2.44,4.49-1.92,10.53-4.49,16.89-10,13.16-11.4,17.97-26.93,19.56-33.11,5.71,1.36,11.96,3.4,18.44,6.44,1.38,.65,2.71,1.32,4,2,.58,.24,4.6,1.85,8.58-.25,3.53-1.87,5.6-5.9,5.2-10.19Z"/>
    <path class="cls-28" d="M71.35,82.2c.76-2.76,2.24-6.57,5.25-10.26,.94-1.15,1.89-2.13,2.81-2.96"/>
    <path class="cls-39" d="M80.18,69.87c3.33,.79,8.2,2.32,13.39,5.5,5.12,3.13,11.85,8.65,10.91,10.5-1.02,1.99-10.59-.89-17.48-2.96-5.6-1.68-10.09-3.43-13.06-4.67,.63-1.31,1.51-2.88,2.73-4.52,1.21-1.62,2.44-2.89,3.51-3.85Z"/>
    <path class="cls-18" d="M75.26,65.05c-2,2.16-4.83,5.63-7.11,10.44-2.91,6.15-2.15,8.65-4.22,14.67-3.49,10.14-10.27,16.49-12.89,18.89-6.13,5.61-12.02,8.14-15.33,9.56-1.67,.71-4.44,1.36-10,2.67-1.84,.43-3.93,.89-5.78-.22-1.05-.63-1.66-1.55-2-2.22"/>
  </g>
</svg>