<?xml version="1.0" encoding="UTF-8"?>
<svg id="CharacterSide" xmlns="http://www.w3.org/2000/svg" viewBox="0 0 640 640">
  <defs>
    <style>
      .cls-1, .cls-2, .cls-3, .cls-4, .cls-5, .cls-6, .cls-7, .cls-8, .cls-9, .cls-10, .cls-11, .cls-12, .cls-13, .cls-14, .cls-15, .cls-16, .cls-17, .cls-18, .cls-19, .cls-20, .cls-21, .cls-22, .cls-23, .cls-24 {
        stroke: #000;
      }

      .cls-1, .cls-25, .cls-4, .cls-26, .cls-5, .cls-27, .cls-6, .cls-28, .cls-7, .cls-9, .cls-10, .cls-12, .cls-29, .cls-13, .cls-14, .cls-15, .cls-30, .cls-31, .cls-32, .cls-16, .cls-17, .cls-18, .cls-20, .cls-21, .cls-23, .cls-24, .cls-33 {
        stroke-linecap: round;
        stroke-linejoin: round;
      }

      .cls-1, .cls-28, .cls-34, .cls-32, .cls-16, .cls-19, .cls-33 {
        stroke-width: 2px;
      }

      .cls-1, .cls-17, .cls-19 {
        fill: #f4f3e7;
      }

      .cls-2, .cls-25, .cls-26, .cls-27, .cls-6, .cls-28, .cls-9, .cls-12, .cls-29, .cls-14, .cls-15, .cls-30, .cls-31, .cls-32, .cls-18, .cls-20, .cls-21, .cls-24, .cls-33 {
        fill: none;
      }

      .cls-2, .cls-3, .cls-8, .cls-11, .cls-34, .cls-19, .cls-22 {
        stroke-miterlimit: 10;
      }

      .cls-2, .cls-3, .cls-24 {
        stroke-width: 2.64px;
      }

      .cls-25 {
        stroke-dasharray: 0 0 3.82 5.74;
      }

      .cls-25, .cls-4, .cls-26, .cls-27, .cls-6, .cls-8, .cls-9, .cls-10, .cls-11, .cls-12, .cls-29, .cls-13, .cls-14, .cls-15, .cls-30, .cls-31, .cls-17, .cls-18, .cls-20, .cls-21, .cls-23 {
        stroke-width: 2.5px;
      }

      .cls-25, .cls-26, .cls-27, .cls-29, .cls-30, .cls-31 {
        stroke: #7a94dd;
      }

      .cls-3, .cls-7, .cls-11 {
        fill: #f5e3d9;
      }

      .cls-35 {
        opacity: .5;
      }

      .cls-4 {
        fill: #cfe1f9;
      }

      .cls-26 {
        stroke-dasharray: 0 0 3.45 5.18;
      }

      .cls-5, .cls-8, .cls-22, .cls-23 {
        fill: #fef495;
      }

      .cls-27 {
        stroke-dasharray: 0 0 3.48 5.22;
      }

      .cls-6 {
        stroke-dasharray: 0 0 3.83 5.74;
      }

      .cls-28, .cls-34, .cls-32, .cls-33 {
        stroke: #bc695c;
      }

      .cls-36 {
        fill: #ddc7bc;
      }

      .cls-7 {
        stroke-width: 2.64px;
      }

      .cls-9 {
        stroke-dasharray: 0 0 3.16 4.74;
      }

      .cls-10 {
        fill: #0d141e;
      }

      .cls-12 {
        stroke-dasharray: 0 0 3.54 5.31;
      }

      .cls-13 {
        fill: #66a1e2;
      }

      .cls-37 {
        fill: #7a94dd;
      }

      .cls-38 {
        fill: #efe8e6;
      }

      .cls-15, .cls-30, .cls-33 {
        stroke-dasharray: 0 0 3.52 5.29;
      }

      .cls-34 {
        fill: #f1a791;
      }

      .cls-31 {
        stroke-dasharray: 0 0 3.35 5.03;
      }

      .cls-32 {
        stroke-dasharray: 0 0 3.3 4.4;
      }

      .cls-16 {
        fill: #3f3f3f;
      }

      .cls-18 {
        stroke-dasharray: 0 0 3.1 4.64;
      }

      .cls-20 {
        stroke-dasharray: 0 0 3.56 5.34;
      }

      .cls-21 {
        stroke-dasharray: 0 0 3.83 5.75;
      }

      .cls-22 {
        stroke-width: 3px;
      }
    </style>
  </defs>
  <path class="cls-36" d="M302.48,217.51l8.46-2.81c2.86,1.72,5.72,3.44,8.59,5.15,.02,.76,.1,1.72,.37,2.8,.26,1.05,.62,1.92,.95,2.59-1.06,.7-3.99,2.44-8.12,2.4-4.08-.04-6.95-1.8-8-2.52-.02-.52-.07-1.08-.15-1.66-.36-2.49-1.26-4.5-2.11-5.96Z"/>
  <path class="cls-24" d="M301.9,217.64c1.59,2.96,2.58,5.23,2.69,5.83,.06,.29,.09,.58,.09,.58,.05,.44,.06,.82,.06,1.08"/>
  <path class="cls-24" d="M319.53,219.86c.02,.76,.1,1.72,.37,2.8,.26,1.05,.62,1.92,.95,2.59"/>
  <g>
    <path class="cls-4" d="M121.17,53.72c-3.93,8.8-8.86,23.71-4.19,39.24,.28,.93,.61,1.94,1.09,3.1,7.76,18.64,26.99,30.71,36.31,36.64,24.68,15.71,37.59,23.93,48.52,38,6.96,8.96,19.74,25.41,17.46,46.45-2.34,21.5-20.21,46.11-46.47,48.05-21.9,1.62-41.35-13.14-48.32-29.03-4.37-9.97-4.44-21.12-2.22-21.85,3.85-1.26,9.41,30.34,30.41,37.23,10.54,3.46,25.91,.53,32.82-8.73,16.27-21.78-8.22-86.86-46.22-111.53-7.19-4.67-28.37-16.69-41.28-41.53-1.62-3.12-2.77-5.79-3.48-7.55,3.86-2,9.65-5.58,15.17-11.67,5.75-6.33,8.79-12.7,10.39-16.82Z"/>
    <path class="cls-30" d="M178.38,156.07c5.59,4.44,20.96,17.87,27.13,41.19,4.52,17.1,1.97,31.52,.19,38.66"/>
  </g>
  <g>
    <g>
      <path class="cls-28" d="M188.08,470.47c.31,.4,.62,.71,.91,.96"/>
      <path class="cls-32" d="M193.04,471.73c1.23-.78,2.41-2.28,3.24-4.34"/>
      <path class="cls-28" d="M196.96,465.28c.1-.42,.19-.85,.27-1.29"/>
    </g>
    <g>
      <path class="cls-22" d="M172.56,525.78c-.7,.44-2.34,1.45-3.76,.84-1.18-.5-1.62-1.84-1.81-2.39-.6-1.83-.07-3.54,.8-6.22,.46-1.41,.71-2.17,1.23-3.15,1.25-2.35,4.09-6.03,5.93-5.45,1.56,.49,1.85,3.87,2.07,6.48,.14,1.65,.24,2.79-.16,4.27-.1,.37-1.14,3.62-4.29,5.62Z"/>
      <path class="cls-4" d="M189.12,552.99c1.41-.09,8.15-.31,26.2-.78,.48-.05,2.68-.33,4-2.16,.85-1.17,.94-2.43,1-3.17,.12-1.59-.32-2.81-.56-3.44-.14-.38-.53-1.42-1.28-2.33-1.82-2.24-4.76-2.55-5.56-2.61-10.01,.05-20.02,.1-30.04,.15-.17,4.77-.35,9.53-.52,14.3,1.15,.09,2.39,.15,3.71,.15,1.59,0,2.82-.08,3.04-.1Z"/>
      <path class="cls-4" d="M190.33,545.93c.75-7.55-.39-13.47-.97-16.03-1.07-4.67-2.68-8.55-4.23-11.57-1.54-.42-3.83-.86-6.58-.68-9.03,.58-14.59,7.24-15.41,8.25-7.39,9.13-4.17,20.58-3.85,21.63,4.59,1.95,10.76,4,18.24,4.96,4.31,.55,8.22,.64,11.6,.5"/>
      <g>
        <path class="cls-29" d="M163.47,543.18c-.12-.41-.27-1-.4-1.71"/>
        <path class="cls-31" d="M162.93,536.45c.15-1.18,.44-2.44,.94-3.73,2.27-5.8,7.27-8.25,8.89-9.04,1.97-.96,3.86-1.47,5.51-1.72"/>
        <path class="cls-29" d="M180.78,521.73c.69-.02,1.29,0,1.76,.03"/>
      </g>
      <path class="cls-11" d="M187.29,429.77c-3.67,17.03-3.2,30.3-2.1,39.25,.69,5.6,2.35,14.9,3.85,22.81,2.61,13.69,4.3,20.18,2.96,29.63-.6,4.21-1.59,7.6-2.36,9.83,.23,1.58,.46,3.16,.69,4.74,.07,2.01,.15,4.02,.22,6.03,3.69,.29,6.81,.4,9.15,.44,5.99,.11,7.59-.22,8.89-1.33,1.9-1.63,2.25-4.21,2.37-5.04,.39-2.73-.48-4.92-.74-5.63-1.68-4.54-.54-8.23-.01-22.21,.16-4.21,.35-6.18,.39-8.76,.05-3.89-.19-6.75-.23-7.25-.28-4.32,.4-19.71,3.78-62.67-2.42-5.59-8.01-9.13-14-8.89-5.63,.23-10.66,3.77-12.86,9.05Z"/>
      <path class="cls-30" d="M194.15,546.28c6.59-.11,13.19-.22,19.78-.33"/>
      <g>
        <path class="cls-28" d="M187.86,469.96c.31,.4,.62,.71,.91,.96"/>
        <path class="cls-32" d="M192.81,471.21c1.23-.78,2.41-2.28,3.24-4.34"/>
        <path class="cls-28" d="M196.73,464.76c.1-.42,.19-.85,.27-1.29"/>
      </g>
      <path class="cls-22" d="M180.47,526.16c-.14,.82-.45,2.72,.66,3.8,.92,.9,2.32,.8,2.9,.76,1.92-.14,3.3-1.28,5.44-3.11,1.13-.96,1.74-1.48,2.44-2.33,1.7-2.05,4.02-6.08,2.78-7.56-1.05-1.25-4.28-.23-6.78,.56-1.58,.5-2.67,.84-3.89,1.78-.31,.24-2.92,2.43-3.56,6.11Z"/>
    </g>
  </g>
  <g>
    <g>
      <path class="cls-28" d="M91.67,470.47c.31,.4,.62,.71,.91,.96"/>
      <path class="cls-32" d="M96.63,471.73c1.23-.78,2.41-2.28,3.24-4.34"/>
      <path class="cls-28" d="M100.55,465.28c.1-.42,.19-.85,.27-1.29"/>
    </g>
    <g>
      <path class="cls-22" d="M76.15,525.78c-.7,.44-2.34,1.45-3.76,.84-1.18-.5-1.62-1.84-1.81-2.39-.6-1.83-.07-3.54,.8-6.22,.46-1.41,.71-2.17,1.23-3.15,1.25-2.35,4.09-6.03,5.93-5.45,1.56,.49,1.85,3.87,2.07,6.48,.14,1.65,.24,2.79-.16,4.27-.1,.37-1.14,3.62-4.29,5.62Z"/>
      <path class="cls-4" d="M92.71,552.99c1.41-.09,8.15-.31,26.2-.78,.48-.05,2.68-.33,4-2.16,.85-1.17,.94-2.43,1-3.17,.12-1.59-.32-2.81-.56-3.44-.14-.38-.53-1.42-1.28-2.33-1.82-2.24-4.76-2.55-5.56-2.61-10.01,.05-20.02,.1-30.04,.15-.17,4.77-.35,9.53-.52,14.3,1.15,.09,2.39,.15,3.71,.15,1.59,0,2.82-.08,3.04-.1Z"/>
      <path class="cls-4" d="M93.92,545.93c.75-7.55-.39-13.47-.97-16.03-1.07-4.67-2.68-8.55-4.23-11.57-1.54-.42-3.83-.86-6.58-.68-9.03,.58-14.59,7.24-15.41,8.25-7.39,9.13-4.17,20.58-3.85,21.63,4.59,1.95,10.76,4,18.24,4.96,4.31,.55,8.22,.64,11.6,.5"/>
      <g>
        <path class="cls-29" d="M67.06,543.18c-.12-.41-.27-1-.4-1.71"/>
        <path class="cls-31" d="M66.52,536.45c.15-1.18,.44-2.44,.94-3.73,2.27-5.8,7.27-8.25,8.89-9.04,1.97-.96,3.86-1.47,5.51-1.72"/>
        <path class="cls-29" d="M84.37,521.73c.69-.02,1.29,0,1.76,.03"/>
      </g>
      <path class="cls-11" d="M90.88,429.77c-3.67,17.03-3.2,30.3-2.1,39.25,.69,5.6,2.35,14.9,3.85,22.81,2.61,13.69,4.3,20.18,2.96,29.63-.6,4.21-1.59,7.6-2.36,9.83,.23,1.58,.46,3.16,.69,4.74,.07,2.01,.15,4.02,.22,6.03,3.69,.29,6.81,.4,9.15,.44,5.99,.11,7.59-.22,8.89-1.33,1.9-1.63,2.25-4.21,2.37-5.04,.39-2.73-.48-4.92-.74-5.63-1.68-4.54-.54-8.23-.01-22.21,.16-4.21,.35-6.18,.39-8.76,.05-3.89-.19-6.75-.23-7.25-.28-4.32,.4-19.71,3.78-62.67-2.42-5.59-8.01-9.13-14-8.89-5.63,.23-10.66,3.77-12.86,9.05Z"/>
      <path class="cls-30" d="M97.74,546.28c6.59-.11,13.19-.22,19.78-.33"/>
      <g>
        <path class="cls-28" d="M91.45,469.96c.31,.4,.62,.71,.91,.96"/>
        <path class="cls-32" d="M96.4,471.21c1.23-.78,2.41-2.28,3.24-4.34"/>
        <path class="cls-28" d="M100.32,464.76c.1-.42,.19-.85,.27-1.29"/>
      </g>
      <path class="cls-22" d="M84.06,526.16c-.14,.82-.45,2.72,.66,3.8,.92,.9,2.32,.8,2.9,.76,1.92-.14,3.3-1.28,5.44-3.11,1.13-.96,1.74-1.48,2.44-2.33,1.7-2.05,4.02-6.08,2.78-7.56-1.05-1.25-4.28-.23-6.78,.56-1.58,.5-2.67,.84-3.89,1.78-.31,.24-2.92,2.43-3.56,6.11Z"/>
    </g>
  </g>
  <path class="cls-7" d="M304.72,224.92c0,.45-.04,1.25-.48,2.11-.22,.43-.48,.76-.7,1-.45,.48-.89,.98-1.33,1.5-3.87,4.53-6.56,9.31-8.45,13.84,2.2-3.39,6.4-8.89,13.44-13.44,5.57-3.6,10.85-5.28,14.44-6.11"/>
  <g>
    <g>
      <path class="cls-10" d="M458.37,426.99c1.81-2.43,4.94-5.98,9.77-8.99,6.25-3.9,12.24-4.93,15.52-5.26,.63,2.8,1.27,5.59,1.9,8.39-4.24,2.85-8.02,5.12-11.08,6.87-5.56,3.18-8.99,4.74-11.43,3.6-1.75-.82-3.13-2.35-3.13-2.35-.76-.85-1.25-1.67-1.55-2.27Z"/>
      <path class="cls-8" d="M428.16,299.18c-2.13,4.07-4.61,9.91-5.91,17.26-2,11.26-.28,20.6,1.15,25.98-.25,5.65-.18,12.19,.58,19.41,.9,8.53,2.54,15.98,4.31,22.15-5.8,8.72-5.79,12.69-4.44,14.67,2.39,3.5,9.63,1.71,11.11,5.33,1.09,2.67-2.32,4.95-1.56,7.78,.56,2.09,3.43,4.6,14.71,5.62-.07,.2-.28,.87,0,1.66,.23,.66,.68,1.03,.87,1.16,1.05,2.13,2.09,4.26,3.14,6.39,2.19,.14,4.38,.28,6.56,.42,.21,.56,.83,1.96,2.34,3.05,1.5,1.09,3.03,1.24,3.62,1.27,3.09-.6,5.6-1.43,7.44-2.15,2.44-.96,7.02-2.81,11.45-6.95,.63-.59,1.13-1.1,1.47-1.47,.08-1.23,.07-2.77-.2-4.5-.2-1.34-.51-2.52-.84-3.5,.27-.45,.64-1.14,.96-2.03,.52-1.48,.61-2.75,.71-4.3,.04-.63,.07-1.44,.05-2.4,6.19-5.07,7.04-8.38,6.61-10.48-.81-3.96-6.4-4.88-6.44-8.44-.04-3.38,4.95-4.36,5.64-7.85,.5-2.52-1.23-6.44-10.75-12.59-.82-3.02-1.78-6.13-2.89-9.33-3.59-10.35-8.01-19.23-12.44-26.67-1.6-5.01-3.33-8.87-4.54-11.37,0,0-.43-.89-.91-1.79-2.66-5.1-9.99-13.63-9.99-13.63-1.68-1.96-3.86-4.46-6.47-7.33"/>
      <path class="cls-19" d="M448.1,419.02c2.74-2.86,6.84-6.46,12.5-9.44,10.33-5.43,20.09-5.77,25.07-5.58,.1,1.12,.12,2.68-.24,4.51s-.97,3.24-1.48,4.23c.48,1.45,.94,3.08,1.31,4.87,.26,1.24,.45,2.42,.59,3.52-2.96,2.12-6.35,4.32-10.18,6.46-3.37,1.88-6.59,3.45-9.58,4.75-.44,.07-3.02,.41-5.28-1.38-1.85-1.46-2.33-3.42-2.44-3.98-2.09-.14-4.18-.28-6.27-.42-1.33-2.52-2.67-5.03-4-7.55Z"/>
      <path class="cls-29" d="M453.62,425.08c2.29-2.44,5.93-5.74,11.11-8.44,7.04-3.67,13.55-4.49,17.33-4.67"/>
      <g>
        <path class="cls-14" d="M428.29,383.97c.33-.42,.69-.88,1.1-1.37"/>
        <path class="cls-6" d="M433.31,378.4c3.45-3.28,8.24-6.86,14.54-9.4,2.88-1.16,5.61-1.91,8.09-2.4"/>
        <path class="cls-14" d="M458.77,366.13c.61-.08,1.19-.15,1.75-.2"/>
      </g>
      <path class="cls-15" d="M487,387.62c-2.81-.45-6.36-.71-10.41-.24-9.64,1.11-16.5,5.68-19.85,8.3"/>
    </g>
    <path class="cls-29" d="M461.62,426.19c2.2-1.74,5.3-3.83,9.33-5.56,4.71-2.02,8.96-2.8,12-3.11"/>
  </g>
  <g>
    <g>
      <path class="cls-10" d="M551.21,426.99c1.81-2.43,4.94-5.98,9.77-8.99,6.25-3.9,12.24-4.93,15.52-5.26,.63,2.8,1.27,5.59,1.9,8.39-4.24,2.85-8.02,5.12-11.08,6.87-5.56,3.18-8.99,4.74-11.43,3.6-1.75-.82-3.13-2.35-3.13-2.35-.76-.85-1.25-1.67-1.55-2.27Z"/>
      <path class="cls-8" d="M521,299.18c-2.13,4.07-4.61,9.91-5.91,17.26-2,11.26-.28,20.6,1.15,25.98-.25,5.65-.18,12.19,.58,19.41,.9,8.53,2.54,15.98,4.31,22.15-5.8,8.72-5.79,12.69-4.44,14.67,2.39,3.5,9.63,1.71,11.11,5.33,1.09,2.67-2.32,4.95-1.56,7.78,.56,2.09,3.43,4.6,14.71,5.62-.07,.2-.28,.87,0,1.66,.23,.66,.68,1.03,.87,1.16,1.05,2.13,2.09,4.26,3.14,6.39,2.19,.14,4.38,.28,6.56,.42,.21,.56,.83,1.96,2.34,3.05,1.5,1.09,3.03,1.24,3.62,1.27,3.09-.6,5.6-1.43,7.44-2.15,2.44-.96,7.02-2.81,11.45-6.95,.63-.59,1.13-1.1,1.47-1.47,.08-1.23,.07-2.77-.2-4.5-.2-1.34-.51-2.52-.84-3.5,.27-.45,.64-1.14,.96-2.03,.52-1.48,.61-2.75,.71-4.3,.04-.63,.07-1.44,.05-2.4,6.19-5.07,7.04-8.38,6.61-10.48-.81-3.96-6.4-4.88-6.44-8.44-.04-3.38,4.95-4.36,5.64-7.85,.5-2.52-1.23-6.44-10.75-12.59-.82-3.02-1.78-6.13-2.89-9.33-3.59-10.35-8.01-19.23-12.44-26.67-1.6-5.01-3.33-8.87-4.54-11.37,0,0-.43-.89-.91-1.79-2.66-5.1-9.99-13.63-9.99-13.63-1.68-1.96-3.86-4.46-6.47-7.33"/>
      <path class="cls-19" d="M540.94,419.02c2.74-2.86,6.84-6.46,12.5-9.44,10.33-5.43,20.09-5.77,25.07-5.58,.1,1.12,.12,2.68-.24,4.51s-.97,3.24-1.48,4.23c.48,1.45,.94,3.08,1.31,4.87,.26,1.24,.45,2.42,.59,3.52-2.96,2.12-6.35,4.32-10.18,6.46-3.37,1.88-6.59,3.45-9.58,4.75-.44,.07-3.02,.41-5.28-1.38-1.85-1.46-2.33-3.42-2.44-3.98-2.09-.14-4.18-.28-6.27-.42-1.33-2.52-2.67-5.03-4-7.55Z"/>
      <path class="cls-29" d="M546.46,425.08c2.29-2.44,5.93-5.74,11.11-8.44,7.04-3.67,13.55-4.49,17.33-4.67"/>
      <g>
        <path class="cls-14" d="M521.13,383.97c.33-.42,.69-.88,1.1-1.37"/>
        <path class="cls-6" d="M526.15,378.4c3.45-3.28,8.24-6.86,14.54-9.4,2.88-1.16,5.61-1.91,8.09-2.4"/>
        <path class="cls-14" d="M551.61,366.13c.61-.08,1.19-.15,1.75-.2"/>
      </g>
      <path class="cls-15" d="M579.83,387.62c-2.81-.45-6.36-.71-10.41-.24-9.64,1.11-16.5,5.68-19.85,8.3"/>
    </g>
    <path class="cls-29" d="M554.46,426.19c2.2-1.74,5.3-3.83,9.33-5.56,4.71-2.02,8.96-2.8,12-3.11"/>
  </g>
  <g>
    <path class="cls-3" d="M257.52,166.99c.29,7.27,6.03,11.62,3.87,17.72-1.11,3.13-2.9,2.79-3.85,5.63-2.32,6.94,5.94,16.24,11.85,20.74,8.85,6.74,18.42,7.29,21.93,7.45,11.44,.5,20.02-3.81,23.7-5.97,14.09-16.62,14.29-39.93,2.07-54.22-14.17-16.58-41.87-17.3-52.74-6.22-1.28,1.31-7.14,7.27-6.83,14.88Z"/>
    <path class="cls-14" d="M261.54,203.32c.65,1.25,1.74,1.9,2.82,1.67,1.63-.35,2.27-2.48,2.29-2.57"/>
    <path class="cls-34" d="M297.66,208.8c.1,4.32-2.13,7.57-3.17,8.89-2.7,.44-7.7,.88-13.57-.82-5.39-1.56-9.14-4.23-11.2-5.94-.11-.59-.19-1.31-.16-2.13,.17-5.59,5.15-14.05,14.05-14.05,8.36,0,13.89,7.46,14.05,14.05Z"/>
    <path class="cls-33" d="M273.87,210.26c-.01-.45-.09-5.85,4.33-9,.58-.41,4.34-2.99,8.78-1.44,4.94,1.72,6.05,6.93,6.11,7.22,.76,3.85-1.14,6.83-1.56,7.44"/>
    <path class="cls-38" d="M265.12,174.39c-.55,1.6-1.45,4.81-1.18,8.87,.09,1.42,.49,7.55,4.44,11.61,3.08,3.17,7.08,3.83,10.26,2.61,6.68-2.55,8.97-12.8,9.67-15.92,.74-3.3,.88-6.17,.89-8.09-2.95-1.12-7.36-2.3-12.73-1.98-4.75,.28-8.63,1.64-11.34,2.9Z"/>
    <path class="cls-13" d="M270.09,172.56c-.94,1.81-2.02,4.5-2.41,7.96-.23,2.01-.72,8.67,2.66,13.7,.85,1.26,2.34,3.48,4.64,3.81,4.33,.63,7.41-6.01,7.59-6.42,2.62-5.84,.89-12.23,.49-13.7-.83-3.06-2.11-5.19-2.96-6.39-1.42-.05-2.97-.02-4.64,.13-1.97,.18-3.78,.51-5.39,.91Z"/>
    <path class="cls-16" d="M263.93,173.87c-.23-.68,3.23-3.59,5.33-4.96,3.11-2.02,9.58-4.76,20.62,0-.23,1.52-.46,3.04-.69,4.57-3.7-1.36-6.84-1.81-9.08-1.96-5.91-.38-10.98,1.01-11.54,1.17-2.69,.76-4.48,1.64-4.64,1.17Z"/>
    <path class="cls-2" d="M257.52,166.99c.29,7.27,6.03,11.62,3.87,17.72-1.11,3.13-2.9,2.79-3.85,5.63-2.32,6.94,5.94,16.24,11.85,20.74,8.85,6.74,18.42,7.29,21.93,7.45,11.44,.5,20.02-3.81,23.7-5.97,14.09-16.62,14.29-39.93,2.07-54.22-14.17-16.58-41.87-17.3-52.74-6.22-1.28,1.31-7.14,7.27-6.83,14.88Z"/>
    <path class="cls-5" d="M280.84,186.59c-.17,.74-.58,2.52-1.85,3.86-1.27,1.34-2.69,1.48-3.44,1.55-.51,.05-1.06,.11-1.73-.14-1.34-.48-2.14-1.75-2.46-2.33,2.17-.08,3.82-2.26,3.91-4.53,.11-2.66-1.93-5.43-4.54-5.04,.22-.53,.59-1.26,1.16-1.98,.59-.74,1.18-1.19,1.6-1.45,.49-.27,1.71-.83,3.19-.4,1.98,.58,3.02,2.54,3.36,3.19,1.66,3.22,.91,6.8,.8,7.26Z"/>
  </g>
  <g>
    <path class="cls-4" d="M226.98,134.41c-.08,3.55,.06,13.3,4.98,23.8,3.58,7.62,9.72,15.81,11.78,14.89,.95-.43,1.73-3.13-2.22-17.33,5.16,10.17,10.84,17.22,15.11,21.78,4.06,4.34,5.75,5.25,7.11,4.89,3.97-1.06,4.37-12.68,4-23.11,2.59,7.02,4.6,7.3,5.23,7.28,3.61-.15,5.61-12.58,5.89-14.39,1.64,2.7,4.33,6.48,8.52,10.07,3.99,3.41,7.95,6.81,11.04,5.49,2.71-1.16,3.98-5.61,3.56-10.67,3.04,7.19,5.86,16.92,1.33,23.11-3.66,5.01-10.43,5.39-10.13,7.34,.34,2.2,9.31,4.34,15.24,.82,2.19-1.3,3.52-3.09,4-2.78,.47,.31-.61,4.13-3.33,7.22-4.94,5.61-12.32,5.48-12.22,6.56,.1,1.14,7.34,3.1,14.78,.67,9.44-3.09,13.93-11.56,14.6-11.07,.68,.49-3.22,9.75-11.82,19.24-15.13,16.71-32.32,20.36-31.5,22.93,.7,2.21,14.1,1.8,25.68-4.34,11.64-6.17,17.48-16.02,19.87-20.76-.8,3.26-2.19,7.8-4.72,12.84-4.14,8.23-8.13,11.29-7.56,12,.94,1.18,32.46-10.24,50.92-40.74,4.51-7.45,19.08-31.52,12.44-59.85-9.08-38.77-52.71-63.48-88.89-59.85-20.09,2.02-33.86,12.37-37.33,15.11-2.92,2.31-25.74,20.93-26.34,48.87Z"/>
    <g>
      <g>
        <path class="cls-29" d="M302.36,157.25c-.12-.56-.26-1.13-.4-1.71"/>
        <path class="cls-25" d="M300.42,150.01c-1.08-3.44-2.48-7.18-4.3-11.1-2.18-4.67-4.54-8.7-6.82-12.1"/>
        <path class="cls-29" d="M287.66,124.45c-.35-.49-.7-.96-1.04-1.42"/>
      </g>
      <g>
        <path class="cls-29" d="M312.41,185.59c.37-.33,.81-.73,1.27-1.22"/>
        <path class="cls-26" d="M316.74,180.22c.19-.34,.38-.7,.55-1.07,.78-1.62,1.26-3.18,1.55-4.57"/>
        <path class="cls-29" d="M319.23,172.02c.06-.68,.07-1.27,.07-1.76"/>
      </g>
      <path class="cls-30" d="M325.34,188.4c.75-2.44,1.39-5.27,1.72-8.44,1.07-10.48-1.94-19.01-4.15-23.85"/>
      <path class="cls-30" d="M241.52,155.76c-.95-2.42-1.96-5.63-2.52-9.48-.56-3.84-.51-7.19-.3-9.78"/>
      <path class="cls-30" d="M267.74,159.32c-.49-4.05-.99-8.1-1.48-12.15"/>
      <path class="cls-30" d="M266.86,117.75c1.29,1.11,2.7,2.5,4.04,4.23,3.59,4.62,5.01,9.39,5.63,12.44"/>
    </g>
  </g>
  <path class="cls-23" d="M343.69,182.37c.56,2.32,1.04,5.11,1.19,8.3,.24,5.46-.59,10.04-1.48,13.33,1.2-.69,3.42-2.19,5.22-4.93,1.86-2.82,2.33-5.55,2.48-6.93,.32-3.39,.47-7.39,.19-11.85-.29-4.67-.99-8.78-1.78-12.22-.9,2.92-1.44,5.31-1.78,7-.41,2.06-.64,3.74-1.95,5.42-.72,.92-1.51,1.51-2.08,1.88Z"/>
  <g>
    <path class="cls-23" d="M232.89,110.92c4.58-3.03,12.11-7.2,22.15-9.23,22.5-4.54,40.51,5.12,46.28,8.32,12.26,6.8,19.58,15.56,22.83,19.91,6.89,9.21,10.16,18.19,11.78,24,.05-2.45,.45-6.15,2.22-10.22,.96-2.2,2.09-3.97,3.11-5.33-1.77-4.29-4.6-10.19-9.07-16.55-5.02-7.15-18.65-26.63-43.38-32.12-17.57-3.9-32.53,1.09-39.77,4.16-2.35,.98-6.46,3.05-10.24,7.19-3.41,3.73-5.09,7.55-5.92,9.88Z"/>
    <path class="cls-30" d="M249.26,98.3c6.66-2.19,21.85-6.12,39.77-1.28,29.84,8.07,43.01,33.93,45.11,38.22"/>
  </g>
  <g>
    <path class="cls-8" d="M322.33,99.88c.62-3.59,1.49-8.9,2.4-15.37,2.4-17.19,2.12-21.61,1.21-25.56-1.24-5.41-2.41-10.5-6.77-14.28-9.12-7.9-24.04-3.04-26.57-2.15-9.02,3.14-7.24,6.59-19.42,12.3-9.34,4.39-16.38,7.69-23.7,6.24-.46-.09-5.22-1.05-11.19-.32-2.92,.36-4.2,.89-5.17,1.83-2.66,2.59-1.83,7.21-1.61,8.47,.92,5.1,4.29,8.27,7.75,11.52,2.53,2.37,6.41,6.02,12.62,8.18,1.71,.59,7.01,2.26,16.56,1.1,12.46-1.51,22.43-6.65,29.1-11.09,1.29,4.57,2.57,9.17,3.84,13.8,.92,3.37,1.84,6.74,2.74,10.09,.69,.89,2.12,2.49,4.45,3.51,.76,.33,4.46,1.85,7.88,.41,4.94-2.07,5.85-8.4,5.89-8.67Z"/>
    <path class="cls-17" d="M297.54,80.74c3.24-2.59,6.98-5.3,11.22-7.96,3.72-2.34,7.29-4.31,10.62-5.96"/>
    <path class="cls-37" d="M318.58,68.74c-.31,3.78-.78,9.32-1.41,16.04-1.7,18.17-2.37,21.56-3.62,21.71-1.66,.2-3.65-5.38-6.47-13.28-2.17-6.07-3.58-11.18-4.45-14.65,2.52-1.64,5.11-3.28,7.78-4.93,2.76-1.7,5.49-3.33,8.17-4.9Z"/>
    <g>
      <path class="cls-29" d="M317.36,60.12c-.45,.26-.96,.56-1.52,.88"/>
      <path class="cls-27" d="M311.34,63.63c-3.43,2-7.74,4.53-12.67,7.44-14.19,8.37-17.25,10.31-23.12,11.89-5.42,1.46-14.26,3.83-23.52-.21-3.84-1.68-6.76-4.02-8.88-6.19"/>
      <path class="cls-29" d="M241.41,74.61c-.41-.49-.77-.96-1.08-1.39"/>
    </g>
  </g>
  <path class="cls-30" d="M339.25,97.09c4.87,2.54,18.5,10.45,26.67,27.26,10.34,21.28,4.37,41.28,2.96,45.63"/>
  <path class="cls-30" d="M349.92,129.69c3.31,7.84,7.17,19.95,7.11,34.96-.02,6.51-.78,12.29-1.78,17.19"/>
  <path class="cls-19" d="M284.95,320.97c1.74,7.68-.07,13.44-.07,13.44-3.27,10.38-12.53,21.48-15.64,19.96-2.88-1.4,.42-13.17,1.55-17.18,0,0,2.19-7.82,9.48-16.44,.81-.95,2.17-2.44,3.28-2.11,.86,.26,1.22,1.51,1.41,2.34Z"/>
  <path class="cls-29" d="M282.38,324.24c-2.74,4.21-5.73,9.57-8.22,16.03-1.53,3.98-2.61,7.68-3.39,10.99"/>
  <g>
    <path class="cls-19" d="M275.35,430.77c-.66,2.95-1.36,5.79-2.08,8.52,1.21,1.1,2.93,2.39,5.11,3.32,2.7,1.15,5.05,1.28,6.66,1.2,.95,.7,2.61,1.7,4.78,1.92,2.53,.26,4.51-.66,5.55-1.25,1.56,.58,3.47,1.1,5.68,1.28,1.74,.15,3.31,.06,4.66-.13,1.58,.4,3.53,.7,5.75,.63,1.8-.05,3.39-.34,4.74-.7,2.85,.79,6.49,1.42,10.72,1.25,3.92-.16,7.3-.96,9.98-1.87,1.85,.49,4.66,.9,8,.14,2.8-.63,5.04-1.87,6.59-2.94-2.2-13.45-4.4-26.9-6.59-40.35-1.86,.04-3.97,.23-6.27,.7-2.29,.47-4.34,1.12-6.13,1.83-2.64-.37-5.83-.51-9.43,0-2.35,.33-4.47,.89-6.34,1.52-1.02-.2-2.29-.33-3.73-.22-1.56,.13-2.89,.51-3.94,.91-1.29-.81-2.98-1.68-5.03-2.22-1.63-.43-3.09-.54-4.3-.52-1.05-.44-2.28-.82-3.66-1.04-2.78-.44-5.17-.05-6.91,.46-3.02-1-6.04-2-9.06-2.99-.85,9.33-2.32,19.64-4.76,30.54Z"/>
    <path class="cls-29" d="M275.98,435.09c1.91,2.1,3.64,2.93,4.99,3.26,1.89,.46,2.31-.24,4.87,.14,2.9,.44,3.02,1.44,5.31,1.49,2.24,.05,2.28-.91,4.65-.93,2.21-.02,2.32,.8,5.32,1.21,2.34,.31,2.39-.17,5.02,.15,2.39,.29,2.64,.73,4.54,.91,2.29,.22,2.9-.33,5.41-.56,3.47-.33,3.45,.6,8,.66,2.85,.04,5.2-.29,6.95-.54,3.64-.51,3.43-.85,5.41-.92,3.73-.14,4.54,1.06,7.27,.62,1.29-.2,3.17-.8,5.4-2.67"/>
    <g class="cls-35">
      <g>
        <path class="cls-14" d="M285.52,440.26c.1-.57,.21-1.15,.31-1.73"/>
        <path class="cls-12" d="M286.68,433.28c.29-1.94,.56-3.95,.81-6.04,.37-3.1,.66-6.07,.89-8.91"/>
        <path class="cls-14" d="M288.57,415.69c.04-.59,.08-1.18,.11-1.76"/>
      </g>
    </g>
    <g class="cls-35">
      <g>
        <path class="cls-14" d="M295.37,442.6c.07-.58,.14-1.16,.22-1.75"/>
        <path class="cls-9" d="M296.14,436.14c.08-.66,.15-1.32,.23-1.99,.74-6.54,1.38-12.96,1.94-19.24"/>
        <path class="cls-14" d="M298.51,412.55c.05-.59,.1-1.17,.15-1.75"/>
      </g>
    </g>
    <g class="cls-35">
      <g>
        <path class="cls-14" d="M305.71,443.75c.08-.57,.16-1.16,.24-1.74"/>
        <path class="cls-18" d="M306.5,437.39c.11-.98,.21-1.97,.31-2.98,.34-3.52,.58-6.91,.74-10.15"/>
        <path class="cls-14" d="M307.66,421.95c.02-.59,.05-1.18,.06-1.76"/>
      </g>
    </g>
    <g class="cls-35">
      <g>
        <path class="cls-14" d="M336.91,443.06c-.09-.58-.17-1.16-.26-1.74"/>
        <path class="cls-21" d="M335.85,435.63c-.26-1.94-.52-3.91-.77-5.91-.43-3.49-.83-6.91-1.18-10.26"/>
        <path class="cls-14" d="M333.61,416.59c-.06-.59-.12-1.17-.17-1.75"/>
      </g>
    </g>
    <g class="cls-35">
      <g>
        <path class="cls-14" d="M316.21,443.68c0-.58,0-1.17-.02-1.76"/>
        <path class="cls-14" d="M316.03,435.92c-.02-.59-.05-1.18-.08-1.76"/>
      </g>
    </g>
  </g>
  <path class="cls-23" d="M293.72,293.79c-1.52,2.67-2.85,6.37-5.55,13.77-.45,1.24-.82,2.27-1.05,2.93,0,0-19.51,57.79-20.3,102.36-.03,1.67,.11,4.26,1.83,6.09,1.33,1.41,3.1,1.84,4.17,2,.05,2.48,.1,4.96,.15,7.44-.01,.13-.11,1.29,.77,2.1,.64,.59,1.4,.61,1.6,.62,11.51,1.32,24.45,2.18,38.59,2.11,13.47-.06,25.84-.95,36.89-2.26,.22-.01,.87-.08,1.47-.59,.55-.47,.75-1.05,.81-1.27v-8.14c2.13-1.15,3.58-2.49,4.54-3.56,.87-.98,1.48-1.67,1.78-2.71,.78-2.69-1.17-5.29-1.63-5.88,.92-15.65,.66-28.83,.15-38.59-1-19.22-3.23-30.81-7.7-53.97-3.17-16.42-5.47-24.67-12.6-32-5.35-5.49-11.38-8.37-15.63-9.92-2.02,.4-4.77,1.09-7.88,2.37-1.78,.73-7.29,3.13-12.97,8.34-2.37,2.18-5.09,4.67-7.44,8.79Z"/>
  <path class="cls-14" d="M272.83,420.93c1.74,.23,4.23,.53,7.22,.85,13.59,1.42,23.87,1.52,32.44,1.58,0,0,8.98,.06,29.44-.94,1.24-.06,3.9-.2,7.33-.75,1.68-.27,3.02-.55,3.83-.73"/>
  <g>
    <path class="cls-14" d="M277.33,426.07c.58,.07,1.16,.14,1.75,.21"/>
    <path class="cls-20" d="M284.38,426.86c9.45,.94,19.81,1.51,30.97,1.44,10.25-.06,19.8-.65,28.56-1.55"/>
    <path class="cls-14" d="M346.56,426.46c.59-.07,1.17-.13,1.75-.2"/>
  </g>
  <path class="cls-15" d="M357.79,408.77c-4.99,.6-13.33,.93-22.96-2.04-7.05-2.17-12.42-5.36-16-7.91"/>
  <path class="cls-19" d="M281.65,321.17c2.49,2.59,5.74,6.68,7.73,12.4,4.34,12.43,.83,27.01-2.79,27.42-3.21,.36-7.1-10.35-8.55-16.69-1.95-8.54-1.02-15.89-.06-20.43"/>
  <path class="cls-19" d="M277.65,325.54c.14,.13,.38,.05,1.62-.18,.82-.15,1.29-.22,1.36-.23,6.16-1.3,32.8-34.05,32.8-34.05,2.28-2.77,5.75-6.85,10.3-11.59,.21-.3,.52-.83,.66-1.55,.16-.79,.07-1.59-.14-2.11-.73-1.86-3.29-1.09-5.42-3.19-1.49-1.47-1.06-2.67-2.36-3.41-1.48-.83-3.48-.1-4.96,.67-1.51,2.24-2.64,4.05-3.26,5.04-7.39,11.91-24.84,41.47-26.61,44.89-.14,.26-.59,1.17-1.54,2-.56,.49-1.1,.8-1.48,.98-1.28,2.15-1.11,2.62-.97,2.75Z"/>
  <path class="cls-1" d="M289.88,300.25c-.89,1.97-2.28,5.08-4,8.89-3.88,8.6-5.16,11.39-4.94,11.51,.12,.06,.68-.65,4.19-6.43,4.45-7.33,7.98-13.55,10.23-17.4,1.46-2.5,2.9-5,4.3-7.53,1.72-3.11,4.32-7.65,7.76-13.06-3.26,2.79-7.26,6.77-11.02,12.17-3.01,4.32-5.08,8.43-6.52,11.85Z"/>
  <path class="cls-29" d="M291.97,308.07c2.16-2.36,8.64-9.45,10.8-11.82,5.16-5.64,12.86-14.08,18.01-19.72"/>
  <path class="cls-29" d="M281.18,325.66c-.08,5.46,.29,12.12,1.75,19.5,.9,4.54,2.06,8.58,3.27,12.07"/>
  <path class="cls-23" d="M288.37,368.55c-.65,9.87,1.56,16.45,3.85,20.74,2.11,3.95,4.94,7.18,4.15,11.26-.68,3.5-3.7,5.9-6.22,7.41"/>
  <path class="cls-15" d="M267.29,401.22c1.08,.68,2.48,1.42,4.21,1.99,3.16,1.05,5.96,1.04,7.74,.89"/>
  <g>
    <path class="cls-4" d="M45.59,65.41c-3.83,5.9-9.06,16.1-7.44,27.82,.1,.7,.22,1.47,.44,2.35,3.5,14.31,16,25.18,22.05,30.51,16.02,14.11,24.41,21.49,30.71,32.87,4.01,7.24,11.37,20.55,7.35,35.46-4.11,15.24-19.77,30.97-38.92,29.41-15.98-1.3-28.34-14.13-31.57-26.38-2.03-7.68-.82-15.73,.86-16,2.92-.47,3.37,22.94,17.73,30.27,7.21,3.68,18.62,3.3,24.65-2.59,14.19-13.87,3.86-63.56-20.76-85.63-4.66-4.17-18.57-15.23-25.08-34.6-.82-2.44-1.34-4.49-1.66-5.84,3.01-1.01,7.58-2.94,12.25-6.7,4.86-3.92,7.77-8.17,9.39-10.96Z"/>
    <path class="cls-30" d="M75.3,145.66c3.53,3.83,13.1,15.24,14.92,32.76,1.33,12.84-2.13,22.95-4.22,27.9"/>
  </g>
</svg>