<?xml version="1.0" encoding="UTF-8"?>
<svg id="CharacterBack" xmlns="http://www.w3.org/2000/svg" viewBox="0 0 640 640">
  <defs>
    <style>
      .cls-1 {
        fill: #f5e3d9;
        stroke-width: 2.64px;
      }

      .cls-1, .cls-2, .cls-3, .cls-4, .cls-5, .cls-6, .cls-7, .cls-8, .cls-9, .cls-10, .cls-11, .cls-12, .cls-13, .cls-14, .cls-15 {
        stroke: #000;
      }

      .cls-1, .cls-5 {
        stroke-miterlimit: 10;
      }

      .cls-16 {
        stroke-dasharray: 0 0 3.45 5.18;
      }

      .cls-16, .cls-17, .cls-18, .cls-19, .cls-2, .cls-20, .cls-21, .cls-22, .cls-23, .cls-3, .cls-24, .cls-4, .cls-6, .cls-25, .cls-7, .cls-8, .cls-9, .cls-10, .cls-11, .cls-12, .cls-13, .cls-14, .cls-26, .cls-15 {
        stroke-linecap: round;
        stroke-linejoin: round;
      }

      .cls-16, .cls-17, .cls-18, .cls-19, .cls-2, .cls-20, .cls-21, .cls-22, .cls-23, .cls-3, .cls-24, .cls-6, .cls-25, .cls-9, .cls-10, .cls-11, .cls-12, .cls-13, .cls-14, .cls-26, .cls-15 {
        fill: none;
      }

      .cls-16, .cls-19, .cls-2, .cls-20, .cls-3, .cls-24, .cls-4, .cls-6, .cls-25, .cls-7, .cls-8, .cls-9, .cls-10, .cls-11, .cls-12, .cls-13, .cls-14, .cls-26, .cls-15 {
        stroke-width: 2.5px;
      }

      .cls-16, .cls-19, .cls-20, .cls-24, .cls-25, .cls-26 {
        stroke: #347035;
      }

      .cls-17, .cls-18, .cls-21, .cls-22, .cls-23, .cls-5 {
        stroke-width: 2px;
      }

      .cls-17, .cls-18, .cls-22, .cls-23 {
        stroke: #dda766;
      }

      .cls-18, .cls-21, .cls-25, .cls-10 {
        stroke-dasharray: 0 0 3.52 5.29;
      }

      .cls-2 {
        stroke-dasharray: 0 0 4.05 6.07;
      }

      .cls-20 {
        stroke-dasharray: 0 0 3.38 5.06;
      }

      .cls-21 {
        stroke: #dcf4dc;
      }

      .cls-22 {
        stroke-dasharray: 0 0 3.37 5.05;
      }

      .cls-23 {
        stroke-dasharray: 0 0 3.35 5.02;
      }

      .cls-3 {
        stroke-dasharray: 0 0 3.48 5.22;
      }

      .cls-24 {
        stroke-dasharray: 0 0 3.36 5.04;
      }

      .cls-4 {
        fill: #0d141e;
      }

      .cls-5, .cls-27 {
        fill: #dda766;
      }

      .cls-6 {
        stroke-dasharray: 0 0 3.83 5.74;
      }

      .cls-7 {
        fill: #c4e8c4;
      }

      .cls-8, .cls-28 {
        fill: #495368;
      }

      .cls-11 {
        stroke-dasharray: 0 0 3.22 4.83;
      }

      .cls-12 {
        stroke-dasharray: 0 0 3.62 5.43;
      }

      .cls-13 {
        stroke-dasharray: 0 0 3.46 5.19;
      }

      .cls-14 {
        stroke-dasharray: 0 0 3.31 4.96;
      }

      .cls-26 {
        stroke-dasharray: 0 0 4.01 6.01;
      }

      .cls-15 {
        stroke-dasharray: 0 0 3.31 4.96;
      }
    </style>
  </defs>
  <g>
    <g>
      <path class="cls-4" d="M318.72,595.01c.2,1.9,.98,6.83,4.87,11.26,5.15,5.86,12.06,6.67,14.3,6.77,7.41,.31,14.41-2.36,16.58-6.41,1.47-3.76,2.95-7.53,4.42-11.29,.82-2.33,2.19-7.33,.58-13.06-2.4-8.52-10.67-16.05-21.04-16-10.47,.05-19.11,7.83-21,16.75-1.12,5.28,.37,9.8,1.28,11.99Z"/>
      <path class="cls-18" d="M354.14,591.75c-.07,1.07-.58,7.41-5.93,11.56-.94,.73-4.33,3.28-9.19,3.11-5.85-.2-9.45-4.17-10.37-5.19-3.36-3.71-3.99-7.91-4.15-9.48"/>
      <path class="cls-18" d="M355.77,588.05c-2.86-6.34-9.01-10.54-15.85-10.81-7.35-.3-14.24,3.99-17.33,10.81"/>
      <path class="cls-4" d="M257.76,590.73c-.12-1.34-.17-3.32,.24-5.64,.27-1.53,2.91-15.46,14.32-17.62,8.1-1.53,16.02,3.75,19.09,10.3,1.41,3,1.6,5.86,1.55,7.73,2.68,3.72,5.36,7.44,8.04,11.15,.13,.28,.27,.63,.37,1.05,.09,.39,.13,.75,.14,1.04-.18,1.84-.36,3.68-.54,5.52-1.8,1.66-6.39,5.41-13.32,6.38-10.85,1.53-18.72-4.95-20.01-6.05-3.29-4.62-6.58-9.25-9.87-13.87Z"/>
      <g>
        <path class="cls-17" d="M296.59,598.2c-.34,.31-.79,.71-1.35,1.13"/>
        <path class="cls-22" d="M290.81,601.73c-.82,.29-1.71,.53-2.67,.69-5.83,.96-10.38-1.75-12.67-3.11-2.13-1.27-3.82-2.74-5.15-4.17"/>
        <path class="cls-17" d="M268.71,593.19c-.38-.51-.72-.99-1.01-1.44"/>
      </g>
      <path class="cls-18" d="M263.3,589.67c.4-1.36,1.05-3.21,2.18-5.25,1.05-1.9,4.79-8.7,10.3-10.03,5.65-1.36,12.96,3.08,17.18,11.11"/>
      <path class="cls-5" d="M349.3,572.32c-.51,1.94,1.1,4.17,1.56,4.8,1.27,1.75,3.78,3.81,5.95,3.47,2.92-.46,5.69-5.32,4.76-11.96-6.57-1.05-11.54,.94-12.27,3.69Z"/>
      <path class="cls-5" d="M327.2,572.32c.53,1.92-1.08,4.14-1.56,4.8-1.26,1.73-3.79,3.86-5.95,3.47-2.8-.51-5.35-5.28-4.34-11.74,6.31-1.08,11.11,.81,11.85,3.47Z"/>
      <g>
        <path class="cls-17" d="M338.63,567.21v1.76"/>
        <path class="cls-17" d="M338.63,572.97v1.76"/>
      </g>
      <path class="cls-5" d="M268.39,569.81c.31,2.22-.75,3.97-1.3,4.89-.29,.48-2.46,3.64-4.98,3.53-2.63-.12-5.5-3.81-5.48-9.22,4.08-3.34,8.52-3.93,10.41-2.18,1.06,.98,1.33,2.71,1.37,2.98Z"/>
      <path class="cls-5" d="M284.15,567.57c0,2.2,1.2,3.77,1.83,4.6,.89,1.17,3.31,3.37,5.03,2.83,1.93-.61,2.97-4.69,1.96-10.15-1.57-.48-6.78-1.97-7.81-.55-.04,.06-1,.04-1.01,3.27Z"/>
    </g>
    <g>
      <path class="cls-9" d="M338.86,569.28v1.76"/>
      <path class="cls-9" d="M338.86,575.63v1.76"/>
    </g>
  </g>
  <g>
    <path class="cls-8" d="M341.45,469.75c6.67,.1,12.42,4.96,13.63,11.56-1.64,44.72-2.72,62.29-3.46,66.87-.12,.74-.38,2.08-.24,3.94,.46,6.14,4.52,7.77,4.3,11.85-.22,4.03-4.68,4.56-4.44,7.7,.34,4.46,9.3,6.19,8.89,9.04-.26,1.82-3.93,1.33-5.33,3.7-2.94,4.96,8.6,14.67,6.37,18.37-.87,1.44-3.95,2.19-13.19-.3-2.41-.8-6.03-1.71-10.48-1.73-4.64-.03-8.4,.91-10.85,1.73-3.44,2.45-7.59,2.98-10.81,1.33-.58-.29-3.61-1.84-4.3-4.89-1.34-5.96,7.91-10.56,6.22-15.7-.76-2.32-2.92-2.18-3.11-4.28-.36-3.93,6.99-5.97,6.67-9.94-.19-2.34-2.87-2.3-3.56-5.33-.6-2.63,.81-4.4,2.96-9.48,1.15-2.7,1.93-5.55,2.96-8.3,1.86-4.93,3.45-22.04,3.85-65.19,1.48-6.47,7.32-11.06,13.93-10.96Z"/>
    <path class="cls-17" d="M350.52,482.03c-1.55,22.74-3.11,45.49-4.66,68.23,.1,1.38,.4,3.38,1.36,5.57,1.15,2.64,2.15,3.01,2.22,4.67,.09,1.99-1.3,2.52-3.11,6.22-1.43,2.92-2.14,4.39-1.78,5.78,.9,3.47,6.73,3.43,7.11,6.44,.2,1.58-1.37,1.87-2,4.44-.39,1.62-.16,3.1,1.78,8.22,.83,2.2,1.94,4.97,3.35,8.13"/>
    <g>
      <path class="cls-9" d="M342.63,589.16c-.52,.18-1.08,.36-1.68,.53"/>
      <path class="cls-13" d="M335.84,590.59c-.3,.02-.61,.04-.92,.05-5.53,.22-10.13-1.37-13.34-2.97"/>
      <path class="cls-9" d="M319.32,586.41c-.58-.35-1.07-.68-1.47-.96"/>
    </g>
    <path class="cls-10" d="M351.22,571.68c-2.13,1.09-5.82,2.65-10.67,3.04-4.53,.37-8.21-.44-10.44-1.11"/>
  </g>
  <g>
    <path class="cls-8" d="M313,483.96c-5.58,23.26-11.16,46.52-16.74,69.78-.17,1.1-.27,2.69,.22,4.44,1.13,4.01,4.27,5,4,7.33-.28,2.38-3.67,2.47-4,4.89-.35,2.55,3.62,3.53,3.78,6.67,.13,2.68-2.66,3.13-3.19,6.1-.86,4.8,5.64,7.91,4.47,10.88-.86,2.18-5.12,2.47-8.87,2.74-5.17,.36-6.28-.61-10.17-.61-9.51,.01-12.02,5.85-18.37,3.93-2.81-.85-5.88-3.08-6.07-5.63-.08-1.07,.36-1.96,2.52-4.74,5.04-6.5,7.26-7.63,6.96-9.63-.38-2.62-4.5-2.97-4.44-5.19,.06-2.39,4.88-3.06,5.04-5.78,.11-1.87-1.79-2.3-2.52-4.74-1-3.39,1.78-5.96,3.58-10.58,1.92-4.93,1.38-8.7,1.46-11.64,.11-4.05,3.11-17.08,15.7-56.3,1.32-10.91,10.77-16.94,17.48-15.11,4.78,1.3,8.56,6.69,9.19,13.19Z"/>
    <path class="cls-17" d="M290.71,485.07c-4.74,17.55-9.48,35.1-14.22,52.64h0s0,.02,0,.02c-1.01,3.75-1.04,6.63-1.11,8.67-.21,6.08-.31,9.12-1.56,11.33-.91,1.62-1.59,1.94-1.78,3.33-.42,3.08,2.51,4.29,2.22,6.89-.34,3.13-4.82,3.55-4.89,6.22-.07,2.65,4.28,3.41,4.44,6.44,.09,1.63-1.09,2.68-4,5.78-1.68,1.79-4.07,4.42-6.89,7.78"/>
    <path class="cls-10" d="M292.71,583.74c-1.79,.68-4.46,1.46-7.78,1.56-4.62,.13-8.22-1.13-10.22-2"/>
    <path class="cls-10" d="M268.71,564.18c2.06,1.09,5.25,2.43,9.33,2.89,2.21,.25,4.18,.18,5.78,0"/>
  </g>
  <g>
    <path class="cls-8" d="M432.42,299.22c-1.98,3.72-4.64,9.63-5.91,17.26-1.69,10.13-3.76,18.38,.4,25.66,2.03,3.55,4.21,4.69,4.6,8.47,.34,3.3-1.07,4.95-3.26,11.25-2.1,6.06-3.16,9.08-2.96,11.41,.64,7.63,8.68,7.8,10.67,15.56,2.12,8.29-5.73,13.32-2.22,20,1.11,2.11,3.11,3.63,7.11,6.67,3.29,2.5,6.3,4.19,8.47,5.28,2.35,1.94,4.71,3.89,7.06,5.83,2.19,.14,4.38,.28,6.56,.42,.21,.56,.83,1.96,2.34,3.05,1.5,1.09,3.03,1.24,3.62,1.27,3.09-.6,5.6-1.43,7.44-2.15,2.44-.96,7.02-2.81,11.45-6.95,.63-.59,1.13-1.1,1.47-1.47,.08-1.23,.07-2.77-.2-4.5-.2-1.34-.51-2.52-.84-3.5,.27-.45,.64-1.14,.96-2.03,.52-1.48,.61-2.75,.71-4.3,.04-.63,.07-1.44,.05-2.4,1.22-1.27,2.9-3.2,4.54-5.79,1.79-2.82,3.86-6.09,4.15-9.32,.57-6.38-6.3-7.91-9.88-16.52-3.71-8.9,1.77-11.71-1.69-19.59-3.79-8.62-11.37-7.61-17.33-16.89-4.32-6.73-1.15-8.55-4.6-18.63-2.99-8.74-11.55-18.24-28.53-36.88-2.37-2.6-4.32-4.71-5.59-6.07"/>
    <path class="cls-4" d="M462.93,427.03c1.81-2.43,4.94-5.98,9.77-8.99,6.25-3.9,12.24-4.93,15.52-5.26,.63,2.8,1.27,5.59,1.9,8.39-4.24,2.85-8.02,5.12-11.08,6.87-5.56,3.18-8.99,4.74-11.43,3.6-1.75-.82-3.13-2.35-3.13-2.35-.76-.85-1.25-1.67-1.55-2.27Z"/>
    <g>
      <path class="cls-9" d="M436.01,394.5c.31-.45,.66-.92,1.04-1.42"/>
      <path class="cls-3" d="M440.45,389.13c2.08-2.13,4.7-4.37,7.95-6.38,7.81-4.83,15.6-6.05,20.82-6.26"/>
      <path class="cls-9" d="M471.82,376.47c.67,.01,1.26,.04,1.76,.07"/>
    </g>
    <g>
      <path class="cls-9" d="M475.38,342.05c-.36-.27-.85-.62-1.45-1"/>
      <path class="cls-12" d="M469.09,338.63c-2.22-.82-4.9-1.45-7.96-1.49-6.78-.09-12,2.76-15.17,5.15"/>
      <path class="cls-9" d="M443.86,344.03c-.61,.57-1.03,1.01-1.25,1.24"/>
    </g>
    <g>
      <path class="cls-9" d="M463.06,415.94c.42-.36,.87-.74,1.35-1.13"/>
      <path class="cls-2" d="M469.35,411.29c2.54-1.59,5.56-3.16,9.04-4.46,2.41-.9,4.7-1.54,6.81-1.99"/>
      <path class="cls-9" d="M488.19,404.28c.6-.09,1.19-.17,1.74-.24"/>
    </g>
    <path class="cls-17" d="M430.83,280.83c6.95,7.07,14.05,15.4,20.74,25.19,1.57,2.29,3.05,4.57,4.44,6.81,.99,1.43,2.38,3.74,3.26,6.81,1.61,5.62-.12,7.97,.89,13.04,1.28,6.44,5.68,10.75,7.11,12.15,5.57,5.45,9.48,4.2,11.56,8.59,1.69,3.57-.68,4.84,0,11.85,.2,2.07,.86,8.21,4.74,13.93,3.46,5.1,6.17,4.97,6.52,8.3,.37,3.46-2.19,7.29-4.44,10.67-1.34,2-2.49,3.26-2.96,5.63-.43,2.13-.08,4.03,.3,5.33"/>
  </g>
  <g>
    <path class="cls-4" d="M140.19,319.83l4.67-4.06c.98-.14,2.38-.22,4.01,.08,2.53,.47,4.32,1.62,5.27,2.34-.35,2.06-.7,4.13-1.05,6.19"/>
    <path class="cls-8" d="M122.83,347.04c.1-2.35,.59-9.22,4.35-17.05,1.45-3.01,3.01-5.4,4.3-7.15,1.57-1.07,3.13-2.14,4.7-3.22,1.25-.05,2.83-.01,4.62,.3,.36,.06,2,.36,4.1,1.15,1.42,.53,3.33,1.39,5.41,2.8-8.98,10.61-17.96,21.22-26.95,31.83-.57-3.45-.62-6.42-.53-8.67Z"/>
    <path class="cls-8" d="M200.5,285.24c-4.07,1.62-7.12,3.37-9.14,4.66-6.34,4.04-7.47,6.66-12.58,8.26-4.43,1.38-5.1-.11-8.03,1.5-5.03,2.76-3.99,7.63-8.25,9.8-4.46,2.27-7.62-2.27-11.65-.26-5.28,2.63-1.86,11.42-7.91,16.58-4.75,4.05-9.66,1.02-12.97,5.31-2.78,3.6,.21,6.31-2.18,11.98-2.99,7.1-9.65,7.57-9.67,12.24,0,1.9,.9,4.18,5.64,7.99,11.83,9.49,31.62,16.04,37.29,9.35,2.37-2.79,1.11-6.52,4.78-9.12,3.04-2.16,5.32-.73,7.43-2.82,2.5-2.47-.26-5.8,1.67-10.97,1.82-4.87,4.95-3.75,7.33-8.9,2.53-5.48,.08-9.1,3.25-12,1.95-1.79,3.56-1.04,5.44-2.96,2.19-2.25,2.35-5.71,2.08-8.44"/>
    <g>
      <path class="cls-9" d="M160.06,310.1c.46,.03,1.06,.09,1.75,.18"/>
      <path class="cls-14" d="M166.65,311.32c3.4,1.04,7.36,2.97,10.62,6.57,.33,.36,.63,.72,.92,1.08"/>
      <path class="cls-9" d="M179.61,321.01c.32,.52,.61,1.03,.87,1.53"/>
    </g>
    <g>
      <path class="cls-9" d="M174.3,352.23c0-.47-.03-1.06-.1-1.76"/>
      <path class="cls-6" d="M172.93,344.89c-.5-1.36-1.19-2.79-2.12-4.22-2.54-3.89-5.86-6.2-8.55-7.55"/>
      <path class="cls-9" d="M159.61,331.99c-.73-.26-1.31-.42-1.68-.52"/>
    </g>
    <g>
      <path class="cls-9" d="M119.52,352.08c.48-.28,.99-.57,1.53-.86"/>
      <path class="cls-11" d="M125.47,349.28c1.71-.61,3.6-1.12,5.68-1.46,9.95-1.6,18.29,1.9,23.02,4.6"/>
      <path class="cls-9" d="M156.23,353.69c.61,.4,1.09,.74,1.45,.99"/>
    </g>
    <path class="cls-17" d="M198.34,293.02c-5.24,2.71-8.77,5.41-11.06,7.42-2.26,1.98-3.52,3.13-5.65,3.54-2.9,.56-4.32-.84-6.58,.19-1.42,.64-1.59,1.53-3.76,4.51-2.71,3.73-4.05,5.61-5.75,6.39-4.38,2-8.29-2.7-11.22-.64-1.74,1.22-.76,3.17-2.51,7.78-.74,1.95-2.2,5.81-5.35,8.26-5.05,3.92-10.68,1.33-12.45,4.59-1.04,1.92,.51,3.56,.7,6.37,.23,3.46-1.62,8.38-10.67,14.8"/>
  </g>
  <g>
    <path class="cls-28" d="M353.58,429.56c4.34-.74,10.83-2.01,18.66-4.18-.14-3.18-.27-6.36-.41-9.54,.35-.96,.67-2.08,.89-3.34,.54-3.19,.18-5.92-.25-7.76-.08-5.34-.24-12.74-.64-21.57-.43-9.49-.66-14.5-1.32-21.4-1.66-17.22-4.44-29.39-5.19-32.56-1.35-5.77-2.71-10.51-3.71-13.82-.52-3.64-.97-7.42-1.33-11.33-.8-8.6-1.05-16.69-.95-24.18-1.99-2.57-5.2-6.15-9.92-9.4-2.65-1.82-8.62-5.93-16.18-6.79-4.04-.45-8.32,.05-21.76,6.12-6.38,2.88-14.8,7.01-24.43,12.68-.52,.92-1.04,1.84-1.57,2.76-.88,6.88-2.61,17.81-6.24,30.92-3.06,11.05-5.97,18.24-17.41,46.78-3.01,7.52-9.55,23.83-12.52,31.25-.43,1.54-.94,3.89-.95,6.76-.02,5.11,1.57,7.69,2.6,14.29,.28,1.82,.59,4.35,.67,7.42,2.02,.52,5.33,1.34,9.43,2.25,19.25,4.27,52.9,11.43,92.52,4.63Z"/>
    <path class="cls-8" d="M279.24,316.17c-5.28,15.2-11.07,30.81-17.41,46.78-3.8,9.57-7.66,18.9-11.55,27.99-2.06,5.97-2.12,10.61-1.78,13.78,.2,1.84,.5,2.92,1.33,7.33,.85,4.52,1.43,8.21,1.8,10.62,2.02,.52,5.33,1.34,9.43,2.25,19.25,4.27,52.9,11.43,92.52,4.63,4.34-.74,10.83-2.01,18.66-4.18-.14-3.18-.27-6.36-.41-9.54,.32-.86,.67-1.99,.89-3.34,.53-3.34-.08-5.97-.22-6.67-1.72-8.31,1.59-39.12-7.17-76.63-.73-3.12-1.93-7.94-3.71-13.82"/>
    <path class="cls-9" d="M371.39,416.27c-9.64,2.81-23.33,5.94-40,6.89-13.97,.8-24.55-.25-37.78-1.56-10.72-1.06-25.09-2.94-41.98-6.5"/>
    <path class="cls-10" d="M371.39,420.44c-9.54,2.81-23.1,5.94-39.6,6.89-13.83,.8-24.3-.25-37.4-1.56-10.62-1.06-24.84-2.94-41.56-6.5"/>
    <path class="cls-21" d="M350.3,271.11c-1.94,1.48-12.56,9.32-26.24,6.72-6.54-1.24-11.21-4.38-13.78-6.44"/>
    <path class="cls-1" d="M315.27,268.23c2.25,1.4,6.36,3.52,11.9,4.05,9.02,.86,15.74-3.11,17.93-4.53-2.05-.98-5.03-2.23-8.79-3.13-2.62-.63-4.54-1.1-7.08-1.01-.27,0-.54,.03-.85,.06-2.62,.27-4.54,.93-9.41,2.99-1.33,.56-2.57,1.09-3.69,1.58Z"/>
    <path class="cls-9" d="M359.32,279.87c-1.99-2.57-5.2-6.15-9.92-9.4-2.65-1.82-8.62-5.93-16.18-6.79-4.58-.52-8.92,.26-21.76,6.12-6.62,3.03-15.5,7.41-25.74,13.45"/>
    <g>
      <path class="cls-9" d="M312.5,404.16c.57,.1,1.15,.2,1.73,.3"/>
      <path class="cls-15" d="M319.14,405.2c9.26,1.27,20.06,1.93,32.03,1.18,5.3-.34,10.29-.92,14.93-1.65"/>
      <path class="cls-9" d="M368.54,404.32c.58-.1,1.16-.21,1.73-.31"/>
    </g>
    <path class="cls-10" d="M261.78,396.1c6.06-.15,14.63-1.02,24.34-4.24,9.31-3.09,16.46-7.29,21.33-10.67"/>
  </g>
  <g>
    <path class="cls-7" d="M412.19,168.7c1.57,.6,5.54-4.1,6.82-9.25,.11-.45,1.72-7.42-2.44-12.67-.5-.63-2.51-3.16-3.78-2.68-1.38,.52-.73,4.2-.67,10.9,.09,9.76-1.18,13.22,.07,13.7Z"/>
    <path class="cls-8" d="M387.39,129.96c-5.05,2.98-6.36,8.79-7.71,14.72-2.17,9.57-.95,17.12,0,22.67,1.33,7.76,2.1,11.84,5.69,14.27,4.78,3.23,11.06,1.18,12.09,.84,9.03-2.96,13.9-13.17,15.11-20.89,2.4-15.25-7.68-32.27-17.78-33.33-3.72-.39-6.9,1.43-7.4,1.73Z"/>
    <path class="cls-5" d="M406.07,136.65c-1.26,.75,1.62,5.96,2.89,12.4,2.75,13.9-3.57,25.13-1.64,25.93,1.12,.46,3.66-3.4,4.3-4.38,4.38-6.66,3.99-13.73,3.78-16.89-.23-3.42-.7-9.25-4.89-14-.15-.17-3.33-3.74-4.45-3.07Z"/>
  </g>
  <g>
    <path class="cls-1" d="M381.5,175.83c-1.37,11.3-3.2,14.34-4.7,16.18-1.38,1.7-3.29,3.39-4.7,6.79-1.56,3.78-.81,5.62-1.57,8.09-1.81,5.93-10.11,8.43-16.18,10.18-7.06,2.03-13.84,2.76-24.79,2.61-16.82-.22-25.22-.33-32.62-3.65-11.89-5.33-18.32-14.7-20.88-18.53-11.85-17.74-12.35-41.17-5.22-59.51,7.71-19.83,28.92-45.45,58.46-43.59,31.73,2,50.05,34.25,52.98,52.98,1.5,9.61-.02,22.19-.78,28.45Z"/>
    <path class="cls-7" d="M312.47,222.93c-2.05,.35-4.73-3.27-4.96-3.59-.94-1.29-1.33-2.4-1.78-2.33-.6,.09,.04,2.66-1.11,3.56-1.63,1.26-6.69-.94-9-4.78-1.21-2.01-1.48-4.17-1.96-4.11-.6,.07,.08,3.42-1.19,4.15-1.83,1.04-7-3.77-10.67-8.59-4.24-5.59-6.52-11.29-7.41-10.96-.57,.21,.37,2.58-.64,3.35-1.91,1.47-8.69-4.43-9.14-4.83-2.93-2.58-6.91-6.87-10.19-13.72,.1,1.85,.49,4.36,1.89,6.89,1.17,2.12,2.47,3.25,2.22,3.56-.39,.48-4.3-1.36-6.89-4-4.75-4.83-4.79-12-4.77-15.34,.4-54.37,23.95-75.88,23.95-75.88,2.37-2.15,28.43-25.05,63.26-19.56,53.06,8.37,69.33,73.38,68,91.56-.25,3.36-.89,12.18-7.26,18.37-4.94,4.8-12.15,6.88-12.89,5.78-.47-.7,1.85-2.46,4.59-6.67,2.47-3.79,3.83-7.33,4.59-9.78-1.56,2.73-3.6,5.82-6.22,9.04-2.98,3.65-5.99,6.53-8.62,8.76-1.59,10.72-5.97,16.4-8.78,19.22-2.4,2.41-6.25,5.34-7.22,4.56-1.17-.94,2.16-6.87,1.79-7.06-.48-.24-5.64,9.51-7.01,8.95-.57-.23-.03-2.08-.7-2.38-1.39-.63-4.96,6.77-7.52,6.16-1.83-.44-1.88-4.69-3.25-4.72-1.3-.04-1.52,3.79-3.56,4.28-2.26,.54-4.07-3.65-6.37-3.11-1.98,.47-1.97,3.89-3.73,4.08-1.73,.19-2.41-3.04-4.71-3.19-2.12-.14-2.95,2.51-4.74,2.22-2.24-.36-2.62-4.77-4.15-4.74-1.54,.03-1.7,4.52-3.85,4.89Z"/>
    <g>
      <path class="cls-19" d="M384.62,158.04c-.07-.57-.14-1.15-.22-1.75"/>
      <path class="cls-24" d="M383.53,151.33c-.91-4.41-2.33-9.36-4.55-14.6-5.27-12.4-12.81-21.07-18.58-26.49"/>
      <path class="cls-19" d="M358.53,108.55c-.46-.41-.91-.79-1.33-1.15"/>
    </g>
    <g>
      <path class="cls-19" d="M277.19,177.34c-.08-.57-.16-1.15-.24-1.74"/>
      <path class="cls-20" d="M276.52,170.55c-.15-3.08-.11-6.42,.24-9.97,1.56-15.9,8.45-27.92,13.68-35.12"/>
      <path class="cls-19" d="M291.96,123.44c.38-.49,.75-.95,1.09-1.38"/>
    </g>
    <g>
      <path class="cls-19" d="M272.98,185.17c-.37-.33-.81-.73-1.27-1.22"/>
      <path class="cls-16" d="M268.64,179.8c-.19-.34-.38-.7-.55-1.07-.78-1.62-1.26-3.18-1.56-4.57"/>
      <path class="cls-19" d="M266.16,171.6c-.06-.68-.07-1.27-.07-1.76"/>
    </g>
    <path class="cls-25" d="M254.47,181.76c-.75-2.44-1.39-5.27-1.72-8.44-1.07-10.48,1.94-19.01,4.15-23.85"/>
    <g>
      <path class="cls-19" d="M322.31,116.51c-.2,.54-.4,1.09-.6,1.65"/>
      <path class="cls-26" d="M319.89,123.89c-.77,2.72-1.46,5.67-2.02,8.84-.49,2.78-.82,5.42-1.04,7.9"/>
      <path class="cls-19" d="M316.61,143.64c-.03,.6-.06,1.18-.08,1.76"/>
    </g>
    <path class="cls-25" d="M315.65,91.67c-5.13,.81-16.95,3.4-27.56,13.11-6.41,5.87-10.03,12.19-12,16.44"/>
    <path class="cls-25" d="M293.65,211.67c-1.22-3.02-2.46-6.83-3.26-11.33-.64-3.57-.86-6.8-.89-9.56"/>
    <path class="cls-25" d="M317.24,218.65c-.66-2.2-1.28-4.76-1.73-7.64-.45-2.87-.63-5.49-.67-7.78"/>
    <path class="cls-25" d="M376.28,193.78c.46-2.77,.81-5.92,.93-9.37,.16-4.58-.13-8.67-.59-12.15"/>
    <path class="cls-25" d="M343.58,218.5c1.92-4.14,3.98-9.87,4.88-16.91,.45-3.51,.52-6.71,.41-9.5"/>
    <path class="cls-9" d="M312.47,222.93c-2.05,.35-4.73-3.27-4.96-3.59-.94-1.29-1.33-2.4-1.78-2.33-.6,.09,.04,2.66-1.11,3.56-1.63,1.26-6.69-.94-9-4.78-1.21-2.01-1.48-4.17-1.96-4.11-.6,.07,.08,3.42-1.19,4.15-1.83,1.04-7-3.77-10.67-8.59-4.24-5.59-6.52-11.29-7.41-10.96-.57,.21,.37,2.58-.64,3.35-1.91,1.47-8.69-4.43-9.14-4.83-2.93-2.58-6.91-6.87-10.19-13.72,.1,1.85,.49,4.36,1.89,6.89,1.17,2.12,2.47,3.25,2.22,3.56-.39,.48-4.3-1.36-6.89-4-4.75-4.83-4.79-12-4.77-15.34,.4-54.37,23.95-75.88,23.95-75.88,2.37-2.15,28.43-25.05,63.26-19.56,53.06,8.37,69.33,73.38,68,91.56-.25,3.36-.89,12.18-7.26,18.37-4.94,4.8-12.15,6.88-12.89,5.78-.47-.7,1.85-2.46,4.59-6.67,2.47-3.79,3.83-7.33,4.59-9.78-1.56,2.73-3.6,5.82-6.22,9.04-2.98,3.65-5.99,6.53-8.62,8.76-1.59,10.72-5.97,16.4-8.78,19.22-2.4,2.41-6.25,5.34-7.22,4.56-1.17-.94,2.16-6.87,1.79-7.06-.48-.24-5.64,9.51-7.01,8.95-.57-.23-.03-2.08-.7-2.38-1.39-.63-4.96,6.77-7.52,6.16-1.83-.44-1.88-4.69-3.25-4.72-1.3-.04-1.52,3.79-3.56,4.28-2.26,.54-4.07-3.65-6.37-3.11-1.98,.47-1.97,3.89-3.73,4.08-1.73,.19-2.41-3.04-4.71-3.19-2.12-.14-2.95,2.51-4.74,2.22-2.24-.36-2.62-4.77-4.15-4.74-1.54,.03-1.7,4.52-3.85,4.89Z"/>
  </g>
  <path class="cls-8" d="M253.49,129.96c5.05,2.98,6.36,8.79,7.71,14.72,2.17,9.57,.95,17.12,0,22.67-1.33,7.76-2.1,11.84-5.69,14.27-4.78,3.23-11.06,1.18-12.09,.84-9.03-2.96-13.9-13.17-15.11-20.89-2.4-15.25,7.68-32.27,17.78-33.33,3.72-.39,6.9,1.43,7.4,1.73Z"/>
  <path class="cls-5" d="M239.54,135.62c5.74,.1,11.42,13.24,11.15,24.5,0,.17,0,.29-.01,.35-.32,9.05-4.69,19.5-9.63,19.69-4.09,.16-8.51-6.71-10.26-10.39-.05-.11-.09-.19-.12-.25-4.37-9.33-2.37-18.03-1.71-20.74,1.29-5.26,3.43-8.1,4.88-9.65,1.66-1.76,3.54-3.53,5.7-3.5Z"/>
  <path class="cls-7" d="M232.34,141.89c3.74-.26,6.83,7.62,7.13,8.4,3.5,8.92,1.81,21.27-3.87,23.31-1.56,.56-3,.18-3.56,0-5.68-1.88-7.33-12.65-5.93-20.44,.15-.82,2.06-10.97,6.22-11.26Z"/>
  <path class="cls-8" d="M257.39,133.73c2.61-7.11,9.25-22.21,24.7-34.5,4.86-3.87,25.56-19.84,53.32-16.56,39.37,4.65,56.84,43.77,57.6,45.53,.88-.05,2.14-.01,3.57,.38,.96,.27,1.76,.63,2.37,.96-1.06-5.4-3.14-13.08-7.51-21.43-3.56-6.79-17.52-30.99-46.52-39.56-29.12-8.6-59.26,2.72-77.56,21.69-13.52,14.02-18.31,29.87-20.14,37.93,1.12,.02,3.12,.19,5.3,1.26,2.72,1.33,4.24,3.32,4.89,4.29Z"/>
  <path class="cls-21" d="M392.02,119.52c-2.27-6.06-8.58-20.41-23.7-31.41-18.69-13.6-38.38-13.03-45.04-12.74-26.81,1.17-44.11,16.5-48.59,20.74-11.76,11.13-17.15,23.44-19.56,30.22"/>
  <path class="cls-8" d="M250.74,105.96c-2.61-5.1-5.29-11.35-7.41-18.67-3.65-12.59-4.34-23.76-4.15-32,5.63,.17,15.03,1.17,25.48,5.93,9.73,4.42,16.35,10.27,20.17,14.21,.53,2.03,1.1,5.21,.72,9.05-.14,1.41-.73,6.1-4.22,11.78-5.13,8.35-16.85,19.35-24.99,15.95-1.35-.56-3.7-1.98-5.6-6.24Z"/>
  <path class="cls-27" d="M262.88,105.81c-2.02-6.32-4.5-13.1-7.56-20.22-3.99-9.29-8.27-17.51-12.44-24.67,1.32,10.54,3.35,19.12,5.11,25.33,3.3,11.67,6.11,16.68,10.89,18.67,1.58,.66,3.03,.84,4,.89Z"/>
  <path class="cls-8" d="M392.66,108.9c1.84-8,3.48-19.41,2.14-32.95-.81-8.22-2.53-15.29-4.36-20.99-4.52,.43-12.46,1.78-20.82,6.77-6.19,3.69-10.39,8.04-12.95,11.17,1.49,4.72,4.83,13.15,12.39,21.19,8.86,9.43,18.78,13.29,23.61,14.81Z"/>
  <path class="cls-27" d="M389.3,59.67c-1.25,.02-2.01,16.76-2.22,24.27-.21,7.21-.12,13.15,0,17.16,1.68,2.9,2.64,3.41,3.22,3.25,.83-.23,1.43-2.01,1.61-11.95,.11-5.88,.16-8.82-.09-13.11-.29-4.9-1.35-19.63-2.52-19.61Z"/>
  <path class="cls-18" d="M247.33,61.29c3.46,4.7,7.22,10.55,10.67,17.56,4.41,8.96,7.04,17.25,8.67,24"/>
  <g>
    <path class="cls-17" d="M385.54,59.56c-.1,.57-.2,1.14-.3,1.73"/>
    <path class="cls-23" d="M384.47,66.25c-.66,4.84-1.17,10.2-1.38,16.03-.19,5.36-.11,10.34,.15,14.86"/>
    <path class="cls-17" d="M383.4,99.65c.04,.59,.09,1.18,.14,1.75"/>
  </g>
</svg>