<?xml version="1.0" encoding="UTF-8"?>
<svg id="CharacterFront" xmlns="http://www.w3.org/2000/svg" viewBox="0 0 640 640">
  <defs>
    <style>
      .cls-1 {
        stroke-dasharray: 0 0 3.03 4.54;
      }

      .cls-1, .cls-2, .cls-3, .cls-4, .cls-5, .cls-6, .cls-7, .cls-8, .cls-9, .cls-10, .cls-11, .cls-12, .cls-13, .cls-14, .cls-15, .cls-16, .cls-17, .cls-18, .cls-19, .cls-20, .cls-21, .cls-22, .cls-23, .cls-24, .cls-25, .cls-26, .cls-27, .cls-28, .cls-29, .cls-30, .cls-31, .cls-32, .cls-33, .cls-34 {
        fill: none;
      }

      .cls-1, .cls-2, .cls-4, .cls-5, .cls-6, .cls-7, .cls-8, .cls-9, .cls-35, .cls-10, .cls-11, .cls-12, .cls-13, .cls-14, .cls-15, .cls-16, .cls-17, .cls-18, .cls-19, .cls-36, .cls-20, .cls-21, .cls-37, .cls-38, .cls-39, .cls-22, .cls-23, .cls-40, .cls-24, .cls-25, .cls-26, .cls-27, .cls-28, .cls-41, .cls-42, .cls-29, .cls-30, .cls-31, .cls-32, .cls-33, .cls-34 {
        stroke-linecap: round;
        stroke-linejoin: round;
      }

      .cls-1, .cls-2, .cls-6, .cls-7, .cls-11, .cls-13, .cls-15, .cls-17, .cls-18, .cls-43, .cls-44, .cls-26, .cls-27, .cls-41, .cls-31 {
        stroke-width: 2px;
      }

      .cls-1, .cls-2, .cls-13, .cls-18, .cls-44, .cls-27 {
        stroke: #bc695c;
      }

      .cls-2 {
        stroke-dasharray: 0 0 2.67 3.57;
      }

      .cls-3, .cls-45, .cls-4, .cls-9, .cls-35, .cls-19, .cls-36, .cls-43, .cls-20, .cls-46, .cls-37, .cls-38, .cls-39, .cls-23, .cls-47, .cls-40, .cls-24, .cls-25, .cls-28, .cls-41, .cls-42, .cls-29, .cls-30, .cls-31, .cls-33, .cls-34 {
        stroke: #000;
      }

      .cls-3, .cls-45, .cls-43, .cls-46, .cls-47, .cls-44 {
        stroke-miterlimit: 10;
      }

      .cls-3, .cls-45, .cls-33 {
        stroke-width: 2.64px;
      }

      .cls-45, .cls-46 {
        fill: #f5e3d9;
      }

      .cls-4, .cls-5, .cls-8, .cls-9, .cls-10, .cls-12, .cls-14, .cls-16, .cls-19, .cls-36, .cls-20, .cls-46, .cls-21, .cls-37, .cls-38, .cls-39, .cls-22, .cls-23, .cls-47, .cls-24, .cls-25, .cls-28, .cls-42, .cls-29, .cls-30, .cls-32, .cls-34 {
        stroke-width: 2.5px;
      }

      .cls-4, .cls-26 {
        stroke-dasharray: 0 0 3.25 4.88;
      }

      .cls-5 {
        stroke-dasharray: 0 0 3.45 5.18;
      }

      .cls-5, .cls-8, .cls-10, .cls-12, .cls-14, .cls-16, .cls-21, .cls-22, .cls-32 {
        stroke: #347035;
      }

      .cls-6, .cls-7, .cls-15, .cls-17, .cls-26 {
        stroke: #dda766;
      }

      .cls-7, .cls-11, .cls-21, .cls-24 {
        stroke-dasharray: 0 0 3.52 5.29;
      }

      .cls-9 {
        stroke-dasharray: 0 0 4.05 6.07;
      }

      .cls-35 {
        fill: #fff;
      }

      .cls-10 {
        stroke-dasharray: 0 0 3.38 5.06;
      }

      .cls-11 {
        stroke: #dcf4dc;
      }

      .cls-12 {
        stroke-dasharray: 0 0 3.29 4.94;
      }

      .cls-14 {
        stroke-dasharray: 0 0 3.48 5.22;
      }

      .cls-48 {
        fill: #ddc7bc;
      }

      .cls-15 {
        stroke-dasharray: 0 0 3.35 5.02;
      }

      .cls-16 {
        stroke-dasharray: 0 0 3.47 5.21;
      }

      .cls-17, .cls-34 {
        stroke-dasharray: 0 0 3.59 5.38;
      }

      .cls-18 {
        stroke-dasharray: 0 0 3.25 4.88;
      }

      .cls-19 {
        stroke-dasharray: 0 0 3.48 5.22;
      }

      .cls-36 {
        fill: #0d141e;
      }

      .cls-43, .cls-49 {
        fill: #dda766;
      }

      .cls-20 {
        stroke-dasharray: 0 0 3.83 5.74;
      }

      .cls-37 {
        fill: #fbb;
      }

      .cls-38, .cls-40 {
        fill: #c4e8c4;
      }

      .cls-39 {
        fill: #495368;
      }

      .cls-50 {
        fill: #efe8e6;
      }

      .cls-22 {
        stroke-dasharray: 0 0 3.67 5.5;
      }

      .cls-47 {
        fill: #efa8bd;
      }

      .cls-40 {
        stroke-width: 1.5px;
      }

      .cls-44 {
        fill: #f1a791;
      }

      .cls-25 {
        stroke-dasharray: 0 0 3.22 4.83;
      }

      .cls-27 {
        stroke-dasharray: 0 0 2.81 3.75;
      }

      .cls-28 {
        stroke-dasharray: 0 0 3.62 5.43;
      }

      .cls-41 {
        fill: #3f3f3f;
      }

      .cls-42 {
        fill: #f4f3e7;
      }

      .cls-29 {
        stroke-dasharray: 0 0 3.46 5.19;
      }

      .cls-30 {
        stroke-dasharray: 0 0 3.31 4.96;
      }

      .cls-32 {
        stroke-dasharray: 0 0 4.01 6.01;
      }
    </style>
  </defs>
  <path class="cls-46" d="M324.49,510.75c.46,2.77,1.33,6.83,3.08,11.52,1.45,3.87,2.71,6.07,3.72,8.22,3.05,6.49,3.51,11.95,4.31,18.79,1.08,9.19,2.73,20.55,5.07,35.27,1.43-.4,3.7-.84,6.48-.6,3.06,.26,5.4,1.24,6.78,1.94,.15-.4,.87-2.14,2.65-2.81,.52-.19,1-.25,1.39-.26,.62-11.14,.52-20.4,.26-27.14-.45-11.99-1.4-16.66-2.02-19.31-1.89-8-4.81-14.2-7.04-18.25-.48-.82-.96-1.78-1.38-2.88-.91-2.36-1.21-4.51-1.3-6.14-.5-7.39-1-14.79-1.49-22.18-2.67-4.31-7.53-6.74-12.44-6.22-5.47,.57-10.06,4.69-11.33,10.22,1.09,6.62,2.18,13.23,3.26,19.85Z"/>
  <path class="cls-42" d="M272.46,591.62c1.2-2.35,2.39-4.69,3.59-7.04,1.67-3.75,7.5-6.48,14.3-6.77,7.41-.31,14.41,2.36,16.58,6.41,.96,2.47,1.93,4.94,2.89,7.41-.49,.39-7.19,5.55-19.14,5.41-11.39-.13-17.63-4.96-18.22-5.43Z"/>
  <path class="cls-46" d="M275.7,508.63c1.45,6.16,2.58,10.99,3.33,14.1,.18,.73,.54,2.26,.88,4.34,.26,1.6,.44,3.12,.55,4.53-.56,7.81-.78,16.52-.39,25.97,.46,10.99,1.66,20.94,3.17,29.66,1.06,4.59,5.22,7.64,9.49,7.27,3.53-.31,6.64-2.92,7.73-6.56,.76-4.53,1.78-11.02,2.84-18.89,.92-6.83,1.31-10.24,1.62-13.82,.49-5.73,.58-14.1-1.56-24.68,.02-1.54,0-3.13-.06-4.76-.2-5.66-.87-10.87-1.77-15.54-1.31-8.25-2.62-16.5-3.93-24.75-.21-.38-4.02-6.83-11.56-7.11-5.25-.19-10.21,2.69-12.74,7.41,.8,7.61,1.6,15.22,2.4,22.83Z"/>
  <path class="cls-42" d="M309.82,595.26c-5.2-8.62-15.92-8.77-18.8-8.81-2.92-.04-12.94-.18-18.78,7.92-6.05,8.4-2.42,18.45-2.09,19.31,1.68,1.51,8.87,7.62,19.84,7.61,11.65-.01,19.11-6.93,20.62-8.39,.46-1.1,3.93-9.83-.79-17.64Z"/>
  <path class="cls-47" d="M302.23,589.88c-.38,2.18,.89,3.9,1.56,4.8,.71,.97,2.8,3.79,5.95,3.47,2.85-.29,4.3-2.93,4.37-3.07,1.48-2.8-.02-5.6-.26-6.03-.15-.28-1.82-3.26-5.2-3.61-.73-.07-2.83-.16-4.58,1.34-.34,.29-1.54,1.35-1.84,3.11Z"/>
  <path class="cls-47" d="M280.13,589.88c.38,2.18-.89,3.9-1.56,4.8-.71,.97-2.8,3.79-5.95,3.47-2.85-.29-4.3-2.93-4.37-3.07-1.48-2.8,.02-5.6,.26-6.03,.15-.28,1.82-3.26,5.2-3.61,.73-.07,2.83-.16,4.58,1.34,.34,.29,1.54,1.35,1.84,3.11Z"/>
  <g>
    <path class="cls-23" d="M290.77,591.17v1.76"/>
    <path class="cls-4" d="M290.77,597.82v13.82"/>
    <path class="cls-23" d="M290.77,614.08v1.76"/>
  </g>
  <path class="cls-47" d="M290.77,617.68c2.02,.09,3.52-1.99,4.7-3.62,.97-1.35,1.58-2.19,1.37-3.13-.43-1.92-3.94-2.64-6.07-2.64-1.65,0-5.21,.41-5.77,2.35-.35,1.22,.65,2.48,1.86,4.01,1.28,1.62,2.35,2.96,3.92,3.03Z"/>
  <path class="cls-42" d="M360.79,592.73c-.81-1.55-1.91-3.6-4.16-5.42-4.05-3.27-8.81-3.36-10.43-3.39-1.56-.03-5.74-.1-9.66,2.5-2.72,1.81-4.1,4.07-4.9,5.42-4.7,7.89-3.29,17.5-2.7,20.67,1.88,1.73,6.13,5.14,12.46,6.25,11.17,1.96,19.57-4.83,20.87-5.92l9.87-13.87c-.08-1.88-.16-3.76-.24-5.64-.47-.87-1.63-2.74-3.92-4.11-1.9-1.14-3.7-1.4-4.67-1.48,.21,.64,.8,2.76-.2,4.98-.41,.91-.98,1.57-1.42,1.99,.46,1.15,.95,2.67,1.27,4.48,.33,1.88,.33,3.83,.33,3.75-.02-2.28-.37-6.14-2.51-10.21Z"/>
  <path class="cls-47" d="M353.17,587.43c-.31,2.22,.75,3.97,1.3,4.89,.6,.99,2.35,3.86,4.98,3.53,2.39-.3,3.6-2.98,3.66-3.13,1.24-2.85-.02-5.7-.22-6.15-.12-.28-1.52-3.32-4.36-3.68-.61-.08-2.37-.16-3.84,1.37-.28,.3-1.29,1.37-1.54,3.17Z"/>
  <path class="cls-47" d="M337.42,585.19c0,2.2-1.2,3.77-1.83,4.6-.68,.89-2.65,3.47-5.03,2.83-2.15-.58-2.92-3.34-2.96-3.49-.77-2.92,.75-5.55,.99-5.96,.15-.26,1.83-3.05,4.47-3.05,.57,0,2.2,.13,3.35,1.8,.22,.32,1,1.49,1.01,3.27Z"/>
  <g>
    <path class="cls-13" d="M283.92,534.74c.08,.44,.19,.87,.32,1.28"/>
    <path class="cls-27" d="M286.07,539.26c.74,.77,1.58,1.25,2.44,1.35,2.1,.24,4.83-1.76,5.86-5.19"/>
    <path class="cls-13" d="M294.73,533.58c.04-.43,.06-.87,.05-1.32"/>
  </g>
  <g>
    <path class="cls-13" d="M333.91,529.52c.13,.43,.27,.85,.44,1.25"/>
    <path class="cls-2" d="M336.31,533.72c.76,.71,1.59,1.12,2.38,1.13,1.9,.01,4.08-2.31,4.55-5.87"/>
    <path class="cls-13" d="M343.32,527.19c-.01-.43-.05-.87-.12-1.32"/>
  </g>
  <g>
    <path class="cls-23" d="M344.4,587.94c-.3,.47-.61,.97-.92,1.5"/>
    <path class="cls-34" d="M341.11,594.26c-.29,.7-.56,1.43-.81,2.2-1.6,4.77-2.02,9.17-1.97,12.69"/>
    <path class="cls-23" d="M338.45,611.84c.05,.63,.11,1.22,.18,1.75"/>
  </g>
  <path class="cls-47" d="M337.79,614.25c1.56,.19,2.86-1.81,3.87-3.37,.84-1.3,1.37-2.11,1.27-3.05-.21-1.94-2.87-2.83-4.52-2.95-1.27-.09-4.06,.14-4.62,2.05-.35,1.2,.34,2.51,1.17,4.1,.88,1.68,1.62,3.08,2.83,3.23Z"/>
  <path class="cls-42" d="M272.46,591.62c1.2-2.35,2.39-4.69,3.59-7.04,1.67-3.75,7.5-6.48,14.3-6.77,7.41-.31,14.41,2.36,16.58,6.41,.96,2.47,1.93,4.94,2.89,7.41-.49,.39-7.19,5.55-19.14,5.41-11.39-.13-17.63-4.96-18.22-5.43Z"/>
  <g>
    <path class="cls-13" d="M283.92,534.74c.08,.44,.19,.87,.32,1.28"/>
    <path class="cls-27" d="M286.07,539.26c.74,.77,1.58,1.25,2.44,1.35,2.1,.24,4.83-1.76,5.86-5.19"/>
    <path class="cls-13" d="M294.73,533.58c.04-.43,.06-.87,.05-1.32"/>
  </g>
  <path class="cls-39" d="M287.06,455.44c-6.67,.1-12.42,4.96-13.63,11.56,1.64,44.72,2.72,62.29,3.46,66.87,.12,.74,.38,2.08,.24,3.94-.46,6.14-4.52,7.77-4.3,11.85,.22,4.03,4.68,4.56,4.44,7.7-.34,4.46-9.3,6.19-8.89,9.04,.26,1.82,3.93,1.33,5.33,3.7,2.94,4.96-8.6,14.67-6.37,18.37,.87,1.44,3.95,2.19,13.19-.3,2.41-.8,6.03-1.71,10.48-1.73,4.64-.03,8.4,.91,10.85,1.73,3.44,2.45,7.59,2.98,10.81,1.33,.58-.29,3.61-1.84,4.3-4.89,1.34-5.96-7.91-10.56-6.22-15.7,.76-2.32,2.92-2.18,3.11-4.28,.36-3.93-6.99-5.97-6.67-9.94,.19-2.34,2.87-2.3,3.56-5.33,.6-2.63-.81-4.4-2.96-9.48-1.15-2.7-1.93-5.55-2.96-8.3-1.86-4.93-3.45-22.04-3.85-65.19-1.48-6.47-7.32-11.06-13.93-10.96Z"/>
  <path class="cls-6" d="M279.89,491.91c.92,14.68,1.83,29.35,2.75,44.03-.1,1.38-.4,3.38-1.36,5.57-1.15,2.64-2.15,3.01-2.22,4.67-.09,1.99,1.3,2.52,3.11,6.22,1.43,2.92,2.14,4.39,1.78,5.78-.9,3.47-6.73,3.43-7.11,6.44-.2,1.58,1.37,1.87,2,4.44,.39,1.62,.16,3.1-1.78,8.22-.83,2.2-1.94,4.97-3.35,8.13"/>
  <path class="cls-39" d="M316.09,475.74c5.58,23.26,11.16,46.52,16.74,69.78,.17,1.1,.27,2.69-.22,4.44-1.13,4.01-4.27,5-4,7.33,.28,2.38,3.67,2.47,4,4.89,.35,2.55-3.62,3.53-3.78,6.67-.13,2.68,2.66,3.13,3.19,6.1,.86,4.8-5.64,7.91-4.47,10.88,.86,2.18,5.12,2.47,8.87,2.74,5.17,.36,6.28-.61,10.17-.61,9.51,.01,12.02,5.85,18.37,3.93,2.81-.85,5.88-3.08,6.07-5.63,.08-1.07-.36-1.96-2.52-4.74-5.04-6.5-7.26-7.63-6.96-9.63,.38-2.62,4.5-2.97,4.44-5.19-.06-2.39-4.88-3.06-5.04-5.78-.11-1.87,1.79-2.3,2.52-4.74,1-3.39-1.78-5.96-3.58-10.58-1.92-4.93-1.38-8.7-1.46-11.64-.11-4.05-3.11-17.08-15.7-56.3-1.32-10.91-10.77-16.94-17.48-15.11-4.78,1.3-8.56,6.69-9.19,13.19Z"/>
  <path class="cls-6" d="M338.39,476.85c4.74,17.55,9.48,35.1,14.22,52.64h0s0,.02,0,.02c1.01,3.75,1.04,6.63,1.11,8.67,.21,6.08,.31,9.12,1.56,11.33,.91,1.62,1.59,1.94,1.78,3.33,.42,3.08-2.51,4.29-2.22,6.89,.34,3.13,4.82,3.55,4.89,6.22,.07,2.65-4.28,3.41-4.44,6.44-.09,1.63,1.09,2.68,4,5.78,1.68,1.79,4.07,4.42,6.89,7.78"/>
  <g>
    <path class="cls-23" d="M285.87,574.85c.52,.18,1.08,.36,1.68,.53"/>
    <path class="cls-29" d="M292.66,576.28c.3,.02,.61,.04,.92,.05,5.53,.22,10.13-1.37,13.34-2.97"/>
    <path class="cls-23" d="M309.18,572.1c.58-.35,1.07-.68,1.47-.96"/>
  </g>
  <path class="cls-24" d="M277.28,557.37c2.13,1.09,5.82,2.65,10.67,3.04,4.53,.37,8.21-.44,10.44-1.11"/>
  <path class="cls-24" d="M336.39,575.52c1.79,.68,4.46,1.46,7.78,1.56,4.62,.13,8.22-1.13,10.22-2"/>
  <path class="cls-24" d="M360.39,555.96c-2.06,1.09-5.25,2.43-9.33,2.89-2.21,.25-4.18,.18-5.78,0"/>
  <path class="cls-36" d="M309.82,595.26c-5.2-8.62-15.92-8.77-18.8-8.81-2.92-.04-12.94-.18-18.78,7.92-6.05,8.4-2.42,18.45-2.09,19.31,1.68,1.51,8.87,7.62,19.84,7.61,11.65-.01,19.11-6.93,20.62-8.39,.46-1.1,3.93-9.83-.79-17.64Z"/>
  <path class="cls-43" d="M302.23,589.88c-.51,1.94,1.1,4.17,1.56,4.8,1.27,1.75,3.78,3.81,5.95,3.47,2.92-.46,5.69-5.32,4.76-11.96-6.57-1.05-11.54,.94-12.27,3.69Z"/>
  <path class="cls-43" d="M280.13,589.88c.53,1.92-1.08,4.14-1.56,4.8-1.26,1.73-3.79,3.86-5.95,3.47-2.8-.51-5.35-5.28-4.34-11.74,6.31-1.08,11.11,.81,11.85,3.47Z"/>
  <g>
    <path class="cls-6" d="M290.77,591.17v1.76"/>
    <path class="cls-26" d="M290.77,597.82v13.82"/>
    <path class="cls-6" d="M290.77,614.08v1.76"/>
  </g>
  <path class="cls-43" d="M290.77,617.68c2.02,.09,3.52-1.99,4.7-3.62,.97-1.35,1.58-2.19,1.37-3.13-.43-1.92-3.94-2.64-6.07-2.64-1.65,0-5.21,.41-5.77,2.35-.35,1.22,.65,2.48,1.86,4.01,1.28,1.62,2.35,2.96,3.92,3.03Z"/>
  <path class="cls-36" d="M360.79,592.73c-.81-1.55-1.91-3.6-4.16-5.42-4.05-3.27-8.81-3.36-10.43-3.39-1.56-.03-5.74-.1-9.66,2.5-2.72,1.81-4.1,4.07-4.9,5.42-4.7,7.89-3.29,17.5-2.7,20.67,1.88,1.73,6.13,5.14,12.46,6.25,11.17,1.96,19.57-4.83,20.87-5.92l9.87-13.87c-.08-1.88-.16-3.76-.24-5.64-.22-.55-.63-1.37-1.37-2.18-.57-.62-1.16-1.03-1.6-1.29-.63,.55-1.65,1.29-3.06,1.81-.99,.36-1.88,.51-2.56,.57l-1.6,2.48c.46,1.15,.95,2.67,1.27,4.48,.33,1.88,.33,3.83,.33,3.75-.02-2.28-.37-6.14-2.51-10.21Z"/>
  <path class="cls-43" d="M353.17,587.43c-.31,2.22,.75,3.97,1.3,4.89,.29,.48,2.46,3.64,4.98,3.53,2.63-.12,5.5-3.81,5.48-9.22-4.08-3.34-8.52-3.93-10.41-2.18-1.06,.98-1.33,2.71-1.37,2.98Z"/>
  <path class="cls-43" d="M337.42,585.19c0,2.2-1.2,3.77-1.83,4.6-.89,1.17-3.31,3.37-5.03,2.83-1.93-.61-2.97-4.69-1.96-10.15,1.57-.48,6.78-1.97,7.81-.55,.04,.06,1,.04,1.01,3.27Z"/>
  <g>
    <path class="cls-6" d="M344.4,587.94c-.3,.47-.61,.97-.92,1.5"/>
    <path class="cls-17" d="M341.11,594.26c-.29,.7-.56,1.43-.81,2.2-1.6,4.77-2.02,9.17-1.97,12.69"/>
    <path class="cls-6" d="M338.45,611.84c.05,.63,.11,1.22,.18,1.75"/>
  </g>
  <path class="cls-43" d="M337.79,614.25c1.56,.19,2.86-1.81,3.87-3.37,.84-1.3,1.37-2.11,1.27-3.05-.21-1.94-2.87-2.83-4.52-2.95-1.27-.09-4.06,.14-4.62,2.05-.35,1.2,.34,2.51,1.17,4.1,.88,1.68,1.62,3.08,2.83,3.23Z"/>
  <g>
    <path class="cls-39" d="M402.68,273.73c-1.98,3.72-4.64,9.63-5.91,17.26-1.69,10.13-3.76,18.38,.4,25.66,2.03,3.55,4.21,4.69,4.6,8.47,.34,3.3-1.07,4.95-3.26,11.25-2.1,6.06-3.16,9.08-2.96,11.41,.64,7.63,8.68,7.8,10.67,15.56,2.12,8.29-5.73,13.32-2.22,20,1.11,2.11,3.11,3.63,7.11,6.67,3.29,2.5,6.3,4.19,8.47,5.28,2.35,1.94,4.71,3.89,7.06,5.83,2.19,.14,4.38,.28,6.56,.42,.21,.56,.83,1.96,2.34,3.05,1.5,1.09,3.03,1.24,3.62,1.27,3.09-.6,5.6-1.43,7.44-2.15,2.44-.96,7.02-2.81,11.45-6.95,.63-.59,1.13-1.1,1.47-1.47,.08-1.23,.07-2.77-.2-4.5-.2-1.34-.51-2.52-.84-3.5,.27-.45,.64-1.14,.96-2.03,.52-1.48,.61-2.75,.71-4.3,.04-.63,.07-1.44,.05-2.4,1.22-1.27,2.9-3.2,4.54-5.79,1.79-2.82,3.86-6.09,4.15-9.32,.57-6.38-6.3-7.91-9.88-16.52-3.71-8.9,1.77-11.71-1.69-19.59-3.79-8.62-11.37-7.61-17.33-16.89-4.32-6.73-1.15-8.55-4.6-18.63-2.99-8.74-11.55-18.24-28.53-36.88-2.37-2.6-4.32-4.71-5.59-6.07"/>
    <path class="cls-36" d="M433.18,401.54c1.81-2.43,4.94-5.98,9.77-8.99,6.25-3.9,12.24-4.93,15.52-5.26,.63,2.8,1.27,5.59,1.9,8.39-4.24,2.85-8.02,5.12-11.08,6.87-5.56,3.18-8.99,4.74-11.43,3.6-1.75-.82-3.13-2.35-3.13-2.35-.76-.85-1.25-1.67-1.55-2.27Z"/>
    <g>
      <path class="cls-23" d="M406.26,369.01c.31-.45,.66-.92,1.04-1.42"/>
      <path class="cls-19" d="M410.7,363.64c2.08-2.13,4.7-4.37,7.95-6.38,7.81-4.83,15.6-6.05,20.82-6.26"/>
      <path class="cls-23" d="M442.08,350.98c.67,.01,1.26,.04,1.76,.07"/>
    </g>
    <g>
      <path class="cls-23" d="M445.64,316.56c-.36-.27-.85-.62-1.45-1"/>
      <path class="cls-28" d="M439.34,313.14c-2.22-.82-4.9-1.45-7.96-1.49-6.78-.09-12,2.76-15.17,5.15"/>
      <path class="cls-23" d="M414.12,318.54c-.61,.57-1.03,1.01-1.25,1.24"/>
    </g>
    <g>
      <path class="cls-23" d="M433.32,390.45c.42-.36,.87-.74,1.35-1.13"/>
      <path class="cls-9" d="M439.6,385.8c2.54-1.59,5.56-3.16,9.04-4.46,2.41-.9,4.7-1.54,6.81-1.99"/>
      <path class="cls-23" d="M458.45,378.8c.6-.09,1.19-.17,1.74-.24"/>
    </g>
    <path class="cls-6" d="M400.57,255.34c6.95,7.07,14.05,15.4,20.74,25.19,1.57,2.29,3.05,4.57,4.44,6.81,.99,1.43,2.38,3.74,3.26,6.81,1.61,5.62-.12,7.97,.89,13.04,1.28,6.44,5.68,10.75,7.11,12.15,5.57,5.45,9.48,4.2,11.56,8.59,1.69,3.57-.68,4.84,0,11.85,.2,2.07,.86,8.21,4.74,13.93,3.46,5.1,6.17,4.97,6.52,8.3,.37,3.46-2.19,7.29-4.44,10.67-1.34,2-2.49,3.26-2.96,5.63-.43,2.13-.08,4.03,.3,5.33"/>
  </g>
  <g>
    <path class="cls-39" d="M211.16,255.79c-3.87,2.04-6.72,4.11-8.6,5.61-5.87,4.69-6.72,7.42-11.63,9.55-4.26,1.85-5.08,.43-7.82,2.34-4.71,3.28-3.16,8.01-7.16,10.62-4.19,2.73-7.82-1.45-11.61,.98-4.97,3.18-.64,11.55-6.1,17.32-4.29,4.53-9.49,2.04-12.33,6.66-2.38,3.87,.88,6.25-.89,12.15-2.22,7.37-8.79,8.55-8.31,13.2,.26,2.55,2.29,2.65,6.46,7.34,5.02,5.65,4.66,8.4,9.2,14.39,1.88,2.48,4.95,5.97,9.8,9.48,.26,.11,.68,.26,1.21,.26,.93,0,1.58-.44,1.82-.62,2.02-.47,4.04-.93,6.06-1.4,1.28,.52,2.55,1.04,3.83,1.55,2.12-1.36,5.49-3.9,8.38-8.12,2.48-3.62,3.65-7.08,4.23-9.38-.85-1.01-1.7-2.02-2.54-3.03-.84-2.22-1.62-5.31-.14-7.37,1.77-2.47,5.11-1.17,7.09-3.59,2.22-2.72-.88-5.74,.49-11.08,1.29-5.03,4.52-4.25,6.35-9.63,1.94-5.71-.89-9.05,1.95-12.28,1.75-1.98,3.43-1.41,5.09-3.52,1.94-2.47,1.73-5.93,1.17-8.61"/>
    <path class="cls-36" d="M172.2,364.05c.31-2.34,1.22-6.86,4.42-11.5,2.97-4.31,6.52-6.7,8.53-7.86,.85,1.01,1.7,2.02,2.54,3.03-.39,2.2-1.31,5.7-3.64,9.4-2.78,4.41-6.22,6.96-8.22,8.22-1.21-.43-2.42-.86-3.63-1.29Z"/>
    <g>
      <path class="cls-23" d="M173.59,284.81c.46-.02,1.06-.03,1.76-.01"/>
      <path class="cls-30" d="M180.27,285.32c3.5,.68,7.64,2.17,11.25,5.4,.36,.32,.7,.65,1.03,.98"/>
      <path class="cls-23" d="M194.19,293.57c.38,.48,.72,.96,1.03,1.43"/>
    </g>
    <g>
      <path class="cls-23" d="M192.24,325.17c-.06-.46-.14-1.05-.28-1.74"/>
      <path class="cls-20" d="M190.09,318.02c-.64-1.3-1.48-2.64-2.56-3.97-2.94-3.6-6.49-5.55-9.31-6.6"/>
      <path class="cls-23" d="M175.47,306.61c-.75-.18-1.35-.28-1.72-.34"/>
    </g>
    <g>
      <path class="cls-23" d="M137.74,330.86c.44-.33,.92-.67,1.43-1.02"/>
      <path class="cls-25" d="M143.36,327.44c1.63-.78,3.46-1.5,5.5-2.05,9.73-2.65,18.39-.05,23.38,2.13"/>
      <path class="cls-23" d="M174.43,328.55c.64,.33,1.16,.62,1.55,.84"/>
    </g>
    <path class="cls-6" d="M209.68,261.35c-1.44,1.32-3.33,3.15-5.41,5.44-5.33,5.87-5.89,8.66-9.78,10.07-2.9,1.06-4.33,.36-6.52,2.07-2.88,2.25-2.01,4.7-5.33,8-.76,.75-2.69,2.63-5.66,3.48-3.68,1.05-5.05-.57-6.79,.67-2.02,1.45-.72,4.06-2.67,9.48-.87,2.43-1.47,4.11-2.96,5.63-3.86,3.94-8.61,1.63-10.96,5.04-.97,1.4-.1,1.7-.89,7.41-.66,4.76-.99,7.13-2.67,9.19-2.26,2.77-4.73,2.38-5.04,4.15-.38,2.21,3.43,3.04,6.52,7.7,2.32,3.51,1.08,4.4,3.85,9.78,1.87,3.62,3.39,6.46,6.52,7.7,2.69,1.07,5.36,.47,6.81,0"/>
  </g>
  <g>
    <path class="cls-39" d="M301.79,401.55c23.33,5.26,40.56,3.19,43.98,2.74,7.26-.95,13.54-2.54,18.66-4.18-1.2-30.64-3.42-62.75-6.92-96.18-1.77-16.87-3.78-33.31-6-49.33-1.99-2.57-5.2-6.15-9.92-9.4-2.65-1.82-8.62-5.93-16.18-6.79-4.58-.52-8.92,.26-21.76,6.12-6.62,3.03-15.5,7.41-25.74,13.45-2.88,21.76-9.29,49.81-23.89,79.68-5.44,11.12-11.28,21-17.08,29.68-.47,.56-1.22,1.63-1.5,3.13-.29,1.58,.09,2.83,.29,3.52,1.34,4.45,7.67,10.43,8.09,10.82v12.57c1.98,.7,5.27,1.72,9.43,2.25,12.48,1.6,18.76-2.96,29.85-2.8,6.62,.1,5.63,1.74,18.7,4.69Z"/>
    <path class="cls-23" d="M300.62,390.85c3.78,.94,8.82,2,14.82,2.73,7.86,.96,13.54,.88,20.81,.79,12.19-.16,16.22-1.19,17.94-1.68,4.21-1.19,7.52-2.78,9.76-4"/>
    <path class="cls-23" d="M300.62,390.85c-5.42-1.94-15.9-5.29-22.2-4.06-.36,.07-4.07,.81-8.89,2-2.96,.73-3.02,.81-4.35,1.09-4.09,.85-7.33,.87-10.18,.88-2.93,0-6.75-.18-11.19-.91"/>
    <path class="cls-24" d="M359.43,395.94c-6.6,1.56-14.62,2.91-23.78,3.33-11.58,.53-21.6-.57-29.45-2.02-1.15-.21-4.84-1.57-10.09-2.98-7.91-2.13-10.8-2.42-12.73-2.52-.96-.05-4.44-.2-8.93,.44-5.37,.77-5.81,1.77-10.92,2.44-3.81,.5-6.86,.37-9.54,.26-3.48-.14-6.45-.53-8.75-.91"/>
    <path class="cls-43" d="M246.92,374.3c1-4.36,2.75-9.84,5.92-15.68,6.01-11.08,14.1-17.84,19.14-21.4,1.56,1.33,3.11,2.67,4.67,4-4.24,3.07-10.73,8.6-16.22,17.33-4.98,7.92-7.18,15.38-8.22,20.3-1.76-1.52-3.52-3.04-5.28-4.56Z"/>
    <path class="cls-43" d="M342.06,374.3c-1-4.36-2.75-9.84-5.92-15.68-6.01-11.08-14.1-17.84-19.14-21.4-1.56,1.33-3.11,2.67-4.67,4,4.24,3.07,10.73,8.6,16.22,17.33,4.98,7.92,7.18,15.38,8.22,20.3,1.76-1.52,3.52-3.04,5.28-4.56Z"/>
    <path class="cls-31" d="M252.2,378.86c.93,.67,2.27,1.8,3.41,3.56,.75,1.15,1.2,2.25,1.48,3.11"/>
    <path class="cls-31" d="M336.78,378.86c-1.06,.81-2.64,2.25-3.91,4.48-.86,1.51-1.31,2.93-1.56,4"/>
    <path class="cls-45" d="M301.73,245.66c-.21,2.49-.18,6.77,1.96,11.28,1.17,2.46,3.03,6.37,6.62,7.34,2.9,.78,5.81-.68,9.48-3.31,4.42-3.17,11.03-8.81,17.48-18.5-2.05-.98-5.03-2.23-8.79-3.13-2.62-.63-4.54-1.1-7.08-1.01-1.6,.06-3.67,.33-10.26,3.05-2.4,.99-5.64,2.4-9.42,4.28Z"/>
    <path class="cls-11" d="M342.78,245.84c-1.99,3.58-5.25,8.71-10.27,14-4.57,4.81-16.53,17.41-24.91,14.13-3.99-1.56-5.82-6.19-7.8-11.22-2.45-6.19-2.58-11.77-2.39-15.11"/>
    <path class="cls-40" d="M297.66,291.67c-.94-.68-11.01,6.91-13.49,18.78-1.99,9.55,1.81,17.7,3.7,21.16-.56-4.82-.81-11.72,1.06-19.57,3-12.61,9.57-19.76,8.73-20.36Z"/>
    <path class="cls-40" d="M306.38,332.14c-.78-.64,8.59-8.44,10.84-22.75,1.65-10.47-1.49-18.17-.26-18.51,1.28-.36,6.53,7.49,6.35,16.4-.3,15.06-15.96,25.65-16.93,24.86Z"/>
    <path class="cls-40" d="M296.33,331.61c-1.86-.49-.89-11.72,1.32-20.89,3.21-13.3,10.03-26.33,12.17-25.65,2.17,.69-.37,15.58-3.97,26.98-2.69,8.51-7.56,20.09-9.52,19.57Z"/>
  </g>
  <g>
    <g>
      <path class="cls-38" d="M61.15,159.14c-1.57,.6-5.54-4.1-6.82-9.25-.11-.45-1.72-7.42,2.44-12.67,.5-.63,2.51-3.16,3.78-2.68,1.38,.52,.73,4.2,.67,10.9-.09,9.76,1.18,13.22-.07,13.7Z"/>
      <path class="cls-39" d="M85.96,120.39c5.05,2.98,6.36,8.79,7.71,14.72,2.17,9.57,.95,17.12,0,22.67-1.33,7.76-2.1,11.84-5.69,14.27-4.78,3.23-11.06,1.18-12.09,.84-9.03-2.96-13.9-13.17-15.11-20.89-2.4-15.25,7.68-32.27,17.78-33.33,3.72-.39,6.9,1.43,7.4,1.73Z"/>
      <path class="cls-43" d="M67.27,127.08c1.26,.75-1.62,5.96-2.89,12.4-2.75,13.9,3.57,25.13,1.64,25.93-1.12,.46-3.66-3.4-4.3-4.38-4.38-6.66-3.99-13.73-3.78-16.89,.23-3.42,.7-9.25,4.89-14,.15-.17,3.33-3.74,4.45-3.07Z"/>
    </g>
    <g>
      <path class="cls-48" d="M140.47,210.13c2.77-.01,5.58-.04,8.42-.09,2.51-.04,4.99-.1,7.45-.17,.02,.76,.1,1.72,.37,2.8,.26,1.05,.62,1.92,.95,2.59-1.06,.7-3.99,2.44-8.12,2.4-4.08-.04-6.95-1.8-8-2.52-.02-.51-.06-1.06-.15-1.66-.2-1.33-.56-2.46-.93-3.35Z"/>
      <g>
        <g>
          <path class="cls-45" d="M91.84,166.26c1.37,11.3,3.2,14.34,4.7,16.18,1.38,1.7,3.29,3.39,4.7,6.79,1.56,3.78,.81,5.62,1.57,8.09,1.81,5.93,10.11,8.43,16.18,10.18,7.06,2.03,13.84,2.76,24.79,2.61,16.82-.22,25.22-.33,32.62-3.65,11.89-5.33,18.32-14.7,20.88-18.53,11.85-17.74,12.35-41.17,5.22-59.51-7.71-19.83-28.92-45.45-58.46-43.59-31.73,2-50.05,34.25-52.98,52.98-1.5,9.61,.02,22.19,.78,28.45Z"/>
          <path class="cls-50" d="M126.76,164.73c1.01,.97,2.54,2.7,3.63,5.32,2.04,4.91,2.15,12.08-1.5,16.44-2.35,2.82-5.34,3.35-8.53,3.91-1.68,.3-8.98,1.37-15.55-3.65-1.09-.83-3.05-2.36-4.74-5.21-2.12-3.57-2.59-7.13-2.71-8.96,3.12-3.9,6.22-5.74,8.16-6.65,4.54-2.12,8.81-1.99,14.38-1.82,2.88,.09,5.25,.37,6.85,.61Z"/>
          <path class="cls-50" d="M164.79,163.52c-.73,1.6-1.91,4.81-1.57,8.87,.12,1.42,.64,7.55,5.87,11.61,4.08,3.17,9.37,3.83,13.57,2.61,8.83-2.55,11.86-12.8,12.79-15.92,.98-3.3,1.17-6.17,1.17-8.09-3.9-1.12-9.73-2.3-16.84-1.98-6.28,.28-11.41,1.64-15,2.9Z"/>
          <path class="cls-44" d="M101.48,189.87c1.69-1.13,5.09-3.08,9.73-3.45,1.69-.13,10.22-.81,15.46,5.68,3.8,4.7,4.47,11.44,1.87,17.36-4.11-.63-7.52-1.43-10.07-2.11-.72-.19-5.04-1.37-9.7-3.65-1.09-.54-2.49-1.27-3.81-2.73-.55-.61-1.62-1.82-2.18-3.65-.46-1.52-.16-2.13-.56-4.44-.23-1.32-.54-2.37-.76-3.01Z"/>
          <g>
            <path class="cls-13" d="M104.95,191.52c.45-.22,.99-.46,1.61-.7"/>
            <path class="cls-18" d="M111.28,189.6c2.17-.33,5.11-.42,8.16,.94,1.11,.5,4.44,1.98,6.26,5.77,.81,1.69,1.09,3.34,1.12,4.77"/>
            <path class="cls-13" d="M126.62,203.51c-.15,.82-.34,1.42-.43,1.71"/>
          </g>
          <path class="cls-44" d="M174.24,207.32c-.88-.83-3.99-3.94-4.5-8.95-.04-.35-.63-7.43,4.89-12.14,4.86-4.14,11.84-4.23,16.64-1.37,2.51,1.5,3.99,3.54,4.77,4.87-1.78,2.63-4.32,5.83-7.85,8.97-5.14,4.57-10.3,7.16-13.95,8.63Z"/>
          <g>
            <path class="cls-13" d="M176,202.58c-.29-.33-.68-.8-1.06-1.41"/>
            <path class="cls-1" d="M173.65,196.87c-.11-3.79,2.36-6.6,2.59-6.85,2.74-3.03,6.42-3.25,7.57-3.26,1.71-.02,3.18,.38,4.37,.9"/>
            <path class="cls-13" d="M190.15,188.77c.71,.5,1.17,.94,1.36,1.12"/>
          </g>
          <path class="cls-43" d="M115.24,164.12c-1.57,.45-3.87,1.37-5.61,3.45-4.91,5.85-3.07,18.05,4.05,21.14,3.63,1.58,8.66,.79,11.75-2.22,2.85-2.78,3.13-6.41,3.28-8.37,.35-4.66-1.54-8.19-2.41-9.59-1.11-1.78-2.37-3.02-3.28-3.8-2.59-.2-5.18-.41-7.76-.61Z"/>
          <path class="cls-43" d="M171.36,161.69c-1.24,1.81-2.67,4.5-3.18,7.96-.3,2.01-.95,8.67,3.52,13.7,1.12,1.26,3.09,3.48,6.14,3.81,5.73,.63,9.8-6.01,10.05-6.42,3.46-5.84,1.18-12.23,.65-13.7-1.1-3.06-2.8-5.19-3.92-6.39-1.88-.05-3.93-.02-6.13,.13-2.61,.18-5,.51-7.13,.91Z"/>
          <path class="cls-35" d="M118.04,166.92c-.76,1.61-2.09,4.99-1.9,9.43,.19,4.48,1.84,7.76,2.75,9.3,.75-1.77,1.96-5.25,1.7-9.74-.24-4.18-1.65-7.31-2.54-8.98Z"/>
          <path class="cls-35" d="M178.86,163.65c-.76,1.61-2.09,4.99-1.9,9.43,.19,4.48,1.84,7.76,2.75,9.3,.75-1.77,1.96-5.25,1.7-9.74-.24-4.18-1.65-7.31-2.54-8.98Z"/>
          <path class="cls-3" d="M91.84,166.26c1.37,11.3,3.2,14.34,4.7,16.18,1.38,1.7,3.29,3.39,4.7,6.79,1.56,3.78,.81,5.62,1.57,8.09,1.81,5.93,10.11,8.43,16.18,10.18,7.06,2.03,13.84,2.76,24.79,2.61,16.82-.22,25.22-.33,32.62-3.65,11.89-5.33,18.32-14.7,20.88-18.53,11.85-17.74,12.35-41.17,5.22-59.51-7.71-19.83-28.92-45.45-58.46-43.59-31.73,2-50.05,34.25-52.98,52.98-1.5,9.61,.02,22.19,.78,28.45Z"/>
          <path class="cls-37" d="M141.35,192.73s.87,1.92,2.58,2.28c1.5,.32,3.01-.69,4.1-1.67,.91,1.25,2.43,1.9,3.95,1.67,2.29-.35,3.17-2.48,3.21-2.57-.73,1.82-3.08,7.16-6.48,7.28-3.99,.14-7.33-7-7.35-6.99Z"/>
          <path class="cls-41" d="M163.22,163c-.31-.68,4.27-3.59,7.05-4.96,4.12-2.02,12.67-4.76,27.27,0-.3,1.52-.61,3.04-.91,4.57-4.9-1.36-9.04-1.81-12.01-1.96-7.82-.38-14.52,1.01-15.27,1.17-3.56,.76-5.92,1.64-6.13,1.17Z"/>
          <path class="cls-41" d="M96.32,165.68c1.79-1.37,3.9-2.64,6.37-3.61,12.57-4.92,25.06,1.71,28.01,3.37-6.59-1.29-12.1-1.34-15.99-1.12-8.19,.46-11.41,2.25-12.88,3.2-2.17,1.4-3.66,3.02-4.6,4.2-.3-2.01-.6-4.03-.9-6.04Z"/>
          <path class="cls-13" d="M117.4,155.5c1.48,.03,3.37,.21,5.48,.78,1.45,.39,2.69,.89,3.72,1.37"/>
          <path class="cls-13" d="M165.8,155.5c1.06-.76,2.36-1.58,3.92-2.35,1.42-.7,2.75-1.2,3.92-1.57"/>
        </g>
        <path class="cls-38" d="M114.93,124.42c-.36,4.55-.37,13.29,4.51,22.01,6.17,11.01,18.41,18.91,21.14,16.73,.78-.62,1.17-2.37-.67-7.36,1.7,2.64,4.69,6.5,9.56,9.58,1.7,1.07,6.77,4.28,8.44,2.81,2.12-1.85-2.45-10.03-2.81-10.67,1.14,1.22,2.19,1.76,3.15,1.63,3.75-.52,6.06-11.43,6.93-32.74,1.82,6.69,5.98,18.22,15.89,29.02,5.25,5.73,10.68,9.67,15.08,12.33,0,1.48-.24,3.43-1.41,5.19-1.95,2.92-5.09,3.25-4.93,4.31,.16,1.09,3.64,2.14,6.56,1.11,2.54-.9,3.63-3.02,4-2.78,.47,.31-.61,4.13-3.33,7.22-4.94,5.61-12.32,5.48-12.22,6.56,.09,1.07,7.46,2.77,14.78,.67,11.05-3.18,16.97-13.61,19.33-18.56-.1,1.85-.49,4.36-1.89,6.89-1.17,2.12-2.47,3.25-2.22,3.56,.39,.48,4.3-1.36,6.89-4,4.75-4.83,4.79-12,4.77-15.34-.4-54.37-23.95-75.88-23.95-75.88-2.37-2.15-28.43-25.05-63.26-19.56-53.06,8.37-69.33,73.38-68,91.56,.25,3.36,.89,12.18,7.26,18.37,4.94,4.8,12.15,6.88,12.89,5.78,.47-.7-1.85-2.46-4.59-6.67-2.47-3.79-3.83-7.33-4.59-9.78,1.16,2.28,3.11,5.61,6.22,9.04,3.55,3.91,10.88,10.47,13.61,8.78,2.49-1.54-.57-9-1.38-15.11-1.36-10.2,.37-24.97,14.27-44.72Z"/>
        <g>
          <g>
            <path class="cls-8" d="M82.21,166.42c-.23-.51-.46-1.05-.69-1.62"/>
            <path class="cls-16" d="M79.84,159.88c-.46-1.63-.87-3.4-1.18-5.31-.57-3.44-.7-6.58-.62-9.28"/>
            <path class="cls-8" d="M78.18,142.69c.05-.62,.11-1.2,.18-1.75"/>
          </g>
          <g>
            <path class="cls-8" d="M91.25,147.6c-.01-.56-.02-1.15-.01-1.76"/>
            <path class="cls-12" d="M91.47,140.91c.36-4.07,1.19-8.75,2.89-13.75,4.51-13.26,12.82-21.95,18.46-26.71"/>
            <path class="cls-8" d="M114.74,98.89c.51-.39,.97-.75,1.4-1.06"/>
          </g>
          <g>
            <path class="cls-8" d="M139.91,155.8c-.36-.44-.73-.89-1.11-1.37"/>
            <path class="cls-22" d="M135.6,149.96c-.67-1.02-1.33-2.11-1.98-3.25-2.17-3.81-3.72-7.46-4.84-10.72"/>
            <path class="cls-8" d="M127.95,133.37c-.17-.58-.33-1.15-.48-1.69"/>
          </g>
          <g>
            <path class="cls-8" d="M155.1,157.53c-.35-.41-.73-.86-1.12-1.36"/>
            <path class="cls-14" d="M151.13,151.81c-.37-.67-.72-1.38-1.06-2.13-.54-1.2-.98-2.37-1.33-3.46"/>
            <path class="cls-8" d="M148.05,143.7c-.14-.61-.26-1.19-.35-1.73"/>
          </g>
          <g>
            <path class="cls-8" d="M196.15,167.77c.08-.57,.16-1.15,.24-1.74"/>
            <path class="cls-10" d="M196.82,160.98c.15-3.08,.11-6.42-.24-9.97-1.56-15.9-8.45-27.92-13.68-35.12"/>
            <path class="cls-8" d="M181.38,113.87c-.38-.49-.75-.95-1.09-1.38"/>
          </g>
          <g>
            <path class="cls-8" d="M200.36,175.6c.37-.33,.81-.73,1.27-1.22"/>
            <path class="cls-5" d="M204.7,170.23c.19-.34,.38-.7,.55-1.07,.78-1.62,1.26-3.18,1.56-4.57"/>
            <path class="cls-8" d="M207.18,162.03c.06-.68,.07-1.27,.07-1.76"/>
          </g>
          <path class="cls-21" d="M218.87,172.19c.75-2.44,1.39-5.27,1.72-8.44,1.07-10.48-1.94-19.01-4.15-23.85"/>
          <g>
            <path class="cls-8" d="M151.03,106.94c.2,.54,.4,1.09,.6,1.65"/>
            <path class="cls-32" d="M153.45,114.32c.77,2.72,1.46,5.67,2.02,8.84,.49,2.78,.82,5.42,1.04,7.9"/>
            <path class="cls-8" d="M156.73,134.07c.03,.6,.06,1.18,.08,1.76"/>
          </g>
          <path class="cls-21" d="M157.7,82.1c5.13,.81,16.95,3.4,27.56,13.11,6.41,5.87,10.03,12.19,12,16.44"/>
        </g>
        <path class="cls-23" d="M114.93,124.42c-.36,4.55-.37,13.29,4.51,22.01,6.17,11.01,18.41,18.91,21.14,16.73,.78-.62,1.17-2.37-.67-7.36,1.7,2.64,4.69,6.5,9.56,9.58,1.7,1.07,6.77,4.28,8.44,2.81,2.12-1.85-2.45-10.03-2.81-10.67,1.14,1.22,2.19,1.76,3.15,1.63,3.75-.52,6.06-11.43,6.93-32.74,1.82,6.69,5.98,18.22,15.89,29.02,5.25,5.73,10.68,9.67,15.08,12.33,0,1.48-.24,3.43-1.41,5.19-1.95,2.92-5.09,3.25-4.93,4.31,.16,1.09,3.64,2.14,6.56,1.11,2.54-.9,3.63-3.02,4-2.78,.47,.31-.61,4.13-3.33,7.22-4.94,5.61-12.32,5.48-12.22,6.56,.09,1.07,7.46,2.77,14.78,.67,11.05-3.18,16.97-13.61,19.33-18.56-.1,1.85-.49,4.36-1.89,6.89-1.17,2.12-2.47,3.25-2.22,3.56,.39,.48,4.3-1.36,6.89-4,4.75-4.83,4.79-12,4.77-15.34-.4-54.37-23.95-75.88-23.95-75.88-2.37-2.15-28.43-25.05-63.26-19.56-53.06,8.37-69.33,73.38-68,91.56,.25,3.36,.89,12.18,7.26,18.37,4.94,4.8,12.15,6.88,12.89,5.78,.47-.7-1.85-2.46-4.59-6.67-2.47-3.79-3.83-7.33-4.59-9.78,1.16,2.28,3.11,5.61,6.22,9.04,3.55,3.91,10.88,10.47,13.61,8.78,2.49-1.54-.57-9-1.38-15.11-1.36-10.2,.37-24.97,14.27-44.72Z"/>
      </g>
      <path class="cls-33" d="M140.01,210.13c.51,.76,1.11,1.9,1.39,3.36,.11,.61,.15,1.17,.15,1.66"/>
      <path class="cls-33" d="M156.33,209.87c.02,.76,.1,1.72,.37,2.8,.26,1.05,.62,1.92,.95,2.59"/>
    </g>
    <path class="cls-39" d="M219.85,120.39c-5.05,2.98-6.36,8.79-7.71,14.72-2.17,9.57-.95,17.12,0,22.67,1.33,7.76,2.1,11.84,5.69,14.27,4.78,3.23,11.06,1.18,12.09,.84,9.03-2.96,13.9-13.17,15.11-20.89,2.4-15.25-7.68-32.27-17.78-33.33-3.72-.39-6.9,1.43-7.4,1.73Z"/>
    <path class="cls-43" d="M233.8,126.05c-5.74,.1-11.42,13.24-11.15,24.5,0,.17,0,.29,.01,.35,.32,9.05,4.69,19.5,9.63,19.69,4.09,.16,8.51-6.71,10.26-10.39,.05-.11,.09-.19,.12-.25,4.37-9.33,2.37-18.03,1.71-20.74-1.29-5.26-3.43-8.1-4.88-9.65-1.66-1.76-3.54-3.53-5.7-3.5Z"/>
    <path class="cls-38" d="M241,132.32c-3.74-.26-6.83,7.62-7.13,8.4-3.5,8.92-1.81,21.27,3.87,23.31,1.56,.56,3,.18,3.56,0,5.68-1.88,7.33-12.65,5.93-20.44-.15-.82-2.06-10.97-6.22-11.26Z"/>
    <path class="cls-39" d="M215.95,124.16c-2.61-7.11-9.25-22.21-24.7-34.5-4.86-3.87-25.56-19.84-53.32-16.56-39.37,4.65-56.84,43.77-57.6,45.53-.88-.05-2.14-.01-3.57,.38-.96,.27-1.76,.63-2.37,.96,1.06-5.4,3.14-13.08,7.51-21.43,3.56-6.79,17.52-30.99,46.52-39.56,29.12-8.6,59.26,2.72,77.56,21.69,13.52,14.02,18.31,29.87,20.14,37.93-1.12,.02-3.12,.19-5.3,1.26-2.72,1.33-4.24,3.32-4.89,4.29Z"/>
    <path class="cls-11" d="M81.33,109.96c2.27-6.06,8.58-20.41,23.7-31.41,18.69-13.6,38.38-13.03,45.04-12.74,26.81,1.17,44.11,16.5,48.59,20.74,11.76,11.13,17.15,23.44,19.56,30.22"/>
    <path class="cls-39" d="M222.61,96.39c2.61-5.1,5.29-11.35,7.41-18.67,3.65-12.59,4.34-23.76,4.15-32-5.63,.17-15.03,1.17-25.48,5.93-9.73,4.42-16.35,10.27-20.17,14.21-.53,2.03-1.1,5.21-.72,9.05,.14,1.41,.73,6.1,4.22,11.78,5.13,8.35,16.85,19.35,24.99,15.95,1.35-.56,3.7-1.98,5.6-6.24Z"/>
    <path class="cls-49" d="M210.46,96.24c2.02-6.32,4.5-13.1,7.56-20.22,3.99-9.29,8.27-17.51,12.44-24.67-1.32,10.54-3.35,19.12-5.11,25.33-3.3,11.67-6.11,16.68-10.89,18.67-1.58,.66-3.03,.84-4,.89Z"/>
    <path class="cls-39" d="M80.68,99.33c-1.84-8-3.48-19.41-2.14-32.95,.81-8.22,2.53-15.29,4.36-20.99,4.52,.43,12.46,1.78,20.82,6.77,6.19,3.69,10.39,8.04,12.95,11.17-1.49,4.72-4.83,13.15-12.39,21.19-8.86,9.43-18.78,13.29-23.61,14.81Z"/>
    <path class="cls-49" d="M84.04,50.1c1.25,.02,2.01,16.76,2.22,24.27,.21,7.21,.12,13.15,0,17.16-1.68,2.9-2.64,3.41-3.22,3.25-.83-.23-1.43-2.01-1.61-11.95-.11-5.88-.16-8.82,.09-13.11,.29-4.9,1.35-19.63,2.52-19.61Z"/>
    <path class="cls-7" d="M226.01,51.72c-3.46,4.7-7.22,10.55-10.67,17.56-4.41,8.96-7.04,17.25-8.67,24"/>
    <g>
      <path class="cls-6" d="M87.81,49.99c.1,.57,.2,1.14,.3,1.73"/>
      <path class="cls-15" d="M88.87,56.68c.66,4.84,1.17,10.2,1.38,16.03,.19,5.36,.11,10.34-.15,14.86"/>
      <path class="cls-6" d="M89.94,90.09c-.04,.59-.09,1.18-.14,1.75"/>
    </g>
  </g>
  <path class="cls-48" d="M473.58,210.13c2.77-.01,5.58-.04,8.42-.09,2.51-.04,4.99-.1,7.45-.17,.02,.76,.1,1.72,.37,2.8,.26,1.05,.62,1.92,.95,2.59-1.06,.7-3.99,2.44-8.12,2.4-4.08-.04-6.95-1.8-8-2.52-.02-.51-.06-1.06-.15-1.66-.2-1.33-.56-2.46-.93-3.35Z"/>
  <path class="cls-33" d="M473.12,210.13c.51,.76,1.11,1.9,1.39,3.36,.11,.61,.15,1.17,.15,1.66"/>
  <path class="cls-33" d="M489.45,209.87c.02,.76,.1,1.72,.37,2.8,.26,1.05,.62,1.92,.95,2.59"/>
</svg>