<?xml version="1.0" encoding="UTF-8"?>
<svg id="CharacterSide" xmlns="http://www.w3.org/2000/svg" viewBox="0 0 640 640">
  <defs>
    <style>
      .cls-1, .cls-2, .cls-3, .cls-4, .cls-5, .cls-6, .cls-7, .cls-8, .cls-9, .cls-10, .cls-11, .cls-12, .cls-13, .cls-14, .cls-15, .cls-16, .cls-17, .cls-18, .cls-19, .cls-20, .cls-21, .cls-22, .cls-23, .cls-24, .cls-25, .cls-26, .cls-27, .cls-28 {
        fill: none;
      }

      .cls-1, .cls-29, .cls-30, .cls-9, .cls-12, .cls-31, .cls-32, .cls-33, .cls-34, .cls-35, .cls-16, .cls-36, .cls-17, .cls-20, .cls-37, .cls-21, .cls-22, .cls-24, .cls-26 {
        stroke: #000;
      }

      .cls-1, .cls-29, .cls-33, .cls-38 {
        stroke-miterlimit: 10;
      }

      .cls-1, .cls-29, .cls-26 {
        stroke-width: 2.64px;
      }

      .cls-2 {
        stroke-dasharray: 0 0 3.41 5.12;
      }

      .cls-2, .cls-3, .cls-4, .cls-5, .cls-6, .cls-30, .cls-7, .cls-8, .cls-9, .cls-10, .cls-11, .cls-12, .cls-31, .cls-32, .cls-13, .cls-34, .cls-14, .cls-35, .cls-15, .cls-16, .cls-36, .cls-17, .cls-18, .cls-19, .cls-20, .cls-37, .cls-21, .cls-22, .cls-23, .cls-24, .cls-25, .cls-26, .cls-27, .cls-28 {
        stroke-linecap: round;
        stroke-linejoin: round;
      }

      .cls-2, .cls-4, .cls-5, .cls-8, .cls-10, .cls-33, .cls-14, .cls-38, .cls-18, .cls-19, .cls-37, .cls-24, .cls-27, .cls-28 {
        stroke-width: 2px;
      }

      .cls-2, .cls-8, .cls-14 {
        stroke: #dcf4dc;
      }

      .cls-29, .cls-31 {
        fill: #f5e3d9;
      }

      .cls-3 {
        stroke-dasharray: 0 0 3.45 5.18;
      }

      .cls-3, .cls-6, .cls-7, .cls-9, .cls-11, .cls-12, .cls-32, .cls-13, .cls-34, .cls-35, .cls-15, .cls-16, .cls-17, .cls-20, .cls-21, .cls-22, .cls-23, .cls-25 {
        stroke-width: 2.5px;
      }

      .cls-3, .cls-6, .cls-7, .cls-11, .cls-13, .cls-15, .cls-23, .cls-25 {
        stroke: #347035;
      }

      .cls-4, .cls-5, .cls-27 {
        stroke: #dda766;
      }

      .cls-5, .cls-8, .cls-13, .cls-17, .cls-28 {
        stroke-dasharray: 0 0 3.52 5.29;
      }

      .cls-30 {
        fill: #fff;
      }

      .cls-7 {
        stroke-dasharray: 0 0 3.38 5.06;
      }

      .cls-9 {
        stroke-dasharray: 0 0 3.46 5.2;
      }

      .cls-10, .cls-38, .cls-18, .cls-19, .cls-28 {
        stroke: #bc695c;
      }

      .cls-11 {
        stroke-dasharray: 0 0 3.48 5.22;
      }

      .cls-39 {
        fill: #ddc7bc;
      }

      .cls-12 {
        stroke-dasharray: 0 0 3.48 5.22;
      }

      .cls-31 {
        stroke-width: 2.64px;
      }

      .cls-32 {
        fill: #0d141e;
      }

      .cls-33, .cls-40 {
        fill: #dda766;
      }

      .cls-34, .cls-36 {
        fill: #c4e8c4;
      }

      .cls-35 {
        fill: #495368;
      }

      .cls-41 {
        fill: #efe8e6;
      }

      .cls-15 {
        stroke-dasharray: 0 0 3.67 5.5;
      }

      .cls-36 {
        stroke-width: 1.5px;
      }

      .cls-38 {
        fill: #f1a791;
      }

      .cls-18 {
        stroke-dasharray: 0 0 2.81 3.75;
      }

      .cls-19 {
        stroke-dasharray: 0 0 3.3 4.4;
      }

      .cls-20 {
        stroke-dasharray: 0 0 3.62 5.43;
      }

      .cls-37 {
        fill: #3f3f3f;
      }

      .cls-21 {
        stroke-dasharray: 0 0 3.56 5.34;
      }

      .cls-22 {
        stroke-dasharray: 0 0 3.46 5.19;
      }

      .cls-23 {
        stroke-dasharray: 0 0 3.34 5.01;
      }

      .cls-25 {
        stroke-dasharray: 0 0 4.01 6.01;
      }

      .cls-27 {
        stroke-dasharray: 0 0 2.99 4.49;
      }
    </style>
  </defs>
  <g>
    <path class="cls-32" d="M92.71,552.99c1.41-.09,8.15-.31,26.2-.78,.48-.05,2.68-.33,4-2.16,.85-1.17,.94-2.43,1-3.17,.12-1.59-.32-2.81-.56-3.44-.14-.38-.53-1.42-1.28-2.33-1.82-2.24-4.76-2.55-5.56-2.61-10.01,.05-20.02,.1-30.04,.15-.17,4.77-.35,9.53-.52,14.3,1.15,.09,2.39,.15,3.71,.15,1.59,0,2.82-.08,3.04-.1Z"/>
    <path class="cls-5" d="M97.74,546.28l19.78-.33"/>
    <g>
      <path class="cls-10" d="M91.45,469.96c.31,.4,.62,.71,.91,.96"/>
      <path class="cls-19" d="M96.4,471.21c1.23-.78,2.41-2.28,3.24-4.34"/>
      <path class="cls-10" d="M100.32,464.76c.1-.42,.19-.85,.27-1.29"/>
    </g>
    <g>
      <path class="cls-10" d="M96.11,491.7c.05,.45,.12,.88,.22,1.3"/>
      <path class="cls-18" d="M97.94,496.37c.68,.82,1.49,1.36,2.34,1.53,2.08,.4,4.95-1.41,6.22-4.76"/>
      <path class="cls-10" d="M106.98,491.33c.07-.42,.12-.86,.14-1.31"/>
    </g>
    <path class="cls-35" d="M104.99,412.84c-6.66-.39-12.75,4.04-14.43,10.54-4.15,10.43-5,18.9-5.04,24.6-.08,10.99,2.72,31.2,3.64,42.35,.1,1.22,.19,2.4-.04,3.95-.9,6.09-5.07,7.42-5.14,11.51-.07,4.04,4.34,4.88,3.87,8.01-.66,4.42-9.73,5.5-9.52,8.37,.13,1.83,3.82,1.61,5.05,4.08,2.57,5.16-9.65,14.01-7.69,17.86,.76,1.5,3.78,2.47,13.17,.66,2.46-.63,6.13-1.26,10.58-.97,4.63,.31,8.31,1.52,10.7,2.51,3.25,2.69,7.35,3.52,10.69,2.11,.6-.25,3.74-1.57,4.64-4.56,1.76-5.85-7.12-11.11-5.07-16.11,.93-2.26,3.07-1.96,3.41-4.04,.65-3.89-6.54-6.46-5.93-10.4,.36-2.32,3.03-2.09,3.93-5.06,.78-2.58-.49-4.45-2.27-9.67-.95-2.78-1.52-5.67-2.35-8.49-1.5-5.05-1.84-22.23,.89-65.29-1-6.56-6.5-11.56-13.09-11.94Z"/>
    <path class="cls-4" d="M96.78,418.35c-3,8.17-4.36,14.83-5.04,19.26-.71,4.69-.85,8.21-.89,9.26-.15,4.45,.11,7.81,.3,9.7,1.2,12.08,2.4,24.16,3.6,36.24-.2,1.37-.65,3.35-1.76,5.46-1.34,2.55-2.36,2.85-2.55,4.49-.23,1.98,1.12,2.61,2.65,6.43,1.21,3.02,1.82,4.53,1.35,5.89-1.15,3.4-6.96,2.94-7.56,5.91-.32,1.57,1.24,1.97,1.67,4.58,.28,1.64-.07,3.1-2.37,8.07-.99,2.14-2.29,4.81-3.93,7.87"/>
    <g>
      <path class="cls-16" d="M95.15,531.85c.51,.22,1.05,.44,1.63,.65"/>
      <path class="cls-22" d="M101.81,533.77c.3,.04,.6,.08,.91,.12,5.5,.62,10.2-.63,13.52-2"/>
      <path class="cls-16" d="M118.6,530.8c.6-.31,1.12-.6,1.54-.85"/>
    </g>
    <path class="cls-17" d="M87.85,513.79c2.05,1.24,5.61,3.06,10.42,3.8,4.5,.69,8.22,.16,10.5-.35"/>
    <path class="cls-33" d="M82.78,516.8c.53,1.92-1.08,4.14-1.56,4.8-1.26,1.73-3.79,3.86-5.95,3.47-2.8-.51-5.35-5.28-4.34-11.74,6.31-1.08,11.11,.81,11.85,3.47Z"/>
    <path class="cls-32" d="M93.92,545.93c.75-7.55-.39-13.47-.97-16.03-1.07-4.67-2.68-8.55-4.23-11.57-1.54-.42-3.83-.86-6.58-.68-9.03,.58-14.59,7.24-15.41,8.25-7.39,9.13-4.17,20.58-3.85,21.63,4.59,1.95,10.76,4,18.24,4.96,4.31,.55,8.22,.64,11.6,.5"/>
    <path class="cls-33" d="M63.67,544.59c1.72,.55,4.02-2.68,4.7-3.62,.97-1.35,1.58-2.19,1.37-3.13-.42-1.86-3.99-2.59-6.07-2.64-.51-.01-.95,.02-1.27,.05-.47,1.35-1.01,3.61-.41,6.21,.28,1.23,.64,2.8,1.68,3.13Z"/>
    <g>
      <path class="cls-4" d="M67.46,532.72c.18-.37,.45-.9,.83-1.55"/>
      <path class="cls-27" d="M71.01,527.61c1.34-1.4,3.09-2.82,5.34-3.93,2.08-1.02,4.07-1.53,5.78-1.77"/>
      <path class="cls-4" d="M84.37,521.72c.7-.02,1.29,0,1.76,.03"/>
    </g>
    <path class="cls-33" d="M83.03,523.43c-.51,1.94,1.1,4.17,1.56,4.8,1.27,1.75,3.78,3.81,5.95,3.47,2.92-.46,5.69-5.32,4.76-11.96-6.57-1.05-11.54,.94-12.27,3.69Z"/>
  </g>
  <g>
    <path class="cls-32" d="M189.12,552.99c1.41-.09,8.15-.31,26.2-.78,.48-.05,2.68-.33,4-2.16,.85-1.17,.94-2.43,1-3.17,.12-1.59-.32-2.81-.56-3.44-.14-.38-.53-1.42-1.28-2.33-1.82-2.24-4.76-2.55-5.56-2.61-10.01,.05-20.02,.1-30.04,.15-.17,4.77-.35,9.53-.52,14.3,1.15,.09,2.39,.15,3.71,.15,1.59,0,2.82-.08,3.04-.1Z"/>
    <path class="cls-5" d="M194.15,546.28l19.78-.33"/>
    <g>
      <path class="cls-10" d="M187.86,469.96c.31,.4,.62,.71,.91,.96"/>
      <path class="cls-19" d="M192.81,471.21c1.23-.78,2.41-2.28,3.24-4.34"/>
      <path class="cls-10" d="M196.73,464.76c.1-.42,.19-.85,.27-1.29"/>
    </g>
    <g>
      <path class="cls-10" d="M192.52,491.7c.05,.45,.12,.88,.22,1.3"/>
      <path class="cls-18" d="M194.35,496.37c.68,.82,1.49,1.36,2.34,1.53,2.08,.4,4.95-1.41,6.22-4.76"/>
      <path class="cls-10" d="M203.39,491.33c.07-.42,.12-.86,.14-1.31"/>
    </g>
    <path class="cls-35" d="M201.4,412.84c-6.66-.39-12.75,4.04-14.43,10.54-4.15,10.43-5,18.9-5.04,24.6-.08,10.99,2.72,31.2,3.64,42.35,.1,1.22,.19,2.4-.04,3.95-.9,6.09-5.07,7.42-5.14,11.51-.07,4.04,4.34,4.88,3.87,8.01-.66,4.42-9.73,5.5-9.52,8.37,.13,1.83,3.82,1.61,5.05,4.08,2.57,5.16-9.65,14.01-7.69,17.86,.76,1.5,3.78,2.47,13.17,.66,2.46-.63,6.13-1.26,10.58-.97,4.63,.31,8.31,1.52,10.7,2.51,3.25,2.69,7.35,3.52,10.69,2.11,.6-.25,3.74-1.57,4.64-4.56,1.76-5.85-7.12-11.11-5.07-16.11,.93-2.26,3.07-1.96,3.41-4.04,.65-3.89-6.54-6.46-5.93-10.4,.36-2.32,3.03-2.09,3.93-5.06,.78-2.58-.49-4.45-2.27-9.67-.95-2.78-1.52-5.67-2.35-8.49-1.5-5.05-1.84-22.23,.89-65.29-1-6.56-6.5-11.56-13.09-11.94Z"/>
    <path class="cls-4" d="M193.19,418.35c-3,8.17-4.36,14.83-5.04,19.26-.71,4.69-.85,8.21-.89,9.26-.15,4.45,.11,7.81,.3,9.7,1.2,12.08,2.4,24.16,3.6,36.24-.2,1.37-.65,3.35-1.76,5.46-1.34,2.55-2.36,2.85-2.55,4.49-.23,1.98,1.12,2.61,2.65,6.43,1.21,3.02,1.82,4.53,1.35,5.89-1.15,3.4-6.96,2.94-7.56,5.91-.32,1.57,1.24,1.97,1.67,4.58,.28,1.64-.07,3.1-2.37,8.07-.99,2.14-2.29,4.81-3.93,7.87"/>
    <g>
      <path class="cls-16" d="M191.56,531.85c.51,.22,1.05,.44,1.63,.65"/>
      <path class="cls-22" d="M198.23,533.77c.3,.04,.6,.08,.91,.12,5.5,.62,10.2-.63,13.52-2"/>
      <path class="cls-16" d="M215.01,530.8c.6-.31,1.12-.6,1.54-.85"/>
    </g>
    <path class="cls-17" d="M184.26,513.79c2.05,1.24,5.61,3.06,10.42,3.8,4.5,.69,8.22,.16,10.5-.35"/>
    <path class="cls-33" d="M179.19,516.8c.53,1.92-1.08,4.14-1.56,4.8-1.26,1.73-3.79,3.86-5.95,3.47-2.8-.51-5.35-5.28-4.34-11.74,6.31-1.08,11.11,.81,11.85,3.47Z"/>
    <path class="cls-32" d="M190.33,545.93c.75-7.55-.39-13.47-.97-16.03-1.07-4.67-2.68-8.55-4.23-11.57-1.54-.42-3.83-.86-6.58-.68-9.03,.58-14.59,7.24-15.41,8.25-7.39,9.13-4.17,20.58-3.85,21.63,4.59,1.95,10.76,4,18.24,4.96,4.31,.55,8.22,.64,11.6,.5"/>
    <path class="cls-33" d="M160.08,544.59c1.72,.55,4.02-2.68,4.7-3.62,.97-1.35,1.58-2.19,1.37-3.13-.42-1.86-3.99-2.59-6.07-2.64-.51-.01-.95,.02-1.27,.05-.47,1.35-1.01,3.61-.41,6.21,.28,1.23,.64,2.8,1.68,3.13Z"/>
    <g>
      <path class="cls-4" d="M163.87,532.72c.18-.37,.45-.9,.83-1.55"/>
      <path class="cls-27" d="M167.42,527.61c1.34-1.4,3.09-2.82,5.34-3.93,2.08-1.02,4.07-1.53,5.78-1.77"/>
      <path class="cls-4" d="M180.78,521.72c.7-.02,1.29,0,1.76,.03"/>
    </g>
    <path class="cls-33" d="M179.44,523.43c-.51,1.94,1.1,4.17,1.56,4.8,1.27,1.75,3.78,3.81,5.95,3.47,2.92-.46,5.69-5.32,4.76-11.96-6.57-1.05-11.54,.94-12.27,3.69Z"/>
  </g>
  <g>
    <path class="cls-35" d="M293.72,294.11c-1.52,2.67-2.85,6.37-5.55,13.77-.45,1.24-.82,2.27-1.05,2.93,0,0-19.51,57.79-20.3,102.36-.03,1.67,.11,4.26,1.83,6.09,1.33,1.41,3.1,1.84,4.17,2,.05,2.48,.1,4.96,.15,7.44-.01,.13-.11,1.29,.77,2.1,.64,.59,1.4,.61,1.6,.62,11.51,1.32,24.45,2.18,38.59,2.11,13.47-.06,25.84-.95,36.89-2.26,.22-.01,.87-.08,1.47-.59,.55-.47,.75-1.05,.81-1.27v-8.14c2.13-1.15,3.58-2.49,4.54-3.56,.87-.98,1.48-1.67,1.78-2.71,.78-2.69-1.17-5.29-1.63-5.88,.92-15.65,.66-28.83,.15-38.59-1-19.22-3.23-30.81-7.7-53.97-3.17-16.42-5.47-24.67-12.6-32-5.35-5.49-11.38-8.37-15.63-9.92-2.02,.4-4.77,1.09-7.88,2.37-1.78,.73-7.29,3.13-12.97,8.34-2.37,2.18-5.09,4.67-7.44,8.79Z"/>
    <path class="cls-16" d="M272.83,421.25c1.74,.23,4.23,.53,7.22,.85,13.59,1.42,23.87,1.52,32.44,1.58,0,0,8.98,.06,29.44-.94,1.24-.06,3.9-.2,7.33-.75,1.68-.27,3.02-.55,3.83-.73"/>
    <g>
      <path class="cls-16" d="M277.33,426.4c.58,.07,1.16,.14,1.75,.21"/>
      <path class="cls-21" d="M284.38,427.18c9.45,.94,19.81,1.51,30.97,1.44,10.25-.06,19.8-.65,28.56-1.55"/>
      <path class="cls-16" d="M346.56,426.79c.59-.07,1.17-.13,1.75-.2"/>
    </g>
    <path class="cls-17" d="M357.79,409.1c-4.99,.6-13.33,.93-22.96-2.04-7.05-2.17-12.42-5.36-16-7.91"/>
    <g>
      <path class="cls-16" d="M296.63,361.28c.46-.31,.96-.63,1.48-.96"/>
      <path class="cls-9" d="M302.57,357.67c6.66-3.69,16.05-7.72,27.84-9.66,7.48-1.23,14.18-1.32,19.69-.98"/>
      <path class="cls-16" d="M352.7,347.23c.6,.06,1.18,.11,1.75,.18"/>
    </g>
    <path class="cls-31" d="M304.68,275.66c0,.45-.04,1.25-.48,2.11-.22,.43-.48,.76-.7,1-.45,.48-.89,.98-1.33,1.5-3.87,4.53-6.56,9.31-8.45,13.84,2.2-3.39,6.4-8.89,13.44-13.44,5.57-3.6,10.85-5.28,14.44-6.11"/>
    <path class="cls-33" d="M308.58,402.74c-1-4.36-2.75-9.84-5.92-15.68-6.01-11.08-14.1-17.84-19.14-21.4-1.56,1.33-3.11,2.67-4.67,4,4.24,3.07,10.73,8.6,16.22,17.33,4.98,7.92,7.18,15.38,8.22,20.3,1.76-1.52,3.52-3.04,5.28-4.56Z"/>
    <path class="cls-24" d="M303.3,407.29c-1.06,.81-2.64,2.25-3.91,4.48-.86,1.51-1.31,2.93-1.56,4"/>
    <g>
      <path class="cls-14" d="M327.05,278.78c-.58,.15-1.15,.31-1.7,.48"/>
      <path class="cls-2" d="M320.52,280.95c-4.38,1.79-7.6,3.85-9.92,5.61-2.91,2.21-4.65,4.14-11.33,9.78-1.45,1.22-2.79,2.33-3.98,3.3"/>
      <path class="cls-14" d="M293.31,301.24c-.51,.41-.96,.77-1.37,1.1"/>
    </g>
  </g>
  <g>
    <g>
      <path class="cls-35" d="M428.17,299.56c-1.98,3.72-4.64,9.63-5.91,17.26-1.69,10.13-3.76,18.38,.4,25.66,2.03,3.55,4.21,4.69,4.6,8.47,.34,3.3-1.07,4.95-3.26,11.25-2.1,6.06-3.16,9.08-2.96,11.41,.64,7.63,8.68,7.8,10.67,15.56,2.12,8.29-5.73,13.32-2.22,20,1.11,2.11,3.11,3.63,7.11,6.67,3.29,2.5,6.3,4.19,8.47,5.28,2.35,1.94,4.71,3.89,7.06,5.83,2.19,.14,4.38,.28,6.56,.42,.21,.56,.83,1.96,2.34,3.05,1.5,1.09,3.03,1.24,3.62,1.27,3.09-.6,5.6-1.43,7.44-2.15,2.44-.96,7.02-2.81,11.45-6.95,.63-.59,1.13-1.1,1.47-1.47,.08-1.23,.07-2.77-.2-4.5-.2-1.34-.51-2.52-.84-3.5,.27-.45,.64-1.14,.96-2.03,.52-1.48,.61-2.75,.71-4.3,.04-.63,.07-1.44,.05-2.4,1.22-1.27,2.9-3.2,4.54-5.79,1.79-2.82,3.86-6.09,4.15-9.32,.57-6.38-6.3-7.91-9.88-16.52-3.71-8.9,1.77-11.71-1.69-19.59-3.79-8.62-11.37-7.61-17.33-16.89-4.32-6.73-1.15-8.55-4.6-18.63-1.72-5.03-4.15-8.42-7.71-13.19-1.97-2.64-4.75-6.11-8.41-9.93"/>
      <g>
        <path class="cls-16" d="M431.76,394.84c.31-.45,.66-.92,1.04-1.42"/>
        <path class="cls-12" d="M436.2,389.47c2.08-2.13,4.7-4.37,7.95-6.38,7.81-4.83,15.6-6.05,20.82-6.26"/>
        <path class="cls-16" d="M467.58,376.8c.67,.01,1.26,.04,1.76,.07"/>
      </g>
      <g>
        <path class="cls-16" d="M471.14,342.38c-.36-.27-.85-.62-1.45-1"/>
        <path class="cls-20" d="M464.84,338.97c-2.22-.82-4.9-1.45-7.96-1.49-6.78-.09-12,2.76-15.17,5.15"/>
        <path class="cls-16" d="M439.62,344.37c-.61,.57-1.03,1.01-1.25,1.24"/>
      </g>
      <path class="cls-4" d="M439.46,296.5c3.07,3.91,5.53,7.28,7.36,9.85,2.19,3.08,3.11,4.9,4.44,6.81,.99,1.43,2.38,3.74,3.26,6.81,1.61,5.62-.12,7.97,.89,13.04,1.28,6.44,5.68,10.75,7.11,12.15,5.57,5.45,9.48,4.2,11.56,8.59,1.69,3.57-.68,4.84,0,11.85,.2,2.07,.86,8.21,4.74,13.93,3.46,5.1,6.17,4.97,6.52,8.3,.37,3.46-2.19,7.29-4.44,10.67-1.34,2-2.49,3.26-2.96,5.63-.43,2.13-.08,4.03,.3,5.33"/>
    </g>
    <path class="cls-32" d="M458.18,427.36c1.81-2.43,4.94-5.98,9.77-8.99,6.25-3.9,12.24-4.93,15.52-5.26,.63,2.8,1.27,5.59,1.9,8.39-4.24,2.85-8.02,5.12-11.08,6.87-5.56,3.18-8.99,4.74-11.43,3.6-1.75-.82-3.13-2.35-3.13-2.35-.76-.85-1.25-1.67-1.55-2.27Z"/>
  </g>
  <g>
    <g>
      <path class="cls-35" d="M521.21,299.56c-1.98,3.72-4.64,9.63-5.91,17.26-1.69,10.13-3.76,18.38,.4,25.66,2.03,3.55,4.21,4.69,4.6,8.47,.34,3.3-1.07,4.95-3.26,11.25-2.1,6.06-3.16,9.08-2.96,11.41,.64,7.63,8.68,7.8,10.67,15.56,2.12,8.29-5.73,13.32-2.22,20,1.11,2.11,3.11,3.63,7.11,6.67,3.29,2.5,6.3,4.19,8.47,5.28,2.35,1.94,4.71,3.89,7.06,5.83,2.19,.14,4.38,.28,6.56,.42,.21,.56,.83,1.96,2.34,3.05,1.5,1.09,3.03,1.24,3.62,1.27,3.09-.6,5.6-1.43,7.44-2.15,2.44-.96,7.02-2.81,11.45-6.95,.63-.59,1.13-1.1,1.47-1.47,.08-1.23,.07-2.77-.2-4.5-.2-1.34-.51-2.52-.84-3.5,.27-.45,.64-1.14,.96-2.03,.52-1.48,.61-2.75,.71-4.3,.04-.63,.07-1.44,.05-2.4,1.22-1.27,2.9-3.2,4.54-5.79,1.79-2.82,3.86-6.09,4.15-9.32,.57-6.38-6.3-7.91-9.88-16.52-3.71-8.9,1.77-11.71-1.69-19.59-3.79-8.62-11.37-7.61-17.33-16.89-4.32-6.73-1.15-8.55-4.6-18.63-1.72-5.03-4.15-8.42-7.71-13.19-1.97-2.64-4.75-6.11-8.41-9.93"/>
      <g>
        <path class="cls-16" d="M524.8,394.84c.31-.45,.66-.92,1.04-1.42"/>
        <path class="cls-12" d="M529.24,389.47c2.08-2.13,4.7-4.37,7.95-6.38,7.81-4.83,15.6-6.05,20.82-6.26"/>
        <path class="cls-16" d="M560.61,376.8c.67,.01,1.26,.04,1.76,.07"/>
      </g>
      <g>
        <path class="cls-16" d="M564.17,342.38c-.36-.27-.85-.62-1.45-1"/>
        <path class="cls-20" d="M557.88,338.97c-2.22-.82-4.9-1.45-7.96-1.49-6.78-.09-12,2.76-15.17,5.15"/>
        <path class="cls-16" d="M532.65,344.37c-.61,.57-1.03,1.01-1.25,1.24"/>
      </g>
      <path class="cls-4" d="M532.5,296.5c3.07,3.91,5.53,7.28,7.36,9.85,2.19,3.08,3.11,4.9,4.44,6.81,.99,1.43,2.38,3.74,3.26,6.81,1.61,5.62-.12,7.97,.89,13.04,1.28,6.44,5.68,10.75,7.11,12.15,5.57,5.45,9.48,4.2,11.56,8.59,1.69,3.57-.68,4.84,0,11.85,.2,2.07,.86,8.21,4.74,13.93,3.46,5.1,6.17,4.97,6.52,8.3,.37,3.46-2.19,7.29-4.44,10.67-1.34,2-2.49,3.26-2.96,5.63-.43,2.13-.08,4.03,.3,5.33"/>
    </g>
    <path class="cls-32" d="M551.22,427.36c1.81-2.43,4.94-5.98,9.77-8.99,6.25-3.9,12.24-4.93,15.52-5.26,.63,2.8,1.27,5.59,1.9,8.39-4.24,2.85-8.02,5.12-11.08,6.87-5.56,3.18-8.99,4.74-11.43,3.6-1.75-.82-3.13-2.35-3.13-2.35-.76-.85-1.25-1.67-1.55-2.27Z"/>
  </g>
  <g>
    <path class="cls-39" d="M302.73,217.29c2.82-.94,5.64-1.87,8.46-2.81,2.63-.99,5.25-1.97,7.88-2.96,.38,2.2,.74,4.43,1.09,6.72,.35,2.3,.66,4.56,.95,6.78-1.06,.7-3.99,2.44-8.12,2.4-4.08-.04-6.95-1.8-8-2.52-.02-.52-.07-1.08-.15-1.66-.36-2.49-1.26-4.5-2.11-5.96Z"/>
    <path class="cls-26" d="M319.07,211.53c-.28,2.92-.21,6.74,1.08,10.92,.29,.92,.61,1.78,.95,2.59"/>
    <g>
      <path class="cls-29" d="M257.77,166.77c.29,7.27,6.03,11.62,3.87,17.72-1.11,3.13-2.9,2.79-3.85,5.63-2.32,6.94,5.94,16.24,11.85,20.74,8.85,6.74,18.42,7.29,21.93,7.45,11.44,.5,20.02-3.81,23.7-5.97,14.09-16.62,14.29-39.93,2.07-54.22-14.17-16.58-41.87-17.3-52.74-6.22-1.28,1.31-7.14,7.27-6.83,14.88Z"/>
      <g>
        <path class="cls-16" d="M261.79,203.11c.65,1.25,1.74,1.9,2.82,1.67,1.63-.35,2.27-2.48,2.29-2.57"/>
        <path class="cls-38" d="M297.9,208.59c.1,4.32-2.13,7.57-3.17,8.89-2.7,.44-7.7,.88-13.57-.82-5.39-1.56-9.14-4.23-11.2-5.94-.11-.59-.19-1.31-.16-2.13,.17-5.59,5.15-14.05,14.05-14.05,8.36,0,13.89,7.46,14.05,14.05Z"/>
        <path class="cls-28" d="M274.12,210.04c-.01-.45-.09-5.85,4.33-9,.58-.41,4.34-2.99,8.78-1.44,4.94,1.72,6.05,6.93,6.11,7.22,.76,3.85-1.14,6.83-1.56,7.44"/>
        <path class="cls-41" d="M265.14,174.14c-.56,1.6-1.47,4.81-1.2,8.87,.09,1.42,.49,7.55,4.52,11.61,3.14,3.17,7.21,3.83,10.44,2.61,6.79-2.55,9.13-12.8,9.84-15.92,.75-3.3,.9-6.17,.9-8.09-3-1.12-7.49-2.3-12.95-1.98-4.83,.28-8.78,1.64-11.54,2.9Z"/>
        <path class="cls-33" d="M270.2,172.31c-.96,1.81-2.05,4.5-2.45,7.96-.23,2.01-.73,8.67,2.71,13.7,.87,1.26,2.38,3.48,4.72,3.81,4.41,.63,7.54-6.01,7.73-6.42,2.67-5.84,.91-12.23,.5-13.7-.84-3.06-2.15-5.19-3.01-6.39-1.44-.05-3.02-.02-4.72,.13-2.01,.18-3.85,.51-5.48,.91Z"/>
        <path class="cls-30" d="M275.97,174.26c-.59,1.61-1.61,4.99-1.46,9.43,.15,4.48,1.42,7.76,2.11,9.3,.58-1.77,1.51-5.25,1.3-9.74-.19-4.18-1.27-7.31-1.96-8.98Z"/>
        <path class="cls-37" d="M263.93,173.61c-.24-.68,3.28-3.59,5.42-4.96,3.17-2.02,9.75-4.76,20.98,0-.23,1.52-.47,3.04-.7,4.57-3.77-1.36-6.96-1.81-9.24-1.96-6.01-.38-11.17,1.01-11.75,1.17-2.74,.76-4.56,1.64-4.72,1.17Z"/>
      </g>
      <path class="cls-1" d="M257.77,166.77c.29,7.27,6.03,11.62,3.87,17.72-1.11,3.13-2.9,2.79-3.85,5.63-2.32,6.94,5.94,16.24,11.85,20.74,8.85,6.74,18.42,7.29,21.93,7.45,11.44,.5,20.02-3.81,23.7-5.97,14.09-16.62,14.29-39.93,2.07-54.22-14.17-16.58-41.87-17.3-52.74-6.22-1.28,1.31-7.14,7.27-6.83,14.88Z"/>
    </g>
    <g>
      <g>
        <path class="cls-34" d="M232.41,156.2c6.4,10.5,18.51,18.82,21.14,16.73,.78-.62,1.17-2.37-.67-7.36,1.7,2.64,4.69,6.5,9.56,9.58,1.7,1.07,6.77,4.28,8.44,2.81,2.12-1.85-2.45-10.03-2.81-10.67,1.14,1.22,2.19,1.76,3.15,1.63,3.75-.52,6.06-11.43,6.93-32.74,1.82,6.69,5.98,18.22,15.89,29.02,5.25,5.73,10.68,9.67,15.08,12.33,0,1.48-.24,3.43-1.41,5.19-1.95,2.92-5.09,3.25-4.93,4.31,.16,1.09,3.64,2.14,6.56,1.11,2.54-.9,3.63-3.02,4-2.78,.47,.31-.61,4.13-3.33,7.22-4.94,5.61-12.32,5.48-12.22,6.56,.09,1.07,7.46,2.77,14.78,.67,11.05-3.18,16.97-13.61,19.33-18.56-.1,1.85-.49,4.36-1.89,6.89-.94,1.71-1.76,2.96-2.22,3.56-6.95,8.99-15.49,15.09-14.28,20.18,.4,1.68,1.87,3.26,2.97,3.16,1.71-.15,2.22-4.31,3.56-4.28,1.37,.03,1.52,4.4,3.25,4.72,2.27,.42,4.92-6.48,6.74-5.94,.86,.26,.64,1.91,1.48,2.16,1.92,.58,5.76-7.21,6.28-6.95,.39,.19-1.92,4.36-1.06,5.06,1.02,.83,6.41-3.26,10.13-8.03,2.19-2.81,5.27-7.75,6.63-15.4,1.4-.68,3.15-1.73,4.89-3.34,3.35-3.09,4.88-6.59,5.56-8.57-.36,1.3-.92,3.22-1.71,5.5-1.63,4.69-2.53,6.06-2.11,6.44,1.04,.95,9.82-5.97,13.92-10.83,16.04-19.08,10.09-66.24-18.92-91.5-16.8-14.63-35.76-17.05-41.2-17.67-32.4-3.69-69.75,12.89-82.35,42.95-1.01,2.4-11.01,27.39,.84,46.83Z"/>
        <g>
          <g>
            <path class="cls-6" d="M252.88,165.57c-.36-.44-.73-.89-1.11-1.37"/>
            <path class="cls-15" d="M248.57,159.73c-.67-1.02-1.33-2.11-1.98-3.25-2.17-3.81-3.72-7.46-4.84-10.72"/>
            <path class="cls-6" d="M240.91,143.14c-.17-.58-.33-1.15-.48-1.69"/>
          </g>
          <g>
            <path class="cls-6" d="M268.07,167.3c-.35-.41-.73-.86-1.12-1.36"/>
            <path class="cls-11" d="M264.09,161.58c-.37-.67-.72-1.38-1.06-2.13-.54-1.2-.98-2.37-1.33-3.46"/>
            <path class="cls-6" d="M261.01,153.47c-.14-.61-.26-1.19-.35-1.73"/>
          </g>
          <g>
            <path class="cls-6" d="M309.12,177.54c.08-.57,.16-1.15,.24-1.74"/>
            <path class="cls-7" d="M309.79,170.75c.15-3.08,.11-6.42-.24-9.97-1.56-15.9-8.45-27.92-13.68-35.12"/>
            <path class="cls-6" d="M294.35,123.64c-.38-.49-.75-.95-1.09-1.38"/>
          </g>
          <g>
            <path class="cls-6" d="M313.33,185.37c.37-.33,.81-.73,1.27-1.22"/>
            <path class="cls-3" d="M317.66,180c.19-.34,.38-.7,.56-1.07,.78-1.62,1.26-3.18,1.55-4.57"/>
            <path class="cls-6" d="M320.15,171.8c.06-.68,.07-1.27,.07-1.76"/>
          </g>
          <path class="cls-13" d="M331.83,181.96c.75-2.44,1.39-5.27,1.72-8.44,1.07-10.48-1.94-19.01-4.15-23.85"/>
          <g>
            <path class="cls-6" d="M263.99,116.71c.2,.54,.4,1.09,.6,1.65"/>
            <path class="cls-25" d="M266.42,124.09c.77,2.72,1.46,5.67,2.02,8.84,.49,2.78,.82,5.42,1.04,7.9"/>
            <path class="cls-6" d="M269.69,143.84c.03,.6,.06,1.18,.08,1.76"/>
          </g>
        </g>
        <path class="cls-16" d="M232.41,156.2c6.4,10.5,18.51,18.82,21.14,16.73,.78-.62,1.17-2.37-.67-7.36,1.7,2.64,4.69,6.5,9.56,9.58,1.7,1.07,6.77,4.28,8.44,2.81,2.12-1.85-2.45-10.03-2.81-10.67,1.14,1.22,2.19,1.76,3.15,1.63,3.75-.52,6.06-11.43,6.93-32.74,1.82,6.69,5.98,18.22,15.89,29.02,5.25,5.73,10.68,9.67,15.08,12.33,0,1.48-.24,3.43-1.41,5.19-1.95,2.92-5.09,3.25-4.93,4.31,.16,1.09,3.64,2.14,6.56,1.11,2.54-.9,3.63-3.02,4-2.78,.47,.31-.61,4.13-3.33,7.22-4.94,5.61-12.32,5.48-12.22,6.56,.09,1.07,7.46,2.77,14.78,.67,11.05-3.18,16.97-13.61,19.33-18.56-.1,1.85-.49,4.36-1.89,6.89-.94,1.71-1.76,2.96-2.22,3.56-6.95,8.99-15.49,15.09-14.28,20.18,.4,1.68,1.87,3.26,2.97,3.16,1.71-.15,2.22-4.31,3.56-4.28,1.37,.03,1.52,4.4,3.25,4.72,2.27,.42,4.92-6.48,6.74-5.94,.86,.26,.64,1.91,1.48,2.16,1.92,.58,5.76-7.21,6.28-6.95,.39,.19-1.92,4.36-1.06,5.06,1.02,.83,6.41-3.26,10.13-8.03,2.19-2.81,5.27-7.75,6.63-15.4,1.4-.68,3.15-1.73,4.89-3.34,3.35-3.09,4.88-6.59,5.56-8.57-.36,1.3-.92,3.22-1.71,5.5-1.63,4.69-2.53,6.06-2.11,6.44,1.04,.95,9.82-5.97,13.92-10.83,16.04-19.08,10.09-66.24-18.92-91.5-16.8-14.63-35.76-17.05-41.2-17.67-32.4-3.69-69.75,12.89-82.35,42.95-1.01,2.4-11.01,27.39,.84,46.83Z"/>
      </g>
      <g>
        <path class="cls-6" d="M359.44,106.68c.31,.47,.63,.97,.95,1.48"/>
        <path class="cls-23" d="M362.88,112.51c1.57,2.98,3.11,6.44,4.4,10.38,2.41,7.34,3.2,14.01,3.35,19.24"/>
        <path class="cls-6" d="M370.65,144.64c0,.61-.02,1.2-.04,1.76"/>
      </g>
    </g>
    <path class="cls-35" d="M336.94,140.3c-1.8-8.36-6.28-23.13-18.42-36.87-5.88-6.66-15.89-18.01-33.19-21.93-15.62-3.54-28.65,.91-34.09,3.14,.26-1.81,1.23-7,5.65-11.44,5.64-5.67,12.73-5.91,14.22-5.93,8.4-.61,22.43-.42,37.93,5.93,21.62,8.85,33.11,24.36,37.33,30.22,7.96,11.05,11.87,21.68,13.85,28.61"/>
    <g>
      <path class="cls-35" d="M344.55,131.94c-6.35,2.98-8,8.79-9.69,14.72-2.73,9.57-1.2,17.12,0,22.67,1.68,7.76,2.64,11.84,7.16,14.27,6.01,3.23,13.9,1.18,15.2,.84,11.35-2.96,17.48-13.17,19-20.89,3.01-15.25-9.65-32.27-22.36-33.33-4.68-.39-8.68,1.43-9.31,1.73Z"/>
      <path class="cls-33" d="M357.3,137.59c-7.75,.1-15.43,13.24-15.06,24.5,0,.17,.01,.29,.01,.35,.43,9.05,6.34,19.5,13.02,19.69,5.52,.16,11.5-6.71,13.87-10.39,.07-.11,.12-.19,.16-.25,5.91-9.33,3.21-18.03,2.31-20.74-1.74-5.26-4.63-8.1-6.6-9.65-2.24-1.76-4.78-3.53-7.7-3.5Z"/>
      <path class="cls-34" d="M360.32,143.38c-4.7-.26-8.59,7.62-8.97,8.4-4.4,8.92-2.28,21.27,4.87,23.31,1.97,.56,3.77,.18,4.47,0,7.15-1.88,9.22-12.65,7.45-20.44-.19-.82-2.6-10.97-7.82-11.26Z"/>
    </g>
    <path class="cls-8" d="M262.08,74.1c4.55-.66,11.16-1.14,18.96,0,0,0,11.85,1.73,23.7,8.3,23.68,13.12,35.83,40.84,37.93,45.78"/>
    <g>
      <path class="cls-35" d="M341.82,102.58c2.61-5.1,5.29-11.35,7.41-18.67,3.65-12.59,4.34-23.76,4.15-32-5.63,.17-15.03,1.17-25.48,5.93-9.73,4.42-16.35,10.27-20.17,14.21-.53,2.03-1.1,5.21-.72,9.05,.14,1.41,.73,6.1,4.22,11.78,5.13,8.35,16.85,19.35,24.99,15.95,1.35-.56,3.7-1.98,5.6-6.24Z"/>
      <path class="cls-40" d="M329.67,102.43c2.02-6.32,4.5-13.1,7.56-20.22,3.99-9.29,8.27-17.51,12.44-24.67-1.32,10.54-3.35,19.12-5.11,25.33-3.3,11.67-6.11,16.68-10.89,18.67-1.58,.66-3.03,.84-4,.89Z"/>
      <path class="cls-5" d="M345.23,57.92c-3.46,4.7-7.22,10.55-10.67,17.56-4.41,8.96-7.04,17.25-8.67,24"/>
    </g>
    <path class="cls-26" d="M302.12,217.42c1.59,2.96,2.58,5.23,2.69,5.83,.06,.29,.09,.58,.09,.58,.05,.44,.06,.82,.06,1.08"/>
  </g>
  <path class="cls-36" d="M283.7,360.57c-.78-.64,8.59-8.44,10.84-22.75,1.65-10.47-1.49-18.17-.26-18.51,1.28-.36,6.53,7.49,6.35,16.4-.3,15.06-15.96,25.65-16.93,24.86Z"/>
  <path class="cls-36" d="M273.65,360.04c-.29-.12-.02-1.45,.84-5.06,3.41-14.4,4.83-18.9,4.83-18.9,4.77-15.15,7.15-22.73,7.82-22.59,1.2,.25,.47,13.54-3.97,26.98-3.37,10.21-8.68,19.9-9.52,19.57Z"/>
</svg>