<?xml version="1.0" encoding="UTF-8"?>
<svg id="CharacterSide" xmlns="http://www.w3.org/2000/svg" viewBox="0 0 640 640">
  <defs>
    <style>
      .cls-1, .cls-2, .cls-3, .cls-4, .cls-5, .cls-6, .cls-7, .cls-8, .cls-9, .cls-10, .cls-11, .cls-12, .cls-13, .cls-14, .cls-15, .cls-16 {
        fill: none;
      }

      .cls-1, .cls-17, .cls-18, .cls-19, .cls-20, .cls-3, .cls-4, .cls-5, .cls-21, .cls-22, .cls-6, .cls-7, .cls-8, .cls-23, .cls-9, .cls-10, .cls-11, .cls-12, .cls-13, .cls-14, .cls-15, .cls-16 {
        stroke-linecap: round;
        stroke-linejoin: round;
      }

      .cls-1, .cls-17, .cls-18, .cls-20, .cls-3, .cls-24, .cls-5, .cls-22, .cls-6, .cls-7, .cls-9, .cls-10, .cls-11, .cls-12, .cls-13, .cls-14 {
        stroke-width: 2.5px;
      }

      .cls-1, .cls-5, .cls-10, .cls-11, .cls-12 {
        stroke: #6797c6;
      }

      .cls-1, .cls-7, .cls-13, .cls-16 {
        stroke-dasharray: 0 0 3.52 5.29;
      }

      .cls-2, .cls-25, .cls-17, .cls-18, .cls-19, .cls-20, .cls-24, .cls-21, .cls-22, .cls-6, .cls-7, .cls-23, .cls-15 {
        stroke: #000;
      }

      .cls-2, .cls-25, .cls-24, .cls-26 {
        stroke-miterlimit: 10;
      }

      .cls-2, .cls-25, .cls-15 {
        stroke-width: 2.64px;
      }

      .cls-25, .cls-24 {
        fill: #f5e3d9;
      }

      .cls-17 {
        fill: #175f99;
      }

      .cls-18, .cls-21 {
        fill: #d9faff;
      }

      .cls-19 {
        fill: #fff;
      }

      .cls-20 {
        fill: #e0687c;
      }

      .cls-3 {
        stroke-dasharray: 0 0 3.56 5.34;
      }

      .cls-3, .cls-9, .cls-13, .cls-14 {
        stroke: #175f99;
      }

      .cls-4, .cls-26, .cls-8, .cls-23, .cls-16 {
        stroke-width: 2px;
      }

      .cls-4, .cls-26, .cls-8, .cls-16 {
        stroke: #bc695c;
      }

      .cls-5 {
        stroke-dasharray: 0 0 3.4 5.1;
      }

      .cls-21 {
        stroke-width: 1.5px;
      }

      .cls-22 {
        fill: #91b6ed;
      }

      .cls-27 {
        fill: #efe8e6;
      }

      .cls-26 {
        fill: #f1a791;
      }

      .cls-8 {
        stroke-dasharray: 0 0 3.3 4.4;
      }

      .cls-23 {
        fill: #3f3f3f;
      }

      .cls-10 {
        stroke-dasharray: 0 0 3.2 4.8;
      }

      .cls-11 {
        stroke-dasharray: 0 0 2.99 4.49;
      }

      .cls-14 {
        stroke-dasharray: 0 0 2.99 4.49;
      }
    </style>
  </defs>
  <path class="cls-18" d="M303.65,217.95c2.82-.94,5.64-1.87,8.46-2.81l7.27-3.57c-.05,3.27,.31,7.25,1.69,11.52,.29,.91,.61,1.77,.95,2.59-2.56,.84-5.26,1.64-8.12,2.4-2.27,.6-4.48,1.13-6.61,1.59-.41-1.81-.91-3.74-1.54-5.76-.66-2.15-1.38-4.14-2.11-5.96Z"/>
  <path class="cls-15" d="M303.07,218.08c.88,1.34,1.95,3.3,2.69,5.83,.58,1.99,.79,3.77,.84,5.16"/>
  <path class="cls-15" d="M319.38,212.94c-.03,2.65,.28,4.76,.59,6.22,.36,1.7,.85,3.2,1.1,3.94,.35,1.05,.69,1.93,.95,2.59"/>
  <path class="cls-22" d="M188.68,552.41c1.41-.09,8.15-.31,26.2-.78,.48-.05,2.68-.33,4-2.16,.85-1.17,.94-2.43,1-3.17,.12-1.59-.32-2.81-.56-3.44-.14-.38-.53-1.42-1.28-2.33-1.82-2.24-4.76-2.55-5.56-2.61-10.01,.05-20.02,.1-30.04,.15-.17,4.77-.35,9.53-.52,14.3,1.15,.09,2.39,.15,3.71,.15,1.59,0,2.82-.08,3.04-.1Z"/>
  <path class="cls-22" d="M189.89,545.34c.75-7.55-.39-13.47-.97-16.03-1.07-4.67-2.68-8.55-4.23-11.57-1.54-.42-3.83-.86-6.58-.68-9.03,.58-14.59,7.24-15.41,8.25-7.39,9.13-4.17,20.58-3.85,21.63,4.59,1.95,10.76,4,18.24,4.96,4.31,.55,8.22,.64,11.6,.5"/>
  <path class="cls-13" d="M193.72,545.69c6.59-.11,13.19-.22,19.78-.33"/>
  <path class="cls-24" d="M186.76,429.18c-3.67,17.03-3.2,30.3-2.1,39.25,.69,5.6,2.35,14.9,3.85,22.81,2.61,13.69,4.3,20.18,2.96,29.63-.6,4.21-1.59,7.6-2.36,9.83,.23,1.58,.46,3.16,.69,4.74,.07,2.01,.15,4.02,.22,6.03,3.69,.29,6.81,.4,9.15,.44,5.99,.11,7.59-.22,8.89-1.33,1.9-1.63,2.25-4.21,2.37-5.04,.39-2.73-.48-4.92-.74-5.63-1.68-4.54-.54-8.23-.01-22.21,.16-4.21,.35-6.18,.39-8.76,.05-3.89-.19-6.75-.23-7.25-.28-4.32,.4-19.71,3.78-62.67-2.42-5.59-8.01-9.13-14-8.89-5.63,.23-10.66,3.77-12.86,9.05Z"/>
  <g>
    <path class="cls-4" d="M187.33,469.37c.31,.4,.62,.71,.91,.96"/>
    <path class="cls-8" d="M192.29,470.62c1.23-.78,2.41-2.28,3.24-4.34"/>
    <path class="cls-4" d="M196.21,464.17c.1-.42,.19-.85,.27-1.29"/>
  </g>
  <path class="cls-22" d="M170.18,522.38c-.05-.65-.43-6.31,3.15-10.14,2.81-3,6.97-3.68,10.66-1.77-.94,.95-2.88,3.21-3.46,6.84-.16,.98-.19,1.89-.16,2.68,.62-.61,1.46-1.31,2.54-1.88,1.8-.96,3.45-1.17,4.51-1.19-.48,1.06-1.04,2.57-1.37,4.47-.24,1.37-.3,2.61-.29,3.61"/>
  <g>
    <path class="cls-9" d="M161.92,534.75c.18-.37,.45-.9,.83-1.55"/>
    <path class="cls-14" d="M165.47,529.64c1.34-1.4,3.09-2.82,5.34-3.93,2.08-1.02,4.07-1.53,5.78-1.77"/>
    <path class="cls-9" d="M178.82,523.75c.7-.02,1.29,0,1.76,.03"/>
  </g>
  <path class="cls-22" d="M92.71,552.41c1.41-.09,8.15-.31,26.2-.78,.48-.05,2.68-.33,4-2.16,.85-1.17,.94-2.43,1-3.17,.12-1.59-.32-2.81-.56-3.44-.14-.38-.53-1.42-1.28-2.33-1.82-2.24-4.76-2.55-5.56-2.61-10.01,.05-20.02,.1-30.04,.15-.17,4.77-.35,9.53-.52,14.3,1.15,.09,2.39,.15,3.71,.15,1.59,0,2.82-.08,3.04-.1Z"/>
  <path class="cls-22" d="M93.92,545.34c.75-7.55-.39-13.47-.97-16.03-1.07-4.67-2.68-8.55-4.23-11.57-1.54-.42-3.83-.86-6.58-.68-9.03,.58-14.59,7.24-15.41,8.25-7.39,9.13-4.17,20.58-3.85,21.63,4.59,1.95,10.76,4,18.24,4.96,4.31,.55,8.22,.64,11.6,.5"/>
  <path class="cls-13" d="M97.74,545.69c6.59-.11,13.19-.22,19.78-.33"/>
  <path class="cls-24" d="M90.78,429.18c-3.67,17.03-3.2,30.3-2.1,39.25,.69,5.6,2.35,14.9,3.85,22.81,2.61,13.69,4.3,20.18,2.96,29.63-.6,4.21-1.59,7.6-2.36,9.83,.23,1.58,.46,3.16,.69,4.74,.07,2.01,.15,4.02,.22,6.03,3.69,.29,6.81,.4,9.15,.44,5.99,.11,7.59-.22,8.89-1.33,1.9-1.63,2.25-4.21,2.37-5.04,.39-2.73-.48-4.92-.74-5.63-1.68-4.54-.54-8.23-.01-22.21,.16-4.21,.35-6.18,.39-8.76,.05-3.89-.19-6.75-.23-7.25-.28-4.32,.4-19.71,3.78-62.67-2.42-5.59-8.01-9.13-14-8.89-5.63,.23-10.66,3.77-12.86,9.05Z"/>
  <g>
    <path class="cls-4" d="M91.35,469.37c.31,.4,.62,.71,.91,.96"/>
    <path class="cls-8" d="M96.31,470.62c1.23-.78,2.41-2.28,3.24-4.34"/>
    <path class="cls-4" d="M100.23,464.17c.1-.42,.19-.85,.27-1.29"/>
  </g>
  <path class="cls-22" d="M74.2,522.38c-.05-.65-.43-6.31,3.15-10.14,2.81-3,6.97-3.68,10.66-1.77-.94,.95-2.88,3.21-3.46,6.84-.16,.98-.19,1.89-.16,2.68,.62-.61,1.46-1.31,2.54-1.88,1.8-.96,3.45-1.17,4.51-1.19-.48,1.06-1.04,2.57-1.37,4.47-.24,1.37-.3,2.61-.29,3.61"/>
  <g>
    <path class="cls-9" d="M65.94,534.75c.18-.37,.45-.9,.83-1.55"/>
    <path class="cls-14" d="M69.49,529.64c1.34-1.4,3.09-2.82,5.34-3.93,2.08-1.02,4.07-1.53,5.78-1.77"/>
    <path class="cls-9" d="M82.85,523.75c.7-.02,1.29,0,1.76,.03"/>
  </g>
  <path class="cls-17" d="M218.37,401.26c.89,8.23,2.12,22.56,.91,32.64-.09,.76-.26,2-.91,3.47-3.64,8.24-16.18,9.62-19.67,10-9.35,1.03-16.94-1.9-21-3.89,.15-11.55,.31-23.09,.46-34.64,2.05-12.57,12.53-21,22.84-20.29,7.27,.51,13.86,5.53,17.37,12.7Z"/>
  <path class="cls-17" d="M122.63,401.26c.89,8.23,2.12,22.56,.91,32.64-.09,.76-.26,2-.91,3.47-3.64,8.24-16.18,9.62-19.67,10-9.35,1.03-16.94-1.9-21-3.89,.15-11.55,.31-23.09,.46-34.64,.24-.82,3.85-12.42,15.47-15.84,8.88-2.61,18.73,.65,24.74,8.26Z"/>
  <path class="cls-22" d="M302.19,287.56c-9.94,10.61-13.99,22.03-15.2,25.56,0,0-19.51,56.8-20.3,100.59-.03,1.64,.11,4.19,1.83,5.98,1.33,1.39,3.1,1.81,4.17,1.96,.05,2.44,.1,4.88,.15,7.31-.01,.13-.11,1.27,.77,2.06,.64,.58,1.4,.6,1.6,.6,11.51,1.29,24.45,2.14,38.59,2.08,13.47-.06,25.84-.94,36.89-2.22,.22-.01,.87-.08,1.47-.58,.55-.46,.75-1.03,.81-1.25v-8c2.13-1.13,3.58-2.45,4.54-3.5,.87-.96,1.48-1.64,1.78-2.67,.78-2.64-1.17-5.2-1.63-5.78,.92-15.38,.66-28.33,.15-37.93-.89-16.75-1.85-33.09-7.7-53.04-3.97-13.52-8.86-24.21-12.6-31.44-1-1.3-8.57-10.81-19.1-10.04-6.92,.51-11.53,5.3-16.21,10.3Z"/>
  <path class="cls-6" d="M272.7,421.65c1.74,.22,4.23,.52,7.22,.83,13.59,1.4,23.87,1.49,32.44,1.56,0,0,8.98,.06,29.44-.93,1.24-.06,3.9-.2,7.33-.74,1.68-.26,3.02-.54,3.83-.72"/>
  <g>
    <path class="cls-9" d="M277.2,426.7c.58,.07,1.16,.14,1.75,.21"/>
    <path class="cls-3" d="M284.25,427.47c9.45,.92,19.81,1.48,30.97,1.41,10.25-.06,19.8-.64,28.56-1.52"/>
    <path class="cls-9" d="M346.43,427.09c.59-.06,1.17-.13,1.75-.2"/>
  </g>
  <path class="cls-7" d="M357.66,405.7c-4.99,.59-13.33,.91-22.96-2-7.05-2.13-12.42-5.27-16-7.78"/>
  <g>
    <path class="cls-21" d="M294.82,218.31c-1.45,5.65-2.74,11.74-3.76,18.24-2.73,17.46-2.74,33.16-1.67,46.22,.24,1.31-.54,2.51-1.55,2.76-1.17,.29-2.64-.68-2.76-2.26-.47-8.28-.56-17.46,0-27.38,.78-13.67,2.64-25.9,4.87-36.4,1.63-.39,3.25-.79,4.88-1.18Z"/>
    <path class="cls-21" d="M285.36,273.5c-.04-.89,2.37-2.4,4.33-1.67,1.93,.72,3.16,3.52,2,5.11-.75,1.02-2.38,1.41-4,.89,.2-.57,.34-1.33,.06-2.06-.57-1.46-2.36-1.52-2.39-2.28Z"/>
    <path class="cls-21" d="M286.58,275.05c-.71-.88-2.84-.9-4.11,.22-1.1,.97-1.22,2.51-.94,3.56,.59,2.24,3.35,3.57,5.39,2.94,1.66-.51,2.85-2.31,2.5-2.94-.31-.57-1.68,.11-2.4-.67-.78-.84,.28-2.22-.43-3.11Z"/>
  </g>
  <path class="cls-6" d="M279.67,370.57c3.56,.12,7.12,.24,10.68,.36,.5,.23,1.33,.68,2.1,1.53,.8,.88,1.17,1.78,1.34,2.3,.87,3.44,2.63,8.61,6.33,14.03,0,0,2.37,3.44,11.33,11.41,.14,.13,.61,.54,.98,1.23,.32,.6,.43,1.17,.48,1.57-.16,1.49-.58,3.56-1.67,5.79-2.13,4.34-5.53,6.63-7.11,7.56"/>
  <path class="cls-13" d="M292.79,412.57c-2.21-.98-5.13-2.02-8.67-2.67-4.27-.78-7.96-.71-10.67-.44"/>
  <g>
    <path class="cls-22" d="M428.45,299.7c-1.98,3.72-4.64,9.63-5.91,17.26-.52,3.1-.76,6.25,.4,25.66,.55,9.23,.83,13.84,1.34,19.73,1.08,12.29,1.49,18.44,2.06,22.28,.87,5.79,5.35,35.65,26.06,42.47,15.76,5.19,36.54-4.41,42.4-18.82,2.74-6.74,1.64-13.13,.28-21.07-.45-2.59-1.98-10.56-13.21-31.46-4.02-7.49-7.82-13.92-11.07-19.14-2.59-5.85-5.75-12.19-9.64-18.81-5.44-9.25-11.13-17.07-16.44-23.54"/>
    <path class="cls-18" d="M426.55,386.01c4.21-4.79,11.18-11.5,21.43-16.86,15.14-7.92,29.29-8.62,36.49-8.47,5.2,9,8.07,16.99,9.71,22.66,2.53,8.72,3.96,13.88,2.39,20.48-1.96,8.25-7.3,13.36-9.19,15.11-5.95,5.54-12.29,7.26-15.7,8.14-3.91,1.01-11.01,2.73-19.29,.01-1.4-.46-6.36-2.21-11.23-6.67-5.84-5.35-8.03-11.39-10.67-18.67-1.36-3.76-2.97-9.09-3.95-15.74Z"/>
    <path class="cls-6" d="M452.18,420.17c3.07-3.2,8.71-8.25,17.19-11.85,8.03-3.42,15.2-4.08,19.56-4.15"/>
  </g>
  <g>
    <path class="cls-22" d="M521.52,299.7c-1.98,3.72-4.64,9.63-5.91,17.26-.52,3.1-.76,6.25,.4,25.66,.55,9.23,.83,13.84,1.34,19.73,1.08,12.29,1.49,18.44,2.06,22.28,.87,5.79,5.35,35.65,26.06,42.47,15.76,5.19,36.54-4.41,42.4-18.82,2.74-6.74,1.64-13.13,.28-21.07-.45-2.59-1.98-10.56-13.21-31.46-4.02-7.49-7.82-13.92-11.07-19.14-2.59-5.85-5.75-12.19-9.64-18.81-5.44-9.25-11.13-17.07-16.44-23.54"/>
    <path class="cls-18" d="M519.62,386.01c4.21-4.79,11.18-11.5,21.43-16.86,15.14-7.92,29.29-8.62,36.49-8.47,5.2,9,8.07,16.99,9.71,22.66,2.53,8.72,3.96,13.88,2.39,20.48-1.96,8.25-7.3,13.36-9.19,15.11-5.95,5.54-12.29,7.26-15.7,8.14-3.91,1.01-11.01,2.73-19.29,.01-1.4-.46-6.36-2.21-11.23-6.67-5.84-5.35-8.03-11.39-10.67-18.67-1.36-3.76-2.97-9.09-3.95-15.74Z"/>
    <path class="cls-6" d="M545.26,420.17c3.07-3.2,8.71-8.25,17.19-11.85,8.03-3.42,15.2-4.08,19.56-4.15"/>
  </g>
  <g>
    <path class="cls-25" d="M257.9,166.87c.29,7.27,6.03,11.62,3.87,17.72-1.11,3.13-2.9,2.79-3.85,5.63-2.32,6.94,5.94,16.24,11.85,20.74,8.85,6.74,18.42,7.29,21.93,7.45,11.44,.5,20.02-3.81,23.7-5.97,14.09-16.62,14.29-39.93,2.07-54.22-14.17-16.58-41.87-17.3-52.74-6.22-1.28,1.31-7.14,7.27-6.83,14.88Z"/>
    <g>
      <path class="cls-6" d="M261.92,203.21c.65,1.25,1.74,1.9,2.82,1.67,1.63-.35,2.27-2.48,2.29-2.57-.15,1.98-.31,3.95-.46,5.93"/>
      <path class="cls-26" d="M298.04,208.69c.1,4.32-2.13,7.57-3.17,8.89-2.7,.44-7.7,.88-13.57-.82-5.39-1.56-9.14-4.23-11.2-5.94-.11-.59-.19-1.31-.16-2.13,.17-5.59,5.15-14.05,14.05-14.05,8.36,0,13.89,7.46,14.05,14.05Z"/>
      <path class="cls-16" d="M274.26,210.14c-.01-.45-.09-5.85,4.33-9,.58-.41,4.34-2.99,8.78-1.44,4.94,1.72,6.05,6.93,6.11,7.22,.76,3.85-1.14,6.83-1.56,7.44"/>
      <path class="cls-27" d="M265.12,174.24c-.56,1.6-1.47,4.81-1.2,8.87,.09,1.42,.49,7.55,4.51,11.61,3.13,3.17,7.19,3.83,10.42,2.61,6.78-2.55,9.1-12.8,9.81-15.92,.75-3.3,.9-6.17,.9-8.09-2.99-1.12-7.47-2.3-12.92-1.98-4.82,.28-8.76,1.64-11.51,2.9Z"/>
      <path class="cls-20" d="M270.16,172.41c-.95,1.81-2.05,4.5-2.44,7.96-.23,2.01-.73,8.67,2.7,13.7,.86,1.26,2.37,3.48,4.71,3.81,4.4,.63,7.52-6.01,7.71-6.42,2.66-5.84,.91-12.23,.5-13.7-.84-3.06-2.15-5.19-3-6.39-1.44-.05-3.02-.02-4.71,.13-2,.18-3.84,.51-5.47,.91Z"/>
      <path class="cls-19" d="M280.88,176.24c-1.36,1.53-2.73,3.06-4.09,4.59-1.52-1.28-3.03-2.57-4.55-3.85l2.61,6.37c-.95,2.76-1.89,5.51-2.84,8.27,1.44-1.87,2.88-3.74,4.32-5.6,1.59,1.63,3.18,3.26,4.78,4.89-.91-2.27-1.82-4.54-2.73-6.81,.83-2.62,1.67-5.23,2.5-7.85Z"/>
      <path class="cls-23" d="M263.92,173.72c-.24-.68,3.28-3.59,5.41-4.96,3.16-2.02,9.73-4.76,20.93,0-.23,1.52-.47,3.04-.7,4.57-3.76-1.36-6.94-1.81-9.21-1.96-6-.38-11.15,1.01-11.72,1.17-2.73,.76-4.54,1.64-4.71,1.17Z"/>
    </g>
    <path class="cls-2" d="M257.9,166.87c.29,7.27,6.03,11.62,3.87,17.72-1.11,3.13-2.9,2.79-3.85,5.63-2.32,6.94,5.94,16.24,11.85,20.74,8.85,6.74,18.42,7.29,21.93,7.45,11.44,.5,20.02-3.81,23.7-5.97,14.09-16.62,14.29-39.93,2.07-54.22-14.17-16.58-41.87-17.3-52.74-6.22-1.28,1.31-7.14,7.27-6.83,14.88Z"/>
  </g>
  <g>
    <path class="cls-17" d="M256.74,82.51c-10.7,3.91-17.1,10.72-18.67,12.44-12.14,13.43-12.47,30.49-12.63,38.52-.1,4.89,.45,8.34,.85,10.37,.9,4.6,2.7,10.08,6.21,15.59,6.2,9.75,16.19,18.07,18.42,16.43,.92-.67,1.03-3.42-3.93-13.73,2.14,3.28,5.5,7.83,10.44,12.44,4.48,4.18,11.9,9.96,13.33,8.67,1-.9-1.59-4.63-4-10.05-3.6-8.11-4.93-15.84-5.34-22.17,1.92,4.53,5.68,11.66,12.89,18,13.93,12.25,30.48,12.53,35.11,12.44-.15,2.86-.79,6.81-3.11,10.67-3.89,6.46-9.93,8.4-9.33,10.22,.55,1.69,6.43,2.08,11.56,.44,10.77-3.44,15.51-14.55,16.77-17.81,7.89-20.43,15.26-73.29-19.14-95.67-1.49-.97-24.98-15.75-49.45-6.81Z"/>
    <path class="cls-1" d="M267.07,139.55c2.25,4.07,6.11,9.88,12.44,15.26,4.08,3.47,8.07,5.82,11.33,7.41"/>
    <g>
      <path class="cls-12" d="M253.15,119.84c.55,.12,1.12,.25,1.71,.4"/>
      <path class="cls-10" d="M259.48,121.54c5.24,1.66,11.38,4.25,17.67,8.38,3.02,1.98,5.65,4.04,7.92,6.05"/>
      <path class="cls-12" d="M286.85,137.59c.44,.41,.86,.82,1.26,1.22"/>
    </g>
    <g>
      <path class="cls-12" d="M247,162.14c-.34-.44-.69-.91-1.05-1.42"/>
      <path class="cls-11" d="M243.57,156.92c-.58-1.06-1.15-2.21-1.69-3.45-1.33-3.08-2.11-5.98-2.58-8.48"/>
      <path class="cls-12" d="M238.96,142.78c-.08-.62-.14-1.2-.19-1.75"/>
    </g>
    <g>
      <path class="cls-12" d="M309.44,181.47c.09-.56,.17-1.14,.25-1.74"/>
      <path class="cls-5" d="M310.1,174.65c.09-2.34,.04-4.89-.22-7.62-.56-5.92-1.96-10.96-3.45-14.91"/>
      <path class="cls-12" d="M305.49,149.75c-.24-.57-.48-1.1-.71-1.61"/>
    </g>
  </g>
  <path class="cls-22" d="M238.07,88.39c3.53-7.93,19.89-42.47,51.56-48.91,51.7-10.52,91.26,68.21,94.52,74.88,8.63,17.63,24.39,49.84,9.78,75.56-13.7,24.11-46.91,29.87-61.78,32.44-17.68,3.06-32.72,1.68-42.67,0,6.22-1.29,30.91-7.08,40.44-27.11,14.84-31.18-20.62-68.32-26.22-74.22-23.36-24.61-52.71-30.79-65.63-32.64Z"/>
  <path class="cls-18" d="M279.26,221.03c3.21-2.77,8.25-6.32,15.11-8,5.73-1.4,8.64-.49,14.22-1.78,4.18-.96,9.99-3.19,16.4-8.92-2.28-2.88-4.56-5.76-6.84-8.64,3.33-1.7,6.67-3.41,10-5.11l-8.44-8.22c3.03-2.41,6.06-4.83,9.1-7.24-4.07-.77-8.14-1.54-12.21-2.32l5.33-11.56c-3.48-1.19-6.96-2.37-10.44-3.56,1.04-3.56,2.07-7.11,3.11-10.67-4-.74-8-1.48-12-2.22,.89-3.7,1.78-7.41,2.67-11.11-4.15-.07-8.3-.15-12.44-.22v-11.56c-4.52,.74-9.04,1.48-13.56,2.22,.15-4.22,.3-8.44,.44-12.67-3.7,1.11-7.41,2.22-11.11,3.33-.44-3.04-.89-6.07-1.33-9.11-4.22,1.93-8.44,3.85-12.67,5.78-.96-3.7-1.93-7.41-2.89-11.11-3.41,2.52-6.81,5.04-10.22,7.56-1.74-4.21-3.48-8.43-5.22-12.64,.12-.73,.34-1.71,.78-2.81,0,0,.45-1.14,1.04-2.08,2.94-4.72,24.51,6.09,24.51,6.09,18.12,9.08,28.79,14.43,41.12,26.55,6.57,6.46,17.33,17.25,24.33,34.74,3.63,9.07,7.29,18.23,4.95,29.8-2.72,13.43-11.81,21.57-15.35,24.65-11.09,9.65-23.31,11.63-28.15,12.15-3.41-.44-6.81-.89-10.22-1.33Z"/>
  <path class="cls-22" d="M359.09,106.08c6.09,.82,24.97,4.15,40.09,20.33,9.13,9.77,13.11,20.18,14.9,26.27,.22,.63,1.1,3.38-.22,6.43-1.2,2.78-3.46,4.03-4.1,4.36-4.46,2.96-11.3,6.72-20.3,8.95-5.91,1.46-11.19,1.88-15.37,1.89"/>
  <path class="cls-13" d="M360.52,112.73c5.35,.85,12.31,2.7,19.56,6.81,10.69,6.08,15.99,13.69,21.93,22.22,6.76,9.71,6.25,12.73,5.63,14.22-.68,1.65-2.27,3.27-10.37,5.93-4.7,1.54-11.41,3.37-19.85,4.44"/>
  <path class="cls-22" d="M331.73,87.04c3.18-1.43,7.83-3.07,13.63-3.56,3.16-.27,5.97-.13,8.31,.14"/>
  <path class="cls-22" d="M337.81,94.06c3.18-1.43,7.83-3.07,13.63-3.56,3.16-.27,5.97-.13,8.31,.14"/>
  <path class="cls-22" d="M343.61,101.29c3.18-1.43,7.83-3.07,13.63-3.56,3.16-.27,5.97-.13,8.31,.14"/>
  <path class="cls-21" d="M302.35,46.37c4.87,1.09,11.35,3.07,18.37,6.81,7.79,4.16,13.44,9,17.19,12.74-6.24,7.56-16.93,9.75-25.48,5.33-8.89-4.59-13.23-15.19-10.07-24.89Z"/>
  <path class="cls-13" d="M246.66,81.62c11.25,2.58,28.54,8.1,46.22,20.74,22.04,15.75,32.87,34.1,37.63,42.37,9.9,17.19,10.78,27.41,10.96,30.52,.32,5.4,.83,16.35-5.93,27.56-6.59,10.93-16.27,15.78-20.15,17.48"/>
</svg>