<?xml version="1.0" encoding="UTF-8"?>
<svg id="CharacterBack" xmlns="http://www.w3.org/2000/svg" viewBox="0 0 640 640">
  <defs>
    <style>
      .cls-1 {
        stroke-dasharray: 0 0 3.48 5.23;
      }

      .cls-1, .cls-2, .cls-3, .cls-4, .cls-5, .cls-6, .cls-7, .cls-8, .cls-9, .cls-10, .cls-11 {
        stroke-linecap: round;
        stroke-linejoin: round;
      }

      .cls-1, .cls-2, .cls-3, .cls-4, .cls-6, .cls-12, .cls-7, .cls-8, .cls-10, .cls-11 {
        stroke-width: 2.5px;
      }

      .cls-1, .cls-3, .cls-5, .cls-6, .cls-8, .cls-9, .cls-10, .cls-11 {
        fill: none;
      }

      .cls-1, .cls-3, .cls-6, .cls-10, .cls-11 {
        stroke: #175f99;
      }

      .cls-2 {
        fill: #175f99;
      }

      .cls-2, .cls-4, .cls-12, .cls-7, .cls-8 {
        stroke: #000;
      }

      .cls-3 {
        stroke-dasharray: 0 0 3.37 5.05;
      }

      .cls-4 {
        fill: #d9faff;
      }

      .cls-5, .cls-9 {
        stroke: #bc695c;
        stroke-width: 2px;
      }

      .cls-6 {
        stroke-dasharray: 0 0 3.52 5.28;
      }

      .cls-12 {
        fill: #f5e3d9;
        stroke-miterlimit: 10;
      }

      .cls-7, .cls-13 {
        fill: #91b6ed;
      }

      .cls-9 {
        stroke-dasharray: 0 0 2.4 3.2;
      }

      .cls-11 {
        stroke-dasharray: 0 0 3.52 5.29;
      }
    </style>
  </defs>
  <g>
    <path class="cls-7" d="M434.24,304.38c-1.98,3.72-4.64,9.63-5.91,17.26-.52,3.1-.76,6.25,.4,25.66,.55,9.23,.83,13.84,1.34,19.73,1.08,12.29,1.49,18.44,2.06,22.28,.87,5.79,5.35,35.65,26.06,42.47,15.76,5.19,36.54-4.41,42.4-18.82,2.74-6.74,1.64-13.13,.28-21.07-.45-2.59-1.98-10.56-13.21-31.46-4.02-7.49-7.82-13.92-11.07-19.14-2.6-5.88-5.77-12.21-9.64-18.81-2.06-3.5-8.55-14.26-19.25-26.87-3.96-4.67-7.52-8.43-10.2-11.16"/>
    <path class="cls-4" d="M432.34,390.7c4.21-4.79,11.18-11.5,21.43-16.86,15.14-7.92,29.29-8.62,36.49-8.47,5.2,9,8.07,16.99,9.71,22.66,2.53,8.72,3.96,13.88,2.39,20.48-1.96,8.25-7.3,13.36-9.19,15.11-5.95,5.54-12.29,7.26-15.7,8.14-3.91,1.01-11.01,2.73-19.29,.01-1.4-.46-6.36-2.21-11.23-6.67-5.84-5.35-8.03-11.39-10.67-18.67-1.36-3.76-2.97-9.09-3.95-15.74Z"/>
    <path class="cls-8" d="M457.97,424.85c3.07-3.2,8.71-8.25,17.19-11.85,8.03-3.42,15.2-4.08,19.56-4.15"/>
  </g>
  <path class="cls-2" d="M365.48,394.71c.89,8.23,2.12,22.56,.91,32.64-.09,.76-.26,2-.91,3.47-3.64,8.24-16.18,9.62-19.67,10-9.35,1.03-16.94-1.9-21-3.89-.12-8.1-.25-16.2-.37-24.3-2.73,8.67-5.47,17.34-8.2,26.02-3.34,1.45-10.21,3.87-18.76,2.72-4.1-.55-14.27-1.91-18.3-9.33-2.45-4.52-1.5-9.21,.36-18.33,1.4-6.85,3.46-12.28,5.04-15.89,11.19,2.93,27.91,5.84,48,4,13.2-1.21,24.33-4.14,32.89-7.11Z"/>
  <path class="cls-4" d="M126.5,336.16c4.84-13.29,11.1-21.93,15.4-26.95,3.89-4.54,6.84-6.89,10.74-7.42,6.51-.89,11.83,3.8,13.31,5.19-2.1,3.98-5.29,8.88-10.08,13.64-10.82,10.74-23.29,14.28-29.36,15.55Z"/>
  <g>
    <path class="cls-13" d="M278.75,324.19c-2.9,8.48-4.44,12.39-5.72,15.52-.64,1.57-1.33,3.18-2.1,4.91-10.11,22.8-17,38.47-23.22,44.96-.65,.68-3.01,3.02-3.09,6.25-.06,2.35,1.1,4.03,2.63,6.49,1.5,2.43,3.58,5.98,5.86,10.62v8.59c7.97,2.59,18.59,5.52,31.31,7.63,11.66,1.93,27.81,4.53,48.44,2.44,10.08-1.02,24.35-3.47,40.75-9.8-.13-3-.26-5.99-.39-8.99,1.07-.42,2.75-1.28,3.63-2.99,1.34-2.6,.06-5.7-.22-6.44-1.47-3.84,.94-2.35-3.56-43.78-.35-3.26-.68-6.2-1.02-9.09-1.35-11.52-2-17.28-2.74-21.81-.92-5.62-2.6-13.67-5.96-23.44,5.6-8.5,5.41-12.62,4.15-14.81-1.06-1.84-3.15-2.79-5.41-6.52-1.22-2-1.89-3.83-2.25-4.99-1.55-2.09-3.1-4.19-4.65-6.28-12.58-5.87-23.29-6.4-29.21-6.21-14.6,.47-32.09,6.31-34.75,14.78-.22,.69-.39,1.59-1.03,2.96-2.89,6.23-8.11,6.85-10.11,10.41-1.32,2.35-1.57,6.55,3.54,14.72-1.86,5.85-3.54,10.86-4.9,14.85Z"/>
    <path class="cls-8" d="M274.14,376.05c.66,.81,1.41,1.84,2.11,3.12,.68,1.25,1.14,2.41,1.46,3.39"/>
    <path class="cls-7" d="M282.65,309.92c-3.45,15.18-8.05,26.78-11.71,34.71-12.24,26.54-18.32,39.85-23.22,44.96-.65,.68-3.01,3.02-3.09,6.25-.06,2.35,1.1,4.03,2.63,6.49,1.5,2.43,3.58,5.98,5.86,10.62v8.59c7.97,2.59,18.59,5.52,31.31,7.63,11.66,1.93,27.81,4.53,48.44,2.44,10.08-1.02,24.35-3.47,40.75-9.8-.13-3-.26-5.99-.39-8.99,1.07-.42,2.75-1.28,3.63-2.99,1.34-2.6,.06-5.7-.22-6.44-1.47-3.84,.94-2.35-3.56-43.78-1.86-17.13-2.63-25.82-3.76-30.89-2.08-9.34-4.72-16.81-6.69-21.78"/>
    <path class="cls-8" d="M253.11,413.99c20.04,4.71,37.1,6.72,49.76,7.64,12.46,.9,22.97,1.6,36.89-.22,14.14-1.86,25.57-5.5,33.48-8.57"/>
    <path class="cls-7" d="M359.61,277.6c-.92-1.33-2.34-3.14-4.39-4.92-10.48-9.03-25.55-6.74-33.68-5.5-13.93,2.12-24.31,8.27-30.5,12.82"/>
  </g>
  <path class="cls-7" d="M200.42,283.65c-4.04,1.8-7.27,3.36-9.29,4.36,0,0-36.93,18.17-72.02,55.77-1.38,1.48-2.31,2.92-2.97,4.31,0,0-1.15,2.43-1.45,4.94-.76,6.51,29.36,31.06,46.64,21.89,8.11-4.31,6.54-12.4,18.6-31.72,6.06-9.71,12.17-16.82,16.13-21.07"/>
  <g>
    <path class="cls-10" d="M257.86,418.78c.55,.15,1.12,.3,1.7,.45"/>
    <path class="cls-1" d="M264.63,420.48c5.65,1.33,12.47,2.72,20.23,3.87,11.69,1.73,27.59,3.99,47.79,2.17,8.35-.76,19.62-2.41,32.7-6.26"/>
    <path class="cls-10" d="M367.85,419.49c.56-.17,1.12-.35,1.68-.53"/>
  </g>
  <g>
    <path class="cls-7" d="M400.35,96c10.22,6.68,17.68,13.44,22.68,18.51,0,0,12.02,12.18,18.21,29.64,.47,1.33,.8,2.97,.22,4.6-.59,1.67-1.87,2.61-2.44,3.04-4.61,3.41-19.23,6.51-20,6.67"/>
    <g>
      <path class="cls-10" d="M413.24,112.3c.39,.39,.81,.81,1.24,1.25"/>
      <path class="cls-6" d="M418.1,117.39c1.97,2.16,4.14,4.67,6.4,7.5,8.01,10.03,12.75,16.11,10.81,20.89-.41,1.01-1.53,2.98-5.26,4.52"/>
      <path class="cls-10" d="M427.55,151.15c-.54,.15-1.11,.28-1.72,.41"/>
    </g>
    <path class="cls-7" d="M266.43,211.64c7.82,3.54,31.06,11.68,65.13,9.34,22.57-1.55,64.42-4.42,81.83-33.32,5.06-8.4,6.75-16.46,7.29-20.78,1.06-8.54,1.55-25.05-12.92-58-9.45-21.53-14.18-32.29-24.06-43.38-6.28-7.05-30.16-33.53-64.21-32.17-43.31,1.73-68.61,47.65-73.12,55.87-10.5,19.1-13.49,37.67-16.4,55.75-2.97,18.44-4.54,29.03,.37,40.01,6.51,14.54,20.39,19.57,36.1,26.69Z"/>
    <path class="cls-7" d="M255.09,100.35c-6.09,.82-24.97,4.15-40.09,20.33-9.13,9.77-13.11,20.18-14.9,26.27-.22,.63-1.1,3.38,.22,6.43,1.2,2.78,3.46,4.03,4.1,4.36,4.46,2.96,11.3,6.72,20.3,8.95,5.91,1.46,11.19,1.88,15.37,1.89"/>
    <path class="cls-7" d="M284.25,81.3c-3.18-1.43-7.83-3.07-13.63-3.56-3.16-.27-5.97-.13-8.31,.14"/>
    <path class="cls-7" d="M278.16,88.33c-3.18-1.43-7.83-3.07-13.63-3.56-3.16-.27-5.97-.13-8.31,.14"/>
    <path class="cls-7" d="M272.37,95.56c-3.18-1.43-7.83-3.07-13.63-3.56-3.16-.27-5.97-.13-8.31,.14"/>
    <path class="cls-7" d="M392.63,94.01c.69-.64,1.77-1.49,3.27-2.14,1.16-.51,2.21-.74,3.01-.86"/>
    <path class="cls-7" d="M388.32,85.52c.69-.64,1.77-1.49,3.27-2.14,1.16-.51,2.21-.74,3.01-.86"/>
    <path class="cls-7" d="M383.2,78.25c.69-.64,1.77-1.49,3.27-2.14,1.16-.51,2.21-.74,3.01-.86"/>
    <path class="cls-11" d="M253.66,107c-5.35,.85-12.31,2.7-19.56,6.81-10.69,6.08-15.99,13.69-21.93,22.22-6.76,9.71-6.25,12.73-5.63,14.22,.68,1.65,2.27,3.27,10.37,5.93,4.7,1.54,11.41,3.37,19.85,4.44"/>
  </g>
  <path class="cls-7" d="M257.68,590.59c-.12-1.34-.17-3.32,.24-5.64,.27-1.53,2.91-15.46,14.32-17.62,8.1-1.53,16.02,3.75,19.09,10.3,1.41,3,1.6,5.86,1.55,7.73,2.68,3.72,5.36,7.44,8.04,11.15,.13,.28,.27,.63,.37,1.05,.09,.39,.13,.75,.14,1.04-.18,1.84-.36,3.68-.54,5.52-1.8,1.66-6.39,5.41-13.32,6.38-10.85,1.53-18.72-4.95-20.01-6.05-3.29-4.62-6.58-9.25-9.87-13.87Z"/>
  <path class="cls-7" d="M287.1,573.3c.06-.76,.5-7.45-4.12-11.99-3.63-3.57-8.94-4.41-13.65-2.18,1.21,1.13,3.71,3.82,4.49,8.11,.21,1.16,.26,2.23,.22,3.17-.8-.72-1.88-1.55-3.27-2.25-2.31-1.15-4.42-1.41-5.78-1.45,.63,1.26,1.35,3.04,1.79,5.29,.32,1.62,.41,3.08,.41,4.26"/>
  <path class="cls-7" d="M318.64,594.87c.2,1.9,.98,6.83,4.87,11.26,5.15,5.86,12.06,6.67,14.3,6.77,7.41,.31,14.41-2.36,16.58-6.41,1.47-3.76,2.95-7.53,4.42-11.29,.82-2.33,2.19-7.33,.58-13.06-2.4-8.52-10.67-16.05-21.04-16-10.47,.05-19.11,7.83-21,16.75-1.12,5.28,.37,9.8,1.28,11.99Z"/>
  <path class="cls-7" d="M354.39,577.48c.14-.74,1.22-7.27-3.44-12.32-3.66-3.96-9.42-5.46-14.79-3.86,1.22,1.26,3.73,4.22,4.19,8.54,.12,1.17,.08,2.23-.04,3.15-.81-.81-1.92-1.77-3.39-2.62-2.43-1.42-4.72-1.94-6.22-2.15,.57,1.32,1.2,3.16,1.48,5.43,.2,1.64,.17,3.08,.06,4.24"/>
  <path class="cls-11" d="M354.06,591.61c-.07,1.07-.58,7.41-5.93,11.56-.94,.73-4.33,3.28-9.19,3.11-5.85-.2-9.45-4.17-10.37-5.19-3.36-3.71-3.99-7.91-4.15-9.48"/>
  <path class="cls-8" d="M355.69,587.91c-2.86-6.34-9.01-10.54-15.85-10.81-7.35-.3-14.24,3.99-17.33,10.81"/>
  <g>
    <path class="cls-10" d="M296.5,598.06c-.34,.31-.79,.71-1.35,1.13"/>
    <path class="cls-3" d="M290.73,601.59c-.82,.29-1.71,.53-2.67,.69-5.83,.96-10.38-1.75-12.67-3.11-2.13-1.27-3.82-2.74-5.15-4.17"/>
    <path class="cls-10" d="M268.62,593.06c-.38-.51-.72-.99-1.01-1.44"/>
  </g>
  <path class="cls-8" d="M263.21,589.53c.4-1.36,1.05-3.21,2.18-5.25,1.05-1.9,4.79-8.7,10.3-10.03,5.65-1.36,12.96,3.08,17.18,11.11"/>
  <g>
    <path class="cls-8" d="M338.35,569.29v1.76"/>
    <path class="cls-8" d="M338.35,575.63v1.76"/>
  </g>
  <path class="cls-12" d="M354.25,500.88c-1.2,4.68-2.19,9.4-3.33,14.1-.19,.77-.55,2.31-.88,4.34-.26,1.6-.44,3.12-.55,4.53,.27,8.42,.41,17.09,.39,25.97-.03,14.18-.46,27.8-1.2,40.83,.41,.97,.85,2.44,.62,4.15-.6,4.36-5.38,8.44-10.37,7.81-4.09-.52-6.73-4.01-7.7-6.81-.61-1.77-.61-3.36-.51-4.39-2.37-18.33-3.5-26.44-4.06-30.1-.09-.57-.39-2.53-.73-5.17-.33-2.64-.61-5.35-.89-8.65-.49-5.73-.58-14.1,1.56-24.68-.02-1.54,0-3.13,.06-4.76,.2-5.66,.87-10.87,1.77-15.54,1.07-8.58,2.13-17.16,3.2-25.75,1.47-7.38,8.38-12.02,14.84-10.86,5.29,.95,9.59,5.66,10.27,11.6-.16,11.87-1.36,19-2.48,23.39Z"/>
  <path class="cls-12" d="M305.46,503c-.46,2.77-1.33,6.83-3.08,11.52-1.45,3.87-2.71,6.07-3.72,8.22-3.05,6.49-3.51,11.95-4.31,18.79-1.08,9.19-2.73,20.55-5.07,35.27,.25,3.27,.5,6.54,.76,9.81,.47,1.31,1.9,5.68-.15,8-3.18,3.6-12.11-.68-13.48-1.33-5.48-2.62-8.73-6.71-10.37-9.19,.41-.84,.92-1.76,1.55-2.7,1.33-1.98,2.79-3.45,4.03-4.5-.05-12.09,.06-21.93,.09-28.96,.02-3.88,.06-9.99,1.72-17.95,.11-.51,.21-.96,.3-1.36,1.89-8,4.81-14.2,7.04-18.25,.48-.82,.96-1.78,1.38-2.88,.91-2.36,1.21-4.51,1.3-6.14-.15-7.31-.3-14.61-.45-21.92,1.1-5.6,5.58-9.79,10.8-10.34,6.19-.65,12.32,3.92,13.54,10.7-.63,7.74-1.26,15.48-1.89,23.22Z"/>
  <g>
    <path class="cls-5" d="M342.65,524.95c-.17-.16-.52-.48-1.03-.82"/>
    <path class="cls-9" d="M338.67,522.96c-.24-.04-.5-.07-.76-.08-1.23-.07-2.3,.17-3.17,.52"/>
    <path class="cls-5" d="M333.32,524.14c-.55,.36-.91,.69-1.04,.81"/>
  </g>
  <g>
    <path class="cls-5" d="M293.47,520.63c-.11-.21-.33-.63-.7-1.12"/>
    <path class="cls-9" d="M290.39,517.42c-.22-.12-.44-.23-.69-.33-1.14-.48-2.23-.61-3.16-.57"/>
    <path class="cls-5" d="M284.96,516.73c-.64,.16-1.09,.34-1.25,.42"/>
  </g>
</svg>