<?xml version="1.0" encoding="UTF-8"?>
<svg id="CharacterFront" xmlns="http://www.w3.org/2000/svg" viewBox="0 0 640 640">
  <defs>
    <style>
      .cls-1 {
        stroke-dasharray: 0 0 3.03 4.54;
      }

      .cls-1, .cls-2, .cls-3, .cls-4, .cls-5, .cls-6, .cls-7, .cls-8, .cls-9, .cls-10, .cls-11, .cls-12, .cls-13, .cls-14, .cls-15, .cls-16, .cls-17, .cls-18, .cls-19, .cls-20 {
        fill: none;
      }

      .cls-1, .cls-2, .cls-3, .cls-21, .cls-22, .cls-5, .cls-23, .cls-6, .cls-24, .cls-7, .cls-8, .cls-9, .cls-10, .cls-25, .cls-11, .cls-26, .cls-27, .cls-12, .cls-13, .cls-14, .cls-28, .cls-15, .cls-16, .cls-17, .cls-18, .cls-19, .cls-20 {
        stroke-linecap: round;
        stroke-linejoin: round;
      }

      .cls-1, .cls-3, .cls-7, .cls-8, .cls-29, .cls-14 {
        stroke: #bc695c;
      }

      .cls-1, .cls-3, .cls-7, .cls-8, .cls-29, .cls-14, .cls-28 {
        stroke-width: 2px;
      }

      .cls-2, .cls-21, .cls-22, .cls-5, .cls-6, .cls-24, .cls-9, .cls-30, .cls-10, .cls-11, .cls-26, .cls-27, .cls-12, .cls-13, .cls-31, .cls-15, .cls-16, .cls-17, .cls-18, .cls-19 {
        stroke-width: 2.5px;
      }

      .cls-2, .cls-6, .cls-10, .cls-12, .cls-16, .cls-17, .cls-18 {
        stroke: #6797c6;
      }

      .cls-2, .cls-19 {
        stroke-dasharray: 0 0 3.52 5.29;
      }

      .cls-3 {
        stroke-dasharray: 0 0 2.67 3.57;
      }

      .cls-4, .cls-32, .cls-21, .cls-22, .cls-23, .cls-24, .cls-30, .cls-25, .cls-26, .cls-27, .cls-13, .cls-31, .cls-28, .cls-20 {
        stroke: #000;
      }

      .cls-4, .cls-32, .cls-30, .cls-29, .cls-31 {
        stroke-miterlimit: 10;
      }

      .cls-4, .cls-32, .cls-20 {
        stroke-width: 2.64px;
      }

      .cls-32, .cls-30 {
        fill: #f5e3d9;
      }

      .cls-21 {
        fill: #175f99;
      }

      .cls-22, .cls-25 {
        fill: #d9faff;
      }

      .cls-5 {
        stroke-dasharray: 0 0 3.59 5.38;
      }

      .cls-5, .cls-9, .cls-11, .cls-15, .cls-19 {
        stroke: #175f99;
      }

      .cls-23 {
        fill: #fff;
      }

      .cls-6 {
        stroke-dasharray: 0 0 3.22 4.84;
      }

      .cls-24 {
        fill: #e0687c;
      }

      .cls-33 {
        fill: #ddc7bc;
      }

      .cls-8 {
        stroke-dasharray: 0 0 3.25 4.88;
      }

      .cls-9 {
        stroke-dasharray: 0 0 3.52 5.28;
      }

      .cls-10 {
        stroke-dasharray: 0 0 3.4 5.1;
      }

      .cls-25 {
        stroke-width: 1.5px;
      }

      .cls-11 {
        stroke-dasharray: 0 0 3.25 4.88;
      }

      .cls-26 {
        fill: #78b3ce;
      }

      .cls-27 {
        fill: #91b6ed;
      }

      .cls-12 {
        stroke-dasharray: 0 0 3.42 5.12;
      }

      .cls-34 {
        fill: #efe8e6;
      }

      .cls-29 {
        fill: #f1a791;
      }

      .cls-14 {
        stroke-dasharray: 0 0 2.81 3.75;
      }

      .cls-31 {
        fill: #a84f73;
      }

      .cls-28 {
        fill: #3f3f3f;
      }

      .cls-16 {
        stroke-dasharray: 0 0 3.2 4.8;
      }

      .cls-17 {
        stroke-dasharray: 0 0 2.99 4.49;
      }
    </style>
  </defs>
  <path class="cls-31" d="M203.01,207.41c-26.96,12.2-50.89,10.52-65.13,9.34-16.29-1.35-31.95-7.56-63.28-19.98-4.91-1.95-12.67-5.14-18.56-13.34-2.17-3.02-5.84-9.16-7.29-20.78-1.06-8.54-1.55-25.05,12.92-58,9.45-21.53,14.18-32.29,24.06-43.38,6.28-7.05,30.16-33.53,64.21-32.17,43.31,1.73,68.61,47.65,73.12,55.87,10.5,19.1,13.49,37.67,16.4,55.75,2.97,18.44,4.54,29.03-.37,40.01-6.51,14.54-20.39,19.57-36.1,26.69Z"/>
  <path class="cls-21" d="M266.24,370.26c-.89,8.23-2.12,22.56-.91,32.64,.09,.76,.26,2,.91,3.47,3.64,8.24,16.18,9.62,19.67,10,9.35,1.03,16.94-1.9,21-3.89,.12-8.1,.25-16.2,.37-24.3,2.73,8.67,5.47,17.34,8.2,26.02,3.34,1.45,10.21,3.87,18.76,2.72,4.1-.55,14.27-1.91,18.3-9.33,2.45-4.52,1.5-9.21-.36-18.33-1.4-6.85-3.46-12.28-5.04-15.89-11.19,2.93-27.91,5.84-48,4-13.2-1.21-24.33-4.14-32.89-7.11Z"/>
  <path class="cls-32" d="M309.66,245.72c-1.54,1-5.11,3.36-7.53,7.9-1.49,2.79-2.84,5.31-1.81,7.94,1.02,2.59,3.86,4.14,6.35,4.41,1.55,.17,2.84-.17,3.61-.44,2.28-2.92,4.87-6,7.82-9.15,3.33-3.55,6.6-6.66,9.7-9.36-.48-1.19-1.63-3.45-4.01-4.55-2.4-1.11-4.77-.45-7.73,.38-3.08,.86-5.31,2.17-6.39,2.87Z"/>
  <path class="cls-27" d="M325.29,243.25c1.27,1.02,1.76,2.53,1.98,3.67-1.54,1.49-3.74,3.65-6.29,6.35-3.68,3.88-8.35,9.12-10.7,12.27-2.86,3.83-5.71,8.78-8.61,22.97-4.48,21.87-5.33,39.6-6,54.94-.27,6.11-.5,14.01,0,24.01,.27,5.44,.69,10,1.04,13.31,.27,2.23,.3,3.97,.26,5.22-.03,.88-.1,1.83,.52,2.61,.36,.45,.84,.71,1.7,1.17,.68,.37,1.27,.62,1.7,.78-.02,2.23,.03,4.17,.09,5.74,.11,2.96,.26,4.05,1.09,4.96,.8,.88,1.89,1.18,2.61,1.3,4.77,.62,11.09,1.29,18.54,1.67,8.47,.42,14.74,.74,22.83-.23,4.76-.57,11.2-1.71,18.66-4.18-1.2-30.64-3.42-62.75-6.92-96.18-1.77-16.87-3.78-33.31-6-49.33-1.99-2.57-5.2-6.15-9.92-9.4-2.65-1.82-8.62-5.93-16.18-6.79-4.58-.52-8.92,.26-21.76,6.12-6.62,3.03-15.5,7.41-25.74,13.45-2.88,21.76-9.29,49.81-23.89,79.68-5.44,11.12-11.28,21-17.08,29.68-.47,.56-1.22,1.63-1.5,3.13-.29,1.58,.09,2.83,.29,3.52,1.34,4.45,7.67,10.43,8.09,10.82v12.57c2.4,.9,5.59,1.83,9.43,2.25,5,.55,9.22,.02,12.14-.59,.3-.05,.97-.22,1.6-.78,.73-.65,.95-1.44,1.01-1.73,.01-2.51,.02-5.02,.03-7.54,1.38-.87,2.76-1.74,4.14-2.61,.26-4.05,.79-10.3,1.96-17.88,2.03-13.2,3.71-15.59,6.56-31.6,1.56-8.73,1.41-9.98,3.57-21.77,1.39-7.61,2.51-12.86,3.18-15.92,.79-3.61,1.82-8.4,3.47-14.55,.84-3.15,3.36-12.42,7.76-23.94,1.95-5.12,2.94-7.17,4.83-9.4,3.99-4.69,8.82-6.4,11.48-7.31,3.54-1.2,7.5-2.55,10.05-.49Z"/>
  <path class="cls-13" d="M300.88,390.55c3.78,.94,8.82,2,14.82,2.73,7.86,.96,13.54,.88,20.81,.79,12.19-.16,16.22-1.19,17.94-1.68,4.21-1.19,7.52-2.78,9.76-4"/>
  <path class="cls-13" d="M268.29,388.73c-.67,.24-1.64,.55-2.84,.85-2.03,.51-4.77,.97-10.18,.88-2.92-.05-6.72-.26-11.19-.91"/>
  <path class="cls-27" d="M404.6,278.52c-1.98,3.72-4.64,9.63-5.91,17.26-.52,3.1-.76,6.25,.4,25.66,.55,9.23,.83,13.84,1.34,19.73,1.08,12.29,1.49,18.44,2.06,22.28,.87,5.79,5.35,35.65,26.06,42.47,15.76,5.19,36.54-4.41,42.4-18.82,2.74-6.74,1.64-13.13,.28-21.07-.45-2.59-1.98-10.56-13.21-31.46-4.02-7.49-7.82-13.92-11.07-19.14-2.6-5.88-5.77-12.21-9.64-18.81-2.06-3.5-8.55-14.26-19.25-26.87-3.96-4.67-7.52-8.43-10.2-11.16"/>
  <path class="cls-27" d="M211.87,253.38c-3.75,2.35-6.73,4.34-8.6,5.61,0,0-34.04,23.13-63.56,65.25-1.16,1.66-1.88,3.21-2.34,4.68-.71,2.27-.74,4.13-.74,5.1-.06,8.15,4.05,16.44,4.05,16.44,.4,.8,4.9,8.33,12.67,14.96,1.21,1.04,3.5,2.67,6.67,3.11,2.99,.41,5.51-.42,8.26-1.69,10.67-4.93,17.08-12.53,17.08-12.53,4.96-5.88,7.56-11.91,8.96-16.3-1.96-1.32-3.92-2.64-5.87-3.96,3.28-7.77,7.55-16.43,13.13-25.52,3.77-6.13,7.61-11.6,11.33-16.44"/>
  <path class="cls-19" d="M305.79,396.95c7.95,1.45,18.09,2.56,29.82,2.02,9.27-.42,17.39-1.77,24.08-3.33"/>
  <path class="cls-19" d="M262.6,394.34c-2.83,.27-6.08,.41-9.66,.26-3.27-.13-6.24-.48-8.86-.91"/>
  <path class="cls-22" d="M301.43,254.79c3.49-5.28,7.49-8.09,9.88-9.5,3.36-1.97,8.49-4.98,12.47-2.82,2,1.09,2.99,3.09,3.48,4.45-2.43,2.35-4.91,4.87-7.42,7.55-3.12,3.34-5.99,6.63-8.61,9.81-1.68,2.26-3.93,5.67-5.84,10.16-2.3,5.37-3.06,9.79-3.6,13.05-2.33,14.07-3.49,21.1-4.1,26.78-1.25,11.62-1.62,19.78-2.12,30.79-.4,8.8-.42,14.32-.05,20.71,.25,4.45,.64,8.16,.96,10.8-3.11-.14-6.77-.53-10.79-1.39-4.65-.99-8.61-2.37-11.81-3.71,.51-3.12,1.32-7.87,2.46-13.64,1.57-7.9,2.24-10.05,3.67-17.1,1.51-7.47,1.44-8.44,3.34-19.17,.92-5.17,2.15-12.11,3.91-20.38,2.11-9.91,3.74-17.57,6.85-27.21,2.39-7.41,4.96-13.84,7.33-19.18Z"/>
  <path class="cls-22" d="M402.7,364.83c4.21-4.79,11.18-11.5,21.43-16.86,15.14-7.92,29.29-8.62,36.49-8.47,5.2,9,8.07,16.99,9.71,22.66,2.53,8.72,3.96,13.88,2.39,20.48-1.96,8.25-7.3,13.36-9.19,15.11-5.95,5.54-12.29,7.26-15.7,8.14-3.91,1.01-11.01,2.73-19.29,.01-1.4-.46-6.36-2.21-11.23-6.67-5.84-5.35-8.03-11.39-10.67-18.67-1.36-3.76-2.97-9.09-3.95-15.74Z"/>
  <path class="cls-13" d="M428.34,398.99c3.07-3.2,8.71-8.25,17.19-11.85,8.03-3.42,15.2-4.08,19.56-4.15"/>
  <path class="cls-22" d="M152.9,306.86c4.71,.57,13.77,2.33,23,8.67,7.45,5.12,11.93,11.1,14.33,14.89-.6,1.21-1.2,2.42-1.8,3.63,1.96,1.32,3.92,2.64,5.87,3.96-1.24,3.94-3.75,10.15-8.96,16.3-7.14,8.42-15.47,12.16-19.65,13.71-.93,.35-3.03,.89-5.68,.51-1.12-.16-2.41-.5-4.02-1.31-3.54-1.77-6.08-4.52-8.66-7.73-3.92-4.88-5.89-7.32-7.39-10.51-1.05-2.22-3.54-8.08-3.31-14.96,.11-3.25,.78-5.28,1.2-6.36,.83-2.1,1.87-3.48,2.82-4.75,3.68-4.9,6.52-8.78,6.84-9.19,2.19-2.78,4.04-5.12,5.41-6.85Z"/>
  <path class="cls-26" d="M273,379.23c3.11,1.27,7,2.57,11.57,3.48,4.73,.94,8.95,1.23,12.39,1.23-.16-2.46-.32-4.92-.48-7.37-3.31-.21-7.19-.68-11.46-1.64-4.3-.97-8.04-2.22-11.14-3.46-.29,2.59-.59,5.17-.88,7.76Z"/>
  <g>
    <path class="cls-25" d="M157.08,216.8c-1.45,5.65-2.74,11.74-3.76,18.24-2.73,17.46-2.74,33.16-1.67,46.22,.24,1.31-.54,2.51-1.55,2.76-1.17,.29-2.64-.68-2.76-2.26-.47-8.28-.56-17.46,0-27.38,.78-13.67,2.64-25.9,4.87-36.4,1.63-.39,3.25-.79,4.88-1.18Z"/>
    <path class="cls-25" d="M147.62,271.98c-.04-.89,2.37-2.4,4.33-1.67,1.93,.72,3.16,3.52,2,5.11-.75,1.02-2.38,1.41-4,.89,.2-.57,.34-1.33,.06-2.06-.57-1.46-2.36-1.52-2.39-2.28Z"/>
    <path class="cls-25" d="M148.84,273.54c-.71-.88-2.84-.9-4.11,.22-1.1,.97-1.22,2.51-.94,3.56,.59,2.24,3.35,3.57,5.39,2.94,1.66-.51,2.85-2.31,2.5-2.94-.31-.57-1.68,.11-2.4-.67-.78-.84,.28-2.22-.43-3.11Z"/>
  </g>
  <g>
    <path class="cls-25" d="M122.14,214.65c-1.9,5.51-3.68,11.48-5.22,17.88-4.13,17.18-5.41,32.83-5.4,45.93,.14,1.33-.74,2.46-1.77,2.63-1.19,.2-2.57-.89-2.57-2.48,.2-8.29,.85-17.45,2.21-27.29,1.88-13.56,4.72-25.6,7.79-35.89,.49-.91,.98-1.81,1.47-2.72,1.16,.65,2.33,1.29,3.49,1.94Z"/>
    <path class="cls-25" d="M108.25,268.89c.04-.89,2.56-2.2,4.45-1.31,1.87,.88,2.86,3.77,1.58,5.26-.83,.96-2.49,1.21-4.06,.56,.24-.56,.45-1.3,.22-2.04-.45-1.5-2.23-1.71-2.2-2.46Z"/>
    <path class="cls-25" d="M109.34,270.54c-.63-.94-2.76-1.13-4.12-.11-1.17,.88-1.42,2.4-1.23,3.47,.41,2.28,3.05,3.83,5.13,3.37,1.69-.37,3.03-2.07,2.73-2.73-.26-.59-1.68-.03-2.34-.86-.71-.9,.46-2.19-.18-3.13Z"/>
  </g>
  <path class="cls-13" d="M310.24,341.38c3.56,.12,7.12,.24,10.68,.36,.5,.23,1.33,.68,2.1,1.53,.8,.88,1.17,1.78,1.34,2.3,.87,3.44,2.63,8.61,6.33,14.03,0,0,2.37,3.44,11.33,11.41,.14,.13,.61,.54,.98,1.23,.32,.6,.43,1.17,.48,1.57-.16,1.49-.58,3.56-1.67,5.79-2.13,4.34-5.53,6.63-7.11,7.56"/>
  <path class="cls-19" d="M323.35,383.38c-2.21-.98-5.13-2.02-8.67-2.67-4.27-.78-7.96-.71-10.67-.44"/>
  <path class="cls-13" d="M270.98,339.15l-6.67,1.04c-1.04,3.37-2.92,8.09-6.43,13.01-4.56,6.37-9.81,10.19-13.17,12.26-.09,1.09-.16,3.89,1.53,6.73,1.07,1.81,2.43,2.91,3.3,3.5"/>
  <path class="cls-19" d="M254.54,369.52c1.95-1.16,4.53-2.41,7.7-3.26,1.31-.35,2.56-.58,3.7-.74"/>
  <path class="cls-27" d="M69.08,91.78c-10.22,6.68-17.68,13.44-22.68,18.51,0,0-12.02,12.18-18.21,29.64-.47,1.33-.8,2.97-.22,4.6,.59,1.67,1.87,2.61,2.44,3.04,4.61,3.41,19.23,6.51,20,6.67"/>
  <g>
    <path class="cls-33" d="M138.92,210.04c2.77-.01,5.58-.04,8.42-.09,2.51-.04,4.99-.1,7.45-.17,.02,.76,.1,1.72,.37,2.8,.26,1.05,.62,1.92,.95,2.59-1.06,.7-3.99,2.44-8.12,2.4-4.08-.04-6.95-1.8-8-2.52-.02-.51-.06-1.06-.15-1.66-.2-1.33-.56-2.46-.93-3.35Z"/>
    <g>
      <path class="cls-32" d="M90.29,166.18c1.37,11.3,3.2,14.34,4.7,16.18,1.38,1.7,3.29,3.39,4.7,6.79,1.56,3.78,.81,5.62,1.57,8.09,1.81,5.93,10.11,8.43,16.18,10.18,7.06,2.03,13.84,2.76,24.79,2.61,16.82-.22,25.22-.33,32.62-3.65,11.89-5.33,18.32-14.7,20.88-18.53,11.85-17.74,12.35-41.17,5.22-59.51-7.71-19.83-28.92-45.45-58.46-43.59-31.73,2-50.05,34.25-52.98,52.98-1.5,9.61,.02,22.19,.78,28.45Z"/>
      <path class="cls-34" d="M125.22,164.64c1.01,.97,2.54,2.7,3.63,5.32,2.04,4.91,2.15,12.08-1.5,16.44-2.35,2.82-5.34,3.35-8.53,3.91-1.68,.3-8.98,1.37-15.55-3.65-1.09-.83-3.05-2.36-4.74-5.21-2.12-3.57-2.59-7.13-2.71-8.96,3.12-3.9,6.22-5.74,8.16-6.65,4.54-2.12,8.81-1.99,14.38-1.82,2.88,.09,5.25,.37,6.85,.61Z"/>
      <path class="cls-34" d="M163.24,163.44c-.73,1.6-1.91,4.81-1.57,8.87,.12,1.42,.64,7.55,5.87,11.61,4.08,3.17,9.37,3.83,13.57,2.61,8.83-2.55,11.86-12.8,12.79-15.92,.98-3.3,1.17-6.17,1.17-8.09-3.9-1.12-9.73-2.3-16.84-1.98-6.28,.28-11.41,1.64-15,2.9Z"/>
      <path class="cls-29" d="M99.94,189.79c1.69-1.13,5.09-3.08,9.73-3.45,1.69-.13,10.22-.81,15.46,5.68,3.8,4.7,4.47,11.44,1.87,17.36-4.11-.63-7.52-1.43-10.07-2.11-.72-.19-5.04-1.37-9.7-3.65-1.09-.54-2.49-1.27-3.81-2.73-.55-.61-1.62-1.82-2.18-3.65-.46-1.52-.16-2.13-.56-4.44-.23-1.32-.54-2.37-.76-3.01Z"/>
      <g>
        <path class="cls-7" d="M103.4,191.43c.45-.22,.99-.46,1.61-.7"/>
        <path class="cls-8" d="M109.73,189.51c2.17-.33,5.11-.42,8.16,.94,1.11,.5,4.44,1.98,6.26,5.77,.81,1.69,1.09,3.34,1.12,4.77"/>
        <path class="cls-7" d="M125.07,203.43c-.15,.82-.34,1.42-.43,1.71"/>
      </g>
      <path class="cls-29" d="M172.7,207.23c-.88-.83-3.99-3.94-4.5-8.95-.04-.35-.63-7.43,4.89-12.14,4.86-4.14,11.84-4.23,16.64-1.37,2.51,1.5,3.99,3.54,4.77,4.87-1.78,2.63-4.32,5.83-7.85,8.97-5.14,4.57-10.3,7.16-13.95,8.63Z"/>
      <g>
        <path class="cls-7" d="M174.46,202.49c-.29-.33-.68-.8-1.06-1.41"/>
        <path class="cls-1" d="M172.1,196.78c-.11-3.79,2.36-6.6,2.59-6.85,2.74-3.03,6.42-3.25,7.57-3.26,1.71-.02,3.18,.38,4.37,.9"/>
        <path class="cls-7" d="M188.6,188.68c.71,.5,1.17,.94,1.36,1.12"/>
      </g>
      <path class="cls-24" d="M113.69,164.03c-1.57,.45-3.87,1.37-5.61,3.45-4.91,5.85-3.07,18.05,4.05,21.14,3.63,1.58,8.66,.79,11.75-2.22,2.85-2.78,3.13-6.41,3.28-8.37,.35-4.66-1.54-8.19-2.41-9.59-1.11-1.78-2.37-3.02-3.28-3.8-2.59-.2-5.18-.41-7.76-.61Z"/>
      <path class="cls-24" d="M169.82,161.61c-1.24,1.81-2.67,4.5-3.18,7.96-.3,2.01-.95,8.67,3.52,13.7,1.12,1.26,3.09,3.48,6.14,3.81,5.73,.63,9.8-6.01,10.05-6.42,3.46-5.84,1.18-12.23,.65-13.7-1.1-3.06-2.8-5.19-3.92-6.39-1.88-.05-3.93-.02-6.13,.13-2.61,.18-5,.51-7.13,.91Z"/>
      <path class="cls-23" d="M183.78,165.44c-1.78,1.53-3.56,3.06-5.33,4.59l-5.93-3.85,3.41,6.37c-1.23,2.76-2.47,5.51-3.7,8.27,1.87-1.87,3.75-3.74,5.62-5.6,2.07,1.63,4.15,3.26,6.22,4.89-1.19-2.27-2.37-4.54-3.56-6.81,1.09-2.62,2.17-5.23,3.26-7.85Z"/>
      <path class="cls-23" d="M110.63,169.04c1.78,1.53,3.56,3.06,5.33,4.59l5.93-3.85-3.41,6.37c1.23,2.76,2.47,5.51,3.7,8.27-1.87-1.87-3.75-3.74-5.62-5.6-2.07,1.63-4.15,3.26-6.22,4.89,1.19-2.27,2.37-4.54,3.56-6.81-1.09-2.62-2.17-5.23-3.26-7.85Z"/>
      <path class="cls-4" d="M90.29,166.18c1.37,11.3,3.2,14.34,4.7,16.18,1.38,1.7,3.29,3.39,4.7,6.79,1.56,3.78,.81,5.62,1.57,8.09,1.81,5.93,10.11,8.43,16.18,10.18,7.06,2.03,13.84,2.76,24.79,2.61,16.82-.22,25.22-.33,32.62-3.65,11.89-5.33,18.32-14.7,20.88-18.53,11.85-17.74,12.35-41.17,5.22-59.51-7.71-19.83-28.92-45.45-58.46-43.59-31.73,2-50.05,34.25-52.98,52.98-1.5,9.61,.02,22.19,.78,28.45Z"/>
      <path class="cls-24" d="M139.8,192.64c.13-.08,.88,1.89,2.58,2.28,1.48,.34,2.99-.68,4.1-1.67,.91,1.25,2.43,1.9,3.95,1.67,2.29-.35,3.17-2.48,3.21-2.57-.86,2.39-1.73,4.78-2.59,7.17-.89,.32-3.43,1.09-6.07,0-4.16-1.72-5.36-6.75-5.16-6.87Z"/>
      <path class="cls-28" d="M161.67,162.92c-.31-.68,4.27-3.59,7.05-4.96,4.12-2.02,12.67-4.76,27.27,0-.3,1.52-.61,3.04-.91,4.57-4.9-1.36-9.04-1.81-12.01-1.96-7.82-.38-14.52,1.01-15.27,1.17-3.56,.76-5.92,1.64-6.13,1.17Z"/>
      <path class="cls-28" d="M94.78,165.59c1.79-1.37,3.9-2.64,6.37-3.61,12.57-4.92,25.06,1.71,28.01,3.37-6.59-1.29-12.1-1.34-15.99-1.12-8.19,.46-11.41,2.25-12.88,3.2-2.17,1.4-3.66,3.02-4.6,4.2-.3-2.01-.6-4.03-.9-6.04Z"/>
      <path class="cls-7" d="M115.85,155.41c1.48,.03,3.37,.21,5.48,.78,1.45,.39,2.69,.89,3.72,1.37"/>
      <path class="cls-7" d="M164.25,155.41c1.06-.76,2.36-1.58,3.92-2.35,1.42-.7,2.75-1.2,3.92-1.57"/>
    </g>
    <path class="cls-20" d="M138.46,210.04c.51,.76,1.11,1.9,1.39,3.36,.11,.61,.15,1.17,.15,1.66"/>
    <path class="cls-20" d="M154.78,209.78c.02,.76,.1,1.72,.37,2.8,.26,1.05,.62,1.92,.95,2.59"/>
    <g>
      <path class="cls-21" d="M70.06,148.71c1.1,14,7.36,24.63,7.38,24.66,0,0,0,0,0,0,2.6,4.61,4.69,7.7,6.34,9.41-.52,1.03-1.37,2.36-2.81,3.41-2.76,2-5.48,1.4-5.63,2.22-.19,1.06,4.04,3.7,8.44,3.11,3.21-.43,5.34-2.42,6.18-3.3,.51,.43,1.18,.98,1.99,1.6,7.11,5.42,17.08,10.19,18.65,8.37,1.41-1.64-5.71-7.09-10.67-18.67-2.79-6.53-3.81-12.43-4.22-16.44,8.95,12.85,11.67,15.1,12.44,14.67,.79-.44-.69-3.46-1.7-10.37-.89-6.07-.79-10.87-.71-14.06,.1-3.86,.17-8.05,1.3-13.12,1.61-7.27,4.4-12.9,6.67-16.67-.09,2.66,.04,6.24,.85,10.37,.9,4.6,2.7,10.08,6.21,15.59,6.2,9.75,16.19,18.07,18.42,16.43,.92-.67,1.03-3.42-3.93-13.73,2.14,3.28,5.5,7.83,10.44,12.44,4.48,4.18,11.9,9.96,13.33,8.67,1-.9-1.59-4.63-4-10.05-3.6-8.11-4.93-15.84-5.34-22.17,1.92,4.53,5.68,11.66,12.89,18,13.93,12.25,30.48,12.53,35.11,12.44-.15,2.86-.79,6.81-3.11,10.67-3.89,6.46-9.93,8.4-9.33,10.22,.55,1.69,6.43,2.08,11.56,.44,10.77-3.44,15.51-14.55,16.77-17.81,15.63-34.21,7.27-73.53-19.14-95.67-21.01-17.61-50.64-22-75.56-12.44-37.53,14.39-50.88,55.66-48.83,81.79Z"/>
      <g>
        <path class="cls-2" d="M155.33,129.59c2.25,4.07,6.11,9.88,12.44,15.26,4.08,3.47,8.07,5.82,11.33,7.41"/>
        <g>
          <g>
            <path class="cls-18" d="M132.22,90.33c-.44,.09-1.02,.22-1.71,.4"/>
            <path class="cls-6" d="M125.92,92.23c-4.42,1.76-10.15,4.98-15.03,10.84-5.17,6.2-7.21,12.75-8.05,17.19"/>
            <path class="cls-18" d="M102.47,122.65c-.08,.69-.14,1.28-.17,1.75"/>
          </g>
          <g>
            <path class="cls-18" d="M141.41,109.89c.55,.12,1.12,.25,1.71,.4"/>
            <path class="cls-16" d="M147.74,111.58c5.24,1.66,11.38,4.25,17.67,8.38,3.02,1.98,5.65,4.04,7.92,6.05"/>
            <path class="cls-18" d="M175.11,127.63c.44,.41,.86,.82,1.26,1.22"/>
          </g>
          <g>
            <path class="cls-18" d="M95.7,163.07c-.25-.49-.51-1.02-.77-1.58"/>
            <path class="cls-12" d="M93,156.75c-.91-2.59-1.73-5.58-2.26-8.93-.85-5.32-.76-10.04-.35-13.8"/>
            <path class="cls-18" d="M90.73,131.47c.1-.62,.2-1.19,.31-1.73"/>
          </g>
          <g>
            <path class="cls-18" d="M135.26,152.18c-.34-.44-.69-.91-1.05-1.42"/>
            <path class="cls-17" d="M131.83,146.97c-.58-1.06-1.15-2.21-1.69-3.45-1.33-3.08-2.11-5.98-2.58-8.48"/>
            <path class="cls-18" d="M127.22,132.82c-.08-.62-.14-1.2-.19-1.75"/>
          </g>
          <g>
            <path class="cls-18" d="M197.7,171.52c.09-.56,.17-1.14,.25-1.74"/>
            <path class="cls-10" d="M198.37,164.69c.09-2.34,.04-4.89-.22-7.62-.56-5.92-1.96-10.96-3.45-14.91"/>
            <path class="cls-18" d="M193.75,139.79c-.24-.57-.48-1.1-.71-1.61"/>
          </g>
          <path class="cls-13" d="M70.06,148.71c1.1,14,7.36,24.63,7.38,24.66,0,0,0,0,0,0,2.6,4.61,4.69,7.7,6.34,9.41-.52,1.03-1.37,2.36-2.81,3.41-2.76,2-5.48,1.4-5.63,2.22-.19,1.06,4.04,3.7,8.44,3.11,3.21-.43,5.34-2.42,6.18-3.3,.51,.43,1.18,.98,1.99,1.6,7.11,5.42,17.08,10.19,18.65,8.37,1.41-1.64-5.71-7.09-10.67-18.67-2.79-6.53-3.81-12.43-4.22-16.44,8.95,12.85,11.67,15.1,12.44,14.67,.79-.44-.69-3.46-1.7-10.37-.89-6.07-.79-10.87-.71-14.06,.1-3.86,.17-8.05,1.3-13.12,1.61-7.27,4.4-12.9,6.67-16.67-.09,2.66,.04,6.24,.85,10.37,.9,4.6,2.7,10.08,6.21,15.59,6.2,9.75,16.19,18.07,18.42,16.43,.92-.67,1.03-3.42-3.93-13.73,2.14,3.28,5.5,7.83,10.44,12.44,4.48,4.18,11.9,9.96,13.33,8.67,1-.9-1.59-4.63-4-10.05-3.6-8.11-4.93-15.84-5.34-22.17,1.92,4.53,5.68,11.66,12.89,18,13.93,12.25,30.48,12.53,35.11,12.44-.15,2.86-.79,6.81-3.11,10.67-3.89,6.46-9.93,8.4-9.33,10.22,.55,1.69,6.43,2.08,11.56,.44,10.77-3.44,15.51-14.55,16.77-17.81,15.63-34.21,7.27-73.53-19.14-95.67-21.01-17.61-50.64-22-75.56-12.44-37.53,14.39-50.88,55.66-48.83,81.79Z"/>
        </g>
      </g>
    </g>
  </g>
  <path class="cls-31" d="M537.63,207.41c-26.96,12.2-50.89,10.52-65.13,9.34-16.29-1.35-31.95-7.56-63.28-19.98-4.91-1.95-12.67-5.14-18.56-13.34-2.17-3.02-5.84-9.16-7.29-20.78-1.06-8.54-1.55-25.05,12.92-58,9.45-21.53,14.18-32.29,24.06-43.38,6.28-7.05,30.16-33.53,64.21-32.17,43.31,1.73,68.61,47.65,73.12,55.87,10.5,19.1,13.49,37.67,16.4,55.75,2.97,18.44,4.54,29.03-.37,40.01-6.51,14.54-20.39,19.57-36.1,26.69Z"/>
  <path class="cls-27" d="M76.06,139.28c.52-2.76,1.94-9.6,5.39-17.9,14.89-35.91,44.73-45.24,46.58-45.61,1.73-.34,3.45-.49,3.45-.49,.83-.07,1.75-.12,2.78-.12,19.25,.04,32.71,17.32,49.73,39.15,7.04,9.03,11.84,16.76,20.59,32.79,3.88,7.1,7.29,13.97,8.57,23.1,.84,6.03,.35,10.12-.13,12.63-1.1,5.77-3.37,9.7-4.75,12.05-5.95,10.09-14.62,15.51-19.33,17.98,11.07-3.8,19.99-7.76,26.45-10.9,8.5-4.13,11.97-6.32,15.39-9.72,1.92-1.91,8.16-8.25,10.41-17.51,.87-3.6,1.09-7.44,1.12-7.93,.21-3.83-.12-6.76-.34-8.64-2.19-18.44-3.81-25.43-3.81-25.43-1.63-10.71-7.79-30.42-9.84-36.84-5.02-15.71-19.25-39.04-41.86-53.82-6.5-4.25-16.04-10.34-29.79-12.35-21.95-3.21-39.01,6.25-46.11,10.31-21.64,12.4-32.53,31.58-39.18,43.27-5.2,9.15-8.18,16.86-12.26,27.4-8.81,22.77-9.93,34.12-10.19,37.21-.74,8.63-1.33,16.65,2.25,25.82,3.81,9.73,10.21,15.34,13.07,17.79,1.87,1.6,6.06,4.93,20.68,10.54,6.24,2.39,14.74,5.34,25.1,8.01-4.88-1.51-21.32-7.34-30.39-24.73-9.03-17.32-5.49-36.03-3.59-46.03Z"/>
  <path class="cls-22" d="M75.47,174.19c3.32-3.73,6.63-7.46,9.95-11.19-2.57-1.7-5.14-3.4-7.71-5.11,2.66-1.76,5.32-3.51,7.99-5.27-2.01-2.69-4.03-5.39-6.04-8.08,3.04-1.14,6.08-2.28,9.13-3.42-1.59-2.71-3.18-5.42-4.77-8.13,3.18-1.12,6.36-2.24,9.54-3.37-1.51-3.61-3.03-7.23-4.54-10.84,3.48-.31,6.95-.63,10.43-.94-.91-3.5-1.82-7-2.73-10.5,3.7,.62,7.41,1.25,11.11,1.87-.47-3.96-.93-7.92-1.4-11.88,4.39,1.47,8.78,2.94,13.18,4.42-.12-4.41-.25-8.83-.37-13.24,3.83,3.19,7.66,6.37,11.49,9.56,1.34-4.74,2.69-9.48,4.03-14.22,2.07,4.55,4.14,9.1,6.2,13.66,3.01-3.16,6.03-6.33,9.04-9.49,.44,4.61,.89,9.22,1.33,13.84,3.64-1.4,7.29-2.8,10.93-4.2-.51,4.27-1.02,8.55-1.54,12.82,3.75-.66,7.5-1.32,11.25-1.98-.81,3.53-1.61,7.07-2.42,10.6,3.37-.31,6.75-.62,10.12-.93-.64,3.47-1.28,6.93-1.92,10.4,3.13-.13,6.27-.26,9.4-.39-.82,3.29-1.64,6.57-2.46,9.86,2.63-.48,5.25-.97,7.88-1.45-1.29,3.92-2.59,7.84-3.88,11.76,3.2-.62,6.39-1.25,9.59-1.87-1.14,3.72-2.29,7.45-3.43,11.17,5.46,1.37,10.91,2.74,16.37,4.11-3.88-9.21-7.74-16.68-10.79-22.14-5.08-9.11-12-18.46-25.83-37.17-3.52-4.76-7.3-9.78-13.56-15.14-3.53-3.02-7.37-6.33-13.36-8.83-3.18-1.33-8.89-3.73-16.19-3.18-7.01,.52-11.76,3.49-18.15,7.46-2.51,1.56-8.95,5.78-15.82,13.25-1.84,2-8.68,9.63-14.43,21.67-6.26,13.13-8.13,25-8.74,32.25-.84,9.96,.06,18.35,1.12,24.28Z"/>
  <path class="cls-27" d="M214.34,96.12c6.09,.82,24.97,4.15,40.09,20.33,9.13,9.77,13.11,20.18,14.9,26.27,.22,.63,1.1,3.38-.22,6.43-1.2,2.78-3.46,4.03-4.1,4.36-4.46,2.96-11.3,6.72-20.3,8.95-5.91,1.46-11.19,1.88-15.37,1.89"/>
  <path class="cls-27" d="M185.19,77.08c3.18-1.43,7.83-3.07,13.63-3.56,3.16-.27,5.97-.13,8.31,.14"/>
  <path class="cls-27" d="M191.27,84.1c3.18-1.43,7.83-3.07,13.63-3.56,3.16-.27,5.97-.13,8.31,.14"/>
  <path class="cls-27" d="M197.07,91.33c3.18-1.43,7.83-3.07,13.63-3.56,3.16-.27,5.97-.13,8.31,.14"/>
  <path class="cls-27" d="M76.81,89.78c-.69-.64-1.77-1.49-3.27-2.14-1.16-.51-2.21-.74-3.01-.86"/>
  <path class="cls-27" d="M81.11,81.3c-.69-.64-1.77-1.49-3.27-2.14-1.16-.51-2.21-.74-3.01-.86"/>
  <path class="cls-27" d="M86.24,74.02c-.69-.64-1.77-1.49-3.27-2.14-1.16-.51-2.21-.74-3.01-.86"/>
  <path class="cls-19" d="M215.78,102.78c5.35,.85,12.31,2.7,19.56,6.81,10.69,6.08,15.99,13.69,21.93,22.22,6.76,9.71,6.25,12.73,5.63,14.22-.68,1.65-2.27,3.27-10.37,5.93-4.7,1.54-11.41,3.37-19.85,4.44"/>
  <g>
    <path class="cls-15" d="M56.19,108.07c-.39,.39-.81,.81-1.24,1.25"/>
    <path class="cls-9" d="M51.34,113.16c-1.97,2.16-4.14,4.67-6.4,7.5-8.01,10.03-12.75,16.11-10.81,20.89,.41,1.01,1.53,2.98,5.26,4.52"/>
    <path class="cls-15" d="M41.88,146.92c.54,.15,1.11,.28,1.72,.41"/>
  </g>
  <path class="cls-19" d="M81.7,196.63c-3.26-3.34-8.04-9-11.56-17.11-7.39-17.03-4.09-33-2.22-42,2.88-13.93,8.44-23.66,12-29.78,7.83-13.44,16.35-21.62,18.67-23.78,8.29-7.74,14.09-13.16,23.78-15.78,14.68-3.97,27.26,1.48,30.89,3.11,3.64,1.64,8.94,4.57,20.44,16.67,16.92,17.8,26.13,33.22,36,50,6.7,11.39,9.5,17.4,10.89,25.33,.84,4.82,2.36,14.24-1.78,24.89-2.38,6.12-5.78,10.46-8.22,13.11"/>
  <path class="cls-25" d="M160.07,37.89c4.87,1.09,11.35,3.07,18.37,6.81,7.79,4.16,13.44,9,17.19,12.74-6.24,7.56-16.93,9.75-25.48,5.33-8.89-4.59-13.23-15.19-10.07-24.89Z"/>
  <path class="cls-25" d="M119,40.35c-3.75,1.75-8,4.06-12.44,7.15-6.6,4.59-11.59,9.46-15.21,13.58,.59,.29,10,4.78,18.83-.63,6.65-4.07,10.18-12.06,8.82-20.09Z"/>
  <path class="cls-22" d="M75.47,174.19c13.33,22.58,25.01,28.7,33.57,29.77,2.69,.34,8.93,0,16.67,2.89,6.06,2.26,10.52,5.44,13.33,7.78,13.25-6.02,24.32-8.15,32.23-8.95,8.88-.89,16.58-.43,24.88-5.72,1.38-.88,6.56-4.34,10.44-10.89,7.08-11.95,4.12-24.58,3.3-27.65,2.04,3.43,6.04,11.36,4.7,21.21-1.81,13.31-12.13,20.93-16.69,24.29-7.32,5.41-14.15,7.22-21.31,9.04-22.45,5.71-41.52,1.83-50,0-6.53-1.41-15.62-3.91-26-8.67-3.89-2.3-9.61-6.32-14.89-12.89-6.26-7.79-8.99-15.57-10.24-20.22Z"/>
  <path class="cls-30" d="M324.38,510.75c.46,2.77,1.33,6.83,3.08,11.52,1.45,3.87,2.71,6.07,3.72,8.22,3.05,6.49,3.51,11.95,4.31,18.79,1.08,9.19,2.73,20.55,5.07,35.27,1.43-.4,3.7-.84,6.48-.6,3.06,.26,5.4,1.24,6.78,1.94,.15-.4,.87-2.14,2.65-2.81,.52-.19,1-.25,1.39-.26,.62-11.14,.52-20.4,.26-27.14-.45-11.99-1.4-16.66-2.02-19.31-1.89-8-4.81-14.2-7.04-18.25-.48-.82-.96-1.78-1.38-2.88-.91-2.36-1.21-4.51-1.3-6.14,.14-7.29,.28-14.58,.42-21.87-1.02-6.36-6.76-10.84-12.89-10.37-6.54,.5-11.69,6.48-11.11,13.33,.52,6.86,1.05,13.72,1.57,20.57Z"/>
  <path class="cls-30" d="M275.59,508.63c1.45,6.16,2.58,10.99,3.33,14.1,.18,.73,.54,2.26,.88,4.34,.26,1.6,.44,3.12,.55,4.53-.56,7.81-.78,16.52-.39,25.97,.46,10.99,1.66,20.94,3.17,29.66,1.06,4.59,5.22,7.64,9.49,7.27,3.53-.31,6.64-2.92,7.73-6.56,.76-4.53,1.78-11.02,2.84-18.89,.92-6.83,1.31-10.24,1.62-13.82,.49-5.73,.58-14.1-1.56-24.68,.02-1.54,0-3.13-.06-4.76-.2-5.66-.87-10.87-1.77-15.54-.84-7.02-1.67-14.04-2.51-21.06-.5-10.11-8.76-16.58-15.56-15.5-4.74,.75-8.86,5.18-10.35,10.93,.86,8,1.72,16.01,2.58,24.01Z"/>
  <g>
    <path class="cls-7" d="M283.81,534.74c.08,.44,.19,.87,.32,1.28"/>
    <path class="cls-14" d="M285.97,539.26c.74,.77,1.58,1.25,2.44,1.35,2.1,.24,4.83-1.76,5.86-5.19"/>
    <path class="cls-7" d="M294.62,533.58c.04-.43,.06-.87,.05-1.32"/>
  </g>
  <g>
    <path class="cls-7" d="M333.8,529.52c.13,.43,.27,.85,.44,1.25"/>
    <path class="cls-3" d="M336.2,533.72c.76,.71,1.59,1.12,2.38,1.13,1.9,.01,4.08-2.31,4.55-5.87"/>
    <path class="cls-7" d="M343.21,527.19c-.01-.43-.05-.87-.12-1.32"/>
  </g>
  <path class="cls-27" d="M359.92,593.06c-.81-1.55-1.91-3.6-4.16-5.42-4.05-3.27-8.81-3.36-10.43-3.39-1.56-.03-5.74-.1-9.66,2.5-2.72,1.81-4.1,4.07-4.9,5.42-4.7,7.89-3.29,17.5-2.7,20.67,1.88,1.73,6.13,5.14,12.46,6.25,11.17,1.96,19.57-4.83,20.87-5.92l9.87-13.87c-.08-1.88-.16-3.76-.24-5.64-.7-1.12-1.93-2.74-3.92-4.11-3.75-2.59-7.7-2.56-9.11-2.48-.21,.7-.42,1.41-.64,2.11,3.59,5.43,4.55,8.51,4.73,10.35,.03,.37,.34,3.75,.33,3.75,0,0,0,0,0,0-.02-2.28-.37-6.14-2.51-10.21Z"/>
  <path class="cls-27" d="M272.41,591.96c1.2-2.35,2.39-4.69,3.59-7.04,1.67-3.75,7.5-6.48,14.3-6.77,7.41-.31,14.41,2.36,16.58,6.41,.96,2.47,1.93,4.94,2.89,7.41-.49,.39-7.19,5.55-19.14,5.41-11.39-.13-17.63-4.96-18.22-5.43Z"/>
  <path class="cls-27" d="M309.77,595.59c-5.2-8.62-15.92-8.77-18.8-8.81-2.92-.04-12.94-.18-18.78,7.92-6.05,8.4-2.42,18.45-2.09,19.31,1.68,1.51,8.87,7.62,19.84,7.61,11.65-.01,19.11-6.93,20.62-8.39,.46-1.1,3.93-9.83-.79-17.64Z"/>
  <path class="cls-27" d="M281.67,590.58c-.06-.75-.47-7.36,4.69-11.9,4.05-3.57,9.93-4.46,15.11-2.31-1.35,1.13-4.14,3.81-5.05,8.06-.24,1.15-.31,2.21-.28,3.13,.89-.72,2.1-1.56,3.64-2.26,2.56-1.16,4.9-1.44,6.41-1.49-.7,1.25-1.52,3.02-2.04,5.25-.37,1.61-.49,3.05-.5,4.21"/>
  <path class="cls-27" d="M337.12,588.99c-.06-.76-.5-7.45,4.12-11.99,3.63-3.57,8.94-4.41,13.65-2.18-1.21,1.13-3.71,3.82-4.49,8.11-.21,1.16-.26,2.23-.22,3.17,.8-.72,1.88-1.55,3.27-2.25,2.31-1.15,4.42-1.41,5.78-1.45-.63,1.26-1.35,3.04-1.79,5.29-.32,1.62-.41,3.08-.41,4.26"/>
  <g>
    <path class="cls-15" d="M290.73,591.51v1.76"/>
    <path class="cls-11" d="M290.73,598.15v13.82"/>
    <path class="cls-15" d="M290.73,614.41v1.76"/>
  </g>
  <g>
    <path class="cls-15" d="M344.36,588.28c-.3,.47-.61,.97-.92,1.5"/>
    <path class="cls-5" d="M341.06,594.6c-.29,.7-.56,1.43-.81,2.2-1.6,4.77-2.02,9.17-1.97,12.69"/>
    <path class="cls-15" d="M338.41,612.17c.05,.63,.11,1.22,.18,1.75"/>
  </g>
</svg>