<?xml version="1.0" encoding="UTF-8"?>
<svg id="CharacterBack" xmlns="http://www.w3.org/2000/svg" viewBox="0 0 640 640">
  <defs>
    <style>
      .cls-1, .cls-2 {
        fill: #64af64;
      }

      .cls-3 {
        fill: #cfe1f9;
      }

      .cls-3, .cls-2, .cls-4, .cls-5, .cls-6, .cls-7, .cls-8, .cls-9, .cls-10, .cls-11, .cls-12, .cls-13, .cls-14, .cls-15, .cls-16, .cls-17 {
        stroke-linecap: round;
        stroke-linejoin: round;
      }

      .cls-3, .cls-2, .cls-18, .cls-5, .cls-19, .cls-6, .cls-7, .cls-8, .cls-9, .cls-10, .cls-12, .cls-13, .cls-14, .cls-15, .cls-16, .cls-17 {
        stroke-width: 2.5px;
      }

      .cls-3, .cls-2, .cls-18, .cls-5, .cls-19, .cls-6, .cls-8, .cls-9, .cls-10 {
        stroke: #000;
      }

      .cls-4, .cls-6, .cls-7, .cls-9, .cls-10, .cls-11, .cls-12, .cls-13, .cls-14, .cls-15, .cls-16, .cls-17 {
        fill: none;
      }

      .cls-4, .cls-11 {
        stroke: #bc695c;
        stroke-width: 2px;
      }

      .cls-18 {
        fill: #9add85;
      }

      .cls-18, .cls-19 {
        stroke-miterlimit: 10;
      }

      .cls-5 {
        fill: #519351;
      }

      .cls-19 {
        fill: #f5e3d9;
      }

      .cls-6 {
        stroke-dasharray: 0 0 3.37 5.05;
      }

      .cls-7 {
        stroke-dasharray: 0 0 3.54 5.31;
      }

      .cls-7, .cls-13, .cls-16, .cls-17 {
        stroke: #346d1d;
      }

      .cls-8 {
        fill: #165116;
      }

      .cls-10, .cls-17 {
        stroke-dasharray: 0 0 3.52 5.29;
      }

      .cls-11 {
        stroke-dasharray: 0 0 2.4 3.2;
      }

      .cls-12 {
        stroke-dasharray: 0 0 3.27 4.9;
      }

      .cls-12, .cls-14, .cls-15 {
        stroke: #58a03d;
      }

      .cls-13 {
        stroke-dasharray: 0 0 3.42 5.14;
      }

      .cls-14 {
        stroke-dasharray: 0 0 3.4 5.1;
      }
    </style>
  </defs>
  <path class="cls-3" d="M318.45,593.83c.2,1.9,.98,6.83,4.87,11.26,5.15,5.86,12.06,6.67,14.3,6.77,7.41,.31,14.41-2.36,16.58-6.41,1.47-3.76,2.95-7.53,4.42-11.29,.82-2.33,2.19-7.33,.58-13.06-2.4-8.52-10.67-16.05-21.04-16-10.47,.05-19.11,7.83-21,16.75-1.12,5.28,.37,9.8,1.28,11.99Z"/>
  <path class="cls-10" d="M353.87,590.57c-.07,1.07-.58,7.41-5.93,11.56-.94,.73-4.33,3.28-9.19,3.11-5.85-.2-9.45-4.17-10.37-5.19-3.36-3.71-3.99-7.91-4.15-9.48"/>
  <path class="cls-9" d="M355.5,586.87c-2.86-6.34-9.01-10.54-15.85-10.81-7.35-.3-14.24,3.99-17.33,10.81"/>
  <path class="cls-3" d="M257.49,589.55c-.12-1.34-.17-3.32,.24-5.64,.27-1.53,2.91-15.46,14.32-17.62,8.1-1.53,16.02,3.75,19.09,10.3,1.41,3,1.6,5.86,1.55,7.73,2.68,3.72,5.36,7.44,8.04,11.15,.13,.28,.27,.63,.37,1.05,.09,.39,.13,.75,.14,1.04-.18,1.84-.36,3.68-.54,5.52-1.8,1.66-6.39,5.41-13.32,6.38-10.85,1.53-18.72-4.95-20.01-6.05-3.29-4.62-6.58-9.25-9.87-13.87Z"/>
  <g>
    <path class="cls-9" d="M296.32,597.02c-.34,.31-.79,.71-1.35,1.13"/>
    <path class="cls-6" d="M290.54,600.55c-.82,.29-1.71,.53-2.67,.69-5.83,.96-10.38-1.75-12.67-3.11-2.13-1.27-3.82-2.74-5.15-4.17"/>
    <path class="cls-9" d="M268.43,592.01c-.38-.51-.72-.99-1.01-1.44"/>
  </g>
  <path class="cls-9" d="M263.03,588.49c.4-1.36,1.05-3.21,2.18-5.25,1.05-1.9,4.79-8.7,10.3-10.03,5.65-1.36,12.96,3.08,17.18,11.11"/>
  <g>
    <path class="cls-9" d="M338.17,568.24v1.76"/>
    <path class="cls-9" d="M338.17,574.59v1.76"/>
  </g>
  <path class="cls-19" d="M353.94,499.21c-1.2,4.68-2.19,9.4-3.33,14.1-.19,.77-.55,2.31-.88,4.34-.26,1.6-.44,3.12-.55,4.53,.27,8.42,.41,17.09,.39,25.97-.03,14.18-.46,27.8-1.2,40.83,.41,.97,.85,2.44,.62,4.15-.6,4.36-5.38,8.44-10.37,7.81-4.09-.52-6.73-4.01-7.7-6.81-.61-1.77-.61-3.36-.51-4.39-2.37-18.33-3.5-26.44-4.06-30.1-.09-.57-.39-2.53-.73-5.17-.33-2.64-.61-5.35-.89-8.65-.49-5.73-.58-14.1,1.56-24.68-.02-1.54,0-3.13,.06-4.76,.2-5.66,.87-10.87,1.77-15.54,1.07-8.58,2.13-17.16,3.2-25.75,1.47-7.38,8.38-12.02,14.84-10.86,5.29,.95,9.59,5.66,10.27,11.6-.16,11.87-1.36,19-2.48,23.39Z"/>
  <path class="cls-19" d="M305.15,501.33c-.46,2.77-1.33,6.83-3.08,11.52-1.45,3.87-2.71,6.07-3.72,8.22-3.05,6.49-3.51,11.95-4.31,18.79-1.08,9.19-2.73,20.55-5.07,35.27,.25,3.27,.5,6.54,.76,9.81,.47,1.31,1.9,5.68-.15,8-3.18,3.6-12.11-.68-13.48-1.33-5.48-2.62-8.73-6.71-10.37-9.19,.41-.84,.92-1.76,1.55-2.7,1.33-1.98,2.79-3.45,4.03-4.5-.05-12.09,.06-21.93,.09-28.96,.02-3.88,.06-9.99,1.72-17.95,.11-.51,.21-.96,.3-1.36,1.89-8,4.81-14.2,7.04-18.25,.48-.82,.96-1.78,1.38-2.88,.91-2.36,1.21-4.51,1.3-6.14-.15-7.31-.3-14.61-.45-21.92,1.1-5.6,5.58-9.79,10.8-10.34,6.19-.65,12.32,3.92,13.54,10.7-.63,7.74-1.26,15.48-1.89,23.22Z"/>
  <g>
    <path class="cls-4" d="M342.46,523.9c-.17-.16-.52-.48-1.03-.82"/>
    <path class="cls-11" d="M338.48,521.91c-.24-.04-.5-.07-.76-.08-1.23-.07-2.3,.17-3.17,.52"/>
    <path class="cls-4" d="M333.13,523.09c-.55,.36-.91,.69-1.04,.81"/>
  </g>
  <g>
    <path class="cls-4" d="M293.29,519.58c-.11-.21-.33-.63-.7-1.12"/>
    <path class="cls-11" d="M290.2,516.37c-.22-.12-.44-.23-.69-.33-1.14-.48-2.23-.61-3.16-.57"/>
    <path class="cls-4" d="M284.77,515.69c-.64,.16-1.09,.34-1.25,.42"/>
  </g>
  <path class="cls-2" d="M351.42,531.34c-.51,1.03-2.22,4.14-6,6-3.27,1.61-6.29,1.41-7.48,1.26-2.32-.47-5.29-1.29-8.52-2.81-2.72-1.28-4.91-2.72-6.59-4-.47,1.71-1.07,4.42-1.18,7.78-.16,4.71,.75,7.37,1.48,12.67,.69,4.99,.72,8.75,.76,12.01,.04,4.34-.22,10.47-1.64,17.92,.43-3.1,.87-6.21,1.3-9.31-1.41,.89-3.54,2.53-5.15,5.25-3.65,6.17-1.57,12.75-1.19,13.91-.16,1.51-.22,3.4,0,5.56,.24,2.36,.76,4.34,1.27,5.88,1.91,1.71,4.36,3.63,7.39,5.46,2.83,1.7,5.5,2.91,7.78,3.78,3.19,.07,6.37,.15,9.56,.22,2.19-.34,5.65-1.15,9.33-3.33,2.99-1.77,5.07-3.82,6.4-5.34,.7-1.49,1.56-3.71,1.93-6.53,.36-2.7,.16-4.99-.11-6.57-.14-1.48-.38-3.6-.86-6.11-.47-2.46-.9-4.71-1.74-6.8-.76-1.9-2.49-5.24-6.68-8.49,.54,3.54,1.08,7.07,1.62,10.61-.87-4.05-1.61-8.87-1.89-14.32-.27-5.3-.05-10.04,.37-14.07,.92-2.13,2.3-6.13,2.08-11.26-.18-4.13-1.34-7.36-2.22-9.33Z"/>
  <path class="cls-18" d="M322.72,578.02c-.51,.23-1.46,.56-2.62,.46-2.84-.26-4.27-2.87-4.37-3.07-1.48-2.8,.02-5.6,.26-6.03,.09-.16,1.8-3.23,5.2-3.61,1.12-.13,2.04,.08,2.63,.26,.04,1.83-.01,3.87-.22,6.09-.2,2.17-.52,4.15-.88,5.91Z"/>
  <path class="cls-18" d="M351.71,571.23c.25,1.54,.48,2.83,.67,3.78,.83,2.14,2.79,3.52,4.84,3.47,2.73-.07,4.14-2.64,4.37-3.07,1.48-2.8-.02-5.6-.26-6.03-.15-.28-1.82-3.26-5.2-3.61-.25-.03-3.53-.4-4.58,1.34-.3,.5-.33,1.03,.16,4.12Z"/>
  <path class="cls-18" d="M266.89,567.67c.31,2.22-.75,3.97-1.3,4.89-.6,.99-2.35,3.86-4.98,3.53-2.39-.3-3.6-2.98-3.66-3.13-1.24-2.85,.02-5.7,.22-6.15,.12-.28,1.52-3.32,4.36-3.68,.61-.08,2.37-.16,3.84,1.37,.28,.3,1.29,1.37,1.54,3.17Z"/>
  <path class="cls-18" d="M282.65,565.43c0,2.2,1.2,3.77,1.83,4.6,.68,.89,2.65,3.47,5.03,2.83,2.15-.58,2.92-3.34,2.96-3.49,.77-2.92-.75-5.55-.99-5.96-.15-.26-1.83-3.05-4.47-3.05-.57,0-2.2,.13-3.35,1.8-.22,.32-1,1.49-1.01,3.27Z"/>
  <path class="cls-2" d="M300.7,603.09l.03-7.61c-1.22-2.37-2.8-5.9-3.94-10.36-.64-2.52-1.71-7.57-.89-21.04,.7-11.47,1.9-14.74,2.67-28.44,.16-2.89,.25-5.27,.3-6.81-1.56,.79-7.02,3.3-13.93,1.78-7.77-1.71-11.85-7.3-12.74-8.59-1.28,4.52-2.43,9.57-3.26,15.11-1.76,11.73-1.55,22.12-.7,30.45-1.76,1.06-5.67,3.73-8.34,8.8-3.03,5.77-2.65,11.17-2.41,13.18,3.29,4.62,6.58,9.25,9.87,13.87,3.13,1.71,6.26,3.43,9.39,5.14,4.06,.48,8.13,.96,12.19,1.44,3.92-2.3,7.84-4.61,11.76-6.91Z"/>
  <path class="cls-10" d="M268.24,567.57c.75,4.54,1.79,9.46,3.26,14.66,.77,2.73,1.59,5.32,2.44,7.78"/>
  <path class="cls-10" d="M325.23,596.67c.32,.42,5.88,7.44,14.52,6.52,5.96-.64,9.54-4.64,10.37-5.63"/>
  <path class="cls-10" d="M283.16,597.26c1.58,.47,3.94,.97,6.81,.89,2.66-.08,4.84-.63,6.34-1.14"/>
  <g>
    <path class="cls-2" d="M434.74,305.52c-1.97,5.75-3.94,11.51-5.91,17.26,1.27,22.55,2.53,45.11,3.8,67.66,4.13,13.01,8.27,26.02,12.4,39.03,4.15,2.37,8.3,4.74,12.44,7.11,9.33-1.63,18.67-3.26,28-4.89,5.93-7.41,11.85-14.81,17.78-22.22-.15-4.89-.3-9.78-.44-14.67-11.56-25.48-23.11-50.96-34.67-76.44-6.64-7.15-13.29-14.36-19.94-21.62-3.41-3.72-6.82-7.44-10.2-11.16"/>
    <path class="cls-9" d="M458.47,425.99c5.29-4.69,10.59-9.39,15.88-14.08,6.89-1.26,13.78-2.52,20.67-3.78"/>
    <path class="cls-10" d="M432.62,390.43c6.06-5.06,12.12-10.13,18.18-15.19,6.81-2.67,13.63-5.33,20.44-8"/>
    <path class="cls-10" d="M468.13,318.35c-5.78-.15-11.56-.3-17.33-.44"/>
  </g>
  <g>
    <path class="cls-2" d="M126.55,331.5c3.65-6.93,7.3-13.85,10.95-20.78,4.18-.58,8.36-1.17,12.55-1.75,3.53,2.17,7.06,4.34,10.59,6.51-8.21,5.82-16.43,11.64-24.64,17.46-3.15-.48-6.3-.96-9.45-1.43Z"/>
    <path class="cls-2" d="M200.73,283.71c-9.45,5.37-18.91,10.73-28.36,16.1-7.89,6.58-15.78,13.16-23.68,19.75-9.01,5.04-18.02,10.09-27.03,15.13-3.55,7.91-7.1,15.82-10.65,23.73,4.01,5.44,8.02,10.88,12.02,16.33,6.08,1.52,12.16,3.05,18.23,4.57,4.62-1.13,9.25-2.25,13.87-3.38,4.03-5.06,8.07-10.12,12.1-15.18,4.24-7.29,9.58-15.34,16.27-23.65,4.51-5.6,9.02-10.54,13.33-14.87"/>
    <path class="cls-10" d="M113.21,357.7c4.86-4.16,9.73-8.31,14.59-12.47,5.17-.68,10.33-1.37,15.5-2.05"/>
    <path class="cls-10" d="M154.25,374.4c-2.77-2.77-5.54-5.53-8.31-8.3"/>
    <path class="cls-10" d="M123.37,334.9c4.77-1.48,9.54-2.96,14.31-4.44"/>
  </g>
  <path class="cls-1" d="M361.77,277.82c-1.99-2.57-5.2-6.15-9.92-9.4-2.65-1.82-8.62-5.93-16.18-6.79-4.58-.52-8.92,.26-21.76,6.12-6.62,3.03-15.5,7.41-25.74,13.45-5.37,18.37-9.88,33.23-13,43.36-5.37,17.45-7.74,24.61-10.89,36.32-4.36,16.22-7.09,29.58-8.69,38.18-.49,12.35-.99,24.69-1.48,37.04,6.58,.03,14.34,.58,22.89,2.22,14.02,2.68,25.35,7.35,33.56,11.56,9.17-3.25,20.79-6.52,34.44-8.44,13.1-1.85,24.7-1.99,34.15-1.48,.3-14.42,.59-28.84,.89-43.26-1.86-6.64-4.4-16.45-6.7-28.5-2.81-14.72-3.74-24.74-5.55-41.05-1.3-11.73-3.26-28.59-6-49.33Z"/>
  <path class="cls-2" d="M275.17,324.57c-3.63,12.11-7.26,24.22-10.89,36.32-2.9,12.73-5.79,25.45-8.69,38.18-.49,12.35-.99,24.69-1.48,37.04,6.58,.03,14.34,.58,22.89,2.22,14.02,2.68,25.35,7.35,33.56,11.56,9.17-3.25,20.79-6.52,34.44-8.44,13.1-1.85,24.7-1.99,34.15-1.48,.3-14.42,.59-28.84,.89-43.26-1.86-6.64-4.4-16.45-6.7-28.5-2.81-14.72-3.46-24.78-5.55-41.05"/>
  <path class="cls-2" d="M361.77,277.82c-1.99-2.57-5.2-6.15-9.92-9.4-2.65-1.82-8.62-5.93-16.18-6.79-4.58-.52-8.92,.26-21.76,6.12-6.62,3.03-15.5,7.41-25.74,13.45"/>
  <g>
    <path class="cls-16" d="M257.86,428.87c.57-.01,1.16-.02,1.76-.03"/>
    <path class="cls-7" d="M264.93,428.92c5.63,.22,12.09,.9,19.13,2.43,8.28,1.79,15.38,4.33,21.17,6.86"/>
    <path class="cls-16" d="M307.66,439.31c.54,.25,1.07,.51,1.59,.76,.53-.22,1.07-.45,1.63-.67"/>
    <path class="cls-13" d="M315.67,437.56c6.65-2.39,14.62-4.63,23.73-6,12.78-1.92,23.98-1.56,32.75-.54"/>
    <path class="cls-16" d="M374.69,431.35c.59,.08,1.17,.17,1.74,.25"/>
  </g>
  <path class="cls-2" d="M361.21,278.55c-1.99-2.57-5.2-6.15-9.92-9.4-2.65-1.82-8.62-5.93-16.18-6.79-4.58-.52-8.92,.26-21.76,6.12-6.62,3.03-15.5,7.41-25.74,13.45"/>
  <path class="cls-17" d="M255.58,399.08c11.39,1.79,22.79,3.59,34.18,5.38,8.89-1.04,17.78-2.07,26.67-3.11"/>
  <path class="cls-17" d="M380.03,396.71c-5.35,2.88-10.7,5.76-16.04,8.64-5.63,1.04-11.26,2.07-16.89,3.11"/>
  <path class="cls-17" d="M306.65,360.91c10.37-3.85,20.74-7.7,31.11-11.56h18.22"/>
  <path class="cls-17" d="M300.63,403.19c3.64,2.72,7.27,5.44,10.91,8.16"/>
  <path class="cls-17" d="M363.99,405.35c-1.78,2.81-3.56,5.63-5.33,8.44"/>
  <path class="cls-17" d="M317.76,357.57c-6.89,7.78-13.78,15.56-20.67,23.33"/>
  <path class="cls-17" d="M300.67,376.87c.59,2.16,1.17,4.32,1.76,6.48"/>
  <path class="cls-5" d="M510.26,164.64c-8.2,3.95-16.4,7.9-24.59,11.85-6.32,5.93-12.64,11.85-18.96,17.78,7.01,6.12,14.02,12.25,21.04,18.37,8.88,3.3,17.76,6.6,26.64,9.89l32.62,1.66c12.64-4.15,25.28-8.3,37.93-12.44,7.41-7.8,14.81-15.6,22.22-23.41-4.25-4.54-8.49-9.09-12.74-13.63-5.83-3.56-11.65-7.11-17.48-10.67-8.93,2.79-22.28,5.78-38.53,5.18-11.29-.42-20.85-2.45-28.14-4.59Z"/>
  <path class="cls-10" d="M487.74,212.64c4.54-7.41,9.09-14.81,13.63-22.22,1.93-1.75,3.85-3.51,5.78-5.26"/>
  <path class="cls-10" d="M584.92,211.75c-1.88-4.84-3.75-9.68-5.63-14.52-1.46-1.21-2.91-2.42-4.37-3.63"/>
  <path class="cls-10" d="M547,224.2c0-2.66-.11-5.51-.36-8.53-.3-3.65-.76-7.04-1.3-10.14"/>
  <g>
    <g>
      <path class="cls-18" d="M308.26,80.26c1.43-10.37-5.84-18.68-7.5-20.48-.54-.58-1.16-1.19-1.86-1.81-.58-.51-1.15-.96-1.68-1.35-4.17-2.67-13.17-7.48-23.07-4.75-1.3,.36-2.17,.72-2.39,.82-10.62,4.54-19.84,22.17-13.17,35.91,4.68,9.65,14.67,12.37,15.64,12.62,14.3,3.65,32.05-6.5,34.04-20.95Z"/>
      <g>
        <path class="cls-15" d="M300.96,68.29c-.28-.52-.57-1.03-.89-1.52"/>
        <path class="cls-14" d="M296.83,62.84c-6.58-6.27-16.74-7.82-24.72-3.3-9.04,5.13-12.77,16.61-8.8,26.28"/>
        <path class="cls-15" d="M264.42,88.12c.28,.51,.59,1.01,.92,1.5"/>
      </g>
      <path class="cls-18" d="M401.11,104.05c7.65-2.42,11.94-12.39,12.27-13.34,.22-.62,.42-1.32,.6-2.08,.15-.63,.25-1.22,.33-1.77,.31-4.14,.26-12.71-5.78-19.11-.79-.84-1.42-1.36-1.58-1.49-8.2-6.69-26.58-6.19-32.15,3.63-3.72,6.56-.24,14.64,.87,17.21,4.3,9.98,15.8,20.01,25.45,16.95Z"/>
      <g>
        <path class="cls-15" d="M407.1,94.06c.34-.49,.65-.99,.93-1.5"/>
        <path class="cls-12" d="M409.74,87.98c1.54-7.06-1.43-14.76-7.77-18.87-7.31-4.74-17.08-3.41-22.78,2.82"/>
        <path class="cls-15" d="M377.68,73.85c-.33,.48-.63,.98-.91,1.51"/>
      </g>
      <path class="cls-8" d="M422.55,143.87c1.42,7.4-1.65,15.18-7.89,20.18-2.74,6.53-7.36,15.3-15.13,23.98-13.95,15.58-30.2,22.08-38.52,24.74,4.57,.61,5.65,1.44,5.73,2.1,.3,2.61-8.1,4.71-8.1,4.71h0c-12.49,3.9-18.74,5.86-28.73,6.01-2.12,.03-12.42,.1-25.19-3.63-8.4-2.46-19.4-7.67-18.81-10.13,.28-1.14,3.01-1.47,5.18-1.57-3.32-1.27-6.7-2.72-10.11-4.38-26.75-13.03-44.14-33.44-54.99-50.18-.96-.49-7.13-3.8-8.58-11.02-1.25-6.19,1.75-11.4,3.76-14.88,2.56-4.44,5.67-7.11,7.66-8.55,12.99-19.89,23.56-34.08,27.85-38.67,3.66-3.92,7.58-6.55,7.58-6.55,2.85-1.91,5.23-2.98,6.2-3.42,7.07-3.19,43.96-20.04,59.77-20.55,.69-.02,2.54-.07,4.73-.01,7.56,.19,11.04,1,12.27,1.3,3.08,.77,16.17,5.97,27.06,16.95,9.07,9.15,24.41,30.15,39.38,60.53,1.31,.87,7.36,5.11,8.89,13.04Z"/>
      <path class="cls-2" d="M422.55,143.87c1.42,7.4-1.65,15.18-7.89,20.18-2.74,6.53-7.36,15.3-15.13,23.98-13.95,15.58-30.2,22.08-38.52,24.74,4.57,.61,5.65,1.44,5.73,2.1,.3,2.61-8.1,4.71-8.1,4.71h0c-12.49,3.9-18.74,5.86-28.73,6.01-2.12,.03-12.42,.1-25.19-3.63-8.4-2.46-19.4-7.67-18.81-10.13,.28-1.14,3.01-1.47,5.18-1.57-3.32-1.27-6.7-2.72-10.11-4.38-26.75-13.03-44.14-33.44-54.99-50.18-.96-.49-7.13-3.8-8.58-11.02-1.25-6.19,1.75-11.4,3.76-14.88,2.56-4.44,5.67-7.11,7.66-8.55,11.83-18.25,21.63-31.56,26.54-37.22,3.06-3.53,5.89-5.99,8.89-8,3.44-2.31,6.37-3.51,7.56-4,12.76-5.29,44.08-19.48,58.41-19.97,.42-.01,2.33-.07,4.73-.01,7.56,.19,11.04,1,12.27,1.3,3.08,.77,16.17,5.97,27.06,16.95,9.07,9.15,24.41,30.15,39.38,60.53,1.31,.87,7.36,5.11,8.89,13.04Z"/>
      <path class="cls-17" d="M361.01,212.77c-5.31,2.44-12.87,5.16-22.22,6.22-16.66,1.89-29.95-2.51-36.74-5.33"/>
    </g>
    <path class="cls-17" d="M229.56,156.74c2.93,1.41,6.92,2.97,11.84,3.93,4.25,.83,8,.98,10.96,.89"/>
    <path class="cls-17" d="M414.66,164.05c-4.66,2.88-10.51,6-17.52,8.72-6.83,2.66-13.09,4.3-18.37,5.33"/>
  </g>
</svg>