<?xml version="1.0" encoding="UTF-8"?>
<svg id="CharacterFront" xmlns="http://www.w3.org/2000/svg" viewBox="0 0 640 640">
  <defs>
    <style>
      .cls-1 {
        stroke-dasharray: 0 0 3.03 4.54;
      }

      .cls-1, .cls-2, .cls-3, .cls-4, .cls-5, .cls-6, .cls-7, .cls-8, .cls-9, .cls-10, .cls-11, .cls-12, .cls-13, .cls-14, .cls-15, .cls-16, .cls-17 {
        fill: none;
      }

      .cls-1, .cls-2, .cls-18, .cls-4, .cls-5, .cls-19, .cls-6, .cls-7, .cls-20, .cls-21, .cls-8, .cls-9, .cls-10, .cls-22, .cls-11, .cls-23, .cls-12, .cls-13, .cls-14, .cls-15, .cls-24, .cls-16, .cls-17 {
        stroke-linecap: round;
        stroke-linejoin: round;
      }

      .cls-1, .cls-2, .cls-4, .cls-5, .cls-25, .cls-26, .cls-27, .cls-10, .cls-22 {
        stroke-width: 2px;
      }

      .cls-1, .cls-2, .cls-4, .cls-5, .cls-27, .cls-10 {
        stroke: #bc695c;
      }

      .cls-2 {
        stroke-dasharray: 0 0 2.67 3.57;
      }

      .cls-3, .cls-18, .cls-28, .cls-25, .cls-19, .cls-29, .cls-20, .cls-21, .cls-8, .cls-9, .cls-22, .cls-23, .cls-15, .cls-24 {
        stroke: #000;
      }

      .cls-3, .cls-28, .cls-25, .cls-29, .cls-26, .cls-27 {
        stroke-miterlimit: 10;
      }

      .cls-3, .cls-15 {
        stroke-width: 2.64px;
      }

      .cls-18 {
        fill: #64af64;
      }

      .cls-18, .cls-28, .cls-19, .cls-29, .cls-6, .cls-7, .cls-20, .cls-21, .cls-8, .cls-9, .cls-11, .cls-23, .cls-12, .cls-13, .cls-14, .cls-16, .cls-17 {
        stroke-width: 2.5px;
      }

      .cls-30 {
        fill: #ddc7bc;
      }

      .cls-5 {
        stroke-dasharray: 0 0 3.25 4.88;
      }

      .cls-28, .cls-25 {
        fill: #9add85;
      }

      .cls-19 {
        fill: #519351;
      }

      .cls-29 {
        fill: #f5e3d9;
      }

      .cls-6 {
        stroke-dasharray: 0 0 3.25 4.88;
      }

      .cls-6, .cls-7 {
        stroke: #7a94dd;
      }

      .cls-20 {
        fill: #97e068;
      }

      .cls-21 {
        fill: #165116;
      }

      .cls-31 {
        fill: #efe8e6;
      }

      .cls-26 {
        stroke: #443836;
      }

      .cls-26, .cls-27 {
        fill: #f1a791;
      }

      .cls-9, .cls-14, .cls-17 {
        stroke-dasharray: 0 0 3.52 5.29;
      }

      .cls-10 {
        stroke-dasharray: 0 0 2.81 3.75;
      }

      .cls-32 {
        fill: #e3ffd7;
      }

      .cls-22 {
        fill: #3f3f3f;
      }

      .cls-11 {
        stroke-dasharray: 0 0 3.27 4.9;
      }

      .cls-11, .cls-12, .cls-13 {
        stroke: #58a03d;
      }

      .cls-23 {
        fill: #212121;
      }

      .cls-12 {
        stroke-dasharray: 0 0 3.4 5.1;
      }

      .cls-33 {
        fill: #20440e;
      }

      .cls-14 {
        stroke: #848484;
      }

      .cls-24 {
        fill: #e7ffe1;
      }

      .cls-16, .cls-17 {
        stroke: #346d1d;
      }
    </style>
  </defs>
  <path class="cls-30" d="M473.26,210.23c2.77-.01,5.58-.04,8.42-.09,2.51-.04,4.99-.1,7.45-.17,.02,.76,.1,1.72,.37,2.8,.26,1.05,.62,1.92,.95,2.59-1.06,.7-3.99,2.44-8.12,2.4-4.08-.04-6.95-1.8-8-2.52-.02-.51-.06-1.06-.15-1.66-.2-1.33-.56-2.46-.93-3.35Z"/>
  <path class="cls-29" d="M324.49,510.94c.46,2.77,1.33,6.83,3.08,11.52,1.45,3.87,2.71,6.07,3.72,8.22,3.05,6.49,3.51,11.95,4.31,18.79,1.08,9.19,2.73,20.55,5.07,35.27,1.43-.4,3.7-.84,6.48-.6,3.06,.26,5.4,1.24,6.78,1.94,.15-.4,.87-2.14,2.65-2.81,.52-.19,1-.25,1.39-.26,.62-11.14,.52-20.4,.26-27.14-.45-11.99-1.4-16.66-2.02-19.31-1.89-8-4.81-14.2-7.04-18.25-.48-.82-.96-1.78-1.38-2.88-.91-2.36-1.21-4.51-1.3-6.14,.14-7.29,.28-14.58,.42-21.87-1.02-6.36-6.76-10.84-12.89-10.37-6.54,.5-11.69,6.48-11.11,13.33,.52,6.86,1.05,13.72,1.57,20.57Z"/>
  <path class="cls-29" d="M275.7,508.82c1.45,6.16,2.58,10.99,3.33,14.1,.18,.73,.54,2.26,.88,4.34,.26,1.6,.44,3.12,.55,4.53-.56,7.81-.78,16.52-.39,25.97,.46,10.99,1.66,20.94,3.17,29.66,1.06,4.59,5.22,7.64,9.49,7.27,3.53-.31,6.64-2.92,7.73-6.56,.76-4.53,1.78-11.02,2.84-18.89,.92-6.83,1.31-10.24,1.62-13.82,.49-5.73,.58-14.1-1.56-24.68,.02-1.54,0-3.13-.06-4.76-.2-5.66-.87-10.87-1.77-15.54-.84-7.02-1.67-14.04-2.51-21.06-.5-10.11-8.76-16.58-15.56-15.5-4.74,.75-8.86,5.18-10.35,10.93,.86,8,1.72,16.01,2.58,24.01Z"/>
  <g>
    <path class="cls-7" d="M290.77,591.36v1.76"/>
    <path class="cls-6" d="M290.77,598v13.82"/>
    <path class="cls-7" d="M290.77,614.27v1.76"/>
  </g>
  <g>
    <path class="cls-4" d="M283.92,534.93c.08,.44,.19,.87,.32,1.28"/>
    <path class="cls-10" d="M286.08,539.45c.74,.77,1.58,1.25,2.44,1.35,2.1,.24,4.83-1.76,5.86-5.19"/>
    <path class="cls-4" d="M294.73,533.77c.04-.43,.06-.87,.05-1.32"/>
  </g>
  <g>
    <path class="cls-4" d="M333.91,529.71c.13,.43,.27,.85,.44,1.25"/>
    <path class="cls-2" d="M336.31,533.91c.76,.71,1.59,1.12,2.38,1.13,1.9,.01,4.08-2.31,4.55-5.87"/>
    <path class="cls-4" d="M343.32,527.38c-.01-.43-.05-.87-.12-1.32"/>
  </g>
  <path class="cls-18" d="M331.66,536.32c1.02,.84,2.99,2.23,5.85,2.96,2.8,.71,5.16,.46,6.44,.22,1.61-.45,4.31-1.44,7.04-3.63,2.78-2.24,4.33-4.73,5.11-6.22,1.06,2.46,2.14,5.49,2.96,9.04,.86,3.73,1.22,7.08,1.33,9.85,.37,4.3,.94,8.85,1.78,13.63,1.95,11.1,4.89,20.82,8.01,28.98,.36,3.07,.73,6.15,1.09,9.22-3,4.22-6,8.44-9,12.65-1.46,1.2-3.55,2.67-6.3,3.9-2.8,1.26-5.34,1.84-7.22,2.13-1.88,.24-4.42,.36-7.36-.12-1.9-.31-3.53-.79-4.86-1.29-1-.22-2.53-.67-4.15-1.7-1.74-1.11-2.84-2.4-3.46-3.26-.52-1.34-1.15-3.32-1.43-5.78-.23-2.01-.84-8,2.67-13.78,1.71-2.82,3.72-4.7,4.74-5.33,1.28-.79,2.57-1.58,3.85-2.37,.27-4.83,.22-10.7-.66-17.3-.81-6.09-2.12-11.38-3.49-15.73-.65-2.19-1.27-4.62-1.78-7.26-.62-3.18-.98-6.14-1.19-8.81Z"/>
  <path class="cls-18" d="M277.66,540.99c.51,1.03,2.22,4.14,6,6,3.27,1.61,6.29,1.41,7.48,1.26,2.32-.47,5.29-1.29,8.52-2.81,2.72-1.28,4.91-2.72,6.59-4,.47,1.71,1.07,4.42,1.18,7.78,.16,4.71-.75,7.37-1.48,12.67-.69,4.99-.72,8.75-.76,12.01-.04,4.34,.22,10.47,1.64,17.92,.91,.66,2.73,2.15,3.92,4.74,.98,2.11,1.11,4.03,1.11,5.11,.16,1.51,.22,3.4,0,5.56-.24,2.36-.76,4.34-1.27,5.88-1.91,1.71-4.36,3.63-7.39,5.46-2.83,1.7-5.5,2.91-7.78,3.78-3.19,.07-6.37,.15-9.56,.22-2.19-.34-5.65-1.15-9.33-3.33-2.99-1.77-5.07-3.82-6.4-5.34-.7-1.49-1.56-3.71-1.93-6.53-.36-2.7-.16-4.99,.11-6.57,.43-1.49,1.26-3.69,2.89-6,1.66-2.35,3.5-3.88,4.78-4.79,.87-4.05,1.61-8.87,1.89-14.32,.27-5.3,.05-10.04-.37-14.07-.92-2.13-2.3-6.13-2.08-11.26,.18-4.13,1.34-7.36,2.22-9.33Z"/>
  <path class="cls-9" d="M274.55,598.1c.18-.42,4.22-9.3,13.33-10.44,7.56-.95,15.26,3.84,18.22,11.78"/>
  <path class="cls-9" d="M290.18,593.29v22.75"/>
  <path class="cls-9" d="M339.37,589.92c1.84-.53,6.35-1.54,11.41,.3,8.96,3.25,11.59,12.51,11.85,13.48"/>
  <path class="cls-9" d="M343.31,593.29c-1.28,1.49-3.14,4.06-4.3,7.7-1.64,5.18-.92,9.63-.44,11.7"/>
  <path class="cls-28" d="M300.4,591.38c-.38,2.18,.89,3.9,1.56,4.8,.71,.97,2.8,3.79,5.95,3.47,2.85-.29,4.3-2.93,4.37-3.07,1.48-2.8-.02-5.6-.26-6.03-.15-.28-1.82-3.26-5.2-3.61-.73-.07-2.83-.16-4.58,1.34-.34,.29-1.54,1.35-1.84,3.11Z"/>
  <path class="cls-28" d="M278.3,591.38c.38,2.18-.89,3.9-1.56,4.8-.71,.97-2.8,3.79-5.95,3.47-2.85-.29-4.3-2.93-4.37-3.07-1.48-2.8,.02-5.6,.26-6.03,.15-.28,1.82-3.26,5.2-3.61,.73-.07,2.83-.16,4.58,1.34,.34,.29,1.54,1.35,1.84,3.11Z"/>
  <path class="cls-28" d="M353.11,589.83c-.31,2.22,.75,3.97,1.3,4.89,.6,.99,2.35,3.86,4.98,3.53,2.39-.3,3.6-2.98,3.66-3.13,1.24-2.85-.02-5.7-.22-6.15-.12-.28-1.52-3.32-4.36-3.68-.61-.08-2.37-.16-3.84,1.37-.28,.3-1.29,1.37-1.54,3.17Z"/>
  <path class="cls-28" d="M337.35,587.59c0,2.2-1.2,3.77-1.83,4.6-.68,.89-2.65,3.47-5.03,2.83-2.15-.58-2.92-3.34-2.96-3.49-.77-2.92,.75-5.55,.99-5.96,.15-.26,1.83-3.05,4.47-3.05,.57,0,2.2,.13,3.35,1.8,.22,.32,1,1.49,1.01,3.27Z"/>
  <path class="cls-33" d="M269.84,594.61c.09,1.05,.76,2.11,1.68,2.32,1.94,.44,4.74-2.99,4.09-4.62-.42-1.07-2.46-1.66-4.02-.79-.97,.55-1.87,1.72-1.76,3.09Z"/>
  <path class="cls-33" d="M309.03,594.61c-.09,1.05-.76,2.11-1.68,2.32-1.94,.44-4.74-2.99-4.09-4.62,.42-1.07,2.46-1.66,4.02-.79,.97,.55,1.87,1.72,1.76,3.09Z"/>
  <path class="cls-33" d="M330.83,589.71c0,1.05,.42,2.14,1.07,2.39,1.37,.53,3.6-2.78,3.23-4.43-.24-1.09-1.68-1.76-2.85-.96-.73,.5-1.45,1.64-1.45,3Z"/>
  <path class="cls-33" d="M359.65,592.77c-.06,1.05-.55,2.11-1.21,2.32-1.4,.44-3.42-2.99-2.96-4.62,.31-1.07,1.78-1.66,2.9-.79,.7,.55,1.35,1.72,1.27,3.09Z"/>
  <path class="cls-18" d="M369.47,417.44c.3-14.42,.59-28.84,.89-43.26-1.86-6.64-4.4-16.45-6.7-28.5-2.81-14.72-3.46-24.78-5.55-41.05-1.91-14.85-3.94-31.36-6-49.33-1.99-2.57-5.2-6.15-9.92-9.4-2.65-1.82-8.62-5.93-16.18-6.79-4.58-.52-8.92,.26-21.76,6.12-6.62,3.03-15.5,7.41-25.74,13.45-7.96,26.56-15.93,53.12-23.89,79.68-2.9,12.73-5.79,25.45-8.69,38.18-.49,12.35-.99,24.69-1.48,37.04,6.58,.03,14.34,.58,22.89,2.22,14.02,2.68,25.35,7.35,33.56,11.56,9.17-3.25,20.79-6.52,34.44-8.44,13.1-1.85,24.7-1.99,34.15-1.48Z"/>
  <path class="cls-17" d="M244.77,405.12c7.37-.17,16.84,.27,27.6,2.48,10.85,2.23,19.79,5.61,26.53,8.71,8.11-3.25,18.84-6.66,31.76-8.5,15.77-2.25,29.26-1.37,39.01,.03"/>
  <path class="cls-28" d="M307.15,263.62c-3.4,25.28-6.98,45.39-9.68,59.3-2.03,10.49-3.11,16.28-4,21.54-.65,3.89-1.08,6.71-1.34,8.38-1.1,7.16-2.82,17.98-5.48,33.63,.25,12.15,.49,24.3,.74,36.44,2.27,1.05,4.86,2.08,7.77,2.96,1.44,.43,2.82,.79,4.14,1.09-.5-13.11-1.01-26.22-1.51-39.33,1.58-13.74,2.74-24.44,3.53-31.83,.33-3.09,.55-5.26,.93-8.51,.76-6.47,1.78-13.99,3.51-25.27,1.96-12.78,4.97-32.52,8.78-57.99-2.47-.14-4.93-.28-7.4-.42Z"/>
  <path class="cls-19" d="M314.28,368.55c5.21-1.08,11.01-2.02,17.33-2.67,6.25-.64,12.06-.88,17.33-.89-.15,10.67-.3,21.33-.44,32-5.31,.15-11.12,.55-17.33,1.33-5.6,.71-10.8,1.63-15.56,2.67l-1.33-32.44Z"/>
  <path class="cls-19" d="M312.44,365.81c-.64,2.18-1.23,5.15-1.11,8.67,.05,1.53,.23,2.91,.46,4.13,6.88,1.44,13.76,2.88,20.65,4.31,6.24-2.37,12.48-4.74,18.72-7.12,.48-1.07,1.71-4.17,.84-7.99-.57-2.5-1.81-4.24-2.56-5.15-4.92,1.35-10.92,2.6-17.82,3.22-7.36,.67-13.86,.45-19.18-.07Z"/>
  <path class="cls-28" d="M331.07,374.1c-.71,.2-1.56,.79-1.7,1.63-.25,1.45,1.65,3.28,3.21,2.82,1.14-.33,2.08-1.87,1.53-3.19-.5-1.19-1.96-1.56-3.04-1.26Z"/>
  <path class="cls-19" d="M276.67,367.98c-4.48-1.53-9.49-2.99-14.98-4.19-5.43-1.19-10.52-1.95-15.16-2.42-.94,10.63-1.88,21.25-2.82,31.88,4.66,.62,9.73,1.53,15.12,2.87,4.86,1.2,9.34,2.58,13.42,4.03,1.48-10.72,2.95-21.44,4.43-32.16Z"/>
  <path class="cls-19" d="M278.57,365.42c.35,2.22,.57,5.23,.11,8.72-.2,1.51-.5,2.88-.82,4.07-6.2,.82-12.4,1.64-18.6,2.46-5.25-2.91-10.5-5.83-15.75-8.74-.32-1.11-1.09-4.31,.07-8.03,.76-2.44,2.01-4.06,2.77-4.9,4.19,1.78,9.35,3.55,15.35,4.79,6.41,1.32,12.15,1.68,16.88,1.63Z"/>
  <path class="cls-28" d="M260.57,371.92c.63,.2,1.38,.79,1.51,1.63,.22,1.45-1.46,3.28-2.84,2.82-1.01-.33-1.84-1.87-1.35-3.19,.44-1.19,1.74-1.56,2.69-1.26Z"/>
  <g>
    <path class="cls-18" d="M404.6,278.32c-1.97,5.75-3.94,11.51-5.91,17.26,1.27,22.55,2.53,45.11,3.8,67.66,4.13,13.01,8.27,26.02,12.4,39.03,4.15,2.37,8.3,4.74,12.44,7.11,9.33-1.63,18.67-3.26,28-4.89,5.93-7.41,11.85-14.81,17.78-22.22-.15-4.89-.3-9.78-.44-14.67-11.56-25.48-23.11-50.96-34.67-76.44-6.64-7.15-13.29-14.36-19.94-21.62-3.41-3.72-6.82-7.44-10.2-11.16"/>
    <path class="cls-8" d="M428.34,398.79c5.29-4.69,10.59-9.39,15.88-14.08,6.89-1.26,13.78-2.52,20.67-3.78"/>
    <path class="cls-9" d="M402.49,363.23c6.06-5.06,12.12-10.13,18.18-15.19,6.81-2.67,13.63-5.33,20.44-8"/>
    <path class="cls-9" d="M438,291.15c-5.78-.15-11.56-.3-17.33-.44"/>
  </g>
  <g>
    <path class="cls-18" d="M212.08,253.01c-8.7,6.52-17.39,13.05-26.09,19.57-14.26,14.72-28.53,29.43-42.79,44.15-2.22,10.81-4.44,21.63-6.67,32.44,7.9,6.33,15.79,12.66,23.69,18.99,3.68,.28,7.37,.56,11.05,.84,6.35-4.09,12.69-8.18,19.04-12.27,1.48-6.07,2.96-12.15,4.44-18.22-2.04-1.61-4.07-3.21-6.11-4.82,3.28-7.77,7.55-16.43,13.13-25.52,3.77-6.13,7.61-11.6,11.33-16.44"/>
    <path class="cls-9" d="M136.53,349.18c4.3-4.74,8.59-9.48,12.89-14.22,5.04-1.33,10.07-2.67,15.11-4"/>
    <path class="cls-9" d="M188.64,333.69c-3.1-2.39-6.2-4.79-9.3-7.18"/>
    <path class="cls-9" d="M143.2,316.73c4.54-2.07,9.09-4.15,13.63-6.22"/>
  </g>
  <path class="cls-19" d="M310.88,58.09c-8.2,3.95-16.4,7.9-24.59,11.85-6.32,5.93-12.64,11.85-18.96,17.78,7.01,6.12,14.02,12.25,21.04,18.37,8.88,3.3,17.76,6.6,26.64,9.89,7.29-15.72,14.58-31.44,21.88-47.15l10.74,48.81c12.64-4.15,25.28-8.3,37.93-12.44,7.41-7.8,14.81-15.6,22.22-23.41-4.25-4.54-8.49-9.09-12.74-13.63-5.83-3.56-11.65-7.11-17.48-10.67-8.93,2.79-22.28,5.78-38.53,5.18-11.29-.42-20.85-2.45-28.14-4.59Z"/>
  <path class="cls-9" d="M288.36,106.09c4.54-7.41,9.09-14.81,13.63-22.22,1.93-1.75,3.85-3.51,5.78-5.26"/>
  <path class="cls-9" d="M385.55,105.2c-1.88-4.84-3.75-9.68-5.63-14.52-1.46-1.21-2.91-2.42-4.37-3.63"/>
  <path class="cls-25" d="M334.48,68.42c-.78,11.17-.71,25.65,2.18,42.19,2.35,13.47,5.98,24.91,9.56,34,1.04-.44,2.07-.89,3.11-1.33-2.29-6.7-4.43-14.05-6.22-22-4.46-19.82-5.49-37.72-5.12-52.43-1.17-.14-2.34-.28-3.51-.42Z"/>
  <path class="cls-28" d="M340.89,67.9c.86-.05,1.71-.11,2.55-.17,1.13,.91,12.75,10.47,10.7,22.28-.8,4.62-3.96,11.1-8.23,11.36-5.53,.34-9.68-9.93-10.45-11.82-3.48-8.6-2.12-16.82-.94-21.32,2.09-.08,4.22-.19,6.37-.33Zm.09,4.1c-1.52,.69,.03,7.03,.79,10.14,.71,2.89,2.29,9.36,4.06,9.29,1.51-.07,3.15-4.91,2.51-9.3-.86-5.91-5.83-10.82-7.36-10.12Z"/>
  <path class="cls-25" d="M336.88,68.83c-1.29,10.85-4.02,24.58-9.91,39.65-3.67,9.39-7.85,17.44-11.86,24.13-.74-.67-1.48-1.33-2.22-2,3.44-6.12,6.91-13.23,10-21.33,6-15.75,8.61-30.14,9.71-41.54,1.43,.37,2.86,.73,4.29,1.1Z"/>
  <path class="cls-28" d="M337.21,69.03c-.02,4.65-.84,12.94-6.42,20.35-1.23,1.63-7.9,10.48-13.15,8.72-4.06-1.36-5.43-8.43-5.01-13.1,1.07-11.94,14.77-18.17,16.1-18.75,.8,.28,1.61,.55,2.42,.82,2.04,.69,4.07,1.34,6.07,1.96Zm-16.95,9.84c-1.75,4.07-1.42,9.17,.02,9.63,1.69,.53,4.89-5.31,6.33-7.92,1.54-2.8,4.68-8.52,3.38-9.59-1.3-1.07-7.37,2.39-9.73,7.87Z"/>
  <path class="cls-21" d="M60.94,137.17c14.97-30.39,30.31-51.38,39.38-60.53,10.89-10.98,23.98-16.19,27.06-16.95,1.23-.31,4.71-1.12,12.27-1.3,9.22-.23,21.77,.53,65.63,14.87,1.41,.46,4.39,1.46,7.82,3.8,4.04,2.76,6.54,5.89,7.85,7.55,4.64,5.92,13.94,21.4,24.83,42.98,1.99,1.44,5.1,4.11,7.66,8.55,2.01,3.48,5.01,8.69,3.76,14.88-1.46,7.22-7.63,10.52-8.58,11.02-10.85,16.74-28.24,37.15-54.99,50.18-3.41,1.66-6.78,3.11-10.11,4.38,2.17,.1,4.9,.43,5.18,1.57,.59,2.46-10.41,7.67-18.81,10.13-12.77,3.74-23.08,3.67-25.19,3.63-9.99-.15-16.24-2.1-28.73-6.01,0,0,0,0,0,0,0,0-8.4-2.1-8.1-4.71,.08-.66,1.15-1.49,5.73-2.1-8.32-2.66-24.57-9.16-38.52-24.74-7.77-8.68-12.39-17.45-15.13-23.98-6.24-5-9.31-12.78-7.89-20.18,1.52-7.93,7.58-12.16,8.89-13.04Z"/>
  <g>
    <path class="cls-30" d="M138.73,210.62c2.77-.01,5.58-.04,8.42-.09,2.51-.04,4.99-.1,7.45-.17,.02,.76,.1,1.72,.37,2.8,.26,1.05,.62,1.92,.95,2.59-1.06,.7-3.99,2.44-8.12,2.4-4.08-.04-6.95-1.8-8-2.52-.02-.51-.06-1.06-.15-1.66-.2-1.33-.56-2.46-.93-3.35Z"/>
    <g>
      <g>
        <path class="cls-29" d="M90.11,166.75c1.37,11.3,3.2,14.34,4.7,16.18,1.38,1.7,3.29,3.39,4.7,6.79,1.56,3.78,.81,5.62,1.57,8.09,1.81,5.93,10.11,8.43,16.18,10.18,7.06,2.03,13.84,2.76,24.79,2.61,16.82-.22,25.22-.33,32.62-3.65,11.89-5.33,18.32-14.7,20.88-18.53,11.85-17.74,12.35-41.17,5.22-59.51-7.71-19.83-28.92-45.45-58.46-43.59-31.73,2-50.05,34.25-52.98,52.98-1.5,9.61,.02,22.19,.78,28.45Z"/>
        <path class="cls-31" d="M125.03,165.22c1.01,.97,2.54,2.7,3.63,5.32,2.04,4.91,2.15,12.08-1.5,16.44-2.35,2.82-5.34,3.35-8.53,3.91-1.68,.3-8.98,1.37-15.55-3.65-1.09-.83-3.05-2.36-4.74-5.21-2.12-3.57-2.59-7.13-2.71-8.96,3.12-3.9,6.22-5.74,8.16-6.65,4.54-2.12,8.81-1.99,14.38-1.82,2.88,.09,5.25,.37,6.85,.61Z"/>
        <path class="cls-31" d="M163.06,164.01c-.73,1.6-1.91,4.81-1.57,8.87,.12,1.42,.64,7.55,5.87,11.61,4.08,3.17,9.37,3.83,13.57,2.61,8.83-2.55,11.86-12.8,12.79-15.92,.98-3.3,1.17-6.17,1.17-8.09-3.9-1.12-9.73-2.3-16.84-1.98-6.28,.28-11.41,1.64-15,2.9Z"/>
        <path class="cls-27" d="M99.75,190.36c1.69-1.13,5.09-3.08,9.73-3.45,1.69-.13,10.22-.81,15.46,5.68,3.8,4.7,4.47,11.44,1.87,17.36-4.11-.63-7.52-1.43-10.07-2.11-.72-.19-5.04-1.37-9.7-3.65-1.09-.54-2.49-1.27-3.81-2.73-.55-.61-1.62-1.82-2.18-3.65-.46-1.52-.16-2.13-.56-4.44-.23-1.32-.54-2.37-.76-3.01Z"/>
        <g>
          <path class="cls-4" d="M103.22,192c.45-.22,.99-.46,1.61-.7"/>
          <path class="cls-5" d="M109.55,190.09c2.17-.33,5.11-.42,8.16,.94,1.11,.5,4.44,1.98,6.26,5.77,.81,1.69,1.09,3.34,1.12,4.77"/>
          <path class="cls-4" d="M124.89,204c-.15,.82-.34,1.42-.43,1.71"/>
        </g>
        <path class="cls-27" d="M172.51,207.81c-.88-.83-3.99-3.94-4.5-8.95-.04-.35-.63-7.43,4.89-12.14,4.86-4.14,11.84-4.23,16.64-1.37,2.51,1.5,3.99,3.54,4.77,4.87-1.78,2.63-4.32,5.83-7.85,8.97-5.14,4.57-10.3,7.16-13.95,8.63Z"/>
        <g>
          <path class="cls-4" d="M174.27,203.06c-.29-.33-.68-.8-1.06-1.41"/>
          <path class="cls-1" d="M171.92,197.36c-.11-3.79,2.36-6.6,2.59-6.85,2.74-3.03,6.42-3.25,7.57-3.26,1.71-.02,3.18,.38,4.37,.9"/>
          <path class="cls-4" d="M188.41,189.25c.71,.5,1.17,.94,1.36,1.12"/>
        </g>
        <path class="cls-20" d="M113.51,164.61c-1.57,.45-3.87,1.37-5.61,3.45-4.91,5.85-3.07,18.05,4.05,21.14,3.63,1.58,8.66,.79,11.75-2.22,2.85-2.78,3.13-6.41,3.28-8.37,.35-4.66-1.54-8.19-2.41-9.59-1.11-1.78-2.37-3.02-3.28-3.8-2.59-.2-5.18-.41-7.76-.61Z"/>
        <path class="cls-20" d="M169.63,162.18c-1.24,1.81-2.67,4.5-3.18,7.96-.3,2.01-.95,8.67,3.52,13.7,1.12,1.26,3.09,3.48,6.14,3.81,5.73,.63,9.8-6.01,10.05-6.42,3.46-5.84,1.18-12.23,.65-13.7-1.1-3.06-2.8-5.19-3.92-6.39-1.88-.05-3.93-.02-6.13,.13-2.61,.18-5,.51-7.13,.91Z"/>
        <path class="cls-3" d="M90.11,166.75c1.37,11.3,3.2,14.34,4.7,16.18,1.38,1.7,3.29,3.39,4.7,6.79,1.56,3.78,.81,5.62,1.57,8.09,1.81,5.93,10.11,8.43,16.18,10.18,7.06,2.03,13.84,2.76,24.79,2.61,16.82-.22,25.22-.33,32.62-3.65,11.89-5.33,18.32-14.7,20.88-18.53,11.85-17.74,12.35-41.17,5.22-59.51-7.71-19.83-28.92-45.45-58.46-43.59-31.73,2-50.05,34.25-52.98,52.98-1.5,9.61,.02,22.19,.78,28.45Z"/>
        <path class="cls-26" d="M146.84,200.54s-.67,.01-1.26-.17c-1.6-.49-3.37-2.81-2.67-4.43,.58-1.36,2.61-1.56,3.43-1.64,.87-.09,2.91-.29,3.8,1,1.01,1.45,0,3.97-1.46,4.78-.39,.21-1.05,.45-1.83,.46Z"/>
        <path class="cls-22" d="M161.49,163.49c-.31-.68,4.27-3.59,7.05-4.96,4.12-2.02,12.67-4.76,27.27,0-.3,1.52-.61,3.04-.91,4.57-4.9-1.36-9.04-1.81-12.01-1.96-7.82-.38-14.52,1.01-15.27,1.17-3.56,.76-5.92,1.64-6.13,1.17Z"/>
        <path class="cls-22" d="M94.59,166.17c1.79-1.37,3.9-2.64,6.37-3.61,12.57-4.92,25.06,1.71,28.01,3.37-6.59-1.29-12.1-1.34-15.99-1.12-8.19,.46-11.41,2.25-12.88,3.2-2.17,1.4-3.66,3.02-4.6,4.2-.3-2.01-.6-4.03-.9-6.04Z"/>
        <path class="cls-4" d="M115.67,155.99c1.48,.03,3.37,.21,5.48,.78,1.45,.39,2.69,.89,3.72,1.37"/>
        <path class="cls-4" d="M164.07,155.99c1.06-.76,2.36-1.58,3.92-2.35,1.42-.7,2.75-1.2,3.92-1.57"/>
        <path class="cls-24" d="M114.11,175.55c-1.94-.69-2.66-2.68-2.03-3.87,.45-.85,1.61-1.34,2.84-1.19,.27-.17,2.01-1.22,3.01-.6,1.05,.66,1.24,3.15-.38,5.89,1.44-2.68,3.75-3.61,4.84-2.99,1.15,.66,.93,3.03,.92,3.15,.6,1.15,.76,2.46,.18,3.22-.83,1.1-3.34,1.27-5.4-.61,2.52,1.68,3.29,3.98,2.61,5.01-.67,1-2.7,.74-2.94,.71-.99,.72-2.16,1.04-2.88,.61-1-.59-1.38-2.76,.07-4.78-1.77,1.94-4.08,2.09-4.98,1.18-.82-.84-.37-2.5-.32-2.69-.25-.33-1.03-1.42-.69-2.29,.43-1.08,2.56-1.7,5.15-.74Z"/>
        <path class="cls-24" d="M175.23,172.14c-1.77-1.04-2.11-3.13-1.28-4.18,.6-.75,1.83-1.02,3.01-.64,.29-.11,2.2-.83,3.07-.03,.91,.84,.63,3.32-1.47,5.72,1.92-2.36,4.36-2.86,5.31-2.04,1.01,.86,.35,3.15,.32,3.27,.38,1.25,.29,2.56-.42,3.2-1.02,.93-3.52,.63-5.19-1.6,2.16,2.11,2.5,4.53,1.63,5.4-.84,.86-2.79,.23-3.02,.15-1.1,.53-2.31,.62-2.94,.06-.88-.77-.84-2.97,.96-4.68-2.1,1.58-4.4,1.3-5.11,.24-.65-.98,.1-2.53,.19-2.7-.19-.37-.75-1.59-.26-2.38,.62-.98,2.83-1.2,5.2,.22Z"/>
      </g>
      <path class="cls-23" d="M194.17,151.55c1.12,5.69,1.91,13.79-.3,22.81-5.78,23.63-27.51,34.68-24.47,39.88,2.35,4.01,16.64-.26,22.1-2.25,11.59-4.22,19.21-11.21,23.19-15.46,22.72-40.2,13.93-88.2-16.97-112.83-22.5-17.94-55.16-22.24-80.59-10.07-37.39,17.89-56.85,70.31-36.15,120.3,2.2,2.98,5.82,7.12,11.26,10.67,8.41,5.48,19.91,8.67,21.63,5.93,1.28-2.03-3.48-6.23-7.7-12.15-5.03-7.04-10.36-18.4-10.63-36.9,1.74-1.96,4.29-4.42,7.82-6.65,2.73-1.73,5.32-2.86,7.42-3.61,.3-8.93,.94-13.43,1.91-13.51,.9-.07,2.08,3.63,3.54,11.1,3.38-1.2,7.3-2.35,11.72-3.24,3.28-.66,6.36-1.09,9.17-1.34-1.43-10.46-1.42-14.33-.65-14.51,.79-.19,2.61,3.5,6.15,14.23,1.36-.02,2.72-.04,4.07-.07-.2-4.14,.15-5.12,.51-5.2,.39-.08,1.16,.78,2.81,5.48,2.74-.15,5.93-.13,9.47,.23,2.9,.3,5.51,.78,7.79,1.33-.24-6.34,.03-9.58,.81-9.71,.84-.14,2.26,3.25,4.26,10.17,3.74,.5,7.89,1.27,12.33,2.42,3.45,.9,6.62,1.91,9.48,2.96Z"/>
      <path class="cls-14" d="M95.54,161.46c-.33-3.75-.4-8.35,.26-13.54,1.03-8.1,3.44-14.59,5.56-19.11"/>
      <path class="cls-14" d="M194.17,151.55c-.9-4.83-2.27-10.19-4.37-15.85-.71-1.91-1.45-3.73-2.22-5.46"/>
      <path class="cls-14" d="M125.1,146.18c-.75-2.66-1.4-5.73-1.75-9.14-.94-9.27,.73-17.04,2.37-22.22"/>
      <path class="cls-14" d="M152.68,124.14c1.11,4.07,2.12,8.47,2.96,13.19,.42,2.34,.76,4.62,1.05,6.83"/>
      <path class="cls-14" d="M177.13,138.22c.52,1.07,1.06,2.41,1.48,4,.52,1.98,.69,3.74,.72,5.13"/>
    </g>
    <path class="cls-15" d="M138.28,210.61c.51,.76,1.11,1.9,1.39,3.36,.11,.61,.15,1.17,.15,1.66"/>
    <path class="cls-15" d="M154.6,210.36c.02,.76,.1,1.72,.37,2.8,.26,1.05,.62,1.92,.95,2.59"/>
  </g>
  <path class="cls-18" d="M60.94,137.17c14.97-30.39,30.31-51.38,39.38-60.53,10.89-10.98,23.98-16.19,27.06-16.95,1.23-.31,4.71-1.12,12.27-1.3,9.22-.23,21.77,.53,65.63,14.87,1.41,.46,4.39,1.46,7.82,3.8,4.04,2.76,6.54,5.89,7.85,7.55,4.64,5.92,13.94,21.4,24.83,42.98,1.99,1.44,5.1,4.11,7.66,8.55,2.01,3.48,5.01,8.69,3.76,14.88-1.46,7.22-7.63,10.52-8.58,11.02-10.85,16.74-28.24,37.15-54.99,50.18-3.41,1.66-6.78,3.11-10.11,4.38,2.17,.1,4.9,.43,5.18,1.57,.59,2.46-10.41,7.67-18.81,10.13-12.77,3.74-23.08,3.67-25.19,3.63-9.99-.15-16.24-2.1-28.73-6.01,0,0,0,0,0,0,0,0-8.4-2.1-8.1-4.71,.08-.66,1.15-1.49,5.73-2.1-8.32-2.66-24.57-9.16-38.52-24.74-7.77-8.68-12.39-17.45-15.13-23.98-6.24-5-9.31-12.78-7.89-20.18,1.52-7.93,7.58-12.16,8.89-13.04Zm11.26,25.45c.29,2.98,1.35,7.55,7.3,15.26,6.96,9.03,14.14,14,27.22,22.75,0,0,17.88,11.95,33.03,15.68,3.96,.98,7.69,.85,7.69,.85s3.19-.11,6.43-1.02c14.93-4.17,51.7-39.21,51.7-39.21,9.58-9.13,16.56-15.72,14.99-23.05-.44-2.06-1.46-3.54-4.03-6.52-10.14-11.79-18.74-17.82-18.74-17.82-8.36-5.87-20.96-14.71-40.88-21.2-14.82-4.83-25.54-8.24-36.5-5.61-8.73,2.1-13.72,7.14-23.72,17.22-8.75,8.83-14.39,17.28-17.88,23.34-2.35,2.88-7.53,10.09-6.63,19.32Z"/>
  <path class="cls-28" d="M166.34,86.59c-1.43-10.37,5.84-18.68,7.5-20.48,.54-.58,1.16-1.19,1.86-1.81,.58-.51,1.15-.96,1.68-1.35,4.17-2.67,13.17-7.48,23.07-4.75,1.3,.36,2.17,.72,2.39,.82,10.62,4.54,19.84,22.17,13.17,35.91-4.68,9.65-14.67,12.37-15.64,12.62-14.3,3.65-32.05-6.5-34.04-20.95Z"/>
  <path class="cls-33" d="M175.64,83.27c-.94,6.01,3.93,10.93,5.07,12,.39,.37,8.39,7.68,16.8,3.72,5.39-2.54,8.19-8.4,7.94-13.86-.25-5.6-3.7-10.7-8.49-12.78-8.56-3.73-20.04,2.73-21.32,10.92Z"/>
  <g>
    <path class="cls-13" d="M173.65,74.63c.28-.52,.57-1.03,.89-1.52"/>
    <path class="cls-12" d="M177.77,69.17c6.58-6.27,16.74-7.82,24.72-3.3,9.04,5.13,12.77,16.61,8.8,26.28"/>
    <path class="cls-13" d="M210.18,94.45c-.28,.51-.59,1.01-.92,1.5"/>
  </g>
  <path class="cls-32" d="M179.42,82.08c-.64-4.1,3.03-6.72,3.44-7.01,.4-.28,3.81-2.55,7.09-.97,3.1,1.49,4.51,5.65,3.2,9.04-1.22,3.17-4.67,5.26-8.1,4.61-2.71-.52-5.18-2.7-5.64-5.67Z"/>
  <path class="cls-28" d="M73.49,110.39c-7.65-2.42-11.94-12.39-12.27-13.34-.22-.62-.42-1.32-.6-2.08-.15-.63-.25-1.22-.33-1.77-.31-4.14-.26-12.71,5.78-19.11,.79-.84,1.42-1.36,1.58-1.49,8.2-6.69,26.58-6.19,32.15,3.63,3.72,6.56,.24,14.64-.87,17.21-4.3,9.98-15.8,20.01-25.45,16.95Z"/>
  <path class="cls-33" d="M74.76,102.15c4.11,2.97,9.75,1.16,11.02,.71,.44-.16,9.13-3.41,9.58-11.22,.29-5.01-2.96-9.31-7.14-11.18-4.29-1.92-9.49-1.25-12.98,1.56-6.25,5.02-6.07,16.08-.46,20.12Z"/>
  <g>
    <path class="cls-13" d="M67.5,100.4c-.34-.49-.65-.99-.93-1.5"/>
    <path class="cls-11" d="M64.86,94.32c-1.54-7.06,1.43-14.76,7.77-18.87,7.31-4.74,17.08-3.41,22.78,2.82"/>
    <path class="cls-13" d="M96.92,80.18c.33,.48,.63,.98,.91,1.51"/>
  </g>
  <path class="cls-32" d="M75.93,94.82c-3.32-1.07-3.8-4.8-3.84-5.23-.04-.4-.37-3.82,2.14-5.69,2.37-1.76,6.04-1.26,8.05,1,1.88,2.11,2.04,5.49,.17,7.82-1.48,1.84-4.11,2.87-6.52,2.1Z"/>
  <path class="cls-17" d="M116.49,220.22c5.31,2.44,12.87,5.16,22.22,6.22,16.66,1.89,29.95-2.51,36.74-5.33"/>
  <path class="cls-16" d="M126.48,80.62c-.89,.63-2,1.54-2.96,2.77-1.38,1.76-1.88,3.41-2.07,4.48"/>
  <path class="cls-16" d="M139.52,79.74c-.92,1.1-2.01,2.68-2.67,4.69-.39,1.2-.55,2.29-.59,3.2"/>
  <path class="cls-17" d="M144.39,219.4c11.06,.68,17.34-1.25,18.96-1.78,5.9-1.92,9.75-4.77,13.93-7.7,20.48-14.38,21.73-18.7,39.11-32.3,0,0,7.82-6.11,13.33-16,.78-1.4,1.7-3.22,1.78-5.63,.18-5.69-4.52-10.07-6.81-12.15-27.72-25.13-40.59-32.3-40.59-32.3-4-2.23-25.14-13.83-47.7-17.78-4.98-.87-11.5-1.63-18.96,.59-3.61,1.07-7.63,2.9-14.52,8.3-13.59,10.64-20.79,21.44-30.81,36.74-4.16,6.35-6.16,9.99-6.81,15.11-1.03,8.06,1.96,14.63,3.85,18.67,3.98,8.48,9.34,13.45,15.41,18.96,15.26,13.86,30.13,19.84,33.19,21.04,13.48,5.27,23.97,6.06,26.67,6.22Z"/>
</svg>