<?xml version="1.0" encoding="UTF-8"?>
<svg id="CharacterSide" xmlns="http://www.w3.org/2000/svg" viewBox="0 0 640 640">
  <defs>
    <style>
      .cls-1 {
        stroke-dasharray: 0 0 3.35 5.03;
      }

      .cls-1, .cls-2, .cls-3, .cls-4, .cls-5, .cls-6, .cls-7, .cls-8, .cls-9, .cls-10, .cls-11, .cls-12, .cls-13, .cls-14, .cls-15, .cls-16, .cls-17 {
        stroke: #000;
      }

      .cls-1, .cls-2, .cls-18, .cls-11, .cls-12, .cls-19, .cls-20, .cls-21, .cls-22, .cls-23, .cls-16, .cls-24, .cls-25, .cls-26 {
        fill: none;
      }

      .cls-1, .cls-4, .cls-18, .cls-7, .cls-9, .cls-10, .cls-11, .cls-12, .cls-19, .cls-20, .cls-13, .cls-14, .cls-21, .cls-15, .cls-22, .cls-23, .cls-16, .cls-17, .cls-24, .cls-25, .cls-26 {
        stroke-linecap: round;
        stroke-linejoin: round;
      }

      .cls-1, .cls-4, .cls-5, .cls-7, .cls-8, .cls-9, .cls-10, .cls-11, .cls-12, .cls-19, .cls-14, .cls-21, .cls-15, .cls-22, .cls-23, .cls-25, .cls-26 {
        stroke-width: 2.5px;
      }

      .cls-2, .cls-3, .cls-5, .cls-6, .cls-8, .cls-27, .cls-28 {
        stroke-miterlimit: 10;
      }

      .cls-2, .cls-3, .cls-16 {
        stroke-width: 2.64px;
      }

      .cls-3, .cls-8 {
        fill: #f5e3d9;
      }

      .cls-4 {
        fill: #64af64;
      }

      .cls-18, .cls-6, .cls-27, .cls-28, .cls-20, .cls-13, .cls-24 {
        stroke-width: 2px;
      }

      .cls-18, .cls-28, .cls-20, .cls-24 {
        stroke: #bc695c;
      }

      .cls-29 {
        fill: #ddc7bc;
      }

      .cls-5, .cls-6 {
        fill: #9add85;
      }

      .cls-7 {
        fill: #519351;
      }

      .cls-9 {
        fill: #97e068;
      }

      .cls-10 {
        fill: #165116;
      }

      .cls-30 {
        fill: #efe8e6;
      }

      .cls-27 {
        stroke: #443836;
      }

      .cls-27, .cls-28 {
        fill: #f1a791;
      }

      .cls-12, .cls-19, .cls-23, .cls-24, .cls-26 {
        stroke-dasharray: 0 0 3.52 5.29;
      }

      .cls-19 {
        stroke: #7a94dd;
      }

      .cls-31 {
        fill: #e3ffd7;
      }

      .cls-20 {
        stroke-dasharray: 0 0 3.3 4.4;
      }

      .cls-13 {
        fill: #3f3f3f;
      }

      .cls-14 {
        fill: #212121;
      }

      .cls-21 {
        stroke-dasharray: 0 0 3.4 5.1;
      }

      .cls-21, .cls-22 {
        stroke: #58a03d;
      }

      .cls-15 {
        fill: #fef495;
      }

      .cls-32 {
        fill: #20440e;
      }

      .cls-23 {
        stroke: #848484;
      }

      .cls-17 {
        fill: #e7ffe1;
      }

      .cls-25, .cls-26 {
        stroke: #346d1d;
      }
    </style>
  </defs>
  <path class="cls-29" d="M302.95,217.5c2.82-.94,5.64-1.87,8.46-2.81,2.86,1.72,5.72,3.44,8.59,5.15,.02,.76,.1,1.72,.37,2.8,.26,1.05,.62,1.92,.95,2.59-1.06,.7-3.99,2.44-8.12,2.4-4.08-.04-6.95-1.8-8-2.52-.02-.52-.07-1.08-.15-1.66-.36-2.49-1.26-4.5-2.11-5.96Z"/>
  <path class="cls-16" d="M302.37,217.63c1.59,2.96,2.58,5.23,2.69,5.83,.06,.29,.09,.58,.09,.58,.05,.44,.06,.82,.06,1.08"/>
  <path class="cls-16" d="M320,219.85c.02,.76,.1,1.72,.37,2.8,.26,1.05,.62,1.92,.95,2.59"/>
  <g>
    <path class="cls-18" d="M187.98,469.89c.31,.4,.62,.71,.91,.96"/>
    <path class="cls-20" d="M192.93,471.14c1.23-.78,2.41-2.28,3.24-4.34"/>
    <path class="cls-18" d="M196.85,464.69c.1-.42,.19-.85,.27-1.29"/>
  </g>
  <path class="cls-8" d="M187.19,429.18c-3.67,17.03-3.2,30.3-2.1,39.25,.69,5.6,2.35,14.9,3.85,22.81,2.61,13.69,4.3,20.18,2.96,29.63-.6,4.21-1.59,7.6-2.36,9.83,.23,1.58,.46,3.16,.69,4.74,.07,2.01,.15,4.02,.22,6.03,3.69,.29,6.81,.4,9.15,.44,5.99,.11,7.59-.22,8.89-1.33,1.9-1.63,2.25-4.21,2.37-5.04,.39-2.73-.48-4.92-.74-5.63-1.68-4.54-.54-8.23-.01-22.21,.16-4.21,.35-6.18,.39-8.76,.05-3.89-.19-6.75-.23-7.25-.28-4.32,.4-19.71,3.78-62.67l1.07-31.45c-.86-7.22-7.09-12.6-14.12-12.44-7.26,.16-12.22,8.09-13.6,13.99-.93,3.96,.07,5.83,.57,12.25,.59,7.5-.09,13.69-.78,17.81Z"/>
  <g>
    <path class="cls-18" d="M187.76,469.37c.31,.4,.62,.71,.91,.96"/>
    <path class="cls-20" d="M192.71,470.62c1.23-.78,2.41-2.28,3.24-4.34"/>
    <path class="cls-18" d="M196.63,464.17c.1-.42,.19-.85,.27-1.29"/>
  </g>
  <g>
    <path class="cls-5" d="M178.8,518.09c.38,2.18-.89,3.9-1.56,4.8-.71,.97-2.8,3.79-5.95,3.47-2.85-.29-4.3-2.93-4.37-3.07-1.48-2.8,.02-5.6,.26-6.03,.15-.28,1.82-3.26,5.2-3.61,.73-.07,2.83-.16,4.58,1.34,.34,.29,1.54,1.35,1.84,3.11Z"/>
    <path class="cls-32" d="M170.34,521.31c.09,1.05,.76,2.11,1.68,2.32,1.94,.44,4.74-2.99,4.09-4.62-.42-1.07-2.46-1.66-4.02-.79-.97,.55-1.87,1.72-1.76,3.09Z"/>
  </g>
  <path class="cls-4" d="M216.1,546.67c.3-2.74,.52-6.54,.18-11.08-.05-.65-.2-2.62-.61-5.2-.4-2.52-1.09-5.55-2.73-11.47-1.35-4.89-1.7-8.89-1.78-11.56-.26-8.91,2-18.63,2.22-19.56,.51-2.16,1.08-4.13,1.11-7.11,.04-3.81-.82-6.94-1.56-9-1.51,1.21-6.89,5.2-14.78,5.11-7-.08-11.87-3.34-13.52-4.56-.48,2.02-1.04,5.05-1.08,8.75-.04,3.09,.3,4.89,.78,8.44,.43,3.2,1.39,10.29,1.48,16.59,.04,2.73-.06,6.76-.81,11.72-1.54-.42-3.83-.86-6.58-.68-9.03,.58-14.59,7.24-15.41,8.25-7.39,9.13-4.17,20.58-3.85,21.63,4.59,1.95,10.76,4,18.24,4.96,4.29,.55,7.55,.55,11.6,.5,5.31-.07,12.15-.23,20.24-.6l6.84-5.13Z"/>
  <g>
    <path class="cls-11" d="M163.37,542.59c-.12-.41-.27-1-.4-1.71"/>
    <path class="cls-1" d="M162.83,535.87c.15-1.18,.44-2.44,.94-3.73,2.27-5.8,7.27-8.25,8.89-9.04,1.97-.96,3.86-1.47,5.51-1.72"/>
    <path class="cls-11" d="M180.68,521.14c.69-.02,1.29,0,1.76,.03"/>
  </g>
  <path class="cls-5" d="M176.8,520.28c-.38,2.18,.89,3.9,1.56,4.8,.71,.97,2.8,3.79,5.95,3.47,2.85-.29,4.3-2.93,4.37-3.07,1.48-2.8-.02-5.6-.26-6.03-.15-.28-1.82-3.26-5.2-3.61-.73-.07-2.83-.16-4.58,1.34-.34,.29-1.54,1.35-1.84,3.11Z"/>
  <path class="cls-32" d="M185.43,523.5c-.09,1.05-.76,2.11-1.68,2.32-1.94,.44-4.74-2.99-4.09-4.62,.42-1.07,2.46-1.66,4.02-.79,.97,.55,1.87,1.72,1.76,3.09Z"/>
  <g>
    <path class="cls-18" d="M91.68,469.89c.31,.4,.62,.71,.91,.96"/>
    <path class="cls-20" d="M96.64,471.14c1.23-.78,2.41-2.28,3.24-4.34"/>
    <path class="cls-18" d="M100.56,464.69c.1-.42,.19-.85,.27-1.29"/>
  </g>
  <path class="cls-8" d="M90.89,429.18c-3.67,17.03-3.2,30.3-2.1,39.25,.69,5.6,2.35,14.9,3.85,22.81,2.61,13.69,4.3,20.18,2.96,29.63-.6,4.21-1.59,7.6-2.36,9.83,.23,1.58,.46,3.16,.69,4.74,.07,2.01,.15,4.02,.22,6.03,3.69,.29,6.81,.4,9.15,.44,5.99,.11,7.59-.22,8.89-1.33,1.9-1.63,2.25-4.21,2.37-5.04,.39-2.73-.48-4.92-.74-5.63-1.68-4.54-.54-8.23-.01-22.21,.16-4.21,.35-6.18,.39-8.76,.05-3.89-.19-6.75-.23-7.25-.28-4.32,.4-19.71,3.78-62.67l1.07-31.45c-.86-7.22-7.09-12.6-14.12-12.44-7.26,.16-12.22,8.09-13.6,13.99-.93,3.96,.07,5.83,.57,12.25,.59,7.5-.09,13.69-.78,17.81Z"/>
  <g>
    <path class="cls-18" d="M91.46,469.37c.31,.4,.62,.71,.91,.96"/>
    <path class="cls-20" d="M96.42,470.62c1.23-.78,2.41-2.28,3.24-4.34"/>
    <path class="cls-18" d="M100.34,464.17c.1-.42,.19-.85,.27-1.29"/>
  </g>
  <g>
    <path class="cls-5" d="M82.51,518.09c.38,2.18-.89,3.9-1.56,4.8-.71,.97-2.8,3.79-5.95,3.47-2.85-.29-4.3-2.93-4.37-3.07-1.48-2.8,.02-5.6,.26-6.03,.15-.28,1.82-3.26,5.2-3.61,.73-.07,2.83-.16,4.58,1.34,.34,.29,1.54,1.35,1.84,3.11Z"/>
    <path class="cls-32" d="M74.05,521.31c.09,1.05,.76,2.11,1.68,2.32,1.94,.44,4.74-2.99,4.09-4.62-.42-1.07-2.46-1.66-4.02-.79-.97,.55-1.87,1.72-1.76,3.09Z"/>
  </g>
  <path class="cls-4" d="M119.8,546.67c.3-2.74,.52-6.54,.18-11.08-.05-.65-.2-2.62-.61-5.2-.4-2.52-1.09-5.55-2.73-11.47-1.35-4.89-1.7-8.89-1.78-11.56-.26-8.91,2-18.63,2.22-19.56,.51-2.16,1.08-4.13,1.11-7.11,.04-3.81-.82-6.94-1.56-9-1.51,1.21-6.89,5.2-14.78,5.11-7-.08-11.87-3.34-13.52-4.56-.48,2.02-1.04,5.05-1.08,8.75-.04,3.09,.3,4.89,.78,8.44,.43,3.2,1.39,10.29,1.48,16.59,.04,2.73-.06,6.76-.81,11.72-1.54-.42-3.83-.86-6.58-.68-9.03,.58-14.59,7.24-15.41,8.25-7.39,9.13-4.17,20.58-3.85,21.63,4.59,1.95,10.76,4,18.24,4.96,4.29,.55,7.55,.55,11.6,.5,5.31-.07,12.15-.23,20.24-.6l6.84-5.13Z"/>
  <g>
    <path class="cls-11" d="M67.07,542.59c-.12-.41-.27-1-.4-1.71"/>
    <path class="cls-1" d="M66.53,535.87c.15-1.18,.44-2.44,.94-3.73,2.27-5.8,7.27-8.25,8.89-9.04,1.97-.96,3.86-1.47,5.51-1.72"/>
    <path class="cls-11" d="M84.38,521.14c.69-.02,1.29,0,1.76,.03"/>
  </g>
  <path class="cls-5" d="M80.51,520.28c-.38,2.18,.89,3.9,1.56,4.8,.71,.97,2.8,3.79,5.95,3.47,2.85-.29,4.3-2.93,4.37-3.07,1.48-2.8-.02-5.6-.26-6.03-.15-.28-1.82-3.26-5.2-3.61-.73-.07-2.83-.16-4.58,1.34-.34,.29-1.54,1.35-1.84,3.11Z"/>
  <path class="cls-32" d="M89.13,523.5c-.09,1.05-.76,2.11-1.68,2.32-1.94,.44-4.74-2.99-4.09-4.62,.42-1.07,2.46-1.66,4.02-.79,.97,.55,1.87,1.72,1.76,3.09Z"/>
  <path class="cls-4" d="M293.68,293.94c-1.86,8.39-4.06,17.17-6.66,26.27-3.29,11.54-6.85,22.32-10.52,32.31-.67,7.07-1.52,14.38-2.59,21.91-1.95,13.71-4.39,26.59-7.12,38.56-1.59,4.72-3.11,10.27-4.21,16.55-.88,5-1.34,9.63-1.56,13.78,10.33,1.4,21.88,3.73,34.22,7.56,4.94,1.53,9.61,3.18,14,4.89,5.32-2.1,11.89-4.24,19.56-5.78,7.74-1.55,14.68-2.12,20.44-2.22l7.11-25.78c.47-4.35,.93-8.71,1.4-13.06,.75-11.87,.91-24.79,.15-38.59-.3-5.35-.72-10.53-1.24-15.54-1.39-11.97-3.46-24.85-6.47-38.43-1.51-6.81-3.14-13.33-4.87-19.57-2.58-4.14-5.15-8.29-7.73-12.43-5.21-3.31-10.42-6.62-15.63-9.92-2.02,.4-4.77,1.09-7.88,2.37-1.77,.73-7.29,3.13-12.97,8.34-2.11,1.94-4.85,4.81-7.44,8.79Z"/>
  <path class="cls-5" d="M327.85,278.18l-14.75,5.74c-4.64,3.75-9.28,7.51-13.93,11.26-1.53,8.58-3.47,17.7-5.93,27.26-2.9,11.26-6.13,21.64-9.48,31.11-.9,9.17-2.15,18.9-3.85,29.11-1.73,10.39-3.75,20.16-5.93,29.26-.87,5.76-1.59,11.95-2.07,18.52-.37,5.03-.57,9.86-.63,14.45-3.42-.52-6.84-1.04-10.26-1.56,.36-4.38,.87-8.98,1.56-13.78,.87-6.08,1.94-11.8,3.11-17.11,2.68-9.29,5.19-19.7,7.19-31.12,1.81-10.3,2.94-19.95,3.62-28.79,3.78-10.3,7.45-21.43,10.81-33.35,2.46-8.72,4.57-17.15,6.36-25.24,2.11-3.28,6.18-8.68,13.06-13.19,5.95-3.89,11.6-5.55,15.22-6.31,1.96,1.24,3.92,2.49,5.88,3.73Z"/>
  <path class="cls-12" d="M357.75,408.92c-4.99,.6-13.33,.93-22.96-2.04-7.05-2.17-12.42-5.36-16-7.91"/>
  <path class="cls-7" d="M314.74,401.99c-4.48-1.53-9.49-2.99-14.98-4.19-5.43-1.19-10.52-1.95-15.16-2.42-.94,10.63-1.88,21.25-2.82,31.88,4.66,.62,9.73,1.53,15.12,2.87,4.86,1.2,9.34,2.58,13.42,4.03,1.48-10.72,2.95-21.44,4.43-32.16Z"/>
  <path class="cls-7" d="M316.63,399.43c.35,2.22,.57,5.23,.11,8.72-.2,1.51-.5,2.88-.82,4.07-6.2,.82-12.4,1.64-18.6,2.46-5.25-2.91-10.5-5.83-15.75-8.74-.32-1.11-1.09-4.31,.07-8.03,.76-2.44,2.01-4.06,2.77-4.9,4.19,1.78,9.35,3.55,15.35,4.79,6.41,1.32,12.15,1.68,16.88,1.63Z"/>
  <path class="cls-5" d="M298.64,405.93c.63,.2,1.38,.79,1.51,1.63,.22,1.45-1.46,3.28-2.84,2.82-1.01-.33-1.84-1.87-1.35-3.19,.44-1.19,1.74-1.56,2.69-1.26Z"/>
  <g>
    <path class="cls-4" d="M428.19,299.34c-1.97,5.75-3.94,11.51-5.91,17.26,1.27,22.55,2.53,45.11,3.8,67.66,4.13,13.01,8.27,26.02,12.4,39.03,4.15,2.37,8.3,4.74,12.44,7.11,9.33-1.63,18.67-3.26,28-4.89,5.93-7.41,11.85-14.81,17.78-22.22l-.44-14.67c-11.56-25.48-23.11-50.96-34.67-76.44-5.86-6.34-11.71-12.69-17.57-19.03"/>
    <path class="cls-11" d="M451.92,419.81c5.29-4.69,10.59-9.39,15.88-14.08,6.89-1.26,13.78-2.52,20.67-3.78"/>
    <path class="cls-12" d="M426.07,384.26c6.06-5.06,12.12-10.13,18.18-15.19,6.81-2.67,13.63-5.33,20.44-8"/>
    <path class="cls-12" d="M461.58,312.18c-5.78-.15-11.56-.3-17.33-.44"/>
  </g>
  <g>
    <path class="cls-4" d="M521.64,299.34c-1.97,5.75-3.94,11.51-5.91,17.26,1.27,22.55,2.53,45.11,3.8,67.66,4.13,13.01,8.27,26.02,12.4,39.03,4.15,2.37,8.3,4.74,12.44,7.11,9.33-1.63,18.67-3.26,28-4.89,5.93-7.41,11.85-14.81,17.78-22.22l-.44-14.67c-11.56-25.48-23.11-50.96-34.67-76.44-5.86-6.34-11.71-12.69-17.57-19.03"/>
    <path class="cls-11" d="M545.38,419.81c5.29-4.69,10.59-9.39,15.88-14.08,6.89-1.26,13.78-2.52,20.67-3.78"/>
    <path class="cls-12" d="M519.53,384.26c6.06-5.06,12.12-10.13,18.18-15.19,6.81-2.67,13.63-5.33,20.44-8"/>
    <path class="cls-12" d="M555.04,312.18c-5.78-.15-11.56-.3-17.33-.44"/>
  </g>
  <path class="cls-7" d="M473.19,180.73c3.58,16.27,7.16,32.54,10.74,48.81,12.64-4.15,25.28-8.3,37.93-12.44,7.41-7.8,14.81-15.6,22.22-23.41-4.25-4.54-8.49-9.09-12.74-13.63-5.83-3.56-11.65-7.11-17.48-10.67-12.84,1.73-25.69,3.45-38.53,5.18-.71,2.05-1.42,4.1-2.14,6.15Z"/>
  <path class="cls-12" d="M521.86,217.1c-1.88-4.84-3.75-9.68-5.63-14.52-1.46-1.21-2.91-2.42-4.37-3.63"/>
  <g>
    <path class="cls-6" d="M481.03,180.66c-2.97,10.51-7.83,23.65-16.01,37.61-5.1,8.7-10.48,15.99-15.5,21.97-.63-.77-1.25-1.55-1.88-2.32,4.36-5.5,8.9-11.98,13.22-19.5,8.39-14.61,13.23-28.42,16.11-39.5,1.35,.58,2.71,1.17,4.06,1.75Z"/>
    <path class="cls-5" d="M481.78,180.98c-.75,4.59-2.64,12.68-7.91,19.35-1.16,1.47-7.44,9.43-11.03,7.08-2.77-1.82-2.67-8.96-1.63-13.53,2.66-11.67,13.7-16.23,14.77-16.65,.54,.37,1.09,.73,1.65,1.1,1.39,.92,2.78,1.8,4.15,2.65Zm-14,7.74c-1.93,3.82-2.48,8.9-1.49,9.51,1.16,.72,4.43-4.67,5.89-7.08,1.57-2.59,4.77-7.87,3.99-9.07-.79-1.21-5.79,1.5-8.38,6.64Z"/>
    <path class="cls-6" d="M473.23,179c-2.52,10.91-4.72,25.23-4.47,42.01,.21,13.67,2,25.54,4.11,35.08,1.09-.28,2.19-.55,3.28-.83-1.21-6.98-2.17-14.57-2.7-22.7-1.3-20.27,.49-38.12,3.17-52.59-1.13-.32-2.26-.64-3.4-.97Z"/>
    <path class="cls-5" d="M477.49,176.96c3.01,.05,4.6,2.62,4.69,2.77,.98,1.07,10.95,12.34,7.07,23.68-1.52,4.44-5.65,10.34-9.91,9.93-5.52-.53-8.01-11.32-8.46-13.32-2.08-9.04,.55-16.94,2.42-21.2,.23-.26,1.76-1.9,4.19-1.87Zm1.6,6.6c-1.61,.45-1.07,6.95-.81,10.13,.25,2.97,.79,9.61,2.56,9.81,1.5,.17,3.88-4.35,3.94-8.79,.08-5.97-4.06-11.6-5.69-11.15Z"/>
  </g>
  <path class="cls-26" d="M276.36,436.8c5.71,1.11,11.98,2.63,18.67,4.74,5.28,1.67,10.13,3.49,14.52,5.33,5.25-1.93,11.4-3.83,18.37-5.33,6.74-1.45,12.94-2.25,18.37-2.67"/>
  <path class="cls-10" d="M249.49,104.45c-1.42,1.85,.05,7.25,1.19,11.41,1.54,5.65,3.94,9.72,5.11,11.56,9.35,14.63,33.29,32,39.48,47.56,3.43,8.63,4,23.19-12.78,48.14,33.7-8.78,57.46-33.63,58.05-57.61,1.15-46.41-84.97-68.97-91.05-61.05Z"/>
  <g>
    <path class="cls-3" d="M257.99,166.98c1.83,8.09,5.81,12.22,3.87,17.72-1.11,3.13-2.9,2.79-3.85,5.63-2.32,6.94,5.94,16.24,11.85,20.74,8.85,6.74,18.42,7.29,21.93,7.45,11.44,.5,20.02-3.81,23.7-5.97,12.44-17.77,13-40,2.07-54.22-16.31-21.22-53.26-18.21-59.32-7.36-2.75,4.93-.66,14.21-.25,16.01Z"/>
    <path class="cls-28" d="M298.12,208.79c.1,4.32-2.13,7.57-3.17,8.89-2.7,.44-7.7,.88-13.57-.82-5.39-1.56-9.14-4.23-11.2-5.94-.11-.59-.19-1.31-.16-2.13,.17-5.59,5.15-14.05,14.05-14.05,8.36,0,13.89,7.46,14.05,14.05Z"/>
    <path class="cls-24" d="M274.34,210.25c-.01-.45-.09-5.85,4.33-9,.58-.41,4.34-2.99,8.78-1.44,4.94,1.72,6.05,6.93,6.11,7.22,.76,3.85-1.14,6.83-1.56,7.44"/>
    <path class="cls-2" d="M257.99,166.98c1.83,8.09,5.81,12.22,3.87,17.72-1.11,3.13-2.9,2.79-3.85,5.63-2.32,6.94,5.94,16.24,11.85,20.74,8.85,6.74,18.42,7.29,21.93,7.45,11.44,.5,20.02-3.81,23.7-5.97,12.44-17.77,13-40,2.07-54.22-16.31-21.22-53.26-18.21-59.32-7.36-2.75,4.93-.66,14.21-.25,16.01Z"/>
    <path class="cls-30" d="M265.48,174.38c-.56,1.6-1.48,4.81-1.21,8.87,.09,1.42,.5,7.55,4.54,11.61,3.15,3.17,7.25,3.83,10.5,2.61,6.83-2.55,9.18-12.8,9.9-15.92,.76-3.3,.9-6.17,.91-8.09-3.01-1.12-7.53-2.3-13.03-1.98-4.86,.28-8.83,1.64-11.61,2.9Z"/>
    <path class="cls-9" d="M270.57,172.55c-.96,1.81-2.06,4.5-2.46,7.96-.23,2.01-.73,8.67,2.73,13.7,.87,1.26,2.39,3.48,4.75,3.81,4.44,.63,7.58-6.01,7.77-6.42,2.68-5.84,.91-12.23,.5-13.7-.85-3.06-2.16-5.19-3.03-6.39-1.45-.05-3.04-.02-4.75,.13-2.02,.18-3.87,.51-5.52,.91Z"/>
    <path class="cls-13" d="M264.27,173.86c-.24-.68,3.3-3.59,5.45-4.96,3.19-2.02,9.81-4.76,21.1,0-.24,1.52-.47,3.04-.71,4.57-3.79-1.36-7-1.81-9.29-1.96-6.05-.38-11.24,1.01-11.81,1.17-2.76,.76-4.58,1.64-4.75,1.17Z"/>
    <path class="cls-17" d="M274.91,182.51c-1.37-1.04-1.64-3.13-.99-4.18,.46-.75,1.41-1.02,2.33-.64,.23-.11,1.7-.83,2.37-.03,.71,.84,.49,3.32-1.14,5.72,1.48-2.36,3.37-2.86,4.11-2.04,.78,.86,.27,3.15,.25,3.27,.29,1.25,.22,2.56-.33,3.2-.79,.93-2.72,.63-4.02-1.6,1.67,2.11,1.93,4.53,1.26,5.4-.65,.86-2.16,.23-2.34,.15-.85,.53-1.79,.62-2.28,.06-.68-.77-.65-2.97,.74-4.68-1.62,1.58-3.4,1.3-3.95,.24-.51-.98,.08-2.53,.14-2.7-.14-.37-.58-1.59-.2-2.38,.48-.98,2.19-1.2,4.02,.22Z"/>
    <path class="cls-27" d="M259.58,199.89c.49-.2,1.26-.45,2.22-.51,.78-.05,2.99-.19,3.8,1,.74,1.09,.25,3.17-1.46,4.78-.78-.47-1.88-1.26-2.92-2.52-.83-1.01-1.34-2-1.65-2.74Z"/>
  </g>
  <path class="cls-15" d="M344.15,182.36c.56,2.32,1.04,5.11,1.19,8.3,.24,5.46-.59,10.04-1.48,13.33,1.2-.69,3.42-2.19,5.22-4.93,1.86-2.82,2.33-5.55,2.48-6.93,.32-3.39,.47-7.39,.19-11.85-.29-4.67-.99-8.78-1.78-12.22-.9,2.92-1.44,5.31-1.78,7-.41,2.06-.64,3.74-1.95,5.42-.72,.92-1.51,1.51-2.08,1.88Z"/>
  <path class="cls-19" d="M339.72,97.09c4.87,2.54,18.5,10.45,26.67,27.26,10.34,21.28,4.37,41.28,2.96,45.63"/>
  <path class="cls-19" d="M350.38,129.68c3.31,7.84,7.17,19.95,7.11,34.96-.02,6.51-.78,12.29-1.78,17.19"/>
  <g>
    <path class="cls-14" d="M318.93,161.04c.93,5.69,1.59,13.79-.25,22.81-4.8,23.63-22.83,34.68-20.31,39.88,1.42,2.91,9.13,.48,18.34-2.25,11.69-3.47,20.65-8.05,26.41-11.41,2.54-1.28,34.57-17.99,38.22-52,3.57-33.27-22.15-63.03-52-70.67-24.98-6.39-55.21,2.09-68.89,22.67-11.84,17.81-9.15,37.11-9.15,37.11,.65,4.67,1.89,8.46,2.94,11.1,2.81-1.2,6.06-2.35,9.72-3.24,2.73-.66,5.28-1.09,7.61-1.34-1.19-10.46-1.18-14.33-.54-14.51,.66-.19,2.16,3.5,5.11,14.23,1.13-.02,2.25-.04,3.38-.07-.16-4.14,.12-5.12,.43-5.2,.32-.08,.96,.78,2.34,5.48,2.27-.15,4.92-.13,7.86,.23,2.4,.3,4.57,.78,6.46,1.33-.2-6.34,.02-9.58,.68-9.71,.69-.14,1.87,3.25,3.54,10.17,3.1,.5,6.54,1.27,10.23,2.42,2.86,.9,5.49,1.91,7.87,2.96Z"/>
    <path class="cls-23" d="M318.93,161.04c-.74-4.83-1.88-10.19-3.63-15.85-.59-1.91-1.21-3.73-1.84-5.46"/>
    <path class="cls-23" d="M261.61,155.67c-.62-2.66-1.16-5.73-1.45-9.14-.78-9.27,.6-17.04,1.97-22.22"/>
    <path class="cls-23" d="M284.5,133.63c.92,4.07,1.76,8.47,2.46,13.19,.35,2.34,.63,4.62,.87,6.83"/>
    <path class="cls-23" d="M304.79,147.71c.43,1.07,.88,2.41,1.23,4,.43,1.98,.57,3.74,.6,5.13"/>
  </g>
  <g>
    <path class="cls-4" d="M249.49,104.45c8.99-11.03,17.5-18.7,23.7-23.7,6.5-5.24,10.66-7.71,15.73-9.24,6.16-1.86,11.9-1.81,18.05-.98,41.07,5.53,64,28.59,64,28.59,11.76,11.82,18.28,24.61,21.95,34.19,9.5,6.15,13.81,16.43,11.12,24.64-1.78,5.46-6.19,8.55-8.29,9.81-4.13,6.57-9.45,13.82-16.28,21.07-17.14,18.21-35.89,28.12-48.82,33.48,2.22,.1,4.9,.43,5.18,1.57,.52,2.1-7.32,5.71-8.96,6.47-18.62,8.58-40.91,6.21-41.38,2.83-.19-1.34,3.14-2.2,3.11-4.59-.03-2.25-3.01-4.12-6.11-5.49,37.95-16.24,61.5-42.69,57.67-62.95-3.07-16.24-23.47-27.03-45.55-38.72-17.99-9.52-34.18-14.38-45.12-16.98Z"/>
    <path class="cls-5" d="M308.94,92.32c-1.43-10.37,5.84-18.68,7.5-20.48,.54-.58,1.16-1.19,1.86-1.81,.58-.51,1.15-.96,1.68-1.35,4.17-2.67,13.17-7.48,23.07-4.75,1.3,.36,2.17,.72,2.39,.82,10.62,4.54,19.84,22.17,13.17,35.91-4.68,9.65-14.67,12.37-15.64,12.62-14.3,3.65-32.05-6.5-34.04-20.95Z"/>
    <path class="cls-32" d="M318.24,88.99c-.94,6.01,3.93,10.93,5.07,12,.39,.37,8.39,7.68,16.8,3.72,5.39-2.54,8.19-8.4,7.94-13.86-.25-5.6-3.7-10.7-8.49-12.78-8.56-3.73-20.04,2.73-21.32,10.92Z"/>
    <g>
      <path class="cls-22" d="M316.25,80.35c.28-.52,.57-1.03,.89-1.52"/>
      <path class="cls-21" d="M320.37,74.9c6.58-6.27,16.74-7.82,24.72-3.3,9.04,5.13,12.77,16.61,8.8,26.28"/>
      <path class="cls-22" d="M352.78,100.18c-.28,.51-.59,1.01-.92,1.5"/>
    </g>
    <path class="cls-31" d="M322.02,87.81c-.64-4.1,3.03-6.72,3.44-7.01,.4-.28,3.81-2.55,7.09-.97,3.1,1.49,4.51,5.65,3.2,9.04-1.22,3.17-4.67,5.26-8.1,4.61-2.71-.52-5.18-2.7-5.64-5.67Z"/>
    <path class="cls-26" d="M259.42,98.08c19.66,5.15,35.05,11.88,45.78,17.33,23.71,12.04,39.7,20.16,44.44,36.89,4.03,14.21-2.03,27.64-4,32-5.53,12.25-14.31,19.15-24.44,27.11-9.93,7.8-19.19,12.69-25.53,15.62"/>
    <path class="cls-26" d="M390.58,169.41c-1.36,.61-2.85,1.21-4.46,1.78-1.98,.69-3.86,1.23-5.58,1.64"/>
    <path class="cls-25" d="M273.62,86.35c-.89,.63-2,1.54-2.96,2.77-1.38,1.76-1.88,3.41-2.07,4.48"/>
    <path class="cls-25" d="M286.65,85.47c-.92,1.1-2.01,2.68-2.67,4.69-.39,1.2-.55,2.29-.59,3.2"/>
  </g>
</svg>