<?xml version="1.0" encoding="UTF-8"?>
<svg id="CharacterBack" xmlns="http://www.w3.org/2000/svg" viewBox="0 0 640 640">
  <defs>
    <style>
      .cls-1 {
        stroke-dasharray: 0 0 3.52 5.28;
      }

      .cls-1, .cls-2, .cls-3, .cls-4, .cls-5, .cls-6, .cls-7, .cls-8, .cls-9, .cls-10, .cls-11, .cls-12, .cls-13, .cls-14, .cls-15, .cls-16, .cls-17, .cls-18, .cls-19, .cls-20, .cls-21, .cls-22, .cls-23, .cls-24, .cls-25 {
        stroke-linecap: round;
        stroke-linejoin: round;
      }

      .cls-1, .cls-2, .cls-3, .cls-4, .cls-5, .cls-6, .cls-9, .cls-26, .cls-10, .cls-11, .cls-12, .cls-14, .cls-15, .cls-16, .cls-17, .cls-18, .cls-20, .cls-21, .cls-22, .cls-24, .cls-25 {
        stroke-width: 2.5px;
      }

      .cls-1, .cls-2, .cls-4, .cls-5, .cls-6, .cls-7, .cls-8, .cls-9, .cls-10, .cls-11, .cls-12, .cls-13, .cls-14, .cls-15, .cls-16, .cls-17, .cls-18, .cls-19, .cls-20, .cls-21, .cls-22, .cls-23 {
        fill: none;
      }

      .cls-1, .cls-2, .cls-4, .cls-5, .cls-6, .cls-9, .cls-12, .cls-14, .cls-15, .cls-16, .cls-17, .cls-18, .cls-20, .cls-21, .cls-22 {
        stroke: #5b4121;
      }

      .cls-3 {
        fill: #7a542b;
      }

      .cls-3, .cls-27, .cls-26, .cls-10, .cls-11, .cls-24, .cls-25 {
        stroke: #000;
      }

      .cls-27 {
        fill: #ffedd7;
      }

      .cls-27, .cls-7, .cls-8, .cls-13, .cls-19, .cls-23 {
        stroke-width: 2px;
      }

      .cls-27, .cls-26 {
        stroke-miterlimit: 10;
      }

      .cls-4 {
        stroke-dasharray: 0 0 2.97 4.46;
      }

      .cls-5 {
        stroke-dasharray: 0 0 4.22 6.33;
      }

      .cls-6 {
        stroke-dasharray: 0 0 3.78 5.68;
      }

      .cls-7, .cls-11, .cls-18 {
        stroke-dasharray: 0 0 3.52 5.29;
      }

      .cls-7, .cls-19, .cls-23 {
        stroke: #ffedd7;
      }

      .cls-8, .cls-13 {
        stroke: #bc695c;
      }

      .cls-9 {
        stroke-dasharray: 0 0 3.81 5.72;
      }

      .cls-26 {
        fill: #f5e3d9;
      }

      .cls-28, .cls-24 {
        fill: #eac492;
      }

      .cls-12 {
        stroke-dasharray: 0 0 4.32 6.48;
      }

      .cls-13 {
        stroke-dasharray: 0 0 2.4 3.2;
      }

      .cls-14 {
        stroke-dasharray: 0 0 3.34 5.01;
      }

      .cls-15 {
        stroke-dasharray: 0 0 3.39 5.08;
      }

      .cls-16 {
        stroke-dasharray: 0 0 3.22 4.84;
      }

      .cls-17 {
        stroke-dasharray: 0 0 3.65 5.47;
      }

      .cls-19 {
        stroke-dasharray: 0 0 3.37 5.05;
      }

      .cls-20 {
        stroke-dasharray: 0 0 3.21 4.82;
      }

      .cls-21 {
        stroke-dasharray: 0 0 3.77 5.65;
      }

      .cls-22 {
        stroke-dasharray: 0 0 2.17 3.26;
      }

      .cls-25 {
        fill: #cea678;
      }
    </style>
  </defs>
  <path class="cls-3" d="M258.3,590.79c-.12-1.34-.17-3.32,.24-5.64,.27-1.53,2.91-15.46,14.32-17.62,8.1-1.53,16.02,3.75,19.09,10.3,1.41,3,1.6,5.86,1.55,7.73,2.68,3.72,5.36,7.44,8.04,11.15,.13,.28,.27,.63,.37,1.05,.09,.39,.13,.75,.14,1.04-.18,1.84-.36,3.68-.54,5.52-1.8,1.66-6.39,5.41-13.32,6.38-10.85,1.53-18.72-4.95-20.01-6.05-3.29-4.62-6.58-9.25-9.87-13.87Z"/>
  <path class="cls-3" d="M319.26,595.07c.2,1.9,.98,6.83,4.87,11.26,5.15,5.86,12.06,6.67,14.3,6.77,7.41,.31,14.41-2.36,16.58-6.41,1.47-3.76,2.95-7.53,4.42-11.29,.82-2.33,2.19-7.33,.58-13.06-2.4-8.52-10.67-16.05-21.04-16-10.47,.05-19.11,7.83-21,16.75-1.12,5.28,.37,9.8,1.28,11.99Z"/>
  <path class="cls-7" d="M354.68,591.81c-.07,1.07-.58,7.41-5.93,11.56-.94,.73-4.33,3.28-9.19,3.11-5.85-.2-9.45-4.17-10.37-5.19-3.36-3.71-3.99-7.91-4.15-9.48"/>
  <path class="cls-10" d="M356.31,588.11c-2.86-6.34-9.01-10.54-15.85-10.81-7.35-.3-14.24,3.99-17.33,10.81"/>
  <g>
    <path class="cls-23" d="M297.13,598.25c-.34,.31-.79,.71-1.35,1.13"/>
    <path class="cls-19" d="M291.35,601.79c-.82,.29-1.71,.53-2.67,.69-5.83,.96-10.38-1.75-12.67-3.11-2.13-1.27-3.82-2.74-5.15-4.17"/>
    <path class="cls-23" d="M269.24,593.25c-.38-.51-.72-.99-1.01-1.44"/>
  </g>
  <path class="cls-10" d="M263.84,589.73c.4-1.36,1.05-3.21,2.18-5.25,1.05-1.9,4.79-8.7,10.3-10.03,5.65-1.36,12.96,3.08,17.18,11.11"/>
  <g>
    <path class="cls-10" d="M338.98,569.48v1.76"/>
    <path class="cls-10" d="M338.98,575.83v1.76"/>
  </g>
  <path class="cls-26" d="M354.75,500.45c.5,3.06-1.14,5.04-3.33,14.1-.19,.77-.55,2.31-.88,4.34-.26,1.6-.44,3.12-.55,4.53,.27,8.42,.41,17.09,.39,25.97-.03,14.18-.46,27.8-1.2,40.83,.41,.97,.85,2.44,.62,4.15-.6,4.36-5.38,8.44-10.37,7.81-4.09-.52-6.73-4.01-7.7-6.81-.61-1.77-.61-3.36-.51-4.39-2.37-18.33-3.5-26.44-4.06-30.1-.09-.57-.39-2.53-.73-5.17-.33-2.64-.61-5.35-.89-8.65-.49-5.73-.58-14.1,1.56-24.68,0-1.1,0-2.75,.06-4.76,.26-8.1,.85-12,1.77-15.54,1.86-7.15,8.3-11.73,14.67-11.08,5.51,.56,10.43,4.97,11.16,9.46Z"/>
  <path class="cls-26" d="M305.96,502.57c-.46,2.77-1.33,6.83-3.08,11.52-1.45,3.87-2.71,6.07-3.72,8.22-3.05,6.49-3.51,11.95-4.31,18.79-1.08,9.19-2.73,20.55-5.07,35.27,.25,3.27,.5,6.54,.76,9.81,.47,1.31,1.9,5.68-.15,8-3.18,3.6-12.11-.68-13.48-1.33-5.48-2.62-8.73-6.71-10.37-9.19,.41-.84,.92-1.76,1.55-2.7,1.33-1.98,2.79-3.45,4.03-4.5-.05-12.09,.06-21.93,.09-28.96,.02-3.88,.06-9.99,1.72-17.95,.11-.51,.21-.96,.3-1.36,1.89-8,4.81-14.2,7.04-18.25,.48-.82,.96-1.78,1.38-2.88,.91-2.36,1.21-4.51,1.3-6.14,1.87-4.66,6.56-7.59,11.55-7.24,5.04,.35,9.3,3.98,10.46,8.91Z"/>
  <g>
    <path class="cls-8" d="M343.27,525.14c-.17-.16-.52-.48-1.03-.82"/>
    <path class="cls-13" d="M339.29,523.15c-.24-.04-.5-.07-.76-.08-1.23-.07-2.3,.17-3.17,.52"/>
    <path class="cls-8" d="M333.94,524.33c-.55,.36-.91,.69-1.04,.81"/>
  </g>
  <g>
    <path class="cls-8" d="M294.1,520.82c-.11-.21-.33-.63-.7-1.12"/>
    <path class="cls-13" d="M291.01,517.61c-.22-.12-.44-.23-.69-.33-1.14-.48-2.23-.61-3.16-.57"/>
    <path class="cls-8" d="M285.58,516.93c-.64,.16-1.09,.34-1.25,.42"/>
  </g>
  <path class="cls-27" d="M328.31,573.31c.51,1.94-1.1,4.17-1.56,4.8-1.27,1.75-3.78,3.81-5.95,3.47-2.92-.46-5.69-5.32-4.76-11.96,6.57-1.05,11.54,.94,12.27,3.69Z"/>
  <path class="cls-27" d="M350.41,573.31c-.53,1.92,1.08,4.14,1.56,4.8,1.26,1.73,3.79,3.86,5.95,3.47,2.8-.51,5.35-5.28,4.34-11.74-6.31-1.08-11.11,.81-11.85,3.47Z"/>
  <path class="cls-27" d="M270.95,571.17c.31,2.22-.75,3.97-1.3,4.89-.29,.48-2.46,3.64-4.98,3.53-2.63-.12-5.5-3.81-5.48-9.22,4.08-3.34,8.52-3.93,10.41-2.18,1.06,.98,1.33,2.71,1.37,2.98Z"/>
  <path class="cls-27" d="M286.71,568.93c0,2.2,1.2,3.77,1.83,4.6,.89,1.17,3.31,3.37,5.03,2.83,1.93-.61,2.97-4.69,1.96-10.15-1.57-.48-6.78-1.97-7.81-.55-.04,.06-1,.04-1.01,3.27Z"/>
  <g>
    <path class="cls-24" d="M337.21,463.67c9.9-.74,19.59,7.74,19.97,19.26,.61,3.13,1.12,7.38,.78,12.39-.38,5.48-1.64,9.96-2.79,13.11,.45,5,.6,11.03-.04,17.83-.54,5.7-1.53,10.74-2.63,15,1.11,1.37,2.52,3.43,3.58,6.17,1.48,3.85,1.6,7.27,1.5,9.32,.53,.42,2.94,2.4,3.35,5.8,.38,3.16-1.12,6.33-3.86,8.28,3.15,.35,5.36,3.11,5.08,5.9-.23,2.34-2.17,4.36-4.74,4.76,5.33,2.7,8.16,6.97,7.34,10.21-.77,3.04-4.56,4.44-5.35,4.73-5.84,2.15-9.6-1.81-17.57-1.78-2.5,0-6.2,.41-10.72,2.44-3.27,2.67-7.37,3.47-10.7,2.04-.62-.27-3.33-1.54-4.61-4.6-1.2-2.88-.35-5.5,.06-6.77,1.15-3.54,3.69-5.51,4.73-6.23-2.27-.27-4.08-2-4.43-4.16-.38-2.38,1.09-4.79,3.49-5.57-2.51-1.72-3.86-4.63-3.46-7.49,.47-3.33,3.09-5.09,3.51-5.36-.13-2.24-.06-5.47,.88-9.18,1-3.97,2.62-6.99,3.87-8.94-.79-5.46-1.32-11.75-1.23-18.7,.05-3.86,.29-7.47,.64-10.83-1.34-3.31-2.71-7.56-3.52-12.59-1.2-7.48-.72-13.88,0-18.38,1.39-9.19,8.67-16.04,16.86-16.65Z"/>
    <g>
      <path class="cls-2" d="M346.59,582.95c-.54,.13-1.11,.27-1.72,.39"/>
      <path class="cls-14" d="M339.92,584.12c-1.57,.16-3.25,.27-5.04,.27-3.42,0-6.48-.35-9.1-.84"/>
      <path class="cls-2" d="M323.33,583.02c-.6-.14-1.17-.29-1.7-.44"/>
    </g>
    <g>
      <path class="cls-2" d="M357.57,570.45c-.53,.18-1.09,.35-1.68,.52"/>
      <path class="cls-4" d="M351.57,572.06c-1.46,.31-3.02,.57-4.68,.77-2.87,.35-5.51,.45-7.88,.4"/>
      <path class="cls-2" d="M336.78,573.15c-.61-.04-1.2-.08-1.76-.13"/>
    </g>
    <g>
      <path class="cls-2" d="M338.29,559.44c-.56,.07-1.15,.14-1.75,.2"/>
      <path class="cls-17" d="M331.09,559.94c-.74,0-1.49,0-2.26-.02-1.44-.04-2.81-.13-4.11-.26"/>
      <path class="cls-2" d="M321.99,559.32c-.6-.09-1.18-.18-1.74-.28"/>
    </g>
    <g>
      <path class="cls-2" d="M352.49,541.27c-.42-.29-.92-.61-1.49-.94"/>
      <path class="cls-6" d="M345.81,538.07c-.49-.15-.99-.28-1.52-.4-1.82-.42-3.51-.59-5.01-.62"/>
      <path class="cls-2" d="M336.44,537.17c-.66,.07-1.25,.15-1.74,.24"/>
    </g>
  </g>
  <g>
    <path class="cls-24" d="M313.51,478.5c.64,4.03,1.14,10.33-.34,17.81-1.37,6.92-3.92,12.23-5.9,15.63-.6,4.14-1.62,9.02-3.39,14.34-1.44,4.34-3.1,8.12-4.72,11.32,.64,1.05,3.22,5.61,1.83,11.12-.66,2.61-1.97,4.48-2.89,5.56,.52,.46,2.68,2.51,2.89,5.77,.2,3.17-1.53,6.26-4.44,8,.36,.1,3.25,.95,4.22,3.55,1.02,2.72-.44,6.29-3.78,8,4.09,.99,6.35,5.31,5.05,8.98-1.26,3.55-5.52,5.49-9.27,3.91-2.56-.83-5.87-1.61-9.78-1.78-8.34-.37-14.87,2.21-18.37,3.93-3.01-.6-5.4-2.81-6.07-5.63-.82-3.41,1-7.12,4.44-8.74-.39-.33-2.63-2.28-2.67-5.33-.04-3.08,2.19-6.02,5.56-7.11-.37-.38-3.25-3.45-2.67-8,.59-4.59,4.22-6.85,4.67-7.11-.33-1.76-.64-4.6,0-8,.7-3.73,2.23-6.46,3.26-8-.1-4.05,.18-9.43,1.63-15.55,1.64-6.93,4.22-12.39,6.38-16.17,0-3.11,.33-7.5,1.84-12.5,1.63-5.37,4.01-9.43,5.85-12.08,1.32-10.91,10.77-16.94,17.48-15.11,4.78,1.3,8.56,6.69,9.19,13.19Z"/>
    <g>
      <path class="cls-2" d="M293.22,580c-.54,.16-1.11,.31-1.7,.45"/>
      <path class="cls-5" d="M285.28,581.57c-2.67,.3-5.15,.36-7.38,.27"/>
      <path class="cls-2" d="M274.74,581.61c-.61-.06-1.19-.14-1.75-.22"/>
    </g>
    <g>
      <path class="cls-2" d="M278.99,569.17c-.5,.12-1.08,.23-1.73,.33"/>
      <path class="cls-22" d="M274.01,569.7c-.47,0-.96-.04-1.46-.08-.83-.08-1.6-.2-2.31-.35"/>
      <path class="cls-2" d="M268.66,568.86c-.62-.19-1.18-.39-1.66-.58"/>
    </g>
    <g>
      <path class="cls-2" d="M298.1,554.28c-.51,.17-1.07,.35-1.68,.52"/>
      <path class="cls-20" d="M291.72,555.85c-2.25,.35-4.81,.55-7.62,.43-2.19-.09-4.19-.37-5.96-.73"/>
      <path class="cls-2" d="M275.79,555c-.6-.16-1.16-.33-1.69-.5"/>
    </g>
    <g>
      <path class="cls-2" d="M271.14,536.72c.44-.31,.93-.64,1.47-.96"/>
      <path class="cls-12" d="M278.55,533.21c2.76-.75,5.33-.9,7.5-.78"/>
      <path class="cls-2" d="M289.27,532.8c.66,.12,1.24,.25,1.72,.37"/>
    </g>
  </g>
  <g>
    <path class="cls-24" d="M434.7,305.58c-2.24,4.28-4.65,10.1-5.91,17.26-2.92,16.52,2.02,29.97,4.7,36.01-1.25,2.52-2.42,5.67-2.96,9.38-2.08,14.03,6.28,25.09,8.59,27.96-2,2.48-2.45,5.88-1.16,8.77,1.24,2.76,3.89,4.65,6.93,4.94-2.43,2.52-3.44,5.99-2.44,8.89,1.42,4.13,6.8,6.8,12.21,4.99-1.19,1.99-1.25,4.43-.12,6.34,1.34,2.27,3.73,2.78,4.12,2.86,2.19,.14,4.38,.28,6.56,.42,.21,.56,.83,1.96,2.34,3.05,1.5,1.09,3.03,1.24,3.62,1.27,3.09-.6,5.6-1.43,7.44-2.15,2.44-.96,7.02-2.81,11.45-6.95,.63-.59,1.13-1.1,1.47-1.47,.08-1.23,.07-2.77-.2-4.5-.2-1.34-.51-2.52-.84-3.5,.16-.07,3.52-1.64,3.95-5.33,.39-3.37-2-5.58-2.22-5.78,.88-.48,4-2.29,5.1-5.92,1.31-4.32-.79-9.46-5.33-12.44,.46-.58,3.53-4.61,2.41-9.66-1.06-4.76-5.42-8.45-10.84-9.01,.27-4.33,.27-14-5.33-24.07-3.34-6.01-7.49-10.03-10.44-12.44-3.58-9.08-7.47-16.64-10.94-22.58-4.84-8.31-9.42-14.51-12.09-17.95-2.27-2.93-4.3-5.34-5.88-7.15-.92-1.19-1.84-2.38-2.77-3.57"/>
    <path class="cls-18" d="M454.65,423.77c2.6-2.67,6.98-6.53,13.36-9.51,5.62-2.63,10.72-3.61,14.22-4"/>
    <path class="cls-18" d="M490.5,419.15c-2.44,.16-5.61,.61-9.16,1.78-4.41,1.46-7.75,3.49-10,5.11"/>
    <path class="cls-18" d="M474.44,385.22c2.31-.28,6.28-.44,10.81,1.04,2.93,.96,5.18,2.3,6.74,3.41"/>
    <path class="cls-18" d="M446,408.78c1.15-1.5,3.08-3.66,6-5.56,2.74-1.78,5.33-2.66,7.11-3.11"/>
    <path class="cls-18" d="M439.12,396.18c1.4-3.44,3.97-8.38,8.66-12.96,10.17-9.95,22.87-10.95,26.67-11.11"/>
    <path class="cls-18" d="M433.49,358.85c1.26-2.47,3.3-5.75,6.51-8.96,2.02-2.02,4.04-3.54,5.78-4.67"/>
    <path class="cls-18" d="M467.79,334.48c-2.35-1.2-6.64-2.98-12.23-3.03-3.37-.03-6.18,.57-8.2,1.19"/>
  </g>
  <g>
    <path class="cls-24" d="M129.77,330.39c-.24-.61-2.88-7.75,1.23-13.11,1.37-1.78,3.05-2.8,4.3-3.38-1.39-1.89-1.81-4.26-.93-6.04,1.31-2.62,5.43-3.91,9.1-1.84,.09-.33,.39-1.34,1.39-2.1,1.17-.9,2.46-.81,2.75-.79,.54,.02,1.36,.1,2.27,.43,1.94,.71,2.9,2.04,4.27,3.52,2.99,3.23,4.31,3.28,4.61,4.22,.7,2.15-4.45,7.08-28.99,19.08Z"/>
    <path class="cls-24" d="M200.27,283.2c-3.94,.91-8.89,2.46-14.19,5.23-8.59,4.49-14.37,10.19-17.8,14.21-1.94,.42-4.65,1.09-7.82,2.17-5.74,1.95-10.08,3.43-13.89,6.84-1.85,1.65-5.49,5.49-7.33,12.62-2.15,.85-10.78,4.55-14.93,13.94-1.99,4.51-2.22,8.67-2.13,11.26-.29,.09-2.67,.85-3.52,3.17-.79,2.16,.07,4.78,2.19,6.31,1.26,1.13,2.53,2.26,3.79,3.39,1.6,2.84,4.96,7.67,10.89,10.22,9.86,4.23,22.78,.42,31.86-9.84,1.26-.43,3.54-1.41,5.45-3.63,3.85-4.47,2.92-10.15,2.77-11.01,1.81-1.31,5.13-4.09,7.55-8.79,2.67-5.2,2.81-9.99,2.74-12.26,.86-.16,3.42-.75,5.39-3.04,3.03-3.51,2.08-7.97,1.96-8.47"/>
    <path class="cls-18" d="M139.24,324.27c2.02-.81,4.68-1.65,7.86-2.1,2.37-.34,4.5-.39,6.28-.31"/>
    <path class="cls-18" d="M122.17,349.47c1.78-1.97,5.92-5.98,12.57-7.99,4.71-1.42,8.79-1.26,11.25-.97"/>
    <path class="cls-18" d="M124.64,362.33c.92-1.27,2.66-3.34,5.51-4.98,3.41-1.97,6.63-2.3,8.25-2.36"/>
    <path class="cls-18" d="M185.89,327.01c.11-.62,.9-5.38-2.52-9.37-3.3-3.85-7.9-3.92-8.56-3.92"/>
    <g>
      <path class="cls-2" d="M135.31,313.9c.48,.02,1.07,.08,1.74,.24"/>
      <path class="cls-2" d="M137.9,314.4c.65,.23,1.19,.51,1.59,.75"/>
    </g>
  </g>
  <g>
    <path class="cls-28" d="M366.63,292.85c-1-3.12-2.9-7.75-6.53-12.54-1.36-1.79-4.6-5.74-9.92-9.4-2.65-1.82-8.62-5.93-16.18-6.79-4.58-.52-8.92,.26-21.76,6.12-6.62,3.03-15.5,7.41-25.74,13.45-1.9,1.69-5.83,5.66-7.86,12.11-1.61,5.11-1.33,9.51-.99,11.95-5.32,16.41-9.83,34.82-12.57,55.08-.56,4.17-1.03,8.27-1.41,12.29-.89,.8-2.71,2.67-3.48,5.64-1.4,5.41,1.92,9.8,2.36,10.37-.47,.54-2.66,3.14-2.36,6.81,.28,3.51,2.71,6.62,6.22,8-2.38,1.54-3.26,4.61-2.07,7.11,1.13,2.4,3.88,3.68,6.51,3,.16,3.13,.32,6.26,.47,9.39,4.77-1.63,11.87-3.4,20.36-2.9,7.62,.45,10.34,2.38,18.7,4.69,20.4,5.64,37.97,3.52,43.98,2.74,7.26-.95,13.54-2.54,18.66-4.18-.16-3.73-.32-7.47-.48-11.2,.76-.86,2.24-2.8,2.68-5.66,.77-4.96-2.23-8.62-2.73-9.22,.52-.61,3.68-4.42,2.96-9.78-.55-4.13-3.06-6.67-3.85-7.41,.4-1.77,.84-4.67,.28-8.18-.49-3.07-1.54-5.43-2.36-6.93-1.87-15.24-2.86-28.03-3.41-37.8-.08-1.41-.58-3.88-.36-7.24,.43-6.7,2.77-9.57,3.63-14.25,.62-3.39,.6-8.45-2.73-15.3Z"/>
    <path class="cls-24" d="M277.64,307.77c-5.46,16.85-9.89,35.24-12.57,55.08-.56,4.15-1.03,8.25-1.41,12.29-.89,.8-2.71,2.67-3.48,5.64-1.4,5.41,1.92,9.8,2.36,10.37-.47,.54-2.66,3.14-2.36,6.81,.28,3.51,2.71,6.62,6.22,8-2.38,1.54-3.26,4.61-2.07,7.11,1.13,2.4,3.88,3.68,6.51,3,.16,3.13,.32,6.26,.47,9.39,4.77-1.63,11.87-3.4,20.36-2.9,7.62,.45,10.24,2.78,18.7,4.69,23.33,5.26,40.56,3.19,43.98,2.74,7.26-.95,13.54-2.54,18.66-4.18-.16-3.73-.32-7.47-.48-11.2,.76-.86,2.24-2.8,2.68-5.66,.77-4.96-2.23-8.62-2.73-9.22,.52-.61,3.68-4.42,2.96-9.78-.55-4.13-3.06-6.67-3.85-7.41,.4-1.77,.84-4.67,.28-8.18-.49-3.07-1.54-5.43-2.36-6.93-1.47-11.85-2.66-24.47-3.41-37.8-.14-2.43-.26-4.85-.36-7.24"/>
    <path class="cls-24" d="M362.03,282.66c-.46-.58-1.11-1.4-1.93-2.35-.76-.88-5.08-6.07-9.92-9.4-2.65-1.82-8.62-5.93-16.18-6.79-4.58-.52-8.92,.26-21.76,6.12-6.62,3.03-15.5,7.41-25.74,13.45"/>
    <path class="cls-10" d="M309.2,416.55c3.78,.94,8.82,2,14.82,2.73,7.86,.96,13.54,.88,20.81,.79,12.19-.16,16.22-1.19,17.94-1.68,4.21-1.19,7.52-2.78,9.76-4"/>
    <path class="cls-10" d="M309.2,416.55c-5.42-1.94-15.9-5.29-22.2-4.06-.36,.07-4.07,.81-8.89,2-.57,.14-2.15,.64-4.35,1.09-1.24,.25-2.27,.41-2.93,.5"/>
    <path class="cls-11" d="M368.01,421.64c-6.6,1.56-14.62,2.91-23.78,3.33-11.58,.53-21.6-.57-29.45-2.02-1.15-.21-4.84-1.57-10.09-2.98-7.91-2.13-10.8-2.42-12.73-2.52-.96-.05-4.44-.2-8.93,.44-4.05,.58-5.3,1.3-7.86,1.9-1.31,.31-2.39,.46-3.06,.54"/>
    <path class="cls-25" d="M293.97,281.15c0,.93,.29,1.63,.43,1.91,3.25,6.71,25.14,6.46,26.28,6.44,18.66-.33,31.65-4.75,33.99-9.65,1.18-2.46,.8-4.66,.8-4.66-.09-.5-.51-2.59-3.14-4.87-10.26-8.89-23.33-8.52-23.33-8.52-5.71,.16-11.78,3.22-23.93,9.33-6.08,3.06-11.14,6.13-11.1,10.01Z"/>
    <g>
      <path class="cls-2" d="M267.89,405.66c.55-.25,1.09-.48,1.62-.7"/>
      <path class="cls-9" d="M274.92,403.14c3.48-.93,6.42-1.24,8.67-1.33,9.34-.36,14.48,2.83,30.76,5.34,1.7,.26,3.26,.48,4.66,.65"/>
      <path class="cls-2" d="M321.84,408.15c.66,.07,1.24,.13,1.75,.18"/>
    </g>
    <g>
      <path class="cls-2" d="M371.59,382.55c-.55,.17-1.12,.34-1.69,.5"/>
      <path class="cls-15" d="M364.99,384.33c-3.01,.7-6.25,1.32-9.69,1.78-11.58,1.55-21.79,.87-29.84-.42"/>
      <path class="cls-2" d="M322.95,385.26c-.59-.11-1.16-.22-1.73-.33"/>
    </g>
    <g>
      <path class="cls-2" d="M265.81,374.85c.53-.19,1.09-.38,1.66-.57"/>
      <path class="cls-21" d="M272.91,372.74c1.85-.44,3.83-.84,5.94-1.15,3.62-.54,6.96-.73,9.93-.74"/>
      <path class="cls-2" d="M291.61,370.9c.61,.02,1.19,.06,1.76,.09"/>
    </g>
    <g>
      <path class="cls-2" d="M262.55,391.15c.52-.21,1.07-.42,1.64-.63"/>
      <path class="cls-16" d="M268.83,389.13c.08-.02,.16-.04,.25-.06,1.88-.44,3.66-.73,5.31-.92"/>
      <path class="cls-2" d="M276.8,387.95c.61-.03,1.2-.06,1.76-.07"/>
    </g>
  </g>
  <path class="cls-24" d="M278.82,218.67c-11.07-3.8-19.99-7.76-26.45-10.9-8.5-4.13-11.97-6.32-15.39-9.72-1.92-1.91-8.16-8.25-10.41-17.51-.87-3.6-1.09-7.44-1.12-7.93-.21-3.83,.12-6.76,.34-8.64,2.18-18.39,3.8-25.39,3.81-25.43h0c1.41-5.4,25.62-78.39,86.69-82.57,57.94-3.97,89.16,54.35,92.36,60.54,14.52,28.13,11.52,55.15,7.94,63.02-4.97,10.94-13.07,17.79-13.07,17.79-1.87,1.6-6.06,4.93-20.68,10.54-17.32,6.64-9.8,3.57-25.1,8.01-11.84,3.43-17.76,5.15-20.99,5.73-12.52,2.24-22.49,1.68-30.52,1.19-7.17-.44-16.56-1.51-27.39-4.1Z"/>
  <path class="cls-24" d="M272.14,87.36c-5.79-2.69-14.59-6.02-25.78-7.41-8.44-1.05-12.76-1.52-16,1.19-8.59,7.18-.28,28.9,.59,31.11,2.81,7.15,6.61,12.35,9.35,15.58"/>
  <path class="cls-24" d="M378.64,83.61c5.16-2.39,12.99-5.36,22.95-6.6,7.52-.93,11.36-1.36,14.25,1.06,7.65,6.39,.25,25.74-.53,27.7-2.5,6.37-5.89,10.99-8.32,13.87"/>
  <g>
    <path class="cls-2" d="M326.01,218.02c.18-.56,.36-1.12,.54-1.68"/>
    <path class="cls-1" d="M328.09,211.29c5.42-18.51,7.63-34.41,8.59-46.01,1.46-17.66,3.62-47.55-8.89-81.78-3.55-9.72-7.52-17.7-10.83-23.62"/>
    <path class="cls-2" d="M315.65,57.59c-.31-.53-.6-1.03-.89-1.52"/>
  </g>
</svg>