<?xml version="1.0" encoding="UTF-8"?>
<svg id="CharacterFront" xmlns="http://www.w3.org/2000/svg" viewBox="0 0 640 640">
  <defs>
    <style>
      .cls-1 {
        stroke-dasharray: 0 0 3.03 4.54;
      }

      .cls-1, .cls-2, .cls-3, .cls-4, .cls-5, .cls-6, .cls-7, .cls-8, .cls-9, .cls-10, .cls-11, .cls-12, .cls-13, .cls-14, .cls-15, .cls-16, .cls-17, .cls-18, .cls-19, .cls-20, .cls-21, .cls-22, .cls-23, .cls-24, .cls-25, .cls-26, .cls-27, .cls-28, .cls-29, .cls-30, .cls-31, .cls-32, .cls-33, .cls-34, .cls-35, .cls-36, .cls-37, .cls-38, .cls-39, .cls-40, .cls-41, .cls-42, .cls-43, .cls-44 {
        stroke-linecap: round;
        stroke-linejoin: round;
      }

      .cls-1, .cls-2, .cls-4, .cls-45, .cls-5, .cls-6, .cls-7, .cls-8, .cls-9, .cls-10, .cls-13, .cls-14, .cls-15, .cls-16, .cls-17, .cls-18, .cls-20, .cls-21, .cls-22, .cls-23, .cls-24, .cls-25, .cls-26, .cls-31, .cls-32, .cls-33, .cls-34, .cls-36, .cls-37, .cls-38, .cls-39, .cls-40, .cls-41, .cls-44 {
        fill: none;
      }

      .cls-1, .cls-46, .cls-8, .cls-14, .cls-16, .cls-47, .cls-27, .cls-30, .cls-32, .cls-41 {
        stroke-width: 2px;
      }

      .cls-1, .cls-14, .cls-16, .cls-47 {
        stroke: #bc695c;
      }

      .cls-2, .cls-3, .cls-4, .cls-5, .cls-6, .cls-7, .cls-9, .cls-10, .cls-11, .cls-13, .cls-15, .cls-17, .cls-48, .cls-18, .cls-20, .cls-21, .cls-22, .cls-23, .cls-24, .cls-25, .cls-26, .cls-28, .cls-29, .cls-31, .cls-33, .cls-34, .cls-35, .cls-36, .cls-37, .cls-38, .cls-39, .cls-42, .cls-43, .cls-44 {
        stroke-width: 2.5px;
      }

      .cls-2, .cls-6, .cls-7, .cls-10, .cls-13, .cls-15, .cls-22, .cls-25, .cls-26, .cls-31, .cls-33, .cls-34, .cls-36, .cls-38, .cls-39 {
        stroke: #5b4121;
      }

      .cls-3 {
        fill: #7a542b;
      }

      .cls-3, .cls-45, .cls-46, .cls-49, .cls-11, .cls-12, .cls-48, .cls-19, .cls-20, .cls-21, .cls-27, .cls-28, .cls-29, .cls-30, .cls-35, .cls-40, .cls-42, .cls-43 {
        stroke: #000;
      }

      .cls-4 {
        stroke-dasharray: 0 0 3.78 5.66;
      }

      .cls-4, .cls-5, .cls-9, .cls-17, .cls-18, .cls-23, .cls-24, .cls-37, .cls-44 {
        stroke: #6b6b6b;
      }

      .cls-45, .cls-46, .cls-49, .cls-48, .cls-47 {
        stroke-miterlimit: 10;
      }

      .cls-45, .cls-49, .cls-40 {
        stroke-width: 2.64px;
      }

      .cls-46, .cls-19, .cls-50 {
        fill: #ffedd7;
      }

      .cls-5 {
        stroke-dasharray: 0 0 2.74 4.11;
      }

      .cls-6 {
        stroke-dasharray: 0 0 2.97 4.46;
      }

      .cls-49, .cls-48 {
        fill: #f5e3d9;
      }

      .cls-7 {
        stroke-dasharray: 0 0 3.52 5.28;
      }

      .cls-8 {
        stroke-dasharray: 0 0 3.25 4.88;
      }

      .cls-8, .cls-32, .cls-41 {
        stroke: #ffedd7;
      }

      .cls-9 {
        stroke-dasharray: 0 0 2.94 4.41;
      }

      .cls-10 {
        stroke-dasharray: 0 0 4.22 6.33;
      }

      .cls-11 {
        fill: #5b4d3c;
      }

      .cls-12 {
        fill: #fff;
      }

      .cls-13 {
        stroke-dasharray: 0 0 3.78 5.68;
      }

      .cls-15 {
        stroke-dasharray: 0 0 3.81 5.72;
      }

      .cls-51 {
        fill: #ddc7bc;
      }

      .cls-16 {
        stroke-dasharray: 0 0 3.25 4.88;
      }

      .cls-17 {
        stroke-dasharray: 0 0 3.17 4.75;
      }

      .cls-18 {
        stroke-dasharray: 0 0 3.46 5.19;
      }

      .cls-52 {
        fill: #efe8e6;
      }

      .cls-19 {
        stroke-width: 1.5px;
      }

      .cls-21, .cls-34 {
        stroke-dasharray: 0 0 3.52 5.29;
      }

      .cls-22 {
        stroke-dasharray: 0 0 4.32 6.48;
      }

      .cls-47 {
        fill: #f1a791;
      }

      .cls-23 {
        stroke-dasharray: 0 0 3.83 5.75;
      }

      .cls-25 {
        stroke-dasharray: 0 0 3.34 5.01;
      }

      .cls-26 {
        stroke-dasharray: 0 0 3.39 5.08;
      }

      .cls-27, .cls-42 {
        fill: #eac492;
      }

      .cls-28 {
        fill: #ebeded;
      }

      .cls-29 {
        fill: #299199;
      }

      .cls-30 {
        fill: #3f3f3f;
      }

      .cls-31 {
        stroke-dasharray: 0 0 3.22 4.84;
      }

      .cls-32 {
        stroke-dasharray: 0 0 3.59 5.38;
      }

      .cls-33 {
        stroke-dasharray: 0 0 3.65 5.47;
      }

      .cls-35 {
        fill: #f4f3e7;
      }

      .cls-36 {
        stroke-dasharray: 0 0 3.21 4.82;
      }

      .cls-37 {
        stroke-dasharray: 0 0 3.01 4.52;
      }

      .cls-38 {
        stroke-dasharray: 0 0 3.77 5.65;
      }

      .cls-39 {
        stroke-dasharray: 0 0 2.17 3.26;
      }

      .cls-43 {
        fill: #cea678;
      }

      .cls-44 {
        stroke-dasharray: 0 0 3.42 5.14;
      }
    </style>
  </defs>
  <path class="cls-51" d="M473.26,210.23c2.77-.01,5.58-.04,8.42-.09,2.51-.04,4.99-.1,7.45-.17,.02,.76,.1,1.72,.37,2.8,.26,1.05,.62,1.92,.95,2.59-1.06,.7-3.99,2.44-8.12,2.4-4.08-.04-6.95-1.8-8-2.52-.02-.51-.06-1.06-.15-1.66-.2-1.33-.56-2.46-.93-3.35Z"/>
  <path class="cls-48" d="M324.55,511.09c.46,2.77,1.33,6.83,3.08,11.52,1.45,3.87,2.71,6.07,3.72,8.22,3.05,6.49,3.51,11.95,4.31,18.79,1.08,9.19,2.73,20.55,5.07,35.27,1.43-.4,3.7-.84,6.48-.6,3.06,.26,5.4,1.24,6.78,1.94,.15-.4,.87-2.14,2.65-2.81,.52-.19,1-.25,1.39-.26,.62-11.14,.52-20.4,.26-27.14-.45-11.99-1.4-16.66-2.02-19.31-1.89-8-4.81-14.2-7.04-18.25-.48-.82-.96-1.78-1.38-2.88-.91-2.36-1.21-4.51-1.3-6.14-1.87-4.66-6.56-7.59-11.55-7.24-5.04,.35-9.3,3.98-10.46,8.91Z"/>
  <path class="cls-35" d="M272.52,591.96c1.2-2.35,2.39-4.69,3.59-7.04,1.67-3.75,7.5-6.48,14.3-6.77,7.41-.31,14.41,2.36,16.58,6.41,.96,2.47,1.93,4.94,2.89,7.41-.49,.39-7.19,5.55-19.14,5.41-11.39-.13-17.63-4.96-18.22-5.43Z"/>
  <path class="cls-48" d="M275.76,508.96c-.5,3.06,1.14,5.04,3.33,14.1,.19,.77,.55,2.31,.88,4.34,.26,1.6,.44,3.12,.55,4.53-.56,7.81-.78,16.52-.39,25.97,.46,10.99,1.66,20.94,3.17,29.66,1.06,4.59,5.22,7.64,9.49,7.27,3.53-.31,6.64-2.92,7.73-6.56,.76-4.53,1.78-11.02,2.84-18.89,.92-6.83,1.31-10.24,1.62-13.82,.49-5.73,.58-14.1-1.56-24.68,0-1.1,0-2.75-.06-4.76-.26-8.1-.85-12-1.77-15.54-1.86-7.15-8.3-11.73-14.67-11.08-5.51,.56-10.43,4.97-11.16,9.46Z"/>
  <path class="cls-42" d="M287.12,455.77c-9.92-.09-19.05,9-18.67,20.52-.41,3.16-.64,7.44,.03,12.42,.73,5.45,2.29,9.83,3.65,12.9-.12,5.01,.12,11.05,1.21,17.79,.91,5.65,2.23,10.61,3.61,14.79-1.02,1.44-2.29,3.58-3.16,6.39-1.23,3.94-1.12,7.36-.89,9.4-.5,.45-2.78,2.58-2.96,6-.17,3.17,1.53,6.24,4.39,8.01-3.12,.55-5.14,3.45-4.69,6.21,.38,2.32,2.45,4.21,5.04,4.44-5.14,3.04-7.69,7.49-6.66,10.67,.96,2.98,4.84,4.13,5.65,4.37,5.97,1.77,9.46-2.44,17.41-2.93,2.5-.15,6.21,0,10.85,1.73,3.44,2.45,7.59,2.98,10.81,1.33,.6-.31,3.23-1.75,4.3-4.89,1.01-2.96-.01-5.51-.51-6.75-1.38-3.45-4.04-5.26-5.12-5.91,2.25-.42,3.94-2.26,4.15-4.44,.23-2.4-1.4-4.71-3.85-5.33,2.39-1.88,3.55-4.87,2.96-7.7-.68-3.29-3.42-4.87-3.85-5.12-.02-2.25-.3-5.46-1.48-9.11-1.26-3.89-3.07-6.8-4.44-8.67,.43-5.5,.55-11.81,0-18.74-.3-3.84-.78-7.44-1.35-10.76,1.12-3.4,2.21-7.72,2.68-12.79,.71-7.54-.19-13.9-1.2-18.34-1.99-9.08-9.7-15.43-17.92-15.51Z"/>
  <path class="cls-42" d="M316.16,476.07c-.64,4.03-1.14,10.33,.34,17.81,1.37,6.92,3.92,12.23,5.9,15.63,.6,4.14,1.62,9.02,3.39,14.34,1.44,4.34,3.1,8.12,4.72,11.32-.64,1.05-3.22,5.61-1.83,11.12,.66,2.61,1.97,4.48,2.89,5.56-.52,.46-2.68,2.51-2.89,5.77-.2,3.17,1.53,6.26,4.44,8-.36,.1-3.25,.95-4.22,3.55-1.02,2.72,.44,6.29,3.78,8-4.09,.99-6.35,5.31-5.05,8.98,1.26,3.55,5.52,5.49,9.27,3.91,2.56-.83,5.87-1.61,9.78-1.78,8.34-.37,14.87,2.21,18.37,3.93,3.01-.6,5.4-2.81,6.07-5.63,.82-3.41-1-7.12-4.44-8.74,.39-.33,2.63-2.28,2.67-5.33,.04-3.08-2.19-6.02-5.56-7.11,.37-.38,3.25-3.45,2.67-8-.59-4.59-4.22-6.85-4.67-7.11,.33-1.76,.64-4.6,0-8-.7-3.73-2.23-6.46-3.26-8,.1-4.05-.18-9.43-1.63-15.55-1.64-6.93-4.22-12.39-6.38-16.17,0-3.11-.33-7.5-1.84-12.5-1.63-5.37-4.01-9.43-5.85-12.08-1.32-10.91-10.77-16.94-17.48-15.11-4.78,1.3-8.56,6.69-9.19,13.19Z"/>
  <g>
    <path class="cls-2" d="M285.57,575.41c.55,.1,1.13,.19,1.74,.28"/>
    <path class="cls-25" d="M292.29,576.14c1.58,.06,3.26,.05,5.05-.06,3.41-.22,6.45-.77,9.03-1.43"/>
    <path class="cls-2" d="M308.78,573.96c.59-.18,1.15-.37,1.67-.55"/>
  </g>
  <g>
    <path class="cls-2" d="M273.79,563.65c.54,.14,1.11,.28,1.71,.41"/>
    <path class="cls-6" d="M279.89,564.87c1.48,.21,3.05,.37,4.72,.47,2.88,.16,5.53,.09,7.89-.11"/>
    <path class="cls-2" d="M294.71,564.99c.61-.08,1.19-.16,1.74-.25"/>
  </g>
  <g>
    <path class="cls-2" d="M292.31,551.41c.57,.04,1.15,.07,1.76,.09"/>
    <path class="cls-33" d="M299.53,551.43c.74-.04,1.49-.1,2.26-.17,1.43-.14,2.8-.32,4.09-.53"/>
    <path class="cls-2" d="M308.57,550.22c.59-.13,1.16-.26,1.72-.39"/>
  </g>
  <g>
    <path class="cls-2" d="M276.95,534.2c.4-.32,.88-.67,1.42-1.03"/>
    <path class="cls-13" d="M283.41,530.58c.48-.18,.97-.35,1.49-.5,1.79-.54,3.47-.82,4.96-.94"/>
    <path class="cls-2" d="M292.7,529.06c.66,.02,1.25,.07,1.76,.12"/>
  </g>
  <g>
    <path class="cls-2" d="M336.45,577.57c.54,.16,1.11,.31,1.7,.45"/>
    <path class="cls-10" d="M344.39,579.14c2.67,.3,5.15,.36,7.38,.27"/>
    <path class="cls-2" d="M354.93,579.18c.61-.06,1.19-.14,1.75-.22"/>
  </g>
  <path class="cls-3" d="M309.88,595.59c-5.2-8.62-15.92-8.77-18.8-8.81-2.92-.04-12.94-.18-18.78,7.92-6.05,8.4-2.42,18.45-2.09,19.31,1.68,1.51,8.87,7.62,19.84,7.61,11.65-.01,19.11-6.93,20.62-8.39,.46-1.1,3.93-9.83-.79-17.64Z"/>
  <path class="cls-46" d="M302.3,590.21c-.51,1.94,1.1,4.17,1.56,4.8,1.27,1.75,3.78,3.81,5.95,3.47,2.92-.46,5.69-5.32,4.76-11.96-6.57-1.05-11.54,.94-12.27,3.69Z"/>
  <path class="cls-46" d="M280.2,590.21c.53,1.92-1.08,4.14-1.56,4.8-1.26,1.73-3.79,3.86-5.95,3.47-2.8-.51-5.35-5.28-4.34-11.74,6.31-1.08,11.11,.81,11.85,3.47Z"/>
  <g>
    <path class="cls-41" d="M290.83,591.51v1.76"/>
    <path class="cls-8" d="M290.83,598.15v13.82"/>
    <path class="cls-41" d="M290.83,614.41v1.76"/>
  </g>
  <path class="cls-11" d="M290.83,618.01c2.02,.09,3.52-1.99,4.7-3.62,.97-1.35,1.58-2.19,1.37-3.13-.43-1.92-3.94-2.64-6.07-2.64-1.65,0-5.21,.41-5.77,2.35-.35,1.22,.65,2.48,1.86,4.01,1.28,1.62,2.35,2.96,3.92,3.03Z"/>
  <path class="cls-3" d="M360.86,593.06c-.81-1.55-1.91-3.6-4.16-5.42-4.05-3.27-8.81-3.36-10.43-3.39-1.56-.03-5.74-.1-9.66,2.5-2.72,1.81-4.1,4.07-4.9,5.42-4.7,7.89-3.29,17.5-2.7,20.67,1.88,1.73,6.13,5.14,12.46,6.25,11.17,1.96,19.57-4.83,20.87-5.92,3.29-4.62,6.58-9.25,9.87-13.87-.08-1.88-.16-3.76-.24-5.64-.22-.55-.63-1.37-1.37-2.18-.57-.62-1.16-1.03-1.6-1.29-.63,.55-1.65,1.29-3.06,1.81-.99,.36-1.88,.51-2.56,.57l-1.6,2.48c.46,1.15,.95,2.67,1.27,4.48,.33,1.88,.33,3.83,.33,3.75-.02-2.28-.37-6.14-2.51-10.21Z"/>
  <path class="cls-46" d="M353.24,587.76c-.31,2.22,.75,3.97,1.3,4.89,.29,.48,2.46,3.64,4.98,3.53,2.63-.12,5.5-3.81,5.48-9.22-4.08-3.34-8.52-3.93-10.41-2.18-1.06,.98-1.33,2.71-1.37,2.98Z"/>
  <path class="cls-46" d="M337.48,585.52c0,2.2-1.2,3.77-1.83,4.6-.89,1.17-3.31,3.37-5.03,2.83-1.93-.61-2.97-4.69-1.96-10.15,1.57-.48,6.78-1.97,7.81-.55,.04,.06,1,.04,1.01,3.27Z"/>
  <g>
    <path class="cls-41" d="M344.47,588.28c-.3,.47-.61,.97-.92,1.5"/>
    <path class="cls-32" d="M341.17,594.6c-.29,.7-.56,1.43-.81,2.2-1.6,4.77-2.02,9.17-1.97,12.69"/>
    <path class="cls-41" d="M338.52,612.17c.05,.63,.11,1.22,.18,1.75"/>
  </g>
  <path class="cls-11" d="M337.86,614.58c1.56,.19,2.86-1.81,3.87-3.37,.84-1.3,1.37-2.11,1.27-3.05-.21-1.94-2.87-2.83-4.52-2.95-1.27-.09-4.06,.14-4.62,2.05-.35,1.2,.34,2.51,1.17,4.1,.88,1.68,1.62,3.08,2.83,3.23Z"/>
  <g>
    <path class="cls-2" d="M350.68,566.74c.5,.12,1.08,.23,1.73,.33"/>
    <path class="cls-39" d="M355.66,567.27c.47,0,.96-.04,1.46-.08,.83-.08,1.6-.2,2.31-.35"/>
    <path class="cls-2" d="M361.01,566.43c.62-.19,1.18-.39,1.66-.58"/>
  </g>
  <g>
    <path class="cls-2" d="M331.57,551.85c.51,.17,1.07,.35,1.68,.52"/>
    <path class="cls-36" d="M337.95,553.42c2.25,.35,4.81,.55,7.62,.43,2.19-.09,4.19-.37,5.96-.73"/>
    <path class="cls-2" d="M353.88,552.57c.6-.16,1.16-.33,1.69-.5"/>
  </g>
  <g>
    <path class="cls-2" d="M358.53,534.29c-.44-.31-.93-.64-1.47-.96"/>
    <path class="cls-22" d="M351.12,530.78c-2.76-.75-5.33-.9-7.5-.78"/>
    <path class="cls-2" d="M340.4,530.37c-.66,.12-1.24,.25-1.72,.37"/>
  </g>
  <g>
    <g>
      <path class="cls-42" d="M301.74,403.44c23.33,5.26,40.56,3.19,43.98,2.74,7.26-.95,13.54-2.54,18.66-4.18-.16-3.73-.32-7.47-.48-11.2,.76-.86,2.24-2.8,2.68-5.66,.77-4.96-2.23-8.62-2.73-9.22,.52-.61,3.68-4.42,2.96-9.78-.55-4.13-3.06-6.67-3.85-7.41,.4-1.77,.84-4.67,.28-8.18-.49-3.07-1.54-5.43-2.36-6.93-1.47-11.85-2.66-24.47-3.41-37.8-.86-15.22-1.06-29.59-.8-43.01-1.73-2.11-3.47-4.21-5.2-6.32-1.99-2.57-5.2-6.15-9.92-9.4-2.65-1.82-8.62-5.93-16.18-6.79-4.58-.52-8.92,.26-21.76,6.12-6.62,3.03-15.5,7.41-25.74,13.45-9.46,22.93-17.4,49.4-21.42,79.14-.56,4.15-1.03,8.25-1.41,12.29-.89,.8-2.71,2.67-3.48,5.64-1.4,5.41,1.92,9.8,2.36,10.37-.47,.54-2.66,3.14-2.36,6.81,.28,3.51,2.71,6.62,6.22,8-2.38,1.54-3.26,4.61-2.07,7.11,1.13,2.4,3.88,3.68,6.51,3,.16,3.13,.32,6.26,.47,9.39,4.77-1.63,11.87-3.4,20.36-2.9,7.62,.45,10.24,2.78,18.7,4.69Z"/>
      <path class="cls-20" d="M300.57,392.74c3.78,.94,8.82,2,14.82,2.73,7.86,.96,13.54,.88,20.81,.79,12.19-.16,16.22-1.19,17.94-1.68,4.21-1.19,7.52-2.78,9.76-4"/>
      <path class="cls-20" d="M300.57,392.74c-5.42-1.94-15.9-5.29-22.2-4.06-.36,.07-4.07,.81-8.89,2-.57,.14-2.15,.64-4.35,1.09-1.24,.25-2.27,.41-2.93,.5"/>
      <path class="cls-21" d="M359.37,397.83c-6.6,1.56-14.62,2.91-23.78,3.33-11.58,.53-21.6-.57-29.45-2.02-1.15-.21-4.84-1.57-10.09-2.98-7.91-2.13-10.8-2.42-12.73-2.52-.96-.05-4.44-.2-8.93,.44-4.05,.58-5.3,1.3-7.86,1.9-1.31,.31-2.39,.46-3.06,.54"/>
      <path class="cls-50" d="M296.18,316.63c-11.69,1.39-18.29,9.99-19.72,11.86-3.57,4.65-4.89,9.28-6.9,16.31-1.42,4.99-2.13,9.47-2.31,13.89-.26,6.49-.45,11.02,2.31,13.5,2.71,2.43,6.1,.98,12.35,.77,11.83-.39,13.09,4.37,26.24,5.4,5.88,.46,17.96,1.38,21.61-4.63,1.65-2.72,.02-4.29-1.16-15.43-1.16-10.93,.11-12.19-1.54-18.52-1.02-3.91-2.38-9.12-6.56-13.89-5.48-6.26-14.66-10.4-24.31-9.26Z"/>
      <path class="cls-43" d="M285.33,257.34c0,.93,.29,1.63,.43,1.91,3.25,6.71,25.14,6.46,26.28,6.44,18.66-.33,31.65-4.75,33.99-9.65,1.18-2.46,.8-4.66,.8-4.66-.09-.5-.51-2.59-3.14-4.87-10.26-8.89-23.33-8.52-23.33-8.52-5.71,.16-11.78,3.22-23.93,9.33-6.08,3.06-11.14,6.13-11.1,10.01Z"/>
      <g>
        <path class="cls-2" d="M259.25,381.85c.55-.25,1.09-.48,1.62-.7"/>
        <path class="cls-15" d="M266.29,379.33c3.48-.93,6.42-1.24,8.67-1.33,9.34-.36,14.48,2.83,30.76,5.34,1.7,.26,3.26,.48,4.66,.65"/>
        <path class="cls-2" d="M313.21,384.33c.66,.07,1.24,.13,1.75,.18"/>
      </g>
      <g>
        <path class="cls-2" d="M362.96,358.74c-.55,.17-1.12,.34-1.69,.5"/>
        <path class="cls-26" d="M356.35,360.52c-3.01,.7-6.25,1.32-9.69,1.78-11.58,1.55-21.79,.87-29.84-.42"/>
        <path class="cls-2" d="M314.31,361.44c-.59-.11-1.16-.22-1.73-.33"/>
      </g>
      <g>
        <path class="cls-2" d="M257.18,351.04c.53-.19,1.09-.38,1.66-.57"/>
        <path class="cls-38" d="M264.28,348.92c1.85-.44,3.83-.84,5.94-1.15,3.62-.54,6.96-.73,9.93-.74"/>
        <path class="cls-2" d="M282.98,347.09c.61,.02,1.19,.06,1.76,.09"/>
      </g>
      <g>
        <path class="cls-2" d="M253.92,367.33c.52-.21,1.07-.42,1.64-.63"/>
        <path class="cls-31" d="M260.19,365.32c.08-.02,.16-.04,.25-.06,1.88-.44,3.66-.73,5.31-.92"/>
        <path class="cls-2" d="M268.16,364.14c.61-.03,1.2-.06,1.76-.07"/>
      </g>
    </g>
    <g>
      <path class="cls-19" d="M318.76,265.39c-1.35,5.38-2.56,11.16-3.52,17.3-2.73,17.41-2.75,33.1-1.67,46.22,.24,1.31-.54,2.51-1.55,2.76-1.17,.29-2.64-.68-2.76-2.26-.47-8.28-.56-17.46,0-27.38,.78-13.67,2.64-25.9,4.87-36.4,1.55-.08,3.09-.16,4.64-.24Z"/>
      <path class="cls-19" d="M309.54,319.63c-.04-.89,2.37-2.4,4.33-1.67,1.93,.72,3.16,3.52,2,5.11-.75,1.02-2.38,1.41-4,.89,.2-.57,.34-1.33,.06-2.06-.57-1.46-2.36-1.52-2.39-2.28Z"/>
      <path class="cls-19" d="M310.76,321.19c-.71-.88-2.84-.9-4.11,.22-1.1,.97-1.22,2.51-.94,3.56,.59,2.24,3.35,3.57,5.39,2.94,1.66-.51,2.85-2.31,2.5-2.94-.31-.57-1.68,.11-2.4-.67-.78-.84,.28-2.22-.43-3.11Z"/>
    </g>
    <g>
      <path class="cls-19" d="M302.88,265.6c-1.9,5.51-3.68,11.48-5.22,17.88-4.13,17.18-5.41,32.83-5.4,45.93,.14,1.33-.74,2.46-1.77,2.63-1.19,.2-2.57-.89-2.57-2.48,.2-8.29,.85-17.45,2.21-27.29,1.88-13.56,4.72-25.6,7.79-35.89,.2-.52,.39-1.04,.59-1.55l4.37,.77Z"/>
      <path class="cls-19" d="M288.99,319.84c.04-.89,2.56-2.2,4.45-1.31,1.87,.88,2.86,3.77,1.58,5.26-.83,.96-2.49,1.21-4.06,.56,.24-.56,.45-1.3,.22-2.04-.45-1.5-2.23-1.71-2.2-2.46Z"/>
      <path class="cls-19" d="M290.08,321.49c-.63-.94-2.76-1.13-4.12-.11-1.17,.88-1.42,2.4-1.23,3.47,.41,2.28,3.05,3.83,5.13,3.37,1.69-.37,3.03-2.07,2.73-2.73-.26-.59-1.68-.03-2.34-.86-.71-.9,.46-2.19-.18-3.13Z"/>
    </g>
  </g>
  <g>
    <path class="cls-42" d="M404.86,277.9c-2.24,4.28-4.65,10.1-5.91,17.26-2.92,16.52,2.02,29.97,4.7,36.01-1.25,2.52-2.42,5.67-2.96,9.38-2.08,14.03,6.28,25.09,8.59,27.96-2,2.48-2.45,5.88-1.16,8.77,1.24,2.76,3.89,4.65,6.93,4.94-2.43,2.52-3.44,5.99-2.44,8.89,1.42,4.13,6.8,6.8,12.21,4.99-1.19,1.99-1.25,4.43-.12,6.34,1.34,2.27,3.73,2.78,4.12,2.86,2.19,.14,4.38,.28,6.56,.42,.21,.56,.83,1.96,2.34,3.05,1.5,1.09,3.03,1.24,3.62,1.27,3.09-.6,5.6-1.43,7.44-2.15,2.44-.96,7.02-2.81,11.45-6.95,.63-.59,1.13-1.1,1.47-1.47,.08-1.23,.07-2.77-.2-4.5-.2-1.34-.51-2.52-.84-3.5,.16-.07,3.52-1.64,3.95-5.33,.39-3.37-2-5.58-2.22-5.78,.88-.48,4-2.29,5.1-5.92,1.31-4.32-.78-9.46-5.33-12.44,.46-.58,3.53-4.61,2.41-9.66-1.06-4.76-5.42-8.45-10.84-9.01,.27-4.33,.27-14-5.33-24.07-3.34-6.01-7.49-10.03-10.44-12.44-3.58-9.08-7.47-16.64-10.94-22.58-4.84-8.31-9.42-14.51-12.09-17.95-2.27-2.93-4.3-5.34-5.88-7.15"/>
    <path class="cls-34" d="M424.81,396.09c2.6-2.67,6.98-6.53,13.36-9.51,5.62-2.63,10.72-3.61,14.22-4"/>
    <path class="cls-34" d="M460.66,391.47c-2.44,.16-5.61,.61-9.16,1.78-4.41,1.46-7.75,3.49-10,5.11"/>
    <path class="cls-34" d="M444.6,357.54c2.31-.28,6.28-.44,10.81,1.04,2.93,.96,5.18,2.3,6.74,3.41"/>
    <path class="cls-34" d="M416.16,381.1c1.15-1.5,3.08-3.66,6-5.56,2.74-1.78,5.33-2.66,7.11-3.11"/>
    <path class="cls-34" d="M409.28,368.5c1.4-3.44,3.97-8.38,8.66-12.96,10.17-9.95,22.87-10.95,26.67-11.11"/>
    <path class="cls-34" d="M403.65,331.17c1.26-2.47,3.3-5.75,6.51-8.96,2.02-2.02,4.04-3.54,5.78-4.67"/>
    <path class="cls-34" d="M437.95,306.8c-2.35-1.2-6.64-2.98-12.23-3.03-3.37-.03-6.18,.57-8.2,1.19"/>
  </g>
  <g>
    <path class="cls-42" d="M212.33,253.38c-3.84,1.27-8.62,3.27-13.65,6.52-8.14,5.26-13.36,11.48-16.41,15.79-1.89,.59-4.53,1.51-7.59,2.88-5.53,2.47-9.72,4.34-13.2,8.09-1.69,1.82-4.96,5.97-6.14,13.25-2.07,1.05-10.31,5.53-13.58,15.26-1.57,4.67-1.41,8.83-1.08,11.41-.29,.12-2.58,1.09-3.21,3.48-.59,2.23,.51,4.75,2.77,6.08,1.36,1.01,2.72,2.02,4.09,3.02,1.9,4.04,4.8,9.15,9.2,14.39,3.4,4.05,6.83,7.15,9.8,9.48,.19,.23,1.77,2.09,4.25,2,2.14-.08,4.08-1.57,4.84-3.76,1.28,.52,2.55,1.04,3.83,1.55,2.12-1.36,5.49-3.9,8.38-8.12,2.48-3.62,3.65-7.08,4.23-9.38-.85-1.01-1.7-2.02-2.54-3.03,.85-1.83,1.7-3.65,2.54-5.48,1.04-1.32,2.21-3.09,3.16-5.34,1.95-4.62,1.94-8.83,1.74-11.22,1.68-1.48,4.74-4.55,6.7-9.45,2.18-5.42,1.88-10.21,1.59-12.46,.85-.24,3.33-1.06,5.09-3.52,2.7-3.78,1.34-8.13,1.17-8.61"/>
    <path class="cls-34" d="M155.35,299.9c1.94-.99,4.51-2.07,7.63-2.81,2.33-.56,4.44-.8,6.22-.89"/>
    <path class="cls-34" d="M163.32,363.01c.22-2.94,.94-7.68,3.51-12.89,2.91-5.89,6.82-9.61,9.19-11.56"/>
    <path class="cls-34" d="M174.83,351.9c1.07-1.73,2.93-4.26,5.93-6.52,2.04-1.53,4.01-2.5,5.56-3.1"/>
    <path class="cls-34" d="M140.68,326.56c1.59-2.12,5.34-6.5,11.78-9.11,4.56-1.85,8.64-2.07,11.11-2"/>
    <path class="cls-34" d="M144.32,339.14c.79-1.35,2.34-3.57,5.03-5.47,3.21-2.27,6.39-2.9,8-3.11"/>
    <path class="cls-34" d="M202.05,298.33c.06-.62,.4-5.44-3.37-9.1-3.64-3.53-8.23-3.17-8.89-3.11"/>
  </g>
  <path class="cls-3" d="M188.72,213.03c11.07-3.8,19.99-7.76,26.45-10.9,8.5-4.13,11.97-6.32,15.39-9.72,1.92-1.91,8.16-8.25,10.41-17.51,.87-3.6,1.09-7.44,1.12-7.93,.21-3.83-.12-6.76-.34-8.64-2.18-18.39-3.8-25.39-3.81-25.43h0c-1.41-5.4-25.62-78.39-86.69-82.57-57.94-3.97-89.16,54.35-92.36,60.54-14.52,28.13-11.52,55.15-7.94,63.02,4.97,10.94,13.07,17.79,13.07,17.79,1.87,1.6,6.06,4.93,20.68,10.54,17.32,6.64,9.8,3.57,25.1,8.01,11.84,3.43,17.76,5.15,20.99,5.73,12.52,2.24,22.49,1.68,30.52,1.19,7.17-.44,16.56-1.51,27.39-4.1Z"/>
  <g>
    <path class="cls-51" d="M138.69,210.22c2.77-.01,5.58-.04,8.42-.09,2.51-.04,4.99-.1,7.45-.17,.02,.76,.1,1.72,.37,2.8,.26,1.05,.62,1.92,.95,2.59-1.06,.7-3.99,2.44-8.12,2.4-4.08-.04-6.95-1.8-8-2.52-.02-.51-.06-1.06-.15-1.66-.2-1.33-.56-2.46-.93-3.35Z"/>
    <g>
      <path class="cls-49" d="M90.07,166.36c1.37,11.3,3.2,14.34,4.7,16.18,1.38,1.7,3.29,3.39,4.7,6.79,1.56,3.78,.81,5.62,1.57,8.09,1.81,5.93,10.11,8.43,16.18,10.18,7.06,2.03,13.84,2.76,24.79,2.61,16.82-.22,25.22-.33,32.62-3.65,11.89-5.33,18.32-14.7,20.88-18.53,11.85-17.74,12.35-41.17,5.22-59.51-7.71-19.83-28.92-45.45-58.46-43.59-31.73,2-50.05,34.25-52.98,52.98-1.5,9.61,.02,22.19,.78,28.45Z"/>
      <path class="cls-52" d="M124.99,164.82c1.01,.97,2.54,2.7,3.63,5.32,2.04,4.91,2.15,12.08-1.5,16.44-2.35,2.82-5.34,3.35-8.53,3.91-1.68,.3-8.98,1.37-15.55-3.65-1.09-.83-3.05-2.36-4.74-5.21-2.12-3.57-2.59-7.13-2.71-8.96,3.12-3.9,6.22-5.74,8.16-6.65,4.54-2.12,8.81-1.99,14.38-1.82,2.88,.09,5.25,.37,6.85,.61Z"/>
      <path class="cls-52" d="M163.02,163.62c-.73,1.6-1.91,4.81-1.57,8.87,.12,1.42,.64,7.55,5.87,11.61,4.08,3.17,9.37,3.83,13.57,2.61,8.83-2.55,11.86-12.8,12.79-15.92,.98-3.3,1.17-6.17,1.17-8.09-3.9-1.12-9.73-2.3-16.84-1.98-6.28,.28-11.41,1.64-15,2.9Z"/>
      <path class="cls-47" d="M99.71,189.97c1.69-1.13,5.09-3.08,9.73-3.45,1.69-.13,10.22-.81,15.46,5.68,3.8,4.7,4.47,11.44,1.87,17.36-4.11-.63-7.52-1.43-10.07-2.11-.72-.19-5.04-1.37-9.7-3.65-1.09-.54-2.49-1.27-3.81-2.73-.55-.61-1.62-1.82-2.18-3.65-.46-1.52-.16-2.13-.56-4.44-.23-1.32-.54-2.37-.76-3.01Z"/>
      <g>
        <path class="cls-14" d="M103.18,191.61c.45-.22,.99-.46,1.61-.7"/>
        <path class="cls-16" d="M109.51,189.69c2.17-.33,5.11-.42,8.16,.94,1.11,.5,4.44,1.98,6.26,5.77,.81,1.69,1.09,3.34,1.12,4.77"/>
        <path class="cls-14" d="M124.85,203.61c-.15,.82-.34,1.42-.43,1.71"/>
      </g>
      <path class="cls-47" d="M172.47,207.41c-.88-.83-3.99-3.94-4.5-8.95-.04-.35-.63-7.43,4.89-12.14,4.86-4.14,11.84-4.23,16.64-1.37,2.51,1.5,3.99,3.54,4.77,4.87-1.78,2.63-4.32,5.83-7.85,8.97-5.14,4.57-10.3,7.16-13.95,8.63Z"/>
      <g>
        <path class="cls-14" d="M174.23,202.67c-.29-.33-.68-.8-1.06-1.41"/>
        <path class="cls-1" d="M171.88,196.96c-.11-3.79,2.36-6.6,2.59-6.85,2.74-3.03,6.42-3.25,7.57-3.26,1.71-.02,3.18,.38,4.37,.9"/>
        <path class="cls-14" d="M188.37,188.86c.71,.5,1.17,.94,1.36,1.12"/>
      </g>
      <path class="cls-29" d="M113.47,164.21c-1.57,.45-3.87,1.37-5.61,3.45-4.91,5.85-3.07,18.05,4.05,21.14,3.63,1.58,8.66,.79,11.75-2.22,2.85-2.78,3.13-6.41,3.28-8.37,.35-4.66-1.54-8.19-2.41-9.59-1.11-1.78-2.37-3.02-3.28-3.8-2.59-.2-5.18-.41-7.76-.61Z"/>
      <path class="cls-29" d="M169.59,161.79c-1.24,1.81-2.67,4.5-3.18,7.96-.3,2.01-.95,8.67,3.52,13.7,1.12,1.26,3.09,3.48,6.14,3.81,5.73,.63,9.8-6.01,10.05-6.42,3.46-5.84,1.18-12.23,.65-13.7-1.1-3.06-2.8-5.19-3.92-6.39-1.88-.05-3.93-.02-6.13,.13-2.61,.18-5,.51-7.13,.91Z"/>
      <path class="cls-45" d="M90.07,166.36c1.37,11.3,3.2,14.34,4.7,16.18,1.38,1.7,3.29,3.39,4.7,6.79,1.56,3.78,.81,5.62,1.57,8.09,1.81,5.93,10.11,8.43,16.18,10.18,7.06,2.03,13.84,2.76,24.79,2.61,16.82-.22,25.22-.33,32.62-3.65,11.89-5.33,18.32-14.7,20.88-18.53,11.85-17.74,12.35-41.17,5.22-59.51-7.71-19.83-28.92-45.45-58.46-43.59-31.73,2-50.05,34.25-52.98,52.98-1.5,9.61,.02,22.19,.78,28.45Z"/>
      <path class="cls-20" d="M139.58,192.82c.13-.08,.88,1.89,2.58,2.28,1.48,.34,2.99-.68,4.1-1.67,.91,1.25,2.43,1.9,3.95,1.67,2.29-.35,3.17-2.48,3.21-2.57"/>
      <path class="cls-30" d="M161.45,163.09c-.31-.68,4.27-3.59,7.05-4.96,4.12-2.02,12.67-4.76,27.27,0-.3,1.52-.61,3.04-.91,4.57-4.9-1.36-9.04-1.81-12.01-1.96-7.82-.38-14.52,1.01-15.27,1.17-3.56,.76-5.92,1.64-6.13,1.17Z"/>
      <path class="cls-30" d="M94.55,165.77c1.79-1.37,3.9-2.64,6.37-3.61,12.57-4.92,25.06,1.71,28.01,3.37-6.59-1.29-12.1-1.34-15.99-1.12-8.19,.46-11.41,2.25-12.88,3.2-2.17,1.4-3.66,3.02-4.6,4.2-.3-2.01-.6-4.03-.9-6.04Z"/>
      <path class="cls-14" d="M115.63,155.59c1.48,.03,3.37,.21,5.48,.78,1.45,.39,2.69,.89,3.72,1.37"/>
      <path class="cls-14" d="M164.03,155.59c1.06-.76,2.36-1.58,3.92-2.35,1.42-.7,2.75-1.2,3.92-1.57"/>
      <path class="cls-20" d="M145.87,189.87c-.13,.32-.37,1.03-.24,1.94,.11,.78,.43,1.34,.63,1.62"/>
      <path class="cls-12" d="M113.81,174.31c-2.73,1.27-3.39,6.1-1.78,9.33,1.07,2.14,3.69,4.72,6.44,4.11,3.02-.67,4.58-4.79,3.89-7.89-.89-3.97-5.64-6.91-8.56-5.56Z"/>
      <path class="cls-12" d="M177.79,171.51c-3-.28-5.99,3.56-6.23,7.17-.16,2.39,.81,5.93,3.5,6.8,2.95,.95,6.37-1.84,7.33-4.86,1.23-3.88-1.4-8.81-4.6-9.11Z"/>
    </g>
    <path class="cls-40" d="M138.24,210.22c.51,.76,1.11,1.9,1.39,3.36,.11,.61,.15,1.17,.15,1.66"/>
    <path class="cls-40" d="M154.56,209.96c.02,.76,.1,1.72,.37,2.8,.26,1.05,.62,1.92,.95,2.59"/>
    <path class="cls-28" d="M100.15,181.21c-5.58-9.64-5.08-19.69-4.89-22.15,1.33-17.6,15.53-28.03,17.78-29.63,.11,4.19,.91,12.51,5.93,21.33,6.84,12.03,17.86,18.31,18.37,17.78,.28-.29-2.58-2.58-4-7.26-.73-2.41-.83-4.63-.74-6.37,1.63,2.81,4.63,7.02,9.78,10.07,5.93,3.52,12.78,4.35,13.33,3.11,.45-1-3.55-2.57-5.04-7.11-.72-2.2-.58-4.26-.3-5.78,1.25,1.4,3.69,3.7,7.41,4.74,2.29,.64,4.93,.71,5.19,0,.25-.69-1.92-1.49-2.96-4-.48-1.15-.54-2.22-.52-2.96,2.49-2.88,5.64-7.16,8.22-12.89,2.31-5.13,3.43-9.8,4-13.33,2.33,.98,19.55,8.53,24.3,26.59,.74,2.83,4.19,17.35-3.41,27.63-2.83,3.83-6.67,6.07-6.22,6.75,.57,.88,7.36-1.84,12.85-6.18,5.37-4.25,8.48-9.27,10.26-12.87-1.31,6.92-3.83,11.28-6.07,14.07-1.05,1.31-2.43,2.76-2.07,3.26,.57,.81,5.41-1.17,8.74-3.7,6-4.57,7.87-11.54,8.59-14.22,2.05-7.65,6.76-40.64-15.56-68.89-2.24-2.83-33.34-40.97-73.94-32.09-45.88,10.03-56.14,68.1-55.05,82.97,.5,6.86,2.42,14.29,2.42,14.29,3.24,12.52,8.55,21.32,9.23,21.05,.46-.18-1.34-4.47-.59-10.96,.25-2.19,.43-3.64,1.19-3.85,1.95-.56,4.18,8.21,12.24,15.64,4.21,3.89,9,6.47,9.54,5.84,.59-.68-4.37-4.61-8-10.89Z"/>
    <g>
      <g>
        <path class="cls-24" d="M209.48,168.69c.21-.5,.42-1.05,.63-1.64"/>
        <path class="cls-37" d="M211.39,162.72c.4-1.72,.73-3.64,.91-5.73,.22-2.58,.16-4.93-.03-6.98"/>
        <path class="cls-24" d="M212,147.76c-.09-.62-.19-1.2-.3-1.73"/>
      </g>
      <g>
        <path class="cls-24" d="M132.59,154.91c-.36-.39-.76-.82-1.17-1.31"/>
        <path class="cls-9" d="M128.85,150.02c-.63-1.04-1.25-2.2-1.81-3.48-1.33-3.04-1.96-5.89-2.24-8.26"/>
        <path class="cls-24" d="M124.62,136.08c-.03-.65-.03-1.24-.02-1.76"/>
      </g>
      <g>
        <path class="cls-24" d="M86.37,170.61c-.21-.54-.42-1.09-.63-1.65"/>
        <path class="cls-18" d="M84.18,164.02c-.45-1.67-.84-3.43-1.15-5.25-3.09-18.13,3.15-33.65,7.85-42.44"/>
        <path class="cls-24" d="M92.14,114.05c.31-.54,.61-1.05,.89-1.52"/>
      </g>
      <g>
        <path class="cls-24" d="M122.41,96.3c-.05,.55-.08,1.14-.11,1.75"/>
        <path class="cls-23" d="M122.39,103.8c.22,2.93,.76,6.2,1.8,9.68,3.1,10.3,9.18,17.29,13.62,21.33"/>
        <path class="cls-24" d="M139.99,136.7c.51,.42,.98,.78,1.38,1.08"/>
      </g>
      <g>
        <path class="cls-24" d="M159.48,152.98c-.35-.42-.72-.87-1.1-1.37"/>
        <path class="cls-17" d="M155.66,147.71c-1.68-2.7-3.38-6.03-4.7-9.99-1.24-3.72-1.85-7.16-2.14-10.09"/>
        <path class="cls-24" d="M148.64,125.26c-.03-.62-.05-1.21-.05-1.76"/>
      </g>
      <g>
        <path class="cls-24" d="M171.7,126.76c.11-.55,.23-1.12,.33-1.73"/>
        <path class="cls-4" d="M172.67,119.41c.05-.88,.07-1.78,.07-2.72,0-1.36-.06-2.66-.16-3.89"/>
        <path class="cls-24" d="M172.27,109.98c-.08-.6-.18-1.18-.27-1.74"/>
      </g>
      <g>
        <path class="cls-24" d="M113.08,130.54c-.06-.57-.1-1.15-.14-1.76"/>
        <path class="cls-5" d="M112.81,124.67c0-.19,0-.38,0-.58,.02-1.48,.1-2.88,.21-4.21"/>
        <path class="cls-24" d="M113.24,117.84c.07-.6,.15-1.18,.24-1.74"/>
      </g>
      <g>
        <path class="cls-24" d="M95.39,157.71c0-.56,0-1.15,.01-1.76"/>
        <path class="cls-44" d="M95.69,150.83c.36-3.79,1.09-8.1,2.46-12.73,1.05-3.56,2.31-6.73,3.59-9.47"/>
        <path class="cls-24" d="M102.88,126.32c.28-.54,.55-1.06,.83-1.55"/>
      </g>
    </g>
  </g>
  <path class="cls-42" d="M75.84,139.46c7.29-24.63,31.12-50.63,60.31-50.03,22.18,.46,40.51,16.15,47.62,25.06,1.2,1.51,3.32,4.34,5.21,7.04,4.63,6.64,8.94,13.94,15.38,25.75,3.88,7.1,7.29,13.97,8.57,23.1,.84,6.03,.35,10.12-.13,12.63-1.1,5.77-3.37,9.7-4.75,12.05-5.95,10.09-14.62,15.51-19.33,17.98,11.07-3.8,19.99-7.76,26.45-10.9,8.5-4.13,11.97-6.32,15.39-9.72,1.92-1.91,8.16-8.25,10.41-17.51,.87-3.6,1.09-7.44,1.12-7.93,.21-3.83-.12-6.76-.34-8.64-2.18-18.39-3.8-25.39-3.81-25.43h0c-1.41-5.4-25.62-78.39-86.69-82.57-57.94-3.97-89.16,54.35-92.36,60.54-14.52,28.13-11.52,55.15-7.94,63.02,4.97,10.94,13.07,17.79,13.07,17.79,1.87,1.6,6.06,4.93,20.68,10.54,6.24,2.39,14.74,5.34,25.1,8.01,1.93,.5-19.85-7.38-30.39-24.73-11.58-19.06-4.73-42.19-3.59-46.03Z"/>
  <path class="cls-27" d="M109.82,210.22c8.72,3.08,20.76,6.31,35.34,7.26,18.34,1.2,33.48-1.68,43.57-4.44,2.16-1.1,4.43-2.47,6.71-4.18,9.94-7.46,14.61-17.32,16.78-23.3-5.17,5.49-13.78,13.29-26.29,19.44-15.48,7.6-29.62,9.09-37.78,9.33-10.12-1.06-23.18-3.47-37.62-8.96-10.31-3.92-18.92-8.51-25.8-12.79,3.67,3.81,8.61,8.2,14.99,12.24,3.56,2.25,6.98,4.02,10.09,5.41Z"/>
  <path class="cls-50" d="M190.04,212.33c.52,1.14,13.38-1.79,25.14-10.2,8.71-6.23,13.18-12.87,14.75-15.37,3.51-5.59,6.49-10.33,6.22-16.44-.5-11.71-12.48-18.98-14.22-20-4.8-13.36-16.06-38.08-41.33-56.15-10.52-7.52-25.07-17.92-45.04-17.19-25.15,.92-41.91,18.88-49.19,26.67-15.63,16.73-21.07,35.19-23.13,44.63-2.16,2.04-7.03,7.21-7.98,14.92-1,8.13,2.94,14.37,5.82,18.78,11.6,17.79,33.23,24.16,40.94,26.08-5.67-3.48-20.16-13.47-26.31-32.12-8.9-26.99,6.81-50.52,11.26-57.19,4.72-7.07,14.31-21.44,33-26.92,17.84-5.23,33.12,.82,37.78,2.74,13.68,5.65,22.04,15.24,26.02,19.91,2.27,2.66,4.02,5.26,7.53,10.46,9.37,13.89,14.97,22.2,18.69,34.08,2.41,7.69,4.56,14.85,2.81,23.97-.35,1.8-2,9.72-8.21,17.53-6.87,8.64-14.97,10.89-14.55,11.79Z"/>
  <path class="cls-20" d="M75.84,139.46c7.29-24.63,31.12-50.63,60.31-50.03,22.18,.46,40.51,16.15,47.62,25.06,1.2,1.51,3.32,4.34,5.21,7.04,4.63,6.64,8.94,13.94,15.38,25.75,3.88,7.1,7.29,13.97,8.57,23.1,.84,6.03,.35,10.12-.13,12.63-1.1,5.77-3.37,9.7-4.75,12.05-5.95,10.09-14.62,15.51-19.33,17.98,11.07-3.8,19.99-7.76,26.45-10.9,8.5-4.13,11.97-6.32,15.39-9.72,1.92-1.91,8.16-8.25,10.41-17.51,.87-3.6,1.09-7.44,1.12-7.93,.21-3.83-.12-6.76-.34-8.64-2.18-18.39-3.8-25.39-3.81-25.43h0c-1.41-5.4-25.62-78.39-86.69-82.57-57.94-3.97-89.16,54.35-92.36,60.54-14.52,28.13-11.52,55.15-7.94,63.02,4.97,10.94,13.07,17.79,13.07,17.79,1.87,1.6,6.06,4.93,20.68,10.54,6.24,2.39,14.74,5.34,25.1,8.01,1.93,.5-19.85-7.38-30.39-24.73-11.58-19.06-4.73-42.19-3.59-46.03Z"/>
  <path class="cls-42" d="M195.41,81.72c5.79-2.69,14.59-6.02,25.78-7.41,8.44-1.05,12.76-1.52,16,1.19,8.59,7.18,.28,28.9-.59,31.11-2.81,7.15-6.61,12.35-9.35,15.58"/>
  <path class="cls-50" d="M221.7,112.32c2.6,.13,4.74-5.2,7.56-12.22,2.29-5.71,5.61-13.99,2.67-16.44-.79-.66-1.77-.68-2.67-.67-3.17,.04-8.76,.47-16.67,2.89,1.77,1.57,3.53,3.14,5.3,4.71-.82-.06-2.04-.15-3.52-.27-1.93-.15-3.85-.29-5.78-.44-5.36-.42-5.66-.45-5.78-.22-.62,1.2,6.4,3.97,11.78,11.11,4.82,6.41,4.61,11.43,7.11,11.56Z"/>
  <path class="cls-42" d="M88.91,77.98c-5.16-2.39-12.99-5.36-22.95-6.6-7.52-.93-11.36-1.36-14.25,1.06-7.65,6.39-.25,25.74,.53,27.7,2.5,6.37,5.89,10.99,8.32,13.87"/>
  <path class="cls-50" d="M65.49,105.22c-2.32,.12-4.22-4.63-6.73-10.88-2.04-5.08-5-12.46-2.37-14.64,.7-.59,1.58-.6,2.37-.59,2.83,.03,7.8,.42,14.84,2.57-1.57,1.4-3.14,2.8-4.72,4.2,.73-.05,1.81-.14,3.13-.24,1.71-.13,3.43-.26,5.14-.4,4.78-.37,5.04-.4,5.14-.2,.55,1.07-5.7,3.53-10.49,9.89-4.3,5.71-4.11,10.18-6.33,10.29Z"/>
  <path class="cls-50" d="M158.1,64.17c.83,2.18,7.14,2,11.56,.3,1.33-.51,4.78-1.84,4.74-3.56-.04-2.06-5.09-4.57-9.48-3.56-4.07,.94-7.55,4.88-6.81,6.81Z"/>
  <path class="cls-50" d="M128.49,62.65c-.64,1.87-5.5,1.71-8.9,.25-1.03-.44-3.68-1.58-3.65-3.05,.03-1.76,3.92-3.91,7.3-3.05,3.13,.8,5.82,4.19,5.25,5.84Z"/>
  <g>
    <path class="cls-2" d="M133.78,88.24c-.01-.53-.01-1.12,0-1.76"/>
    <path class="cls-7" d="M134.18,81.23c.48-3.56,1.48-7.78,3.45-12.24,3.32-7.48,8.04-12.62,11.7-15.81"/>
    <path class="cls-2" d="M151.37,51.5c.52-.4,.99-.75,1.41-1.05"/>
  </g>
  <path class="cls-11" d="M127.55,74.46c-.9,2.6,2.34,6.78,6.07,7.7,5.88,1.45,12.39-5.32,11.56-8.15-.68-2.31-6.4-2.43-8.08-2.46-1.89-.04-8.48-.18-9.55,2.91Z"/>
</svg>