<?xml version="1.0" encoding="UTF-8"?>
<svg id="CharacterSide" xmlns="http://www.w3.org/2000/svg" viewBox="0 0 640 640">
  <defs>
    <style>
      .cls-1, .cls-2, .cls-3, .cls-4, .cls-5, .cls-6, .cls-7, .cls-8, .cls-9, .cls-10, .cls-11, .cls-12, .cls-13, .cls-14, .cls-15, .cls-16, .cls-17, .cls-18, .cls-19, .cls-20, .cls-21, .cls-22, .cls-23, .cls-24, .cls-25, .cls-26, .cls-27, .cls-28, .cls-29, .cls-30 {
        stroke-linecap: round;
        stroke-linejoin: round;
      }

      .cls-1, .cls-2, .cls-3, .cls-4, .cls-5, .cls-6, .cls-7, .cls-9, .cls-10, .cls-12, .cls-31, .cls-14, .cls-15, .cls-16, .cls-17, .cls-18, .cls-20, .cls-21, .cls-23, .cls-24, .cls-26, .cls-29, .cls-30 {
        stroke-width: 2.5px;
      }

      .cls-1, .cls-3, .cls-32, .cls-4, .cls-5, .cls-6, .cls-9, .cls-10, .cls-11, .cls-12, .cls-14, .cls-15, .cls-16, .cls-17, .cls-18, .cls-23, .cls-24, .cls-25, .cls-26, .cls-27, .cls-28 {
        fill: none;
      }

      .cls-1, .cls-4, .cls-5, .cls-10, .cls-18, .cls-23, .cls-24 {
        stroke: #5b4121;
      }

      .cls-2 {
        fill: #7a542b;
      }

      .cls-2, .cls-32, .cls-33, .cls-34, .cls-7, .cls-8, .cls-9, .cls-31, .cls-13, .cls-14, .cls-15, .cls-19, .cls-20, .cls-21, .cls-22, .cls-29, .cls-30 {
        stroke: #000;
      }

      .cls-3 {
        stroke-dasharray: 0 0 3.78 5.66;
      }

      .cls-3, .cls-6, .cls-12, .cls-16, .cls-17, .cls-26 {
        stroke: #6b6b6b;
      }

      .cls-32, .cls-33, .cls-34, .cls-31, .cls-35 {
        stroke-miterlimit: 10;
      }

      .cls-32, .cls-34 {
        stroke-width: 2.64px;
      }

      .cls-33, .cls-11, .cls-35, .cls-19, .cls-22, .cls-25, .cls-27, .cls-28 {
        stroke-width: 2px;
      }

      .cls-33, .cls-13, .cls-36 {
        fill: #ffedd7;
      }

      .cls-4 {
        stroke-dasharray: 0 0 2.97 4.46;
      }

      .cls-34, .cls-31 {
        fill: #f5e3d9;
      }

      .cls-5 {
        stroke-dasharray: 0 0 3.52 5.28;
      }

      .cls-6 {
        stroke-dasharray: 0 0 2.94 4.41;
      }

      .cls-7 {
        fill: #5b4d3c;
      }

      .cls-8 {
        fill: #fff;
      }

      .cls-9 {
        stroke-dasharray: 0 0 3.56 5.34;
      }

      .cls-10 {
        stroke-dasharray: 0 0 3.78 5.68;
      }

      .cls-11, .cls-15, .cls-24, .cls-27 {
        stroke-dasharray: 0 0 3.52 5.29;
      }

      .cls-11, .cls-25, .cls-28 {
        stroke: #ffedd7;
      }

      .cls-12 {
        stroke-dasharray: 0 0 3.17 4.75;
      }

      .cls-37 {
        fill: #efe8e6;
      }

      .cls-13 {
        stroke-width: 1.5px;
      }

      .cls-35 {
        fill: #f1a791;
      }

      .cls-35, .cls-27 {
        stroke: #bc695c;
      }

      .cls-16 {
        stroke-dasharray: 0 0 3.83 5.75;
      }

      .cls-18 {
        stroke-dasharray: 0 0 3.34 5.01;
      }

      .cls-19, .cls-29 {
        fill: #eac492;
      }

      .cls-20 {
        fill: #ebeded;
      }

      .cls-21 {
        fill: #299199;
      }

      .cls-22 {
        fill: #3f3f3f;
      }

      .cls-23 {
        stroke-dasharray: 0 0 3.65 5.47;
      }

      .cls-25 {
        stroke-dasharray: 0 0 2.99 4.49;
      }

      .cls-26 {
        stroke-dasharray: 0 0 3.01 4.52;
      }

      .cls-30 {
        fill: #cea678;
      }
    </style>
  </defs>
  <path class="cls-2" d="M92.39,552.33c1.41-.09,8.15-.31,26.2-.78,.48-.05,2.68-.33,4-2.16,.85-1.17,.94-2.43,1-3.17,.12-1.59-.32-2.81-.56-3.44-.14-.38-.53-1.42-1.28-2.33-1.82-2.24-4.76-2.55-5.56-2.61-10.01,.05-20.02,.1-30.04,.15-.17,4.77-.35,9.53-.52,14.3,1.15,.09,2.39,.15,3.71,.15,1.59,0,2.82-.08,3.04-.1Z"/>
  <path class="cls-2" d="M93.6,545.27c.75-7.55-.39-13.47-.97-16.03-1.07-4.67-2.68-8.55-4.23-11.57-1.54-.42-3.83-.86-6.58-.68-9.03,.58-14.59,7.24-15.41,8.25-7.39,9.13-4.17,20.58-3.85,21.63,4.59,1.95,10.76,4,18.24,4.96,4.31,.55,8.22,.64,11.6,.5"/>
  <path class="cls-11" d="M97.43,545.61c6.59-.11,13.19-.22,19.78-.33"/>
  <path class="cls-31" d="M90.47,429.11c-3.67,17.03-3.2,30.3-2.1,39.25,.69,5.6,2.35,14.9,3.85,22.81,2.61,13.69,4.3,20.18,2.96,29.63-.6,4.21-1.59,7.6-2.36,9.83,.23,1.58,.46,3.16,.69,4.74,.07,2.01,.15,4.02,.22,6.03,3.69,.29,6.81,.4,9.15,.44,5.99,.11,7.59-.22,8.89-1.33,1.9-1.63,2.25-4.21,2.37-5.04,.39-2.73-.48-4.92-.74-5.63-1.68-4.54-.54-8.23-.01-22.21,.16-4.21,.35-6.18,.39-8.76,.05-3.89-.19-6.75-.23-7.25-.28-4.32,.4-19.71,3.78-62.67-2.42-5.59-8.01-9.13-14-8.89-5.63,.23-10.66,3.77-12.86,9.05Z"/>
  <g>
    <path class="cls-28" d="M65.62,534.67c.18-.37,.45-.9,.83-1.55"/>
    <path class="cls-25" d="M69.17,529.56c1.34-1.4,3.09-2.82,5.34-3.93,2.08-1.02,4.07-1.53,5.78-1.77"/>
    <path class="cls-28" d="M82.53,523.68c.7-.02,1.29,0,1.76,.03"/>
  </g>
  <g>
    <path class="cls-29" d="M100.73,411.78c-9.92-.15-19.1,8.89-18.78,20.42-.43,3.16-.68,7.44-.04,12.42,.7,5.45,2.23,9.84,3.57,12.92-.15,5.01,.06,11.05,1.11,17.8,.88,5.65,2.17,10.63,3.52,14.81-1.03,1.44-2.31,3.57-3.2,6.37-1.25,3.93-1.16,7.35-.94,9.4-.51,.45-2.8,2.57-3,5.99-.19,3.17,1.5,6.25,4.34,8.03-3.12,.53-5.16,3.42-4.72,6.19,.37,2.32,2.42,4.22,5.01,4.47-5.16,3.01-7.73,7.45-6.72,10.63,.95,2.99,4.81,4.16,5.63,4.4,5.96,1.8,9.47-2.38,17.43-2.83,2.5-.14,6.21,.04,10.84,1.79,3.42,2.47,7.57,3.02,10.81,1.4,.6-.3,3.24-1.74,4.32-4.86,1.03-2.95,.02-5.51-.47-6.75-1.36-3.46-4.01-5.28-5.09-5.94,2.25-.41,3.96-2.24,4.17-4.42,.24-2.4-1.37-4.72-3.82-5.36,2.4-1.87,3.58-4.85,3.01-7.69-.66-3.3-3.39-4.89-3.82-5.14,0-2.25-.27-5.46-1.43-9.11-1.24-3.9-3.03-6.82-4.39-8.7,.47-5.5,.62-11.8,.11-18.74-.28-3.85-.74-7.44-1.29-10.77,1.14-3.39,2.25-7.7,2.76-12.78,.75-7.54-.11-13.9-1.09-18.35-1.94-9.09-9.61-15.49-17.83-15.61Z"/>
    <g>
      <path class="cls-1" d="M98.48,531.4c.55,.1,1.13,.2,1.74,.29"/>
      <path class="cls-18" d="M105.21,532.17c1.58,.07,3.26,.07,5.05-.03,3.41-.2,6.45-.73,9.04-1.38"/>
      <path class="cls-1" d="M121.71,530.09c.59-.18,1.15-.36,1.67-.54"/>
    </g>
    <g>
      <path class="cls-1" d="M86.78,519.58c.54,.14,1.11,.28,1.71,.42"/>
      <path class="cls-4" d="M92.86,520.83c1.48,.22,3.05,.39,4.71,.49,2.88,.18,5.53,.12,7.89-.07"/>
      <path class="cls-1" d="M107.69,521.03c.61-.07,1.19-.15,1.74-.24"/>
    </g>
    <g>
      <path class="cls-1" d="M105.36,507.44c.57,.04,1.15,.07,1.76,.1"/>
      <path class="cls-23" d="M112.58,507.51c.74-.04,1.49-.09,2.26-.16,1.43-.13,2.8-.3,4.09-.51"/>
      <path class="cls-1" d="M121.63,506.35c.59-.12,1.17-.25,1.72-.38"/>
    </g>
    <g>
      <path class="cls-1" d="M90.11,490.15c.4-.31,.88-.66,1.43-1.02"/>
      <path class="cls-10" d="M96.58,486.56c.48-.18,.97-.34,1.49-.49,1.79-.53,3.47-.8,4.96-.91"/>
      <path class="cls-1" d="M105.88,485.1c.66,.03,1.25,.08,1.76,.13"/>
    </g>
  </g>
  <path class="cls-33" d="M77.35,518.14c-.31,2.22,.75,3.97,1.3,4.89,.29,.48,2.46,3.64,4.98,3.53,2.63-.12,5.5-3.81,5.48-9.22-4.08-3.34-8.52-3.93-10.41-2.18-1.06,.98-1.33,2.71-1.37,2.98Z"/>
  <path class="cls-2" d="M188.68,552.33c1.41-.09,8.15-.31,26.2-.78,.48-.05,2.68-.33,4-2.16,.85-1.17,.94-2.43,1-3.17,.12-1.59-.32-2.81-.56-3.44-.14-.38-.53-1.42-1.28-2.33-1.82-2.24-4.76-2.55-5.56-2.61-10.01,.05-20.02,.1-30.04,.15-.17,4.77-.35,9.53-.52,14.3,1.15,.09,2.39,.15,3.71,.15,1.59,0,2.82-.08,3.04-.1Z"/>
  <path class="cls-2" d="M189.89,545.27c.75-7.55-.39-13.47-.97-16.03-1.07-4.67-2.68-8.55-4.23-11.57-1.54-.42-3.83-.86-6.58-.68-9.03,.58-14.59,7.24-15.41,8.25-7.39,9.13-4.17,20.58-3.85,21.63,4.59,1.95,10.76,4,18.24,4.96,4.31,.55,8.22,.64,11.6,.5"/>
  <path class="cls-11" d="M193.72,545.61c6.59-.11,13.19-.22,19.78-.33"/>
  <path class="cls-31" d="M186.76,429.11c-3.67,17.03-3.2,30.3-2.1,39.25,.69,5.6,2.35,14.9,3.85,22.81,2.61,13.69,4.3,20.18,2.96,29.63-.6,4.21-1.59,7.6-2.36,9.83,.23,1.58,.46,3.16,.69,4.74,.07,2.01,.15,4.02,.22,6.03,3.69,.29,6.81,.4,9.15,.44,5.99,.11,7.59-.22,8.89-1.33,1.9-1.63,2.25-4.21,2.37-5.04,.39-2.73-.48-4.92-.74-5.63-1.68-4.54-.54-8.23-.01-22.21,.16-4.21,.35-6.18,.39-8.76,.05-3.89-.19-6.75-.23-7.25-.28-4.32,.4-19.71,3.78-62.67-2.42-5.59-8.01-9.13-14-8.89-5.63,.23-10.66,3.77-12.86,9.05Z"/>
  <g>
    <path class="cls-28" d="M161.92,534.67c.18-.37,.45-.9,.83-1.55"/>
    <path class="cls-25" d="M165.47,529.56c1.34-1.4,3.09-2.82,5.34-3.93,2.08-1.02,4.07-1.53,5.78-1.77"/>
    <path class="cls-28" d="M178.82,523.68c.7-.02,1.29,0,1.76,.03"/>
  </g>
  <g>
    <path class="cls-29" d="M197.02,411.78c-9.92-.15-19.1,8.89-18.78,20.42-.43,3.16-.68,7.44-.04,12.42,.7,5.45,2.23,9.84,3.57,12.92-.15,5.01,.06,11.05,1.11,17.8,.88,5.65,2.17,10.63,3.52,14.81-1.03,1.44-2.31,3.57-3.2,6.37-1.25,3.93-1.16,7.35-.94,9.4-.51,.45-2.8,2.57-3,5.99-.19,3.17,1.5,6.25,4.34,8.03-3.12,.53-5.16,3.42-4.72,6.19,.37,2.32,2.42,4.22,5.01,4.47-5.16,3.01-7.73,7.45-6.72,10.63,.95,2.99,4.81,4.16,5.63,4.4,5.96,1.8,9.47-2.38,17.43-2.83,2.5-.14,6.21,.04,10.84,1.79,3.42,2.47,7.57,3.02,10.81,1.4,.6-.3,3.24-1.74,4.32-4.86,1.03-2.95,.02-5.51-.47-6.75-1.36-3.46-4.01-5.28-5.09-5.94,2.25-.41,3.96-2.24,4.17-4.42,.24-2.4-1.37-4.72-3.82-5.36,2.4-1.87,3.58-4.85,3.01-7.69-.66-3.3-3.39-4.89-3.82-5.14,0-2.25-.27-5.46-1.43-9.11-1.24-3.9-3.03-6.82-4.39-8.7,.47-5.5,.62-11.8,.11-18.74-.28-3.85-.74-7.44-1.29-10.77,1.14-3.39,2.25-7.7,2.76-12.78,.75-7.54-.11-13.9-1.09-18.35-1.94-9.09-9.61-15.49-17.83-15.61Z"/>
    <g>
      <path class="cls-1" d="M194.78,531.4c.55,.1,1.13,.2,1.74,.29"/>
      <path class="cls-18" d="M201.5,532.17c1.58,.07,3.26,.07,5.05-.03,3.41-.2,6.45-.73,9.04-1.38"/>
      <path class="cls-1" d="M218,530.09c.59-.18,1.15-.36,1.67-.54"/>
    </g>
    <g>
      <path class="cls-1" d="M183.07,519.58c.54,.14,1.11,.28,1.71,.42"/>
      <path class="cls-4" d="M189.16,520.83c1.48,.22,3.05,.39,4.71,.49,2.88,.18,5.53,.12,7.89-.07"/>
      <path class="cls-1" d="M203.98,521.03c.61-.07,1.19-.15,1.74-.24"/>
    </g>
    <g>
      <path class="cls-1" d="M201.66,507.44c.57,.04,1.15,.07,1.76,.1"/>
      <path class="cls-23" d="M208.88,507.51c.74-.04,1.49-.09,2.26-.16,1.43-.13,2.8-.3,4.09-.51"/>
      <path class="cls-1" d="M217.92,506.35c.59-.12,1.17-.25,1.72-.38"/>
    </g>
    <g>
      <path class="cls-1" d="M186.4,490.15c.4-.31,.88-.66,1.43-1.02"/>
      <path class="cls-10" d="M192.88,486.56c.48-.18,.97-.34,1.49-.49,1.79-.53,3.47-.8,4.96-.91"/>
      <path class="cls-1" d="M202.18,485.1c.66,.03,1.25,.08,1.76,.13"/>
    </g>
  </g>
  <path class="cls-33" d="M173.64,518.14c-.31,2.22,.75,3.97,1.3,4.89,.29,.48,2.46,3.64,4.98,3.53,2.63-.12,5.5-3.81,5.48-9.22-4.08-3.34-8.52-3.93-10.41-2.18-1.06,.98-1.33,2.71-1.37,2.98Z"/>
  <g>
    <path class="cls-29" d="M302.18,287.23c-9.94,10.61-13.99,22.03-15.2,25.56,0,0-4.88,14.2-9.85,33.87-1.35,5.36-3.33,11.92-4.78,20.94-.69,4.3-1.1,7.9-1.34,10.4-.78,1.06-2.31,3.46-2.67,6.89-.44,4.18,1.15,7.33,1.78,8.44-.18,.13-4.05,3.07-3.56,7.78,.39,3.67,3.14,5.69,3.58,6-4.15,3.48-5,8.64-2.91,11.56,1.65,2.3,4.7,2.61,5.46,2.66,.05,2.44,.1,4.88,.15,7.31-.01,.13-.11,1.27,.77,2.06,.64,.58,1.4,.6,1.6,.6,11.51,1.29,24.45,2.14,38.59,2.08,13.47-.06,25.84-.94,36.89-2.22,.22-.01,.87-.08,1.47-.58,.55-.46,.75-1.03,.81-1.25v-8c2.13-1.13,3.58-2.45,4.54-3.5,.87-.96,1.48-1.64,1.78-2.67,.78-2.64-1.17-5.2-1.63-5.78,.92-15.38,.66-28.33,.15-37.93-.89-16.75-1.85-33.09-7.7-53.04-3.97-13.52-8.86-24.21-12.6-31.44-1-1.3-8.57-10.81-19.1-10.04-6.92,.51-11.53,5.3-16.21,10.3Z"/>
    <path class="cls-14" d="M272.69,421.32c1.74,.22,4.23,.52,7.22,.83,13.59,1.4,23.87,1.49,32.44,1.56,0,0,8.98,.06,29.44-.93,1.24-.06,3.9-.2,7.33-.74,1.68-.26,3.02-.54,3.83-.72"/>
    <g>
      <path class="cls-14" d="M277.19,426.38c.58,.07,1.16,.14,1.75,.21"/>
      <path class="cls-9" d="M284.24,427.15c9.45,.92,19.81,1.48,30.97,1.41,10.25-.06,19.8-.64,28.56-1.52"/>
      <path class="cls-14" d="M346.42,426.76c.59-.06,1.17-.13,1.75-.2"/>
    </g>
    <path class="cls-15" d="M357.65,405.38c-4.99,.59-13.33,.91-22.96-2-7.05-2.13-12.42-5.27-16-7.78"/>
    <path class="cls-36" d="M271.56,406.02c1.39,.29,3.48,.66,6.04,.86,4.62,.36,17.88,1.51,21.61-4.63,1.65-2.72,.02-4.29-1.16-15.43-1.16-10.93,.11-12.19-1.54-18.52-1.07-4.09-2.38-9.12-6.56-13.89-3.77-4.3-8.12-6.43-10.75-7.47-1.31,4.23-2.56,8.84-3.66,13.8-1.36,6.17-2.28,11.96-2.89,17.26-.78,1.06-2.31,3.46-2.67,6.89-.44,4.18,1.15,7.33,1.78,8.44-.43,.29-2.93,2.02-3.41,5.26-.41,2.8,.84,5.66,3.23,7.43Z"/>
    <path class="cls-24" d="M271.81,406.93c5.83,.95,12.45,1.65,19.75,1.78,4.15,.07,8.06-.05,11.7-.3"/>
    <path class="cls-24" d="M271.78,393.15c2.6,.27,5.42,.44,8.44,.44,1.5,0,2.94-.04,4.33-.11"/>
    <path class="cls-24" d="M272.63,378c1.32,.19,2.71,.34,4.15,.44,5.1,.36,9.68-.02,13.56-.67"/>
    <path class="cls-30" d="M295.88,289.41c1.01,1.42,2.8,2.28,13.35,2.14,13.88-.17,19.31-1.74,22.89-3.11,7.1-2.71,7.99-4.89,8.22-5.78,.98-3.7-2.81-7.53-3.78-8.44-5.88-5.55-14.88-4.46-20.44-3.78-6.02,.73-15.01,1.83-19.11,8.67-1.6,2.66-3.18,7.4-1.12,10.3Z"/>
    <g>
      <path class="cls-13" d="M308.19,291.94c-2.75,5.14-5.46,10.74-8,16.82-6.81,16.3-10.56,31.55-12.63,44.49-.08,1.33-1.12,2.31-2.16,2.31-1.21,0-2.4-1.29-2.15-2.85,1.51-8.15,3.61-17.09,6.52-26.59,4.01-13.09,8.73-24.52,13.4-34.19,1.67,0,3.35,0,5.02,.01Z"/>
      <path class="cls-13" d="M285.87,343.29c.18-.87,2.87-1.77,4.61-.59,1.71,1.16,2.23,4.17,.73,5.44-.97,.82-2.65,.8-4.1-.09,.33-.51,.65-1.21,.54-1.98-.21-1.55-1.93-2.04-1.78-2.78Z"/>
      <path class="cls-13" d="M286.68,345.09c-.47-1.03-2.54-1.55-4.05-.76-1.3,.68-1.78,2.14-1.76,3.23,.04,2.31,2.41,4.26,4.53,4.14,1.73-.1,3.32-1.56,3.13-2.26-.17-.62-1.65-.29-2.17-1.22-.56-1.01,.8-2.09,.32-3.12Z"/>
    </g>
  </g>
  <g>
    <path class="cls-29" d="M429.23,298.98c-2.24,4.28-4.65,10.1-5.91,17.26-2.92,16.52,2.02,29.97,4.7,36.01-1.25,2.52-2.42,5.67-2.96,9.38-2.08,14.03,6.28,25.09,8.59,27.96-2,2.48-2.45,5.88-1.16,8.77,1.24,2.76,3.89,4.65,6.93,4.94-2.43,2.52-3.44,5.99-2.44,8.89,1.42,4.13,6.8,6.8,12.21,4.99-1.19,1.99-1.25,4.43-.12,6.34,1.34,2.27,3.73,2.78,4.12,2.86,2.19,.14,4.38,.28,6.56,.42,.21,.56,.83,1.96,2.34,3.05,1.5,1.09,3.03,1.24,3.62,1.27,3.09-.6,5.6-1.43,7.44-2.15,2.44-.96,7.02-2.81,11.45-6.95,.63-.59,1.13-1.1,1.47-1.47,.08-1.23,.07-2.77-.2-4.5-.2-1.34-.51-2.52-.84-3.5,.16-.07,3.52-1.64,3.95-5.33,.39-3.37-2-5.58-2.22-5.78,.88-.48,4-2.29,5.1-5.92,1.31-4.32-.78-9.46-5.33-12.44,.46-.58,3.53-4.61,2.41-9.66-1.06-4.76-5.42-8.45-10.84-9.01,.27-4.33,.27-14-5.33-24.07-3.34-6.01-7.49-10.03-10.44-12.44-2.74-6.95-6.29-14.6-10.94-22.58-2.32-3.98-4.68-7.66-7.03-11.05"/>
    <path class="cls-24" d="M449.17,417.16c2.6-2.67,6.98-6.53,13.36-9.51,5.62-2.63,10.72-3.61,14.22-4"/>
    <path class="cls-24" d="M485.02,412.54c-2.44,.16-5.61,.61-9.16,1.78-4.41,1.46-7.75,3.49-10,5.11"/>
    <path class="cls-24" d="M468.97,378.62c2.31-.28,6.28-.44,10.81,1.04,2.93,.96,5.18,2.3,6.74,3.41"/>
    <path class="cls-24" d="M440.52,402.17c1.15-1.5,3.08-3.66,6-5.56,2.74-1.78,5.33-2.66,7.11-3.11"/>
    <path class="cls-24" d="M433.64,389.58c1.4-3.44,3.97-8.38,8.66-12.96,10.17-9.95,22.87-10.95,26.67-11.11"/>
    <path class="cls-24" d="M428.01,352.24c1.26-2.47,3.3-5.75,6.51-8.96,2.02-2.02,4.04-3.54,5.78-4.67"/>
    <path class="cls-24" d="M462.31,327.87c-2.35-1.2-6.64-2.98-12.23-3.03-3.37-.03-6.18,.57-8.2,1.19"/>
  </g>
  <g>
    <path class="cls-29" d="M522.53,299.09c-2.24,4.28-4.65,10.1-5.91,17.26-2.92,16.52,2.02,29.97,4.7,36.01-1.25,2.52-2.42,5.67-2.96,9.38-2.08,14.03,6.28,25.09,8.59,27.96-2,2.48-2.45,5.88-1.16,8.77,1.24,2.76,3.89,4.65,6.93,4.94-2.43,2.52-3.44,5.99-2.44,8.89,1.42,4.13,6.8,6.8,12.21,4.99-1.19,1.99-1.25,4.43-.12,6.34,1.34,2.27,3.73,2.78,4.12,2.86,2.19,.14,4.38,.28,6.56,.42,.21,.56,.83,1.96,2.34,3.05,1.5,1.09,3.03,1.24,3.62,1.27,3.09-.6,5.6-1.43,7.44-2.15,2.44-.96,7.02-2.81,11.45-6.95,.63-.59,1.13-1.1,1.47-1.47,.08-1.23,.07-2.77-.2-4.5-.2-1.34-.51-2.52-.84-3.5,.16-.07,3.52-1.64,3.95-5.33,.39-3.37-2-5.58-2.22-5.78,.88-.48,4-2.29,5.1-5.92,1.31-4.32-.78-9.46-5.33-12.44,.46-.58,3.53-4.61,2.41-9.66-1.06-4.76-5.42-8.45-10.84-9.01,.27-4.33,.27-14-5.33-24.07-3.34-6.01-7.49-10.03-10.44-12.44-2.74-6.95-6.29-14.6-10.94-22.58-2.32-3.98-4.68-7.66-7.03-11.05"/>
    <path class="cls-24" d="M542.48,417.27c2.6-2.67,6.98-6.53,13.36-9.51,5.62-2.63,10.72-3.61,14.22-4"/>
    <path class="cls-24" d="M578.33,412.65c-2.44,.16-5.61,.61-9.16,1.78-4.41,1.46-7.75,3.49-10,5.11"/>
    <path class="cls-24" d="M562.27,378.73c2.31-.28,6.28-.44,10.81,1.04,2.93,.96,5.18,2.3,6.74,3.41"/>
    <path class="cls-24" d="M533.82,402.28c1.15-1.5,3.08-3.66,6-5.56,2.74-1.78,5.33-2.66,7.11-3.11"/>
    <path class="cls-24" d="M526.95,389.69c1.4-3.44,3.97-8.38,8.66-12.96,10.17-9.95,22.87-10.95,26.67-11.11"/>
    <path class="cls-24" d="M521.32,352.35c1.26-2.47,3.3-5.75,6.51-8.96,2.02-2.02,4.04-3.54,5.78-4.67"/>
    <path class="cls-24" d="M555.61,327.98c-2.35-1.2-6.64-2.98-12.23-3.03-3.37-.03-6.18,.57-8.2,1.19"/>
  </g>
  <g>
    <path class="cls-34" d="M257.94,166.78c.29,7.27,6.03,11.62,3.87,17.72-1.11,3.13-2.9,2.79-3.85,5.63-2.32,6.94,5.94,16.24,11.85,20.74,8.85,6.74,18.42,7.29,21.93,7.45,11.44,.5,20.02-3.81,23.7-5.97,4.22-2.55,11.31-7.7,15.74-16.64,7.94-15.99,6.36-41.98-13.46-54.17-20.21-12.43-43.71-.9-52.95,10.37-3.19,3.89-7.08,8.66-6.83,14.88Z"/>
    <g>
      <path class="cls-14" d="M262.85,197.49c-.27,.24-1.33,1.27-1.48,2.96-.12,1.32,.39,2.3,.59,2.67,.46,1.14,1.63,1.83,2.82,1.67,1.26-.17,2.25-1.26,2.29-2.57"/>
      <path class="cls-35" d="M298.08,208.6c.1,4.32-2.13,7.57-3.17,8.89-2.7,.44-7.7,.88-13.57-.82-5.39-1.56-9.14-4.23-11.2-5.94-.11-.59-.19-1.31-.16-2.13,.17-5.59,5.15-14.05,14.05-14.05,8.36,0,13.89,7.46,14.05,14.05Z"/>
      <path class="cls-27" d="M274.3,210.05c-.01-.45-.09-5.85,4.33-9,.58-.41,4.34-2.99,8.78-1.44,4.94,1.72,6.05,6.93,6.11,7.22,.76,3.85-1.14,6.83-1.56,7.44"/>
      <path class="cls-37" d="M265.2,174.39c-.56,1.6-1.46,4.81-1.2,8.87,.09,1.42,.49,7.55,4.5,11.61,3.12,3.17,7.18,3.83,10.4,2.61,6.76-2.55,9.09-12.8,9.8-15.92,.75-3.3,.9-6.17,.9-8.09-2.98-1.12-7.46-2.3-12.9-1.98-4.81,.28-8.74,1.64-11.49,2.9Z"/>
      <path class="cls-21" d="M270.24,172.56c-.95,1.81-2.04,4.5-2.44,7.96-.23,2.01-.73,8.67,2.7,13.7,.86,1.26,2.37,3.48,4.7,3.81,4.39,.63,7.51-6.01,7.7-6.42,2.65-5.84,.9-12.23,.5-13.7-.84-3.06-2.14-5.19-3-6.39-1.44-.05-3.01-.02-4.7,.13-2,.18-3.83,.51-5.46,.91Z"/>
      <path class="cls-22" d="M264,173.87c-.24-.68,3.27-3.59,5.4-4.96,3.16-2.02,9.71-4.76,20.89,0-.23,1.52-.47,3.04-.7,4.57-3.75-1.36-6.93-1.81-9.2-1.96-5.99-.38-11.13,1.01-11.7,1.17-2.73,.76-4.54,1.64-4.7,1.17Z"/>
      <path class="cls-8" d="M276.52,182.29c-2.3-.28-4.59,3.56-4.77,7.17-.12,2.39,.62,5.93,2.68,6.8,2.26,.95,4.88-1.84,5.62-4.86,.94-3.88-1.07-8.81-3.52-9.11Z"/>
    </g>
    <path class="cls-32" d="M257.94,166.78c.29,7.27,6.03,11.62,3.87,17.72-1.11,3.13-2.9,2.79-3.85,5.63-2.32,6.94,5.94,16.24,11.85,20.74,8.85,6.74,18.42,7.29,21.93,7.45,11.44,.5,20.02-3.81,23.7-5.97,3.75-2.67,13.56-10.42,17.48-24.05,4.27-14.86,1.37-36.14-15.2-46.77-19.35-12.4-43.38-1.32-52.95,10.37-3.21,3.92-7.08,8.68-6.83,14.88Z"/>
  </g>
  <g>
    <path class="cls-20" d="M233.66,139.12c.11,4.19,.91,12.51,5.93,21.33,6.84,12.03,17.86,18.31,18.37,17.78,.28-.29-2.58-2.58-4-7.26-.73-2.41-.83-4.63-.74-6.37,1.63,2.81,4.63,7.02,9.78,10.07,5.93,3.52,12.78,4.35,13.33,3.11,.45-1-3.55-2.57-5.04-7.11-.72-2.2-.58-4.26-.3-5.78,1.25,1.4,3.69,3.7,7.41,4.74,2.29,.64,4.93,.71,5.19,0,.25-.69-1.92-1.49-2.96-4-.48-1.15-.54-2.22-.52-2.96,1.57-1.81,3.25-4.01,4.87-6.62,1.12-1.8,2.04-3.52,2.8-5.12,2.84,1.42,15.2,7.98,19.96,21.52,1.35,3.84,3.41,9.69,1.78,16.44-1.15,4.77-3.54,7.49-2.52,8.53,1.48,1.51,8.17-2.48,12.85-6.18,5.37-4.25,8.48-9.27,10.26-12.87-1.31,6.92-3.83,11.28-6.07,14.07-1.05,1.31-2.43,2.76-2.07,3.26,.59,.83,5.84-1.85,8.74-3.7,8.68-5.53,12.73-14,14.33-17.33,14.03-29.31,2.37-55.41,2.37-55.41-14.56-32.59-57.6-45.3-84.15-34.07-11.9,5.03-18.96,14.22-20.06,15.69-11.73,15.64-10.11,33.47-9.53,38.23Z"/>
    <g>
      <path class="cls-17" d="M330.11,178.38c.21-.5,.42-1.05,.63-1.64"/>
      <path class="cls-26" d="M332.01,172.41c.4-1.72,.73-3.64,.91-5.73,.22-2.58,.16-4.93-.03-6.98"/>
      <path class="cls-17" d="M332.63,157.44c-.09-.62-.19-1.2-.3-1.73"/>
    </g>
    <g>
      <path class="cls-17" d="M253.22,164.6c-.36-.39-.76-.82-1.17-1.31"/>
      <path class="cls-6" d="M249.47,159.71c-.63-1.04-1.25-2.2-1.81-3.48-1.33-3.04-1.96-5.89-2.24-8.26"/>
      <path class="cls-17" d="M245.24,145.77c-.03-.65-.03-1.24-.02-1.76"/>
    </g>
    <g>
      <path class="cls-17" d="M243.04,105.99c-.05,.55-.08,1.14-.11,1.75"/>
      <path class="cls-16" d="M243.02,113.49c.22,2.93,.76,6.2,1.8,9.68,3.1,10.3,9.18,17.29,13.62,21.33"/>
      <path class="cls-17" d="M260.62,146.39c.51,.42,.98,.78,1.38,1.08"/>
    </g>
    <g>
      <path class="cls-17" d="M280.11,162.67c-.35-.42-.72-.87-1.1-1.37"/>
      <path class="cls-12" d="M276.29,157.4c-1.68-2.7-3.38-6.03-4.7-9.99-1.24-3.72-1.86-7.16-2.14-10.09"/>
      <path class="cls-17" d="M269.27,134.95c-.03-.62-.05-1.21-.05-1.76"/>
    </g>
    <g>
      <path class="cls-17" d="M292.33,136.45c.11-.55,.23-1.12,.33-1.73"/>
      <path class="cls-3" d="M293.29,129.1c.05-.88,.07-1.78,.07-2.72,0-1.36-.06-2.66-.16-3.89"/>
      <path class="cls-17" d="M292.9,119.67c-.08-.6-.18-1.18-.27-1.74"/>
    </g>
  </g>
  <path class="cls-29" d="M236.63,100.45c8.3-3.29,15.24-3.87,19.66-3.86,24.08,.05,40.85,17.89,47.62,25.06,4.28,4.53,9.71,13.95,20.59,32.79,0,0,7,11.89,8.57,23.1,.84,6.03,.35,10.12-.13,12.63-1.1,5.77-3.37,9.7-4.75,12.05-5.95,10.09-14.62,15.51-19.33,17.98,3.6-.42,8.76-1.09,14.93-2.17,25.97-4.55,43.01-7.54,52.98-17.87,12.04-12.49,10.25-32.11,9.15-44.16-2.79-30.63-22.04-78.52-65.75-88.88-2.16-.51-41.33-9.16-69.33,15.56-7,6.18-11.46,12.81-14.22,17.78Z"/>
  <path class="cls-19" d="M290.15,223.67c6.24-1.16,12.48-2.31,18.72-3.47,2.16-1.1,4.43-2.47,6.71-4.18,9.94-7.46,14.61-17.32,16.78-23.3-5.3,5.62-13.9,13.35-26.29,19.44-8.3,4.08-15.99,6.28-22.04,7.51,2.04,1.34,4.08,2.67,6.12,4.01Z"/>
  <path class="cls-36" d="M292.31,83.06c.83,2.18,7.14,2,11.56,.3,1.33-.51,4.78-1.84,4.74-3.56-.04-2.06-5.09-4.57-9.48-3.56-4.07,.94-7.55,4.88-6.81,6.81Z"/>
  <path class="cls-36" d="M236.63,100.45c6.32-1.97,19.45-5.01,34.67-.73,14.56,4.1,23.46,12.77,28.43,17.62,6.11,5.96,10.37,12.94,18.88,26.92,6.76,11.09,10.17,16.78,12.12,23.94,1.71,6.3,4.42,16.27,.46,27.51-3.2,9.1-9.31,14.87-11.77,17.14-3.93,3.63-7.78,5.94-10.55,7.35,4.2-.03,9.33-.53,14.93-2.17,16.19-4.75,25.81-15.94,29.72-21.13,.67-.28,12.98-5.68,14.67-17.33,1.6-11.04-6.98-23.19-20.89-26.22-2.44-8.67-7.55-22.1-18.67-35.11-18.5-21.65-41.37-27.78-45.78-28.89-16.16-4.07-29.89-2.51-37.63-1.04-1.37,1.71-2.76,3.53-4.15,5.48-1.63,2.29-3.11,4.52-4.44,6.67Z"/>
  <path class="cls-14" d="M236.63,100.45c8.3-3.29,15.24-3.87,19.66-3.86,24.08,.05,40.85,17.89,47.62,25.06,4.28,4.53,9.71,13.95,20.59,32.79,0,0,7,11.89,8.57,23.1,.84,6.03,.35,10.12-.13,12.63-1.1,5.77-3.37,9.7-4.75,12.05-5.95,10.09-14.62,15.51-19.33,17.98,3.6-.42,8.76-1.09,14.93-2.17,25.97-4.55,43.01-7.54,52.98-17.87,12.04-12.49,10.25-32.11,9.15-44.16-2.79-30.63-22.04-78.52-65.75-88.88-2.16-.51-41.33-9.16-69.33,15.56-7,6.18-11.46,12.81-14.22,17.78Z"/>
  <path class="cls-29" d="M325.41,81.86c5.79-2.69,14.59-6.02,25.78-7.41,8.44-1.05,12.76-1.52,16,1.19,8.59,7.18,.28,28.9-.59,31.11-2.81,7.15-6.61,12.35-9.35,15.58"/>
  <path class="cls-36" d="M351.7,112.45c2.6,.13,4.74-5.2,7.56-12.22,2.29-5.71,5.61-13.99,2.67-16.44-.79-.66-1.77-.68-2.67-.67-3.17,.04-8.76,.47-16.67,2.89,1.77,1.57,3.53,3.14,5.3,4.71-.82-.06-2.04-.15-3.52-.27-1.93-.15-3.85-.29-5.78-.44-5.36-.42-5.66-.45-5.78-.22-.62,1.2,6.4,3.97,11.78,11.11,4.82,6.41,4.61,11.43,7.11,11.56Z"/>
  <g>
    <path class="cls-1" d="M256.59,91.92c.26-.47,.55-.98,.88-1.52"/>
    <path class="cls-5" d="M260.46,86.05c2.2-2.84,5.18-5.99,9.13-8.86,6.62-4.81,13.29-6.88,18.05-7.81"/>
    <path class="cls-1" d="M290.24,68.95c.65-.09,1.23-.15,1.75-.2"/>
  </g>
  <path class="cls-7" d="M251.49,86.49c-.74,2.13,1.92,5.54,4.97,6.3,4.81,1.19,10.13-4.35,9.45-6.66-.56-1.88-5.23-1.99-6.61-2.01-1.54-.03-6.93-.15-7.81,2.38Z"/>
</svg>