<?xml version="1.0" encoding="UTF-8"?>
<svg id="CharacterSide" xmlns="http://www.w3.org/2000/svg" viewBox="0 0 640 640">
  <defs>
    <style>
      .cls-1, .cls-2, .cls-3, .cls-4, .cls-5, .cls-6, .cls-7, .cls-8, .cls-9, .cls-10, .cls-11, .cls-12, .cls-13, .cls-14, .cls-15, .cls-16, .cls-17, .cls-18, .cls-19, .cls-20, .cls-21, .cls-22, .cls-23, .cls-24, .cls-25, .cls-26, .cls-27, .cls-28, .cls-29, .cls-30, .cls-31, .cls-32, .cls-33, .cls-34, .cls-35, .cls-36 {
        stroke-linecap: round;
        stroke-linejoin: round;
      }

      .cls-1, .cls-2, .cls-3, .cls-4, .cls-5, .cls-7, .cls-8, .cls-9, .cls-10, .cls-37, .cls-15, .cls-16, .cls-17, .cls-18, .cls-20, .cls-21, .cls-28, .cls-29, .cls-30, .cls-31, .cls-33, .cls-35, .cls-36 {
        stroke-width: 2.5px;
      }

      .cls-1, .cls-2, .cls-38, .cls-4, .cls-5, .cls-7, .cls-8, .cls-10, .cls-11, .cls-12, .cls-13, .cls-14, .cls-16, .cls-18, .cls-19, .cls-20, .cls-21, .cls-22, .cls-25, .cls-26, .cls-27, .cls-28, .cls-29, .cls-30, .cls-32, .cls-33, .cls-34, .cls-35, .cls-36 {
        fill: none;
      }

      .cls-1, .cls-29, .cls-30 {
        stroke: #c4415e;
      }

      .cls-2 {
        stroke-dasharray: 0 0 3.33 4.99;
      }

      .cls-2, .cls-4, .cls-5, .cls-8, .cls-28, .cls-35, .cls-36 {
        stroke: #b37bdb;
      }

      .cls-3, .cls-38, .cls-39, .cls-6, .cls-7, .cls-9, .cls-10, .cls-37, .cls-15, .cls-17, .cls-18, .cls-20, .cls-23, .cls-24, .cls-31, .cls-32 {
        stroke: #000;
      }

      .cls-3, .cls-24 {
        fill: #eeaabc;
      }

      .cls-38, .cls-39, .cls-37, .cls-40 {
        stroke-miterlimit: 10;
      }

      .cls-38, .cls-39, .cls-32 {
        stroke-width: 2.64px;
      }

      .cls-4, .cls-20, .cls-21, .cls-29, .cls-33, .cls-34 {
        stroke-dasharray: 0 0 3.52 5.29;
      }

      .cls-39, .cls-37 {
        fill: #f5e3d9;
      }

      .cls-5 {
        stroke-dasharray: 0 0 3.61 5.42;
      }

      .cls-6 {
        fill: #fff;
      }

      .cls-7 {
        stroke-dasharray: 0 0 3.56 5.34;
      }

      .cls-8 {
        stroke-dasharray: 0 0 3.22 4.83;
      }

      .cls-9 {
        fill: #e0687c;
      }

      .cls-10 {
        stroke-dasharray: 0 0 3.46 5.19;
      }

      .cls-11, .cls-12, .cls-13, .cls-14, .cls-19, .cls-40, .cls-22, .cls-23, .cls-24, .cls-25, .cls-26, .cls-27, .cls-34 {
        stroke-width: 2px;
      }

      .cls-11, .cls-40, .cls-22, .cls-34 {
        stroke: #bc695c;
      }

      .cls-41 {
        fill: #ddc7bc;
      }

      .cls-12 {
        stroke-dasharray: 0 0 3.1 4.64;
      }

      .cls-12, .cls-13, .cls-19, .cls-25, .cls-26 {
        stroke: #2d2b2c;
      }

      .cls-13 {
        stroke-dasharray: 0 0 3.16 4.74;
      }

      .cls-14 {
        stroke-dasharray: 0 0 3.44 5.16;
      }

      .cls-14, .cls-27 {
        stroke: #f2b6cf;
      }

      .cls-15 {
        fill: #dfb6ff;
      }

      .cls-16, .cls-21 {
        stroke: #7a94dd;
      }

      .cls-42 {
        fill: #efe8e6;
      }

      .cls-17 {
        fill: #c4415e;
      }

      .cls-40 {
        fill: #f1a791;
      }

      .cls-22 {
        stroke-dasharray: 0 0 3.3 4.4;
      }

      .cls-23 {
        fill: #3f3f3f;
      }

      .cls-25 {
        stroke-dasharray: 0 0 3.54 5.31;
      }

      .cls-26 {
        stroke-dasharray: 0 0 3.83 5.75;
      }

      .cls-28 {
        stroke-dasharray: 0 0 3.66 5.49;
      }

      .cls-30 {
        stroke-dasharray: 0 0 3.35 5.02;
      }

      .cls-31 {
        fill: #5d6266;
      }

      .cls-33 {
        stroke: #ffdce9;
      }

      .cls-36 {
        stroke-dasharray: 0 0 3.61 5.42;
      }
    </style>
  </defs>
  <path class="cls-41" d="M302.75,217.4l8.46-2.81c2.42-1.19,4.85-2.38,7.27-3.57-.05,3.27,.31,7.25,1.69,11.52,.29,.91,.61,1.77,.95,2.59-1.06,.7-3.99,2.44-8.12,2.4-4.08-.04-6.95-1.8-8-2.52-.02-.52-.07-1.08-.15-1.66-.36-2.49-1.26-4.5-2.11-5.96Z"/>
  <path class="cls-32" d="M302.17,217.53c1.59,2.96,2.58,5.23,2.69,5.83,.06,.29,.09,.58,.09,.58,.05,.44,.06,.82,.06,1.08"/>
  <path class="cls-32" d="M318.48,212.39c-.03,2.65,.28,4.76,.59,6.22,.36,1.7,.85,3.2,1.1,3.94,.35,1.05,.69,1.93,.95,2.59"/>
  <path class="cls-9" d="M177.68,518.84c-.09,1.53-1.36,2.67-1.64,2.91-1.3,1.11-3.13,1.4-4.51,1-2.59-.77-3.55-4.04-4.09-5.91-2.31-7.95,1.3-15.82,1.88-15.71,.42,.08-1.65,4.17,.28,8.42,2.31,5.09,8.28,5.87,8.08,9.28Z"/>
  <path class="cls-15" d="M189.12,552.99c1.41-.09,8.15-.31,26.2-.78,.48-.05,2.68-.33,4-2.16,.85-1.17,.94-2.43,1-3.17,.12-1.59-.32-2.81-.56-3.44-.14-.38-.53-1.42-1.28-2.33-1.82-2.24-4.76-2.55-5.56-2.61-10.01,.05-20.02,.1-30.04,.15-.17,4.77-.35,9.53-.52,14.3,1.15,.09,2.39,.15,3.71,.15,1.59,0,2.82-.08,3.04-.1Z"/>
  <path class="cls-15" d="M190.33,545.93c.75-7.55-.39-13.47-.97-16.03-1.07-4.67-2.68-8.55-4.23-11.57-1.54-.42-3.83-.86-6.58-.68-9.03,.58-14.59,7.24-15.41,8.25-7.39,9.13-4.17,20.58-3.85,21.63,4.59,1.95,10.76,4,18.24,4.96,4.31,.55,8.22,.64,11.6,.5"/>
  <g>
    <path class="cls-1" d="M162.59,543.15c-.07-.44-.16-1.04-.21-1.75"/>
    <path class="cls-30" d="M162.7,536.4c.24-1.17,.61-2.41,1.17-3.68,2.6-5.86,7.51-8.36,8.89-9.04,1.97-.97,3.87-1.48,5.52-1.73"/>
    <path class="cls-1" d="M180.78,521.73c.7-.02,1.29,0,1.76,.03"/>
  </g>
  <path class="cls-37" d="M187.29,429.77c-3.67,17.03-3.2,30.3-2.1,39.25,.69,5.6,2.35,14.9,3.85,22.81,2.61,13.69,4.3,20.18,2.96,29.63-.6,4.21-1.59,7.6-2.36,9.83,.23,1.58,.46,3.16,.69,4.74,.07,2.01,.15,4.02,.22,6.03,3.69,.29,6.81,.4,9.15,.44,5.99,.11,7.59-.22,8.89-1.33,1.9-1.63,2.25-4.21,2.37-5.04,.39-2.73-.48-4.92-.74-5.63-1.68-4.54-.54-8.23-.01-22.21,.16-4.21,.35-6.18,.39-8.76,.05-3.89-.19-6.75-.23-7.25-.28-4.32,.4-19.71,3.78-62.67-2.42-5.59-8.01-9.13-14-8.89-5.63,.23-10.66,3.77-12.86,9.05Z"/>
  <path class="cls-29" d="M194.15,546.28c6.59-.11,13.19-.22,19.78-.33"/>
  <g>
    <path class="cls-11" d="M187.86,469.96c.31,.4,.62,.71,.91,.96"/>
    <path class="cls-22" d="M192.81,471.21c1.23-.78,2.41-2.28,3.24-4.34"/>
    <path class="cls-11" d="M196.73,464.76c.1-.42,.19-.85,.27-1.29"/>
  </g>
  <path class="cls-9" d="M179.6,524.4c-.23,1.88,1.07,3.55,1.36,3.91,1.34,1.64,3.51,2.4,5.27,2.21,3.33-.36,5.21-4.13,6.29-6.29,4.58-9.17,1.92-19.57,1.19-19.56-.53,0,1.08,5.45-2.21,10.2-3.94,5.69-11.39,5.32-11.9,9.52Z"/>
  <path class="cls-9" d="M81.27,518.84c-.09,1.53-1.36,2.67-1.64,2.91-1.3,1.11-3.13,1.4-4.51,1-2.59-.77-3.55-4.04-4.09-5.91-2.31-7.95,1.3-15.82,1.88-15.71,.42,.08-1.65,4.17,.28,8.42,2.31,5.09,8.28,5.87,8.08,9.28Z"/>
  <path class="cls-15" d="M92.71,552.99c1.41-.09,8.15-.31,26.2-.78,.48-.05,2.68-.33,4-2.16,.85-1.17,.94-2.43,1-3.17,.12-1.59-.32-2.81-.56-3.44-.14-.38-.53-1.42-1.28-2.33-1.82-2.24-4.76-2.55-5.56-2.61-10.01,.05-20.02,.1-30.04,.15-.17,4.77-.35,9.53-.52,14.3,1.15,.09,2.39,.15,3.71,.15,1.59,0,2.82-.08,3.04-.1Z"/>
  <path class="cls-15" d="M93.92,545.93c.75-7.55-.39-13.47-.97-16.03-1.07-4.67-2.68-8.55-4.23-11.57-1.54-.42-3.83-.86-6.58-.68-9.03,.58-14.59,7.24-15.41,8.25-7.39,9.13-4.17,20.58-3.85,21.63,4.59,1.95,10.76,4,18.24,4.96,4.31,.55,8.22,.64,11.6,.5"/>
  <g>
    <path class="cls-1" d="M66.18,543.15c-.07-.44-.16-1.04-.21-1.75"/>
    <path class="cls-30" d="M66.29,536.4c.24-1.17,.61-2.41,1.17-3.68,2.6-5.86,7.51-8.36,8.89-9.04,1.97-.97,3.87-1.48,5.52-1.73"/>
    <path class="cls-1" d="M84.37,521.73c.7-.02,1.29,0,1.76,.03"/>
  </g>
  <path class="cls-37" d="M90.88,429.77c-3.67,17.03-3.2,30.3-2.1,39.25,.69,5.6,2.35,14.9,3.85,22.81,2.61,13.69,4.3,20.18,2.96,29.63-.6,4.21-1.59,7.6-2.36,9.83,.23,1.58,.46,3.16,.69,4.74,.07,2.01,.15,4.02,.22,6.03,3.69,.29,6.81,.4,9.15,.44,5.99,.11,7.59-.22,8.89-1.33,1.9-1.63,2.25-4.21,2.37-5.04,.39-2.73-.48-4.92-.74-5.63-1.68-4.54-.54-8.23-.01-22.21,.16-4.21,.35-6.18,.39-8.76,.05-3.89-.19-6.75-.23-7.25-.28-4.32,.4-19.71,3.78-62.67-2.42-5.59-8.01-9.13-14-8.89-5.63,.23-10.66,3.77-12.86,9.05Z"/>
  <path class="cls-29" d="M97.74,546.28c6.59-.11,13.19-.22,19.78-.33"/>
  <g>
    <path class="cls-11" d="M91.45,469.96c.31,.4,.62,.71,.91,.96"/>
    <path class="cls-22" d="M96.4,471.21c1.23-.78,2.41-2.28,3.24-4.34"/>
    <path class="cls-11" d="M100.32,464.76c.1-.42,.19-.85,.27-1.29"/>
  </g>
  <path class="cls-9" d="M83.19,524.4c-.23,1.88,1.07,3.55,1.36,3.91,1.34,1.64,3.51,2.4,5.27,2.21,3.33-.36,5.21-4.13,6.29-6.29,4.58-9.17,1.92-19.57,1.19-19.56-.53,0,1.08,5.45-2.21,10.2-3.94,5.69-11.39,5.32-11.9,9.52Z"/>
  <g>
    <path class="cls-31" d="M275.4,431.13c-.66,2.95-1.37,5.79-2.09,8.52,1.22,1.1,2.95,2.39,5.15,3.32,2.71,1.15,5.09,1.28,6.71,1.2,.96,.7,2.62,1.7,4.81,1.92,2.55,.26,4.54-.66,5.58-1.25,1.57,.58,3.5,1.1,5.72,1.28,1.76,.15,3.34,.06,4.69-.13,1.59,.4,3.55,.7,5.79,.63,1.81-.05,3.41-.34,4.78-.7,2.86,.79,6.53,1.42,10.79,1.25,3.95-.16,7.35-.96,10.05-1.87,1.87,.49,4.69,.9,8.05,.14,2.82-.63,5.07-1.87,6.64-2.94-2.21-13.45-4.43-26.9-6.64-40.35-1.87,.04-4,.23-6.31,.7-2.31,.47-4.37,1.12-6.17,1.83-2.66-.37-5.87-.51-9.49,0-2.37,.33-4.5,.89-6.38,1.52-1.03-.2-2.3-.33-3.76-.22-1.57,.13-2.91,.51-3.96,.91-1.3-.81-3-1.68-5.07-2.22-1.64-.43-3.12-.54-4.33-.52-1.06-.44-2.29-.82-3.69-1.04-2.8-.44-5.2-.05-6.96,.46-3.04-1-6.08-2-9.12-2.99-.86,9.33-2.34,19.64-4.79,30.54Z"/>
    <g>
      <path class="cls-19" d="M286.91,440.62c.11-.57,.21-1.15,.31-1.73"/>
      <path class="cls-25" d="M288.08,433.64c.29-1.94,.57-3.95,.82-6.04,.38-3.1,.67-6.07,.89-8.9"/>
      <path class="cls-19" d="M289.98,416.05c.04-.59,.08-1.18,.11-1.76"/>
    </g>
    <g>
      <path class="cls-19" d="M296.82,442.96c.07-.58,.15-1.16,.22-1.75"/>
      <path class="cls-13" d="M297.61,436.5c.08-.66,.15-1.32,.23-1.99,.75-6.54,1.39-12.96,1.95-19.24"/>
      <path class="cls-19" d="M299.99,412.91c.05-.59,.1-1.17,.15-1.75"/>
    </g>
    <g>
      <path class="cls-19" d="M307.23,444.11c.08-.57,.16-1.16,.24-1.74"/>
      <path class="cls-12" d="M308.03,437.75c.11-.98,.21-1.97,.31-2.98,.34-3.52,.58-6.91,.75-10.15"/>
      <path class="cls-19" d="M309.2,422.31c.02-.59,.05-1.18,.06-1.76"/>
    </g>
    <g>
      <path class="cls-19" d="M338.64,443.42c-.09-.58-.17-1.16-.26-1.74"/>
      <path class="cls-26" d="M337.58,435.99c-.26-1.94-.52-3.91-.77-5.91-.44-3.49-.83-6.91-1.19-10.26"/>
      <path class="cls-19" d="M335.32,416.95c-.06-.59-.12-1.17-.17-1.75"/>
    </g>
    <g>
      <path class="cls-19" d="M317.8,444.04c0-.58,0-1.17-.02-1.76"/>
      <path class="cls-19" d="M317.63,436.28c-.02-.59-.05-1.18-.08-1.76"/>
    </g>
  </g>
  <path class="cls-9" d="M302.19,287.72c-9.94,10.61-13.99,22.03-15.2,25.56,0,0-19.51,56.8-20.3,100.59-.03,1.64,.11,4.19,1.83,5.98,1.33,1.39,3.1,1.81,4.17,1.96,.05,2.44,.1,4.88,.15,7.31-.01,.13-.11,1.27,.77,2.06,.64,.58,1.4,.6,1.6,.6,11.51,1.29,24.45,2.14,38.59,2.08,13.47-.06,25.84-.94,36.89-2.22,.22-.01,.87-.08,1.47-.58,.55-.46,.75-1.03,.81-1.25v-8c2.13-1.13,3.58-2.45,4.54-3.5,.87-.96,1.48-1.64,1.78-2.67,.78-2.64-1.17-5.2-1.63-5.78,.92-15.38,.66-28.33,.15-37.93-.89-16.75-1.85-33.09-7.7-53.04-3.97-13.52-8.86-24.21-12.6-31.44-1-1.3-8.57-10.81-19.1-10.04-6.92,.51-11.53,5.3-16.21,10.3Z"/>
  <path class="cls-17" d="M275.24,422.13c-.26-.49-.53-1.05-.77-1.67-.3-.75-.51-1.45-.66-2.07,0,0,0,0,0,0-.4-1.24-.55-2.56-.44-3.96,1.48-20.58,3.47-28.16,3.47-28.16,9.32-38.23,9.64-48.76,19.86-67.15,4.91-8.84,13.47-23.88,22.81-23.11,6.78,.56,10.5,4.92,17.78,2.37,1.21-.42,3.92-1.41,4.79-3.76,1.24-3.36-2.11-7.25-3.6-8.98-5.03-5.84-11.95-7.15-13.77-7.47-2.33-.41-7.57-1.26-13,1.3-2.41,1.14-3.88,2.52-6.72,5.25-5.92,5.68-9.41,11.17-10.62,13.17-3.58,5.86-5.43,10.85-6.33,13.33-7.37,20.3-12.38,41.94-12.81,43.82-.57,2.48-4.3,18.93-6.52,34.47-1.23,8.66-1.75,15.32-1.93,21.49-.05,1.61-.06,2.94-.07,3.85,0,1.19,.36,3.06,1.41,4.53,2.1,2.94,6.53,2.8,7.13,2.77Z"/>
  <g>
    <path class="cls-27" d="M270.36,416.98c-.08-.44-.18-1.03-.26-1.74"/>
    <path class="cls-14" d="M270,410.09c.11-1.37,.29-2.35,.36-2.77,1.14-6.36-.19-5.84,3.78-27,2.33-12.44,4.31-22.99,8.22-37.56,0,0,.26-.98,.49-1.8,5.15-18.69,14.14-32.81,14.14-32.81,5.77-9.07,10.18-12.94,13.93-15.41,6.12-4.03,9.17-3.48,10.07-3.26,3.7,.9,4.69,4.21,8.3,4.74,1.56,.23,3.07-.15,4.44-.8"/>
    <path class="cls-27" d="M335.92,292.07c.49-.36,.94-.74,1.36-1.11"/>
  </g>
  <path class="cls-18" d="M272.7,421.82c1.74,.22,4.23,.52,7.22,.83,13.59,1.4,23.87,1.49,32.44,1.56,0,0,8.98,.06,29.44-.93,1.24-.06,3.9-.2,7.33-.74,1.68-.26,3.02-.54,3.83-.72"/>
  <g>
    <path class="cls-18" d="M277.2,426.87c.58,.07,1.16,.14,1.75,.21"/>
    <path class="cls-7" d="M284.25,427.64c9.45,.92,19.81,1.48,30.97,1.41,10.25-.06,19.8-.64,28.56-1.52"/>
    <path class="cls-18" d="M346.43,427.25c.59-.06,1.17-.13,1.75-.2"/>
  </g>
  <path class="cls-20" d="M357.66,405.87c-4.99,.59-13.33,.91-22.96-2-7.05-2.13-12.42-5.27-16-7.78"/>
  <g>
    <path class="cls-18" d="M297.53,376.4c.47-.3,.96-.62,1.48-.95"/>
    <path class="cls-10" d="M303.5,372.84c6.66-3.62,16.04-7.58,27.82-9.48,7.48-1.21,14.19-1.3,19.7-.96"/>
    <path class="cls-18" d="M353.61,362.6c.6,.05,1.18,.11,1.75,.17"/>
  </g>
  <path class="cls-17" d="M281.92,385c-.52,5.02-.86,10.52-.89,16.44-.02,4.57,.15,8.87,.44,12.89,3.75,.84,8.32,1.56,13.56,1.78,5.29,.22,9.95-.13,13.78-.67,.26-4.11,.31-8.73,0-13.78-.38-6.1-1.23-11.55-2.22-16.22-2.91,.69-6.6,1.28-10.89,1.33-5.63,.06-10.35-.84-13.78-1.78Z"/>
  <path class="cls-17" d="M281.93,392.89c3.13,.84,7.21,1.63,12,1.78,5.71,.18,10.52-.62,14.03-1.47"/>
  <g>
    <path class="cls-24" d="M300.25,313.04c-.61,2.9-1.16,5.88-1.64,8.94-2.68,16.85-2.82,32.45-1.67,46.22,.24,1.31-.54,2.51-1.55,2.76-1.17,.29-2.64-.68-2.76-2.26-.52-6.64-1.22-18.73,0-27.38,.58-4.16,1.28-10.16,1.62-17.56,.85-1.85,1.85-3.81,3-5.85,1-1.76,2.01-3.38,3.01-4.87Z"/>
    <path class="cls-24" d="M292.91,357.56c-.04-.89,2.37-2.4,4.33-1.67,1.93,.72,3.16,3.52,2,5.11-.75,1.02-2.38,1.41-4,.89,.2-.57,.34-1.33,.06-2.06-.57-1.46-2.36-1.52-2.39-2.28Z"/>
    <path class="cls-24" d="M294.13,359.12c-.71-.88-2.84-.9-4.11,.22-1.1,.97-1.22,2.51-.94,3.56,.59,2.24,3.35,3.57,5.39,2.94,1.66-.51,2.85-2.31,2.5-2.94-.31-.57-1.68,.11-2.4-.67-.78-.84,.28-2.22-.43-3.11Z"/>
  </g>
  <g>
    <path class="cls-16" d="M461.88,426.79c2.2-1.74,5.3-3.83,9.33-5.56,4.71-2.02,8.96-2.8,12-3.11"/>
    <g>
      <path class="cls-9" d="M428.41,299.65c-1.97,5.75-3.94,11.51-5.91,17.26,0,3.64-.02,7.28-.02,10.92,1.14,2.07,2.27,4.15,3.41,6.22-.19,3.3-.42,6.64-.67,10-.71,9.52-1.61,18.79-2.67,27.78l6.67,6c-1.26,7.78-2.52,15.56-3.78,23.33,1.85,4.59,3.7,9.19,5.56,13.78,5.79,.97,11.58,1.93,17.37,2.9-.07,.2-.28,.87,0,1.66,.23,.66,.68,1.03,.87,1.16,1.05,2.13,2.09,4.26,3.14,6.39,2.19,.14,4.38,.28,6.56,.42,.21,.56,.83,1.96,2.34,3.05,1.5,1.09,3.03,1.24,3.62,1.27,3.09-.6,5.6-1.43,7.44-2.15,2.44-.96,7.02-2.81,11.45-6.95,.63-.59,1.13-1.1,1.47-1.47,.08-1.23,.07-2.77-.2-4.5-.2-1.34-.51-2.52-.84-3.5,.27-.45,.64-1.14,.96-2.03,.52-1.48,.61-2.75,.71-4.3,.04-.63,.07-1.44,.05-2.4,2.58-3.55,5.15-7.1,7.73-10.65l.88-10.88c-4.14-6.8-8.27-13.6-12.41-20.4,.36-2.83,.72-5.66,1.08-8.49-6.74-10-13.48-20-20.22-30l-.67-9.33c-6.25-7.23-12.5-14.46-18.75-21.69"/>
      <path class="cls-17" d="M448.35,419.49c2.95-2.85,5.91-5.7,8.86-8.55,5.41-2.44,10.81-4.89,16.22-7.33,4.16,.29,8.33,.58,12.49,.87,.1,1.12,.12,2.68-.24,4.51-.36,1.81-.97,3.24-1.48,4.23,.48,1.45,.94,3.08,1.31,4.87,.26,1.24,.45,2.42,.59,3.52-2.89,2.93-5.78,5.85-8.67,8.78l-14.11,2.44c-1.47-1.79-2.94-3.58-4.4-5.37-2.19-.14-4.38-.28-6.56-.42-1.33-2.52-2.67-5.03-4-7.55Z"/>
      <path class="cls-3" d="M458.4,427.58c3.75-3.55,7.5-7.1,11.25-10.65,4.68-1.2,9.36-2.4,14.04-3.6,.8,2.75,1.61,5.51,2.41,8.26-2.89,2.93-5.78,5.85-8.67,8.78l-14.11,2.44c-1.64-1.75-3.28-3.49-4.92-5.24Z"/>
      <path class="cls-20" d="M425.43,401.16l18.89-17.33c6.37-2.52,12.74-5.04,19.11-7.56"/>
      <path class="cls-20" d="M493.65,393.82c-3.31-.42-6.62-.84-9.93-1.26-6.22,.49-12.44,.99-18.67,1.48"/>
      <path class="cls-20" d="M483.21,354.05c-6.05-1.78-12.1-3.56-18.15-5.33-8.69,3.56-17.38,7.11-26.07,10.67"/>
    </g>
  </g>
  <g>
    <path class="cls-16" d="M554.59,426.79c2.2-1.74,5.3-3.83,9.33-5.56,4.71-2.02,8.96-2.8,12-3.11"/>
    <g>
      <path class="cls-9" d="M521.11,299.65c-1.97,5.75-3.94,11.51-5.91,17.26,0,3.64-.02,7.28-.02,10.92,1.14,2.07,2.27,4.15,3.41,6.22-.19,3.3-.42,6.64-.67,10-.71,9.52-1.61,18.79-2.67,27.78l6.67,6c-1.26,7.78-2.52,15.56-3.78,23.33,1.85,4.59,3.7,9.19,5.56,13.78,5.79,.97,11.58,1.93,17.37,2.9-.07,.2-.28,.87,0,1.66,.23,.66,.68,1.03,.87,1.16,1.05,2.13,2.09,4.26,3.14,6.39,2.19,.14,4.38,.28,6.56,.42,.21,.56,.83,1.96,2.34,3.05,1.5,1.09,3.03,1.24,3.62,1.27,3.09-.6,5.6-1.43,7.44-2.15,2.44-.96,7.02-2.81,11.45-6.95,.63-.59,1.13-1.1,1.47-1.47,.08-1.23,.07-2.77-.2-4.5-.2-1.34-.51-2.52-.84-3.5,.27-.45,.64-1.14,.96-2.03,.52-1.48,.61-2.75,.71-4.3,.04-.63,.07-1.44,.05-2.4,2.58-3.55,5.15-7.1,7.73-10.65l.88-10.88c-4.14-6.8-8.27-13.6-12.41-20.4,.36-2.83,.72-5.66,1.08-8.49-6.74-10-13.48-20-20.22-30l-.67-9.33c-6.25-7.23-12.5-14.46-18.75-21.69"/>
      <path class="cls-17" d="M541.06,419.49c2.95-2.85,5.91-5.7,8.86-8.55,5.41-2.44,10.81-4.89,16.22-7.33,4.16,.29,8.33,.58,12.49,.87,.1,1.12,.12,2.68-.24,4.51-.36,1.81-.97,3.24-1.48,4.23,.48,1.45,.94,3.08,1.31,4.87,.26,1.24,.45,2.42,.59,3.52-2.89,2.93-5.78,5.85-8.67,8.78l-14.11,2.44c-1.47-1.79-2.94-3.58-4.4-5.37-2.19-.14-4.38-.28-6.56-.42-1.33-2.52-2.67-5.03-4-7.55Z"/>
      <path class="cls-3" d="M551.11,427.58c3.75-3.55,7.5-7.1,11.25-10.65,4.68-1.2,9.36-2.4,14.04-3.6,.8,2.75,1.61,5.51,2.41,8.26-2.89,2.93-5.78,5.85-8.67,8.78l-14.11,2.44c-1.64-1.75-3.28-3.49-4.92-5.24Z"/>
      <path class="cls-20" d="M518.14,401.16l18.89-17.33c6.37-2.52,12.74-5.04,19.11-7.56"/>
      <path class="cls-20" d="M586.36,393.82c-3.31-.42-6.62-.84-9.93-1.26-6.22,.49-12.44,.99-18.67,1.48"/>
      <path class="cls-20" d="M575.92,354.05c-6.05-1.78-12.1-3.56-18.15-5.33-8.69,3.56-17.38,7.11-26.07,10.67"/>
    </g>
  </g>
  <g>
    <path class="cls-15" d="M444.33,81.4c1.93-12.91,23.68-21.38,40.3-18.37,20.86,3.77,37.31,26.36,36.74,46.22-.77,26.82-32.18,34.51-29.63,55.7,2.49,20.67,33.29,20.99,39.11,46.81,3.8,16.87-5.22,35.01-16.59,45.04-14.44,12.73-34.84,14.28-36.15,11.26-1.05-2.41,9.73-5.75,14.22-17.19,3.86-9.84,.73-19.71-1.19-25.48-5.4-16.28-14.14-15.47-21.93-32-2.94-6.24-8.78-18.63-5.93-32.59,2.58-12.6,10.05-15.76,11.85-32,1.07-9.66-1-13.76-2.96-16-3.25-3.71-7.1-2.8-11.78-5.36-9.04-4.94-17.52-16.37-16.07-26.05Z"/>
    <g>
      <path class="cls-35" d="M468.88,80.81c.35-.11,.93-.29,1.69-.48"/>
      <path class="cls-5" d="M475.9,79.4c4.77-.45,11.11-.03,16.68,3.78,10.51,7.19,10.61,21.17,10.67,27.85,.07,8.54-2.26,15.54-4.47,20.32"/>
      <path class="cls-35" d="M497.58,133.79c-.3,.56-.58,1.08-.85,1.54"/>
    </g>
    <g>
      <path class="cls-35" d="M484.67,127.43c-.06,.59-.13,1.17-.2,1.75"/>
      <path class="cls-36" d="M483.7,134.55c-1.41,8.39-3.5,14.96-5.34,19.74-2.23,5.78-4.33,9.58-4.31,15.4,.02,5.54,1.95,10.32,4.19,14.09"/>
      <path class="cls-35" d="M479.7,186.05c.35,.5,.69,.98,1.03,1.42"/>
    </g>
    <g>
      <path class="cls-35" d="M499.1,191.63c.37,.16,.91,.41,1.59,.75"/>
      <path class="cls-2" d="M505.01,194.88c4.65,3.1,10.62,8.47,13.65,16.89,4.61,12.79,.72,27.86-9.89,38.6"/>
      <path class="cls-35" d="M506.95,252.1c-.43,.39-.88,.78-1.33,1.15"/>
    </g>
    <g>
      <path class="cls-35" d="M473.62,190.14c.26,.54,.53,1.07,.81,1.57"/>
      <path class="cls-28" d="M477.37,196.34c1.2,1.61,2.36,2.89,3.36,3.88,3.75,3.72,6.31,4.53,9.78,8.3,1.69,1.84,2.98,3.71,3.97,5.43"/>
      <path class="cls-35" d="M495.74,216.38c.27,.58,.5,1.12,.7,1.61"/>
    </g>
    <path class="cls-4" d="M486.66,95.03c-.98-1.03-6.55-6.68-15.11-6.52-5.12,.1-8.86,2.23-10.54,3.34"/>
    <path class="cls-4" d="M481.03,110.14c-.1-.53-.88-4.32-4.44-6.22-2.29-1.22-4.51-1.01-5.33-.89"/>
  </g>
  <g>
    <path class="cls-39" d="M257.79,166.88c.29,7.27,6.03,11.62,3.87,17.72-1.11,3.13-2.9,2.79-3.85,5.63-2.32,6.94,5.94,16.24,11.85,20.74,8.85,6.74,18.42,7.29,21.93,7.45,11.44,.5,20.02-3.81,23.7-5.97,14.09-16.62,14.29-39.93,2.07-54.22-14.17-16.58-41.87-17.3-52.74-6.22-1.28,1.31-7.14,7.27-6.83,14.88Z"/>
    <path class="cls-40" d="M297.93,208.69c.1,4.32-2.13,7.57-3.17,8.89-2.7,.44-7.7,.88-13.57-.82-5.39-1.56-9.14-4.23-11.2-5.94-.11-.59-.19-1.31-.16-2.13,.17-5.59,5.15-14.05,14.05-14.05,8.36,0,13.89,7.46,14.05,14.05Z"/>
    <path class="cls-34" d="M274.14,210.15c-.01-.45-.09-5.85,4.33-9,.58-.41,4.34-2.99,8.78-1.44,4.94,1.72,6.05,6.93,6.11,7.22,.76,3.85-1.14,6.83-1.56,7.44"/>
    <path class="cls-38" d="M257.79,166.88c.29,7.27,6.03,11.62,3.87,17.72-1.11,3.13-2.9,2.79-3.85,5.63-2.32,6.94,5.94,16.24,11.85,20.74,8.8,6.7,18.37,7.28,21.93,7.45,15.61,.76,27.04-7.2,30.9-10.17,8.73-17.32,6.57-37.41-5.12-50.02-14.64-15.78-41.86-17.31-52.74-6.22-1.28,1.31-7.14,7.27-6.83,14.88Z"/>
    <path class="cls-42" d="M265.18,174.28c-.56,1.6-1.47,4.81-1.21,8.87,.09,1.42,.49,7.55,4.52,11.61,3.14,3.17,7.22,3.83,10.45,2.61,6.8-2.55,9.14-12.8,9.85-15.92,.75-3.3,.9-6.17,.9-8.09-3-1.12-7.5-2.3-12.97-1.98-4.84,.28-8.79,1.64-11.56,2.9Z"/>
    <path class="cls-9" d="M270.25,172.45c-.96,1.81-2.05,4.5-2.45,7.96-.23,2.01-.73,8.67,2.71,13.7,.87,1.26,2.38,3.48,4.73,3.81,4.42,.63,7.55-6.01,7.74-6.42,2.67-5.84,.91-12.23,.5-13.7-.84-3.06-2.15-5.19-3.02-6.39-1.45-.05-3.03-.02-4.72,.13-2.01,.18-3.85,.51-5.49,.91Z"/>
    <path class="cls-23" d="M263.98,173.76c-.24-.68,3.29-3.59,5.43-4.96,3.17-2.02,9.76-4.76,21.01,0-.23,1.52-.47,3.04-.7,4.57-3.77-1.36-6.97-1.81-9.25-1.96-6.02-.38-11.19,1.01-11.76,1.17-2.74,.76-4.56,1.64-4.72,1.17Z"/>
    <path class="cls-6" d="M278.6,176.92c-.2-.24-1.33-1.54-2.99-1.39-1.19,.11-2,.91-2.28,1.22,.6,1.9,1.35,4.79,1.64,8.39,.39,4.81-.27,7.79,.29,8.01,.68,.26,2.57-3.81,3.28-8.24,.53-3.28,.32-6.12,.05-7.99Z"/>
    <path class="cls-18" d="M263.55,205.03c.23-.06,.57-.15,.98-.29,1.49-.53,4-1.81,3.87-2.85-.13-.97-2.56-1.42-3.11-1.51"/>
  </g>
  <path class="cls-21" d="M339.52,96.98c4.87,2.54,18.5,10.45,26.67,27.26,10.34,21.28,4.37,41.28,2.96,45.63"/>
  <path class="cls-21" d="M350.19,129.58c3.31,7.84,7.17,19.95,7.11,34.96-.02,6.51-.78,12.29-1.78,17.19"/>
  <g>
    <path class="cls-15" d="M235.15,133.35c-1.97,12.85-.08,21.41,1.56,26.44,.25,.77,5.28,15.88,10.44,15.33,2.63-.28,4.41-4.52,5.48-8.2,.73,2.85,1.86,6.68,3.59,11.09,1.85,4.72,2.65,5.65,3.56,5.78,2.77,.38,5.78-7.04,6.22-8.16,2.24,.62,3.99,.51,5.34,.16,7.28-1.91,12.17-13.35,12-28.44,3.38,3.77,8.74,8.95,16.44,13.33,7.1,4.05,10.44,4.15,12,7.56,3.99,8.73-11.25,22.77-9.14,24.7,1.18,1.08,7.02-2.34,10.19-4.68,2.22-1.64,3.6-3.08,4-2.78,.6,.46-1.35,4.5-3.33,7.22-7.25,9.94-19.89,8.97-19.95,11.98-.05,2.48,12.36,6.72,25.41,5.09,20.05-2.51,33.69-17.85,40.19-26.64,4.13-2.24,10.16-6.26,15.11-13.11,11.8-16.35,7.96-35.72,6.89-41.11-5.82-29.38-31.97-44.3-38.74-48.16-7.67-4.37-23.87-13.72-45.71-11.17-25.49,2.97-40.64,20.02-44.44,24.44-13.21,15.35-15.95,31.73-17.11,39.33Z"/>
    <g>
      <path class="cls-35" d="M316.83,185.48c.42-.3,.89-.65,1.41-1.06"/>
      <path class="cls-8" d="M321.81,181.19c2.24-2.31,4.64-5.4,6.55-9.39,3.31-6.89,3.7-13.41,3.44-17.78"/>
      <path class="cls-35" d="M331.59,151.61c-.09-.69-.18-1.27-.26-1.74"/>
    </g>
    <path class="cls-4" d="M265.99,175.64c2.61-4.75,5.89-12.11,7.26-21.62,2.1-14.51-1.36-26.18-3.56-32"/>
    <path class="cls-4" d="M307.36,83.57c4.92,1.36,15.11,4.88,24.38,14.13,11.07,11.05,14.23,23.67,15.19,28.62"/>
    <path class="cls-4" d="M313.25,171.2c.25-2.61,.35-5.38,.26-8.31-.49-15.45-6.35-27.71-11.22-35.55"/>
  </g>
  <path class="cls-4" d="M359.15,183.13c2.38-2.98,7.02-9.61,8.67-19.33,1.76-10.4-.85-18.65-2.22-22.22"/>
  <path class="cls-9" d="M308.17,103.42c4.3,3.17,12.19,9.87,17.96,21.14,5.69,11.12,6.55,21.3,6.63,26.63,.84-.31,2.11-.67,3.67-.73,1.76-.07,3.19,.28,4.09,.57-.16-5.98-1.23-16.94-7.26-28.97-5.94-11.85-13.92-19.2-18.58-22.91-.74,.06-2.34,.3-3.95,1.41-1.44,.99-2.2,2.21-2.55,2.86Z"/>
  <path class="cls-9" d="M237.12,120.27c5.23-2.32,13.53-5.18,23.97-5.39,18.93-.38,32.64,8.19,37.78,11.8,.85-1.99,1.71-3.97,2.56-5.96-5.38-3.98-18.83-12.77-37.69-13.24-9.87-.25-17.95,1.86-23.36,3.8-.6,.93-1.23,2.06-1.79,3.41-.88,2.13-1.28,4.08-1.47,5.59Z"/>
  <path class="cls-9" d="M295.76,96.08c-.8,6.55,3.72,12.38,4.74,13.63,4.68,5.71,12.22,8.37,18.37,7.7,11.61-1.26,18.17-14.4,21.93-21.93,15.95-31.96,6.69-68.19,4.15-68.15-1.84,.03,3.78,18.98-7.7,35.56-13.74,19.83-39.69,18.54-41.48,33.19Z"/>
  <path class="cls-33" d="M320.35,110.76c3.96-3.9,8.59-9.27,12.74-16.3,7.47-12.67,9.84-24.74,10.67-32.3"/>
</svg>