<?xml version="1.0" encoding="UTF-8"?>
<svg id="CharacterFront" xmlns="http://www.w3.org/2000/svg" viewBox="0 0 640 640">
  <defs>
    <style>
      .cls-1, .cls-2, .cls-3, .cls-4, .cls-5, .cls-6, .cls-7, .cls-8, .cls-9, .cls-10, .cls-11, .cls-12, .cls-13, .cls-14, .cls-15, .cls-16, .cls-17, .cls-18, .cls-19, .cls-20, .cls-21, .cls-22, .cls-23, .cls-24, .cls-25, .cls-26, .cls-27, .cls-28, .cls-29, .cls-30, .cls-31, .cls-32, .cls-33, .cls-34, .cls-35, .cls-36, .cls-37, .cls-38 {
        stroke-linecap: round;
        stroke-linejoin: round;
      }

      .cls-1, .cls-2, .cls-3, .cls-4, .cls-6, .cls-39, .cls-7, .cls-8, .cls-9, .cls-11, .cls-13, .cls-14, .cls-15, .cls-16, .cls-18, .cls-20, .cls-21, .cls-22, .cls-23, .cls-24, .cls-25, .cls-26, .cls-29, .cls-30, .cls-31, .cls-32, .cls-35, .cls-36, .cls-37, .cls-38 {
        fill: none;
      }

      .cls-1, .cls-3, .cls-5, .cls-7, .cls-9, .cls-11, .cls-12, .cls-40, .cls-15, .cls-17, .cls-18, .cls-19, .cls-20, .cls-22, .cls-24, .cls-29, .cls-31, .cls-34, .cls-36, .cls-37, .cls-38 {
        stroke-width: 2.5px;
      }

      .cls-1, .cls-18, .cls-29 {
        stroke: #c4415e;
      }

      .cls-2 {
        stroke-dasharray: 0 0 3.03 4.54;
      }

      .cls-2, .cls-4, .cls-6, .cls-8, .cls-13, .cls-14, .cls-16, .cls-21, .cls-41, .cls-23, .cls-25, .cls-26, .cls-27, .cls-28, .cls-30, .cls-32 {
        stroke-width: 2px;
      }

      .cls-2, .cls-6, .cls-13, .cls-14, .cls-41, .cls-26 {
        stroke: #bc695c;
      }

      .cls-3 {
        stroke-dasharray: 0 0 3.33 4.99;
      }

      .cls-3, .cls-7, .cls-9, .cls-11, .cls-31, .cls-37, .cls-38 {
        stroke: #b37bdb;
      }

      .cls-4 {
        stroke-dasharray: 0 0 3.57 5.36;
      }

      .cls-4, .cls-8, .cls-21, .cls-23, .cls-25 {
        stroke: #2d2b2c;
      }

      .cls-5, .cls-39, .cls-42, .cls-10, .cls-12, .cls-40, .cls-15, .cls-17, .cls-19, .cls-20, .cls-22, .cls-24, .cls-27, .cls-28, .cls-33, .cls-34, .cls-35 {
        stroke: #000;
      }

      .cls-5, .cls-28, .cls-33 {
        fill: #eeaabc;
      }

      .cls-6 {
        stroke-dasharray: 0 0 2.67 3.57;
      }

      .cls-39, .cls-42, .cls-40, .cls-41 {
        stroke-miterlimit: 10;
      }

      .cls-39, .cls-42, .cls-33, .cls-35 {
        stroke-width: 2.64px;
      }

      .cls-7, .cls-22, .cls-36 {
        stroke-dasharray: 0 0 3.52 5.29;
      }

      .cls-42, .cls-40 {
        fill: #f5e3d9;
      }

      .cls-8 {
        stroke-dasharray: 0 0 3.87 5.8;
      }

      .cls-9 {
        stroke-dasharray: 0 0 3.61 5.42;
      }

      .cls-10 {
        fill: #fff;
      }

      .cls-11 {
        stroke-dasharray: 0 0 3.22 4.83;
      }

      .cls-12 {
        fill: #e0687c;
      }

      .cls-43 {
        fill: #ddc7bc;
      }

      .cls-14 {
        stroke-dasharray: 0 0 3.25 4.88;
      }

      .cls-15 {
        stroke-dasharray: 0 0 3.81 5.72;
      }

      .cls-16 {
        stroke-dasharray: 0 0 3.57 5.35;
      }

      .cls-16, .cls-30, .cls-32 {
        stroke: #f2b6cf;
      }

      .cls-17 {
        fill: #dfb6ff;
      }

      .cls-18 {
        stroke-dasharray: 0 0 3.25 4.88;
      }

      .cls-44 {
        fill: #efe8e6;
      }

      .cls-19 {
        fill: #c4415e;
      }

      .cls-41 {
        fill: #f1a791;
      }

      .cls-23 {
        stroke-dasharray: 0 0 3.18 4.77;
      }

      .cls-24 {
        stroke-dasharray: 0 0 3.04 4.56;
      }

      .cls-25 {
        stroke-dasharray: 0 0 3.11 4.67;
      }

      .cls-26 {
        stroke-dasharray: 0 0 2.81 3.75;
      }

      .cls-27 {
        fill: #3f3f3f;
      }

      .cls-29 {
        stroke-dasharray: 0 0 3.59 5.38;
      }

      .cls-31 {
        stroke-dasharray: 0 0 3.66 5.49;
      }

      .cls-32 {
        stroke-dasharray: 0 0 3.54 5.31;
      }

      .cls-34 {
        fill: #5d6266;
      }

      .cls-36 {
        stroke: #ffdce9;
      }

      .cls-38 {
        stroke-dasharray: 0 0 3.61 5.42;
      }
    </style>
  </defs>
  <path class="cls-40" d="M324.38,510.75c.46,2.77,1.33,6.83,3.08,11.52,1.45,3.87,2.71,6.07,3.72,8.22,3.05,6.49,3.51,11.95,4.31,18.79,1.08,9.19,2.73,20.55,5.07,35.27,1.43-.4,3.7-.84,6.48-.6,3.06,.26,5.4,1.24,6.78,1.94,.15-.4,.87-2.14,2.65-2.81,.52-.19,1-.25,1.39-.26,.62-11.14,.52-20.4,.26-27.14-.45-11.99-1.4-16.66-2.02-19.31-1.89-8-4.81-14.2-7.04-18.25-.48-.82-.96-1.78-1.38-2.88-.91-2.36-1.21-4.51-1.3-6.14,.14-7.29,.28-14.58,.42-21.87-1.02-6.36-6.76-10.84-12.89-10.37-6.54,.5-11.69,6.48-11.11,13.33,.52,6.86,1.05,13.72,1.57,20.57Z"/>
  <path class="cls-17" d="M272.35,591.62c1.2-2.35,2.39-4.69,3.59-7.04,1.67-3.75,7.5-6.48,14.3-6.77,7.41-.31,14.41,2.36,16.58,6.41,.96,2.47,1.93,4.94,2.89,7.41-.49,.39-7.19,5.55-19.14,5.41-11.39-.13-17.63-4.96-18.22-5.43Z"/>
  <path class="cls-40" d="M275.59,508.63c1.45,6.16,2.58,10.99,3.33,14.1,.18,.73,.54,2.26,.88,4.34,.26,1.6,.44,3.12,.55,4.53-.56,7.81-.78,16.52-.39,25.97,.46,10.99,1.66,20.94,3.17,29.66,1.06,4.59,5.22,7.64,9.49,7.27,3.53-.31,6.64-2.92,7.73-6.56,.76-4.53,1.78-11.02,2.84-18.89,.92-6.83,1.31-10.24,1.62-13.82,.49-5.73,.58-14.1-1.56-24.68,.02-1.54,0-3.13-.06-4.76-.2-5.66-.87-10.87-1.77-15.54-.84-7.02-1.67-14.04-2.51-21.06-.5-10.11-8.76-16.58-15.56-15.5-4.74,.75-8.86,5.18-10.35,10.93,.86,8,1.72,16.01,2.58,24.01Z"/>
  <path class="cls-17" d="M309.71,595.26c-5.2-8.62-15.92-8.77-18.8-8.81-2.92-.04-12.94-.18-18.78,7.92-6.05,8.4-2.42,18.45-2.09,19.31,1.68,1.51,8.87,7.62,19.84,7.61,11.65-.01,19.11-6.93,20.62-8.39,.46-1.1,3.93-9.83-.79-17.64Z"/>
  <g>
    <path class="cls-1" d="M290.66,591.17v1.76"/>
    <path class="cls-18" d="M290.66,597.82v13.82"/>
    <path class="cls-1" d="M290.66,614.08v1.76"/>
  </g>
  <path class="cls-17" d="M360.68,592.73c-.81-1.55-1.91-3.6-4.16-5.42-4.05-3.27-8.81-3.36-10.43-3.39-1.56-.03-5.74-.1-9.66,2.5-2.72,1.81-4.1,4.07-4.9,5.42-4.7,7.89-3.29,17.5-2.7,20.67,1.88,1.73,6.13,5.14,12.46,6.25,11.17,1.96,19.57-4.83,20.87-5.92,3.29-4.62,6.58-9.25,9.87-13.87-.08-1.88-.16-3.76-.24-5.64-.47-.87-1.63-2.74-3.92-4.11-1.9-1.14-3.7-1.4-4.67-1.48,.21,.64,.8,2.76-.2,4.98-.41,.91-.98,1.57-1.42,1.99,.46,1.15,.95,2.67,1.27,4.48,.33,1.88,.33,3.83,.33,3.75-.02-2.28-.37-6.14-2.51-10.21Z"/>
  <g>
    <path class="cls-13" d="M283.81,534.74c.08,.44,.19,.87,.32,1.28"/>
    <path class="cls-26" d="M285.97,539.26c.74,.77,1.58,1.25,2.44,1.35,2.1,.24,4.83-1.76,5.86-5.19"/>
    <path class="cls-13" d="M294.62,533.58c.04-.43,.06-.87,.05-1.32"/>
  </g>
  <g>
    <path class="cls-13" d="M333.8,529.52c.13,.43,.27,.85,.44,1.25"/>
    <path class="cls-6" d="M336.2,533.72c.76,.71,1.59,1.12,2.38,1.13,1.9,.01,4.08-2.31,4.55-5.87"/>
    <path class="cls-13" d="M343.21,527.19c-.01-.43-.05-.87-.12-1.32"/>
  </g>
  <g>
    <path class="cls-1" d="M344.3,587.94c-.3,.47-.61,.97-.92,1.5"/>
    <path class="cls-29" d="M341,594.26c-.29,.7-.56,1.43-.81,2.2-1.6,4.77-2.02,9.17-1.97,12.69"/>
    <path class="cls-1" d="M338.34,611.84c.05,.63,.11,1.22,.18,1.75"/>
  </g>
  <path class="cls-12" d="M300.46,594.35c-.23,1.88,1.07,3.55,1.36,3.91,1.34,1.64,3.51,2.4,5.27,2.21,3.33-.36,5.21-4.13,6.29-6.29,4.58-9.17,1.92-19.57,1.19-19.56-.53,0,1.08,5.45-2.21,10.2-3.94,5.69-11.39,5.32-11.9,9.52Z"/>
  <path class="cls-12" d="M351.49,589.84c-.23,1.88,1.07,3.55,1.36,3.91,1.34,1.64,3.51,2.4,5.27,2.21,3.33-.36,5.21-4.13,6.29-6.29,4.58-9.17,1.92-19.57,1.19-19.56-.53,0,1.08,5.45-2.21,10.2-3.94,5.69-11.39,5.32-11.9,9.52Z"/>
  <path class="cls-12" d="M281.79,593.59c.2,1.67-.95,3.16-1.21,3.48-1.19,1.46-3.12,2.14-4.69,1.97-2.96-.32-4.64-3.67-5.59-5.59-4.07-8.15-1.71-17.4-1.06-17.39,.47,0-.96,4.84,1.97,9.07,3.51,5.06,10.13,4.73,10.58,8.47Z"/>
  <path class="cls-12" d="M338.38,586.05c.19,1.52-.86,2.87-1.1,3.16-1.08,1.32-2.83,1.94-4.26,1.78-2.69-.29-4.21-3.34-5.08-5.08-3.7-7.41-1.55-15.8-.96-15.79,.43,0-.88,4.4,1.78,8.24,3.18,4.59,9.2,4.3,9.61,7.69Z"/>
  <path class="cls-42" d="M309.39,245.84c-1.54,1-5.11,3.36-7.53,7.9-1.49,2.79-2.84,5.31-1.81,7.94,1.02,2.59,3.86,4.14,6.35,4.41,1.55,.17,2.84-.17,3.61-.44,2.28-2.92,4.87-6,7.82-9.15,3.33-3.55,6.6-6.66,9.7-9.36-.48-1.19-1.63-3.45-4.01-4.55-2.4-1.11-4.77-.45-7.73,.38-3.08,.86-5.31,2.17-6.39,2.87Z"/>
  <g>
    <path class="cls-34" d="M245.17,399.78c-.94,2.95-1.94,5.79-2.97,8.52,1.73,1.1,4.18,2.39,7.29,3.32,3.85,1.15,7.21,1.28,9.5,1.2,1.35,.7,3.72,1.7,6.81,1.92,3.61,.26,6.44-.66,7.91-1.25,2.22,.58,4.95,1.1,8.11,1.28,2.49,.15,4.73,.06,6.64-.13,2.26,.4,5.04,.7,8.21,.63,2.56-.05,4.84-.34,6.76-.7,4.06,.79,9.26,1.42,15.29,1.25,5.59-.16,10.41-.96,14.23-1.87,2.64,.49,6.65,.9,11.4,.14,3.99-.63,7.18-1.87,9.4-2.94-3.13-13.45-6.27-26.9-9.4-40.35-2.65,.04-5.66,.23-8.94,.7-3.27,.47-6.2,1.12-8.74,1.83-3.77-.37-8.32-.51-13.44,0-3.35,.33-6.38,.89-9.04,1.52-1.46-.2-3.26-.33-5.32-.22-2.22,.13-4.12,.51-5.61,.91-1.84-.81-4.26-1.68-7.18-2.22-2.33-.43-4.41-.54-6.13-.52-1.5-.44-3.25-.82-5.22-1.04-3.97-.44-7.37-.05-9.85,.46-4.31-1-8.61-2-12.92-2.99-1.21,9.33-3.31,19.64-6.79,30.54Z"/>
    <g>
      <path class="cls-21" d="M261.47,409.27c.15-.56,.29-1.13,.44-1.71"/>
      <path class="cls-4" d="M263.12,402.34c.42-1.95,.81-3.98,1.17-6.09,.53-3.09,.94-6.07,1.26-8.89"/>
      <path class="cls-21" d="M265.83,384.69c.06-.59,.11-1.18,.16-1.75"/>
    </g>
    <g>
      <path class="cls-21" d="M275.51,411.61c.1-.58,.2-1.16,.31-1.73"/>
      <path class="cls-23" d="M276.62,405.17c.11-.67,.22-1.33,.33-2,1.06-6.54,1.97-12.96,2.76-19.24"/>
      <path class="cls-21" d="M280,381.55c.07-.58,.14-1.17,.21-1.75"/>
    </g>
    <g>
      <path class="cls-21" d="M290.26,412.76c.11-.57,.22-1.15,.33-1.73"/>
      <path class="cls-25" d="M291.38,406.43c.15-.99,.3-1.99,.44-3,.48-3.52,.83-6.9,1.06-10.13"/>
      <path class="cls-21" d="M293.04,390.96c.03-.59,.06-1.18,.09-1.76"/>
    </g>
    <g>
      <path class="cls-21" d="M334.75,412.07c-.12-.57-.24-1.15-.36-1.72"/>
      <path class="cls-8" d="M333.25,404.66c-.38-1.95-.74-3.93-1.1-5.93-.62-3.49-1.18-6.91-1.68-10.26"/>
      <path class="cls-21" d="M330.04,385.59c-.08-.58-.17-1.16-.25-1.74"/>
    </g>
    <g>
      <path class="cls-21" d="M305.23,412.69c0-.58-.01-1.17-.02-1.76"/>
      <path class="cls-21" d="M304.98,404.92c-.03-.59-.07-1.18-.11-1.76"/>
    </g>
  </g>
  <path class="cls-20" d="M300.62,390.67c3.78,.94,8.82,2,14.82,2.73,7.86,.96,13.54,.88,20.81,.79,12.19-.16,16.22-1.19,17.94-1.68,4.21-1.19,7.52-2.78,9.76-4"/>
  <path class="cls-20" d="M264.85,351.72c.66,.81,1.41,1.84,2.11,3.12,.68,1.25,1.14,2.41,1.46,3.39"/>
  <path class="cls-5" d="M301.17,254.9c-2.28,2.78-2.02,6.89,.57,9.33,2.54,2.41,6.57,2.49,9.23,.16-1.68,2.26-3.93,5.67-5.84,10.16-2.3,5.37-3.06,9.79-3.6,13.05-2.33,14.07-3.49,21.1-4.1,26.78-1.25,11.62-1.62,19.78-2.12,30.79-.4,8.8-.42,14.32-.05,20.71,.25,4.45,.64,8.16,.96,10.8-3.11-.14-6.77-.53-10.79-1.39-4.65-.99-8.61-2.37-11.81-3.71,.51-3.12,1.32-7.87,2.46-13.64,1.57-7.9,2.24-10.05,3.67-17.1,1.51-7.47,1.44-8.44,3.34-19.17,.92-5.17,2.15-12.11,3.91-20.38,2.11-9.91,3.74-17.57,6.85-27.21,2.39-7.41,4.96-13.84,7.33-19.18Z"/>
  <path class="cls-33" d="M294.33,271.94c.62,.71,2.03,2.11,4.31,2.94,2.33,.85,4.36,.64,5.29,.49"/>
  <path class="cls-19" d="M274.29,366.81c2.92,1.17,6.54,2.35,10.77,3.2,3.98,.8,7.57,1.11,10.59,1.18,.19,1.83,.38,3.66,.57,5.49-3.76-.17-8.32-.7-13.37-1.99-3.5-.9-6.58-1.99-9.22-3.1,.22-1.59,.45-3.18,.67-4.77Z"/>
  <g>
    <path class="cls-12" d="M325.03,243.36c1.27,1.02,1.76,2.53,1.98,3.67-1.54,1.49-3.74,3.65-6.29,6.35-3.68,3.88-8.35,9.12-10.7,12.27-2.86,3.83-5.71,8.78-8.61,22.97-4.48,21.87-5.33,39.6-6,54.94-.27,6.11-.5,14.01,0,24.01,.27,5.44,.69,10,1.04,13.31,.27,2.23,.3,3.97,.26,5.22-.03,.88-.1,1.83,.52,2.61,.36,.45,.84,.71,1.7,1.17,.68,.37,1.27,.62,1.7,.78-.02,2.23,.03,4.17,.09,5.74,.11,2.96,.26,4.05,1.09,4.96,.8,.88,1.89,1.18,2.61,1.31,4.77,.62,11.09,1.29,18.54,1.67,8.47,.42,14.74,.74,22.83-.23,4.76-.57,11.2-1.71,18.66-4.18-1.21-30.86-3.44-62.96-6.92-96.18-1.15-11-2.41-21.85-3.77-32.53,1.63-3.08,3.26-6.17,4.88-9.25l-7.12-7.54c-1.99-2.57-5.2-6.15-9.92-9.4-2.65-1.82-8.62-5.93-16.18-6.79-4.58-.52-8.92,.26-21.76,6.12-6.62,3.03-15.5,7.41-25.74,13.45-2.88,21.76-9.29,49.81-23.89,79.68-5.44,11.12-11.28,21-17.08,29.68-.47,.56-1.22,1.63-1.5,3.13-.29,1.58,.09,2.83,.29,3.52,1.34,4.45,7.67,10.43,8.09,10.82v12.57c2.4,.9,5.59,1.83,9.43,2.25,5,.55,9.22,.02,12.14-.59,.3-.05,.97-.22,1.6-.78,.73-.65,.95-1.44,1.01-1.73,.01-2.51,.02-5.02,.03-7.54,1.38-.87,2.76-1.74,4.14-2.61,.26-4.05,.79-10.3,1.96-17.88,2.03-13.2,3.71-15.59,6.56-31.6,1.56-8.73,1.41-9.98,3.57-21.77,1.39-7.61,2.51-12.86,3.18-15.92,.79-3.61,1.82-8.4,3.47-14.55,.84-3.15,3.36-12.42,7.76-23.94,1.95-5.12,2.94-7.17,4.83-9.4,3.99-4.69,8.82-6.4,11.48-7.31,3.54-1.2,7.5-2.55,10.05-.49Z"/>
    <path class="cls-20" d="M268.03,388.84c-.67,.24-1.64,.55-2.84,.85-2.03,.51-4.77,.97-10.18,.88-2.92-.05-6.72-.26-11.19-.91"/>
    <path class="cls-22" d="M305.53,397.06c7.95,1.45,18.09,2.56,29.82,2.02,9.27-.42,17.39-1.77,24.08-3.33"/>
    <path class="cls-22" d="M262.34,394.45c-2.83,.27-6.08,.41-9.66,.26-3.27-.13-6.24-.48-8.86-.91"/>
    <path class="cls-20" d="M300.11,390.8c3.78,.94,8.82,2,14.82,2.73,7.86,.96,13.54,.88,20.81,.79,12.19-.16,16.22-1.19,17.94-1.68,4.21-1.19,7.52-2.78,9.76-4"/>
    <path class="cls-19" d="M334.42,240.83c.53-.36,1.55-1.03,2.99-1.21,1.63-.2,2.89,.31,3.4,.55,1.44,.72,3.07,1.66,4.78,2.89,1.9,1.36,3.45,2.75,4.67,4,.28,.4,.77,1.21,.89,2.33,.19,1.77-.67,3.08-.92,3.44-8.34,4.85-20.71,13.66-29.64,28.56-4.89,8.16-8.62,17.79-12.44,47.7-1.96,15.32-4.01,36.47-4.44,62.07-2.14-.3-3.74-.85-4.77-1.29-.78-.33-1.28-.63-1.7-1.17-.35-.46-.44-.94-.52-2.61-.04-.85-.08-1.96-.07-3.26-.36-3.28-.8-7.78-1.12-13.14-.84-14.12-.29-24.62,.25-34.38,.78-14.05,2.24-24.18,5.18-44.44,.4-2.73,1.09-7.34,3.19-13.05,2.32-6.31,5.29-11.06,7.43-14.06,1.56-1.81,3.78-4.36,6.52-7.38,.7-.77,.68-.75,6.51-6.99,0,0,4.74-5.08,9.82-8.57Z"/>
    <path class="cls-19" d="M272.17,386.23c.55-9.46,1.71-17,2.65-22.05,1.53-8.26,2.62-10.75,4.76-21.57,1.53-7.7,1.38-8.44,3.24-19.32,1.55-9.02,3.08-18,5.72-29.19,3.02-12.82,4.52-19.23,7.49-26.31,1.02-2.44,3.15-7.22,5.92-14.54,1.55-4.09,2.73-7.47,3.5-9.7-.3-.27-.78-.64-1.46-.83-1.22-.35-2.31,.1-2.81,.3-2.05,.82-4.18,1.39-6.22,2.22-1.08,.44-4.67,1.88-7.7,3.56-.37,.21-1.04,.58-1.63,1.33-1.01,1.29-1.07,2.78-1.09,3.15-2.74,40.7-12.92,80.56-19.06,120.89-.48,3.18-1.37,8.84-2.62,15.99,1.26-.11,3.12-.42,5.17-1.32,1.86-.81,3.23-1.82,4.14-2.61Z"/>
  </g>
  <path class="cls-19" d="M312.88,353.65c-.52,5.02-.86,10.52-.89,16.44-.02,4.57,.15,8.87,.44,12.89,3.75,.84,8.32,1.56,13.56,1.78,5.29,.22,9.95-.13,13.78-.67,.26-4.11,.31-8.73,0-13.78-.38-6.1-1.23-11.55-2.22-16.22-2.91,.69-6.6,1.28-10.89,1.33-5.63,.06-10.35-.84-13.78-1.78Z"/>
  <path class="cls-19" d="M312.88,361.54c3.13,.84,7.21,1.63,12,1.78,5.71,.18,10.52-.62,14.03-1.47"/>
  <path class="cls-19" d="M264.14,350.28c-1.32,5-2.58,10.19-3.78,15.56-.89,4-1.7,7.93-2.44,11.78-1.93,.24-5.14,.39-8.89-.67-4.56-1.29-7.6-3.72-9.11-5.11,2.59-4.34,5.19-8.91,7.78-13.7,2.34-4.34,4.51-8.58,6.53-12.72,1.29,.93,2.89,1.93,4.8,2.87,1.87,.91,3.61,1.55,5.11,2Z"/>
  <path class="cls-19" d="M252.48,351.17c1.61,1.32,3.84,2.82,6.7,4,1.21,.5,2.37,.86,3.43,1.13"/>
  <g>
    <path class="cls-28" d="M335.38,263.57c-2.05,7.11-3.91,15.05-5.27,23.77-2.77,17.7-2.72,33.45-1.67,46.22,.24,1.31-.54,2.51-1.55,2.76-1.17,.29-2.64-.68-2.76-2.26-.47-8.28-.56-17.46,0-27.38,.78-13.67,2.64-25.9,4.87-36.4,.9-1.1,1.9-2.24,3-3.41,1.15-1.22,2.29-2.32,3.38-3.3Z"/>
    <path class="cls-28" d="M324.41,322.92c-.04-.89,2.37-2.4,4.33-1.67,1.93,.72,3.16,3.52,2,5.11-.75,1.02-2.38,1.41-4,.89,.2-.57,.34-1.33,.06-2.06-.57-1.46-2.36-1.52-2.39-2.28Z"/>
    <path class="cls-28" d="M325.63,324.47c-.71-.88-2.84-.9-4.11,.22-1.1,.97-1.22,2.51-.94,3.56,.59,2.24,3.35,3.57,5.39,2.94,1.66-.51,2.85-2.31,2.5-2.94-.31-.57-1.68,.11-2.4-.67-.78-.84,.28-2.22-.43-3.11Z"/>
  </g>
  <g>
    <path class="cls-12" d="M403.12,273.22c-1.97,5.75-3.94,11.51-5.91,17.26,0,3.64-.02,7.28-.02,10.92,1.14,2.07,2.27,4.15,3.41,6.22-.19,3.3-.42,6.64-.67,10-.71,9.52-1.61,18.79-2.67,27.78,2.22,2,4.44,4,6.67,6l-3.78,23.33c1.85,4.59,3.7,9.19,5.56,13.78,5.79,.97,11.58,1.93,17.37,2.9-.07,.2-.28,.87,0,1.66,.23,.66,.68,1.03,.87,1.16,1.05,2.13,2.09,4.26,3.14,6.39,2.19,.14,4.38,.28,6.56,.42,.21,.56,.83,1.96,2.34,3.05,1.5,1.09,3.03,1.24,3.62,1.27,3.09-.6,5.6-1.43,7.44-2.15,2.44-.96,7.02-2.81,11.45-6.95,.63-.59,1.13-1.1,1.47-1.47,.08-1.23,.07-2.77-.2-4.5-.2-1.34-.51-2.52-.84-3.5,.27-.45,.64-1.14,.96-2.03,.52-1.48,.61-2.75,.71-4.3,.04-.63,.07-1.44,.05-2.4,2.58-3.55,5.15-7.1,7.73-10.65,.29-3.63,.59-7.26,.88-10.88-4.14-6.8-8.27-13.6-12.41-20.4,.36-2.83,.72-5.66,1.08-8.49-6.74-10-13.48-20-20.22-30-.22-3.11-.44-6.22-.67-9.33-8.18-9.46-16.36-18.92-24.54-28.39"/>
    <path class="cls-19" d="M423.07,393.05c2.95-2.85,5.91-5.7,8.86-8.55,5.41-2.44,10.81-4.89,16.22-7.33,4.16,.29,8.33,.58,12.49,.87,.1,1.12,.12,2.68-.24,4.51-.36,1.81-.97,3.24-1.48,4.23,.48,1.45,.94,3.08,1.31,4.87,.26,1.24,.45,2.42,.59,3.52-2.89,2.93-5.78,5.85-8.67,8.78l-14.11,2.44c-1.47-1.79-2.94-3.58-4.4-5.37-2.19-.14-4.38-.28-6.56-.42-1.33-2.52-2.67-5.03-4-7.55Z"/>
    <path class="cls-5" d="M433.12,401.15c3.75-3.55,7.5-7.1,11.25-10.65,4.68-1.2,9.36-2.4,14.04-3.6,.8,2.75,1.61,5.51,2.41,8.26-2.89,2.93-5.78,5.85-8.67,8.78l-14.11,2.44c-1.64-1.75-3.28-3.49-4.92-5.24Z"/>
    <path class="cls-22" d="M400.15,374.72l18.89-17.33c6.37-2.52,12.74-5.04,19.11-7.56"/>
    <path class="cls-22" d="M468.37,367.39c-3.31-.42-6.62-.84-9.93-1.26-6.22,.49-12.44,.99-18.67,1.48"/>
    <path class="cls-22" d="M457.93,327.61c-6.05-1.78-12.1-3.56-18.15-5.33-8.69,3.56-17.38,7.11-26.07,10.67"/>
  </g>
  <g>
    <g>
      <path class="cls-12" d="M211.78,255.67c-11.28,6.51-22.56,13.02-33.85,19.53-.46,2.86-.91,5.72-1.37,8.58-7.94,4.32-15.88,8.63-23.82,12.95-.59,2.89-1.18,5.77-1.76,8.65-3.87,4.43-7.75,8.87-11.62,13.3,1.15,1.35,2.29,2.7,3.44,4.04-1.83,3.78-3.65,7.57-5.48,11.35l6.46,7.34c1.9,4.04,4.8,9.15,9.2,14.39,3.4,4.05,6.83,7.15,9.8,9.48,3.03-.59,6.06-1.17,9.09-1.76,1.28,.52,2.55,1.04,3.83,1.55,3.24-2.27,6.48-4.55,9.73-6.82,.96-3.56,1.93-7.12,2.89-10.68-.85-1.01-1.7-2.02-2.54-3.03,2.32-3.65,4.63-7.31,6.95-10.96,.16-3.69,.33-7.39,.49-11.08,1.42-3.57,2.82-7.28,4.19-11.14,1.65-4.65,3.13-9.17,4.47-13.55,1.11-3.65,1.47-6.81,1.78-8.89"/>
      <g>
        <path class="cls-20" d="M137.32,334.09c.53-.25,1.06-.5,1.59-.76"/>
        <path class="cls-15" d="M144.08,330.88l11.57-5.49c4.31,.16,8.62,.33,12.94,.49"/>
        <path class="cls-20" d="M171.44,325.99c.59,.02,1.17,.04,1.76,.07"/>
      </g>
      <g>
        <path class="cls-20" d="M152.74,296.74c.58,.05,1.17,.11,1.75,.16"/>
        <path class="cls-24" d="M159.03,297.32c1.83,.17,3.67,.34,5.5,.51l6.61,3.3"/>
        <path class="cls-20" d="M173.18,302.16c.53,.26,1.05,.53,1.58,.79"/>
      </g>
      <path class="cls-22" d="M139.36,318.7c3.34-1.16,6.68-2.32,10.02-3.47"/>
    </g>
    <path class="cls-19" d="M162.77,365.3c.59-4.12,1.17-8.24,1.76-12.36l11.56-13.78c4.07-.03,8.15-.06,12.22-.08-.85,1.83-1.7,3.65-2.54,5.48,.85,1.01,1.7,2.02,2.54,3.03-.58,2.3-1.75,5.76-4.23,9.38-2.89,4.21-6.26,6.75-8.38,8.12-.96-.39-1.92-.78-2.88-1.17-3.35,.46-6.7,.91-10.04,1.37Z"/>
    <path class="cls-5" d="M172.82,363.93c1.5-4.46,3.01-8.92,4.51-13.38,2.81-1.99,5.62-3.99,8.43-5.98,.85,1.01,1.7,2.02,2.54,3.03-.39,2.2-1.31,5.7-3.64,9.4-2.78,4.41-6.22,6.96-8.22,8.22-1.21-.43-2.42-.86-3.63-1.29Z"/>
  </g>
  <g>
    <path class="cls-30" d="M344.29,248.21c-.49,.28-.99,.57-1.52,.89"/>
    <path class="cls-32" d="M338.32,251.98c-5.35,3.73-11.6,9.11-17.14,16.67-7.23,9.87-9.82,18.78-13.04,30.22-1.63,5.79-4.68,18.1-6.81,56-.57,10.03-.88,18.63-1.07,25.16"/>
    <path class="cls-30" d="M300.19,382.69c-.02,.61-.03,1.2-.04,1.76"/>
  </g>
  <g>
    <path class="cls-30" d="M288.81,252.5c-.07,.56-.14,1.15-.21,1.74"/>
    <path class="cls-16" d="M287.93,259.56c-1.15,9.05-2.78,20.97-4.97,34.87-.97,6.17-2.29,14.19-7.85,45.19-1.83,10.21-4.32,24.01-7.35,40.51"/>
    <path class="cls-30" d="M267.28,382.77c-.11,.58-.21,1.15-.32,1.73"/>
  </g>
  <g>
    <path class="cls-28" d="M282.51,277.98c-.9,5.87-1.79,11.74-2.69,17.61-1.22,10.87-2.45,21.75-3.67,32.62-.09,.32-.71,2.42-1.84,2.58-1.2,.16-2.55-.96-2.5-2.55,.44-8.28,1.36-17.41,3.02-27.21,2.28-13.5,5.48-25.45,8.85-35.64-.39,4.2-.78,8.4-1.17,12.61Z"/>
    <path class="cls-28" d="M273.33,317.19c.06-.88,2.62-2.12,4.49-1.18,1.84,.93,2.75,3.85,1.42,5.3-.85,.93-2.52,1.14-4.07,.44,.26-.55,.48-1.28,.28-2.04-.41-1.51-2.18-1.78-2.12-2.53Z"/>
    <path class="cls-28" d="M274.37,318.87c-.6-.96-2.72-1.21-4.11-.23-1.2,.85-1.49,2.36-1.33,3.43,.34,2.29,2.94,3.92,5.03,3.52,1.7-.32,3.09-1.98,2.81-2.65-.25-.6-1.68-.08-2.31-.93-.69-.92,.52-2.17-.09-3.14Z"/>
  </g>
  <g>
    <path class="cls-17" d="M511.62,256.92c1.93-12.91,23.68-21.38,40.3-18.37,20.86,3.77,37.31,26.36,36.74,46.22-.77,26.82-32.18,34.51-29.63,55.7,2.49,20.67,33.29,20.99,39.11,46.81,3.8,16.87-5.22,35.01-16.59,45.04-14.44,12.73-34.84,14.28-36.15,11.26-1.05-2.41,9.73-5.75,14.22-17.19,3.86-9.84,.73-19.71-1.19-25.48-5.4-16.28-14.14-15.47-21.93-32-2.94-6.24-8.78-18.63-5.93-32.59,2.58-12.6,10.05-15.76,11.85-32,1.07-9.66-1-13.76-2.96-16-3.25-3.71-7.1-2.8-11.78-5.36-9.04-4.94-17.52-16.37-16.07-26.05Z"/>
    <g>
      <path class="cls-37" d="M536.17,256.32c.35-.11,.93-.29,1.69-.48"/>
      <path class="cls-9" d="M543.19,254.91c4.77-.45,11.11-.03,16.68,3.78,10.51,7.19,10.61,21.17,10.67,27.85,.07,8.54-2.26,15.54-4.47,20.32"/>
      <path class="cls-37" d="M564.87,309.3c-.3,.56-.58,1.08-.85,1.54"/>
    </g>
    <g>
      <path class="cls-37" d="M551.96,302.95c-.06,.59-.13,1.17-.2,1.75"/>
      <path class="cls-38" d="M550.99,310.06c-1.41,8.39-3.5,14.96-5.34,19.74-2.23,5.78-4.33,9.58-4.31,15.4,.02,5.54,1.95,10.32,4.19,14.09"/>
      <path class="cls-37" d="M546.99,361.56c.35,.5,.69,.98,1.03,1.42"/>
    </g>
    <g>
      <path class="cls-37" d="M566.39,367.14c.37,.16,.91,.41,1.59,.75"/>
      <path class="cls-3" d="M572.3,370.4c4.65,3.1,10.62,8.47,13.65,16.89,4.61,12.79,.72,27.86-9.89,38.6"/>
      <path class="cls-37" d="M574.24,427.61c-.43,.39-.88,.78-1.33,1.15"/>
    </g>
    <g>
      <path class="cls-37" d="M540.91,365.66c.26,.54,.53,1.07,.81,1.57"/>
      <path class="cls-31" d="M544.66,371.85c1.2,1.61,2.36,2.89,3.36,3.88,3.75,3.72,6.31,4.53,9.78,8.3,1.69,1.84,2.98,3.71,3.97,5.43"/>
      <path class="cls-37" d="M563.03,391.89c.27,.58,.5,1.12,.7,1.61"/>
    </g>
    <path class="cls-7" d="M553.95,270.54c-.98-1.03-6.55-6.68-15.11-6.52-5.12,.1-8.86,2.23-10.54,3.34"/>
    <path class="cls-7" d="M548.32,285.66c-.1-.53-.88-4.32-4.44-6.22-2.29-1.22-4.51-1.01-5.33-.89"/>
  </g>
  <g>
    <g>
      <path class="cls-43" d="M140.41,209.89c2.77-.01,5.58-.04,8.42-.09,2.51-.04,4.99-.1,7.45-.17,.02,.76,.1,1.72,.37,2.8,.26,1.05,.62,1.92,.95,2.59-1.06,.7-3.99,2.44-8.12,2.4-4.08-.04-6.95-1.8-8-2.52-.02-.51-.06-1.06-.15-1.66-.2-1.33-.56-2.46-.93-3.35Z"/>
      <g>
        <g>
          <path class="cls-40" d="M91.79,166.03c1.37,11.3,3.2,14.34,4.7,16.18,1.38,1.7,3.29,3.39,4.7,6.79,1.56,3.78,.81,5.62,1.57,8.09,1.81,5.93,10.11,8.43,16.18,10.18,7.06,2.03,13.84,2.76,24.79,2.61,16.82-.22,25.22-.33,32.62-3.65,11.89-5.33,18.32-14.7,20.88-18.53,11.85-17.74,12.35-41.17,5.22-59.51-7.71-19.83-28.92-45.45-58.46-43.59-31.73,2-50.05,34.25-52.98,52.98-1.5,9.61,.02,22.19,.78,28.45Z"/>
          <path class="cls-44" d="M126.71,164.5c1.01,.97,2.54,2.7,3.63,5.32,2.04,4.91,2.15,12.08-1.5,16.44-2.35,2.82-5.34,3.35-8.53,3.91-1.68,.3-8.98,1.37-15.55-3.65-1.09-.83-3.05-2.36-4.74-5.21-2.12-3.57-2.59-7.13-2.71-8.96,3.12-3.9,6.22-5.74,8.16-6.65,4.54-2.12,8.81-1.99,14.38-1.82,2.88,.09,5.25,.37,6.85,.61Z"/>
          <path class="cls-44" d="M164.74,163.29c-.73,1.6-1.91,4.81-1.57,8.87,.12,1.42,.64,7.55,5.87,11.61,4.08,3.17,9.37,3.83,13.57,2.61,8.83-2.55,11.86-12.8,12.79-15.92,.98-3.3,1.17-6.17,1.17-8.09-3.9-1.12-9.73-2.3-16.84-1.98-6.28,.28-11.41,1.64-15,2.9Z"/>
          <path class="cls-41" d="M101.43,189.64c1.69-1.13,5.09-3.08,9.73-3.45,1.69-.13,10.22-.81,15.46,5.68,3.8,4.7,4.47,11.44,1.87,17.36-4.11-.63-7.52-1.43-10.07-2.11-.72-.19-5.04-1.37-9.7-3.65-1.09-.54-2.49-1.27-3.81-2.73-.55-.61-1.62-1.82-2.18-3.65-.46-1.52-.16-2.13-.56-4.44-.23-1.32-.54-2.37-.76-3.01Z"/>
          <g>
            <path class="cls-13" d="M104.89,191.28c.45-.22,.99-.46,1.61-.7"/>
            <path class="cls-14" d="M111.22,189.37c2.17-.33,5.11-.42,8.16,.94,1.11,.5,4.44,1.98,6.26,5.77,.81,1.69,1.09,3.34,1.12,4.77"/>
            <path class="cls-13" d="M126.56,203.28c-.15,.82-.34,1.42-.43,1.71"/>
          </g>
          <path class="cls-41" d="M174.19,207.08c-.88-.83-3.99-3.94-4.5-8.95-.04-.35-.63-7.43,4.89-12.14,4.86-4.14,11.84-4.23,16.64-1.37,2.51,1.5,3.99,3.54,4.77,4.87-1.78,2.63-4.32,5.83-7.85,8.97-5.14,4.57-10.3,7.16-13.95,8.63Z"/>
          <g>
            <path class="cls-13" d="M175.95,202.34c-.29-.33-.68-.8-1.06-1.41"/>
            <path class="cls-2" d="M173.6,196.63c-.11-3.79,2.36-6.6,2.59-6.85,2.74-3.03,6.42-3.25,7.57-3.26,1.71-.02,3.18,.38,4.37,.9"/>
            <path class="cls-13" d="M190.09,188.53c.71,.5,1.17,.94,1.36,1.12"/>
          </g>
          <path class="cls-12" d="M115.19,163.89c-1.57,.45-3.87,1.37-5.61,3.45-4.91,5.85-3.07,18.05,4.05,21.14,3.63,1.58,8.66,.79,11.75-2.22,2.85-2.78,3.13-6.41,3.28-8.37,.35-4.66-1.54-8.19-2.41-9.59-1.11-1.78-2.37-3.02-3.28-3.8-2.59-.2-5.18-.41-7.76-.61Z"/>
          <path class="cls-12" d="M171.31,161.46c-1.24,1.81-2.67,4.5-3.18,7.96-.3,2.01-.95,8.67,3.52,13.7,1.12,1.26,3.09,3.48,6.14,3.81,5.73,.63,9.8-6.01,10.05-6.42,3.46-5.84,1.18-12.23,.65-13.7-1.1-3.06-2.8-5.19-3.92-6.39-1.88-.05-3.93-.02-6.13,.13-2.61,.18-5,.51-7.13,.91Z"/>
          <path class="cls-39" d="M91.79,166.03c1.37,11.3,3.2,14.34,4.7,16.18,1.38,1.7,3.29,3.39,4.7,6.79,1.56,3.78,.81,5.62,1.57,8.09,1.81,5.93,10.11,8.43,16.18,10.18,7.06,2.03,13.84,2.76,24.79,2.61,16.82-.22,25.22-.33,32.62-3.65,11.89-5.33,18.32-14.7,20.88-18.53,11.85-17.74,12.35-41.17,5.22-59.51-7.71-19.83-28.92-45.45-58.46-43.59-31.73,2-50.05,34.25-52.98,52.98-1.5,9.61,.02,22.19,.78,28.45Z"/>
          <path class="cls-27" d="M163.17,162.77c-.31-.68,4.27-3.59,7.05-4.96,4.12-2.02,12.67-4.76,27.27,0-.3,1.52-.61,3.04-.91,4.57-4.9-1.36-9.04-1.81-12.01-1.96-7.82-.38-14.52,1.01-15.27,1.17-3.56,.76-5.92,1.64-6.13,1.17Z"/>
          <path class="cls-27" d="M96.27,165.44c1.79-1.37,3.9-2.64,6.37-3.61,12.57-4.92,25.06,1.71,28.01,3.37-6.59-1.29-12.1-1.34-15.99-1.12-8.19,.46-11.41,2.25-12.88,3.2-2.17,1.4-3.66,3.02-4.6,4.2-.3-2.01-.6-4.03-.9-6.04Z"/>
          <path class="cls-13" d="M117.35,155.26c1.48,.03,3.37,.21,5.48,.78,1.45,.39,2.69,.89,3.72,1.37"/>
          <path class="cls-13" d="M165.74,155.26c1.06-.76,2.36-1.58,3.92-2.35,1.42-.7,2.75-1.2,3.92-1.57"/>
          <path class="cls-20" d="M141.69,195.37c1.23,.67,3.96,1.92,7.3,1.43,2.88-.43,6.12-2.14,5.95-3.35-.06-.44-.61-1.04-3.11-1.51"/>
          <path class="cls-10" d="M112.84,170.62c.17-.31,1.11-2.03,3.19-2.61,1.5-.42,2.75-.01,3.2,.16-.1,2.06-.04,5.1,.8,8.62,1.13,4.7,2.95,7.22,2.33,7.67-.74,.54-4.42-2.47-6.78-6.33-1.75-2.86-2.44-5.62-2.74-7.51Z"/>
          <path class="cls-10" d="M182.16,165.93c-.26-.24-1.73-1.54-3.88-1.39-1.55,.11-2.59,.91-2.96,1.22,.78,1.9,1.75,4.79,2.13,8.39,.51,4.81-.36,7.79,.37,8.01,.88,.26,3.33-3.81,4.26-8.24,.69-3.28,.41-6.12,.07-7.99Z"/>
        </g>
        <path class="cls-17" d="M122.36,130.13c1.41,.53-2.01,8.41,0,20,.67,3.87,1.9,10.97,5.77,11.79,3.57,.76,7.36-4.26,7.98-5.1,.73,2.85,1.86,6.68,3.59,11.09,1.85,4.72,2.65,5.65,3.56,5.78,2.77,.38,5.78-7.04,6.22-8.16,2.24,.62,3.99,.51,5.34,.16,7.28-1.91,12.17-13.35,12-28.44,3.38,3.77,8.74,8.95,16.44,13.33,7.1,4.05,10.44,4.15,12,7.56,3.99,8.73-11.25,22.77-9.14,24.7,1.18,1.08,7.02-2.34,10.19-4.68,2.22-1.64,3.6-3.08,4-2.78,.6,.46-1.35,4.5-3.33,7.22-7.25,9.94-19.89,8.97-19.95,11.98-.06,3.07,12.96,8.54,25.41,5.09,7.62-2.11,12.37-6.83,15.03-9.53,10.02-10.18,12.33-22.6,13.78-30.99,.75-4.33,2.74-18.03-1.66-35.17-1.53-5.95-7.13-26.66-24.67-42.52-22.02-19.9-56.76-26.65-86.11-15.03,0,0-53.53,21.2-52.58,96.98,.05,4.08,.17,13.37,6.06,22.13,1.73,2.58,5.34,7.16,11.41,10.37,8.23,4.35,18.39,4.81,19.47,2.26,.79-1.87-3.49-4.86-2.66-6.12,.61-.92,3.63,.21,7.86,1.41,5.92,1.68,11.61,3.29,12.22,2.22,1.09-1.89-15.6-8.96-21.39-24.81-1.46-3.99-1.88-7.59-1.99-10.13,1.28-1.01,3.14-2.55,5.25-4.57,13.49-12.86,18.06-26.73,19.89-26.04Z"/>
        <g>
          <g>
            <path class="cls-37" d="M200.31,175.37c.42-.3,.89-.65,1.41-1.06"/>
            <path class="cls-11" d="M205.29,171.08c2.24-2.31,4.64-5.4,6.55-9.39,3.31-6.89,3.7-13.41,3.44-17.78"/>
            <path class="cls-37" d="M215.07,141.5c-.09-.69-.18-1.27-.26-1.74"/>
          </g>
          <path class="cls-7" d="M97.21,160.74c-.82-3.87-1.77-10.88,.26-19.2,2.66-10.95,8.93-17.88,11.85-20.74"/>
          <path class="cls-7" d="M149.47,165.53c2.61-4.75,5.89-12.11,7.26-21.62,2.1-14.51-1.36-26.18-3.56-32"/>
          <path class="cls-7" d="M102.19,192.65c-3.76-.76-8.37-2.38-12.47-5.89-9.18-7.85-12.2-22.02-8.24-36.34"/>
        </g>
        <path class="cls-7" d="M133.37,86.7c-3.47,1.57-8.39,4.26-13.32,8.81-4.69,4.32-7.69,8.75-9.53,11.96"/>
        <path class="cls-7" d="M161.03,73.46c3.1,.85,9.5,3.07,15.33,8.89,6.96,6.95,8.95,14.88,9.56,18"/>
        <path class="cls-20" d="M122.36,130.13c1.41,.53-2.01,8.41,0,20,.67,3.87,1.9,10.97,5.77,11.79,3.57,.76,7.36-4.26,7.98-5.1,.73,2.85,1.86,6.68,3.59,11.09,1.85,4.72,2.65,5.65,3.56,5.78,2.77,.38,5.78-7.04,6.22-8.16,2.24,.62,3.99,.51,5.34,.16,7.28-1.91,12.17-13.35,12-28.44,3.38,3.77,8.74,8.95,16.44,13.33,7.1,4.05,10.44,4.15,12,7.56,3.99,8.73-11.25,22.77-9.14,24.7,1.18,1.08,7.02-2.34,10.19-4.68,2.22-1.64,3.6-3.08,4-2.78,.6,.46-1.35,4.5-3.33,7.22-7.25,9.94-19.89,8.97-19.95,11.98-.06,3.07,12.96,8.54,25.41,5.09,7.62-2.11,12.37-6.83,15.03-9.53,10.02-10.18,12.33-22.6,13.78-30.99,.75-4.33,2.74-18.03-1.66-35.17-1.53-5.95-7.13-26.66-24.67-42.52-22.02-19.9-56.76-26.65-86.11-15.03,0,0-53.53,21.2-52.58,96.98,.05,4.08,.17,13.37,6.06,22.13,1.73,2.58,5.34,7.16,11.41,10.37,8.23,4.35,18.39,4.81,19.47,2.26,.79-1.87-3.49-4.86-2.66-6.12,.61-.92,3.63,.21,7.86,1.41,5.92,1.68,11.61,3.29,12.22,2.22,1.09-1.89-15.6-8.96-21.39-24.81-1.46-3.99-1.88-7.59-1.99-10.13,1.28-1.01,3.14-2.55,5.25-4.57,13.49-12.86,18.06-26.73,19.89-26.04Z"/>
      </g>
      <path class="cls-35" d="M139.96,209.89c.51,.76,1.11,1.9,1.39,3.36,.11,.61,.15,1.17,.15,1.66"/>
      <path class="cls-35" d="M156.28,209.64c.02,.76,.1,1.72,.37,2.8,.26,1.05,.62,1.92,.95,2.59"/>
    </g>
    <path class="cls-7" d="M196.73,161.09c.25-2.61,.35-5.38,.26-8.31-.49-15.45-6.35-27.71-11.22-35.55"/>
  </g>
  <path class="cls-12" d="M108.13,90.93c-4.1,1.67-11.82,5.53-18.84,14.05-6.92,8.41-9.8,17.27-11.01,22.02-.6-.51-1.53-1.17-2.76-1.64-1.39-.53-2.59-.62-3.38-.6,1.42-5.3,4.63-14.82,12.02-23.94,7.28-8.99,15.21-13.4,19.72-15.46,.58,.26,1.79,.9,2.84,2.33,.93,1.28,1.27,2.57,1.41,3.25Z"/>
  <path class="cls-12" d="M191.66,93.31c4.3,3.17,12.19,9.87,17.96,21.14,5.69,11.12,6.55,21.3,6.63,26.63,.84-.31,2.11-.67,3.67-.73,1.76-.07,3.19,.28,4.09,.57-.16-5.98-1.23-16.94-7.26-28.97-5.94-11.85-13.92-19.2-18.58-22.91-.74,.06-2.34,.3-3.95,1.41-1.44,.99-2.2,2.21-2.55,2.86Z"/>
  <path class="cls-12" d="M111.03,115.46c4.73-3.19,16.71-10.33,33.56-10.69,19.57-.41,33.33,8.6,37.78,11.8,.85-1.99,1.71-3.97,2.56-5.96-4.44-3.38-17.94-12.77-37.69-13.24-20.16-.49-34.32,8.61-38.84,11.79,.88,2.1,1.76,4.2,2.64,6.3Z"/>
  <path class="cls-12" d="M114.18,83.34c.71,5.83-3.31,11.01-4.21,12.12-4.16,5.07-10.87,7.44-16.33,6.85-10.32-1.12-16.15-12.8-19.49-19.49-14.18-28.42-5.95-60.63-3.69-60.59,1.64,.03-3.36,16.88,6.85,31.61,12.22,17.63,35.29,16.48,36.88,29.5Z"/>
  <path class="cls-36" d="M92.44,97.09c-3.71-3.62-8.05-8.59-11.93-15.1-7-11.74-9.21-22.93-9.99-29.93"/>
  <path class="cls-12" d="M179.25,85.97c-.8,6.55,3.72,12.38,4.74,13.63,4.68,5.71,12.22,8.37,18.37,7.7,11.61-1.26,18.17-14.4,21.93-21.93,15.95-31.96,6.69-68.19,4.15-68.15-1.84,.03,3.78,18.98-7.7,35.56-13.74,19.83-39.69,18.54-41.48,33.19Z"/>
  <path class="cls-36" d="M203.84,100.65c3.96-3.9,8.59-9.27,12.74-16.3,7.47-12.67,9.84-24.74,10.67-32.3"/>
  <path class="cls-43" d="M473.58,210.13c2.77-.01,5.58-.04,8.42-.09,2.51-.04,4.99-.1,7.45-.17,.02,.76,.1,1.72,.37,2.8,.26,1.05,.62,1.92,.95,2.59-1.06,.7-3.99,2.44-8.12,2.4-4.08-.04-6.95-1.8-8-2.52-.02-.51-.06-1.06-.15-1.66-.2-1.33-.56-2.46-.93-3.35Z"/>
  <path class="cls-35" d="M473.12,210.13c.51,.76,1.11,1.9,1.39,3.36,.11,.61,.15,1.17,.15,1.66"/>
  <path class="cls-35" d="M489.45,209.87c.02,.76,.1,1.72,.37,2.8,.26,1.05,.62,1.92,.95,2.59"/>
</svg>