<?xml version="1.0" encoding="UTF-8"?>
<svg id="CharacterBack" xmlns="http://www.w3.org/2000/svg" viewBox="0 0 640 640">
  <defs>
    <style>
      .cls-1, .cls-2, .cls-3, .cls-4, .cls-5, .cls-6, .cls-7, .cls-8, .cls-9, .cls-10, .cls-11, .cls-12, .cls-13, .cls-14, .cls-15, .cls-16, .cls-17, .cls-18, .cls-19, .cls-20, .cls-21, .cls-22, .cls-23, .cls-24, .cls-25, .cls-26, .cls-27, .cls-28, .cls-29, .cls-30 {
        stroke-linecap: round;
        stroke-linejoin: round;
      }

      .cls-1, .cls-2, .cls-3, .cls-5, .cls-6, .cls-7, .cls-8, .cls-9, .cls-11, .cls-12, .cls-14, .cls-16, .cls-17, .cls-18, .cls-19, .cls-20, .cls-21, .cls-22, .cls-23, .cls-24, .cls-26, .cls-28, .cls-29, .cls-30 {
        fill: none;
      }

      .cls-1, .cls-2, .cls-4, .cls-5, .cls-7, .cls-8, .cls-9, .cls-10, .cls-31, .cls-12, .cls-13, .cls-14, .cls-15, .cls-16, .cls-18, .cls-21, .cls-24, .cls-25, .cls-26, .cls-27, .cls-28, .cls-29, .cls-30 {
        stroke-width: 2.5px;
      }

      .cls-1, .cls-7, .cls-26 {
        stroke: #c4415e;
      }

      .cls-2 {
        stroke-dasharray: 0 0 3.33 4.99;
      }

      .cls-2, .cls-5, .cls-8, .cls-9, .cls-24, .cls-29, .cls-30 {
        stroke: #b37bdb;
      }

      .cls-3 {
        stroke-dasharray: 0 0 3.57 5.36;
      }

      .cls-3, .cls-6, .cls-11, .cls-17, .cls-19, .cls-20, .cls-22, .cls-23 {
        stroke-width: 2px;
      }

      .cls-3, .cls-6, .cls-17, .cls-20, .cls-22 {
        stroke: #2d2b2c;
      }

      .cls-4 {
        fill: #eeaabc;
      }

      .cls-4, .cls-10, .cls-31, .cls-12, .cls-13, .cls-15, .cls-16, .cls-18, .cls-21, .cls-25, .cls-27 {
        stroke: #000;
      }

      .cls-5, .cls-18, .cls-23, .cls-26, .cls-28 {
        stroke-dasharray: 0 0 3.52 5.29;
      }

      .cls-6 {
        stroke-dasharray: 0 0 3.87 5.8;
      }

      .cls-7 {
        stroke-dasharray: 0 0 3.37 5.05;
      }

      .cls-8 {
        stroke-dasharray: 0 0 3.61 5.42;
      }

      .cls-9 {
        stroke-dasharray: 0 0 3.22 4.83;
      }

      .cls-10, .cls-32 {
        fill: #e0687c;
      }

      .cls-11, .cls-19 {
        stroke: #bc695c;
      }

      .cls-31 {
        fill: #f5e3d9;
        stroke-miterlimit: 10;
      }

      .cls-12 {
        stroke-dasharray: 0 0 3.81 5.72;
      }

      .cls-13 {
        fill: #dfb6ff;
      }

      .cls-14 {
        stroke: #7a94dd;
      }

      .cls-15 {
        fill: #c4415e;
      }

      .cls-19 {
        stroke-dasharray: 0 0 2.4 3.2;
      }

      .cls-20 {
        stroke-dasharray: 0 0 3.18 4.77;
      }

      .cls-21 {
        stroke-dasharray: 0 0 3.04 4.56;
      }

      .cls-22 {
        stroke-dasharray: 0 0 3.11 4.67;
      }

      .cls-23 {
        stroke: #f2b6cf;
      }

      .cls-24 {
        stroke-dasharray: 0 0 3.66 5.49;
      }

      .cls-25 {
        fill: #fef495;
      }

      .cls-27 {
        fill: #5d6266;
      }

      .cls-28 {
        stroke: #ffdce9;
      }

      .cls-30 {
        stroke-dasharray: 0 0 3.61 5.42;
      }
    </style>
  </defs>
  <path class="cls-13" d="M257.8,591.22c-.12-1.34-.17-3.32,.24-5.64,.27-1.53,2.91-15.46,14.32-17.62,8.1-1.53,16.02,3.75,19.09,10.3,1.41,3,1.6,5.86,1.55,7.73,2.68,3.72,5.36,7.44,8.04,11.15,.13,.28,.27,.63,.37,1.05,.09,.39,.13,.75,.14,1.04-.18,1.84-.36,3.68-.54,5.52-1.8,1.66-6.39,5.41-13.32,6.38-10.85,1.53-18.72-4.95-20.01-6.05-3.29-4.62-6.58-9.25-9.87-13.87Z"/>
  <path class="cls-10" d="M269.75,571.55c.23,1.88-1.07,3.55-1.36,3.91-1.34,1.64-3.51,2.4-5.27,2.21-3.33-.36-5.21-4.13-6.29-6.29-4.58-9.17-1.92-19.57-1.19-19.56,.53,0-1.08,5.45,2.21,10.2,3.94,5.69,11.39,5.32,11.9,9.52Z"/>
  <path class="cls-10" d="M282.85,567.76c-.19,1.52,.86,2.87,1.1,3.16,1.08,1.32,2.83,1.94,4.26,1.78,2.69-.29,4.21-3.34,5.08-5.08,3.7-7.41,1.55-15.8,.96-15.79-.43,0,.88,4.4-1.78,8.24-3.18,4.59-9.2,4.3-9.61,7.69Z"/>
  <path class="cls-13" d="M318.76,595.49c.2,1.9,.98,6.83,4.87,11.26,5.15,5.86,12.06,6.67,14.3,6.77,7.41,.31,14.41-2.36,16.58-6.41,1.47-3.76,2.95-7.53,4.42-11.29,.82-2.33,2.19-7.33,.58-13.06-2.4-8.52-10.67-16.05-21.04-16-10.47,.05-19.11,7.83-21,16.75-1.12,5.28,.37,9.8,1.28,11.99Z"/>
  <path class="cls-26" d="M354.18,592.24c-.07,1.07-.58,7.41-5.93,11.56-.94,.73-4.33,3.28-9.19,3.11-5.85-.2-9.45-4.17-10.37-5.19-3.36-3.71-3.99-7.91-4.15-9.48"/>
  <path class="cls-16" d="M355.81,588.53c-2.86-6.34-9.01-10.54-15.85-10.81-7.35-.3-14.24,3.99-17.33,10.81"/>
  <path class="cls-10" d="M348.97,573.54c-.23,1.88,1.07,3.55,1.36,3.91,1.34,1.64,3.51,2.4,5.27,2.21,3.33-.36,5.21-4.13,6.29-6.29,4.58-9.17,1.92-19.57,1.19-19.56-.53,0,1.08,5.45-2.21,10.2-3.94,5.69-11.39,5.32-11.9,9.52Z"/>
  <path class="cls-10" d="M327.18,573.54c.23,1.88-1.07,3.55-1.36,3.91-1.34,1.64-3.51,2.4-5.27,2.21-3.33-.36-5.21-4.13-6.29-6.29-4.58-9.17-1.92-19.57-1.19-19.56,.53,0-1.08,5.45,2.21,10.2,3.94,5.69,11.39,5.32,11.9,9.52Z"/>
  <g>
    <path class="cls-1" d="M296.63,598.68c-.34,.31-.79,.71-1.35,1.13"/>
    <path class="cls-7" d="M290.85,602.21c-.82,.29-1.71,.53-2.67,.69-5.83,.96-10.38-1.75-12.67-3.11-2.13-1.27-3.82-2.74-5.15-4.17"/>
    <path class="cls-1" d="M268.74,593.68c-.38-.51-.72-.99-1.01-1.44"/>
  </g>
  <path class="cls-16" d="M263.34,590.15c.4-1.36,1.05-3.21,2.18-5.25,1.05-1.9,4.79-8.7,10.3-10.03,5.65-1.36,12.96,3.08,17.18,11.11"/>
  <g>
    <path class="cls-16" d="M338.48,569.91v1.76"/>
    <path class="cls-16" d="M338.48,576.25v1.76"/>
  </g>
  <path class="cls-31" d="M354.25,500.88c-1.2,4.68-2.19,9.4-3.33,14.1-.19,.77-.55,2.31-.88,4.34-.26,1.6-.44,3.12-.55,4.53,.27,8.42,.41,17.09,.39,25.97-.03,14.18-.46,27.8-1.2,40.83,.41,.97,.85,2.44,.62,4.15-.6,4.36-5.38,8.44-10.37,7.81-4.09-.52-6.73-4.01-7.7-6.81-.61-1.77-.61-3.36-.51-4.39-2.37-18.33-3.5-26.44-4.06-30.1-.09-.57-.39-2.53-.73-5.17-.33-2.64-.61-5.35-.89-8.65-.49-5.73-.58-14.1,1.56-24.68-.02-1.54,0-3.13,.06-4.76,.2-5.66,.87-10.87,1.77-15.54,1.07-8.58,2.13-17.16,3.2-25.75,1.47-7.38,8.38-12.02,14.84-10.86,5.29,.95,9.59,5.66,10.27,11.6-.16,11.87-1.36,19-2.48,23.39Z"/>
  <path class="cls-31" d="M305.46,503c-.46,2.77-1.33,6.83-3.08,11.52-1.45,3.87-2.71,6.07-3.72,8.22-3.05,6.49-3.51,11.95-4.31,18.79-1.08,9.19-2.73,20.55-5.07,35.27,.25,3.27,.5,6.54,.76,9.81,.47,1.31,1.9,5.68-.15,8-3.18,3.6-12.11-.68-13.48-1.33-5.48-2.62-8.73-6.71-10.37-9.19,.41-.84,.92-1.76,1.55-2.7,1.33-1.98,2.79-3.45,4.03-4.5-.05-12.09,.06-21.93,.09-28.96,.02-3.88,.06-9.99,1.72-17.95,.11-.51,.21-.96,.3-1.36,1.89-8,4.81-14.2,7.04-18.25,.48-.82,.96-1.78,1.38-2.88,.91-2.36,1.21-4.51,1.3-6.14-.15-7.31-.3-14.61-.45-21.92,1.1-5.6,5.58-9.79,10.8-10.34,6.19-.65,12.32,3.92,13.54,10.7-.63,7.74-1.26,15.48-1.89,23.22Z"/>
  <g>
    <path class="cls-11" d="M342.77,525.57c-.17-.16-.52-.48-1.03-.82"/>
    <path class="cls-19" d="M338.79,523.58c-.24-.04-.5-.07-.76-.08-1.23-.07-2.3,.17-3.17,.52"/>
    <path class="cls-11" d="M333.44,524.76c-.55,.36-.91,.69-1.04,.81"/>
  </g>
  <g>
    <path class="cls-11" d="M293.6,521.25c-.11-.21-.33-.63-.7-1.12"/>
    <path class="cls-19" d="M290.51,518.04c-.22-.12-.44-.23-.69-.33-1.14-.48-2.23-.61-3.16-.57"/>
    <path class="cls-11" d="M285.08,517.35c-.64,.16-1.09,.34-1.25,.42"/>
  </g>
  <path class="cls-14" d="M466.24,426.57c2.2-1.74,5.3-3.83,9.33-5.56,4.71-2.02,8.96-2.8,12-3.11"/>
  <g>
    <path class="cls-10" d="M125.3,337.26c.27-4.26,1.23-10.42,4.44-17.03,1.36-2.81,2.88-5.18,4.33-7.13,1.57-1.06,3.14-2.13,4.71-3.19,1.25-.05,2.83,0,4.62,.32,1.6,.29,3.2,.77,4.09,1.17,3.78,1.71,5.93,7.09,5.95,9.81,.04,6.28-11.19,13.36-28.14,16.05Z"/>
    <path class="cls-25" d="M142.8,310.14c1.56-1.35,3.13-2.69,4.69-4.04,.98-.14,2.38-.21,4.01,.1,2.53,.48,4.32,1.64,5.26,2.36-.36,2.06-.72,4.12-1.09,6.19"/>
    <path class="cls-4" d="M133.61,313.73c1.46-.16,3.71-.24,6.31,.41,1.32,.33,2.31,.75,3.18,1.15,3.91,1.78,7.76,4.19,10.34,5.91,1.64-3.66,3.28-7.32,4.92-10.97-.19-1.55-.39-3.1-.58-4.65-3.43,.17-6.86,.34-10.29,.51-1.37,1.38-2.73,2.76-4.1,4.14-1.54-.11-3.08-.22-4.62-.32-1.72,1.27-3.45,2.55-5.17,3.82Z"/>
    <path class="cls-15" d="M143.4,310.24c3.09,.3,5.98,.73,8.65,1.24,1.44,1.06,2.89,2.13,4.33,3.19-.98,2.18-1.96,4.36-2.94,6.54-3.76-2.14-7.51-4.28-11.27-6.43-2.7-.56-5.41-1.12-8.11-1.68,1.57-1.06,3.14-2.13,4.71-3.19,1.49,.07,3.03,.17,4.62,.32Z"/>
  </g>
  <g>
    <path class="cls-10" d="M209.89,281.3c-2.35,.74-4.72,1.53-7.11,2.37-13.81,4.84-26.25,10.6-37.34,16.71-.75,2.8-1.49,5.6-2.24,8.4-8.34,3.48-16.68,6.97-25.02,10.45-.88,2.81-1.76,5.62-2.64,8.43-4.31,4.02-8.61,8.03-12.92,12.05,1,1.46,2.01,2.92,3.01,4.37-2.2,3.58-4.41,7.16-6.61,10.74,2.1,4.2,4.19,8.4,6.29,12.6,7.22,3.22,14.43,6.44,21.65,9.66,6.4-2.3,12.79-4.6,19.19-6.9,2.68-3.4,5.35-6.8,8.03-10.2,.54-3.66,1.08-7.32,1.62-10.97,1.78-3.41,3.55-6.96,5.3-10.65,3.99-8.4,5.14-11.16,5.83-13.02,1.31-3.59,2.16-6.62,2.67-8.66,1.82-1.58,3.93-3.23,6.36-4.85,3.72-2.49,7.28-4.3,10.37-5.63"/>
    <g>
      <path class="cls-16" d="M119.02,354.82c.55-.2,1.11-.39,1.66-.59"/>
      <path class="cls-12" d="M126.07,352.31c4.02-1.43,8.04-2.86,12.07-4.28,4.27,.6,8.55,1.21,12.82,1.81"/>
      <path class="cls-16" d="M153.79,350.24c.58,.08,1.16,.16,1.74,.25"/>
    </g>
    <g>
      <path class="cls-16" d="M138.17,319.23c.58,.11,1.15,.23,1.73,.34"/>
      <path class="cls-21" d="M144.37,320.45c1.81,.36,3.61,.71,5.42,1.07,2.08,1.32,4.16,2.64,6.24,3.96"/>
      <path class="cls-16" d="M157.95,326.71c.5,.31,.99,.63,1.49,.94"/>
    </g>
    <path class="cls-18" d="M122.62,339.71c3.44-.81,6.88-1.62,10.32-2.43"/>
  </g>
  <g>
    <path class="cls-10" d="M417.44,285.3c5.11,4.71,10.21,9.42,15.32,14.13-1.97,5.75-3.94,11.51-5.91,17.26,0,3.64-.02,7.28-.02,10.92,1.14,2.07,2.27,4.15,3.41,6.22-.19,3.3-.42,6.64-.67,10-.71,9.52-1.61,18.79-2.67,27.78,2.22,2,4.44,4,6.67,6-1.26,7.78-2.52,15.56-3.78,23.33,1.85,4.59,3.7,9.19,5.56,13.78,5.79,.97,11.58,1.93,17.37,2.9-.07,.2-.28,.87,0,1.66,.23,.66,.68,1.03,.87,1.16,1.05,2.13,2.09,4.26,3.14,6.39,2.19,.14,4.38,.28,6.56,.42,.21,.56,.83,1.96,2.34,3.05,1.5,1.09,3.03,1.24,3.62,1.27,3.09-.6,5.6-1.43,7.44-2.15,2.44-.96,7.02-2.81,11.45-6.95,.63-.59,1.13-1.1,1.47-1.47,.08-1.23,.07-2.77-.2-4.5-.2-1.34-.51-2.52-.84-3.5,.27-.45,.64-1.14,.96-2.03,.52-1.48,.61-2.75,.71-4.3,.04-.63,.07-1.44,.05-2.4,2.58-3.55,5.15-7.1,7.73-10.65,.29-3.63,.59-7.26,.88-10.88-4.14-6.8-8.27-13.6-12.41-20.4,.36-2.83,.72-5.66,1.08-8.49-6.74-10-13.48-20-20.22-30-.22-3.11-.44-6.22-.67-9.33-8.13-9.45-16.31-18.91-24.54-28.39-4.68-5.39-9.35-10.76-14.02-16.11"/>
    <path class="cls-15" d="M452.7,419.27c2.95-2.85,5.91-5.7,8.86-8.55,5.41-2.44,10.81-4.89,16.22-7.33,4.16,.29,8.33,.58,12.49,.87,.1,1.12,.12,2.68-.24,4.51-.36,1.81-.97,3.24-1.48,4.23,.48,1.45,.94,3.08,1.31,4.87,.26,1.24,.45,2.42,.59,3.52-2.89,2.93-5.78,5.85-8.67,8.78l-14.11,2.44c-1.47-1.79-2.94-3.58-4.4-5.37-2.19-.14-4.38-.28-6.56-.42-1.33-2.52-2.67-5.03-4-7.55Z"/>
    <path class="cls-4" d="M462.76,427.37c3.75-3.55,7.5-7.1,11.25-10.65,4.68-1.2,9.36-2.4,14.04-3.6,.8,2.75,1.61,5.51,2.41,8.26-2.89,2.93-5.78,5.85-8.67,8.78l-14.11,2.44c-1.64-1.75-3.28-3.49-4.92-5.24Z"/>
    <path class="cls-18" d="M429.79,400.94l18.89-17.33c6.37-2.52,12.74-5.04,19.11-7.56"/>
    <path class="cls-18" d="M498.01,393.61c-3.31-.42-6.62-.84-9.93-1.26-6.22,.49-12.44,.99-18.67,1.48"/>
    <path class="cls-18" d="M487.56,353.83c-6.05-1.78-12.1-3.56-18.15-5.33-8.69,3.56-17.38,7.11-26.07,10.67"/>
  </g>
  <g>
    <path class="cls-27" d="M263.09,426.51c-.94,2.95-1.94,5.79-2.97,8.52,1.73,1.1,4.18,2.39,7.29,3.32,3.85,1.15,7.21,1.28,9.5,1.2,1.35,.7,3.72,1.7,6.81,1.92,3.61,.26,6.44-.66,7.91-1.25,2.22,.58,4.95,1.1,8.11,1.28,2.49,.15,4.73,.06,6.64-.13,2.26,.4,5.04,.7,8.21,.63,2.56-.05,4.84-.34,6.76-.7,4.06,.79,9.26,1.42,15.29,1.25,5.59-.16,10.41-.96,14.23-1.87,2.64,.49,6.65,.9,11.4,.14,3.99-.63,7.18-1.87,9.4-2.94-3.13-13.45-6.27-26.9-9.4-40.35-2.65,.04-5.66,.23-8.94,.7-3.27,.47-6.2,1.12-8.74,1.83-3.77-.37-8.32-.51-13.44,0-3.35,.33-6.38,.89-9.04,1.52-1.46-.2-3.26-.33-5.32-.22-2.22,.13-4.12,.51-5.61,.91-1.84-.81-4.26-1.68-7.18-2.22-2.33-.43-4.41-.54-6.13-.52-1.5-.44-3.25-.82-5.22-1.04-3.97-.44-7.37-.05-9.85,.46-4.31-1-8.61-2-12.92-2.99-1.21,9.33-3.31,19.64-6.79,30.54Z"/>
    <g>
      <path class="cls-17" d="M279.39,436c.15-.56,.29-1.13,.44-1.71"/>
      <path class="cls-3" d="M281.03,429.07c.42-1.95,.81-3.98,1.17-6.09,.53-3.09,.94-6.07,1.26-8.89"/>
      <path class="cls-17" d="M283.74,411.43c.06-.59,.11-1.18,.16-1.75"/>
    </g>
    <g>
      <path class="cls-17" d="M293.43,438.34c.1-.58,.2-1.16,.31-1.73"/>
      <path class="cls-20" d="M294.53,431.9c.11-.67,.22-1.33,.33-2,1.06-6.54,1.97-12.96,2.76-19.24"/>
      <path class="cls-17" d="M297.92,408.29c.07-.58,.14-1.17,.21-1.75"/>
    </g>
    <g>
      <path class="cls-17" d="M308.17,439.49c.11-.57,.22-1.15,.33-1.73"/>
      <path class="cls-22" d="M309.3,433.16c.15-.99,.3-1.99,.44-3,.48-3.52,.83-6.9,1.06-10.13"/>
      <path class="cls-17" d="M310.95,417.7c.03-.59,.06-1.18,.09-1.76"/>
    </g>
    <g>
      <path class="cls-17" d="M352.66,438.81c-.12-.57-.24-1.15-.36-1.72"/>
      <path class="cls-6" d="M351.16,431.4c-.38-1.95-.74-3.93-1.1-5.93-.62-3.49-1.18-6.91-1.68-10.26"/>
      <path class="cls-17" d="M347.96,412.33c-.08-.58-.17-1.16-.25-1.74"/>
    </g>
    <g>
      <path class="cls-17" d="M323.14,439.43c0-.58-.01-1.17-.02-1.76"/>
      <path class="cls-17" d="M322.9,431.66c-.03-.59-.07-1.18-.11-1.76"/>
    </g>
  </g>
  <path class="cls-32" d="M310.07,428.23c23.33,5.26,40.56,3.19,43.98,2.74,7.26-.95,13.54-2.54,18.66-4.18-1.2-30.64-3.42-62.75-6.92-96.18-.53-5.09-1.1-10.17-1.1-10.17,1.56-3.33,3.57-8.8,3.72-15.75,.26-12.51-5.7-21.47-8-24.59-5.55,3.18-16.89,8.7-32.3,9.48-15.5,.79-27.39-3.6-33.24-6.22-1.96,4.64-3.91,9.28-5.87,13.92-2.06,3.78-5.17,9.72-8.51,17.21-9.75,21.86-9.95,32.99-18.2,49.86-5.44,11.12-11.28,21-17.08,29.68-.47,.56-1.22,1.63-1.5,3.13-.29,1.58,.09,2.83,.29,3.52,1.34,4.45,7.67,10.43,8.09,10.82v12.57c1.98,.7,5.27,1.72,9.43,2.25,12.48,1.6,18.76-2.96,29.85-2.8,6.62,.1,5.63,1.74,18.7,4.69Z"/>
  <path class="cls-10" d="M280.49,314.51c-3.87,15.39-9.62,32.31-18.2,49.86-5.44,11.12-11.28,21-17.08,29.68-.47,.56-1.22,1.63-1.5,3.13-.29,1.58,.09,2.83,.29,3.52,1.34,4.45,7.67,10.43,8.09,10.82v12.57c1.98,.7,5.27,1.72,9.43,2.25,12.48,1.6,18.76-2.96,29.85-2.8,6.62,.1,5.63,1.74,18.7,4.69,23.33,5.26,40.56,3.19,43.98,2.74,7.26-.95,13.54-2.54,18.66-4.18-.16-3.65-.31-7.3-.47-10.96,1.04-.76,2.57-2.09,3.66-4.15,3.02-5.71,.29-12.59-.59-14.96-2.42-6.48-4.79-26.36-9.52-66.1-.54-4.54-.91-8.18-1.1-10.17"/>
  <path class="cls-16" d="M308.89,417.53c3.78,.94,8.82,2,14.82,2.73,7.86,.96,13.54,.88,20.81,.79,12.19-.16,16.22-1.19,17.94-1.68,4.21-1.19,7.52-2.78,9.76-4"/>
  <path class="cls-16" d="M308.89,417.53c-5.42-1.94-15.9-5.29-22.2-4.06-.36,.07-4.07,.81-8.89,2-2.96,.73-3.02,.81-4.35,1.09-4.09,.85-7.33,.87-10.18,.88-2.93,0-6.75-.18-11.19-.91"/>
  <path class="cls-18" d="M367.7,422.62c-6.6,1.56-14.62,2.91-23.78,3.33-11.58,.53-21.6-.57-29.45-2.02-1.15-.21-4.84-1.57-10.09-2.98-7.91-2.13-10.8-2.42-12.73-2.52-.96-.05-4.44-.2-8.93,.44-5.37,.77-5.81,1.77-10.92,2.44-3.81,.5-6.86,.37-9.54,.26-3.48-.14-6.45-.53-8.75-.91"/>
  <path class="cls-18" d="M302.42,401.02c7.75,.39,19.48,.04,32.89-4.15,10.16-3.18,18.1-7.56,23.7-11.26"/>
  <path class="cls-18" d="M268.34,360.87c6.01,2.78,16.07,6.47,28.89,6.67,7.47,.12,13.83-.98,18.67-2.22"/>
  <path class="cls-15" d="M296.14,275.53c30.13-15.94,48.06-10.07,48.06-10.07,3.59,1.18,9.08,3.49,14.94,8.33,.36,.47,.86,1.29,.89,2.33,.05,1.66-1.14,2.91-1.61,3.41-11.68,12.32-30.52,13.78-30.52,13.78s-17.91,1.38-30.52-7.7c-.94-.68-3.93-2.83-3.96-5.59-.02-1.55,.78-2.78,.78-2.78,.67-1.03,1.6-1.52,1.94-1.7Z"/>
  <path class="cls-23" d="M299.01,279.68c3.59,2.54,8.76,5.43,15.41,6.89,19.92,4.36,36.21-7.83,39.15-10.11"/>
  <g>
    <path class="cls-10" d="M355.98,89.54c-.71,5.83,3.31,11.01,4.21,12.12,4.16,5.07,10.87,7.44,16.33,6.85,10.32-1.12,16.15-12.8,19.49-19.49,14.18-28.42,5.95-60.63,3.69-60.59-1.64,.03,3.36,16.88-6.85,31.61-12.22,17.63-35.29,16.48-36.88,29.5Z"/>
    <path class="cls-28" d="M377.72,103.29c3.71-3.62,8.05-8.59,11.93-15.1,7-11.74,9.21-22.93,9.99-29.93"/>
  </g>
  <g>
    <path class="cls-10" d="M290.91,92.17c.8,6.55-3.72,12.38-4.74,13.63-4.68,5.71-12.22,8.37-18.37,7.7-11.61-1.26-18.17-14.4-21.93-21.93-15.95-31.96-6.69-68.19-4.15-68.15,1.84,.03-3.78,18.98,7.7,35.56,13.74,19.83,39.69,18.54,41.48,33.19Z"/>
    <path class="cls-28" d="M266.32,106.85c-3.96-3.9-8.59-9.27-12.74-16.3-7.47-12.67-9.84-24.74-10.67-32.3"/>
  </g>
  <path class="cls-13" d="M287.15,210.55c-3.5-3.47-6.14-7.86-6.82-7.46-.59,.35,1.6,3.55,.45,5.09-1.88,2.51-11.13-1.49-13.06-2.32-3.67-1.59-9.58-3.99-15.03-9.53-10.02-10.18-12.33-22.6-13.78-30.99-.75-4.33-2.74-18.03,1.66-35.17,1.53-5.95,7.13-26.66,24.67-42.52,22.02-19.9,56.76-26.65,86.11-15.03,0,0,53.53,21.2,52.58,96.98-.05,4.08-.17,13.37-6.06,22.13-3.74,5.57-8.45,8.51-11.41,10.37-1.65,1.03-12.6,7.92-16.05,4.74-2.43-2.24,.02-8.39-.75-8.59-.64-.17-1.67,4.22-4.43,8.69-.49,.8-5.72,9.05-15.07,11.82-2.37,.7-6.12,1.38-6.71,.23-.75-1.46,4.09-4.82,3.59-5.62-.83-1.31-13.28,9.97-26.82,8.63-11.2-1.1-19.42-10.46-20.13-9.56-.6,.76,6.46,6.32,5.66,7.53-.86,1.3-11.02-1.9-18.59-9.42Z"/>
  <g>
    <g>
      <g>
        <path class="cls-29" d="M269.85,181.57c-.42-.3-.89-.65-1.41-1.06"/>
        <path class="cls-9" d="M264.87,177.28c-2.24-2.31-4.64-5.4-6.55-9.39-3.31-6.89-3.7-13.41-3.44-17.78"/>
        <path class="cls-29" d="M255.09,147.7c.09-.69,.18-1.27,.26-1.74"/>
      </g>
      <path class="cls-5" d="M372.95,166.94c.82-3.87,1.77-10.88-.26-19.2-2.66-10.95-8.93-17.88-11.85-20.74"/>
      <path class="cls-5" d="M320.69,171.73c-2.61-4.75-5.89-12.11-7.26-21.62-2.1-14.51,1.36-26.18,3.56-32"/>
      <path class="cls-5" d="M367.97,198.85c3.76-.76,8.37-2.38,12.47-5.89,9.18-7.85,12.2-22.02,8.24-36.34"/>
    </g>
    <path class="cls-5" d="M336.79,92.91c3.47,1.57,8.39,4.26,13.32,8.81,4.69,4.32,7.69,8.75,9.53,11.96"/>
    <path class="cls-5" d="M309.13,79.66c-3.1,.85-9.5,3.07-15.33,8.89-6.96,6.95-8.95,14.88-9.56,18"/>
  </g>
  <g>
    <path class="cls-13" d="M506.53,48.25c1.93-12.91,23.68-21.38,40.3-18.37,20.86,3.77,37.31,26.36,36.74,46.22-.77,26.82-32.18,34.51-29.63,55.7,2.49,20.67,33.29,20.99,39.11,46.81,3.8,16.87-5.22,35.01-16.59,45.04-14.44,12.73-34.84,14.28-36.15,11.26-1.05-2.41,9.73-5.75,14.22-17.19,3.86-9.84,.73-19.71-1.19-25.48-5.4-16.28-14.14-15.47-21.93-32-2.94-6.24-8.78-18.63-5.93-32.59,2.58-12.6,10.05-15.76,11.85-32,1.07-9.66-1-13.76-2.96-16-3.25-3.71-7.1-2.8-11.78-5.36-9.04-4.94-17.52-16.37-16.07-26.05Z"/>
    <g>
      <path class="cls-29" d="M531.09,47.66c.35-.11,.93-.29,1.69-.48"/>
      <path class="cls-8" d="M538.11,46.25c4.77-.45,11.11-.03,16.68,3.78,10.51,7.19,10.61,21.17,10.67,27.85,.07,8.54-2.26,15.54-4.47,20.32"/>
      <path class="cls-29" d="M559.79,100.64c-.3,.56-.58,1.08-.85,1.54"/>
    </g>
    <g>
      <path class="cls-29" d="M546.88,94.29c-.06,.59-.13,1.17-.2,1.75"/>
      <path class="cls-30" d="M545.91,101.4c-1.41,8.39-3.5,14.96-5.34,19.74-2.23,5.78-4.33,9.58-4.31,15.4,.02,5.54,1.95,10.32,4.19,14.09"/>
      <path class="cls-29" d="M541.91,152.9c.35,.5,.69,.98,1.03,1.42"/>
    </g>
    <g>
      <path class="cls-29" d="M561.31,158.48c.37,.16,.91,.41,1.59,.75"/>
      <path class="cls-2" d="M567.21,161.73c4.65,3.1,10.62,8.47,13.65,16.89,4.61,12.79,.72,27.86-9.89,38.6"/>
      <path class="cls-29" d="M569.16,218.95c-.43,.39-.88,.78-1.33,1.15"/>
    </g>
    <g>
      <path class="cls-29" d="M535.83,157c.26,.54,.53,1.07,.81,1.57"/>
      <path class="cls-24" d="M539.58,163.19c1.2,1.61,2.36,2.89,3.36,3.88,3.75,3.72,6.31,4.53,9.78,8.3,1.69,1.84,2.98,3.71,3.97,5.43"/>
      <path class="cls-29" d="M557.95,183.23c.27,.58,.5,1.12,.7,1.61"/>
    </g>
    <path class="cls-5" d="M548.87,61.88c-.98-1.03-6.55-6.68-15.11-6.52-5.12,.1-8.86,2.23-10.54,3.34"/>
    <path class="cls-5" d="M543.24,77c-.1-.53-.88-4.32-4.44-6.22-2.29-1.22-4.51-1.01-5.33-.89"/>
  </g>
  <path class="cls-5" d="M347.03,213.38c3.05-2.73,7.45-7.32,11.08-14.08,3.67-6.84,5.05-13.11,5.63-17.19"/>
  <path class="cls-5" d="M292.93,199.59c-3.46-4.33-8.56-11.9-11.26-22.52-1.62-6.36-1.91-12.01-1.78-16.3"/>
</svg>