<?xml version="1.0" encoding="UTF-8"?>
<svg id="CharacterBack" xmlns="http://www.w3.org/2000/svg" viewBox="0 0 640 640">
  <defs>
    <style>
      .cls-1 {
        stroke-dasharray: 0 0 3.03 4.54;
      }

      .cls-1, .cls-2, .cls-3, .cls-4, .cls-5, .cls-6, .cls-7, .cls-8, .cls-9, .cls-10, .cls-11, .cls-12, .cls-13, .cls-14, .cls-15, .cls-16, .cls-17, .cls-18, .cls-19, .cls-20, .cls-21, .cls-22, .cls-23, .cls-24, .cls-25, .cls-26, .cls-27, .cls-28, .cls-29, .cls-30, .cls-31, .cls-32, .cls-33, .cls-34, .cls-35, .cls-36, .cls-37, .cls-38, .cls-39 {
        stroke-linecap: round;
        stroke-linejoin: round;
      }

      .cls-1, .cls-2, .cls-4, .cls-5, .cls-40, .cls-6, .cls-7, .cls-8, .cls-10, .cls-11, .cls-12, .cls-13, .cls-14, .cls-15, .cls-16, .cls-41, .cls-17, .cls-18, .cls-19, .cls-20, .cls-21, .cls-22, .cls-23, .cls-24, .cls-25, .cls-26, .cls-29, .cls-30, .cls-32, .cls-35, .cls-36, .cls-37, .cls-38, .cls-39 {
        fill: none;
      }

      .cls-1, .cls-5, .cls-7, .cls-12, .cls-42, .cls-14, .cls-16, .cls-21, .cls-22, .cls-23, .cls-26, .cls-43, .cls-28, .cls-29 {
        stroke-width: 2px;
      }

      .cls-1, .cls-12, .cls-14, .cls-26, .cls-43 {
        stroke: #bc695c;
      }

      .cls-2 {
        stroke-dasharray: 0 0 3.14 4.71;
      }

      .cls-2, .cls-3, .cls-4, .cls-6, .cls-8, .cls-10, .cls-11, .cls-13, .cls-15, .cls-41, .cls-44, .cls-17, .cls-18, .cls-19, .cls-20, .cls-24, .cls-45, .cls-25, .cls-27, .cls-30, .cls-31, .cls-32, .cls-33, .cls-35, .cls-36, .cls-38, .cls-46, .cls-39 {
        stroke-width: 2.5px;
      }

      .cls-2, .cls-6, .cls-11, .cls-13, .cls-15, .cls-17, .cls-20, .cls-30, .cls-32, .cls-35, .cls-38, .cls-39 {
        stroke: #ba8b74;
      }

      .cls-3, .cls-40, .cls-47, .cls-8, .cls-9, .cls-10, .cls-42, .cls-41, .cls-44, .cls-18, .cls-19, .cls-24, .cls-45, .cls-25, .cls-27, .cls-28, .cls-31, .cls-33, .cls-34, .cls-36, .cls-37, .cls-46 {
        stroke: #000;
      }

      .cls-3, .cls-34, .cls-46, .cls-48 {
        fill: #eeaabc;
      }

      .cls-4, .cls-5, .cls-7, .cls-16, .cls-21, .cls-22, .cls-23, .cls-29 {
        stroke: #c681a0;
      }

      .cls-4, .cls-20, .cls-21, .cls-25 {
        stroke-dasharray: 0 0 3.52 5.29;
      }

      .cls-5 {
        stroke-dasharray: 0 0 3.62 5.43;
      }

      .cls-40, .cls-47, .cls-42, .cls-41, .cls-44, .cls-45, .cls-43, .cls-46 {
        stroke-miterlimit: 10;
      }

      .cls-40, .cls-47, .cls-34, .cls-37 {
        stroke-width: 2.64px;
      }

      .cls-6 {
        stroke-dasharray: 0 0 3.97 5.95;
      }

      .cls-47, .cls-44 {
        fill: #f5e3d9;
      }

      .cls-7 {
        stroke-dasharray: 0 0 3.18 4.77;
      }

      .cls-8 {
        stroke-dasharray: 0 0 3.28 4.93;
      }

      .cls-9 {
        fill: #fff;
      }

      .cls-10 {
        stroke-dasharray: 0 0 3.35 5.03;
      }

      .cls-11 {
        stroke-dasharray: 0 0 3.48 5.22;
      }

      .cls-49 {
        fill: #ddc7bc;
      }

      .cls-42 {
        fill: #6993bb;
      }

      .cls-14 {
        stroke-dasharray: 0 0 3.25 4.88;
      }

      .cls-15 {
        stroke-dasharray: 0 0 3.21 4.82;
      }

      .cls-16 {
        stroke-dasharray: 0 0 3.11 4.67;
      }

      .cls-17 {
        stroke-dasharray: 0 0 3.6 5.41;
      }

      .cls-50, .cls-31 {
        fill: #f4f3e7;
      }

      .cls-18 {
        stroke-dasharray: 0 0 3.37 5.05;
      }

      .cls-19 {
        stroke-dasharray: 0 0 3.48 5.23;
      }

      .cls-51 {
        fill: #e889a9;
      }

      .cls-23 {
        stroke-dasharray: 0 0 3.87 5.8;
      }

      .cls-52, .cls-27 {
        fill: #efe8e6;
      }

      .cls-45 {
        fill: #efa8bd;
      }

      .cls-26 {
        stroke-dasharray: 0 0 2.4 3.2;
      }

      .cls-43 {
        fill: #f1a791;
      }

      .cls-28 {
        fill: #3f3f3f;
      }

      .cls-29 {
        stroke-dasharray: 0 0 3.57 5.36;
      }

      .cls-30 {
        stroke-dasharray: 0 0 3.38 5.07;
      }

      .cls-32 {
        stroke-dasharray: 0 0 3.36 5.04;
      }

      .cls-33 {
        fill: #f8decf;
      }

      .cls-35 {
        stroke-dasharray: 0 0 2.98 4.46;
      }

      .cls-36 {
        stroke-dasharray: 0 0 3.31 4.96;
      }

      .cls-38 {
        stroke-dasharray: 0 0 4.06 6.09;
      }

      .cls-39 {
        stroke-dasharray: 0 0 3.26 4.89;
      }
    </style>
  </defs>
  <path class="cls-31" d="M318.72,595.01c.2,1.9,.98,6.83,4.87,11.26,5.15,5.86,12.06,6.67,14.3,6.77,7.41,.31,14.41-2.36,16.58-6.41,1.47-3.76,2.95-7.53,4.42-11.29,.82-2.33,2.19-7.33,.58-13.06-2.4-8.52-10.67-16.05-21.04-16-10.47,.05-19.11,7.83-21,16.75-1.12,5.28,.37,9.8,1.28,11.99Z"/>
  <path class="cls-45" d="M326.98,572.83c.38,2.18-.89,3.9-1.56,4.8-.71,.97-2.8,3.79-5.95,3.47-2.85-.29-4.3-2.93-4.37-3.07-1.48-2.8,.02-5.6,.26-6.03,.15-.28,1.82-3.26,5.2-3.61,.73-.07,2.83-.16,4.58,1.34,.34,.29,1.54,1.35,1.84,3.11Z"/>
  <path class="cls-45" d="M349.08,572.83c-.38,2.18,.89,3.9,1.56,4.8,.71,.97,2.8,3.79,5.95,3.47,2.85-.29,4.3-2.93,4.37-3.07,1.48-2.8-.02-5.6-.26-6.03-.15-.28-1.82-3.26-5.2-3.61-.73-.07-2.83-.16-4.58,1.34-.34,.29-1.54,1.35-1.84,3.11Z"/>
  <path class="cls-25" d="M354.14,591.75c-.07,1.07-.58,7.41-5.93,11.56-.94,.73-4.33,3.28-9.19,3.11-5.85-.2-9.45-4.17-10.37-5.19-3.36-3.71-3.99-7.91-4.15-9.48"/>
  <path class="cls-24" d="M355.77,588.05c-2.86-6.34-9.01-10.54-15.85-10.81-7.35-.3-14.24,3.99-17.33,10.81"/>
  <path class="cls-45" d="M284.01,568.24c0,2.2,1.2,3.77,1.83,4.6,.68,.89,2.65,3.47,5.03,2.83,2.15-.58,2.92-3.34,2.96-3.49,.77-2.92-.75-5.55-.99-5.96-.15-.26-1.83-3.05-4.47-3.05-.57,0-2.2,.13-3.35,1.8-.22,.32-1,1.49-1.01,3.27Z"/>
  <path class="cls-31" d="M257.76,590.73c-.12-1.34-.17-3.32,.24-5.64,.27-1.53,2.91-15.46,14.32-17.62,8.1-1.53,16.02,3.75,19.09,10.3,1.41,3,1.6,5.86,1.55,7.73,2.68,3.72,5.36,7.44,8.04,11.15,.13,.28,.27,.63,.37,1.05,.09,.39,.13,.75,.14,1.04-.18,1.84-.36,3.68-.54,5.52-1.8,1.66-6.39,5.41-13.32,6.38-10.85,1.53-18.72-4.95-20.01-6.05-3.29-4.62-6.58-9.25-9.87-13.87Z"/>
  <g>
    <path class="cls-24" d="M296.59,598.2c-.34,.31-.79,.71-1.35,1.13"/>
    <path class="cls-18" d="M290.81,601.73c-.82,.29-1.71,.53-2.67,.69-5.83,.96-10.38-1.75-12.67-3.11-2.13-1.27-3.82-2.74-5.15-4.17"/>
    <path class="cls-24" d="M268.71,593.19c-.38-.51-.72-.99-1.01-1.44"/>
  </g>
  <path class="cls-24" d="M263.3,589.67c.4-1.36,1.05-3.21,2.18-5.25,1.05-1.9,4.79-8.7,10.3-10.03,5.65-1.36,12.96,3.08,17.18,11.11"/>
  <g>
    <path class="cls-24" d="M338.44,569.42v1.76"/>
    <path class="cls-24" d="M338.44,575.77v1.76"/>
  </g>
  <path class="cls-44" d="M354.21,500.39c-1.45,6.16-2.58,10.99-3.33,14.1-.18,.73-.54,2.26-.88,4.34-.26,1.6-.44,3.12-.55,4.53,.27,8.42,.41,17.09,.39,25.97-.03,14.18-.46,27.8-1.2,40.83,.41,.97,.85,2.44,.62,4.15-.6,4.36-5.38,8.44-10.37,7.81-4.09-.52-6.73-4.01-7.7-6.81-.61-1.77-.61-3.36-.51-4.39-2.37-18.33-3.5-26.44-4.06-30.1-.09-.57-.39-2.53-.73-5.17-.33-2.64-.61-5.35-.89-8.65-.49-5.73-.58-14.1,1.56-24.68-.01-1.09-.02-2.75,.06-4.76,.25-6.98,1.18-11.9,1.77-15.54,.63-3.95,1.4-9.71,1.81-17.05,1.64-5.69,6.83-9.67,12.74-9.78,5.86-.1,11.15,3.62,13.04,9.19-.58,5.34-1.17,10.68-1.75,16.02Z"/>
  <path class="cls-44" d="M305.42,502.52c-.46,2.77-1.33,6.83-3.08,11.52-1.45,3.87-2.71,6.07-3.72,8.22-3.05,6.49-3.51,11.95-4.31,18.79-1.08,9.19-2.73,20.55-5.07,35.27,.25,3.27,.5,6.54,.76,9.81,.47,1.31,1.9,5.68-.15,8-3.18,3.6-12.11-.68-13.48-1.33-5.48-2.62-8.73-6.71-10.37-9.19,.41-.84,.92-1.76,1.55-2.7,1.33-1.98,2.79-3.45,4.03-4.5-.05-12.09,.06-21.93,.09-28.96,.02-3.88,.06-9.99,1.72-17.95,.11-.51,.21-.96,.3-1.36,1.89-8,4.81-14.2,7.04-18.25,.48-.82,.96-1.78,1.38-2.88,.91-2.36,1.21-4.51,1.3-6.14,1.37-6.78,2.74-13.55,4.1-20.33,2.25-4.64,7.38-7.2,12.44-6.22,5.07,.98,8.87,5.28,9.22,10.43-1.26,5.93-2.51,11.86-3.77,17.79Z"/>
  <g>
    <path class="cls-12" d="M342.74,525.09c-.17-.16-.52-.48-1.03-.82"/>
    <path class="cls-26" d="M338.75,523.1c-.24-.04-.5-.07-.76-.08-1.23-.07-2.3,.17-3.17,.52"/>
    <path class="cls-12" d="M333.41,524.27c-.55,.36-.91,.69-1.04,.81"/>
  </g>
  <g>
    <path class="cls-12" d="M293.56,520.76c-.11-.21-.33-.63-.7-1.12"/>
    <path class="cls-26" d="M290.48,517.55c-.22-.12-.44-.23-.69-.33-1.14-.48-2.23-.61-3.16-.57"/>
    <path class="cls-12" d="M285.04,516.87c-.64,.16-1.09,.34-1.25,.42"/>
  </g>
  <path class="cls-45" d="M268.25,570.48c.31,2.22-.75,3.97-1.3,4.89-.6,.99-2.35,3.86-4.98,3.53-2.39-.3-3.6-2.98-3.66-3.13-1.24-2.85,.02-5.7,.22-6.15,.12-.28,1.52-3.32,4.36-3.68,.61-.08,2.37-.16,3.84,1.37,.28,.3,1.29,1.37,1.54,3.17Z"/>
  <path class="cls-31" d="M130.19,334c.52-4.24,1.84-10.33,5.42-16.74,1.52-2.72,3.18-5,4.74-6.86,1.63-.97,3.26-1.94,4.89-2.91,1.25,.03,2.83,.17,4.59,.59,1.6,.39,2.95,.91,4.02,1.4"/>
  <path class="cls-31" d="M149.24,307.95l4.92-3.76c.99-.08,2.39-.07,4,.33,2.49,.63,4.21,1.89,5.11,2.67-.48,2.04-.96,4.07-1.44,6.11"/>
  <path class="cls-48" d="M145.24,308.86c-1.63,.97-3.26,1.94-4.89,2.91,1.34,.11,3.21,.4,5.29,1.24,1.69,.68,3.01,1.51,3.97,2.22,.43-.81,1.14-1.91,2.3-2.96,.69-.63,1.36-1.08,1.94-1.41-1.06-.5-2.41-1.02-4.02-1.4-1.77-.43-3.34-.57-4.59-.59Z"/>
  <path class="cls-31" d="M139.86,311c1.55-.09,3.77-.01,6.27,.78,1.22,.39,2.26,.86,3.11,1.33"/>
  <g>
    <path class="cls-31" d="M427.27,314.33c-.12,.57-.3,1.43-.48,2.49-1.67,9.75-.14,16.63,.4,25.66,.55,9.23,.83,13.84,1.34,19.73,.62,7.06,1.17,11.61,2.06,22.28,.29,3.42,.51,6.25,.65,8.15-.43,.66-.92,1.55-1.31,2.66-.53,1.52-.67,2.86-.69,3.82,.37,1,1.01,2.45,2.06,4.01,2.29,3.41,5.07,5.15,8.91,7.44,5,2.99,9.23,5.4,12.44,7.19-.07,.2-.28,.87,0,1.66,.23,.66,.68,1.03,.87,1.16,1.05,2.13,2.09,4.26,3.14,6.39,2.19,.14,4.38,.28,6.56,.42,.21,.56,.83,1.96,2.34,3.05,1.5,1.09,3.03,1.24,3.62,1.27,3.09-.6,5.6-1.43,7.44-2.15,2.44-.96,7.02-2.81,11.45-6.95,.63-.59,1.13-1.1,1.47-1.47,.08-1.23,.07-2.77-.2-4.5-.2-1.34-.51-2.52-.84-3.5,.27-.45,.64-1.14,.96-2.03,.52-1.48,.61-2.75,.71-4.3,.04-.63,.07-1.44,.05-2.4,2.77-4.96,5.55-9.92,8.32-14.88,.29-.58,.63-1.41,.78-2.45,.28-1.9-.19-3.44-.49-4.21-3.47-8.54-7.65-17.69-12.72-27.25-3.65-6.89-7.38-13.27-11.07-19.14-2.63-5.95-5.8-12.28-9.64-18.81-9.13-15.53-19.54-26.9-28.53-36.88-2.31-2.56-4.26-4.65-5.59-6.07"/>
    <path class="cls-3" d="M452.65,419.4c2.74-2.86,6.84-6.46,12.5-9.44,10.33-5.43,20.09-5.77,25.07-5.58,.1,1.12,.12,2.68-.24,4.51-.36,1.81-.97,3.24-1.48,4.23,.48,1.45,.94,3.08,1.31,4.87,.26,1.24,.45,2.42,.59,3.52-2.43,2-5.82,4.39-10.18,6.46-4.2,1.99-8.04,3.09-11.04,3.72-.3,.02-2.17,.14-3.62-1.27-1.06-1.03-1.28-2.26-1.34-2.68-2.52-.27-5.05-.53-7.57-.8-1.33-2.52-2.67-5.03-4-7.55Z"/>
    <path class="cls-25" d="M431.25,392.62c3.71-4.05,8.85-8.89,15.64-13.46,5.71-3.84,11.13-6.5,15.66-8.35"/>
    <path class="cls-31" d="M463.22,427.36c1.81-2.43,4.94-5.98,9.77-8.99,6.25-3.9,12.24-4.93,15.52-5.26,.63,2.8,1.27,5.59,1.9,8.39-4.24,2.85-8.02,5.12-11.08,6.87-5.56,3.18-8.99,4.74-11.43,3.6-1.75-.82-3.13-2.35-3.13-2.35-.76-.85-1.25-1.67-1.55-2.27Z"/>
    <path class="cls-25" d="M475.05,336.46c-4.33-4.29-8.93-8.64-13.82-13.02-3.03-2.72-6.03-5.33-9-7.83"/>
  </g>
  <g>
    <path class="cls-31" d="M200.13,286.03c-2.83,1.27-5.89,2.85-9.07,4.79-5.38,3.28-9.73,6.79-13.15,9.96-1.9-.22-4.42-.31-7.32,.09-2.37,.33-4.38,.92-5.96,1.5-.72,2.81-1.44,5.61-2.16,8.42-1.15-.65-3.89-1.99-7.34-1.55-2.09,.27-3.62,1.08-4.31,1.46-2.19,1.2-3.49,2.71-4.38,3.79-3.56,4.29-6.67,8.79-8.16,11.01-1.09,1.11-12.45,12.78-14.09,15.57-.13,.22-.42,.72-.51,1.43-.22,1.7,.88,3.18,1.6,3.98-1.66,1.98-3.31,3.95-4.97,5.93-.3,.23-1.59,1.3-1.76,3.08-.07,.76,.09,1.39,.23,1.79,1.92,2.63,3.84,5.27,5.76,7.9,4.66,3.77,12.1,8.47,21.98,9.91,8.79,1.28,20.45,.11,22-4.44,.36-1.07,.09-2.08,.89-5.11,.59-2.21,1.28-3.73,2-5.33,.94-2.1,2.3-5.16,4.09-9.31l5.19-10.7c1.69-3.45,3.39-6.9,5.08-10.34,1.8-1.01,3.59-2.03,5.39-3.04,.65-2.82,1.31-5.65,1.96-8.47"/>
    <g>
      <path class="cls-24" d="M153.75,320.34c.49,.32,.98,.64,1.47,.97"/>
      <path class="cls-8" d="M159.34,324.01c3.99,2.62,7.99,5.24,11.98,7.86,.66,.49,1.8,1.45,2.67,3.03,.82,1.48,1.06,2.86,1.14,3.66,.08,2.7,.16,5.41,.23,8.11"/>
      <path class="cls-24" d="M175.44,349.14l.05,1.76"/>
    </g>
    <g>
      <path class="cls-24" d="M125.27,346.48c.27,.37,.65,.83,1.12,1.36"/>
      <path class="cls-10" d="M130.26,351.04c.67,.41,1.4,.8,2.21,1.15,1.13,.49,2.22,.82,3.22,1.05"/>
      <path class="cls-24" d="M138.17,353.61c.68,.05,1.27,.06,1.76,.05"/>
    </g>
  </g>
  <g>
    <path class="cls-50" d="M277.2,326.2c-2.57,7.42-4.48,12.92-7.81,20.44-10.11,22.8-17,38.47-23.22,44.96-.65,.68-3.01,3.02-3.09,6.25-.06,2.35,1.1,4.03,2.63,6.49,1.5,2.43,3.58,5.98,5.86,10.62v8.59c7.97,2.59,18.59,5.52,31.31,7.63,11.66,1.93,27.81,4.53,48.44,2.44,10.08-1.02,24.35-3.47,40.75-9.8-.13-3-.26-5.99-.39-8.99,1.07-.42,2.75-1.28,3.63-2.99,1.34-2.6,.06-5.7-.22-6.44-1.47-3.84,.94-2.35-3.56-43.78-1.16-10.68-2.08-18-3.76-30.89-3.18-24.45-4.63-32.24-8.02-41.78-2.18-6.13-4.46-11.01-6.1-14.27-5.04-2.5-15.52-6.83-29.21-6.21-18.37,.84-30.85,10.07-35.1,13.52-2.32,11.3-6.04,26.55-12.16,44.19Z"/>
    <g>
      <path class="cls-34" d="M263.66,426.12c-.94,2.95-1.94,5.79-2.97,8.52,1.73,1.1,4.18,2.39,7.29,3.32,3.85,1.15,7.21,1.28,9.5,1.2,1.35,.7,3.72,1.7,6.81,1.92,3.61,.26,6.44-.66,7.91-1.25,2.22,.58,4.95,1.1,8.11,1.28,2.49,.15,4.73,.06,6.64-.13,2.26,.4,5.04,.7,8.21,.63,2.56-.05,4.84-.34,6.76-.7,4.06,.79,9.26,1.42,15.29,1.25,5.59-.16,10.41-.96,14.23-1.87,2.64,.49,6.65,.9,11.4,.14,3.99-.63,7.18-1.87,9.4-2.94-3.13-13.45-6.27-26.9-9.4-40.35-2.65,.04-5.66,.23-8.94,.7-3.27,.47-6.2,1.12-8.74,1.83-3.77-.37-8.32-.51-13.44,0-3.35,.33-6.38,.89-9.04,1.52-1.46-.2-3.26-.33-5.32-.22-2.22,.13-4.12,.51-5.61,.91-1.84-.81-4.26-1.68-7.18-2.22-2.33-.43-4.41-.54-6.13-.52-1.5-.44-3.25-.82-5.22-1.04-3.97-.44-7.37-.05-9.85,.46-4.31-1-8.61-2-12.92-2.99-1.21,9.33-3.31,19.64-6.79,30.54Z"/>
      <g>
        <path class="cls-22" d="M278.17,435.61c.15-.56,.29-1.13,.44-1.71"/>
        <path class="cls-29" d="M279.81,428.68c.42-1.95,.81-3.98,1.17-6.09,.53-3.09,.94-6.07,1.26-8.89"/>
        <path class="cls-22" d="M282.52,411.03c.06-.59,.11-1.18,.16-1.75"/>
      </g>
      <g>
        <path class="cls-22" d="M292.21,437.95c.1-.58,.2-1.16,.31-1.73"/>
        <path class="cls-7" d="M293.31,431.51c.11-.67,.22-1.33,.33-2,1.06-6.54,1.97-12.96,2.76-19.24"/>
        <path class="cls-22" d="M296.7,407.9c.07-.58,.14-1.17,.21-1.75"/>
      </g>
      <g>
        <path class="cls-22" d="M306.95,439.1c.11-.57,.22-1.15,.33-1.73"/>
        <path class="cls-16" d="M308.08,432.77c.15-.99,.3-1.99,.44-3,.48-3.52,.83-6.9,1.06-10.13"/>
        <path class="cls-22" d="M309.73,417.3c.03-.59,.06-1.18,.09-1.76"/>
      </g>
      <g>
        <path class="cls-22" d="M351.44,438.41c-.12-.57-.24-1.15-.36-1.72"/>
        <path class="cls-23" d="M349.94,431c-.38-1.95-.74-3.93-1.1-5.93-.62-3.49-1.18-6.91-1.68-10.26"/>
        <path class="cls-22" d="M346.74,411.94c-.08-.58-.17-1.16-.25-1.74"/>
      </g>
      <g>
        <path class="cls-22" d="M321.92,439.04c0-.58-.01-1.17-.02-1.76"/>
        <path class="cls-22" d="M321.68,431.26c-.03-.59-.07-1.18-.11-1.76"/>
      </g>
    </g>
    <path class="cls-24" d="M272.58,378.06c.66,.81,1.41,1.84,2.11,3.12,.68,1.25,1.14,2.41,1.46,3.39"/>
    <path class="cls-31" d="M281.09,311.93c-3.45,15.18-8.05,26.78-11.71,34.71-12.24,26.54-18.32,39.85-23.22,44.96-.65,.68-3.01,3.02-3.09,6.25-.06,2.35,1.1,4.03,2.63,6.49,1.5,2.43,3.58,5.98,5.86,10.62v8.59c7.97,2.59,18.59,5.52,31.31,7.63,11.66,1.93,27.81,4.53,48.44,2.44,10.08-1.02,24.35-3.47,40.75-9.8-.13-3-.26-5.99-.39-8.99,1.07-.42,2.75-1.28,3.63-2.99,1.34-2.6,.06-5.7-.22-6.44-1.47-3.84,.94-2.35-3.56-43.78-1.86-17.13-2.63-25.82-3.76-30.89-2.08-9.34-4.72-16.81-6.69-21.78"/>
    <g>
      <path class="cls-24" d="M256.31,420.79c.55,.15,1.12,.3,1.7,.45"/>
      <path class="cls-19" d="M263.08,422.49c5.65,1.33,12.47,2.72,20.23,3.87,11.69,1.73,27.59,3.99,47.79,2.17,8.35-.76,19.62-2.41,32.7-6.26"/>
      <path class="cls-24" d="M366.3,421.5c.56-.17,1.12-.35,1.68-.53"/>
    </g>
    <path class="cls-24" d="M251.56,416c20.04,4.71,37.1,6.72,49.76,7.64,12.46,.9,22.97,1.6,36.89-.22,14.14-1.86,25.57-5.5,33.48-8.57"/>
    <path class="cls-3" d="M294.43,285.19c5.19,6.93,9.37,12.51,12.89,15.33,8.27,6.63,23.45,6.54,34.58-.15,11.68-7.03,14.91-18.95,15.56-21.57-.81-1.11-2.05-2.61-3.79-4.11-10.42-9.01-25.57-6.73-33.68-5.5-12.71,1.92-22.5,7.12-28.86,11.44,.76,1.08,1.89,2.67,3.31,4.56Z"/>
    <path class="cls-4" d="M301.54,281.19c.49,1.82,2.62,8.96,9.78,13.56,7.28,4.68,14.75,3.52,17.11,3.11,7.08-1.22,11.57-5.14,13.78-7.11,4.8-4.3,7.14-9.09,8.22-11.78"/>
  </g>
  <g>
    <path class="cls-49" d="M329.5,225.31c-2.77,.11-5.58,.2-8.41,.27-2.51,.06-4.99,.11-7.45,.14,.02,.76-.03,1.72-.26,2.81-.22,1.06-.54,1.95-.84,2.62,1.09,.65,4.09,2.27,8.21,2.05,4.07-.21,6.87-2.09,7.89-2.86,0-.51,.01-1.07,.08-1.66,.14-1.34,.45-2.48,.79-3.39Z"/>
    <g>
      <path class="cls-33" d="M354.6,239.26c1.59,.48,1.5,2.11,3.33,2.99,4.88,2.36,9.84,1.24,10.62,1.05,5.15-1.24,8.24-4.6,9.35-5.95,2.31,.29,6.51,.45,10.97-1.58,7.54-3.42,10.32-10.58,11.03-12.42,1.11-2.86,1.39-5.27,1.49-6.33,2.77-29.18-4.8-53.09-4.8-53.09-6.91-21.85-18.78-59.33-51.92-73.82-5.89-2.57-10.89-3.76-13.7-4.32-3.12-.61-26.2-4.81-47.14,7.94-13.16,8.01-18.99,18.76-26.56,32.74-10.59,19.54-12.83,39.22-17.31,78.58-.19,1.71-.66,6.12,.49,11.6,2.95,14.06,13.96,23.03,21.2,25.49,2.54,.86,5.67,1.92,8.51,.55,2.02-.97,2.64-2.57,4.59-2.55,1.91,.02,2.63,1.56,4.9,1.49,1.22-.04,1.47-.49,2.84-.9,3.83-1.15,5.6,1.47,9.03,.43,1.64-.49,1.21-1.05,3.6-1.96,1.76-.67,3.66-1.39,5.81-.91,1.1,.25,5.46,1.53,5.79,1.5,.01,0,.16-.02,.35-.01,.08,0,.14,0,.18,0,2.36,.16,3.15,2.86,5.35,4.68,2.66,2.21,6.07,2.07,6.72,2.04,2.34-.09,4.05-1.01,5.99-2.11,3.45-1.97,3.42-3.01,5.34-4.02,5.74-3.02,10.69,3.89,17.56,1.14,2.7-1.08,4.18-2.95,6.4-2.28Z"/>
      <g>
        <path class="cls-47" d="M376.23,179.43c-.89,11.35-2.59,14.46-4.01,16.37-1.31,1.75-3.15,3.52-4.41,6.98-1.4,3.85-.57,5.65-1.22,8.15-1.56,6-9.75,8.85-15.74,10.86-6.97,2.33-13.71,3.34-24.66,3.66-16.81,.49-25.22,.73-32.75-2.27-12.11-4.83-18.93-13.91-21.65-17.63-12.59-17.22-14.09-40.61-7.74-59.23,6.87-20.14,26.97-46.63,56.56-46.02,31.79,.65,51.46,32.1,55.18,50.69,1.91,9.53,.92,22.17,.42,28.46Z"/>
        <path class="cls-52" d="M341.27,179.37c-.96,1.01-2.42,2.8-3.4,5.47-1.83,4.99-1.63,12.16,2.19,16.36,2.47,2.71,5.47,3.12,8.68,3.55,1.69,.23,9.03,.99,15.39-4.31,1.05-.87,2.94-2.49,4.51-5.4,1.97-3.65,2.28-7.23,2.33-9.06-3.28-3.77-6.46-5.47-8.43-6.29-4.62-1.92-8.89-1.61-14.45-1.21-2.87,.21-5.22,.59-6.82,.9Z"/>
        <path class="cls-52" d="M303.23,179.78c.79,1.57,2.11,4.72,1.94,8.8-.06,1.42-.32,7.57-5.38,11.85-3.94,3.34-9.2,4.22-13.45,3.18-8.93-2.18-12.4-12.28-13.45-15.36-1.12-3.25-1.43-6.12-1.52-8.03,3.84-1.28,9.63-2.71,16.74-2.7,6.29,.02,11.47,1.16,15.11,2.26Z"/>
        <path class="cls-43" d="M367.59,203.42c-1.74-1.06-5.22-2.86-9.87-3.03-1.69-.06-10.25-.38-15.21,6.33-3.6,4.86-3.98,11.62-1.13,17.43,4.08-.8,7.45-1.74,9.97-2.53,.71-.22,4.98-1.58,9.53-4.06,1.07-.58,2.43-1.38,3.69-2.89,.53-.64,1.54-1.89,2.02-3.74,.39-1.54,.07-2.14,.37-4.46,.17-1.33,.44-2.39,.63-3.04Z"/>
        <g>
          <path class="cls-12" d="M364.2,205.21c-.45-.2-1-.42-1.64-.63"/>
          <path class="cls-14" d="M357.8,203.56c-2.18-.24-5.12-.21-8.11,1.28-1.09,.54-4.35,2.17-6.01,6.03-.74,1.72-.95,3.39-.91,4.81"/>
          <path class="cls-12" d="M343.06,218.11c.18,.82,.4,1.41,.5,1.69"/>
        </g>
        <path class="cls-43" d="M295.64,223.93c.85-.86,3.81-4.1,4.11-9.13,.02-.36,.32-7.45-5.4-11.92-5.03-3.93-12.01-3.72-16.68-.66-2.45,1.6-3.83,3.7-4.56,5.06,1.89,2.55,4.56,5.64,8.23,8.62,5.33,4.34,10.6,6.71,14.31,8.03Z"/>
        <g>
          <path class="cls-12" d="M293.68,219.27c.28-.34,.65-.82,1-1.45"/>
          <path class="cls-1" d="M295.79,213.47c-.06-3.79-2.63-6.49-2.87-6.74-2.86-2.91-6.56-2.98-7.7-2.94-1.71,.05-3.16,.51-4.33,1.08"/>
          <path class="cls-12" d="M278.96,206.07c-.69,.52-1.13,.98-1.31,1.18"/>
        </g>
        <path class="cls-42" d="M352.76,178.28c1.59,.38,3.93,1.21,5.75,3.21,5.15,5.63,3.83,17.91-3.15,21.29-3.56,1.73-8.62,1.16-11.83-1.72-2.97-2.66-3.4-6.27-3.63-8.23-.55-4.64,1.19-8.25,2-9.68,1.03-1.83,2.24-3.12,3.12-3.94,2.58-.31,5.15-.63,7.73-.94Z"/>
        <path class="cls-42" d="M296.58,178.23c1.32,1.75,2.85,4.38,3.52,7.82,.38,2,1.31,8.63-2.94,13.84-1.07,1.31-2.94,3.61-5.97,4.07-5.7,.87-10.05-5.59-10.31-5.99-3.71-5.69-1.7-12.17-1.23-13.66,.96-3.11,2.57-5.3,3.64-6.55,1.87-.13,3.93-.19,6.13-.13,2.62,.07,5.02,.3,7.16,.61Z"/>
        <path class="cls-9" d="M350.08,181.19c0,.84,.13,3.35,1.94,5.73,1.52,2,3.42,2.84,4.25,3.15-1.3,.4-2.84,1.12-4.01,2.52-2.46,2.96-1.9,7.35-2.24,7.34-.32,0,.29-4.04-1.87-7.17-1.05-1.52-2.48-2.43-3.65-2.98,.77-.29,2.45-1.03,3.8-2.77,1.88-2.43,1.82-5.09,1.78-5.82Z"/>
        <path class="cls-9" d="M289.23,180.5c0,.84,.13,3.35,1.94,5.73,1.52,2,3.42,2.84,4.25,3.15-1.3,.4-2.84,1.12-4.01,2.52-2.46,2.96-1.9,7.35-2.24,7.34-.32,0,.29-4.04-1.87-7.17-1.05-1.52-2.48-2.43-3.65-2.98,.77-.29,2.45-1.03,3.8-2.77,1.88-2.43,1.82-5.09,1.78-5.82Z"/>
        <path class="cls-40" d="M376.23,179.43c-.89,11.35-2.59,14.46-4.01,16.37-1.31,1.75-3.15,3.52-4.41,6.98-1.4,3.85-.57,5.65-1.22,8.15-1.56,6-9.75,8.85-15.74,10.86-6.97,2.33-13.71,3.34-24.66,3.66-16.81,.49-25.22,.73-32.75-2.27-12.11-4.83-18.93-13.91-21.65-17.63-12.59-17.22-14.09-40.61-7.74-59.23,6.87-20.14,26.97-46.63,56.56-46.02,31.79,.65,51.46,32.1,55.18,50.69,1.91,9.53,.92,22.17,.42,28.46Z"/>
        <path class="cls-27" d="M327.89,207.96c-.07,.19-.72,1.87-2.48,2.38-1.49,.43-3.16-.16-4.16-1.49-.85,1.29-2.35,2-3.87,1.83-2.3-.25-3.28-2.34-3.31-2.43"/>
        <path class="cls-28" d="M304.77,179.19c.28-.69-4.42-3.41-7.25-4.66-4.2-1.85-12.86-4.22-27.25,1.16,.37,1.51,.74,3.02,1.11,4.52,4.83-1.57,8.96-2.19,11.91-2.46,7.79-.71,14.55,.4,15.3,.53,3.59,.61,5.99,1.39,6.18,.91Z"/>
        <path class="cls-28" d="M371.72,179.03c-1.84-1.29-4.01-2.47-6.51-3.33-12.76-4.39-24.97,2.77-27.84,4.55,6.53-1.56,12.04-1.85,15.93-1.8,8.2,.11,11.5,1.76,13,2.65,2.23,1.31,3.78,2.86,4.77,4,.22-2.03,.43-4.05,.65-6.08Z"/>
        <path class="cls-12" d="M350.23,169.75c-1.48,.09-3.36,.35-5.44,1.01-1.43,.45-2.65,1-3.66,1.53"/>
        <path class="cls-12" d="M301.88,171.8c-1.09-.72-2.43-1.48-4.01-2.18-1.45-.64-2.8-1.08-3.98-1.4"/>
      </g>
      <g>
        <path class="cls-13" d="M295.47,108.02c-.42,.36-.87,.75-1.32,1.16"/>
        <path class="cls-39" d="M290.61,112.56c-4.04,4.11-8.64,9.7-12.65,16.98-4.93,8.97-7.25,17.38-8.38,23.66"/>
        <path class="cls-13" d="M269.19,155.61c-.09,.61-.17,1.19-.24,1.74"/>
      </g>
      <g>
        <path class="cls-13" d="M259.81,180.19c.04,.6,.06,1.18,.08,1.76"/>
        <path class="cls-17" d="M259.82,187.35c-.3,4.84-1.19,8.64-2.09,11.47-.61,1.92-2.09,6.17-3.9,12.7-1.02,3.7-1.55,5.97-1.45,8.94,.08,2.43,.19,5.66,2.19,8.53,1.81,2.6,4.5,3.91,6.8,4.58"/>
        <path class="cls-13" d="M264.01,234.13c.85,.11,1.48,.13,1.75,.14"/>
      </g>
      <g>
        <path class="cls-13" d="M250.9,191.8c-.15,.58-.3,1.14-.44,1.71"/>
        <path class="cls-2" d="M249.32,198.07c-1.18,4.89-2.1,9.24-2.83,12.98-.74,3.83-1.33,7.27-.3,11.51,.36,1.46,.84,2.76,1.37,3.89"/>
        <path class="cls-13" d="M248.68,228.52c.34,.55,.66,1.04,.97,1.47"/>
      </g>
      <g>
        <path class="cls-13" d="M377.9,237.35c.32-.47,.64-.96,.96-1.47"/>
        <path class="cls-6" d="M381.68,230.64c1.04-2.3,1.8-4.51,2.36-6.53"/>
        <path class="cls-13" d="M384.73,221.21c.12-.6,.23-1.18,.32-1.73"/>
      </g>
      <g>
        <path class="cls-13" d="M285.55,240.49c-.5-.09-1.08-.22-1.72-.38"/>
        <path class="cls-15" d="M279.34,238.41c-.77-.38-1.55-.83-2.35-1.35-4.55-2.98-6.77-6.75-7.81-8.55-1.37-2.39-2.21-4.71-2.73-6.72"/>
        <path class="cls-13" d="M265.95,219.43c-.11-.64-.18-1.23-.23-1.74"/>
      </g>
      <g>
        <path class="cls-13" d="M297.71,158.99c.35-.45,.7-.92,1.05-1.41"/>
        <path class="cls-38" d="M302.04,152.44c.07-.12,.14-.25,.21-.38,1.16-2.1,2.1-4.14,2.86-6.04"/>
        <path class="cls-13" d="M306.16,143.17c.19-.58,.37-1.13,.53-1.67"/>
      </g>
      <g>
        <path class="cls-13" d="M341.05,155.45c.16-.55,.31-1.12,.46-1.7"/>
        <path class="cls-35" d="M342.44,149.39c.11-.61,.21-1.24,.3-1.88,.56-3.93,.69-7.54,.59-10.72"/>
        <path class="cls-13" d="M343.21,134.56c-.04-.6-.09-1.19-.15-1.75"/>
      </g>
      <g>
        <path class="cls-13" d="M298.94,129.07c-.4,.41-.8,.83-1.21,1.27"/>
        <path class="cls-11" d="M294.29,134.28c-2.5,3.04-5.06,6.6-7.47,10.73-5.63,9.64-8.36,18.85-9.75,25.92"/>
        <path class="cls-13" d="M276.61,173.49c-.1,.6-.19,1.18-.27,1.74"/>
      </g>
      <g>
        <path class="cls-13" d="M352.06,111.89c.37,.44,.74,.89,1.11,1.36"/>
        <path class="cls-30" d="M356.27,117.27c4.17,5.65,8.66,12.75,12.6,21.34,3.71,8.09,6.08,15.64,7.63,22.08"/>
        <path class="cls-13" d="M377.06,163.17c.13,.58,.25,1.16,.36,1.72"/>
      </g>
      <path class="cls-20" d="M321.27,166.35c1.34-1.06,2.85-2.43,4.33-4.2,2.56-3.05,4.06-6.09,4.94-8.34"/>
      <path class="cls-20" d="M304.97,160.9c.04-.75,.14-1.63,.38-2.6,.37-1.5,.92-2.71,1.42-3.59"/>
      <g>
        <path class="cls-13" d="M354.6,239.26c.36-.42,.74-.87,1.12-1.35"/>
        <path class="cls-32" d="M358.64,233.79c.38-.6,.75-1.23,1.12-1.89,.63-1.13,1.19-2.23,1.67-3.28"/>
        <path class="cls-13" d="M362.41,226.3c.22-.57,.42-1.12,.61-1.65"/>
      </g>
      <path class="cls-24" d="M354.6,239.26c1.59,.48,1.5,2.11,3.33,2.99,4.88,2.36,9.84,1.24,10.62,1.05,5.15-1.24,8.24-4.6,9.35-5.95,2.31,.29,6.51,.45,10.97-1.58,7.54-3.42,10.32-10.58,11.03-12.42,1.11-2.86,1.39-5.27,1.49-6.33,2.77-29.18-4.8-53.09-4.8-53.09-6.91-21.85-18.78-59.33-51.92-73.82-5.89-2.57-10.89-3.76-13.7-4.32-3.12-.61-26.2-4.81-47.14,7.94-13.16,8.01-18.99,18.76-26.56,32.74-10.59,19.54-12.83,39.22-17.31,78.58-.19,1.71-.66,6.12,.49,11.6,2.95,14.06,13.96,23.03,21.2,25.49,2.54,.86,5.67,1.92,8.51,.55,2.02-.97,2.64-2.57,4.59-2.55,1.91,.02,2.63,1.56,4.9,1.49,1.22-.04,1.47-.49,2.84-.9,3.83-1.15,5.6,1.47,9.03,.43,1.73-.52,1.42-1.06,3.6-1.96,3.61-1.49,8.14-1.13,11.6,.59,3.72,1.84,3.38,3.56,7.26,5.5,.16,.08,3.39,1.65,7.11,1.11,5-.73,4.89-4.4,9.55-6.03,6.82-2.39,10.81,3.84,17.56,1.14,2.7-1.08,4.18-2.95,6.4-2.28Z"/>
    </g>
    <path class="cls-37" d="M329.96,225.29c-.47,.78-1.03,1.95-1.24,3.41-.09,.61-.1,1.17-.08,1.66"/>
    <path class="cls-37" d="M313.64,225.72c.02,.76-.03,1.72-.26,2.81-.22,1.06-.54,1.95-.84,2.62"/>
  </g>
  <path class="cls-46" d="M252.69,229.39c31.58,13.07,59.61,11.26,76.29,10,19.08-1.44,37.43-8.1,74.12-21.4,5.75-2.08,14.84-5.51,21.74-14.28,2.54-3.23,6.84-9.81,8.54-22.26,1.25-9.15,1.81-26.82-15.14-62.12-11.07-23.06-16.61-34.58-28.19-46.46-7.36-7.55-35.33-35.91-75.22-34.45-50.73,1.86-80.37,51.03-85.66,59.83-12.3,20.45-15.81,40.34-19.22,59.71-3.48,19.75-5.32,31.09,.44,42.85,7.62,15.57,23.88,20.96,42.29,28.58Z"/>
  <path class="cls-45" d="M266.7,62.45c1.68,9.73-3.97,17.37-6.94,21.39-3.19,4.31-12.49,16.9-26.53,15.45-12.7-1.31-19.16-13.06-19.49-13.69-6.59-12.47,.11-24.95,1.16-26.89,.66-1.23,8.11-14.55,23.19-16.1,3.25-.33,12.63-.71,20.43,5.98,1.5,1.29,6.84,6.02,8.19,13.86Z"/>
  <path class="cls-51" d="M248.6,60.86c-1.17-1.22-3.86-3.54-7.73-3.92-6.13-.6-12.04,4-14.15,9.71-1.58,4.28-1.62,10.83,2.95,14.99,5.28,4.8,12.49,2.59,12.94,2.45,5.57-1.8,8.98-6.96,9.58-12,.11-.95,.7-6.77-3.59-11.24Z"/>
  <path class="cls-5" d="M260.16,68.34c-.42,3.98-2.01,6.63-3.88,9.75-1.81,3.02-4.58,7.64-10.18,11.22-2.94,1.88-6.4,4.09-11.22,3.92-6.55-.24-10.78-4.72-11.75-5.74-4.72-5-5.11-11.03-5.22-13.31-.37-7.5,3.17-12.88,4.7-15.14,1.83-2.7,5.33-7.86,12.27-9.92,8.02-2.38,14.69,1.14,15.92,1.83,1.72,.95,5.56,3.15,7.83,7.83,2.04,4.21,1.68,8.1,1.53,9.57Z"/>
  <path class="cls-45" d="M395.47,90.1c-5.2-6.7-6.17-8.99-8.49-11.88-6.49-8.08-12.16-6.57-14.61-13.24-.22-.59-1.72-4.85,0-9.33,3.27-8.5,14.97-9.62,15.85-9.7,10.93-.9,18.48,7.31,19.9,8.86,6.69,7.27,7.22,15.88,7.38,18.63,.11,1.75,.26,6.6-1.81,12.17-1.25,3.37-2.69,7.24-6.43,8.81-2.7,1.13-5.25,.51-5.72,.38-2.97-.78-4.71-2.95-6.07-4.7Z"/>
  <path class="cls-21" d="M407.8,61.91c1.25,2.07,3.08,5.13,3.72,9.59,.83,5.82-.92,10.27-1.76,12.33-1.37,3.37-2.62,6.43-4.94,6.81-2.56,.43-5.02-2.55-7.98-6.23-4.83-6.01-3.4-7.12-6.85-10.77-4.11-4.34-7.17-3.85-11.55-9.4-2.21-2.8-2.41-4.16-2.35-5.09,.25-4.08,5.87-6.52,7.05-7.05,4.18-1.89,8.04-1.3,9.98-.98,1.08,.18,5.31,.98,9.4,4.31,2.75,2.24,4.16,4.59,5.29,6.46Z"/>
  <path class="cls-51" d="M403.1,77.77c1.85-.71,2.1-6.35,.39-10.77-1.89-4.88-6.65-9.58-11.94-9.59-2.53,0-5.74,1.05-6.07,2.74-.23,1.21,1.08,2.44,3.13,4.31,2.84,2.59,3.43,2.11,5.29,3.92,2.75,2.68,2.2,4.44,5.29,7.24,1.35,1.23,2.83,2.57,3.92,2.15Z"/>
  <path class="cls-50" d="M211.66,149.41c1.27-9.3,4.05-22.94,10.78-38.17,5.03-11.38,19.69-44.56,55.12-62.22,7.66-3.82,23.94-11.69,45.68-10.41,15.09,.89,26.02,5.79,31.64,8.38,29.75,13.69,45.08,38.98,53.51,52.89,9.52,15.71,15.99,32.95,17.7,37.63,1.78,4.87,3.09,8.98,3.97,11.86-21.31,9.29-59.08,22.52-107.79,22.78-50.21,.27-89.09-13.37-110.6-22.74Z"/>
  <path class="cls-24" d="M430.06,149.37c-2.38-8.24-6.1-18.14-11.82-30.04-11.07-23.06-16.61-34.58-28.19-46.46-7.36-7.55-35.33-35.91-75.22-34.45-50.73,1.86-80.37,51.03-85.66,59.83-10.49,17.44-14.58,34.48-17.68,51.13-.53,2.87-1.04,5.73-1.54,8.58"/>
  <path class="cls-25" d="M309.14,38.84c4.39,4.52,9.84,11.09,14.57,19.94,5.97,11.17,8.09,21.05,9.51,28.97,5.83,32.46,7.14,72.99,7.41,82.52"/>
  <path class="cls-41" d="M430.06,149.37c-21.2,9.22-56.37,21.37-101.28,22.67-53.28,1.55-94.69-12.9-117.12-22.63"/>
  <path class="cls-4" d="M340.04,179.56c.41,7.67,.36,16.56-.67,26.39-1.15,10.98-3.26,20.63-5.56,28.69"/>
  <path class="cls-4" d="M399.89,201.33c-14.07,5.82-34.65,12.5-60.21,14.68-31.03,2.65-56.44-2.42-72.53-6.97"/>
  <g>
    <path class="cls-24" d="M312.2,403.64c.57,.1,1.15,.2,1.73,.3"/>
    <path class="cls-36" d="M318.84,404.68c9.26,1.27,20.06,1.93,32.03,1.18,5.3-.34,10.29-.92,14.93-1.65"/>
    <path class="cls-24" d="M368.25,403.8c.58-.1,1.16-.21,1.73-.31"/>
  </g>
  <path class="cls-25" d="M261.49,395.58c6.06-.15,14.63-1.02,24.34-4.24,9.31-3.09,16.46-7.29,21.33-10.67"/>
</svg>