<?xml version="1.0" encoding="UTF-8"?>
<svg id="CharacterSide" xmlns="http://www.w3.org/2000/svg" viewBox="0 0 640 640">
  <defs>
    <style>
      .cls-1, .cls-2, .cls-3, .cls-4, .cls-5, .cls-6, .cls-7, .cls-8, .cls-9, .cls-10, .cls-11, .cls-12, .cls-13, .cls-14, .cls-15, .cls-16, .cls-17, .cls-18, .cls-19, .cls-20, .cls-21, .cls-22, .cls-23, .cls-24, .cls-25, .cls-26, .cls-27, .cls-28, .cls-29, .cls-30, .cls-31, .cls-32, .cls-33, .cls-34, .cls-35 {
        stroke-linecap: round;
        stroke-linejoin: round;
      }

      .cls-1, .cls-3, .cls-36, .cls-37, .cls-5, .cls-7, .cls-8, .cls-9, .cls-38, .cls-14, .cls-39, .cls-24, .cls-40, .cls-25, .cls-27, .cls-28, .cls-30, .cls-31, .cls-41 {
        stroke: #000;
      }

      .cls-1, .cls-4, .cls-11, .cls-12, .cls-38, .cls-15, .cls-18, .cls-19, .cls-22, .cls-42, .cls-26, .cls-27, .cls-29, .cls-33 {
        stroke-width: 2px;
      }

      .cls-1, .cls-28 {
        fill: #f4f3e7;
      }

      .cls-2 {
        stroke-dasharray: 0 0 3.14 4.71;
      }

      .cls-2, .cls-3, .cls-5, .cls-6, .cls-8, .cls-9, .cls-10, .cls-13, .cls-14, .cls-16, .cls-39, .cls-17, .cls-20, .cls-21, .cls-23, .cls-24, .cls-40, .cls-25, .cls-28, .cls-30, .cls-32, .cls-34, .cls-41, .cls-35 {
        stroke-width: 2.5px;
      }

      .cls-2, .cls-4, .cls-36, .cls-5, .cls-6, .cls-8, .cls-9, .cls-10, .cls-11, .cls-12, .cls-13, .cls-14, .cls-15, .cls-16, .cls-17, .cls-18, .cls-19, .cls-20, .cls-21, .cls-22, .cls-23, .cls-24, .cls-25, .cls-26, .cls-29, .cls-32, .cls-33, .cls-34, .cls-35 {
        fill: none;
      }

      .cls-2, .cls-10, .cls-13, .cls-16, .cls-17, .cls-21, .cls-32, .cls-34, .cls-35 {
        stroke: #ba8b74;
      }

      .cls-3, .cls-31, .cls-41 {
        fill: #eeaabc;
      }

      .cls-4 {
        stroke-dasharray: 0 0 3.62 5.43;
      }

      .cls-4, .cls-6, .cls-12, .cls-15, .cls-18, .cls-19, .cls-20, .cls-22, .cls-23, .cls-29 {
        stroke: #c681a0;
      }

      .cls-36, .cls-37, .cls-38, .cls-39, .cls-40, .cls-42, .cls-41 {
        stroke-miterlimit: 10;
      }

      .cls-36, .cls-37, .cls-31 {
        stroke-width: 2.64px;
      }

      .cls-37, .cls-39 {
        fill: #f5e3d9;
      }

      .cls-5 {
        stroke-dasharray: 0 0 2.99 4.49;
      }

      .cls-7 {
        fill: #fff;
      }

      .cls-8 {
        stroke-dasharray: 0 0 3.56 5.34;
      }

      .cls-9 {
        stroke-dasharray: 0 0 3.46 5.19;
      }

      .cls-10 {
        stroke-dasharray: 0 0 3.48 5.22;
      }

      .cls-11, .cls-42, .cls-26, .cls-33 {
        stroke: #bc695c;
      }

      .cls-12 {
        stroke-dasharray: 0 0 3.16 4.75;
      }

      .cls-38 {
        fill: #6993bb;
      }

      .cls-14 {
        stroke-dasharray: 0 0 3.49 5.24;
      }

      .cls-15 {
        stroke-dasharray: 0 0 3.54 5.31;
      }

      .cls-16 {
        stroke-dasharray: 0 0 3.21 4.82;
      }

      .cls-17 {
        stroke-dasharray: 0 0 3.6 5.41;
      }

      .cls-18 {
        stroke-dasharray: 0 0 3.84 5.76;
      }

      .cls-19 {
        stroke-dasharray: 0 0 3.51 5.27;
      }

      .cls-20 {
        stroke-dasharray: 0 0 3.07 4.6;
      }

      .cls-21, .cls-25, .cls-33 {
        stroke-dasharray: 0 0 3.52 5.29;
      }

      .cls-43 {
        fill: #e889a9;
      }

      .cls-44 {
        fill: #efe8e6;
      }

      .cls-23 {
        stroke-dasharray: 0 0 3.46 5.18;
      }

      .cls-40 {
        fill: #efa8bd;
      }

      .cls-42 {
        fill: #f1a791;
      }

      .cls-26 {
        stroke-dasharray: 0 0 3.3 4.4;
      }

      .cls-27 {
        fill: #3f3f3f;
      }

      .cls-29 {
        stroke-dasharray: 0 0 3.1 4.65;
      }

      .cls-30 {
        fill: #f8decf;
      }

      .cls-32 {
        stroke-dasharray: 0 0 2.98 4.46;
      }

      .cls-34 {
        stroke-dasharray: 0 0 4.06 6.09;
      }

      .cls-35 {
        stroke-dasharray: 0 0 3.26 4.89;
      }
    </style>
  </defs>
  <path class="cls-28" d="M189.13,552.99c1.41-.09,8.15-.31,26.2-.78,.48-.05,2.68-.33,4-2.16,.85-1.17,.94-2.43,1-3.17,.12-1.59-.32-2.81-.56-3.44-.14-.38-.53-1.42-1.28-2.33-1.82-2.24-4.76-2.55-5.56-2.61-10.01,.05-20.02,.1-30.04,.15-.17,4.77-.35,9.53-.52,14.3,1.15,.09,2.39,.15,3.71,.15,1.59,0,2.82-.08,3.04-.1Z"/>
  <path class="cls-40" d="M180.26,518.93c.38,2.18-.89,3.9-1.56,4.8-.71,.97-2.8,3.79-5.95,3.47-2.85-.29-4.3-2.93-4.37-3.07-1.48-2.8,.02-5.6,.26-6.03,.15-.28,1.82-3.26,5.2-3.61,.73-.07,2.83-.16,4.58,1.34,.34,.29,1.54,1.35,1.84,3.11Z"/>
  <path class="cls-28" d="M190.34,545.93c.75-7.55-.39-13.47-.97-16.03-1.07-4.67-2.68-8.55-4.23-11.57-1.54-.42-3.83-.86-6.58-.68-9.03,.58-14.59,7.24-15.41,8.25-7.39,9.13-4.17,20.58-3.85,21.63,4.59,1.95,10.76,4,18.24,4.96,4.31,.55,8.22,.64,11.6,.5"/>
  <path class="cls-40" d="M160.09,544.59c1.72,.55,4.02-2.68,4.7-3.62,.97-1.35,1.58-2.19,1.37-3.13-.42-1.86-3.99-2.59-6.07-2.64-.51-.01-.95,.02-1.27,.05-.47,1.35-1.01,3.61-.41,6.21,.28,1.23,.64,2.8,1.68,3.13Z"/>
  <g>
    <path class="cls-24" d="M163.88,532.72c.18-.37,.45-.9,.83-1.55"/>
    <path class="cls-5" d="M167.43,527.61c1.34-1.4,3.09-2.82,5.34-3.93,2.08-1.02,4.07-1.53,5.78-1.77"/>
    <path class="cls-24" d="M180.79,521.72c.7-.02,1.29,0,1.76,.03"/>
  </g>
  <path class="cls-39" d="M187.3,429.77c-3.67,17.03-3.2,30.3-2.1,39.25,.69,5.6,2.35,14.9,3.85,22.81,2.61,13.69,4.3,20.18,2.96,29.63-.6,4.21-1.59,7.6-2.36,9.83,.23,1.58,.46,3.16,.69,4.74,.07,2.01,.15,4.02,.22,6.03,3.69,.29,6.81,.4,9.15,.44,5.99,.11,7.59-.22,8.89-1.33,1.9-1.63,2.25-4.21,2.37-5.04,.39-2.73-.48-4.92-.74-5.63-1.68-4.54-.54-8.23-.01-22.21,.16-4.21,.35-6.18,.39-8.76,.05-3.89-.19-6.75-.23-7.25-.28-4.32,.4-19.71,3.78-62.67-2.42-5.59-8.01-9.13-14-8.89-5.63,.23-10.66,3.77-12.86,9.05Z"/>
  <path class="cls-40" d="M179.93,522.89c-.87,2.03-.04,4,.39,5.03,.47,1.11,1.84,4.34,4.98,4.76,2.84,.38,4.86-1.85,4.97-1.97,2.09-2.38,1.28-5.45,1.16-5.93-.08-.3-1.01-3.6-4.22-4.73-.69-.24-2.72-.82-4.77,.24-.4,.2-1.81,.95-2.51,2.59Z"/>
  <path class="cls-25" d="M194.16,546.28l19.78-.33"/>
  <g>
    <path class="cls-11" d="M187.87,469.96c.31,.4,.62,.71,.91,.96"/>
    <path class="cls-26" d="M192.82,471.21c1.23-.78,2.41-2.28,3.24-4.34"/>
    <path class="cls-11" d="M196.74,464.76c.1-.42,.19-.85,.27-1.29"/>
  </g>
  <path class="cls-28" d="M92.71,552.99c1.41-.09,8.15-.31,26.2-.78,.48-.05,2.68-.33,4-2.16,.85-1.17,.94-2.43,1-3.17,.12-1.59-.32-2.81-.56-3.44-.14-.38-.53-1.42-1.28-2.33-1.82-2.24-4.76-2.55-5.56-2.61-10.01,.05-20.02,.1-30.04,.15-.17,4.77-.35,9.53-.52,14.3,1.15,.09,2.39,.15,3.71,.15,1.59,0,2.82-.08,3.04-.1Z"/>
  <path class="cls-40" d="M83.84,518.93c.38,2.18-.89,3.9-1.56,4.8-.71,.97-2.8,3.79-5.95,3.47-2.85-.29-4.3-2.93-4.37-3.07-1.48-2.8,.02-5.6,.26-6.03,.15-.28,1.82-3.26,5.2-3.61,.73-.07,2.83-.16,4.58,1.34,.34,.29,1.54,1.35,1.84,3.11Z"/>
  <path class="cls-28" d="M93.92,545.93c.75-7.55-.39-13.47-.97-16.03-1.07-4.67-2.68-8.55-4.23-11.57-1.54-.42-3.83-.86-6.58-.68-9.03,.58-14.59,7.24-15.41,8.25-7.39,9.13-4.17,20.58-3.85,21.63,4.59,1.95,10.76,4,18.24,4.96,4.31,.55,8.22,.64,11.6,.5"/>
  <path class="cls-40" d="M63.67,544.59c1.72,.55,4.02-2.68,4.7-3.62,.97-1.35,1.58-2.19,1.37-3.13-.42-1.86-3.99-2.59-6.07-2.64-.51-.01-.95,.02-1.27,.05-.47,1.35-1.01,3.61-.41,6.21,.28,1.23,.64,2.8,1.68,3.13Z"/>
  <g>
    <path class="cls-24" d="M67.46,532.72c.18-.37,.45-.9,.83-1.55"/>
    <path class="cls-5" d="M71.01,527.61c1.34-1.4,3.09-2.82,5.34-3.93,2.08-1.02,4.07-1.53,5.78-1.77"/>
    <path class="cls-24" d="M84.37,521.72c.7-.02,1.29,0,1.76,.03"/>
  </g>
  <path class="cls-39" d="M90.88,429.77c-3.67,17.03-3.2,30.3-2.1,39.25,.69,5.6,2.35,14.9,3.85,22.81,2.61,13.69,4.3,20.18,2.96,29.63-.6,4.21-1.59,7.6-2.36,9.83,.23,1.58,.46,3.16,.69,4.74,.07,2.01,.15,4.02,.22,6.03,3.69,.29,6.81,.4,9.15,.44,5.99,.11,7.59-.22,8.89-1.33,1.9-1.63,2.25-4.21,2.37-5.04,.39-2.73-.48-4.92-.74-5.63-1.68-4.54-.54-8.23-.01-22.21,.16-4.21,.35-6.18,.39-8.76,.05-3.89-.19-6.75-.23-7.25-.28-4.32,.4-19.71,3.78-62.67-2.42-5.59-8.01-9.13-14-8.89-5.63,.23-10.66,3.77-12.86,9.05Z"/>
  <path class="cls-40" d="M83.51,522.89c-.87,2.03-.04,4,.39,5.03,.47,1.11,1.84,4.34,4.98,4.76,2.84,.38,4.86-1.85,4.97-1.97,2.09-2.38,1.28-5.45,1.16-5.93-.08-.3-1.01-3.6-4.22-4.73-.69-.24-2.72-.82-4.77,.24-.4,.2-1.81,.95-2.51,2.59Z"/>
  <path class="cls-25" d="M97.74,546.28l19.78-.33"/>
  <g>
    <path class="cls-11" d="M91.45,469.96c.31,.4,.62,.71,.91,.96"/>
    <path class="cls-26" d="M96.4,471.21c1.23-.78,2.41-2.28,3.24-4.34"/>
    <path class="cls-11" d="M100.32,464.76c.1-.42,.19-.85,.27-1.29"/>
  </g>
  <g>
    <path class="cls-31" d="M273.93,426.12c-.7,2.95-1.44,5.79-2.21,8.52,1.29,1.1,3.11,2.39,5.42,3.32,2.86,1.15,5.36,1.28,7.07,1.2,1.01,.7,2.76,1.7,5.07,1.92,2.68,.26,4.79-.66,5.88-1.25,1.65,.58,3.68,1.1,6.03,1.28,1.85,.15,3.52,.06,4.94-.13,1.68,.4,3.75,.7,6.11,.63,1.9-.05,3.6-.34,5.03-.7,3.02,.79,6.89,1.42,11.37,1.25,4.16-.16,7.74-.96,10.59-1.87,1.97,.49,4.94,.9,8.48,.14,2.97-.63,5.34-1.87,6.99-2.94-2.33-13.45-4.66-26.9-7-40.35-1.97,.04-4.21,.23-6.65,.7-2.43,.47-4.61,1.12-6.5,1.83-2.8-.37-6.19-.51-10,0-2.49,.33-4.74,.89-6.72,1.52-1.08-.2-2.43-.33-3.96-.22-1.65,.13-3.06,.51-4.17,.91-1.37-.81-3.17-1.68-5.34-2.22-1.73-.43-3.28-.54-4.56-.52-1.11-.44-2.42-.82-3.88-1.04-2.95-.44-5.48-.05-7.33,.46-3.2-1-6.41-2-9.61-2.99-.9,9.33-2.46,19.64-5.05,30.54Z"/>
    <g>
      <path class="cls-22" d="M284.72,435.61c.11-.57,.22-1.15,.33-1.73"/>
      <path class="cls-15" d="M285.95,428.64c.31-1.94,.6-3.96,.86-6.05,.4-3.1,.7-6.07,.94-8.9"/>
      <path class="cls-22" d="M287.96,411.04c.04-.59,.08-1.18,.12-1.76"/>
    </g>
    <g>
      <path class="cls-22" d="M295.16,437.95c.08-.58,.15-1.16,.23-1.75"/>
      <path class="cls-12" d="M295.99,431.49c.08-.66,.16-1.32,.24-1.99,.79-6.54,1.47-12.96,2.06-19.24"/>
      <path class="cls-22" d="M298.5,407.9c.05-.59,.1-1.17,.16-1.75"/>
    </g>
    <g>
      <path class="cls-22" d="M306.14,439.1c.08-.57,.17-1.15,.25-1.74"/>
      <path class="cls-29" d="M306.97,432.75c.11-.98,.22-1.97,.33-2.98,.36-3.52,.62-6.91,.79-10.14"/>
      <path class="cls-22" d="M308.2,417.3c.03-.59,.05-1.18,.07-1.76"/>
    </g>
    <g>
      <path class="cls-22" d="M339.23,438.41c-.09-.58-.18-1.16-.27-1.74"/>
      <path class="cls-18" d="M338.11,430.98c-.28-1.94-.55-3.92-.81-5.91-.46-3.49-.88-6.91-1.25-10.26"/>
      <path class="cls-22" d="M335.73,411.94c-.06-.59-.12-1.17-.18-1.75"/>
    </g>
    <g>
      <path class="cls-22" d="M317.27,439.04c0-.58,0-1.17-.02-1.76"/>
      <path class="cls-22" d="M317.09,431.27c-.02-.59-.05-1.18-.08-1.76"/>
    </g>
  </g>
  <path class="cls-28" d="M302.32,287.02c-9.94,10.61-13.99,22.03-15.2,25.56,0,0-19.51,56.8-20.3,100.59-.03,1.64,.11,4.19,1.83,5.98,1.33,1.39,3.1,1.81,4.17,1.96,.05,2.44,.1,4.88,.15,7.31-.01,.13-.11,1.27,.77,2.06,.64,.58,1.4,.6,1.6,.6,11.51,1.29,24.45,2.14,38.59,2.08,13.47-.06,25.84-.94,36.89-2.22,.22-.01,.87-.08,1.47-.58,.55-.46,.75-1.03,.81-1.25v-8c2.13-1.13,3.58-2.45,4.54-3.5,.87-.96,1.48-1.64,1.78-2.67,.78-2.64-1.17-5.2-1.63-5.78,.92-15.38,.66-28.33,.15-37.93-.89-16.75-1.85-33.09-7.7-53.04-3.97-13.52-8.86-24.21-12.6-31.44-1-1.3-8.57-10.81-19.1-10.04-6.92,.51-11.53,5.3-16.21,10.3Z"/>
  <path class="cls-3" d="M275.37,421.42c-.26-.49-.53-1.05-.77-1.67-.3-.75-.51-1.45-.66-2.07,0,0,0,0,0,0-.4-1.24-.55-2.56-.44-3.96,.59-6.57,1.62-16.36,3.47-28.16,5.23-33.24,12.44-53.45,17.86-66.17,4.89-11.49,13.7-31.74,21.97-30.75,5.48,.65,6.94,10.33,18.03,14.75,4.58,1.83,8.73,2.07,11.13,2.06-1.14-3-2.41-6.14-3.85-9.37-1.47-3.3-2.97-6.41-4.47-9.32-.82-1.31-4.84-7.44-12.8-9.31-1.32-.31-7.05-1.51-13,1.3-2.41,1.14-3.88,2.52-6.72,5.25-5.92,5.68-9.41,11.17-10.62,13.17-3.58,5.86-5.43,10.85-6.33,13.33-7.37,20.3-12.38,41.94-12.81,43.82-.57,2.48-4.3,18.93-6.52,34.47-1.23,8.66-1.75,15.32-1.93,21.49-.05,1.61-.06,2.94-.07,3.85,0,1.19,.36,3.06,1.41,4.53,2.1,2.94,6.53,2.8,7.13,2.77Z"/>
  <g>
    <path class="cls-22" d="M270.5,416.28c-.08-.44-.18-1.03-.26-1.74"/>
    <path class="cls-19" d="M270.14,409.27c.11-1.31,.28-2.25,.35-2.66,1.14-6.36-.19-5.84,3.78-27,2.33-12.44,4.31-22.99,8.22-37.56,1.11-4.14,5.38-19.76,12.56-36,0,0,2.11-4.77,13-18.56,1.19-1.5,2.98-3.71,5.89-4.33,4.87-1.04,9.64,3.06,10.67,4,.97,.89,.31,.5,4.11,5.11,3.24,3.93,4.67,5.36,6.57,6.29"/>
    <path class="cls-22" d="M337.76,299.45c.68,.16,1.28,.23,1.74,.27"/>
  </g>
  <path class="cls-24" d="M272.83,421.11c1.74,.22,4.23,.52,7.22,.83,13.59,1.4,23.87,1.49,32.44,1.56,0,0,8.98,.06,29.44-.93,1.24-.06,3.9-.2,7.33-.74,1.68-.26,3.02-.54,3.83-.72"/>
  <path class="cls-1" d="M273.73,370.8c-.86,.81-.69,1.97-.66,2.12,.13,.77,.65,1.63,1.55,1.91,1.14,.35,2.49-.36,2.89-1.57,.35-1.05-.1-2.31-1.13-2.84-.86-.45-1.95-.29-2.65,.37Z"/>
  <path class="cls-1" d="M269.39,399.9c-.86,.81-.69,1.97-.66,2.12,.13,.77,.65,1.63,1.55,1.91,1.14,.35,2.49-.36,2.89-1.57,.35-1.05-.1-2.31-1.13-2.84-.86-.45-1.95-.29-2.65,.37Z"/>
  <path class="cls-1" d="M280.34,342.1c-.86,.81-.69,1.97-.66,2.12,.13,.77,.65,1.63,1.55,1.91,1.14,.35,2.49-.36,2.89-1.57,.35-1.05-.1-2.31-1.13-2.84-.86-.45-1.95-.29-2.65,.37Z"/>
  <path class="cls-1" d="M290,314.93c-.86,.81-.69,1.97-.66,2.12,.13,.77,.65,1.63,1.55,1.91,1.14,.35,2.49-.36,2.89-1.57,.35-1.05-.1-2.31-1.13-2.84-.86-.45-1.95-.29-2.65,.37Z"/>
  <path class="cls-3" d="M278.82,385.57c1.65-.94,3.61-1.92,5.87-2.82,2.24-.89,4.33-1.51,6.17-1.96,1.55,2.18,4.18,5.29,8.22,8.03,5.28,3.56,10.4,4.73,13.31,5.17-5.39,3.52-9.3,3.7-11.87,3.23-3.85-.72-5.49-3.26-11.43-6.64-4.28-2.43-7.94-4.05-10.28-5.01Z"/>
  <g>
    <path class="cls-24" d="M277.33,426.16c.58,.07,1.16,.14,1.75,.21"/>
    <path class="cls-8" d="M284.38,426.94c9.45,.92,19.81,1.48,30.97,1.41,10.25-.06,19.8-.64,28.56-1.52"/>
    <path class="cls-24" d="M346.56,426.55c.59-.06,1.17-.13,1.75-.2"/>
  </g>
  <path class="cls-25" d="M357.79,409.16c-4.99,.59-13.33,.91-22.96-2-7.05-2.13-12.42-5.27-16-7.78"/>
  <g>
    <path class="cls-24" d="M283.08,353.31c.47-.3,.96-.62,1.48-.95"/>
    <path class="cls-9" d="M289.04,349.75c6.66-3.62,16.04-7.58,27.82-9.48,7.48-1.21,14.19-1.3,19.7-.96"/>
    <path class="cls-24" d="M339.15,339.51c.6,.05,1.18,.11,1.75,.17"/>
  </g>
  <g>
    <path class="cls-28" d="M422.64,314.33c-.12,.57-.3,1.43-.48,2.49-1.67,9.75-.14,16.63,.4,25.66,.55,9.23,.83,13.84,1.34,19.73,.62,7.06,1.17,11.61,2.06,22.28,.29,3.42,.51,6.25,.65,8.15-.43,.66-.92,1.55-1.31,2.66-.53,1.52-.67,2.86-.69,3.82,.37,1,1.01,2.45,2.06,4.01,2.29,3.41,5.07,5.15,8.91,7.44,5,2.99,9.23,5.4,12.44,7.19-.07,.2-.28,.87,0,1.66,.23,.66,.68,1.03,.87,1.16,1.05,2.13,2.09,4.26,3.14,6.39,2.19,.14,4.38,.28,6.56,.42,.21,.56,.83,1.96,2.34,3.05,1.5,1.09,3.03,1.24,3.62,1.27,3.09-.6,5.6-1.43,7.44-2.15,2.44-.96,7.02-2.81,11.45-6.95,.63-.59,1.13-1.1,1.47-1.47,.08-1.23,.07-2.77-.2-4.5-.2-1.34-.51-2.52-.84-3.5,.27-.45,.64-1.14,.96-2.03,.52-1.48,.61-2.75,.71-4.3,.04-.63,.07-1.44,.05-2.4,2.77-4.96,5.55-9.92,8.32-14.88,.29-.58,.63-1.41,.78-2.45,.28-1.9-.19-3.44-.49-4.21-3.47-8.54-7.65-17.69-12.72-27.25-3.65-6.89-7.38-13.27-11.07-19.14-2.14-5.57-5.24-12.26-9.64-18.81-4.06-6.04-8.84-11.4-10.47-13.22-.72-.81-1.34-1.47-1.77-1.93"/>
    <path class="cls-3" d="M448.02,419.4c2.74-2.86,6.84-6.46,12.5-9.44,10.33-5.43,20.09-5.77,25.07-5.58,.1,1.12,.12,2.68-.24,4.51-.36,1.81-.97,3.24-1.48,4.23,.48,1.45,.94,3.08,1.31,4.87,.26,1.24,.45,2.42,.59,3.52-2.43,2-5.82,4.39-10.18,6.46-4.2,1.99-8.04,3.09-11.04,3.72-.3,.02-2.17,.14-3.62-1.27-1.06-1.03-1.28-2.26-1.34-2.68-2.52-.27-5.05-.53-7.57-.8-1.33-2.52-2.67-5.03-4-7.55Z"/>
    <path class="cls-25" d="M426.62,392.62c3.71-4.05,8.85-8.89,15.64-13.46,5.71-3.84,11.13-6.5,15.66-8.35"/>
    <path class="cls-28" d="M458.59,427.36c1.81-2.43,4.94-5.98,9.77-8.99,6.25-3.9,12.24-4.93,15.52-5.26,.63,2.8,1.27,5.59,1.9,8.39-4.24,2.85-8.02,5.12-11.08,6.87-5.56,3.18-8.99,4.74-11.43,3.6-1.75-.82-3.13-2.35-3.13-2.35-.76-.85-1.25-1.67-1.55-2.27Z"/>
    <path class="cls-25" d="M470.43,336.46c-4.33-4.29-8.93-8.64-13.82-13.02-3.03-2.72-6.03-5.33-9-7.83"/>
  </g>
  <g>
    <path class="cls-28" d="M515.09,314.33c-.12,.57-.3,1.43-.48,2.49-1.67,9.75-.14,16.63,.4,25.66,.55,9.23,.83,13.84,1.34,19.73,.62,7.06,1.17,11.61,2.06,22.28,.29,3.42,.51,6.25,.65,8.15-.43,.66-.92,1.55-1.31,2.66-.53,1.52-.67,2.86-.69,3.82,.37,1,1.01,2.45,2.06,4.01,2.29,3.41,5.07,5.15,8.91,7.44,5,2.99,9.23,5.4,12.44,7.19-.07,.2-.28,.87,0,1.66,.23,.66,.68,1.03,.87,1.16,1.05,2.13,2.09,4.26,3.14,6.39,2.19,.14,4.38,.28,6.56,.42,.21,.56,.83,1.96,2.34,3.05,1.5,1.09,3.03,1.24,3.62,1.27,3.09-.6,5.6-1.43,7.44-2.15,2.44-.96,7.02-2.81,11.45-6.95,.63-.59,1.13-1.1,1.47-1.47,.08-1.23,.07-2.77-.2-4.5-.2-1.34-.51-2.52-.84-3.5,.27-.45,.64-1.14,.96-2.03,.52-1.48,.61-2.75,.71-4.3,.04-.63,.07-1.44,.05-2.4,2.77-4.96,5.55-9.92,8.32-14.88,.29-.58,.63-1.41,.78-2.45,.28-1.9-.19-3.44-.49-4.21-3.47-8.54-7.65-17.69-12.72-27.25-3.65-6.89-7.38-13.27-11.07-19.14-2.14-5.57-5.24-12.26-9.64-18.81-4.06-6.04-8.84-11.4-10.47-13.22-.72-.81-1.34-1.47-1.77-1.93"/>
    <path class="cls-3" d="M540.47,419.4c2.74-2.86,6.84-6.46,12.5-9.44,10.33-5.43,20.09-5.77,25.07-5.58,.1,1.12,.12,2.68-.24,4.51-.36,1.81-.97,3.24-1.48,4.23,.48,1.45,.94,3.08,1.31,4.87,.26,1.24,.45,2.42,.59,3.52-2.43,2-5.82,4.39-10.18,6.46-4.2,1.99-8.04,3.09-11.04,3.72-.3,.02-2.17,.14-3.62-1.27-1.06-1.03-1.28-2.26-1.34-2.68-2.52-.27-5.05-.53-7.57-.8-1.33-2.52-2.67-5.03-4-7.55Z"/>
    <path class="cls-25" d="M519.06,392.62c3.71-4.05,8.85-8.89,15.64-13.46,5.71-3.84,11.13-6.5,15.66-8.35"/>
    <path class="cls-28" d="M551.03,427.36c1.81-2.43,4.94-5.98,9.77-8.99,6.25-3.9,12.24-4.93,15.52-5.26,.63,2.8,1.27,5.59,1.9,8.39-4.24,2.85-8.02,5.12-11.08,6.87-5.56,3.18-8.99,4.74-11.43,3.6-1.75-.82-3.13-2.35-3.13-2.35-.76-.85-1.25-1.67-1.55-2.27Z"/>
    <path class="cls-25" d="M562.87,336.46c-4.33-4.29-8.93-8.64-13.82-13.02-3.03-2.72-6.03-5.33-9-7.83"/>
  </g>
  <g>
    <g>
      <path class="cls-37" d="M257.48,166.88c.29,7.27,6.03,11.62,3.87,17.72-1.11,3.13-2.9,2.79-3.85,5.63-2.32,6.94,5.94,16.24,11.85,20.74,8.85,6.74,18.42,7.29,21.93,7.45,11.44,.5,20.02-3.81,23.7-5.97,14.09-16.62,14.29-39.93,2.07-54.22-14.17-16.58-41.87-17.3-52.74-6.22-1.28,1.31-7.14,7.27-6.83,14.88Z"/>
      <g>
        <path class="cls-24" d="M261.5,203.22c.65,1.25,1.74,1.9,2.82,1.67,1.63-.35,2.27-2.48,2.29-2.57"/>
        <path class="cls-42" d="M297.62,208.7c.1,4.32-2.13,7.57-3.17,8.89-2.7,.44-7.7,.88-13.57-.82-5.39-1.56-9.14-4.23-11.2-5.94-.11-.59-.19-1.31-.16-2.13,.17-5.59,5.15-14.05,14.05-14.05,8.36,0,13.89,7.46,14.05,14.05Z"/>
        <path class="cls-44" d="M264.7,174.11c-.56,1.52-1.48,4.57-1.21,8.45,.09,1.35,.5,7.18,4.54,11.05,3.15,3.02,7.25,3.64,10.5,2.48,6.83-2.43,9.18-12.18,9.9-15.15,.76-3.14,.9-5.87,.91-7.7-3.01-1.06-7.53-2.19-13.03-1.89-4.86,.27-8.83,1.56-11.61,2.76Z"/>
        <path class="cls-38" d="M269.79,172.42c-.96,1.81-2.06,4.5-2.46,7.96-.23,2.01-.73,8.67,2.73,13.7,.87,1.26,2.39,3.48,4.75,3.81,4.44,.63,7.58-6.01,7.77-6.42,2.68-5.84,.91-12.23,.5-13.7-.85-3.06-2.16-5.19-3.03-6.39-1.45-.05-3.04-.02-4.75,.13-2.02,.18-3.87,.51-5.52,.91Z"/>
        <path class="cls-7" d="M275.55,174.37c.02,.84,0,3.36-1.31,5.81-1.11,2.06-2.55,2.98-3.18,3.33,1.02,.34,2.23,1,3.18,2.35,2,2.86,1.71,7.26,1.97,7.24,.25-.02-.36-4.02,1.21-7.24,.76-1.57,1.84-2.53,2.73-3.13-.61-.25-1.93-.93-3.03-2.61-1.54-2.34-1.57-5.01-1.57-5.74Z"/>
        <path class="cls-27" d="M263.49,173.73c-.24-.68,3.3-3.59,5.45-4.96,3.19-2.02,9.81-4.76,21.1,0-.24,1.52-.47,3.04-.71,4.57-3.79-1.36-7-1.81-9.29-1.96-6.05-.38-11.24,1.01-11.81,1.17-2.76,.76-4.58,1.64-4.75,1.17Z"/>
        <path class="cls-33" d="M273.83,210.15c-.01-.45-.09-5.85,4.33-9,.58-.41,4.34-2.99,8.78-1.44,4.94,1.72,6.05,6.93,6.11,7.22,.76,3.85-1.14,6.83-1.56,7.44"/>
      </g>
      <path class="cls-36" d="M257.48,166.88c.29,7.27,6.03,11.62,3.87,17.72-1.11,3.13-2.9,2.79-3.85,5.63-2.32,6.94,5.94,16.24,11.85,20.74,8.85,6.74,18.42,7.29,21.93,7.45,11.44,.5,20.02-3.81,23.7-5.97,14.09-16.62,14.29-39.93,2.07-54.22-14.17-16.58-41.87-17.3-52.74-6.22-1.28,1.31-7.14,7.27-6.83,14.88Z"/>
    </g>
    <g>
      <path class="cls-30" d="M251.36,87.34c17.9-8.21,37.02,1.7,40.52,3.51,13.57,7.03,19.64,17.73,27.93,31.58,11.41,19.08,14.48,38.64,20.62,77.78,.27,1.7,.92,6.09,0,11.61-2.35,14.17-12.97,23.6-20.1,26.36-2.5,.97-5.58,2.16-8.48,.91-2.06-.89-2.75-2.45-4.7-2.35-1.9,.1-2.56,1.67-4.83,1.7-1.22,.02-1.49-.43-2.87-.78-3.82-.97-5.3,1.57-9,.82-1.9-.39-4.26-1.62-4.37-3.16-.06-.91,.64-2.35,1.69-3.28,0,0,.06-.06,.14-.12,1.65-1.35,4.13-1.55,4.31-1.57,3.18-.27,7.14-4.89,7.76-5.61,2.53-2.94,3.25-6.31,3.91-12.27,.93-8.32,1.85-16.45,.52-29.49-.55-5.38-1.28-9.77-1.83-12.66-9-1.85-13.88-5.5-16.7-8.74-1.48-1.7-4.25-5.42-5.09-4.96-.78,.43,1.09,3.98-.52,5.61-.73,.74-1.96,.89-2.87,.65-2.45-.63-3.25-4.22-3.78-4.05-.42,.14,.3,2.32-.26,5.48-.35,1.99-.92,2.71-1.17,3-.97,1.09-2.25,1.38-3.13,1.57-.5,.1-3.16,.62-6.52-.91-3.12-1.42-4.27-3.42-4.96-3-1.01,.61,1.4,4.97-.13,6.26-.7,.59-1.89,.26-3.26-.13-2.35-.66-3.93-1.8-5.22-2.74-3.92-2.87-5.88-4.31-6.13-4.57-4.09-4.21-4.69-9.06-5.48-8.87-1.04,.24,.66,8.4-1.57,9.27-.61,.24-1.34-.14-2.09-.52-1.18-.6-1.76-1.46-2.87-3.13-.49-.74-1.38-2.19-2.18-4.23,0,0-.31-.8-.56-1.64,0,0-1.76-5.51-1.83-11.88-.49-43.71,25.12-55.45,25.12-55.45Z"/>
      <g>
        <path class="cls-13" d="M280.87,105.61c.44,.34,.9,.71,1.37,1.1"/>
        <path class="cls-35" d="M285.91,109.94c4.21,3.93,9.05,9.33,13.36,16.43,5.31,8.75,7.98,17.06,9.37,23.28"/>
        <path class="cls-13" d="M309.14,152.04c.12,.6,.22,1.18,.31,1.73"/>
      </g>
      <g>
        <path class="cls-13" d="M319.55,176.2c-.01,.6-.01,1.19,0,1.76"/>
        <path class="cls-17" d="M319.85,183.36c.51,4.82,1.56,8.58,2.57,11.37,.69,1.89,2.35,6.08,4.44,12.53,1.18,3.66,1.8,5.9,1.83,8.87,.02,2.43,.05,5.67-1.83,8.61-1.7,2.67-4.33,4.1-6.6,4.86"/>
        <path class="cls-13" d="M317.64,230.27c-.84,.15-1.47,.2-1.74,.22"/>
      </g>
      <g>
        <path class="cls-13" d="M328.94,187.42c.18,.57,.35,1.13,.52,1.69"/>
        <path class="cls-2" d="M330.79,193.63c1.38,4.83,2.49,9.15,3.37,12.85,.91,3.8,1.64,7.21,.78,11.48-.29,1.47-.73,2.79-1.21,3.95"/>
        <path class="cls-13" d="M332.72,224.02c-.31,.57-.62,1.07-.9,1.51"/>
      </g>
      <g>
        <path class="cls-13" d="M296.39,237.54c.5-.11,1.07-.26,1.7-.46"/>
        <path class="cls-16" d="M302.51,235.2c.75-.41,1.52-.89,2.29-1.45,4.42-3.17,6.48-7.03,7.44-8.87,1.27-2.45,2.01-4.8,2.45-6.83"/>
        <path class="cls-13" d="M315.08,215.67c.08-.64,.13-1.23,.16-1.75"/>
      </g>
      <g>
        <path class="cls-13" d="M280.79,156.63c-.37-.43-.74-.89-1.11-1.37"/>
        <path class="cls-34" d="M276.19,150.27c-.08-.12-.15-.24-.22-.37-1.25-2.05-2.27-4.04-3.12-5.91"/>
        <path class="cls-13" d="M271.67,141.18c-.22-.57-.42-1.12-.6-1.65"/>
      </g>
      <g>
        <path class="cls-13" d="M237.33,154.93c-.18-.54-.36-1.1-.53-1.68"/>
        <path class="cls-32" d="M235.69,148.93c-.13-.61-.26-1.23-.38-1.86-.73-3.9-1.01-7.51-1.04-10.69"/>
        <path class="cls-13" d="M234.29,134.14c.02-.61,.04-1.19,.07-1.76"/>
      </g>
      <g>
        <path class="cls-13" d="M278.29,126.79c.42,.39,.84,.8,1.27,1.22"/>
        <path class="cls-10" d="M283.16,131.79c2.62,2.93,5.34,6.38,7.92,10.4,6.03,9.39,9.15,18.48,10.84,25.48"/>
        <path class="cls-13" d="M302.48,170.22c.12,.6,.24,1.17,.34,1.73"/>
      </g>
      <path class="cls-21" d="M257.56,164.98c-1.38-1-2.95-2.31-4.5-4.01-2.69-2.94-4.31-5.91-5.29-8.12"/>
      <path class="cls-21" d="M273.61,158.84c-.07-.74-.21-1.62-.49-2.58-.43-1.49-1.04-2.67-1.57-3.52"/>
      <path class="cls-24" d="M251.36,87.34c17.9-8.21,37.02,1.7,40.52,3.51,13.57,7.03,19.64,17.73,27.93,31.58,11.41,19.08,14.48,38.64,20.62,77.78,.27,1.7,.92,6.09,0,11.61-2.35,14.17-12.97,23.6-20.1,26.36-2.5,.97-5.58,2.16-8.48,.91-2.06-.89-2.75-2.45-4.7-2.35-1.9,.1-2.56,1.67-4.83,1.7-1.22,.02-1.49-.43-2.87-.78-3.82-.97-5.3,1.57-9,.82-1.9-.39-4.26-1.62-4.37-3.16-.06-.91,.64-2.35,1.69-3.28,0,0,.06-.06,.14-.12,1.65-1.35,4.13-1.55,4.31-1.57,3.18-.27,7.14-4.89,7.76-5.61,2.53-2.94,3.25-6.31,3.91-12.27,.93-8.32,1.85-16.45,.52-29.49-.55-5.38-1.28-9.77-1.83-12.66-9-1.85-13.88-5.5-16.7-8.74-1.48-1.7-4.25-5.42-5.09-4.96-.78,.43,1.09,3.98-.52,5.61-.73,.74-1.96,.89-2.87,.65-2.45-.63-3.25-4.22-3.78-4.05-.42,.14,.3,2.32-.26,5.48-.35,1.99-.92,2.71-1.17,3-.97,1.09-2.25,1.38-3.13,1.57-.5,.1-3.16,.62-6.52-.91-3.12-1.42-4.27-3.42-4.96-3-1.01,.61,1.4,4.97-.13,6.26-.7,.59-1.89,.26-3.26-.13-2.35-.66-3.93-1.8-5.22-2.74-3.92-2.87-5.88-4.31-6.13-4.57-4.09-4.21-4.69-9.06-5.48-8.87-1.04,.24,.66,8.4-1.57,9.27-.61,.24-1.34-.14-2.09-.52-1.18-.6-1.76-1.46-2.87-3.13-.49-.74-1.38-2.19-2.18-4.23,0,0-.31-.8-.56-1.64,0,0-1.76-5.51-1.83-11.88-.49-43.71,25.12-55.45,25.12-55.45Z"/>
    </g>
  </g>
  <path class="cls-28" d="M237.64,88.4c4.55-9.59,20.23-39.53,51.56-48.91,46.83-14.01,97.08,27.36,114.96,69.84,13.91,33.04,14.77,81.57-11.26,105.48-15.59,14.32-41.45,20.38-47.41,21.78-12.91,3.02-24.08,3.57-32,3.46,13.28-19.05,15.66-35.54,16-44.8,1.58-42.89-34.93-86.46-91.85-106.86Z"/>
  <path class="cls-41" d="M322.74,160.73c6.84-3.71,19.85-9.53,36.9-9.63,29.1-.18,48.83,16.41,54.01,21.05-2.61,20.16-11.49,32.34-15.87,37.54-14.28,16.93-33.35,21.97-48.4,25.96-14.75,3.9-27.43,4.52-35.88,4.41,4.33-5.73,12.61-18.27,15.19-36.38,2.92-20.43-3.05-36.38-5.95-42.95Z"/>
  <g>
    <path class="cls-24" d="M247.27,83.71c.22-.46,.48-.99,.78-1.57"/>
    <path class="cls-14" d="M250.6,77.56c5.29-8.82,15.78-22.5,33.79-29.85,3.09-1.26,13.49-5.24,27.33-4.89,41.21,1.03,68.34,39.23,73.78,46.89,12.34,17.37,16.89,33.91,18.44,40.44,2.15,9.02,2.91,17.1,3.08,23.62"/>
    <path class="cls-24" d="M407.06,156.4c0,.6,0,1.19,0,1.76"/>
  </g>
  <g>
    <path class="cls-40" d="M332.06,63.1c-1.68,9.73,3.97,17.37,6.94,21.39,3.19,4.31,12.49,16.9,26.53,15.45,12.7-1.31,19.16-13.06,19.49-13.69,6.59-12.47-.11-24.95-1.16-26.89-.66-1.23-8.11-14.55-23.19-16.1-3.25-.33-12.63-.71-20.43,5.98-1.5,1.29-6.84,6.02-8.19,13.86Z"/>
    <path class="cls-43" d="M350.16,61.51c1.17-1.22,3.86-3.54,7.73-3.92,6.13-.6,12.04,4,14.15,9.71,1.58,4.28,1.62,10.83-2.95,14.99-5.28,4.8-12.49,2.59-12.94,2.45-5.57-1.8-8.98-6.96-9.58-12-.11-.95-.7-6.77,3.59-11.24Z"/>
    <path class="cls-4" d="M338.6,68.99c.42,3.98,2.01,6.63,3.88,9.75,1.81,3.02,4.58,7.64,10.18,11.22,2.94,1.88,6.4,4.09,11.22,3.92,6.55-.24,10.78-4.72,11.75-5.74,4.72-5,5.11-11.03,5.22-13.31,.37-7.5-3.17-12.88-4.7-15.14-1.83-2.7-5.33-7.86-12.27-9.92-8.02-2.38-14.69,1.14-15.92,1.83-1.72,.95-5.56,3.15-7.83,7.83-2.04,4.21-1.68,8.1-1.53,9.57Z"/>
  </g>
  <g>
    <path class="cls-6" d="M406.61,175.49c-.1,.54-.22,1.12-.35,1.72"/>
    <path class="cls-23" d="M404.95,182.22c-1.68,5.5-4.57,12.23-9.68,18.82-7.18,9.27-15.24,13.73-23.56,18.22-8.08,4.37-21.12,10.2-38.8,13.13"/>
    <path class="cls-6" d="M330.36,232.8c-.58,.08-1.16,.17-1.75,.24"/>
  </g>
  <g>
    <path class="cls-6" d="M358.83,209.93c.58-.01,1.16-.02,1.76-.02"/>
    <path class="cls-20" d="M365.18,210.01c5.47,.25,11.49,1,17.86,2.55,.87,.21,1.72,.43,2.55,.66"/>
    <path class="cls-6" d="M387.81,213.85c.57,.17,1.13,.34,1.68,.52"/>
  </g>
</svg>