<?xml version="1.0" encoding="UTF-8"?>
<svg id="CharacterFront" xmlns="http://www.w3.org/2000/svg" viewBox="0 0 640 640">
  <defs>
    <style>
      .cls-1 {
        stroke-dasharray: 0 0 3.03 4.54;
      }

      .cls-1, .cls-2, .cls-3, .cls-4, .cls-5, .cls-6, .cls-7, .cls-8, .cls-9, .cls-10, .cls-11, .cls-12, .cls-13, .cls-14, .cls-15, .cls-16, .cls-17, .cls-18, .cls-19, .cls-20, .cls-21, .cls-22, .cls-23, .cls-24, .cls-25, .cls-26, .cls-27, .cls-28, .cls-29, .cls-30, .cls-31, .cls-32, .cls-33, .cls-34, .cls-35, .cls-36, .cls-37, .cls-38, .cls-39, .cls-40, .cls-41 {
        stroke-linecap: round;
        stroke-linejoin: round;
      }

      .cls-1, .cls-2, .cls-6, .cls-7, .cls-10, .cls-13, .cls-16, .cls-42, .cls-18, .cls-21, .cls-24, .cls-25, .cls-26, .cls-43, .cls-29, .cls-30, .cls-31, .cls-37 {
        stroke-width: 2px;
      }

      .cls-1, .cls-3, .cls-6, .cls-7, .cls-44, .cls-8, .cls-9, .cls-10, .cls-11, .cls-13, .cls-14, .cls-15, .cls-16, .cls-17, .cls-18, .cls-19, .cls-21, .cls-22, .cls-23, .cls-24, .cls-25, .cls-26, .cls-27, .cls-28, .cls-29, .cls-31, .cls-32, .cls-36, .cls-37, .cls-38, .cls-39, .cls-40, .cls-41 {
        fill: none;
      }

      .cls-1, .cls-6, .cls-16, .cls-18, .cls-43, .cls-29 {
        stroke: #bc695c;
      }

      .cls-2, .cls-45, .cls-4, .cls-5, .cls-44, .cls-46, .cls-9, .cls-11, .cls-12, .cls-14, .cls-42, .cls-20, .cls-47, .cls-27, .cls-48, .cls-28, .cls-49, .cls-30, .cls-33, .cls-34, .cls-35, .cls-38, .cls-50, .cls-40 {
        stroke: #000;
      }

      .cls-2, .cls-51, .cls-33 {
        fill: #f4f3e7;
      }

      .cls-45, .cls-3, .cls-4, .cls-5, .cls-8, .cls-9, .cls-11, .cls-14, .cls-15, .cls-17, .cls-19, .cls-20, .cls-47, .cls-22, .cls-23, .cls-27, .cls-48, .cls-28, .cls-49, .cls-32, .cls-33, .cls-34, .cls-36, .cls-39, .cls-50, .cls-40, .cls-41 {
        stroke-width: 2.5px;
      }

      .cls-45, .cls-44, .cls-46, .cls-42, .cls-47, .cls-48, .cls-43, .cls-49, .cls-50 {
        stroke-miterlimit: 10;
      }

      .cls-45, .cls-43 {
        fill: #f1a791;
      }

      .cls-3 {
        stroke-dasharray: 0 0 3.14 4.71;
      }

      .cls-3, .cls-8, .cls-15, .cls-17, .cls-19, .cls-22, .cls-23, .cls-32, .cls-36, .cls-39, .cls-41 {
        stroke: #ba8b74;
      }

      .cls-4 {
        fill: #f9cdb7;
      }

      .cls-5, .cls-35, .cls-50 {
        fill: #eeaabc;
      }

      .cls-6 {
        stroke-dasharray: 0 0 2.67 3.57;
      }

      .cls-7 {
        stroke-dasharray: 0 0 3.62 5.43;
      }

      .cls-7, .cls-10, .cls-13, .cls-21, .cls-24, .cls-25, .cls-26, .cls-31, .cls-37 {
        stroke: #c681a0;
      }

      .cls-44, .cls-46, .cls-35, .cls-38 {
        stroke-width: 2.64px;
      }

      .cls-8 {
        stroke-dasharray: 0 0 3.97 5.95;
      }

      .cls-46, .cls-47 {
        fill: #f5e3d9;
      }

      .cls-9 {
        stroke-dasharray: 0 0 3.25 4.88;
      }

      .cls-10 {
        stroke-dasharray: 0 0 3.18 4.77;
      }

      .cls-11 {
        stroke-dasharray: 0 0 3.28 4.93;
      }

      .cls-12 {
        fill: #fff;
      }

      .cls-13 {
        stroke-dasharray: 0 0 3.55 5.33;
      }

      .cls-14 {
        stroke-dasharray: 0 0 3.35 5.03;
      }

      .cls-15 {
        stroke-dasharray: 0 0 3.48 5.22;
      }

      .cls-52 {
        fill: #ddc7bc;
      }

      .cls-42 {
        fill: #6993bb;
      }

      .cls-18 {
        stroke-dasharray: 0 0 3.25 4.88;
      }

      .cls-19 {
        stroke-dasharray: 0 0 3.21 4.82;
      }

      .cls-20 {
        fill: #dbb4a1;
      }

      .cls-21 {
        stroke-dasharray: 0 0 3.11 4.67;
      }

      .cls-22 {
        stroke-dasharray: 0 0 3.6 5.41;
      }

      .cls-23, .cls-24, .cls-28 {
        stroke-dasharray: 0 0 3.52 5.29;
      }

      .cls-53 {
        fill: #e889a9;
      }

      .cls-26 {
        stroke-dasharray: 0 0 3.87 5.8;
      }

      .cls-54 {
        fill: #efe8e6;
      }

      .cls-48 {
        fill: #efa8bd;
      }

      .cls-29 {
        stroke-dasharray: 0 0 2.81 3.75;
      }

      .cls-49 {
        fill: #a84f73;
      }

      .cls-30 {
        fill: #3f3f3f;
      }

      .cls-31 {
        stroke-dasharray: 0 0 3.57 5.36;
      }

      .cls-32 {
        stroke-dasharray: 0 0 3.38 5.07;
      }

      .cls-34 {
        fill: #f8decf;
      }

      .cls-36 {
        stroke-dasharray: 0 0 2.98 4.46;
      }

      .cls-37 {
        stroke-dasharray: 0 0 3.51 5.26;
      }

      .cls-39 {
        stroke-dasharray: 0 0 4.06 6.09;
      }

      .cls-40 {
        stroke-dasharray: 0 0 3.59 5.38;
      }

      .cls-41 {
        stroke-dasharray: 0 0 3.26 4.89;
      }
    </style>
  </defs>
  <path class="cls-49" d="M552.46,220c-31.58,13.07-59.61,11.26-76.29,10-19.08-1.44-37.43-8.1-74.12-21.4-5.75-2.08-14.84-5.51-21.74-14.28-2.54-3.23-6.84-9.81-8.54-22.26-1.25-9.15-1.81-26.82,15.14-62.12,11.07-23.06,16.61-34.58,28.19-46.46,7.36-7.55,35.33-35.91,75.22-34.45,50.73,1.86,80.37,51.03,85.66,59.83,12.3,20.45,15.81,40.34,19.22,59.71,3.48,19.75,5.32,31.09-.44,42.85-7.62,15.57-23.88,20.96-42.29,28.58Z"/>
  <path class="cls-20" d="M445.51,221.54c2.67,.95,10.08,3.36,33.23,3.05,16.01-.22,24.01-.33,28.65-2.02,20.44-7.44,28.63-31.66,29.72-35.02,10.78-33.35-7.47-86.88-48-94.22-30.7-5.56-60.2,17.91-71.7,43.56-10.4,23.19-9.47,55.66,8,72.59,7.84,7.61,18.37,11.45,20.1,12.06Z"/>
  <path class="cls-47" d="M324.49,510.75c.46,2.77,1.33,6.83,3.08,11.52,1.45,3.87,2.71,6.07,3.72,8.22,3.05,6.49,3.51,11.95,4.31,18.79,1.08,9.19,2.73,20.55,5.07,35.27,1.43-.4,3.7-.84,6.48-.6,3.06,.26,5.4,1.24,6.78,1.94,.15-.4,.87-2.14,2.65-2.81,.52-.19,1-.25,1.39-.26,.62-11.14,.52-20.4,.26-27.14-.45-11.99-1.4-16.66-2.02-19.31-1.89-8-4.81-14.2-7.04-18.25-.48-.82-.96-1.78-1.38-2.88-.91-2.36-1.21-4.51-1.3-6.14-.5-7.39-1-14.79-1.49-22.18-2.67-4.31-7.53-6.74-12.44-6.22-5.47,.57-10.06,4.69-11.33,10.22,1.09,6.62,2.18,13.23,3.26,19.85Z"/>
  <path class="cls-33" d="M272.46,591.62c1.2-2.35,2.39-4.69,3.59-7.04,1.67-3.75,7.5-6.48,14.3-6.77,7.41-.31,14.41,2.36,16.58,6.41,.96,2.47,1.93,4.94,2.89,7.41-.49,.39-7.19,5.55-19.14,5.41-11.39-.13-17.63-4.96-18.22-5.43Z"/>
  <path class="cls-47" d="M275.7,508.63c1.45,6.16,2.58,10.99,3.33,14.1,.18,.73,.54,2.26,.88,4.34,.26,1.6,.44,3.12,.55,4.53-.56,7.81-.78,16.52-.39,25.97,.46,10.99,1.66,20.94,3.17,29.66,1.06,4.59,5.22,7.64,9.49,7.27,3.53-.31,6.64-2.92,7.73-6.56,.76-4.53,1.78-11.02,2.84-18.89,.92-6.83,1.31-10.24,1.62-13.82,.49-5.73,.58-14.1-1.56-24.68,.02-1.54,0-3.13-.06-4.76-.2-5.66-.87-10.87-1.77-15.54-1.31-8.25-2.62-16.5-3.93-24.75-.21-.38-4.02-6.83-11.56-7.11-5.25-.19-10.21,2.69-12.74,7.41,.8,7.61,1.6,15.22,2.4,22.83Z"/>
  <path class="cls-33" d="M309.82,595.26c-5.2-8.62-15.92-8.77-18.8-8.81-2.92-.04-12.94-.18-18.78,7.92-6.05,8.4-2.42,18.45-2.09,19.31,1.68,1.51,8.87,7.62,19.84,7.61,11.65-.01,19.11-6.93,20.62-8.39,.46-1.1,3.93-9.83-.79-17.64Z"/>
  <path class="cls-48" d="M302.23,589.88c-.38,2.18,.89,3.9,1.56,4.8,.71,.97,2.8,3.79,5.95,3.47,2.85-.29,4.3-2.93,4.37-3.07,1.48-2.8-.02-5.6-.26-6.03-.15-.28-1.82-3.26-5.2-3.61-.73-.07-2.83-.16-4.58,1.34-.34,.29-1.54,1.35-1.84,3.11Z"/>
  <path class="cls-48" d="M280.13,589.88c.38,2.18-.89,3.9-1.56,4.8-.71,.97-2.8,3.79-5.95,3.47-2.85-.29-4.3-2.93-4.37-3.07-1.48-2.8,.02-5.6,.26-6.03,.15-.28,1.82-3.26,5.2-3.61,.73-.07,2.83-.16,4.58,1.34,.34,.29,1.54,1.35,1.84,3.11Z"/>
  <g>
    <path class="cls-27" d="M290.77,591.17v1.76"/>
    <path class="cls-9" d="M290.77,597.82v13.82"/>
    <path class="cls-27" d="M290.77,614.08v1.76"/>
  </g>
  <path class="cls-48" d="M290.77,617.68c2.02,.09,3.52-1.99,4.7-3.62,.97-1.35,1.58-2.19,1.37-3.13-.43-1.92-3.94-2.64-6.07-2.64-1.65,0-5.21,.41-5.77,2.35-.35,1.22,.65,2.48,1.86,4.01,1.28,1.62,2.35,2.96,3.92,3.03Z"/>
  <path class="cls-33" d="M360.79,592.73c-.81-1.55-1.91-3.6-4.16-5.42-4.05-3.27-8.81-3.36-10.43-3.39-1.56-.03-5.74-.1-9.66,2.5-2.72,1.81-4.1,4.07-4.9,5.42-4.7,7.89-3.29,17.5-2.7,20.67,1.88,1.73,6.13,5.14,12.46,6.25,11.17,1.96,19.57-4.83,20.87-5.92l9.87-13.87c-.08-1.88-.16-3.76-.24-5.64-.47-.87-1.63-2.74-3.92-4.11-1.9-1.14-3.7-1.4-4.67-1.48,.21,.64,.8,2.76-.2,4.98-.41,.91-.98,1.57-1.42,1.99,.46,1.15,.95,2.67,1.27,4.48,.33,1.88,.33,3.83,.33,3.75-.02-2.28-.37-6.14-2.51-10.21Z"/>
  <path class="cls-48" d="M353.17,587.43c-.31,2.22,.75,3.97,1.3,4.89,.6,.99,2.35,3.86,4.98,3.53,2.39-.3,3.6-2.98,3.66-3.13,1.24-2.85-.02-5.7-.22-6.15-.12-.28-1.52-3.32-4.36-3.68-.61-.08-2.37-.16-3.84,1.37-.28,.3-1.29,1.37-1.54,3.17Z"/>
  <path class="cls-48" d="M337.42,585.19c0,2.2-1.2,3.77-1.83,4.6-.68,.89-2.65,3.47-5.03,2.83-2.15-.58-2.92-3.34-2.96-3.49-.77-2.92,.75-5.55,.99-5.96,.15-.26,1.83-3.05,4.47-3.05,.57,0,2.2,.13,3.35,1.8,.22,.32,1,1.49,1.01,3.27Z"/>
  <g>
    <path class="cls-16" d="M283.92,534.74c.08,.44,.19,.87,.32,1.28"/>
    <path class="cls-29" d="M286.07,539.26c.74,.77,1.58,1.25,2.44,1.35,2.1,.24,4.83-1.76,5.86-5.19"/>
    <path class="cls-16" d="M294.73,533.58c.04-.43,.06-.87,.05-1.32"/>
  </g>
  <g>
    <path class="cls-16" d="M333.91,529.52c.13,.43,.27,.85,.44,1.25"/>
    <path class="cls-6" d="M336.31,533.72c.76,.71,1.59,1.12,2.38,1.13,1.9,.01,4.08-2.31,4.55-5.87"/>
    <path class="cls-16" d="M343.32,527.19c-.01-.43-.05-.87-.12-1.32"/>
  </g>
  <g>
    <path class="cls-27" d="M344.4,587.94c-.3,.47-.61,.97-.92,1.5"/>
    <path class="cls-40" d="M341.11,594.26c-.29,.7-.56,1.43-.81,2.2-1.6,4.77-2.02,9.17-1.97,12.69"/>
    <path class="cls-27" d="M338.45,611.84c.05,.63,.11,1.22,.18,1.75"/>
  </g>
  <path class="cls-48" d="M337.79,614.25c1.56,.19,2.86-1.81,3.87-3.37,.84-1.3,1.37-2.11,1.27-3.05-.21-1.94-2.87-2.83-4.52-2.95-1.27-.09-4.06,.14-4.62,2.05-.35,1.2,.34,2.51,1.17,4.1,.88,1.68,1.62,3.08,2.83,3.23Z"/>
  <g>
    <path class="cls-46" d="M309.58,246.02c-1.54,1-5.11,3.36-7.53,7.9-1.49,2.79-2.84,5.31-1.81,7.94,1.02,2.59,3.86,4.14,6.35,4.41,1.55,.17,2.84-.17,3.61-.44,2.28-2.92,4.87-6,7.82-9.15,3.33-3.55,6.6-6.66,9.7-9.36-.48-1.19-1.63-3.45-4.01-4.55-2.4-1.11-4.77-.45-7.73,.38-3.08,.86-5.31,2.17-6.39,2.87Z"/>
    <g>
      <path class="cls-35" d="M247.15,449.94c-.94,2.95-1.94,5.79-2.97,8.52,1.73,1.1,4.18,2.39,7.29,3.32,3.85,1.15,7.21,1.28,9.5,1.2,1.35,.7,3.72,1.7,6.81,1.92,3.61,.26,6.44-.66,7.91-1.25,2.22,.58,4.95,1.1,8.11,1.28,2.49,.15,4.73,.06,6.64-.13,2.26,.4,5.04,.7,8.21,.63,2.56-.05,4.84-.34,6.76-.7,4.06,.79,9.26,1.42,15.29,1.25,5.59-.16,10.41-.96,14.23-1.87,2.64,.49,6.65,.9,11.4,.14,3.99-.63,7.18-1.87,9.4-2.94-3.13-13.45-6.27-26.9-9.4-40.35-2.65,.04-5.66,.23-8.94,.7-3.27,.47-6.2,1.12-8.74,1.83-3.77-.37-8.32-.51-13.44,0-3.35,.33-6.38,.89-9.04,1.52-1.46-.2-3.26-.33-5.32-.22-2.22,.13-4.12,.51-5.61,.91-1.84-.81-4.26-1.68-7.18-2.22-2.33-.43-4.41-.54-6.13-.52-1.5-.44-3.25-.82-5.22-1.04-3.97-.44-7.37-.05-9.85,.46-4.31-1-8.61-2-12.92-2.99-1.21,9.33-3.31,19.64-6.79,30.54Z"/>
      <g>
        <path class="cls-25" d="M261.66,459.43c.15-.56,.29-1.13,.44-1.71"/>
        <path class="cls-31" d="M263.3,452.5c.42-1.95,.81-3.98,1.17-6.09,.53-3.09,.94-6.07,1.26-8.89"/>
        <path class="cls-25" d="M266.01,434.85c.06-.59,.11-1.18,.16-1.75"/>
      </g>
      <g>
        <path class="cls-25" d="M275.7,461.77c.1-.58,.2-1.16,.31-1.73"/>
        <path class="cls-10" d="M276.8,455.33c.11-.67,.22-1.33,.33-2,1.06-6.54,1.97-12.96,2.76-19.24"/>
        <path class="cls-25" d="M280.19,431.72c.07-.58,.14-1.17,.21-1.75"/>
      </g>
      <g>
        <path class="cls-25" d="M290.44,462.92c.11-.57,.22-1.15,.33-1.73"/>
        <path class="cls-21" d="M291.57,456.59c.15-.99,.3-1.99,.44-3,.48-3.52,.83-6.9,1.06-10.13"/>
        <path class="cls-25" d="M293.22,441.12c.03-.59,.06-1.18,.09-1.76"/>
      </g>
      <g>
        <path class="cls-25" d="M334.93,462.23c-.12-.57-.24-1.15-.36-1.72"/>
        <path class="cls-26" d="M333.43,454.82c-.38-1.95-.74-3.93-1.1-5.93-.62-3.49-1.18-6.91-1.68-10.26"/>
        <path class="cls-25" d="M330.23,435.76c-.08-.58-.17-1.16-.25-1.74"/>
      </g>
      <g>
        <path class="cls-25" d="M305.41,462.86c0-.58-.01-1.17-.02-1.76"/>
        <path class="cls-25" d="M305.17,455.09c-.03-.59-.07-1.18-.11-1.76"/>
      </g>
    </g>
    <path class="cls-33" d="M325.22,243.55c1.27,1.02,1.76,2.53,1.98,3.67-1.54,1.49-3.74,3.65-6.29,6.35-3.68,3.88-8.35,9.12-10.7,12.27-2.86,3.83-5.71,8.78-8.61,22.97-4.48,21.87-5.33,39.6-6,54.94-.27,6.11-.5,14.01,0,24.01,.27,5.44,.69,10,1.04,13.31,.27,2.23,.3,3.97,.26,5.22-.03,.88-.1,1.83,.52,2.61,.36,.45,.84,.71,1.7,1.17,.68,.37,1.27,.62,1.7,.78-.02,2.23,.03,4.17,.09,5.74,.11,2.96,.26,4.05,1.09,4.96,.8,.88,1.89,1.18,2.61,1.3,4.77,.62,11.09,1.29,18.54,1.67,8.47,.42,14.74,.74,22.83-.23,4.76-.57,11.2-1.71,18.66-4.18-1.2-30.64-3.42-62.75-6.92-96.18-1.77-16.87-3.78-33.31-6-49.33-1.99-2.57-5.2-6.15-9.92-9.4-2.65-1.82-8.62-5.93-16.18-6.79-4.58-.52-8.92,.26-21.76,6.12-6.62,3.03-15.5,7.41-25.74,13.45-2.88,21.76-9.29,49.81-23.89,79.68-5.44,11.12-11.28,21-17.08,29.68-.47,.56-1.22,1.63-1.5,3.13-.29,1.58,.09,2.83,.29,3.52,1.34,4.45,7.67,10.43,8.09,10.82v12.57c2.4,.9,5.59,1.83,9.43,2.25,5,.55,9.22,.02,12.14-.59,.3-.05,.97-.22,1.6-.78,.73-.65,.95-1.44,1.01-1.73,.01-2.51,.02-5.02,.03-7.54,1.38-.87,2.76-1.74,4.14-2.61,.26-4.05,.79-10.3,1.96-17.88,2.03-13.2,3.71-15.59,6.56-31.6,1.56-8.73,1.41-9.98,3.57-21.77,1.39-7.61,2.51-12.86,3.18-15.92,.79-3.61,1.82-8.4,3.47-14.55,.84-3.15,3.36-12.42,7.76-23.94,1.95-5.12,2.94-7.17,4.83-9.4,3.99-4.69,8.82-6.4,11.48-7.31,3.54-1.2,7.5-2.55,10.05-.49Z"/>
    <path class="cls-27" d="M300.81,390.85c3.78,.94,8.82,2,14.82,2.73,7.86,.96,13.54,.88,20.81,.79,12.19-.16,16.22-1.19,17.94-1.68,4.21-1.19,7.52-2.78,9.76-4"/>
    <path class="cls-27" d="M268.22,389.02c-.67,.24-1.64,.55-2.84,.85-2.03,.51-4.77,.97-10.18,.88-2.92-.05-6.72-.26-11.19-.91"/>
    <path class="cls-5" d="M318.13,359.41c1.65-.94,3.61-1.92,5.87-2.82,2.24-.89,4.33-1.51,6.17-1.96,1.55,2.18,4.18,5.29,8.22,8.03,5.28,3.56,10.4,4.73,13.31,5.17-5.39,3.52-9.3,3.7-11.87,3.23-3.85-.72-5.49-3.26-11.43-6.64-4.28-2.43-7.94-4.05-10.28-5.01Z"/>
    <path class="cls-27" d="M318.13,359.41c-1.71,1.16-3.49,2.48-5.32,3.97-2.82,2.3-5.23,4.6-7.27,6.76"/>
    <path class="cls-5" d="M242.47,367.56c-.28-.55,5.68-2.72,10.55-8.93,3.03-3.86,4.51-7.87,5.3-10.84,1,.22,2.52,.69,4.11,1.76,1.19,.8,2.03,1.68,2.59,2.36-1.62,2.42-4.2,5.72-8.07,8.8-6.76,5.37-14.17,7.45-14.49,6.85Z"/>
    <path class="cls-27" d="M265.03,351.91c.66,.81,1.41,1.84,2.11,3.12,.68,1.25,1.14,2.41,1.46,3.39"/>
    <path class="cls-33" d="M402.72,273.4c-1.98,3.72-4.64,9.63-5.91,17.26-.52,3.1-.76,6.25,.4,25.66,.55,9.23,.83,13.84,1.34,19.73,.62,7.06,1.17,11.61,2.06,22.28,.29,3.42,.51,6.25,.65,8.15-.43,.66-.92,1.55-1.31,2.66-.53,1.52-.67,2.86-.69,3.82,.37,1,1.01,2.45,2.06,4.01,2.29,3.41,5.07,5.15,8.91,7.44,5,2.99,9.23,5.4,12.44,7.19-.07,.2-.28,.87,0,1.66,.23,.66,.68,1.03,.87,1.16,1.05,2.13,2.09,4.26,3.14,6.39,2.19,.14,4.38,.28,6.56,.42,.21,.56,.83,1.96,2.34,3.05,1.5,1.09,3.03,1.24,3.62,1.27,3.09-.6,5.6-1.43,7.44-2.15,2.44-.96,7.02-2.81,11.45-6.95,.63-.59,1.13-1.1,1.47-1.47,.08-1.23,.07-2.77-.2-4.5-.2-1.34-.51-2.52-.84-3.5,.27-.45,.64-1.14,.96-2.03,.52-1.48,.61-2.75,.71-4.3,.04-.63,.07-1.44,.05-2.4,2.77-4.96,5.55-9.92,8.32-14.88,.29-.58,.63-1.41,.78-2.45,.28-1.9-.19-3.44-.49-4.21-3.47-8.54-7.65-17.69-12.72-27.25-3.65-6.89-7.38-13.27-11.07-19.14-2.63-5.95-5.8-12.28-9.64-18.81-9.16-15.58-19.41-27.73-28.53-36.88-1.86-2.02-3.73-4.05-5.59-6.07"/>
    <path class="cls-33" d="M211.12,255.85c-2.7,1.53-5.6,3.38-8.6,5.61-5.05,3.76-9.06,7.65-12.18,11.13-1.92-.04-4.43,.09-7.28,.77-2.33,.55-4.28,1.31-5.79,2.04-.46,2.86-.91,5.72-1.37,8.58-1.2-.54-4.06-1.63-7.46-.87-2.06,.46-3.5,1.41-4.16,1.85-2.07,1.39-3.22,3.02-4.01,4.18-3.16,4.6-5.83,9.36-7.12,11.71-.98,1.21-11.22,13.87-12.6,16.8-.11,.24-.35,.76-.38,1.47-.06,1.71,1.17,3.08,1.96,3.82-1.47,2.12-2.94,4.24-4.4,6.36-.27,.26-1.46,1.44-1.47,3.23,0,.76,.21,1.37,.39,1.76l6.46,7.34c1.9,4.04,4.8,9.15,9.2,14.39,3.4,4.05,6.83,7.15,9.8,9.48,.26,.11,.68,.26,1.21,.26,.93,0,1.58-.44,1.82-.62,2.02-.47,4.04-.93,6.06-1.4,1.28,.52,2.55,1.04,3.83,1.55,2.12-1.36,5.49-3.9,8.38-8.12,2.48-3.62,3.65-7.08,4.23-9.38-.85-1.01-1.7-2.02-2.54-3.03,.52-1.55,1.31-3.45,2.54-5.48,1.47-2.42,3.09-4.22,4.4-5.48,.16-3.69,.33-7.39,.49-11.08,1.4-3.71,2.79-7.42,4.19-11.14,1.37-3.59,2.74-7.18,4.11-10.77,1.7-1.17,3.39-2.35,5.09-3.52,.39-2.87,.78-5.74,1.17-8.61"/>
    <path class="cls-27" d="M346.11,248.54c-6.27,5.24-14.04,12.95-20.95,23.69-10.99,17.1-13.61,33.4-16.44,50.11-2.71,16-2.92,29.13-3.13,42.28-.18,11.29,.17,20.73,.54,27.43"/>
    <path class="cls-5" d="M293,249.8c-2.63,10.82-4.88,19.46-6.46,25.43-1.98,7.45-4.53,16.95-7.07,29.07-.24,1.15-.46,2.24-.68,3.37-2.23,11.48-1.47,10.73-3.76,22.57-3.16,16.4-4.97,19.69-7.02,31.38-1.16,6.65-2.45,16.27-2.63,28.25,.82-.16,1.79-.41,2.84-.85,1.87-.77,3.24-1.8,4.14-2.61,.61-10.2,1.92-18.4,3.02-24.08,1.46-7.5,2.25-8.93,4.21-18.68,1.75-8.69,1.94-11.61,3.68-21.8,1.5-8.8,2.78-14.99,4.6-23.73,1.04-5.03,5.11-24.29,12.01-40.01,.98-2.23,2.98-6.59,7.41-10.16,3.75-3.02,7.38-3.97,9.78-4.57,3.2-.8,6.08-1.48,8.14,.16,1.32,1.04,1.79,2.62,1.98,3.67-5.85,5.72-10.37,10.7-13.59,14.42-2.55,2.95-4.15,4.96-5.75,7.75-2.73,4.78-3.8,8.95-4.44,11.61-3.62,14.97-5.18,28.06-5.18,28.06-1.36,11.38-1.87,19.92-2.26,26.59-.75,12.79-.7,20.08-.66,22.69,.09,6.78,.13,10.18,.53,13.57,.27,2.31,.8,6.02,1,11.37,.06,1.59,.07,2.91,.08,3.78,0,.45,.06,1.16,.5,1.83,.6,.92,1.59,1.25,2.28,1.47,2.53,.8,4.94,1.36,6.44,1.68-.76-13.57-.69-24.98-.43-33.44,.52-17.16,1.08-32.69,5.9-51.96,2.44-9.75,4.51-18.03,9.87-28.13,7.74-14.59,17.72-24.28,24.64-29.98-3.33-2.99-6.46-4.9-8.68-6.07-3.23-1.71-7.54-3.98-13.16-4.15-3.37-.1-6.04,.59-9.45,1.72-5.19,1.71-12.74,4.65-21.82,9.76Z"/>
    <path class="cls-5" d="M422.66,393.24c2.74-2.86,6.84-6.46,12.5-9.44,10.33-5.43,20.09-5.77,25.07-5.58,.1,1.12,.12,2.68-.24,4.51-.36,1.81-.97,3.24-1.48,4.23,.48,1.45,.94,3.08,1.31,4.87,.26,1.24,.45,2.42,.59,3.52-2.43,2-5.82,4.39-10.18,6.46-4.2,1.99-8.04,3.09-11.04,3.72-.3,.02-2.17,.14-3.62-1.27-1.06-1.03-1.28-2.26-1.34-2.68-2.52-.27-5.05-.53-7.57-.8-1.33-2.52-2.67-5.03-4-7.55Z"/>
    <path class="cls-5" d="M162.11,365.49c.25-2.77,1.23-9.39,6.24-15.61,7.1-8.82,17.05-10.32,19.3-10.6-.85,1.83-1.7,3.65-2.54,5.48,.85,1.01,1.7,2.02,2.54,3.03-.58,2.3-1.75,5.76-4.23,9.38-2.89,4.21-6.26,6.75-8.38,8.12-.96-.39-1.92-.78-2.88-1.17-3.35,.46-6.7,.91-10.04,1.37Z"/>
    <g>
      <path class="cls-27" d="M168.09,294.28c.52,.28,1.04,.55,1.56,.83"/>
      <path class="cls-11" d="M173.99,297.42c4.22,2.24,8.44,4.49,12.65,6.73,.71,.42,1.92,1.28,2.94,2.78,.95,1.4,1.32,2.75,1.47,3.54,.33,2.68,.65,5.37,.98,8.05"/>
      <path class="cls-27" d="M192.33,320.96c.07,.58,.14,1.17,.21,1.75"/>
    </g>
    <path class="cls-28" d="M305.72,397.25c7.95,1.45,18.09,2.56,29.82,2.02,9.27-.42,17.39-1.77,24.08-3.33"/>
    <path class="cls-28" d="M262.52,394.64c-2.83,.27-6.08,.41-9.66,.26-3.27-.13-6.24-.48-8.86-.91"/>
    <path class="cls-28" d="M401.25,366.46c3.71-4.05,8.85-8.89,15.64-13.46,5.71-3.84,11.13-6.5,15.66-8.35"/>
    <g>
      <path class="cls-25" d="M332.8,249.91c-.42,.37-.86,.77-1.31,1.18"/>
      <path class="cls-13" d="M327.69,254.82c-4.1,4.29-8.63,9.97-12.51,17.21-4.84,9.04-6.37,16.26-9.2,30.15-1.81,8.9-4.66,25.1-5.48,46.78-.31,8.06-.39,18.38,.3,30.42"/>
      <path class="cls-25" d="M300.96,382.04c.04,.58,.08,1.17,.12,1.76"/>
    </g>
    <g>
      <path class="cls-25" d="M295.6,254.02c-.15,.56-.3,1.13-.45,1.7"/>
      <path class="cls-37" d="M293.82,260.81c-2.42,9.2-5.09,19.33-8.19,31.19-2,7.63-3.1,11.84-4.31,18.01-1.53,7.82-1.28,8.71-3.72,22.71-1.65,9.44-2.69,14.34-3.33,17.23-1.34,6.06-1.77,7.15-2.54,10.77-.91,4.21-1.92,10.11-2.36,17.53"/>
      <path class="cls-25" d="M269.24,380.87c-.02,.58-.04,1.17-.06,1.76"/>
    </g>
    <path class="cls-33" d="M433.23,401.21c1.81-2.43,4.94-5.98,9.77-8.99,6.25-3.9,12.24-4.93,15.52-5.26,.63,2.8,1.27,5.59,1.9,8.39-4.24,2.85-8.02,5.12-11.08,6.87-5.56,3.18-8.99,4.74-11.43,3.6-1.75-.82-3.13-2.35-3.13-2.35-.76-.85-1.25-1.67-1.55-2.27Z"/>
    <path class="cls-33" d="M172.16,364.12c.31-2.34,1.22-6.86,4.42-11.5,2.97-4.31,6.52-6.7,8.53-7.86,.85,1.01,1.7,2.02,2.54,3.03-.39,2.2-1.31,5.7-3.64,9.4-2.78,4.41-6.22,6.96-8.22,8.22-1.21-.43-2.42-.86-3.63-1.29Z"/>
    <g>
      <path class="cls-27" d="M142.14,322.93c.31,.34,.72,.77,1.24,1.25"/>
      <path class="cls-14" d="M147.52,327.01c.7,.35,1.47,.67,2.3,.94,1.17,.39,2.28,.62,3.3,.75"/>
      <path class="cls-27" d="M155.64,328.84c.68,0,1.27-.05,1.75-.11"/>
    </g>
    <path class="cls-28" d="M445.06,310.3c-4.33-4.29-8.93-8.64-13.82-13.02-3.03-2.72-6.03-5.33-9-7.83"/>
    <path class="cls-2" d="M278.82,314.63c-.86,.81-.69,1.97-.66,2.12,.13,.77,.65,1.63,1.55,1.91,1.14,.35,2.49-.36,2.89-1.57,.35-1.05-.1-2.31-1.13-2.84-.86-.45-1.95-.29-2.65,.37Z"/>
    <path class="cls-2" d="M284.74,287.61c-.86,.81-.69,1.97-.66,2.12,.13,.77,.65,1.63,1.55,1.91,1.14,.35,2.49-.36,2.89-1.57,.35-1.05-.1-2.31-1.13-2.84-.86-.45-1.95-.29-2.65,.37Z"/>
    <path class="cls-2" d="M273.63,342.67c-.86,.81-.69,1.97-.66,2.12,.13,.77,.65,1.63,1.55,1.91,1.14,.35,2.49-.36,2.89-1.57,.35-1.05-.1-2.31-1.13-2.84-.86-.45-1.95-.29-2.65,.37Z"/>
    <path class="cls-2" d="M268.42,372.34c-.86,.81-.69,1.97-.66,2.12,.13,.77,.65,1.63,1.55,1.91,1.14,.35,2.49-.36,2.89-1.57,.35-1.05-.1-2.31-1.13-2.84-.86-.45-1.95-.29-2.65,.37Z"/>
    <path class="cls-2" d="M298.97,344.65c-.86,.81-.69,1.97-.66,2.12,.13,.77,.65,1.63,1.55,1.91,1.14,.35,2.49-.36,2.89-1.57,.35-1.05-.1-2.31-1.13-2.84-.86-.45-1.95-.29-2.65,.37Z"/>
    <path class="cls-2" d="M299.21,373.75c-.86,.81-.69,1.97-.66,2.12,.13,.77,.65,1.63,1.55,1.91,1.14,.35,2.49-.36,2.89-1.57,.35-1.05-.1-2.31-1.13-2.84-.86-.45-1.95-.29-2.65,.37Z"/>
    <path class="cls-2" d="M302.01,315.95c-.86,.81-.69,1.97-.66,2.12,.13,.77,.65,1.63,1.55,1.91,1.14,.35,2.49-.36,2.89-1.57,.35-1.05-.1-2.31-1.13-2.84-.86-.45-1.95-.29-2.65,.37Z"/>
    <path class="cls-2" d="M306.6,288.77c-.86,.81-.69,1.97-.66,2.12,.13,.77,.65,1.63,1.55,1.91,1.14,.35,2.49-.36,2.89-1.57,.35-1.05-.1-2.31-1.13-2.84-.86-.45-1.95-.29-2.65,.37Z"/>
    <path class="cls-4" d="M301.36,255.09c-2.28,2.78-2.02,6.89,.57,9.33,2.54,2.41,6.57,2.49,9.23,.16-1.68,2.26-3.93,5.67-5.84,10.16-2.3,5.37-3.06,9.79-3.6,13.05-2.33,14.07-3.49,21.1-4.1,26.78-1.25,11.62-1.62,19.78-2.12,30.79-.4,8.8-.42,14.32-.05,20.71,.25,4.45,.64,8.16,.96,10.8-3.11-.14-6.77-.53-10.79-1.39-4.65-.99-8.61-2.37-11.81-3.71,.51-3.12,1.32-7.87,2.46-13.64,1.57-7.9,2.24-10.05,3.67-17.1,1.51-7.47,1.44-8.44,3.34-19.17,.92-5.17,2.15-12.11,3.91-20.38,2.11-9.91,3.74-17.57,6.85-27.21,2.39-7.41,4.96-13.84,7.33-19.18Z"/>
    <path class="cls-35" d="M294.52,272.12c.62,.71,2.03,2.11,4.31,2.94,2.33,.85,4.36,.64,5.29,.49"/>
    <path class="cls-45" d="M274.48,366.99c2.92,1.17,6.54,2.35,10.77,3.2,3.98,.8,7.57,1.11,10.59,1.18,.19,1.83,.38,3.66,.57,5.49-3.76-.17-8.32-.7-13.37-1.99-3.5-.9-6.58-1.99-9.22-3.1,.22-1.59,.45-3.18,.67-4.77Z"/>
  </g>
  <g>
    <path class="cls-52" d="M140.51,209.97c2.77-.01,5.58-.04,8.42-.09,2.51-.04,4.99-.1,7.45-.17,.02,.76,.1,1.72,.37,2.8,.26,1.05,.62,1.92,.95,2.59-1.06,.7-3.99,2.44-8.12,2.4-4.08-.04-6.95-1.8-8-2.52-.02-.51-.06-1.06-.15-1.66-.2-1.33-.56-2.46-.93-3.35Z"/>
    <g>
      <g>
        <path class="cls-46" d="M91.89,166.11c1.37,11.3,3.2,14.34,4.7,16.18,1.38,1.7,3.29,3.39,4.7,6.79,1.56,3.78,.81,5.62,1.57,8.09,1.81,5.93,10.11,8.43,16.18,10.18,7.06,2.03,13.84,2.76,24.79,2.61,16.82-.22,25.22-.33,32.62-3.65,11.89-5.33,18.32-14.7,20.88-18.53,11.85-17.74,12.35-41.17,5.22-59.51-7.71-19.83-28.92-45.45-58.46-43.59-31.73,2-50.05,34.25-52.98,52.98-1.5,9.61,.02,22.19,.78,28.45Z"/>
        <path class="cls-54" d="M126.81,164.57c1.01,.97,2.54,2.7,3.63,5.32,2.04,4.91,2.15,12.08-1.5,16.44-2.35,2.82-5.34,3.35-8.53,3.91-1.68,.3-8.98,1.37-15.55-3.65-1.09-.83-3.05-2.36-4.74-5.21-2.12-3.57-2.59-7.13-2.71-8.96,3.12-3.9,6.22-5.74,8.16-6.65,4.54-2.12,8.81-1.99,14.38-1.82,2.88,.09,5.25,.37,6.85,.61Z"/>
        <path class="cls-54" d="M164.84,163.37c-.73,1.6-1.91,4.81-1.57,8.87,.12,1.42,.64,7.55,5.87,11.61,4.08,3.17,9.37,3.83,13.57,2.61,8.83-2.55,11.86-12.8,12.79-15.92,.98-3.3,1.17-6.17,1.17-8.09-3.9-1.12-9.73-2.3-16.84-1.98-6.28,.28-11.41,1.64-15,2.9Z"/>
        <path class="cls-43" d="M101.53,189.72c1.69-1.13,5.09-3.08,9.73-3.45,1.69-.13,10.22-.81,15.46,5.68,3.8,4.7,4.47,11.44,1.87,17.36-4.11-.63-7.52-1.43-10.07-2.11-.72-.19-5.04-1.37-9.7-3.65-1.09-.54-2.49-1.27-3.81-2.73-.55-.61-1.62-1.82-2.18-3.65-.46-1.52-.16-2.13-.56-4.44-.23-1.32-.54-2.37-.76-3.01Z"/>
        <g>
          <path class="cls-16" d="M105,191.36c.45-.22,.99-.46,1.61-.7"/>
          <path class="cls-18" d="M111.32,189.44c2.17-.33,5.11-.42,8.16,.94,1.11,.5,4.44,1.98,6.26,5.77,.81,1.69,1.09,3.34,1.12,4.77"/>
          <path class="cls-16" d="M126.66,203.35c-.15,.82-.34,1.42-.43,1.71"/>
        </g>
        <path class="cls-43" d="M174.29,207.16c-.88-.83-3.99-3.94-4.5-8.95-.04-.35-.63-7.43,4.89-12.14,4.86-4.14,11.84-4.23,16.64-1.37,2.51,1.5,3.99,3.54,4.77,4.87-1.78,2.63-4.32,5.83-7.85,8.97-5.14,4.57-10.3,7.16-13.95,8.63Z"/>
        <g>
          <path class="cls-16" d="M176.05,202.42c-.29-.33-.68-.8-1.06-1.41"/>
          <path class="cls-1" d="M173.7,196.71c-.11-3.79,2.36-6.6,2.59-6.85,2.74-3.03,6.42-3.25,7.57-3.26,1.71-.02,3.18,.38,4.37,.9"/>
          <path class="cls-16" d="M190.19,188.61c.71,.5,1.17,.94,1.36,1.12"/>
        </g>
        <path class="cls-42" d="M115.29,163.96c-1.57,.45-3.87,1.37-5.61,3.45-4.91,5.85-3.07,18.05,4.05,21.14,3.63,1.58,8.66,.79,11.75-2.22,2.85-2.78,3.13-6.41,3.28-8.37,.35-4.66-1.54-8.19-2.41-9.59-1.11-1.78-2.37-3.02-3.28-3.8-2.59-.2-5.18-.41-7.76-.61Z"/>
        <path class="cls-42" d="M171.41,161.53c-1.24,1.81-2.67,4.5-3.18,7.96-.3,2.01-.95,8.67,3.52,13.7,1.12,1.26,3.09,3.48,6.14,3.81,5.73,.63,9.8-6.01,10.05-6.42,3.46-5.84,1.18-12.23,.65-13.7-1.1-3.06-2.8-5.19-3.92-6.39-1.88-.05-3.93-.02-6.13,.13-2.61,.18-5,.51-7.13,.91Z"/>
        <path class="cls-12" d="M118.09,166.76c.03,.84,.01,3.36-1.7,5.81-1.44,2.06-3.3,2.98-4.11,3.33,1.31,.34,2.88,1,4.11,2.35,2.59,2.86,2.21,7.26,2.54,7.24,.32-.02-.46-4.02,1.57-7.24,.99-1.57,2.37-2.53,3.52-3.13-.78-.25-2.49-.93-3.92-2.61-1.98-2.34-2.03-5.01-2.02-5.74Z"/>
        <path class="cls-12" d="M178.85,163.49c.03,.84,.01,3.36-1.7,5.81-1.44,2.06-3.3,2.98-4.11,3.33,1.31,.34,2.88,1,4.11,2.35,2.59,2.86,2.21,7.26,2.54,7.24,.32-.02-.46-4.02,1.57-7.24,.99-1.57,2.37-2.53,3.52-3.13-.78-.25-2.49-.93-3.92-2.61-1.98-2.34-2.03-5.01-2.02-5.74Z"/>
        <path class="cls-44" d="M91.89,166.11c1.37,11.3,3.2,14.34,4.7,16.18,1.38,1.7,3.29,3.39,4.7,6.79,1.56,3.78,.81,5.62,1.57,8.09,1.81,5.93,10.11,8.43,16.18,10.18,7.06,2.03,13.84,2.76,24.79,2.61,16.82-.22,25.22-.33,32.62-3.65,11.89-5.33,18.32-14.7,20.88-18.53,11.85-17.74,12.35-41.17,5.22-59.51-7.71-19.83-28.92-45.45-58.46-43.59-31.73,2-50.05,34.25-52.98,52.98-1.5,9.61,.02,22.19,.78,28.45Z"/>
        <path class="cls-27" d="M141.4,192.57c.08,.19,.8,1.84,2.58,2.28,1.51,.37,3.15-.29,4.1-1.67,.91,1.25,2.43,1.9,3.95,1.67,2.29-.35,3.17-2.48,3.21-2.57"/>
        <path class="cls-30" d="M163.27,162.84c-.31-.68,4.27-3.59,7.05-4.96,4.12-2.02,12.67-4.76,27.27,0-.3,1.52-.61,3.04-.91,4.57-4.9-1.36-9.04-1.81-12.01-1.96-7.82-.38-14.52,1.01-15.27,1.17-3.56,.76-5.92,1.64-6.13,1.17Z"/>
        <path class="cls-30" d="M96.37,165.52c1.79-1.37,3.9-2.64,6.37-3.61,12.57-4.92,25.06,1.71,28.01,3.37-6.59-1.29-12.1-1.34-15.99-1.12-8.19,.46-11.41,2.25-12.88,3.2-2.17,1.4-3.66,3.02-4.6,4.2-.3-2.01-.6-4.03-.9-6.04Z"/>
        <path class="cls-16" d="M117.45,155.34c1.48,.03,3.37,.21,5.48,.78,1.45,.39,2.69,.89,3.72,1.37"/>
        <path class="cls-16" d="M165.84,155.34c1.06-.76,2.36-1.58,3.92-2.35,1.42-.7,2.75-1.2,3.92-1.57"/>
      </g>
      <path class="cls-34" d="M117.23,109.5c-3.37,4.92-6.89,10.66-10.27,17.2-3.52,6.82-6.24,13.26-8.35,19.05,0,0-7.97,23.49-.78,58.72,.5,2.45,1.69,7.57,5.48,10.7,1.91,1.58,3.98,3.29,6.26,3.39,.07,0,1.51,.07,3.2,.72,1.42,.55,1.54,.94,1.57,1.04,.16,.71-.91,1.68-2.54,2.48,2.36,.21,4.09,1.09,4.24,2.15,.19,1.32-2.13,2.56-3.2,3.13-4.78,2.56-9.78,1.66-10.57,1.5-5.2-1.02-8.43-4.25-9.59-5.55-2.3,.39-6.48,.73-11.03-1.11-7.68-3.1-10.76-10.14-11.55-11.94-1.23-2.81-1.62-5.2-1.76-6.26-4-29.04,2.54-53.24,2.54-53.24,5.98-22.12,16.25-60.07,48.74-75.95,5.77-2.82,10.72-4.22,13.51-4.89,3.09-.74,25.97-5.91,47.44,5.94,13.49,7.45,19.77,17.94,27.93,31.58,11.41,19.08,14.48,38.64,20.62,77.78,.27,1.7,.92,6.09,0,11.61-2.35,14.17-12.97,23.6-20.1,26.36-2.5,.97-5.58,2.16-8.48,.91-2.06-.89-2.75-2.45-4.7-2.35-1.9,.1-2.56,1.67-4.83,1.7-1.22,.02-1.49-.43-2.87-.78-3.82-.97-5.3,1.57-9,.82-1.9-.39-4.26-1.62-4.37-3.16-.06-.91,.64-2.35,1.69-3.28,0,0,.06-.06,.14-.12,1.65-1.35,4.13-1.55,4.31-1.57,3.18-.27,7.14-4.89,7.76-5.61,2.53-2.94,3.25-6.31,3.91-12.27,.93-8.32,1.85-16.45,.52-29.49-.55-5.38-1.28-9.77-1.83-12.66-9-1.85-13.88-5.5-16.7-8.74-1.48-1.7-4.25-5.42-5.09-4.96-.78,.43,1.09,3.98-.52,5.61-.73,.74-1.96,.89-2.87,.65-2.45-.63-3.25-4.22-3.78-4.05-.42,.14,.3,2.32-.26,5.48-.35,1.99-.92,2.71-1.17,3-.97,1.09-2.25,1.38-3.13,1.57-.5,.1-3.16,.62-6.52-.91-3.12-1.42-4.27-3.42-4.96-3-1.01,.61,1.4,4.97-.13,6.26-.7,.59-1.89,.26-3.26-.13-2.35-.66-3.93-1.8-5.22-2.74-3.92-2.87-5.88-4.31-6.13-4.57-4.09-4.21-4.69-9.06-5.48-8.87-1.04,.24,.66,8.4-1.57,9.27-.61,.24-1.34-.14-2.09-.52-1.18-.6-1.76-1.46-2.87-3.13-.49-.74-1.38-2.19-2.18-4.23,0,0-.31-.8-.56-1.64-1.65-5.43-1.83-11.88-1.83-11.88-.23-8.36,1.73-16.67,2.31-19.03Z"/>
      <g>
        <path class="cls-17" d="M169.55,91.35c.44,.34,.9,.71,1.37,1.1"/>
        <path class="cls-41" d="M174.6,95.67c4.21,3.93,9.05,9.33,13.36,16.43,5.31,8.75,7.98,17.06,9.37,23.28"/>
        <path class="cls-17" d="M197.82,137.77c.12,.6,.22,1.18,.31,1.73"/>
      </g>
      <g>
        <path class="cls-17" d="M208.23,161.93c-.01,.6-.01,1.19,0,1.76"/>
        <path class="cls-22" d="M208.53,169.09c.51,4.82,1.56,8.58,2.57,11.37,.69,1.89,2.35,6.08,4.44,12.53,1.18,3.66,1.8,5.9,1.83,8.87,.02,2.43,.05,5.67-1.83,8.61-1.7,2.67-4.33,4.1-6.6,4.86"/>
        <path class="cls-17" d="M206.32,216.01c-.84,.15-1.47,.2-1.74,.22"/>
      </g>
      <g>
        <path class="cls-17" d="M217.63,173.16c.18,.57,.35,1.13,.52,1.69"/>
        <path class="cls-3" d="M219.47,179.36c1.38,4.83,2.49,9.15,3.37,12.85,.91,3.8,1.64,7.21,.78,11.48-.29,1.47-.73,2.79-1.21,3.95"/>
        <path class="cls-17" d="M221.4,209.75c-.31,.57-.62,1.07-.9,1.51"/>
      </g>
      <g>
        <path class="cls-17" d="M92.67,224.05c-.34-.45-.68-.93-1.03-1.43"/>
        <path class="cls-8" d="M88.61,217.5c-1.14-2.26-1.99-4.43-2.63-6.42"/>
        <path class="cls-17" d="M85.17,208.22c-.15-.6-.28-1.17-.39-1.72"/>
      </g>
      <g>
        <path class="cls-17" d="M185.07,223.27c.5-.11,1.07-.26,1.7-.46"/>
        <path class="cls-19" d="M191.19,220.93c.75-.41,1.52-.89,2.29-1.45,4.42-3.17,6.48-7.03,7.44-8.87,1.27-2.45,2.01-4.8,2.45-6.83"/>
        <path class="cls-17" d="M203.77,201.4c.08-.64,.13-1.23,.16-1.75"/>
      </g>
      <g>
        <path class="cls-17" d="M169.47,142.36c-.37-.43-.74-.89-1.11-1.37"/>
        <path class="cls-39" d="M164.87,136c-.07-.12-.15-.24-.22-.37-1.25-2.05-2.27-4.04-3.12-5.91"/>
        <path class="cls-17" d="M160.35,126.91c-.22-.57-.42-1.12-.6-1.65"/>
      </g>
      <g>
        <path class="cls-17" d="M126.01,140.66c-.18-.54-.36-1.1-.53-1.68"/>
        <path class="cls-36" d="M124.37,134.66c-.13-.61-.26-1.23-.38-1.86-.73-3.9-1.01-7.51-1.04-10.69"/>
        <path class="cls-17" d="M122.97,119.88c.02-.61,.04-1.19,.07-1.76"/>
      </g>
      <g>
        <path class="cls-17" d="M166.97,112.53c.42,.39,.84,.8,1.27,1.22"/>
        <path class="cls-15" d="M171.84,117.52c2.62,2.93,5.34,6.38,7.92,10.4,6.03,9.39,9.15,18.48,10.84,25.48"/>
        <path class="cls-17" d="M191.17,155.95c.12,.6,.24,1.17,.34,1.73"/>
      </g>
      <g>
        <path class="cls-17" d="M113.18,97.61c-.35,.46-.7,.92-1.05,1.41"/>
        <path class="cls-32" d="M109.19,103.16c-3.93,5.82-8.11,13.11-11.68,21.85-3.36,8.24-5.42,15.88-6.69,22.38"/>
        <path class="cls-17" d="M90.37,149.9c-.1,.59-.2,1.17-.29,1.74"/>
      </g>
      <path class="cls-23" d="M146.24,150.71c-1.38-1-2.95-2.31-4.5-4.01-2.69-2.94-4.31-5.91-5.29-8.12"/>
      <path class="cls-23" d="M162.29,144.58c-.07-.74-.21-1.62-.49-2.58-.43-1.49-1.04-2.67-1.57-3.52"/>
      <path class="cls-27" d="M117.23,109.5c-3.37,4.92-6.89,10.66-10.27,17.2-3.52,6.82-6.24,13.26-8.35,19.05,0,0-7.97,23.49-.78,58.72,.5,2.45,1.69,7.57,5.48,10.7,1.91,1.58,3.98,3.29,6.26,3.39,.07,0,1.51,.07,3.2,.72,1.42,.55,1.54,.94,1.57,1.04,.16,.71-.91,1.68-2.54,2.48,2.36,.21,4.09,1.09,4.24,2.15,.19,1.32-2.13,2.56-3.2,3.13-4.78,2.56-9.78,1.66-10.57,1.5-5.2-1.02-8.43-4.25-9.59-5.55-2.3,.39-6.48,.73-11.03-1.11-7.68-3.1-10.76-10.14-11.55-11.94-1.23-2.81-1.62-5.2-1.76-6.26-4-29.04,2.54-53.24,2.54-53.24,5.98-22.12,16.25-60.07,48.74-75.95,5.77-2.82,10.72-4.22,13.51-4.89,3.09-.74,25.97-5.91,47.44,5.94,13.49,7.45,19.77,17.94,27.93,31.58,11.41,19.08,14.48,38.64,20.62,77.78,.27,1.7,.92,6.09,0,11.61-2.35,14.17-12.97,23.6-20.1,26.36-2.5,.97-5.58,2.16-8.48,.91-2.06-.89-2.75-2.45-4.7-2.35-1.9,.1-2.56,1.67-4.83,1.7-1.22,.02-1.49-.43-2.87-.78-3.82-.97-5.3,1.57-9,.82-1.9-.39-4.26-1.62-4.37-3.16-.06-.91,.64-2.35,1.69-3.28,0,0,.06-.06,.14-.12,1.65-1.35,4.13-1.55,4.31-1.57,3.18-.27,7.14-4.89,7.76-5.61,2.53-2.94,3.25-6.31,3.91-12.27,.93-8.32,1.85-16.45,.52-29.49-.55-5.38-1.28-9.77-1.83-12.66-9-1.85-13.88-5.5-16.7-8.74-1.48-1.7-4.25-5.42-5.09-4.96-.78,.43,1.09,3.98-.52,5.61-.73,.74-1.96,.89-2.87,.65-2.45-.63-3.25-4.22-3.78-4.05-.42,.14,.3,2.32-.26,5.48-.35,1.99-.92,2.71-1.17,3-.97,1.09-2.25,1.38-3.13,1.57-.5,.1-3.16,.62-6.52-.91-3.12-1.42-4.27-3.42-4.96-3-1.01,.61,1.4,4.97-.13,6.26-.7,.59-1.89,.26-3.26-.13-2.35-.66-3.93-1.8-5.22-2.74-3.92-2.87-5.88-4.31-6.13-4.57-4.09-4.21-4.69-9.06-5.48-8.87-1.04,.24,.66,8.4-1.57,9.27-.61,.24-1.34-.14-2.09-.52-1.18-.6-1.76-1.46-2.87-3.13-.49-.74-1.38-2.19-2.18-4.23,0,0-.31-.8-.56-1.64-1.65-5.43-1.83-11.88-1.83-11.88-.23-8.36,1.73-16.67,2.31-19.03Z"/>
    </g>
    <path class="cls-38" d="M140.06,209.97c.51,.76,1.11,1.9,1.39,3.36,.11,.61,.15,1.17,.15,1.66"/>
    <path class="cls-38" d="M156.38,209.71c.02,.76,.1,1.72,.37,2.8,.26,1.05,.62,1.92,.95,2.59"/>
  </g>
  <path class="cls-51" d="M220.81,152.16c3.26-2.62,7.76-5.65,13.55-8.07,11.35-4.73,21.64-4.6,27.36-4.07-1.27-9.3-4.05-22.94-10.78-38.17-5.03-11.38-19.69-44.56-55.12-62.22-7.66-3.82-23.94-11.69-45.68-10.41-15.09,.89-26.02,5.79-31.64,8.38-29.75,13.69-45.08,38.98-53.51,52.89-9.52,15.71-15.99,32.95-17.7,37.63-1.78,4.87-3.09,8.98-3.97,11.86,2.61-.67,6.69-1.34,11.55-.59,9.1,1.41,14.85,6.86,16.86,8.96,1.73-8.76,6.95-29.69,22.78-46.51,7.6-8.08,15.66-13.08,18.08-14.54,5.8-3.49,11.68-6.95,20.27-8.3,7.12-1.12,12.74-.28,14.78,.08,1.88,.33,8.66,1.65,16.2,6.32,4.98,3.09,8.15,6.31,10.18,8.41,12.25,12.63,18.38,18.95,24.38,26.47,6.44,8.08,14.28,18.71,22.39,31.87Z"/>
  <path class="cls-27" d="M43.32,139.99c2.38-8.24,6.1-18.14,11.82-30.04,11.07-23.06,16.61-34.58,28.19-46.46,7.36-7.55,35.33-35.91,75.22-34.45,50.73,1.86,80.37,51.03,85.66,59.83,10.49,17.44,14.58,34.48,17.68,51.13,.53,2.87,1.04,5.73,1.54,8.58"/>
  <path class="cls-48" d="M206.68,53.06c-1.68,9.73,3.97,17.37,6.94,21.39,3.19,4.31,12.49,16.9,26.53,15.45,12.7-1.31,19.16-13.06,19.49-13.69,6.59-12.47-.11-24.95-1.16-26.89-.66-1.23-8.11-14.55-23.19-16.1-3.25-.33-12.63-.71-20.43,5.98-1.5,1.29-6.84,6.02-8.19,13.86Z"/>
  <path class="cls-53" d="M224.78,51.47c1.17-1.22,3.86-3.54,7.73-3.92,6.13-.6,12.04,4,14.15,9.71,1.58,4.28,1.62,10.83-2.95,14.99-5.28,4.8-12.49,2.59-12.94,2.45-5.57-1.8-8.98-6.96-9.58-12-.11-.95-.7-6.77,3.59-11.24Z"/>
  <path class="cls-7" d="M213.22,58.95c.42,3.98,2.01,6.63,3.88,9.75,1.81,3.02,4.58,7.64,10.18,11.22,2.94,1.88,6.4,4.09,11.22,3.92,6.55-.24,10.78-4.72,11.75-5.74,4.72-5,5.11-11.03,5.22-13.31,.37-7.5-3.17-12.88-4.7-15.14-1.83-2.7-5.33-7.86-12.27-9.92-8.02-2.38-14.69,1.14-15.92,1.83-1.72,.95-5.56,3.15-7.83,7.83-2.04,4.21-1.68,8.1-1.53,9.57Z"/>
  <path class="cls-48" d="M77.91,80.71c5.2-6.7,6.17-8.99,8.49-11.88,6.49-8.08,12.16-6.57,14.61-13.24,.22-.59,1.72-4.85,0-9.33-3.27-8.5-14.97-9.62-15.85-9.7-10.93-.9-18.48,7.31-19.9,8.86-6.69,7.27-7.22,15.88-7.38,18.63-.11,1.75-.26,6.6,1.81,12.17,1.25,3.37,2.69,7.24,6.43,8.81,2.7,1.13,5.25,.51,5.72,.38,2.97-.78,4.71-2.95,6.07-4.7Z"/>
  <path class="cls-24" d="M65.58,52.52c-1.25,2.07-3.08,5.13-3.72,9.59-.83,5.82,.92,10.27,1.76,12.33,1.37,3.37,2.62,6.43,4.94,6.81,2.56,.43,5.02-2.55,7.98-6.23,4.83-6.01,3.4-7.12,6.85-10.77,4.11-4.34,7.17-3.85,11.55-9.4,2.21-2.8,2.41-4.16,2.35-5.09-.25-4.08-5.87-6.52-7.05-7.05-4.18-1.89-8.04-1.3-9.98-.98-1.08,.18-5.31,.98-9.4,4.31-2.75,2.24-4.16,4.59-5.29,6.46Z"/>
  <path class="cls-53" d="M70.28,68.38c-1.85-.71-2.1-6.35-.39-10.77,1.89-4.88,6.65-9.58,11.94-9.59,2.53,0,5.74,1.05,6.07,2.74,.23,1.21-1.08,2.44-3.13,4.31-2.84,2.59-3.43,2.11-5.29,3.92-2.75,2.68-2.2,4.44-5.29,7.24-1.35,1.23-2.83,2.57-3.92,2.15Z"/>
  <path class="cls-50" d="M220.81,152.16c3.95-3.16,11.16-8.07,21.39-10.67,8.02-2.04,14.94-1.92,19.52-1.46,2.06,8.72,3.21,16.17,3.89,21.79,1.11,9.25,1.65,13.99,.58,19.43-2.08,10.61-7.8,17.3-9.09,18.75-3.6,4.06-7.27,6.39-10.25,8.13-14.42,8.43-31.74,14.24-40.93,17.06,4.33-1.99,11.33-5.95,17.41-13.39,2.45-3,6.77-8.4,8.76-16.68,2.13-8.88,.37-16.06-.92-21.3-2.28-9.31-6.52-16.55-10.37-21.64Z"/>
  <path class="cls-50" d="M43.32,139.99c2.6-.67,7.71-1.6,13.83-.15,7.88,1.86,12.74,6.56,14.58,8.53-1.67,6.38-3.14,13.77-3.96,22.04-1.48,14.89-.37,27.8,1.3,37.76-3.81-1.12-11.66-4-18.39-11.36-6.97-7.63-8.88-15.84-9.96-20.51-2.35-10.14-1.05-18.6-.15-24.44,.76-4.96,1.86-9.02,2.76-11.86Z"/>
  <path class="cls-27" d="M71.98,147.03c1.83-8.38,4.37-14.87,6.31-19.17,17.24-38.18,52.33-48.44,54.57-48.85,2.03-.37,4.04-.53,4.04-.53,.97-.08,2.05-.13,3.25-.13,22.55,.05,38.32,18.55,58.25,41.93,8.25,9.67,13.87,17.95,24.12,35.12,4.54,7.61,8.54,14.96,10.04,24.74,.99,6.45,.41,10.84-.15,13.52-1.29,6.18-3.94,10.39-5.57,12.9-6.97,10.81-17.13,16.61-22.64,19.25,12.97-4.07,23.42-8.32,30.99-11.68,9.96-4.43,14.02-6.77,18.02-10.41,2.25-2.04,9.56-8.84,12.19-18.76,1.02-3.86,1.28-7.97,1.31-8.49,.24-4.11-.14-7.23-.4-9.25-.43-3.28-2.07-13.47-4.46-27.24"/>
  <path class="cls-28" d="M164.24,29.46c-4.39,4.52-9.84,11.09-14.57,19.94-6.07,11.36-8.48,21.86-9.51,28.97"/>
  <path class="cls-48" d="M135.55,65.78c-.8-1.5-1.46-2.74-1.03-3.97,1.05-3.03,7.61-2.97,9.37-2.95,2.75,.03,7.98,.08,8.95,2.72,1.1,3-4.13,7.06-4.49,7.34-1.42,1.09-3.41,2.6-6.04,2.37-4-.35-6.17-4.42-6.75-5.52Z"/>
</svg>