<?xml version="1.0" encoding="UTF-8"?>
<svg id="CharacterBack" xmlns="http://www.w3.org/2000/svg" viewBox="0 0 640 640">
  <defs>
    <style>
      .cls-1, .cls-2, .cls-3, .cls-4, .cls-5, .cls-6, .cls-7, .cls-8, .cls-9 {
        stroke: #000;
      }

      .cls-1, .cls-3 {
        fill: #f5e3d9;
        stroke-miterlimit: 10;
      }

      .cls-1, .cls-9 {
        stroke-width: 2.64px;
      }

      .cls-10 {
        fill: #d3a7a7;
      }

      .cls-11, .cls-2, .cls-12, .cls-4, .cls-13, .cls-14, .cls-5, .cls-6, .cls-15, .cls-16, .cls-17, .cls-7, .cls-18, .cls-19, .cls-20, .cls-8, .cls-21, .cls-9 {
        stroke-linecap: round;
        stroke-linejoin: round;
      }

      .cls-11, .cls-12, .cls-13, .cls-14, .cls-5, .cls-6, .cls-15, .cls-17, .cls-18, .cls-19, .cls-20, .cls-21, .cls-9 {
        fill: none;
      }

      .cls-11, .cls-12, .cls-14, .cls-15, .cls-19 {
        stroke-width: 2px;
      }

      .cls-11, .cls-15 {
        stroke: #bc695c;
      }

      .cls-2 {
        fill: #995b5b;
      }

      .cls-2, .cls-3, .cls-4, .cls-13, .cls-5, .cls-6, .cls-16, .cls-17, .cls-7, .cls-18, .cls-20, .cls-8, .cls-21 {
        stroke-width: 2.5px;
      }

      .cls-22 {
        fill: #ddc7bc;
      }

      .cls-12 {
        stroke-dasharray: 0 0 3.64 5.46;
      }

      .cls-12, .cls-14, .cls-19 {
        stroke: #d3a7a7;
      }

      .cls-4 {
        fill: #ed8383;
      }

      .cls-23, .cls-16, .cls-7 {
        fill: #f4f3e7;
      }

      .cls-13 {
        stroke-dasharray: 0 0 3.25 4.88;
      }

      .cls-13, .cls-16, .cls-17, .cls-18, .cls-20, .cls-21 {
        stroke: #5b523e;
      }

      .cls-14, .cls-6, .cls-16, .cls-18 {
        stroke-dasharray: 0 0 3.52 5.29;
      }

      .cls-15 {
        stroke-dasharray: 0 0 2.4 3.2;
      }

      .cls-17 {
        stroke-dasharray: 0 0 3.69 5.54;
      }

      .cls-20 {
        stroke-dasharray: 0 0 3.37 5.05;
      }

      .cls-8, .cls-24 {
        fill: #eacb94;
      }
    </style>
  </defs>
  <path class="cls-8" d="M258.07,590.57c-.12-1.34-.17-3.32,.24-5.64,.27-1.53,2.91-15.46,14.32-17.62,8.1-1.53,16.02,3.75,19.09,10.3,1.41,3,1.6,5.86,1.55,7.73,2.68,3.72,5.36,7.44,8.04,11.15,.13,.28,.27,.63,.37,1.05,.09,.39,.13,.75,.14,1.04-.18,1.84-.36,3.68-.54,5.52-1.8,1.66-6.39,5.41-13.32,6.38-10.85,1.53-18.72-4.95-20.01-6.05-3.29-4.62-6.58-9.25-9.87-13.87Z"/>
  <path class="cls-8" d="M319.03,594.85c.2,1.9,.98,6.83,4.87,11.26,5.15,5.86,12.06,6.67,14.3,6.77,7.41,.31,14.41-2.36,16.58-6.41,1.47-3.76,2.95-7.53,4.42-11.29,.82-2.33,2.19-7.33,.58-13.06-2.4-8.52-10.67-16.05-21.04-16-10.47,.05-19.11,7.83-21,16.75-1.12,5.28,.37,9.8,1.28,11.99Z"/>
  <path class="cls-18" d="M354.45,591.59c-.07,1.07-.58,7.41-5.93,11.56-.94,.73-4.33,3.28-9.19,3.11-5.85-.2-9.45-4.17-10.37-5.19-3.36-3.71-3.99-7.91-4.15-9.48"/>
  <path class="cls-5" d="M356.08,587.89c-2.86-6.34-9.01-10.54-15.85-10.81-7.35-.3-14.24,3.99-17.33,10.81"/>
  <g>
    <path class="cls-21" d="M296.89,598.03c-.34,.31-.79,.71-1.35,1.13"/>
    <path class="cls-20" d="M291.12,601.56c-.82,.29-1.71,.53-2.67,.69-5.83,.96-10.38-1.75-12.67-3.11-2.13-1.27-3.82-2.74-5.15-4.17"/>
    <path class="cls-21" d="M269.01,593.03c-.38-.51-.72-.99-1.01-1.44"/>
  </g>
  <path class="cls-5" d="M263.6,589.51c.4-1.36,1.05-3.21,2.18-5.25,1.05-1.9,4.79-8.7,10.3-10.03,5.65-1.36,12.96,3.08,17.18,11.11"/>
  <g>
    <path class="cls-5" d="M338.75,569.26v1.76"/>
    <path class="cls-5" d="M338.75,575.6v1.76"/>
  </g>
  <path class="cls-7" d="M359.3,587.84c2.16-.58,3.59-4.5,2.63-7.66-.98-3.24-4.21-4.5-4.67-4.67,.39-3.2-1.4-6.23-4.22-7.33-3.2-1.25-7.04,.24-8.67,3.56,.18-3.03-2.04-5.66-4.89-6-2.61-.31-5.18,1.36-6,4-1.44-2.12-4.16-2.95-6.44-2-2.1,.87-3.42,3.06-3.23,5.39-2.03-.7-4.28-.1-5.66,1.5-1.47,1.7-1.67,4.2-.48,6.15-.33,.01-2.44,.13-3.74,1.85-1.44,1.9-.87,4.62,.44,6.22,1.22,1.5,2.94,1.84,3.48,1.93,3.49-.14,5.84-2.33,5.85-4.37,0-1.47-1.21-2.58-1.64-2.94,.63-.27,1.6-.78,2.53-1.73,1.19-1.21,1.7-2.52,1.92-3.22,.72,.09,2.3,.18,4.08-.56,1.78-.73,2.83-1.9,3.28-2.47,.65,.65,1.71,1.5,3.16,1.81,2.59,.55,3.86-1.16,6-.44,1.72,.58,1.65,1.94,3.56,3.11,1.89,1.17,4.05,1.11,5.56,.89,1.53,4.98,4.98,7.58,7.14,7Z"/>
  <path class="cls-7" d="M294,580.8c1.72-1.68,2.38-4.13,1.69-6.33-.82-2.62-3.44-4.42-6.37-4.3-.1-2.6-1.75-4.85-4.09-5.64-2.68-.9-5.77,.27-7.27,2.87-1.36-1.82-3.59-2.66-5.53-2.11-2.52,.7-4.24,3.65-3.45,6.69-1.54-1.14-3.51-1.4-5-.61-2.07,1.1-3.03,4.15-1.63,6.81-1.88,.16-3.54,1.06-4,2.37-.66,1.89,1.05,4.97,4.71,5.78,.59-.28,2.09-1.07,3.14-2.82,.94-1.55,1.03-3.04,1.04-3.7,.14,.03,2.25,.38,3.7-1.19,1.18-1.27,1.06-2.86,1.04-3.11,.58,.08,2.07,.2,3.7-.59,1.53-.74,2.35-1.87,2.67-2.37,.83,.64,2.22,1.54,4.15,2.07,1.48,.41,2.78,.48,3.7,.44,.39,.83,1.25,2.38,2.96,3.7,1.94,1.5,3.91,1.9,4.83,2.03Z"/>
  <path class="cls-3" d="M354.79,500.66c-1.2,4.68-2.19,9.4-3.33,14.1-.19,.77-.55,2.31-.88,4.34-.26,1.6-.44,3.12-.55,4.53,.27,8.42,.41,17.09,.39,25.97-.03,14.18-.46,27.8-1.2,40.83,.41,.97,.85,2.44,.62,4.15-.6,4.36-5.38,8.44-10.37,7.81-4.09-.52-6.73-4.01-7.7-6.81-.61-1.77-.61-3.36-.51-4.39-2.37-18.33-3.5-26.44-4.06-30.1-.09-.57-.39-2.53-.73-5.17-.33-2.64-.61-5.35-.89-8.65-.49-5.73-.58-14.1,1.56-24.68-.02-1.54,0-3.13,.06-4.76,.2-5.66,.87-10.87,1.77-15.54,1.07-8.58,2.13-17.16,3.2-25.75,1.47-7.38,8.38-12.02,14.84-10.86,5.29,.95,9.59,5.66,10.27,11.6-.16,11.87-1.36,19-2.48,23.39Z"/>
  <path class="cls-3" d="M306,502.79c-.46,2.77-1.33,6.83-3.08,11.52-1.45,3.87-2.71,6.07-3.72,8.22-3.05,6.49-3.51,11.95-4.31,18.79-1.08,9.19-2.73,20.55-5.07,35.27,.25,3.27,.5,6.54,.76,9.81,.47,1.31,1.9,5.68-.15,8-3.18,3.6-12.11-.68-13.48-1.33-5.48-2.62-8.73-6.71-10.37-9.19,.41-.84,.92-1.76,1.55-2.7,1.33-1.98,2.79-3.45,4.03-4.5-.05-12.09,.06-21.93,.09-28.96,.02-3.88,.06-9.99,1.72-17.95,.11-.51,.21-.96,.3-1.36,1.89-8,4.81-14.2,7.04-18.25,.48-.82,.96-1.78,1.38-2.88,.91-2.36,1.21-4.51,1.3-6.14-.15-7.31-.3-14.61-.45-21.92,1.1-5.6,5.58-9.79,10.8-10.34,6.19-.65,12.32,3.92,13.54,10.7-.63,7.74-1.26,15.48-1.89,23.22Z"/>
  <g>
    <path class="cls-11" d="M343.32,525.36c-.17-.16-.52-.48-1.03-.82"/>
    <path class="cls-15" d="M339.34,523.37c-.24-.04-.5-.07-.76-.08-1.23-.07-2.3,.17-3.17,.52"/>
    <path class="cls-11" d="M333.99,524.54c-.55,.36-.91,.69-1.04,.81"/>
  </g>
  <g>
    <path class="cls-11" d="M294.14,521.03c-.11-.21-.33-.63-.7-1.12"/>
    <path class="cls-15" d="M291.06,517.82c-.22-.12-.44-.23-.69-.33-1.14-.48-2.23-.61-3.16-.57"/>
    <path class="cls-11" d="M285.62,517.14c-.64,.16-1.09,.34-1.25,.42"/>
  </g>
  <g>
    <path class="cls-8" d="M434.66,305.52c-2.19,4.14-4.65,9.98-5.91,17.26-2.41,13.85,.84,25.19,2.92,30.86-.86,3.83-1.54,8.78-1.19,14.52,.79,12.89,6.29,22.33,9.48,26.96-1.25,6.02-1,11-.59,14.22,.54,4.21,1.51,11.91,7.43,18.64,1.61,1.83,4.68,5.34,9.76,7.13,7.68,2.71,14.72-.23,23.41-3.85,10.83-4.52,17.68-6.94,20.74-13.63,2.22-4.86,1.3-9.58,.3-15.11-1.77-9.79-6.16-16.93-9.19-21.04,.05-4.43-.43-11.72-3.74-19.93-3.87-9.59-9.72-15.76-13.14-18.88-2.61-9.18-5.92-16.16-8.45-20.82-5.44-10.04-11.53-17.15-18.37-25.12-4.14-4.83-7.74-8.64-10.2-11.16-1.12-1.15-2.24-2.31-3.36-3.47"/>
    <path class="cls-7" d="M446.48,429.31c-.9-3.84,.84-7.79,4.16-9.61,2.98-1.63,6.73-1.28,9.48,.89-1.22-5.07,1.13-10.33,5.63-12.74,4.74-2.54,10.76-1.32,14.22,2.96-.87-3.52,.69-7.09,3.56-8.59,3.45-1.81,8.22-.34,10.23,3.66,.29-.62,1.68-3.45,4.58-4.25,3.48-.96,7.86,1.34,9.78,5.93,3.38,.79,6.14,3.08,6.99,6.06,1.23,4.29-1.58,9.59-6.99,11.42,3.16,3.95,2.94,9.52-.19,12.88-3.58,3.85-10.22,4.03-14.33-.14,1.32,4.8-.83,9.86-5.04,12.15-4.56,2.47-10.47,1.13-13.63-3.26-1.36,4.23-5.33,7.12-9.78,7.11-4.44,0-8.4-2.9-9.76-7.13-5.54,2.54-11.89-.19-13.77-5.21-1.62-4.31,.33-9.62,4.85-12.13Z"/>
    <path class="cls-5" d="M461.22,435.91c3.07-3.2,8.71-8.25,17.19-11.85,8.03-3.42,15.2-4.08,19.56-4.15"/>
    <path class="cls-1" d="M466.7,430.97c4.42,4.27,10.97,5.53,16.65,3.2,5.67-2.32,9.45-7.8,9.61-13.93-3.73,.42-8.86,1.4-14.56,3.83-5.05,2.15-8.95,4.75-11.71,6.91Z"/>
    <path class="cls-18" d="M431.67,353.64c.78-2.08,3.09-7.35,8.74-11.26,7.29-5.05,14.99-4.25,16.89-4"/>
    <path class="cls-18" d="M491.82,381.49c-2.94-1.46-9.31-4.11-17.63-3.56-11.2,.75-18.58,6.82-20.89,8.89"/>
  </g>
  <g>
    <path class="cls-24" d="M277.82,325.45c-2.26,7.09-4.47,12.46-5.72,15.52-.64,1.57-1.33,3.18-2.1,4.91-10.11,22.8-17,38.47-23.22,44.96-.65,.68-3.01,3.02-3.09,6.25-.06,2.35,1.1,4.03,2.63,6.49,1.5,2.43,3.58,5.98,5.86,10.62v8.59c7.97,2.59,18.59,5.52,31.31,7.63,11.66,1.93,27.81,4.53,48.44,2.44,10.08-1.02,24.35-3.47,40.75-9.8-.13-3-.26-5.99-.39-8.99,1.07-.42,2.75-1.28,3.63-2.99,1.34-2.6,.06-5.7-.22-6.44-1.47-3.84,.94-2.35-3.56-43.78-.35-3.26-.68-6.2-1.02-9.09-1.82-15.57-2-17.98-2.74-21.81-.61-3.18-1.67-7.93-3.55-13.67,1.37-2.79,3.36-7.81,3.26-14.22-.2-12.16-7.82-20.17-9.9-22.36-11.85-12.47-28.73-12.07-33.14-12.01-19.77,.28-32.26,12.28-34.75,14.78-1.26,.86-10.37,7.3-10.84,18.26-.2,4.57,1.18,8.24,2.24,10.4-1.29,5.63-2.67,10.43-3.9,14.27Z"/>
    <path class="cls-5" d="M273.2,377.31c.66,.81,1.41,1.84,2.11,3.12,.68,1.25,1.14,2.41,1.46,3.39"/>
    <path class="cls-8" d="M281.71,311.18c-3.45,15.18-8.05,26.78-11.71,34.71-12.24,26.54-18.32,39.85-23.22,44.96-.65,.68-3.01,3.02-3.09,6.25-.06,2.35,1.1,4.03,2.63,6.49,1.5,2.43,3.58,5.98,5.86,10.62v8.59c7.97,2.59,18.59,5.52,31.31,7.63,11.66,1.93,27.81,4.53,48.44,2.44,10.08-1.02,24.35-3.47,40.75-9.8-.13-3-.26-5.99-.39-8.99,1.07-.42,2.75-1.28,3.63-2.99,1.34-2.6,.06-5.7-.22-6.44-1.47-3.84,.94-2.35-3.56-43.78-1.86-17.13-2.63-25.82-3.76-30.89-2.08-9.34-4.72-16.81-6.69-21.78"/>
    <path class="cls-5" d="M252.18,415.25c20.04,4.71,37.1,6.72,49.76,7.64,12.46,.9,22.97,1.6,36.89-.22,14.14-1.86,25.57-5.5,33.48-8.57"/>
    <path class="cls-8" d="M358.67,278.86c-.92-1.33-2.34-3.14-4.39-4.92-10.48-9.03-25.55-6.74-33.68-5.5-13.93,2.12-24.31,8.27-30.5,12.82"/>
    <path class="cls-4" d="M294.62,278.2c2.16,2.16,13.05,12.57,30.22,12.73,18.79,.17,30.47-12.09,32.31-14.08,.24-.88,1.01-4.13-.75-6.81-2.26-3.44-7.9-4.72-13.19-2.07-3.07,1.46-7.67,3.2-13.48,3.85-8.07,.91-14.58-.71-18.27-1.94-3.32-2.19-7.57-2.41-11.06-.58-5.24,2.76-5.75,8.56-5.77,8.9Z"/>
  </g>
  <path class="cls-7" d="M252.18,415.25c-3.08,2.09-4.42,5.68-3.48,8.45,1.24,3.66,6.51,5.99,11.26,3.56,1.32,4.28,5.28,6.81,8.89,6.22,3.78-.62,5.54-4.39,5.69-4.71,.19,.42,2.08,4.34,6.6,5.27,4.14,.85,7.22-1.48,7.66-1.83,.63,3.62,3.74,6.29,7.3,6.34,3.33,.05,6.37-2.18,7.35-5.46,.33,3.46,2.92,6.26,6.21,6.79,2.94,.48,5.94-.93,7.56-3.56,.22,2.97,2.41,5.28,4.89,5.56,3.05,.34,6.27-2.42,6.22-6.22,1.5,4.11,5.56,6.48,9.33,5.78,2.87-.53,5.26-2.79,6.22-5.78,1.12,4.15,5.44,6.65,9.56,5.56,4.07-1.08,6.59-5.3,5.59-9.43,1.39,2.82,4.56,4.28,7.52,3.53,3.14-.8,5.28-3.89,4.89-7.22,3.68,0,6.57-3.06,6.44-6.44-.11-3.05-2.63-5.71-5.92-5.97,.65-4.09-1.91-7.94-5.63-8.89-4.1-1.04-8.58,1.72-9.48,6.22-.14-.2-3.18-4.29-8.3-3.85-3.39,.29-6.36,2.47-7.7,5.63-1.41-3.5-4.86-5.75-8.59-5.63-3.64,.12-6.86,2.47-8.11,5.92-.47-3.86-3.53-6.83-7.15-7.13-3.11-.26-6.16,1.48-7.67,4.4-2.7-3.8-7.29-5.66-11.59-4.7-5.28,1.18-7.48,5.99-7.7,6.52-.42-3.32-3.05-5.9-6.22-6.22-2.83-.29-5.61,1.25-6.95,3.88-.3-3.56-2.58-6.61-5.79-7.74-3.79-1.34-8.22,.23-10.51,3.88-2.34-3.12-6.73-3.24-8.9-1-1.95,2.02-1.97,5.83,.53,8.25Z"/>
  <g>
    <path class="cls-8" d="M120.3,343.12c1.55-7.26,4.77-17.46,11.9-27.78,2.71-3.92,5.54-7.21,8.23-9.95,2.33-.35,10.67-1.33,19.23,3.73,8.65,5.12,11.79,13.03,12.58,15.23-.9,2.17-6.5,15.14-21.35,20.73-15.39,5.79-28.59-.9-30.6-1.96Z"/>
    <path class="cls-7" d="M140.69,287.6c2.62-2.63,6.65-3.2,9.75-1.45,2.79,1.57,4.38,4.74,4.01,8.03,3.45-3.5,8.83-4.24,12.99-1.84,4.39,2.53,6.41,7.95,4.71,12.85,2.38-2.45,6.01-2.97,8.64-1.43,3.17,1.85,4.37,6.4,2.17,10.01,.64-.08,3.59-.37,5.68,1.55,2.51,2.31,2.84,6.95,.13,10.77,1.05,3.09,.59,6.44-1.37,8.61-2.82,3.12-8.46,3.51-12.61,.09-1.59,4.49-6.15,7.09-10.4,6.26-4.86-.94-8.31-6.17-7.02-11.53-3.19,3.44-8.3,4.25-12.22,2.02-4.25-2.41-6.11-7.81-4.18-12.52-4.06,1.02-8.35-.72-10.55-4.28-2.21-3.56-1.86-8.16,.85-11.35-4.79-3.17-5.77-9.6-2.69-13.61,2.65-3.44,7.86-4.53,12.11-2.16Z"/>
    <g>
      <path class="cls-8" d="M200.27,283.7c-2.95,.39-6.49,1.16-10.31,2.68-8.96,3.56-14.7,9.32-17.71,12.91-4.99,1.83-11.87,5-18.95,10.53-8.84,6.91-14.19,14.54-17.18,19.62-8.28,6.53-14.28,11.94-16.86,14.78-1.16,1.29-2.16,2.63-2.95,4.33,0,0-1.14,2.43-1.42,4.95-.62,5.42,5,11.36,7.06,13.36,4.26,4.15,15.33,14.91,28.34,10.85,11.38-3.56,15.46-15.72,15.94-17.22l4.36-8.27c3.86-2.08,9.64-5.79,15.08-12.01,5.98-6.83,8.96-13.71,10.44-18.02"/>
      <path class="cls-18" d="M136.11,329.44c3.04-1.37,11.51-4.67,20.87-1.63,2.53,.82,4.63,1.94,6.33,3.07"/>
    </g>
  </g>
  <g>
    <path class="cls-2" d="M301.48,91.91c1.08,1.15,.32,3.49,.22,3.78-2.95,3.54-6.08,7.76-9.11,12.67-4.03,6.51-6.91,12.68-9,18.01-.62,2.16-2.81,3.39-4.78,2.88-1.69-.44-2.93-2.1-2.89-4,1.26-5.04,3.65-12.11,8.44-19.56,3.37-5.24,7-9.23,10.08-12.13,2.69-2.68,5.88-2.88,7.04-1.65Z"/>
    <path class="cls-2" d="M293.87,96.9c-5.12-3.71-9.16-7.36-12.21-10.41-7.83-7.82-11.78-11.73-12.02-17.16-.23-5.22,2.96-7.01,2.02-13.18-.68-4.46-3.16-8.89-4.79-8.67-2.87,.39-1.97,15.06-4.82,15.4-1.62,.19-3.69-4.33-5.91-9.16-2.27-4.95-2.07-6.05-3.79-8.02-3.07-3.52-8.49-5.54-10.03-4.04-2.61,2.55,6.74,14.47,4.67,16.17-1.19,.97-5.73-1.73-8.77-4.86-3.69-3.8-4.01-7.03-7.33-7.91-1.66-.44-3.88-.24-4.69,.98-1.07,1.62,.69,4.5,1.41,5.66,6.17,10.06,23.03,15.18,34.66,28.67,5.63,6.53,6.34,10.74,14.26,17.26,4.5,3.7,8.78,6.06,11.77,7.49,.41-.05,2.9-.37,4.55-2.63,1.81-2.48,1.11-5.24,1.01-5.59Z"/>
    <g>
      <path class="cls-2" d="M285.92,109c-2.78-2.44-6.97-5.55-12.61-7.86-13.08-5.35-31.19-5.28-33.7,.99-2.36,5.91,8.56,18.8,21.72,21.19,7.4,1.35,13.65-.96,16.84-2.45,1.07-.48,3.72-1.84,5.68-4.89,1.88-2.94,2.06-5.81,2.07-6.99Z"/>
      <path class="cls-10" d="M277.55,114.95c.19-1.78-2.96-3.42-6.69-5.37-6.48-3.39-12.24-3.77-17.59-4.07-4.92-.28-7.38-.41-7.98,.76-1.23,2.42,4.78,9.42,12.3,12.01,8.91,3.07,19.63-.18,19.96-3.33Z"/>
      <g>
        <path class="cls-19" d="M279.9,110.69c-.42-.33-.89-.68-1.41-1.05"/>
        <path class="cls-12" d="M273.87,106.75c-2.74-1.49-6.11-2.94-10.09-3.95-5.27-1.34-9.97-1.5-13.62-1.28"/>
        <path class="cls-19" d="M247.43,101.77c-.63,.08-1.21,.17-1.74,.25"/>
      </g>
    </g>
    <path class="cls-14" d="M288.44,100.36c-3.27-1.49-7.94-4.06-12.44-8.44-3.91-3.8-3.12-4.51-9.19-11.85-7.46-9.02-12.52-12.62-15.26-14.37-1.96-1.25-3.65-2.15-4.79-2.72"/>
  </g>
  <g>
    <path class="cls-2" d="M368.07,91.91c-1.08,1.15-.32,3.49-.22,3.78,2.95,3.54,6.08,7.76,9.11,12.67,4.03,6.51,6.91,12.68,9,18.01,.62,2.16,2.81,3.39,4.78,2.88,1.69-.44,2.93-2.1,2.89-4-1.26-5.04-3.65-12.11-8.44-19.56-3.37-5.24-7-9.23-10.08-12.13-2.69-2.68-5.88-2.88-7.04-1.65Z"/>
    <path class="cls-2" d="M375.67,96.9c5.12-3.71,9.16-7.36,12.21-10.41,7.83-7.82,11.78-11.73,12.02-17.16,.23-5.22-2.96-7.01-2.02-13.18,.68-4.46,3.16-8.89,4.79-8.67,2.87,.39,1.97,15.06,4.82,15.4,1.62,.19,3.69-4.33,5.91-9.16,2.27-4.95,2.07-6.05,3.79-8.02,3.07-3.52,8.49-5.54,10.03-4.04,2.61,2.55-6.74,14.47-4.67,16.17,1.19,.97,5.73-1.73,8.77-4.86,3.69-3.8,4.01-7.03,7.33-7.91,1.66-.44,3.88-.24,4.69,.98,1.07,1.62-.69,4.5-1.41,5.66-6.17,10.06-23.03,15.18-34.66,28.67-5.63,6.53-6.34,10.74-14.26,17.26-4.5,3.7-8.78,6.06-11.77,7.49-.41-.05-2.9-.37-4.55-2.63-1.81-2.48-1.11-5.24-1.01-5.59Z"/>
    <g>
      <path class="cls-2" d="M383.62,109c2.78-2.44,6.97-5.55,12.61-7.86,13.08-5.35,31.19-5.28,33.7,.99,2.36,5.91-8.56,18.8-21.72,21.19-7.4,1.35-13.65-.96-16.84-2.45-1.07-.48-3.72-1.84-5.68-4.89-1.88-2.94-2.06-5.81-2.07-6.99Z"/>
      <path class="cls-10" d="M391.99,114.95c-.19-1.78,2.96-3.42,6.69-5.37,6.48-3.39,12.24-3.77,17.59-4.07,4.92-.28,7.38-.41,7.98,.76,1.23,2.42-4.78,9.42-12.3,12.01-8.91,3.07-19.63-.18-19.96-3.33Z"/>
      <g>
        <path class="cls-19" d="M389.64,110.69c.42-.33,.89-.68,1.41-1.05"/>
        <path class="cls-12" d="M395.68,106.75c2.74-1.49,6.11-2.94,10.09-3.95,5.27-1.34,9.97-1.5,13.62-1.28"/>
        <path class="cls-19" d="M422.11,101.77c.63,.08,1.21,.17,1.74,.25"/>
      </g>
    </g>
    <path class="cls-14" d="M381.1,100.36c3.27-1.49,7.94-4.06,12.44-8.44,3.91-3.8,3.12-4.51,9.19-11.85,7.46-9.02,12.52-12.62,15.26-14.37,1.96-1.25,3.65-2.15,4.79-2.72"/>
  </g>
  <g>
    <g>
      <path class="cls-22" d="M333.6,214.29c-2.77-.01-5.58-.04-8.42-.09-2.51-.04-4.99-.1-7.45-.17-.02,.76-.1,1.72-.37,2.8-.26,1.05-.62,1.92-.95,2.59,1.06,.7,3.99,2.44,8.12,2.4,4.08-.04,6.95-1.8,8-2.52,.02-.51,.06-1.06,.15-1.66,.2-1.33,.56-2.46,.93-3.35Z"/>
      <path class="cls-9" d="M334.05,214.29c-.51,.76-1.11,1.9-1.39,3.36-.11,.61-.15,1.17-.15,1.66"/>
      <path class="cls-9" d="M317.73,214.03c-.02,.76-.1,1.72-.37,2.8-.26,1.05-.62,1.92-.95,2.59"/>
      <path class="cls-7" d="M402.46,152.96c-.15,3.16-2.44,40.28-29.57,58.36-13.66,9.1-32.64,11.38-33.63,9.04-.7-1.65,7.1-6.51,6.69-7.1-.33-.47-15.13,12.36-21.43,8.56-1.24-.75-2.1-2.1-4.14-2.35-2.61-.32-4.11,1.56-6.17,2.52-5.39,2.53-12.6-2.4-20.74-6.96-4.42-2.48-7.9-5.09-10.45-7.23,10.62,9,12.72,11.7,12.3,12.29-.58,.82-15.2-5.74-25.41-17.94-8.11-9.7-10.4-19.53-12.65-29.08-1.79-7.6-7.09-31.54,3.01-59.14,3.47-9.47,7.56-20.64,17.78-30.3,19.15-18.09,50.57-22.08,75.56-12.44,36.37,14.02,50.18,53.18,48.83,81.79Z"/>
      <g>
        <path class="cls-23" d="M355.7,147.62c.28-3.94,.27-9.21-.89-15.26-1.35-7.06-3.76-12.63-5.78-16.44"/>
        <g>
          <path class="cls-21" d="M355.7,147.62c.04-.56,.07-1.15,.1-1.76"/>
          <path class="cls-13" d="M355.8,140.98c-.11-2.62-.4-5.52-.99-8.62-.96-5-2.44-9.25-3.95-12.67"/>
          <path class="cls-21" d="M349.83,117.48c-.27-.55-.54-1.07-.8-1.57"/>
        </g>
      </g>
      <path class="cls-16" d="M278.07,162.73c-1.4-7.42-2.62-19.45,.74-33.48,5.95-24.83,22.29-39.46,28.44-44.44"/>
      <path class="cls-16" d="M371.25,106.58c-1.26-2.7-3.43-6.56-7.11-10.37-4.33-4.48-8.85-6.95-11.77-8.26"/>
    </g>
    <path class="cls-16" d="M308.38,208.95c-3.69-4.69-8.47-11.91-11.85-21.63-2.41-6.93-3.43-13.18-3.85-18.07"/>
    <path class="cls-16" d="M345.95,213.26c5.26-3.19,13.7-9.29,20.51-19.72,11.57-17.72,10.65-35.95,10.07-42.07"/>
    <path class="cls-16" d="M283.03,207.79c-3.34-3.76-6.97-8.58-10.2-14.54-1.27-2.36-2.35-4.64-3.26-6.81"/>
    <path class="cls-16" d="M313.31,139.48c-.94,5.01-1.69,11.53-1.33,19.11,.32,6.85,1.45,12.72,2.67,17.33"/>
  </g>
  <g>
    <path class="cls-7" d="M544.17,25.08c15.67-2.78,34.67,19.03,41.48,39.41,9.06,27.09-.33,60.86-20.15,81.78-19.87,20.97-40.66,18.82-50.37,40.3-6.37,14.07-3.88,28.9-1.19,38.52-3.93-3.01-8.21-7.44-9.78-13.63-1.51-5.99,.19-10.96-.37-11.07-.77-.16-5.22,9.04-4.76,19.93,.59,14.03,8.99,23.01,7.95,23.73-1.1,.75-12.16-7.93-16.44-21.78-5.38-17.39,2.69-34,5.78-39.56,8.93-16.05,17.52-14.06,36-33.33,14.69-15.32,26.88-28.03,25.33-42.67-1.35-12.78-11.83-14.25-25.78-43.56-4.41-9.27-6.4-15.5-4.44-22.22,2.22-7.64,9.32-14.53,16.74-15.85Z"/>
    <g>
      <path class="cls-23" d="M503.8,200.37c.56-3.39,1.67-7.71,3.92-12.34,4.62-9.49,11.5-15.08,15.41-17.78"/>
      <g>
        <path class="cls-21" d="M503.8,200.37c.09-.55,.2-1.13,.32-1.73"/>
        <path class="cls-17" d="M505.57,193.3c.57-1.68,1.27-3.45,2.16-5.26,3.4-7,8.04-11.87,11.8-15.03"/>
        <path class="cls-21" d="M521.7,171.29c.51-.38,.99-.72,1.43-1.03"/>
      </g>
    </g>
    <path class="cls-16" d="M567.58,55c3.11,4.44,6.59,10.58,8.89,18.37,5.93,20.08,0,37.5-2.67,44.15"/>
    <path class="cls-16" d="M542.69,45.22c-.07,3.52,.23,8.27,1.78,13.63,2.59,8.97,7.38,15.1,10.37,18.37"/>
  </g>
  <path class="cls-6" d="M312.78,393.8c7.75,.39,19.48,.04,32.89-4.15,10.16-3.18,18.1-7.56,23.7-11.26"/>
  <path class="cls-6" d="M278.71,353.66c6.01,2.78,16.07,6.47,28.89,6.67,7.47,.12,13.83-.98,18.67-2.22"/>
</svg>