<?xml version="1.0" encoding="UTF-8"?>
<svg id="CharacterSide" xmlns="http://www.w3.org/2000/svg" viewBox="0 0 640 640">
  <defs>
    <style>
      .cls-1, .cls-2, .cls-3, .cls-4, .cls-5, .cls-6, .cls-7, .cls-8, .cls-9, .cls-10, .cls-11, .cls-12, .cls-13, .cls-14, .cls-15, .cls-16 {
        fill: none;
      }

      .cls-1, .cls-17, .cls-18, .cls-19, .cls-20, .cls-21, .cls-22, .cls-7, .cls-8, .cls-23, .cls-24, .cls-25, .cls-15 {
        stroke: #000;
      }

      .cls-1, .cls-17, .cls-21, .cls-26 {
        stroke-miterlimit: 10;
      }

      .cls-1, .cls-17, .cls-15 {
        stroke-width: 2.64px;
      }

      .cls-2 {
        stroke-dasharray: 0 0 2.99 4.49;
      }

      .cls-2, .cls-18, .cls-3, .cls-4, .cls-19, .cls-20, .cls-5, .cls-22, .cls-6, .cls-7, .cls-8, .cls-27, .cls-9, .cls-23, .cls-10, .cls-11, .cls-24, .cls-12, .cls-13, .cls-25, .cls-14, .cls-15, .cls-16 {
        stroke-linecap: round;
        stroke-linejoin: round;
      }

      .cls-2, .cls-3, .cls-19, .cls-20, .cls-21, .cls-22, .cls-7, .cls-8, .cls-27, .cls-10, .cls-11, .cls-24, .cls-12, .cls-25, .cls-14 {
        stroke-width: 2.5px;
      }

      .cls-2, .cls-27, .cls-11, .cls-12, .cls-14 {
        stroke: #5b523e;
      }

      .cls-17, .cls-21 {
        fill: #f5e3d9;
      }

      .cls-28 {
        fill: #d3a7a7;
      }

      .cls-18 {
        fill: #fff;
      }

      .cls-3 {
        stroke-dasharray: 0 0 3.56 5.34;
      }

      .cls-3, .cls-10 {
        stroke: #175f99;
      }

      .cls-4, .cls-5, .cls-6, .cls-26, .cls-9, .cls-23, .cls-13, .cls-16 {
        stroke-width: 2px;
      }

      .cls-4, .cls-26, .cls-9, .cls-16 {
        stroke: #bc695c;
      }

      .cls-19 {
        fill: #995b5b;
      }

      .cls-20 {
        fill: #ffc550;
      }

      .cls-29 {
        fill: #ddc7bc;
      }

      .cls-5 {
        stroke-dasharray: 0 0 3.64 5.46;
      }

      .cls-5, .cls-6, .cls-13 {
        stroke: #d3a7a7;
      }

      .cls-22 {
        fill: #ed8383;
      }

      .cls-30, .cls-27, .cls-24 {
        fill: #f4f3e7;
      }

      .cls-6, .cls-8, .cls-27, .cls-12, .cls-16 {
        stroke-dasharray: 0 0 3.52 5.29;
      }

      .cls-31 {
        fill: #efe8e6;
      }

      .cls-26 {
        fill: #f1a791;
      }

      .cls-9 {
        stroke-dasharray: 0 0 3.3 4.4;
      }

      .cls-23 {
        fill: #3f3f3f;
      }

      .cls-11 {
        stroke-dasharray: 0 0 3.69 5.54;
      }

      .cls-25 {
        fill: #eacb94;
      }
    </style>
  </defs>
  <path class="cls-29" d="M303.61,217.76c2.82-.94,5.64-1.87,8.46-2.81l7.27-3.57c-.05,3.27,.31,7.25,1.69,11.52,.29,.91,.61,1.77,.95,2.59-2.56,.84-5.26,1.64-8.12,2.4-2.27,.6-4.48,1.13-6.61,1.59-.41-1.81-.91-3.74-1.54-5.76-.66-2.15-1.38-4.14-2.11-5.96Z"/>
  <path class="cls-15" d="M303.03,217.88c.88,1.34,1.95,3.3,2.69,5.83,.58,1.99,.79,3.77,.84,5.16"/>
  <path class="cls-15" d="M319.34,212.74c-.03,2.65,.28,4.76,.59,6.22,.36,1.7,.85,3.2,1.1,3.94,.35,1.05,.69,1.93,.95,2.59"/>
  <path class="cls-25" d="M92.39,552.37c1.41-.09,8.15-.31,26.2-.78,.48-.05,2.68-.33,4-2.16,.85-1.17,.94-2.43,1-3.17,.12-1.59-.32-2.81-.56-3.44-.14-.38-.53-1.42-1.28-2.33-1.82-2.24-4.76-2.55-5.56-2.61-10.01,.05-20.02,.1-30.04,.15-.17,4.77-.35,9.53-.52,14.3,1.15,.09,2.39,.15,3.71,.15,1.59,0,2.82-.08,3.04-.1Z"/>
  <path class="cls-25" d="M93.6,545.31c.75-7.55-.39-13.47-.97-16.03-1.07-4.67-2.68-8.55-4.23-11.57-1.54-.42-3.83-.86-6.58-.68-9.03,.58-14.59,7.24-15.41,8.25-7.39,9.13-4.17,20.58-3.85,21.63,4.59,1.95,10.76,4,18.24,4.96,4.31,.55,8.22,.64,11.6,.5"/>
  <path class="cls-12" d="M97.43,545.65c6.59-.11,13.19-.22,19.78-.33"/>
  <path class="cls-21" d="M90.47,429.14c-3.67,17.03-3.2,30.3-2.1,39.25,.69,5.6,2.35,14.9,3.85,22.81,2.61,13.69,4.3,20.18,2.96,29.63-.6,4.21-1.59,7.6-2.36,9.83,.23,1.58,.46,3.16,.69,4.74,.07,2.01,.15,4.02,.22,6.03,3.69,.29,6.81,.4,9.15,.44,5.99,.11,7.59-.22,8.89-1.33,1.9-1.63,2.25-4.21,2.37-5.04,.39-2.73-.48-4.92-.74-5.63-1.68-4.54-.54-8.23-.01-22.21,.16-4.21,.35-6.18,.39-8.76,.05-3.89-.19-6.75-.23-7.25-.28-4.32,.4-19.71,3.78-62.67,.55-10.25,1.1-20.5,1.65-30.75-1.42-7.39-7.05-12.72-12.89-13.11-7.68-.52-16.04,7.49-15.11,18.22-.17,8.6-.34,17.2-.51,25.79Z"/>
  <g>
    <path class="cls-4" d="M91.04,469.33c.31,.4,.62,.71,.91,.96"/>
    <path class="cls-9" d="M95.99,470.58c1.23-.78,2.41-2.28,3.24-4.34"/>
    <path class="cls-4" d="M99.91,464.13c.1-.42,.19-.85,.27-1.29"/>
  </g>
  <g>
    <path class="cls-14" d="M65.62,534.71c.18-.37,.45-.9,.83-1.55"/>
    <path class="cls-2" d="M69.17,529.6c1.34-1.4,3.09-2.82,5.34-3.93,2.08-1.02,4.07-1.53,5.78-1.77"/>
    <path class="cls-14" d="M82.53,523.71c.7-.02,1.29,0,1.76,.03"/>
  </g>
  <path class="cls-24" d="M90.09,513.13c.78-3.87-1.96-7.08-4.56-7.22-2.6-.14-5.67,2.74-5.32,6.67-2.29,.43-3.95,2.38-4,4.56-.06,2.45,1.93,4.66,4.56,4.86-.14,.3-1.07,2.43,0,4.59,.96,1.93,3.12,3.09,5.44,2.89-4.04,.57-6.32,3.42-6,5.11,.32,1.69,3.49,3.5,7.44,2.56,.33,2.55,2.44,4.18,4.18,4,1.96-.21,3.87-2.78,3.04-5.67,3.57-.54,5.39-3.48,4.89-5.22-.45-1.57-3.03-2.93-6-2.22,3.1-1.46,4.05-4.94,2.78-7-.91-1.47-2.99-2.23-5.11-1.82,1.48-.62,2.28-2.24,1.88-3.74-.37-1.41-1.72-2.4-3.22-2.33Z"/>
  <path class="cls-25" d="M188.68,552.37c1.41-.09,8.15-.31,26.2-.78,.48-.05,2.68-.33,4-2.16,.85-1.17,.94-2.43,1-3.17,.12-1.59-.32-2.81-.56-3.44-.14-.38-.53-1.42-1.28-2.33-1.82-2.24-4.76-2.55-5.56-2.61-10.01,.05-20.02,.1-30.04,.15-.17,4.77-.35,9.53-.52,14.3,1.15,.09,2.39,.15,3.71,.15,1.59,0,2.82-.08,3.04-.1Z"/>
  <path class="cls-25" d="M189.89,545.31c.75-7.55-.39-13.47-.97-16.03-1.07-4.67-2.68-8.55-4.23-11.57-1.54-.42-3.83-.86-6.58-.68-9.03,.58-14.59,7.24-15.41,8.25-7.39,9.13-4.17,20.58-3.85,21.63,4.59,1.95,10.76,4,18.24,4.96,4.31,.55,8.22,.64,11.6,.5"/>
  <path class="cls-12" d="M193.72,545.65c6.59-.11,13.19-.22,19.78-.33"/>
  <path class="cls-21" d="M186.76,429.14c-3.67,17.03-3.2,30.3-2.1,39.25,.69,5.6,2.35,14.9,3.85,22.81,2.61,13.69,4.3,20.18,2.96,29.63-.6,4.21-1.59,7.6-2.36,9.83,.23,1.58,.46,3.16,.69,4.74,.07,2.01,.15,4.02,.22,6.03,3.69,.29,6.81,.4,9.15,.44,5.99,.11,7.59-.22,8.89-1.33,1.9-1.63,2.25-4.21,2.37-5.04,.39-2.73-.48-4.92-.74-5.63-1.68-4.54-.54-8.23-.01-22.21,.16-4.21,.35-6.18,.39-8.76,.05-3.89-.19-6.75-.23-7.25-.28-4.32,.4-19.71,3.78-62.67,.55-10.25,1.1-20.5,1.65-30.75-1.42-7.39-7.05-12.72-12.89-13.11-7.68-.52-16.04,7.49-15.11,18.22-.17,8.6-.34,17.2-.51,25.79Z"/>
  <g>
    <path class="cls-4" d="M187.33,469.33c.31,.4,.62,.71,.91,.96"/>
    <path class="cls-9" d="M192.29,470.58c1.23-.78,2.41-2.28,3.24-4.34"/>
    <path class="cls-4" d="M196.21,464.13c.1-.42,.19-.85,.27-1.29"/>
  </g>
  <g>
    <path class="cls-14" d="M161.92,534.71c.18-.37,.45-.9,.83-1.55"/>
    <path class="cls-2" d="M165.47,529.6c1.34-1.4,3.09-2.82,5.34-3.93,2.08-1.02,4.07-1.53,5.78-1.77"/>
    <path class="cls-14" d="M178.82,523.71c.7-.02,1.29,0,1.76,.03"/>
  </g>
  <path class="cls-24" d="M186.39,513.13c.78-3.87-1.96-7.08-4.56-7.22-2.6-.14-5.67,2.74-5.32,6.67-2.29,.43-3.95,2.38-4,4.56-.06,2.45,1.93,4.66,4.56,4.86-.14,.3-1.07,2.43,0,4.59,.96,1.93,3.12,3.09,5.44,2.89-4.04,.57-6.32,3.42-6,5.11,.32,1.69,3.49,3.5,7.44,2.56,.33,2.55,2.44,4.18,4.18,4,1.96-.21,3.87-2.78,3.04-5.67,3.57-.54,5.39-3.48,4.89-5.22-.45-1.57-3.03-2.93-6-2.22,3.1-1.46,4.05-4.94,2.78-7-.91-1.47-2.99-2.23-5.11-1.82,1.48-.62,2.28-2.24,1.88-3.74-.37-1.41-1.72-2.4-3.22-2.33Z"/>
  <path class="cls-25" d="M302.24,287.57c-9.94,10.61-13.99,22.03-15.2,25.56,0,0-19.51,56.8-20.3,100.59-.03,1.64,.11,4.19,1.83,5.98,1.33,1.39,3.1,1.81,4.17,1.96,.05,2.44,.1,4.88,.15,7.31-.01,.13-.11,1.27,.77,2.06,.64,.58,1.4,.6,1.6,.6,11.51,1.29,24.45,2.14,38.59,2.08,13.47-.06,25.84-.94,36.89-2.22,.22-.01,.87-.08,1.47-.58,.55-.46,.75-1.03,.81-1.25v-8c2.13-1.13,3.58-2.45,4.54-3.5,.87-.96,1.48-1.64,1.78-2.67,.78-2.64-1.17-5.2-1.63-5.78,.92-15.38,.66-28.33,.15-37.93-.89-16.75-1.85-33.09-7.7-53.04-3.97-13.52-8.86-24.21-12.6-31.44-1-1.3-8.57-10.81-19.1-10.04-6.92,.51-11.53,5.3-16.21,10.3Z"/>
  <g>
    <path class="cls-22" d="M278.16,305.54c-1.57,10.81-4.91,25.97-12.58,42.03-4.15,8.7-8.66,15.76-12.77,21.32,1.66,1.56,4.48,3.78,8.37,5.02,6.34,2.01,11.66,.16,13.82-.75,2.97-11.66,5.73-25.15,7.64-40.26,1.28-10.07,2.01-19.53,2.37-28.23-1,.36-2.26,.7-3.72,.86-1.18,.13-2.24,.1-3.14,.02Z"/>
    <path class="cls-22" d="M291.69,296.26c1.32,8.15,2.43,16.89,3.19,26.16,2.19,26.64,.95,50.38-1.47,69.99-2.81,.51-6.46,.82-10.68,.25-6.95-.94-12.26-3.85-15.49-6.02,3.2-10.4,6.3-22.41,8.79-35.87,3.22-17.37,4.68-33.18,5.23-46.66,1.4-.8,2.9-1.74,4.45-2.85,2.31-1.65,4.29-3.37,5.97-5Z"/>
    <path class="cls-22" d="M291.35,291.21c9.23-1.29,14.42-4.23,17.46-6.68,4.75-3.83,5.87-7.81,12.36-10.27,5.73-2.17,8.4-1.17,9.18-.75,.4,.21,2.53,1.35,2.86,3.11,.64,3.44-6.16,6.75-18.81,14.29-13.05,7.78-17.31,11.11-26.37,13.33-3.72,.91-10.02,2.4-11.55-.03-1.26-1.99,1.07-6.02,3.56-8.41,2.98-2.86,5.81-3.82,11.31-4.59Z"/>
  </g>
  <path class="cls-7" d="M272.75,421.66c1.74,.22,4.23,.52,7.22,.83,13.59,1.4,23.87,1.49,32.44,1.56,0,0,8.98,.06,29.44-.93,1.24-.06,3.9-.2,7.33-.74,1.68-.26,3.02-.54,3.83-.72"/>
  <g>
    <path class="cls-10" d="M277.25,426.72c.58,.07,1.16,.14,1.75,.21"/>
    <path class="cls-3" d="M284.3,427.49c9.45,.92,19.81,1.48,30.97,1.41,10.25-.06,19.8-.64,28.56-1.52"/>
    <path class="cls-10" d="M346.48,427.1c.59-.06,1.17-.13,1.75-.2"/>
  </g>
  <path class="cls-8" d="M357.71,405.72c-4.99,.59-13.33,.91-22.96-2-7.05-2.13-12.42-5.27-16-7.78"/>
  <path class="cls-24" d="M265.3,421.93c-3.13,2.53-4.25,6.53-2.98,9.43,1.68,3.84,7.57,5.86,12.47,2.8,1.82,4.5,6.32,6.86,10.16,5.9,4.02-1.01,5.58-5.24,5.7-5.61,.25,.44,2.65,4.49,7.6,5.08,4.54,.54,7.66-2.26,8.09-2.67,1.01,3.85,4.61,6.44,8.46,6.17,3.6-.25,6.67-2.93,7.43-6.56,.31,3.81,3.53,6.77,7.32,6.76,3.73,0,6.9-2.89,7.27-6.64,1.66,2.89,5.24,4.11,8.29,2.84,2.99-1.25,4.65-4.55,3.85-7.73,3.57,2.03,7.74,1.24,9.56-1.13,2.23-2.9,1.22-8.53-3.51-10.97,2.06-4.39,.74-8.93-1.72-10.3-2.81-1.56-8.35,.32-10.39,5.86-.86-4.12-4.43-7.05-8.37-7.04-3.38,0-6.51,2.16-7.86,5.45-3.26-3.86-8.38-5.43-12.94-4-5.58,1.75-7.51,7.15-7.71,7.74-.76-3.54-3.83-6.08-7.28-6.14-3.07-.05-5.94,1.87-7.14,4.83-.65-3.81-3.39-6.89-6.95-7.81-4.21-1.09-8.84,1.01-10.98,5.15-2.81-3.15-7.56-2.87-9.69-.26-1.92,2.36-1.59,6.46,1.32,8.85Z"/>
  <g>
    <path class="cls-25" d="M428.45,299.56c-2.19,4.14-4.65,9.98-5.91,17.26-2.41,13.85,.84,25.19,2.92,30.86-.86,3.83-1.54,8.78-1.19,14.52,.79,12.89,6.29,22.33,9.48,26.96-1.25,6.02-1,11-.59,14.22,.54,4.21,1.51,11.91,7.43,18.64,1.61,1.83,4.68,5.34,9.76,7.13,7.68,2.71,14.72-.23,23.41-3.85,10.83-4.52,17.68-6.94,20.74-13.63,2.22-4.86,1.3-9.58,.3-15.11-1.77-9.79-6.16-16.93-9.19-21.04,.05-4.43-.43-11.72-3.74-19.93-3.87-9.59-9.72-15.76-13.14-18.88-2.61-9.18-5.92-16.16-8.45-20.82-5.32-9.81-11.25-17.3-16.19-22.58"/>
    <path class="cls-24" d="M440.27,423.35c-.9-3.84,.84-7.79,4.16-9.61,2.98-1.63,6.73-1.28,9.48,.89-1.22-5.07,1.13-10.33,5.63-12.74,4.74-2.54,10.76-1.32,14.22,2.96-.87-3.52,.69-7.09,3.56-8.59,3.45-1.81,8.22-.34,10.23,3.66,.29-.62,1.68-3.45,4.58-4.25,3.48-.96,7.86,1.34,9.78,5.93,3.38,.79,6.14,3.08,6.99,6.06,1.23,4.29-1.58,9.59-6.99,11.42,3.16,3.95,2.94,9.52-.19,12.88-3.58,3.85-10.22,4.03-14.33-.14,1.32,4.8-.83,9.86-5.04,12.15-4.56,2.47-10.47,1.13-13.63-3.26-1.36,4.23-5.33,7.12-9.78,7.11-4.44,0-8.4-2.9-9.76-7.13-5.54,2.54-11.89-.19-13.77-5.21-1.62-4.31,.33-9.62,4.85-12.13Z"/>
    <path class="cls-7" d="M455.01,429.95c3.07-3.2,8.71-8.25,17.19-11.85,8.03-3.42,15.2-4.08,19.56-4.15"/>
    <path class="cls-17" d="M460.49,425.01c4.42,4.27,10.97,5.53,16.65,3.2,5.67-2.32,9.45-7.8,9.61-13.93-3.73,.42-8.86,1.4-14.56,3.83-5.05,2.15-8.95,4.75-11.71,6.91Z"/>
    <path class="cls-12" d="M425.46,347.68c.78-2.08,3.09-7.35,8.74-11.26,7.29-5.05,14.99-4.25,16.89-4"/>
    <path class="cls-12" d="M485.61,375.53c-2.94-1.46-9.31-4.11-17.63-3.56-11.2,.75-18.58,6.82-20.89,8.89"/>
  </g>
  <g>
    <path class="cls-25" d="M521.94,299.56c-2.19,4.14-4.65,9.98-5.91,17.26-2.41,13.85,.84,25.19,2.92,30.86-.86,3.83-1.54,8.78-1.19,14.52,.79,12.89,6.29,22.33,9.48,26.96-1.25,6.02-1,11-.59,14.22,.54,4.21,1.51,11.91,7.43,18.64,1.61,1.83,4.68,5.34,9.76,7.13,7.68,2.71,14.72-.23,23.41-3.85,10.83-4.52,17.68-6.94,20.74-13.63,2.22-4.86,1.3-9.58,.3-15.11-1.77-9.79-6.16-16.93-9.19-21.04,.05-4.43-.43-11.72-3.74-19.93-3.87-9.59-9.72-15.76-13.14-18.88-2.61-9.18-5.92-16.16-8.45-20.82-5.32-9.81-11.25-17.3-16.19-22.58"/>
    <path class="cls-24" d="M533.77,423.35c-.9-3.84,.84-7.79,4.16-9.61,2.98-1.63,6.73-1.28,9.48,.89-1.22-5.07,1.13-10.33,5.63-12.74,4.74-2.54,10.76-1.32,14.22,2.96-.87-3.52,.69-7.09,3.56-8.59,3.45-1.81,8.22-.34,10.23,3.66,.29-.62,1.68-3.45,4.58-4.25,3.48-.96,7.86,1.34,9.78,5.93,3.38,.79,6.14,3.08,6.99,6.06,1.23,4.29-1.58,9.59-6.99,11.42,3.16,3.95,2.94,9.52-.19,12.88-3.58,3.85-10.22,4.03-14.33-.14,1.32,4.8-.83,9.86-5.04,12.15-4.56,2.47-10.47,1.13-13.63-3.26-1.36,4.23-5.33,7.12-9.78,7.11-4.44,0-8.4-2.9-9.76-7.13-5.54,2.54-11.89-.19-13.77-5.21-1.62-4.31,.33-9.62,4.85-12.13Z"/>
    <path class="cls-7" d="M548.51,429.95c3.07-3.2,8.71-8.25,17.19-11.85,8.03-3.42,15.2-4.08,19.56-4.15"/>
    <path class="cls-17" d="M553.98,425.01c4.42,4.27,10.97,5.53,16.65,3.2,5.67-2.32,9.45-7.8,9.61-13.93-3.73,.42-8.86,1.4-14.56,3.83-5.05,2.15-8.95,4.75-11.71,6.91Z"/>
    <path class="cls-12" d="M518.95,347.68c.78-2.08,3.09-7.35,8.74-11.26,7.29-5.05,14.99-4.25,16.89-4"/>
    <path class="cls-12" d="M579.1,375.53c-2.94-1.46-9.31-4.11-17.63-3.56-11.2,.75-18.58,6.82-20.89,8.89"/>
  </g>
  <g>
    <path class="cls-17" d="M257.87,166.68c.29,7.27,6.03,11.62,3.87,17.72-1.11,3.13-2.9,2.79-3.85,5.63-2.32,6.94,5.94,16.24,11.85,20.74,8.85,6.74,18.42,7.29,21.93,7.45,11.44,.5,20.02-3.81,23.7-5.97,14.09-16.62,14.29-39.93,2.07-54.22-14.17-16.58-41.87-17.3-52.74-6.22-1.28,1.31-7.14,7.27-6.83,14.88Z"/>
    <path class="cls-26" d="M298,208.49c.1,4.32-2.13,7.57-3.17,8.89-2.7,.44-7.7,.88-13.57-.82-5.39-1.56-9.14-4.23-11.2-5.94-.11-.59-.19-1.31-.16-2.13,.17-5.59,5.15-14.05,14.05-14.05,8.36,0,13.89,7.46,14.05,14.05Z"/>
    <path class="cls-16" d="M274.22,209.95c-.01-.45-.09-5.85,4.33-9,.58-.41,4.34-2.99,8.78-1.44,4.94,1.72,6.05,6.93,6.11,7.22,.76,3.85-1.14,6.83-1.56,7.44"/>
    <path class="cls-1" d="M257.87,166.68c.29,7.27,6.03,11.62,3.87,17.72-1.11,3.13-2.9,2.79-3.85,5.63-2.32,6.94,5.94,16.24,11.85,20.74,8.85,6.74,18.42,7.29,21.93,7.45,11.44,.5,20.02-3.81,23.7-5.97,14.09-16.62,14.29-39.93,2.07-54.22-14.17-16.58-41.87-17.3-52.74-6.22-1.28,1.31-7.14,7.27-6.83,14.88Z"/>
    <path class="cls-31" d="M264.89,174.31c-.54,1.57-1.41,4.7-1.16,8.67,.09,1.38,.47,7.38,4.34,11.35,3.01,3.1,6.93,3.74,10.03,2.55,6.53-2.49,8.77-12.51,9.45-15.56,.72-3.22,.86-6.03,.87-7.91-2.88-1.09-7.19-2.25-12.45-1.94-4.64,.28-8.44,1.61-11.09,2.83Z"/>
    <path class="cls-20" d="M270.86,172.21c-.94,1.81-2.02,4.5-2.41,7.96-.23,2.01-.72,8.67,2.67,13.7,.85,1.26,2.34,3.48,4.64,3.81,4.34,.63,7.41-6.01,7.6-6.42,2.62-5.84,.89-12.23,.49-13.7-.83-3.06-2.11-5.19-2.96-6.39-1.42-.05-2.97-.02-4.64,.13-1.98,.18-3.78,.51-5.39,.91Z"/>
    <path class="cls-23" d="M264.7,173.52c-.23-.68,3.23-3.59,5.33-4.96,3.12-2.02,9.59-4.76,20.63,0-.23,1.52-.46,3.04-.69,4.57-3.7-1.36-6.84-1.81-9.08-1.96-5.91-.38-10.99,1.01-11.55,1.17-2.7,.76-4.48,1.64-4.64,1.17Z"/>
    <path class="cls-18" d="M271.49,192.69c-2.2-.43-3.74-11.41-1.86-12.8,1.2-.89,4.67,1.48,5.11,5.71,.4,3.85-1.91,7.36-3.25,7.1Z"/>
  </g>
  <path class="cls-24" d="M278.62,84.09c-24.52,9.89-33.86,33.03-36.57,39.72-.51,1.27-5.31,13.43-4.65,27.49,.07,1.53,.51,4.95,1.78,9.19,1.93,6.48,6.8,13.31,10.55,12.81,.99-.13,2.48-.92,3.93-4.53,4.2,5.06,6.59,5.82,8.03,5.35,2.26-.73,2.23-4.5,4.37-4.85,2.46-.41,3.91,4.34,7,4.44,1.75,.06,3.53-1.39,5.67-4.78,4.62-7.33,6.2-16.28,6.67-23.26,1.69,3.47,7.2,13.62,18.96,18.37,3.99,1.61,7.71,2.2,10.67,2.37,.38,5.76,.11,13.57-2.96,21.93-8.94,24.3-34.78,34.57-33.19,37.33,1.02,1.76,11.75-1.93,20.74-6.96,4.42-2.48,7.9-5.09,10.45-7.23,.01,0,.02-.01,.02-.01,.04,.04-13.21,10.78-12.32,12.3,1.54,2.62,53.75-7.49,71.22-46.34,9.18-20.42,8.79-48.82-6.22-68.44-7.84-10.25-17.35-15.07-23.99-18.44-9.04-4.58-33.74-17.11-60.15-6.45Z"/>
  <path class="cls-27" d="M285.4,145.67c-.45-2.78-1.14-5.96-2.22-9.41-1.02-3.27-2.2-6.13-3.35-8.58"/>
  <path class="cls-27" d="M315.03,166.42c1.4-7.42,2.62-19.45-.74-33.48-5.95-24.83-22.29-39.46-28.44-44.44"/>
  <g>
    <path class="cls-24" d="M529.51,51.81c15.83-1.61,33.16,21.55,38.44,42.38,7.03,27.69-4.85,60.67-26.16,80.06-21.37,19.44-41.94,15.75-53.22,36.45-7.39,13.56-6.02,28.53-4.04,38.32-3.69-3.29-7.64-8.02-8.74-14.32-1.06-6.08,1.01-10.91,.45-11.07-.76-.21-5.88,8.63-6.23,19.53-.45,14.03,7.26,23.62,6.16,24.25-1.15,.67-11.54-8.81-14.78-22.94-4.08-17.75,5.21-33.71,8.7-39.02,10.09-15.35,18.52-12.73,38.37-30.57,15.79-14.19,28.89-25.96,28.43-40.67-.4-12.84-10.74-15.09-22.47-45.35-3.71-9.57-5.23-15.93-2.78-22.49,2.78-7.46,10.37-13.8,17.87-14.56Z"/>
    <g>
      <path class="cls-30" d="M476.24,223.63c.81-3.34,2.24-7.56,4.83-12.01,5.31-9.12,12.59-14.19,16.68-16.59"/>
      <g>
        <path class="cls-14" d="M476.24,223.63c.13-.54,.28-1.11,.45-1.7"/>
        <path class="cls-11" d="M478.53,216.71c.69-1.63,1.53-3.34,2.54-5.09,3.91-6.72,8.9-11.24,12.89-14.11"/>
        <path class="cls-14" d="M496.25,195.95c.54-.34,1.04-.65,1.5-.92"/>
      </g>
    </g>
    <path class="cls-27" d="M550.63,83.39c2.77,4.66,5.78,11.04,7.5,18.98,4.42,20.46-2.78,37.4-5.94,43.83"/>
    <path class="cls-27" d="M526.54,71.79c-.33,3.5-.39,8.27,.76,13.72,1.92,9.14,6.24,15.61,8.98,19.09"/>
  </g>
  <path class="cls-27" d="M310.09,211.46c3.71-3.08,8.41-7.65,12.68-14.04,2.98-4.46,5.02-8.71,6.43-12.27"/>
  <path class="cls-27" d="M257.44,115.5c-2.27,2.22-6.3,6.77-8.74,13.78-2.57,7.36-2.08,13.72-1.63,16.89"/>
  <g>
    <path class="cls-19" d="M294.61,97.43c-1.08,1.15-.32,3.49-.22,3.78,2.95,3.54,6.08,7.76,9.11,12.67,4.03,6.51,6.91,12.68,9,18.01,.62,2.16,2.81,3.39,4.78,2.88,1.69-.44,2.93-2.1,2.89-4-1.26-5.04-3.65-12.11-8.44-19.56-3.37-5.24-7-9.23-10.08-12.13-2.69-2.68-5.88-2.88-7.04-1.65Z"/>
    <path class="cls-19" d="M302.21,102.41c5.12-3.71,9.16-7.36,12.21-10.41,7.83-7.82,11.78-11.73,12.02-17.16,.23-5.22-2.96-7.01-2.02-13.18,.68-4.46,3.16-8.89,4.79-8.67,2.87,.39,1.97,15.06,4.82,15.4,1.62,.19,3.69-4.33,5.91-9.16,2.27-4.95,2.07-6.05,3.79-8.02,3.07-3.52,8.49-5.54,10.03-4.04,2.61,2.55-6.74,14.47-4.67,16.17,1.19,.97,5.73-1.73,8.77-4.86,3.69-3.8,4.01-7.03,7.33-7.91,1.66-.44,3.88-.24,4.69,.98,1.07,1.62-.69,4.5-1.41,5.66-6.17,10.06-23.03,15.18-34.66,28.67-5.63,6.53-6.34,10.74-14.26,17.26-4.5,3.7-8.78,6.06-11.77,7.49-.41-.05-2.9-.37-4.55-2.63-1.81-2.48-1.11-5.24-1.01-5.59Z"/>
    <g>
      <path class="cls-19" d="M310.16,114.51c2.78-2.44,6.97-5.55,12.61-7.86,13.08-5.35,31.19-5.28,33.7,.99,2.36,5.91-8.56,18.8-21.72,21.19-7.4,1.35-13.65-.96-16.84-2.45-1.07-.48-3.72-1.84-5.68-4.89-1.88-2.94-2.06-5.81-2.07-6.99Z"/>
      <path class="cls-28" d="M318.53,120.46c-.19-1.78,2.96-3.42,6.69-5.37,6.48-3.39,12.24-3.77,17.59-4.07,4.92-.28,7.38-.41,7.98,.76,1.23,2.42-4.78,9.42-12.3,12.01-8.91,3.07-19.63-.18-19.96-3.33Z"/>
      <g>
        <path class="cls-13" d="M316.18,116.21c.42-.33,.89-.68,1.41-1.05"/>
        <path class="cls-5" d="M322.22,112.26c2.74-1.49,6.11-2.94,10.09-3.95,5.27-1.34,9.97-1.5,13.62-1.28"/>
        <path class="cls-13" d="M348.65,107.29c.63,.08,1.21,.17,1.74,.25"/>
      </g>
    </g>
    <path class="cls-6" d="M307.64,105.87c3.27-1.49,7.94-4.06,12.44-8.44,3.91-3.8,3.12-4.51,9.19-11.85,7.46-9.02,12.52-12.62,15.26-14.37,1.96-1.25,3.65-2.15,4.79-2.72"/>
  </g>
</svg>