<?xml version="1.0" encoding="UTF-8"?>
<svg id="CharacterFront" xmlns="http://www.w3.org/2000/svg" viewBox="0 0 640 640">
  <defs>
    <style>
      .cls-1 {
        stroke-dasharray: 0 0 3.03 4.54;
      }

      .cls-1, .cls-2, .cls-3, .cls-4, .cls-5, .cls-6, .cls-7, .cls-8, .cls-9, .cls-10, .cls-11, .cls-12, .cls-13, .cls-14, .cls-15, .cls-16, .cls-17 {
        fill: none;
      }

      .cls-1, .cls-2, .cls-18, .cls-4, .cls-5, .cls-19, .cls-20, .cls-6, .cls-7, .cls-21, .cls-8, .cls-9, .cls-10, .cls-11, .cls-22, .cls-12, .cls-23, .cls-13, .cls-24, .cls-14, .cls-15, .cls-25, .cls-16, .cls-17, .cls-26 {
        stroke-linecap: round;
        stroke-linejoin: round;
      }

      .cls-1, .cls-2, .cls-5, .cls-6, .cls-7, .cls-10, .cls-27, .cls-12, .cls-23, .cls-15 {
        stroke-width: 2px;
      }

      .cls-1, .cls-2, .cls-5, .cls-7, .cls-27, .cls-12 {
        stroke: #bc695c;
      }

      .cls-2 {
        stroke-dasharray: 0 0 2.67 3.57;
      }

      .cls-3, .cls-28, .cls-18, .cls-19, .cls-20, .cls-29, .cls-21, .cls-11, .cls-23, .cls-24, .cls-25, .cls-17, .cls-26 {
        stroke: #000;
      }

      .cls-3, .cls-28, .cls-29, .cls-27 {
        stroke-miterlimit: 10;
      }

      .cls-3, .cls-28, .cls-17 {
        stroke-width: 2.64px;
      }

      .cls-28, .cls-29, .cls-26 {
        fill: #f5e3d9;
      }

      .cls-30 {
        fill: #d3a7a7;
      }

      .cls-18 {
        fill: #fff;
      }

      .cls-4 {
        stroke-dasharray: 0 0 3.2 4.8;
      }

      .cls-4, .cls-19, .cls-20, .cls-29, .cls-21, .cls-8, .cls-9, .cls-11, .cls-22, .cls-13, .cls-24, .cls-14, .cls-25, .cls-16, .cls-26 {
        stroke-width: 2.5px;
      }

      .cls-4, .cls-8, .cls-9, .cls-22, .cls-13, .cls-14, .cls-16 {
        stroke: #5b523e;
      }

      .cls-19 {
        fill: #995b5b;
      }

      .cls-20 {
        fill: #ffc550;
      }

      .cls-31 {
        fill: #ddc7bc;
      }

      .cls-6 {
        stroke-dasharray: 0 0 3.64 5.46;
      }

      .cls-6, .cls-10, .cls-15 {
        stroke: #d3a7a7;
      }

      .cls-7 {
        stroke-dasharray: 0 0 3.25 4.88;
      }

      .cls-21 {
        fill: #ed8383;
      }

      .cls-32, .cls-22, .cls-24 {
        fill: #f4f3e7;
      }

      .cls-8 {
        stroke-dasharray: 0 0 3.25 4.88;
      }

      .cls-9 {
        stroke-dasharray: 0 0 4.28 6.41;
      }

      .cls-10, .cls-22, .cls-14 {
        stroke-dasharray: 0 0 3.52 5.29;
      }

      .cls-33 {
        fill: #efe8e6;
      }

      .cls-27 {
        fill: #f1a791;
      }

      .cls-12 {
        stroke-dasharray: 0 0 2.81 3.75;
      }

      .cls-23 {
        fill: #3f3f3f;
      }

      .cls-13 {
        stroke-dasharray: 0 0 3.69 5.54;
      }

      .cls-25 {
        fill: #eacb94;
      }
    </style>
  </defs>
  <path class="cls-25" d="M272.41,595.16c1.2-2.89,2.39-5.78,3.59-8.66,1.67-4.62,7.5-7.98,14.3-8.33,7.41-.38,14.41,2.9,16.58,7.89,.96,3.04,1.93,6.08,2.89,9.12-.49,.48-7.19,6.84-19.14,6.67-11.39-.16-17.63-6.1-18.22-6.69Z"/>
  <path class="cls-29" d="M324.68,510.47c.46,2.77,1.33,6.83,3.08,11.52,1.45,3.87,2.71,6.07,3.72,8.22,3.05,6.49,3.51,11.95,4.31,18.79,1.08,9.19,2.73,20.55,5.07,35.27,1.43-.4,3.7-.84,6.48-.6,3.06,.26,5.4,1.24,6.78,1.94,.15-.4,.87-2.14,2.65-2.81,.52-.19,1-.25,1.39-.26,.62-11.14,.52-20.4,.26-27.14-.45-11.99-1.4-16.66-2.02-19.31-1.89-8-4.81-14.2-7.04-18.25-.48-.82-.96-1.78-1.38-2.88-.91-2.36-1.21-4.51-1.3-6.14,.14-7.29,.28-14.58,.42-21.87-1.02-6.36-6.76-10.84-12.89-10.37-6.54,.5-11.69,6.48-11.11,13.33,.52,6.86,1.05,13.72,1.57,20.57Z"/>
  <path class="cls-29" d="M275.89,508.35c1.45,6.16,2.58,10.99,3.33,14.1,.18,.73,.54,2.26,.88,4.34,.26,1.6,.44,3.12,.55,4.53-.56,7.81-.78,16.52-.39,25.97,.46,10.99,1.66,20.94,3.17,29.66,1.06,4.59,5.22,7.64,9.49,7.27,3.53-.31,6.64-2.92,7.73-6.56,.76-4.53,1.78-11.02,2.84-18.89,.92-6.83,1.31-10.24,1.62-13.82,.49-5.73,.58-14.1-1.56-24.68,.02-1.54,0-3.13-.06-4.76-.2-5.66-.87-10.87-1.77-15.54-.84-7.02-1.67-14.04-2.51-21.06-.5-10.11-8.76-16.58-15.56-15.5-4.74,.75-8.86,5.18-10.35,10.93,.86,8,1.72,16.01,2.58,24.01Z"/>
  <g>
    <path class="cls-5" d="M284.11,534.46c.08,.44,.19,.87,.32,1.28"/>
    <path class="cls-12" d="M286.27,538.98c.74,.77,1.58,1.25,2.44,1.35,2.1,.24,4.83-1.76,5.86-5.19"/>
    <path class="cls-5" d="M294.92,533.3c.04-.43,.06-.87,.05-1.32"/>
  </g>
  <g>
    <path class="cls-5" d="M334.1,529.24c.13,.43,.27,.85,.44,1.25"/>
    <path class="cls-2" d="M336.5,533.44c.76,.71,1.59,1.12,2.38,1.13,1.9,.01,4.08-2.31,4.55-5.87"/>
    <path class="cls-5" d="M343.51,526.91c-.01-.43-.05-.87-.12-1.32"/>
  </g>
  <path class="cls-25" d="M359.92,593.06c-.81-1.55-1.91-3.6-4.16-5.42-4.05-3.27-8.81-3.36-10.43-3.39-1.56-.03-5.74-.1-9.66,2.5-2.72,1.81-4.1,4.07-4.9,5.42-4.7,7.89-3.29,17.5-2.7,20.67,1.88,1.73,6.13,5.14,12.46,6.25,11.17,1.96,19.57-4.83,20.87-5.92,3.29-4.62,6.58-9.25,9.87-13.87-.08-1.88-.16-3.76-.24-5.64-.7-1.12-1.93-2.74-3.92-4.11-3.75-2.59-7.7-2.56-9.11-2.48-.21,.7-.42,1.41-.64,2.11,3.59,5.43,4.55,8.51,4.73,10.35,.03,.37,.34,3.75,.33,3.75,0,0,0,0,0,0-.02-2.28-.37-6.14-2.51-10.21Z"/>
  <path class="cls-25" d="M309.77,595.59c-5.2-8.62-15.92-8.77-18.8-8.81-2.92-.04-12.94-.18-18.78,7.92-6.05,8.4-2.42,18.45-2.09,19.31,1.68,1.51,8.87,7.62,19.84,7.61,11.65-.01,19.11-6.93,20.62-8.39,.46-1.1,3.93-9.83-.79-17.64Z"/>
  <g>
    <path class="cls-16" d="M290.73,595.55v1.76"/>
    <path class="cls-9" d="M290.73,603.72v7.48"/>
    <path class="cls-16" d="M290.73,614.41v1.76"/>
  </g>
  <g>
    <path class="cls-16" d="M343.08,590.41c-.28,.49-.55,1.01-.82,1.56"/>
    <path class="cls-4" d="M340.39,596.39c-.05,.13-.09,.27-.14,.4-1.63,4.84-2.03,9.34-1.96,12.98"/>
    <path class="cls-16" d="M338.41,612.17c.05,.62,.11,1.21,.18,1.75"/>
  </g>
  <path class="cls-24" d="M269.42,600.54c-2.16-.58-3.59-4.5-2.63-7.66,.98-3.24,4.21-4.5,4.67-4.67-.39-3.2,1.4-6.23,4.22-7.33,3.2-1.25,7.04,.24,8.67,3.56-.18-3.03,2.04-5.66,4.89-6,2.61-.31,5.18,1.36,6,4,1.44-2.12,4.16-2.95,6.44-2,2.1,.87,3.42,3.06,3.23,5.39,2.03-.7,4.28-.1,5.66,1.5,1.47,1.7,1.67,4.2,.48,6.15,.33,.01,2.44,.13,3.74,1.85,1.44,1.9,.87,4.62-.44,6.22-1.22,1.5-2.94,1.84-3.48,1.93-3.49-.14-5.84-2.33-5.85-4.37,0-1.47,1.21-2.58,1.64-2.94-.63-.27-1.6-.78-2.53-1.73-1.19-1.21-1.7-2.52-1.92-3.22-.72,.09-2.3,.18-4.08-.56-1.78-.73-2.83-1.9-3.28-2.47-.65,.65-1.71,1.5-3.16,1.81-2.59,.55-3.86-1.16-6-.44-1.72,.58-1.65,1.94-3.56,3.11-1.89,1.17-4.05,1.11-5.56,.89-1.53,4.98-4.98,7.58-7.14,7Z"/>
  <path class="cls-24" d="M330.05,592.48c-1.72-1.68-2.38-4.13-1.69-6.33,.82-2.62,3.44-4.42,6.37-4.3,.1-2.6,1.75-4.85,4.09-5.64,2.68-.9,5.77,.27,7.27,2.87,1.36-1.82,3.59-2.66,5.53-2.11,2.52,.7,4.24,3.65,3.45,6.69,1.54-1.14,3.51-1.4,5-.61,2.07,1.1,3.03,4.15,1.63,6.81,1.88,.16,3.54,1.06,4,2.37,.66,1.89-1.05,4.97-4.71,5.78-.59-.28-2.09-1.07-3.14-2.82-.94-1.55-1.03-3.04-1.04-3.7-.14,.03-2.25,.38-3.7-1.19-1.18-1.27-1.06-2.86-1.04-3.11-.58,.08-2.07,.2-3.7-.59-1.53-.74-2.35-1.87-2.67-2.37-.83,.64-2.22,1.54-4.15,2.07-1.48,.41-2.78,.48-3.7,.44-.39,.83-1.25,2.38-2.96,3.7-1.94,1.5-3.91,1.9-4.83,2.03Z"/>
  <g>
    <path class="cls-25" d="M302.06,402.24c23.33,5.26,40.56,3.19,43.98,2.74,7.26-.95,13.54-2.54,18.66-4.18-1.2-30.64-3.42-62.75-6.92-96.18-1.77-16.87-3.78-33.31-6-49.33-1.99-2.57-5.2-6.15-9.92-9.4-2.65-1.82-8.62-5.93-16.18-6.79-4.58-.52-8.92,.26-21.76,6.12-6.62,3.03-15.5,7.41-25.74,13.45-2.88,21.76-9.29,49.81-23.89,79.68-5.44,11.12-11.28,21-17.08,29.68-.47,.56-1.22,1.63-1.5,3.13-.29,1.58,.09,2.83,.29,3.52,1.34,4.45,7.67,10.43,8.09,10.82v12.57c1.98,.7,5.27,1.72,9.43,2.25,12.48,1.6,18.76-2.96,29.85-2.8,6.62,.1,5.63,1.74,18.7,4.69Z"/>
    <path class="cls-11" d="M244.08,389.69c2.86,.63,7.49,1.39,13.18,1.14,5.56-.25,7.05-1.24,15.47-2.26,6.84-.83,10.26-1.24,14.8-.68,4.99,.62,5.67,1.68,13.35,3.65,6.68,1.71,11.92,2.38,14.82,2.73,7.75,.96,13.37,.89,20.81,.79,12.19-.16,16.22-1.19,17.94-1.68,4.21-1.19,7.52-2.78,9.76-4"/>
    <path class="cls-26" d="M301.99,246.35c-.21,2.49-.18,6.77,1.96,11.28,1.17,2.46,3.03,6.37,6.62,7.34,2.9,.78,5.81-.68,9.48-3.31,4.42-3.17,11.03-8.81,17.48-18.5-4.15-1.24-7.8-1.8-10.63-2.06-4.06-.37-9.27-.8-15.5,.97-4.09,1.16-7.25,2.88-9.42,4.28Z"/>
    <g>
      <path class="cls-21" d="M285.33,254.6c-.02-.45-.24-6.93,5.07-10.25,3.38-2.11,8.25-2.26,11.11,0,2.15,1.7,1.68,3.7,4,8,1.72,3.19,3.77,5.44,5.22,6.84,8.64-1.5,13.5-4.9,16.34-7.73,4.44-4.42,5.48-9.01,11.56-11.85,1.66-.78,5.65-2.64,8.59-.89,3.47,2.07,3.3,7.85,3.26,9.19-.11,3.61-1.4,8.99-13.04,20.44-10.89,10.72-17.97,17.69-27.7,17.48-2.2-.05-8.02-.17-11.1-4.4-1.91-2.63-1.92-5.7-1.81-7.25-5.68-6.57-8.66-11.83-10.21-15.02-.49-1.01-1.19-2.52-1.3-4.57Z"/>
      <path class="cls-11" d="M310.74,259.2c-1.93,.49-5.1,1.59-7.96,4.27-3.97,3.72-8.16,11.26-4.89,16.89,2.25,3.87,6.9,4.91,8.44,5.19"/>
      <path class="cls-21" d="M300.1,284.18c-1.88,10.81-5.89,25.97-15.07,42.03-4.97,8.7-10.38,15.76-15.3,21.32,1.99,1.56,5.36,3.78,10.03,5.02,7.6,2.01,13.97,.16,16.56-.75,3.56-11.66,6.86-25.15,9.16-40.26,1.53-10.07,2.41-19.53,2.84-28.23-1.2,.36-2.71,.7-4.46,.86-1.42,.13-2.69,.1-3.76,.02Z"/>
      <path class="cls-21" d="M320.35,276.22c1.58,8.15,2.91,16.89,3.82,26.16,2.63,26.64,1.14,50.38-1.76,69.99-3.36,.51-7.74,.82-12.79,.25-8.32-.94-14.69-3.85-18.56-6.02,3.83-10.4,7.55-22.41,10.54-35.87,3.86-17.37,5.61-33.18,6.27-46.66,1.68-.8,3.47-1.74,5.33-2.85,2.76-1.65,5.14-3.37,7.16-5Z"/>
    </g>
    <path class="cls-24" d="M241.45,392.8c-.48,.72-1.92,3.08-1.19,5.33,1,3.05,5.76,5.21,11.26,3.56,.8,4.2,4.86,6.95,8.89,6.22,3.8-.69,6.57-4.29,6.22-8.3,1.21,2.85,3.91,4.73,6.81,4.74,3.52,.02,6.75-2.71,7.41-6.52,.71,3.72,3.74,6.39,7.11,6.52,4,.15,6.4-3.37,6.52-3.56,.33,5.21,4.29,8.94,8.3,8.89,4.2-.05,6.69-4.23,6.81-4.44-.45,3.26,1.66,6.08,4.15,6.52,2.84,.5,6.2-2.09,6.22-5.93,.03,5.06,4.36,8.76,8.59,8.3,3.52-.38,6.57-3.6,6.81-7.7,.22,.3,2.76,3.66,7.11,3.56,3.12-.08,5.97-1.91,7.41-4.74,1.76,2.88,4.9,4.62,8.21,4.52,3.68-.11,7-2.48,8.38-6,5.13-.4,8.29-5.15,7.41-8.89-.87-3.67-5.65-6.49-10.37-4.74,.65-4.09-1.91-7.94-5.63-8.89-4.1-1.04-8.58,1.72-9.48,6.22-.14-.2-3.18-4.29-8.3-3.85-3.39,.29-6.36,2.47-7.7,5.63-1.41-3.5-4.86-5.75-8.59-5.63-3.64,.12-6.86,2.47-8.11,5.92,.6-4.96-3.15-9.1-7.29-9.18-3.38-.07-6.69,2.58-7.53,6.44-1.51-6.17-7.03-9.57-11.44-8.52-4.41,1.06-6.12,6.2-6.22,6.52-.89-3.35-3.7-5.74-6.81-5.93-3.86-.23-7.6,2.96-8,7.41,.98-4.63-2.04-9.18-6.52-10.07-4.27-.86-8.64,1.86-9.78,6.22-2.69-2.79-6.44-3.8-8.98-2.57-3.47,1.67-5.27,7.79-1.68,12.94Z"/>
  </g>
  <g>
    <path class="cls-25" d="M404.57,278.52c-2.19,4.14-4.65,9.98-5.91,17.26-2.41,13.85,.84,25.19,2.92,30.86-.86,3.83-1.54,8.78-1.19,14.52,.79,12.89,6.29,22.33,9.48,26.96-1.25,6.02-1,11-.59,14.22,.54,4.21,1.51,11.91,7.43,18.64,1.61,1.83,4.68,5.34,9.76,7.13,7.68,2.71,14.72-.23,23.41-3.85,10.83-4.52,17.68-6.94,20.74-13.63,2.22-4.86,1.3-9.58,.3-15.11-1.77-9.79-6.16-16.93-9.19-21.04,.05-4.43-.43-11.72-3.74-19.93-3.87-9.59-9.72-15.76-13.14-18.88-2.61-9.18-5.92-16.16-8.45-20.82-5.44-10.04-11.53-17.15-18.37-25.12-4.14-4.83-7.74-8.64-10.2-11.16"/>
    <path class="cls-24" d="M416.39,402.31c-.9-3.84,.84-7.79,4.16-9.61,2.98-1.63,6.73-1.28,9.48,.89-1.22-5.07,1.13-10.33,5.63-12.74,4.74-2.54,10.76-1.32,14.22,2.96-.87-3.52,.69-7.09,3.56-8.59,3.45-1.81,8.22-.34,10.23,3.66,.29-.62,1.68-3.45,4.58-4.25,3.48-.96,7.86,1.34,9.78,5.93,3.38,.79,6.14,3.08,6.99,6.06,1.23,4.29-1.58,9.59-6.99,11.42,3.16,3.95,2.94,9.52-.19,12.88-3.58,3.85-10.22,4.03-14.33-.14,1.32,4.8-.83,9.86-5.04,12.15-4.56,2.47-10.47,1.13-13.63-3.26-1.36,4.23-5.33,7.12-9.78,7.11-4.44,0-8.4-2.9-9.76-7.13-5.54,2.54-11.89-.19-13.77-5.21-1.62-4.31,.33-9.62,4.85-12.13Z"/>
    <path class="cls-11" d="M431.13,408.91c3.07-3.2,8.71-8.25,17.19-11.85,8.03-3.42,15.2-4.08,19.56-4.15"/>
    <path class="cls-28" d="M436.61,403.96c4.42,4.27,10.97,5.53,16.65,3.2,5.67-2.32,9.45-7.8,9.61-13.93-3.73,.42-8.86,1.4-14.56,3.83-5.05,2.15-8.95,4.75-11.71,6.91Z"/>
    <path class="cls-14" d="M401.58,326.64c.78-2.08,3.09-7.35,8.74-11.26,7.29-5.05,14.99-4.25,16.89-4"/>
    <path class="cls-14" d="M461.73,354.49c-2.94-1.46-9.31-4.11-17.63-3.56-11.2,.75-18.58,6.82-20.89,8.89"/>
  </g>
  <g>
    <path class="cls-25" d="M211.93,253.38c-2.87,.78-6.27,2.02-9.86,4.04-8.4,4.73-13.32,11.21-15.82,15.17-4.7,2.48-11.09,6.54-17.37,12.98-7.83,8.04-12.11,16.32-14.39,21.75-7.32,7.58-12.55,13.75-14.72,16.91-.98,1.43-1.78,2.9-2.34,4.68-.71,2.27-.74,4.13-.74,5.1-.06,8.15,4.05,16.44,4.05,16.44,.4,.8,4.9,8.33,12.67,14.96,1.21,1.04,3.5,2.67,6.67,3.11,2.99,.41,5.51-.42,8.26-1.69,10.67-4.93,17.08-12.53,17.08-12.53,4.96-5.88,7.56-11.91,8.96-16.3-1.96-1.32-3.92-2.64-5.87-3.96,1.07-2.93,2.14-5.86,3.21-8.78,3.55-2.58,8.77-7.03,13.33-13.93,5.01-7.58,7.03-14.79,7.93-19.26"/>
    <path class="cls-24" d="M150.52,362.44c-1.93-3.17-1.54-7.21,.9-9.82,2.18-2.34,5.65-3.13,8.75-1.99-2.58-4.18-2.03-9.58,1.29-13.06,3.49-3.66,9.24-4.34,13.6-1.53-1.81-2.89-1.46-6.55,.65-8.74,2.55-2.64,7.26-2.72,10.23,.26,.08-.64,.49-3.58,2.85-5.15,2.83-1.89,7.43-1.11,10.49,2.43,3.25-.29,6.4,.95,8.04,3.37,2.36,3.47,1.41,9.05-2.9,12.28,3.99,2.61,5.43,7.65,3.62,11.58-2.07,4.5-7.96,6.61-12.86,4.09,2.59,3.91,2.16,9.07-.93,12.35-3.35,3.55-9.04,4.09-13.16,1.09,.02,4.19-2.68,7.94-6.66,9.24-3.98,1.3-8.37-.12-10.83-3.51-4.21,3.91-10.7,3.33-13.86-.61-2.72-3.39-2.54-8.71,.77-12.28Z"/>
    <path class="cls-14" d="M154.49,307.32c2.83-1.76,10.78-6.17,20.47-4.42,2.61,.47,4.85,1.3,6.68,2.19"/>
  </g>
  <g>
    <g>
      <path class="cls-31" d="M138.73,210.23c2.77-.01,5.58-.04,8.42-.09,2.51-.04,4.99-.1,7.45-.17,.02,.76,.1,1.72,.37,2.8,.26,1.05,.62,1.92,.95,2.59-1.06,.7-3.99,2.44-8.12,2.4-4.08-.04-6.95-1.8-8-2.52-.02-.51-.06-1.06-.15-1.66-.2-1.33-.56-2.46-.93-3.35Z"/>
      <g>
        <path class="cls-28" d="M90.11,166.37c1.37,11.3,3.2,14.34,4.7,16.18,1.38,1.7,3.29,3.39,4.7,6.79,1.56,3.78,.81,5.62,1.57,8.09,1.81,5.93,10.11,8.43,16.18,10.18,7.06,2.03,13.84,2.76,24.79,2.61,16.82-.22,25.22-.33,32.62-3.65,11.89-5.33,18.32-14.7,20.88-18.53,11.85-17.74,12.35-41.17,5.22-59.51-7.71-19.83-28.92-45.45-58.46-43.59-31.73,2-50.05,34.25-52.98,52.98-1.5,9.61,.02,22.19,.78,28.45Z"/>
        <path class="cls-33" d="M125.03,164.83c1.01,.97,2.54,2.7,3.63,5.32,2.04,4.91,2.15,12.08-1.5,16.44-2.35,2.82-5.34,3.35-8.53,3.91-1.68,.3-8.98,1.37-15.55-3.65-1.09-.83-3.05-2.36-4.74-5.21-2.12-3.57-2.59-7.13-2.71-8.96,3.12-3.9,6.22-5.74,8.16-6.65,4.54-2.12,8.81-1.99,14.38-1.82,2.88,.09,5.25,.37,6.85,.61Z"/>
        <path class="cls-33" d="M161.74,163.89c-.71,1.57-1.87,4.7-1.53,8.67,.12,1.38,.63,7.38,5.74,11.35,3.98,3.1,9.16,3.74,13.26,2.55,8.63-2.49,11.59-12.51,12.5-15.56,.95-3.22,1.14-6.03,1.15-7.91-3.81-1.09-9.51-2.25-16.46-1.94-6.14,.28-11.15,1.61-14.66,2.83Z"/>
        <path class="cls-27" d="M99.75,189.97c1.69-1.13,5.09-3.08,9.73-3.45,1.69-.13,10.22-.81,15.46,5.68,3.8,4.7,4.47,11.44,1.87,17.36-4.11-.63-7.52-1.43-10.07-2.11-.72-.19-5.04-1.37-9.7-3.65-1.09-.54-2.49-1.27-3.81-2.73-.55-.61-1.62-1.82-2.18-3.65-.46-1.52-.16-2.13-.56-4.44-.23-1.32-.54-2.37-.76-3.01Z"/>
        <g>
          <path class="cls-5" d="M103.22,191.62c.45-.22,.99-.46,1.61-.7"/>
          <path class="cls-7" d="M109.55,189.7c2.17-.33,5.11-.42,8.16,.94,1.11,.5,4.44,1.98,6.26,5.77,.81,1.69,1.09,3.34,1.12,4.77"/>
          <path class="cls-5" d="M124.89,203.61c-.15,.82-.34,1.42-.43,1.71"/>
        </g>
        <path class="cls-27" d="M172.51,207.42c-.88-.83-3.99-3.94-4.5-8.95-.04-.35-.63-7.43,4.89-12.14,4.86-4.14,11.84-4.23,16.64-1.37,2.51,1.5,3.99,3.54,4.77,4.87-1.78,2.63-4.32,5.83-7.85,8.97-5.14,4.57-10.3,7.16-13.95,8.63Z"/>
        <g>
          <path class="cls-5" d="M174.27,202.68c-.29-.33-.68-.8-1.06-1.41"/>
          <path class="cls-1" d="M171.92,196.97c-.11-3.79,2.36-6.6,2.59-6.85,2.74-3.03,6.42-3.25,7.57-3.26,1.71-.02,3.18,.38,4.37,.9"/>
          <path class="cls-5" d="M188.41,188.87c.71,.5,1.17,.94,1.36,1.12"/>
        </g>
        <path class="cls-20" d="M113.32,164.47c-1.53,.44-3.78,1.34-5.49,3.37-4.8,5.71-3,17.64,3.95,20.66,3.55,1.54,8.46,.77,11.48-2.17,2.79-2.72,3.06-6.26,3.2-8.18,.34-4.56-1.5-8-2.35-9.37-1.08-1.74-2.31-2.95-3.21-3.71-2.53-.2-5.06-.4-7.59-.6Z"/>
        <path class="cls-20" d="M169.63,161.79c-1.24,1.81-2.67,4.5-3.18,7.96-.3,2.01-.95,8.67,3.52,13.7,1.12,1.26,3.09,3.48,6.14,3.81,5.73,.63,9.8-6.01,10.05-6.42,3.46-5.84,1.18-12.23,.65-13.7-1.1-3.06-2.8-5.19-3.92-6.39-1.88-.05-3.93-.02-6.13,.13-2.61,.18-5,.51-7.13,.91Z"/>
        <path class="cls-3" d="M90.11,166.37c1.37,11.3,3.2,14.34,4.7,16.18,1.38,1.7,3.29,3.39,4.7,6.79,1.56,3.78,.81,5.62,1.57,8.09,1.81,5.93,10.11,8.43,16.18,10.18,7.06,2.03,13.84,2.76,24.79,2.61,16.82-.22,25.22-.33,32.62-3.65,11.89-5.33,18.32-14.7,20.88-18.53,11.85-17.74,12.35-41.17,5.22-59.51-7.71-19.83-28.92-45.45-58.46-43.59-31.73,2-50.05,34.25-52.98,52.98-1.5,9.61,.02,22.19,.78,28.45Z"/>
        <path class="cls-23" d="M161.49,163.1c-.31-.68,4.27-3.59,7.05-4.96,4.12-2.02,12.67-4.76,27.27,0-.3,1.52-.61,3.04-.91,4.57-4.9-1.36-9.04-1.81-12.01-1.96-7.82-.38-14.52,1.01-15.27,1.17-3.56,.76-5.92,1.64-6.13,1.17Z"/>
        <path class="cls-23" d="M94.59,165.78c1.79-1.37,3.9-2.64,6.37-3.61,12.57-4.92,25.06,1.71,28.01,3.37-6.59-1.29-12.1-1.34-15.99-1.12-8.19,.46-11.41,2.25-12.88,3.2-2.17,1.4-3.66,3.02-4.6,4.2-.3-2.01-.6-4.03-.9-6.04Z"/>
        <path class="cls-5" d="M115.67,155.6c1.48,.03,3.37,.21,5.48,.78,1.45,.39,2.69,.89,3.72,1.37"/>
        <path class="cls-5" d="M164.07,155.6c1.06-.76,2.36-1.58,3.92-2.35,1.42-.7,2.75-1.2,3.92-1.57"/>
        <path class="cls-18" d="M124.06,170.97c2.75,1.04,2.42,12.2-.31,13.03-1.74,.53-5.72-2.75-5.39-7.01,.3-3.87,4.02-6.66,5.69-6.03Z"/>
        <path class="cls-18" d="M170.47,182.27c-2.9-.43-4.95-11.41-2.46-12.8,1.59-.89,6.17,1.48,6.75,5.71,.53,3.85-2.52,7.36-4.29,7.1Z"/>
        <path class="cls-11" d="M146.42,196.06c-.09-.51-.17-1.03-.26-1.54"/>
      </g>
      <path class="cls-17" d="M138.28,210.23c.51,.76,1.11,1.9,1.39,3.36,.11,.61,.15,1.17,.15,1.66"/>
      <path class="cls-17" d="M154.6,209.97c.02,.76,.1,1.72,.37,2.8,.26,1.05,.62,1.92,.95,2.59"/>
      <path class="cls-24" d="M69.87,148.9c.15,3.16,2.44,40.28,29.57,58.36,14.91,9.93,32.81,11.12,33.63,9.04,.69-1.77-11.14-5.27-22.37-18.52-6.84-8.07-10.15-16.06-10.96-18.07-.94-2.33-1.59-4.35-2.03-5.83,2.04-2.1,4.99-5.41,7.95-9.88,7.18-10.85,9.25-20.8,10.96-20.44,1.03,.21,.17,3.81,1.78,9.19,1.93,6.48,6.8,13.31,10.55,12.81,.99-.13,2.48-.92,3.93-4.53,4.2,5.06,6.59,5.82,8.03,5.35,2.26-.73,2.23-4.5,4.37-4.85,2.46-.41,3.91,4.34,7,4.44,1.75,.06,3.53-1.39,5.67-4.78,4.62-7.33,6.2-16.28,6.67-23.26,1.69,3.47,7.2,13.62,18.96,18.37,3.99,1.61,7.71,2.2,10.67,2.37,.38,5.76,.11,13.57-2.96,21.93-8.94,24.3-34.78,34.57-33.19,37.33,1.02,1.76,11.75-1.93,20.74-6.96,4.42-2.48,7.9-5.09,10.45-7.23-10.62,9-12.72,11.7-12.3,12.29,.58,.82,15.2-5.74,25.41-17.94,8.11-9.7,10.4-19.53,12.65-29.08,1.79-7.6,7.09-31.54-3.01-59.14-3.47-9.47-7.56-20.64-17.78-30.3-19.15-18.09-50.57-22.08-75.56-12.44-36.37,14.02-50.18,53.18-48.83,81.79Z"/>
      <g>
        <path class="cls-32" d="M116.63,143.55c-.28-3.94-.27-9.21,.89-15.26,1.35-7.06,3.76-12.63,5.78-16.44"/>
        <g>
          <path class="cls-16" d="M116.63,143.55c-.04-.56-.07-1.15-.1-1.76"/>
          <path class="cls-8" d="M116.53,136.91c.11-2.62,.4-5.52,.99-8.62,.96-5,2.44-9.25,3.95-12.67"/>
          <path class="cls-16" d="M122.5,113.41c.27-.55,.54-1.07,.8-1.57"/>
        </g>
      </g>
      <path class="cls-22" d="M164.63,137.92c-.45-2.78-1.14-5.96-2.22-9.41-1.02-3.27-2.2-6.13-3.35-8.58"/>
      <path class="cls-22" d="M194.26,158.66c1.4-7.42,2.62-19.45-.74-33.48-5.95-24.83-22.29-39.46-28.44-44.44"/>
      <path class="cls-22" d="M97.72,173.88c-2.63-5.33-5.97-13.82-6.86-24.69-.58-7.07,.04-13.15,.89-17.78"/>
      <path class="cls-22" d="M101.08,102.52c1.26-2.7,3.43-6.56,7.11-10.37,4.33-4.48,8.85-6.95,11.77-8.26"/>
    </g>
    <g>
      <path class="cls-19" d="M170.85,87.85c-1.08,1.15-.32,3.49-.22,3.78,2.95,3.54,6.08,7.76,9.11,12.67,4.03,6.51,6.91,12.68,9,18.01,.62,2.16,2.81,3.39,4.78,2.88,1.69-.44,2.93-2.1,2.89-4-1.26-5.04-3.65-12.11-8.44-19.56-3.37-5.24-7-9.23-10.08-12.13-2.69-2.68-5.88-2.88-7.04-1.65Z"/>
      <path class="cls-19" d="M178.46,92.84c5.12-3.71,9.16-7.36,12.21-10.41,7.83-7.82,11.78-11.73,12.02-17.16,.23-5.22-2.96-7.01-2.02-13.18,.68-4.46,3.16-8.89,4.79-8.67,2.87,.39,1.97,15.06,4.82,15.4,1.62,.19,3.69-4.33,5.91-9.16,2.27-4.95,2.07-6.05,3.79-8.02,3.07-3.52,8.49-5.54,10.03-4.04,2.61,2.55-6.74,14.47-4.67,16.17,1.19,.97,5.73-1.73,8.77-4.86,3.69-3.8,4.01-7.03,7.33-7.91,1.66-.44,3.88-.24,4.69,.98,1.07,1.62-.69,4.5-1.41,5.66-6.17,10.06-23.03,15.18-34.66,28.67-5.63,6.53-6.34,10.74-14.26,17.26-4.5,3.7-8.78,6.06-11.77,7.49-.41-.05-2.9-.37-4.55-2.63-1.81-2.48-1.11-5.24-1.01-5.59Z"/>
      <g>
        <path class="cls-19" d="M186.41,104.93c2.78-2.44,6.97-5.55,12.61-7.86,13.08-5.35,31.19-5.28,33.7,.99,2.36,5.91-8.56,18.8-21.72,21.19-7.4,1.35-13.65-.96-16.84-2.45-1.07-.48-3.72-1.84-5.68-4.89-1.88-2.94-2.06-5.81-2.07-6.99Z"/>
        <path class="cls-30" d="M194.78,110.88c-.19-1.78,2.96-3.42,6.69-5.37,6.48-3.39,12.24-3.77,17.59-4.07,4.92-.28,7.38-.41,7.98,.76,1.23,2.42-4.78,9.42-12.3,12.01-8.91,3.07-19.63-.18-19.96-3.33Z"/>
        <g>
          <path class="cls-15" d="M192.43,106.63c.42-.33,.89-.68,1.41-1.05"/>
          <path class="cls-6" d="M198.46,102.69c2.74-1.49,6.11-2.94,10.09-3.95,5.27-1.34,9.97-1.5,13.62-1.28"/>
          <path class="cls-15" d="M224.9,97.71c.63,.08,1.21,.17,1.74,.25"/>
        </g>
      </g>
      <path class="cls-10" d="M183.89,96.29c3.27-1.49,7.94-4.06,12.44-8.44,3.91-3.8,3.12-4.51,9.19-11.85,7.46-9.02,12.52-12.62,15.26-14.37,1.96-1.25,3.65-2.15,4.79-2.72"/>
    </g>
    <g>
      <path class="cls-19" d="M104.26,87.85c1.08,1.15,.32,3.49,.22,3.78-2.95,3.54-6.08,7.76-9.11,12.67-4.03,6.51-6.91,12.68-9,18.01-.62,2.16-2.81,3.39-4.78,2.88-1.69-.44-2.93-2.1-2.89-4,1.26-5.04,3.65-12.11,8.44-19.56,3.37-5.24,7-9.23,10.08-12.13,2.69-2.68,5.88-2.88,7.04-1.65Z"/>
      <path class="cls-19" d="M96.66,92.84c-5.12-3.71-9.16-7.36-12.21-10.41-7.83-7.82-11.78-11.73-12.02-17.16-.23-5.22,2.96-7.01,2.02-13.18-.68-4.46-3.16-8.89-4.79-8.67-2.87,.39-1.97,15.06-4.82,15.4-1.62,.19-3.69-4.33-5.91-9.16-2.27-4.95-2.07-6.05-3.79-8.02-3.07-3.52-8.49-5.54-10.03-4.04-2.61,2.55,6.74,14.47,4.67,16.17-1.19,.97-5.73-1.73-8.77-4.86-3.69-3.8-4.01-7.03-7.33-7.91-1.66-.44-3.88-.24-4.69,.98-1.07,1.62,.69,4.5,1.41,5.66,6.17,10.06,23.03,15.18,34.66,28.67,5.63,6.53,6.34,10.74,14.26,17.26,4.5,3.7,8.78,6.06,11.77,7.49,.41-.05,2.9-.37,4.55-2.63,1.81-2.48,1.11-5.24,1.01-5.59Z"/>
      <g>
        <path class="cls-19" d="M88.71,104.93c-2.78-2.44-6.97-5.55-12.61-7.86-13.08-5.35-31.19-5.28-33.7,.99-2.36,5.91,8.56,18.8,21.72,21.19,7.4,1.35,13.65-.96,16.84-2.45,1.07-.48,3.72-1.84,5.68-4.89,1.88-2.94,2.06-5.81,2.07-6.99Z"/>
        <path class="cls-30" d="M80.34,110.88c.19-1.78-2.96-3.42-6.69-5.37-6.48-3.39-12.24-3.77-17.59-4.07-4.92-.28-7.38-.41-7.98,.76-1.23,2.42,4.78,9.42,12.3,12.01,8.91,3.07,19.63-.18,19.96-3.33Z"/>
        <g>
          <path class="cls-15" d="M82.69,106.63c-.42-.33-.89-.68-1.41-1.05"/>
          <path class="cls-6" d="M76.65,102.69c-2.74-1.49-6.11-2.94-10.09-3.95-5.27-1.34-9.97-1.5-13.62-1.28"/>
          <path class="cls-15" d="M50.22,97.71c-.63,.08-1.21,.17-1.74,.25"/>
        </g>
      </g>
      <path class="cls-10" d="M91.23,96.29c-3.27-1.49-7.94-4.06-12.44-8.44-3.91-3.8-3.12-4.51-9.19-11.85-7.46-9.02-12.52-12.62-15.26-14.37-1.96-1.25-3.65-2.15-4.79-2.72"/>
    </g>
  </g>
  <g>
    <path class="cls-24" d="M568.22,242.13c15.67-2.78,34.67,19.03,41.48,39.41,9.06,27.09-.33,60.86-20.15,81.78-19.87,20.97-40.66,18.82-50.37,40.3-6.37,14.07-3.88,28.9-1.19,38.52-3.93-3.01-8.21-7.44-9.78-13.63-1.51-5.99,.19-10.96-.37-11.07-.77-.16-5.22,9.04-4.76,19.93,.59,14.03,8.99,23.01,7.95,23.73-1.1,.75-12.16-7.93-16.44-21.78-5.38-17.39,2.69-34,5.78-39.56,8.93-16.05,17.52-14.06,36-33.33,14.69-15.32,26.88-28.03,25.33-42.67-1.35-12.78-11.83-14.25-25.78-43.56-4.41-9.27-6.4-15.5-4.44-22.22,2.22-7.64,9.32-14.53,16.74-15.85Z"/>
    <g>
      <path class="cls-32" d="M527.85,417.43c.56-3.39,1.67-7.71,3.92-12.34,4.62-9.49,11.5-15.08,15.41-17.78"/>
      <g>
        <path class="cls-16" d="M527.85,417.43c.09-.55,.2-1.13,.32-1.73"/>
        <path class="cls-13" d="M529.62,410.35c.57-1.68,1.27-3.45,2.16-5.26,3.4-7,8.04-11.87,11.8-15.03"/>
        <path class="cls-16" d="M545.75,388.34c.51-.38,.99-.72,1.43-1.03"/>
      </g>
    </g>
    <path class="cls-22" d="M591.62,272.06c3.11,4.44,6.59,10.58,8.89,18.37,5.93,20.08,0,37.5-2.67,44.15"/>
    <path class="cls-22" d="M566.74,262.28c-.07,3.52,.23,8.27,1.78,13.63,2.59,8.97,7.38,15.1,10.37,18.37"/>
  </g>
  <path class="cls-31" d="M138.73,210.23c2.77-.01,5.58-.04,8.42-.09,2.51-.04,4.99-.1,7.45-.17,.02,.76,.1,1.72,.37,2.8,.26,1.05,.62,1.92,.95,2.59-1.06,.7-3.99,2.44-8.12,2.4-4.08-.04-6.95-1.8-8-2.52-.02-.51-.06-1.06-.15-1.66-.2-1.33-.56-2.46-.93-3.35Z"/>
  <path class="cls-31" d="M473.26,210.23c2.77-.01,5.58-.04,8.42-.09,2.51-.04,4.99-.1,7.45-.17,.02,.76,.1,1.72,.37,2.8,.26,1.05,.62,1.92,.95,2.59-1.06,.7-3.99,2.44-8.12,2.4-4.08-.04-6.95-1.8-8-2.52-.02-.51-.06-1.06-.15-1.66-.2-1.33-.56-2.46-.93-3.35Z"/>
</svg>